asia-japan-west
1
   129.4886045   35.0972257
   129.4888281   35.0971488
   130.0991020   34.8532029
   130.1000125   34.8528889
   130.1009489   34.8526640
   130.1019027   34.8525301
   130.1028650   34.8524887
   130.1038267   34.8525400
   130.1047791   34.8526836
   130.1057132   34.8529182
   130.1066205   34.8532415
   130.1074924   34.8536506
   130.1083209   34.8541417
   130.1090984   34.8547102
   130.1098175   34.8553509
   130.1104717   34.8560577
   130.1110548   34.8568243
   130.1115615   34.8576434
   130.1119870   34.8585074
   130.1123275   34.8594083
   130.1125797   34.8603378
   130.1127413   34.8612873
   130.1128108   34.8622479
   130.1127876   34.8632108
   130.1126719   34.8641669
   130.1124647   34.8651075
   130.1121680   34.8660238
   130.1117845   34.8669073
   129.8976063   35.3017243
   129.8975151   35.3019343
   129.8977221   35.3020322
   133.9118760   36.9680070
   133.9120931   36.9680850
   133.9121753   36.9678695
   134.1253863   36.3147700
   133.9646478   36.2965581
   133.9644191   36.2965205
   133.9645276   36.2963157
   134.3387157   35.6678713
   134.3392407   35.6668633
   134.3396480   35.6658022
   134.3442295   35.6514804
   134.3443094   35.6512651
   134.3444282   35.6510674
   134.3673074   35.6166912
   134.3678491   35.6157750
   134.3682904   35.6148064
   134.3686262   35.6137963
   134.3701333   35.6083031
   134.3702106   35.6080684
   134.3704216   35.6079399
   134.3810001   35.6022083
   134.3812024   35.6021103
   134.3814271   35.6021111
   134.3822332   35.6021506
   134.3831563   35.6021532
   134.3840757   35.6020706
   134.3849836   35.6019036
   134.3858722   35.6016536
   134.3867340   35.6013227
   134.3875615   35.6009138
   134.3883479   35.6004303
   134.3890863   35.5998763
   134.3923103   35.5972165
   134.3925063   35.5970704
   134.3927270   35.5969654
   134.3982638   35.5946584
   134.3991339   35.5942456
   134.3999603   35.5937511
   134.4007352   35.5931793
   134.4014516   35.5925356
   134.4021027   35.5918261
   134.4026826   35.5910571
   134.4031858   35.5902360
   134.4038927   35.5889468
   134.4043416   35.5880175
   134.4046923   35.5870469
   134.4049411   35.5860453
   134.4050854   35.5850234
   134.4056263   35.5789346
   134.4056652   35.5779669
   134.4056103   35.5770000
   134.4054622   35.5760429
   134.4052221   35.5751047
   134.4038695   35.5707155
   134.4038117   35.5704909
   134.4039040   35.5702781
   134.4065856   35.5648132
   134.4067111   35.5645878
   134.4068805   35.5643931
   134.4093221   35.5618642
   134.4095048   35.5616935
   134.4097543   35.5617103
   134.4105635   35.5618068
   134.4115439   35.5618751
   134.4125262   35.5618468
   134.4135011   35.5617222
   134.4144590   35.5615025
   134.4153907   35.5611899
   134.4162872   35.5607873
   134.4171399   35.5602986
   134.4179405   35.5597287
   134.4186812   35.5590829
   134.4193550   35.5583675
   134.4199554   35.5575894
   134.4204764   35.5567561
   134.4209132   35.5558757
   134.4212614   35.5549567
   134.4215178   35.5540080
   134.4216797   35.5530387
   134.4217458   35.5520581
   134.4217153   35.5510759
   134.4215885   35.5501013
   134.4213667   35.5491439
   134.4210519   35.5482129
   134.4197913   35.5450117
   134.4197132   35.5447803
   134.4198019   35.5445528
   134.4200567   35.5439848
   134.4204289   35.5430260
   134.4207006   35.5420341
   134.4208690   35.5410195
   134.4209322   35.5399930
   134.4208897   35.5389654
   134.4207419   35.5379476
   134.4204904   35.5369504
   134.4201377   35.5359843
   134.4196877   35.5350595
   134.4188132   35.5334751
   134.4187108   35.5332670
   134.4186916   35.5330359
   134.4186052   35.5306300
   134.4185260   35.5296830
   134.4183573   35.5287478
   134.4181006   35.5278328
   134.4177582   35.5269464
   134.4173332   35.5260964
   134.4168294   35.5252907
   134.4122392   35.5186708
   134.4121114   35.5184657
   134.4120713   35.5182273
   134.4116289   35.5144846
   134.4116127   35.5142482
   134.4118345   35.5141649
   134.4163957   35.5127054
   134.4172259   35.5123986
   134.4180257   35.5120196
   134.4187889   35.5115714
   134.4195094   35.5110574
   134.4229711   35.5083493
   134.4237145   35.5077065
   134.4243911   35.5069939
   134.4249945   35.5062183
   134.4255189   35.5053871
   134.4259592   35.5045086
   134.4263111   35.5035910
   134.4265713   35.5026434
   134.4267371   35.5016748
   134.4268072   35.5006946
   134.4267806   35.4997122
   134.4266578   35.4987372
   134.4262437   35.4963880
   134.4262130   35.4961417
   134.4263049   35.4959111
   134.4337945   35.4795657
   134.4341620   35.4786459
   134.4344367   35.4776943
   134.4346159   35.4767201
   134.4346978   35.4757331
   134.4346818   35.4747427
   134.4345678   35.4737588
   134.4343570   35.4727910
   134.4325666   35.4661664
   134.4325138   35.4659220
   134.4326340   35.4657027
   134.4352362   35.4614845
   134.4357176   35.4606090
   134.4361093   35.4596898
   134.4364073   35.4587361
   134.4366086   35.4577574
   134.4389614   35.4424906
   134.4390111   35.4422496
   134.4392420   35.4421644
   134.4432267   35.4409201
   134.4441840   35.4405666
   134.4451003   35.4401174
   134.4459660   35.4395771
   134.4520905   35.4353061
   134.4523040   35.4351729
   134.4525554   35.4351610
   134.4592198   35.4351874
   134.4602445   35.4351388
   134.4612589   35.4349855
   134.4622523   35.4347291
   134.4632141   35.4343722
   134.4641344   35.4339187
   134.4650033   35.4333733
   134.4712528   35.4289880
   134.4720318   35.4283819
   134.4727472   35.4277020
   134.4733921   35.4269548
   134.4739603   35.4261477
   134.4744460   35.4252886
   134.4748448   35.4243857
   134.4751526   35.4234479
   134.4756454   35.4216514
   134.4758668   35.4206428
   134.4759831   35.4196167
   134.4759929   35.4185841
   134.4758961   35.4175560
   134.4754350   35.4144091
   134.4754120   35.4141723
   134.4755224   35.4139616
   134.4767826   35.4118159
   134.4772256   35.4109718
   134.4775863   35.4100893
   134.4778613   35.4091765
   134.4780481   35.4082416
   134.4781450   35.4072932
   134.4781512   35.4063399
   134.4780666   35.4053903
   134.4778920   35.4044531
   134.4776289   35.4035368
   134.4703788   35.3821821
   134.4703124   35.3819496
   134.4703632   35.3817132
   134.4715409   35.3773014
   134.4716096   35.3770846
   134.4717345   35.3768945
   134.4738530   35.3739728
   134.4740073   35.3737809
   134.4742431   35.3737099
   134.4791955   35.3724860
   134.4800762   35.3722249
   134.4809292   35.3718840
   134.4817474   35.3714664
   134.4825237   35.3709754
   134.4885023   35.3667982
   134.4887043   35.3666711
   134.4889393   35.3666293
   134.4949378   35.3658603
   134.4959283   35.3656823
   134.4968958   35.3654056
   134.4978306   35.3650331
   134.4987233   35.3645685
   134.4995647   35.3640165
   134.5003465   35.3633828
   134.5010605   35.3626737
   134.5016997   35.3618965
   134.5022575   35.3610589
   134.5027284   35.3601695
   134.5032805   35.3589862
   134.5034132   35.3587392
   134.5035979   35.3585282
   134.5058059   35.3562769
   134.5064385   35.3555673
   134.5070009   35.3548007
   134.5074880   35.3539843
   134.5078954   35.3531253
   134.5082193   35.3522315
   134.5084569   35.3513109
   134.5086060   35.3503720
   134.5086653   35.3494231
   134.5086341   35.3484729
   134.5085334   35.3472209
   134.5084134   35.3462849
   134.5082057   35.3453644
   134.5079122   35.3444675
   134.5075355   35.3436023
   134.5070788   35.3427765
   134.5065464   35.3419974
   134.5035536   35.3380335
   134.5034119   35.3378244
   134.5033397   35.3375823
   134.5006528   35.3265468
   134.5006101   35.3263301
   134.5006459   35.3261117
   134.5023479   35.3180177
   134.5024117   35.3177758
   134.5025657   35.3175786
   134.5075366   35.3118351
   134.5081525   35.3110470
   134.5086866   35.3102014
   134.5091336   35.3093066
   134.5094889   35.3083717
   134.5097491   35.3074059
   134.5099115   35.3064190
   134.5099745   35.3054208
   134.5099374   35.3044213
   134.5098007   35.3034305
   134.5080435   35.2941497
   134.5080111   35.2939205
   134.5080647   35.2936953
   134.5106575   35.2846917
   134.5108821   35.2837389
   134.5110124   35.2827688
   134.5110472   35.2817906
   134.5109862   35.2808136
   134.5108300   35.2798473
   134.5105801   35.2789009
   134.5102388   35.2779835
   134.5098095   35.2771038
   134.5092962   35.2762704
   134.5087040   35.2754910
   134.5080383   35.2747734
   134.5073057   35.2741242
   134.5065131   35.2735498
   134.5010527   35.2699864
   134.5001763   35.2694759
   134.4992527   35.2690568
   134.4856206   35.2636869
   134.4854061   35.2635904
   134.4852273   35.2634376
   134.4825958   35.2609641
   134.4824121   35.2607717
   134.4822987   35.2605310
   134.4808196   35.2568952
   134.4804165   35.2560262
   134.4799322   35.2551998
   134.4793710   35.2544235
   134.4787381   35.2537045
   134.4780393   35.2530493
   134.4772811   35.2524640
   134.4764703   35.2519539
   134.4756144   35.2515238
   134.4613391   35.2451861
   134.4611103   35.2450699
   134.4608732   35.2446063
   134.4603887   35.2437630
   134.4598246   35.2429708
   134.4591861   35.2422371
   134.4584795   35.2415689
   134.4577112   35.2409725
   134.4568886   35.2404535
   134.4560196   35.2400169
   134.4551122   35.2396668
   134.4541751   35.2394065
   134.4532172   35.2392385
   134.4438471   35.2380610
   134.4436053   35.2380183
   134.4434132   35.2378653
   134.4402537   35.2350803
   134.4395193   35.2344919
   134.4387328   35.2339752
   134.4379012   35.2335347
   134.4370320   35.2331743
   134.4361327   35.2328973
   134.4352113   35.2327059
   134.4342760   35.2326021
   134.4333351   35.2325866
   134.4323969   35.2326596
   134.4314698   35.2328205
   134.4305618   35.2330678
   134.4296812   35.2333994
   134.4292096   35.2336027
   134.4283824   35.2340055
   134.4275958   35.2344827
   134.4268563   35.2350301
   134.4261703   35.2356431
   134.4236744   35.2380891
   134.4234943   35.2382491
   134.4232602   35.2383060
   134.4030502   35.2421820
   134.4028063   35.2422160
   134.4026695   35.2420112
   134.3965090   35.2316804
   134.3959814   35.2308847
   134.3953804   35.2301430
   134.3947114   35.2294619
   134.3939805   35.2288478
   134.3931944   35.2283061
   134.3923602   35.2278419
   134.3818158   35.2226169
   134.3816097   35.2225022
   134.3815418   35.2222763
   134.3786548   35.2106801
   134.3786104   35.2104601
   134.3786472   35.2102382
   134.3821479   35.1937748
   134.3822103   35.1935398
   134.3824418   35.1934656
   134.3912569   35.1911177
   134.3923234   35.1907684
   134.3933441   35.1903018
   134.3943061   35.1897238
   134.3987116   35.1867281
   134.3989034   35.1866101
   134.3991275   35.1865885
   134.3996179   35.1865637
   134.4006084   35.1864640
   134.4015840   35.1862664
   134.4025351   35.1859727
   134.4034524   35.1855859
   134.4043266   35.1851099
   134.4051492   35.1845492
   134.4059120   35.1839096
   134.4066073   35.1831973
   134.4072285   35.1824194
   134.4077692   35.1815836
   134.4082241   35.1806982
   134.4085888   35.1797720
   134.4088595   35.1788141
   134.4090337   35.1778340
   134.4091096   35.1768414
   134.4090864   35.1758462
   134.4089644   35.1748583
   134.4087447   35.1738874
   134.4084297   35.1729431
   134.4080223   35.1720348
   134.4050138   35.1661333
   134.4049158   35.1659146
   134.4050104   35.1654156
   134.4051459   35.1644401
   134.4051847   35.1634560
   134.4051266   35.1624729
   134.4049721   35.1615002
   134.4047227   35.1605475
   134.4043807   35.1596239
   134.4039495   35.1587384
   134.4034334   35.1578997
   134.4028372   35.1571158
   134.4021668   35.1563943
   134.4014287   35.1557423
   134.4006300   35.1551660
   134.3997786   35.1546711
   134.3988825   35.1542623
   134.3979506   35.1539437
   134.3969919   35.1537183
   134.3960157   35.1535883
   134.3950314   35.1535549
   134.3832214   35.1537366
   134.3830022   35.1537303
   134.3827985   35.1536482
   134.3808209   35.1527473
   134.3798928   35.1523793
   134.3789326   35.1521056
   134.3779498   35.1519291
   134.3769544   35.1518514
   134.3759562   35.1518734
   134.3744407   35.1519826
   134.3742026   35.1519883
   134.3739890   35.1518828
   134.3664944   35.1477180
   134.3663068   35.1476027
   134.3661710   35.1474289
   134.3614445   35.1407929
   134.3613114   35.1405849
   134.3612455   35.1403470
   134.3592891   35.1316183
   134.3590054   35.1306053
   134.3586168   35.1296278
   134.3581277   35.1286965
   134.3575434   35.1278217
   134.3568705   35.1270132
   134.3552669   35.1252803
   134.3551134   35.1250972
   134.3551682   35.1249098
   134.3553918   35.1239854
   134.3555265   35.1230440
   134.3555711   35.1220940
   134.3555254   35.1211441
   134.3553895   35.1202028
   134.3551649   35.1192786
   134.3548535   35.1183800
   134.3544582   35.1175151
   134.3539824   35.1166916
   134.3534306   35.1159170
   134.3517591   35.1137922
   134.3516132   35.1135858
   134.3516138   35.1133331
   134.3521421   35.1035077
   134.3521478   35.1025543
   134.3520627   35.1016048
   134.3518876   35.1006676
   134.3516241   35.0997514
   134.3512744   35.0988644
   134.3508420   35.0980148
   134.3502045   35.0968976
   134.3496383   35.0960161
   134.3489829   35.0951986
   134.3482456   35.0944542
   134.3474345   35.0937910
   134.3465584   35.0932163
   134.3456270   35.0927364
   134.3446505   35.0923566
   134.3440146   35.0921470
   134.3429958   35.0918698
   134.3419535   35.0917015
   134.3408992   35.0916441
   134.3398447   35.0916981
   134.3388018   35.0918631
   134.3377821   35.0921370
   134.3369269   35.0924160
   134.3367034   35.0924773
   134.3365390   35.0923138
   134.3351630   35.0908083
   134.3343945   35.0900535
   134.3335493   35.0893857
   134.3326371   35.0888127
   134.3316686   35.0883412
   134.3306550   35.0879765
   134.3183388   35.0842816
   134.3181130   35.0842014
   134.3181290   35.0839624
   134.3192653   35.0742469
   134.3193320   35.0732264
   134.3192941   35.0722044
   134.3191521   35.0711917
   134.3189073   35.0701987
   134.3185625   35.0692360
   134.3181211   35.0683135
   134.3175878   35.0674409
   134.3134473   35.0613855
   134.3133131   35.0611654
   134.3132797   35.0609098
   134.3128366   35.0552246
   134.3127121   35.0542491
   134.3124923   35.0532905
   134.3121795   35.0523582
   134.3117766   35.0514612
   134.3112876   35.0506080
   134.3107171   35.0498070
   134.3100707   35.0490659
   134.3093546   35.0483918
   134.3085758   35.0477914
   134.3077418   35.0472704
   134.3076834   35.0472415
   134.3073135   35.0470320
   134.3068997   35.0466645
   134.3061358   35.0460502
   134.3053153   35.0455137
   134.3044463   35.0450600
   134.3035371   35.0446937
   134.3025964   35.0444181
   134.3016332   35.0442360
   134.3006568   35.0441490
   134.2996765   35.0441580
   134.2971518   35.0443053
   134.2969039   35.0443073
   134.2966989   35.0441678
   134.2918478   35.0404967
   134.2910604   35.0399579
   134.2902252   35.0394966
   134.2893499   35.0391170
   134.2884424   35.0388225
   134.2875109   35.0386159
   134.2865640   35.0384990
   134.2808388   35.0380680
   134.2806073   35.0380394
   134.2804975   35.0378335
   134.2767655   35.0299479
   134.2762921   35.0290649
   134.2757327   35.0282336
   134.2750929   35.0274626
   134.2743791   35.0267594
   134.2735986   35.0261312
   134.2727591   35.0255842
   134.2718691   35.0251240
   134.2676409   35.0231996
   134.2674091   35.0230790
   134.2672474   35.0228738
   134.2634577   35.0175035
   134.2633140   35.0172742
   134.2632518   35.0170107
   134.2622419   35.0113645
   134.2622115   35.0111307
   134.2622703   35.0109024
   134.2641276   35.0048847
   134.2642096   35.0046588
   134.2644274   35.0045572
   134.2682928   35.0029805
   134.2691943   35.0025593
   134.2700496   35.0020505
   134.2708500   35.0014593
   134.2715877   35.0007914
   134.2722554   35.0000536
   134.2728464   34.9992530
   134.2733550   34.9983976
   134.2737760   34.9974960
   134.2741053   34.9965570
   134.2743397   34.9955898
   134.2744767   34.9946042
   134.2745152   34.9936099
   134.2744546   34.9926166
   134.2742956   34.9916343
   134.2740398   34.9906726
   134.2736896   34.9897411
   134.2732486   34.9888491
   134.2727212   34.9880053
   134.2721125   34.9872181
   134.2719577   34.9870373
   134.2697589   34.9842141
   134.2696122   34.9840041
   134.2695365   34.9837593
   134.2684600   34.9795069
   134.2684130   34.9792739
   134.2685799   34.9791046
   134.2698749   34.9779136
   134.2705872   34.9771884
   134.2712222   34.9763947
   134.2717733   34.9755405
   134.2722349   34.9746349
   134.2726021   34.9736871
   134.2728712   34.9727068
   134.2730394   34.9717044
   134.2731050   34.9706900
   134.2730672   34.9696742
   134.2728399   34.9670971
   134.2726965   34.9660761
   134.2724487   34.9650753
   134.2720992   34.9641053
   134.2716517   34.9631765
   134.2711109   34.9622987
   134.2704826   34.9614812
   134.2697735   34.9607328
   134.2689911   34.9600614
   134.2681437   34.9594741
   134.2669011   34.9587046
   134.2667081   34.9585720
   134.2665777   34.9583775
   134.2663785   34.9580475
   134.2658214   34.9572211
   134.2651848   34.9564542
   134.2644750   34.9557545
   134.2636991   34.9551289
   134.2628648   34.9545836
   134.2619803   34.9541241
   134.2610545   34.9537550
   134.2600966   34.9534798
   134.2594463   34.9533276
   134.2592067   34.9532586
   134.2590306   34.9530822
   134.2533679   34.9468061
   134.2532122   34.9466151
   134.2531919   34.9463695
   134.2529084   34.9376375
   134.2529132   34.9373861
   134.2531010   34.9372188
   134.2584049   34.9329664
   134.2586024   34.9328237
   134.2588370   34.9328897
   134.2604252   34.9334234
   134.2613807   34.9336925
   134.2623582   34.9338656
   134.2633480   34.9339409
   134.2643404   34.9339177
   134.2653256   34.9337962
   134.2662940   34.9335776
   134.2672358   34.9332641
   134.2681420   34.9328588
   134.2690035   34.9323656
   134.2698119   34.9317895
   134.2705592   34.9311360
   134.2712379   34.9304116
   134.2718416   34.9296236
   134.2723641   34.9287795
   134.2728004   34.9278878
   134.2731461   34.9269573
   134.2733978   34.9259970
   134.2735531   34.9250166
   134.2736104   34.9240256
   134.2736117   34.9238663
   134.2738075   34.9237344
   134.2796129   34.9202214
   134.2804648   34.9196440
   134.2812529   34.9189821
   134.2819687   34.9182427
   134.2826048   34.9174336
   134.2860709   34.9125243
   134.2865893   34.9117091
   134.2870267   34.9108477
   134.2873788   34.9099481
   134.2876426   34.9090187
   134.2878154   34.9080682
   134.2878957   34.9071055
   134.2878827   34.9061395
   134.2877766   34.9051793
   134.2875783   34.9042337
   134.2872897   34.9033118
   134.2869135   34.9024220
   134.2864531   34.9015726
   134.2859130   34.9007716
   134.2852981   34.9000265
   134.2846141   34.8993442
   134.2838675   34.8987311
   134.2830652   34.8981929
   134.2822148   34.8977346
   134.2813241   34.8973605
   134.2754305   34.8952139
   134.2752063   34.8951196
   134.2750191   34.8949643
   134.2677738   34.8883269
   134.2668908   34.8876061
   134.2659316   34.8869905
   134.2649086   34.8864881
   134.2622230   34.8853542
   134.2620094   34.8852515
   134.2619285   34.8850287
   134.2611692   34.8825739
   134.2611113   34.8823498
   134.2611608   34.8821237
   134.2613578   34.8813900
   134.2615674   34.8804192
   134.2616797   34.8794323
   134.2616936   34.8784392
   134.2616088   34.8774496
   134.2614264   34.8764733
   134.2611479   34.8755199
   134.2607763   34.8745988
   134.2603151   34.8737192
   134.2597689   34.8728896
   134.2591432   34.8721183
   134.2584440   34.8714128
   134.2581342   34.8711569
   134.2579112   34.8709546
   134.2578957   34.8707199
   134.2578483   34.8680460
   134.2577729   34.8669845
   134.2575850   34.8659370
   134.2572870   34.8649154
   134.2568820   34.8639313
   134.2563748   34.8629958
   134.2527221   34.8570391
   134.2526103   34.8568361
   134.2525590   34.8566100
   134.2516427   34.8514697
   134.2516126   34.8512347
   134.2517899   34.8510776
   134.2578013   34.8462543
   134.2585070   34.8456313
   134.2591510   34.8449447
   134.2597276   34.8442006
   134.2602316   34.8434056
   134.2606586   34.8425667
   134.2610049   34.8416913
   134.2612673   34.8407873
   134.2614436   34.8398626
   134.2615321   34.8389255
   134.2615321   34.8379841
   134.2614436   34.8370470
   134.2605339   34.8306486
   134.2605119   34.8304124
   134.2606226   34.8302025
   134.2632717   34.8257172
   134.2634084   34.8255103
   134.2636386   34.8254180
   134.2663638   34.8244812
   134.2666010   34.8244127
   134.2668462   34.8244418
   134.2764784   34.8260777
   134.2774225   34.8261921
   134.2783731   34.8262164
   134.2793218   34.8261503
   134.2802599   34.8259943
   134.2811789   34.8257500
   134.2820706   34.8254194
   134.2829268   34.8250057
   134.2837399   34.8245124
   134.2845024   34.8239442
   134.2852076   34.8233061
   134.2858489   34.8226040
   134.2864206   34.8218440
   134.2869175   34.8210332
   134.2871078   34.8206867
   134.2872775   34.8205413
   134.2975160   34.8125437
   134.2977042   34.8124104
   134.2979322   34.8123760
   134.2987443   34.8122920
   134.2997412   34.8121378
   134.3007174   34.8118839
   134.3016632   34.8115330
   134.3025688   34.8110886
   134.3034250   34.8105552
   134.3042231   34.8099382
   134.3049549   34.8092440
   134.3056132   34.8084796
   134.3061910   34.8076527
   134.3096662   34.8021036
   134.3098089   34.8018994
   134.3100060   34.8017765
   134.3107981   34.8012278
   134.3115336   34.8006054
   134.3122058   34.7999151
   134.3128085   34.7991633
   134.3133360   34.7983570
   134.3137835   34.7975037
   134.3141468   34.7966113
   134.3144225   34.7956880
   134.3146081   34.7947425
   134.3147018   34.7937836
   134.3147868   34.7920577
   134.3148140   34.7917938
   134.3149232   34.7915520
   134.3151621   34.7910909
   134.3155792   34.7901755
   134.3159023   34.7892228
   134.3161280   34.7882425
   134.3162541   34.7872445
   134.3162792   34.7862388
   134.3162032   34.7852357
   134.3160268   34.7842454
   134.3157518   34.7832777
   134.3153810   34.7823426
   134.3147061   34.7808626
   134.3146148   34.7806320
   134.3147640   34.7804339
   134.3189429   34.7754378
   134.3191084   34.7752586
   134.3193607   34.7750340
   134.3196270   34.7748187
   134.3203401   34.7741133
   134.3209789   34.7733400
   134.3215371   34.7725066
   134.3220089   34.7716215
   134.3223897   34.7706935
   134.3226757   34.7697321
   134.3228639   34.7687469
   134.3229524   34.7677478
   134.3229404   34.7667448
   134.3228280   34.7657481
   134.3226163   34.7647676
   134.3223074   34.7638133
   134.3219045   34.7628947
   134.3214116   34.7620212
   134.3208337   34.7612013
   134.3173533   34.7567558
   134.3172115   34.7565549
   134.3171587   34.7563147
   134.3155502   34.7467657
   134.3153360   34.7457925
   134.3150259   34.7448455
   134.3146231   34.7439340
   134.3119096   34.7385379
   134.3118144   34.7383232
   134.3119909   34.7381683
   134.3157274   34.7351990
   134.3164430   34.7345726
   134.3170958   34.7338811
   134.3176799   34.7331307
   134.3181902   34.7323282
   134.3186219   34.7314809
   134.3189712   34.7305963
   134.3192349   34.7296826
   134.3194105   34.7287480
   134.3194967   34.7278010
   134.3198894   34.7186956
   134.3199114   34.7184583
   134.3201311   34.7183662
   134.3231628   34.7172661
   134.3233970   34.7171942
   134.3235826   34.7173542
   134.3260144   34.7196747
   134.3267330   34.7202979
   134.3275075   34.7208499
   134.3283310   34.7213259
   134.3291960   34.7217215
   134.3300947   34.7220332
   134.3310189   34.7222580
   134.3319603   34.7223940
   134.3329104   34.7224399
   134.3338605   34.7223954
   134.3348021   34.7222608
   134.3357267   34.7220374
   134.3366258   34.7217271
   134.3374914   34.7213328
   134.3383156   34.7208581
   134.3509454   34.7127599
   134.3517583   34.7121793
   134.3525093   34.7115206
   134.3531908   34.7107902
   134.3537961   34.7099954
   134.3543190   34.7091442
   134.3547544   34.7082451
   134.3550979   34.7073071
   134.3553461   34.7063394
   134.3554965   34.7053518
   134.3555476   34.7043542
   134.3554990   34.7033564
   134.3553510   34.7023684
   134.3402457   34.6273272
   134.3402110   34.6271016
   134.3403009   34.6268913
   134.4716904   34.3550567
   134.4718095   34.3548389
   134.4720189   34.3547057
   134.6418891   34.2582343
   134.6427591   34.2576789
   134.6435672   34.2570368
   134.6443049   34.2563149
   134.6449642   34.2555207
   134.6455381   34.2546628
   134.6460206   34.2537504
   134.6464064   34.2527930
   134.6466915   34.2518010
   134.6651460   34.1723424
   134.6652105   34.1721147
   134.6653366   34.1719144
   134.8646267   33.8866787
   134.8651610   33.8858255
   134.8656068   33.8849229
   134.8659596   33.8839800
   134.8662158   33.8830065
   134.8663729   33.8820121
   134.9145727   33.4301861
   134.9146120   33.4299386
   134.9148336   33.4298215
   135.0919234   33.3475912
   135.1793520   32.9167467
   135.1793869   32.9165184
   135.1791647   32.9164559
   132.2798323   32.2502098
   132.2788911   32.2499445
   132.2779804   32.2495886
   132.2771089   32.2491454
   132.2762847   32.2486192
   132.2755159   32.2480150
   132.2748098   32.2473386
   132.2741731   32.2465965
   132.2736119   32.2457958
   132.2731316   32.2449441
   132.2727368   32.2440496
   132.2724312   32.2431207
   132.2722178   32.2421665
   132.2720987   32.2411960
   132.2720748   32.2402185
   132.2721466   32.2392433
   132.2723132   32.2382798
   132.2725732   32.2373372
   132.8043200   30.6219030
   132.8043867   30.6216592
   132.8043508   30.6214090
   130.9945460   21.3871447
   130.9944915   21.3869234
   130.9942682   21.3869689
   124.9146574   22.9307247
   124.9141510   22.9308823
   122.5915347   23.7914930
   122.5913120   23.7915885
   122.5912963   23.7918303
   122.5814037   24.4580539
   122.5814120   24.4582965
   122.5815340   24.4585065
   129.4884662   35.0970340
   129.4886045   35.0972257
END
END
