asia-russia-kaliningrad
1
   22.5909935   55.0757008
   22.5912851   55.0755147
   22.6018501   55.0303782
   22.6049855   55.0251459
   22.6464015   54.9887466
   22.6528550   54.9862591
   22.6801842   54.9926203
   22.6935380   54.9798898
   22.6976083   54.9774809
   22.7294528   54.9677822
   22.7359863   54.9556714
   22.7413447   54.9509394
   22.7693311   54.9404618
   22.7734373   54.9323200
   22.7778840   54.9301783
   22.7857539   54.9297584
   22.7922276   54.9171649
   22.7955018   54.9134649
   22.8040945   54.9121889
   22.8219668   54.9175486
   22.8589636   54.8922511
   22.8525322   54.8775972
   22.8520097   54.8706948
   22.8569630   54.8645916
   22.8743708   54.8554155
   22.8711430   54.8466557
   22.8732414   54.8382682
   22.8919919   54.8156507
   22.8840847   54.8075287
   22.8815003   54.8032123
   22.8813447   54.7981838
   22.8832741   54.7885747
   22.8711013   54.7846915
   22.8668608   54.7820206
   22.8641769   54.7739964
   22.8457461   54.7612981
   22.8249257   54.7599166
   22.8202652   54.7584356
   22.8168642   54.7549219
   22.8096466   54.7428054
   22.7831412   54.7433958
   22.7777866   54.7419811
   22.7551391   54.7284394
   22.7504176   54.7215628
   22.7507373   54.7168386
   22.7543934   54.7045418
   22.7443469   54.6960232
   22.7408149   54.6882801
   22.7429978   54.6821556
   22.7440801   54.6679206
   22.7469202   54.6637794
   22.7626729   54.6543965
   22.7544174   54.6298971
   22.7031322   54.5930210
   22.6993022   54.5874575
   22.6998828   54.5807281
   22.7029334   54.5769296
   22.7193878   54.5641610
   22.6942984   54.5380826
   22.6918813   54.5338677
   22.6915735   54.5299788
   22.6932975   54.5254362
   22.7047834   54.5087122
   22.7087306   54.4651888
   22.7110677   54.4596186
   22.7152107   54.4567167
   22.7403344   54.4472441
   22.7960663   54.3594706
   22.7959507   54.3592498
   22.2272415   54.3359292
   21.4465486   54.3128277
   21.3792243   54.3248390
   21.3773006   54.3249945
   21.2609284   54.3231579
   20.7411937   54.3632204
   20.6310518   54.3604058
   20.5831694   54.3719581
   20.3312823   54.3951159
   19.6475926   54.4472500
   19.6471131   54.4474193
   19.4085674   54.6115542
   19.4085647   54.6118297
   19.5075914   54.6828411
   19.5093698   54.6844753
   19.5817842   54.7693096
   19.5841129   54.7769440
   19.5735382   54.8689350
   19.5891358   54.9543688
   19.6350545   55.0254827
   19.7275456   55.1064311
   19.7280009   55.1067140
   19.8217383   55.1455898
   19.9207203   55.1640117
   20.2008364   55.1661464
   20.2017812   55.1661984
   20.3950152   55.1860308
   20.4002224   55.1881549
   20.6534539   55.3897439
   20.6538871   55.3898188
   20.9536229   55.2872026
   20.9551894   55.2868044
   21.0988185   55.2624385
   21.0998679   55.2623170
   21.2695025   55.2517259
   21.2739992   55.2524873
   21.3855370   55.2993521
   21.3859610   55.2992845
   21.4348464   55.2569363
   21.4514651   55.2289870
   21.4544742   55.2257900
   21.4992783   55.1955080
   21.5064704   55.1939207
   21.5697474   55.2040410
   21.6498205   55.1867924
   21.7122530   55.1567846
   21.7247990   55.1404454
   21.7300341   55.1379731
   21.8156152   55.1252564
   21.8521334   55.1033074
   21.8549891   55.1021385
   21.9199594   55.0866777
   21.9608707   55.0804894
   21.9659078   55.0810295
   21.9964886   55.0925218
   22.0333197   55.0900256
   22.0459099   55.0790192
   22.0420949   55.0551777
   22.0429177   55.0493471
   22.0477601   55.0445267
   22.0745124   55.0321129
   22.0792345   55.0311971
   22.1121256   55.0328861
   22.1194896   55.0367121
   22.1308312   55.0510091
   22.1608255   55.0616663
   22.2903491   55.0709741
   22.4689790   55.0508195
   22.4721375   55.0509662
   22.5441469   55.0659518
   22.5909935   55.0757008
END
END
