asia-russia-south
1
   34.3828453   51.8415620
   34.3877869   51.8547799
   34.3875624   51.8548575
   34.3876156   51.8556121
   34.3837111   51.8681878
   34.3804269   51.8690320
   34.3800053   51.8716236
   34.3902190   51.8783075
   34.3985943   51.8813468
   34.4188781   51.8867160
   34.4234732   51.8886094
   34.4272878   51.8934809
   34.4275002   51.8941107
   34.4305136   51.8932267
   34.4335495   51.8959436
   34.4307335   51.9059604
   34.4085696   51.9077064
   34.3965018   51.9102554
   34.3881517   51.9183746
   34.3793595   51.9233279
   34.3698275   51.9262506
   34.3690777   51.9264498
   34.3690672   51.9264302
   34.3685528   51.9265517
   34.3523692   51.9292706
   34.3492442   51.9303629
   34.3488731   51.9298580
   34.3436112   51.9307420
   34.3403448   51.9316120
   34.3400200   51.9400752
   34.3472776   51.9465136
   34.3572550   51.9553647
   34.3639604   51.9631420
   34.3847548   51.9961681
   34.3951432   52.0064843
   34.4068493   52.0128030
   34.4839715   52.0382540
   34.4923197   52.0445142
   34.5063449   52.0591861
   34.5127787   52.0644985
   34.5208081   52.0693565
   34.5282118   52.0704807
   34.5370281   52.0665694
   34.5371265   52.0665029
   34.5428167   52.0590166
   34.5452345   52.0532418
   34.5453242   52.0530480
   34.5456155   52.0524022
   34.5538723   52.0400656
   34.5606789   52.0359227
   34.5683225   52.0343308
   34.5878684   52.0338856
   34.5958435   52.0347329
   34.6022377   52.0365666
   34.6026345   52.0366829
   34.6026282   52.0367046
   34.6032708   52.0369317
   34.6082421   52.0396059
   34.6090093   52.0400908
   34.6095072   52.0403839
   34.6165806   52.0468679
   34.6226391   52.0545247
   34.6232641   52.0555571
   34.6341400   52.0618854
   34.6354152   52.0625033
   34.6703116   52.0653257
   34.6732261   52.0659950
   34.6733262   52.0660404
   34.6733466   52.0660008
   34.6741369   52.0664081
   34.6834996   52.0712334
   34.6915079   52.0767650
   34.6980510   52.0831035
   34.7047633   52.0933137
   34.7084419   52.1011814
   34.7106585   52.1153942
   34.7093734   52.1357578
   34.7076192   52.1402005
   34.7020110   52.1455092
   34.6916433   52.1511430
   34.6909413   52.1514073
   34.6909486   52.1514145
   34.6907609   52.1514752
   34.6823158   52.1541388
   34.6674811   52.1571368
   34.6618076   52.1634222
   34.6631192   52.1701137
   34.6753403   52.1996688
   34.6775183   52.2016097
   34.6780721   52.2020669
   34.6857857   52.2052338
   34.6927551   52.2070095
   34.7139752   52.2158198
   34.7233831   52.2174823
   34.7310852   52.2173514
   34.7453666   52.2158130
   34.7661876   52.2166836
   34.7711404   52.2117263
   34.7728199   52.2124123
   34.7781234   52.2052652
   34.7700473   52.1982688
   34.7741115   52.1949376
   34.7761896   52.1899231
   34.7766108   52.1894417
   34.7710022   52.1906222
   34.7705101   52.1888912
   34.7790270   52.1866574
   34.7919181   52.1851204
   34.8043886   52.1851340
   34.8145498   52.1870764
   34.8243917   52.1900407
   34.8333311   52.1943758
   34.8426931   52.2004391
   34.8797897   52.2291268
   34.8781793   52.2309843
   34.8809198   52.2380747
   34.8749364   52.2402867
   34.8740942   52.2389454
   34.8693375   52.2416206
   34.8589742   52.2440896
   34.8561963   52.2496955
   34.8561409   52.2559534
   34.8649265   52.2692279
   34.8706925   52.2764296
   34.8766517   52.2821591
   34.9079792   52.3047725
   34.9135764   52.3116755
   34.9159940   52.3166201
   34.9167998   52.3217997
   34.9167153   52.3226518
   34.9168779   52.3227095
   34.9132328   52.3323647
   34.8969391   52.3530832
   34.8821770   52.3690159
   34.8784414   52.3700172
   34.8716563   52.3691624
   34.8651634   52.3654289
   34.8616814   52.3639056
   34.8568114   52.3649825
   34.8485431   52.3743872
   34.8392486   52.3839162
   34.8387361   52.3844416
   34.8383411   52.3849472
   34.8379689   52.3855324
   34.8347257   52.3906322
   34.8336063   52.3965643
   34.8350787   52.4048712
   34.8330771   52.4170314
   34.8332906   52.4247128
   34.8383868   52.4318699
   34.8625804   52.4508995
   34.8870523   52.4744291
   34.8990607   52.4906105
   34.9028515   52.4939354
   34.9113734   52.4968176
   34.9115415   52.4968666
   34.9188671   52.4980509
   34.9189762   52.4980611
   34.9189729   52.4980671
   34.9191588   52.4980955
   34.9715166   52.4999017
   34.9787676   52.5022499
   34.9894299   52.5103767
   34.9948497   52.5201934
   34.9966929   52.5291982
   34.9982049   52.5603760
   35.0104578   52.6136965
   35.0105174   52.6143853
   35.0105949   52.6143949
   35.0100153   52.6212990
   35.0059382   52.6272628
   35.0054254   52.6277891
   35.0054312   52.6277919
   35.0053285   52.6278886
   34.9971260   52.6356026
   34.9937480   52.6406387
   34.9924536   52.6455541
   34.9925160   52.6466681
   34.9926741   52.6494873
   34.9928902   52.6533441
   34.9969871   52.6578646
   35.0019433   52.6592020
   35.0292109   52.6544710
   35.0367790   52.6559145
   35.0375629   52.6561816
   35.0376039   52.6561283
   35.0450894   52.6599593
   35.0453455   52.6600903
   35.0453358   52.6601028
   35.0460256   52.6605043
   35.0855077   52.6930011
   35.0829197   52.6966503
   35.0791342   52.6958994
   35.0761671   52.7004149
   35.0759006   52.7006241
   35.0754452   52.7017588
   35.0397866   52.7101522
   35.0303386   52.7148266
   35.0274520   52.7163714
   35.0277181   52.7168666
   35.0252003   52.7219562
   35.0253315   52.7259706
   35.0296739   52.7357461
   35.0297103   52.7358354
   35.0307777   52.7382997
   35.0311614   52.7437012
   35.0217887   52.7508599
   35.0031998   52.7588954
   34.9944952   52.7607986
   34.9789073   52.7601564
   34.9751279   52.7605354
   34.9734568   52.7615102
   34.9708774   52.7631156
   34.9613933   52.7752023
   34.9543685   52.7805984
   34.9474415   52.7835801
   34.9214992   52.7911928
   34.9108240   52.7916906
   34.9047588   52.7900640
   34.8931051   52.7835311
   34.8872821   52.7811054
   34.8801271   52.7800772
   34.8791839   52.7800085
   34.8791803   52.7799603
   34.8783579   52.7798587
   34.8732597   52.7812136
   34.8681715   52.7848398
   34.8399188   52.8182162
   34.8150123   52.8485746
   34.8078619   52.8525127
   34.7994417   52.8570250
   34.8010889   52.8586937
   34.8008886   52.8667106
   34.8046568   52.8680920
   34.8312149   52.8744347
   34.8532233   52.8809414
   34.8538644   52.8863871
   34.8539206   52.8866898
   34.8553616   52.8872904
   34.8525873   52.8951539
   34.8528311   52.8973077
   34.8529773   52.8973373
   34.8530172   52.8989519
   34.8540490   52.9031803
   34.8606597   52.9109648
   34.8771211   52.9251840
   34.8860137   52.9296202
   34.8870009   52.9301060
   34.8953065   52.9315966
   34.8969643   52.9312012
   34.9063513   52.9290070
   34.9329505   52.9277474
   34.9506390   52.9284715
   34.9563534   52.9314252
   34.9570606   52.9358953
   34.9571966   52.9364584
   34.9571015   52.9416254
   34.9570800   52.9422412
   34.9587192   52.9503344
   34.9638815   52.9606591
   34.9661911   52.9681007
   34.9712349   52.9728986
   34.9725526   52.9732473
   34.9763216   52.9741780
   34.9869085   52.9739492
   34.9941383   52.9721462
   35.0087651   52.9628673
   35.0204671   52.9604633
   35.0208785   52.9604148
   35.0208812   52.9604374
   35.0215635   52.9603947
   35.0439240   52.9626310
   35.0493214   52.9626211
   35.0576633   52.9591542
   35.0664259   52.9572594
   35.0770187   52.9570874
   35.1201380   52.9642575
   35.1270934   52.9641270
   35.1457425   52.9594170
   35.1533801   52.9637955
   35.1559183   52.9708477
   35.1484629   52.9857644
   35.1368206   52.9994986
   35.1367913   52.9995368
   35.1367899   52.9995348
   35.1356453   53.0008851
   35.1333417   53.0074070
   35.1335228   53.0081649
   35.1369593   53.0138682
   35.1383304   53.0147119
   35.1449894   53.0160920
   35.1546735   53.0151984
   35.1590062   53.0132092
   35.1635080   53.0062969
   35.1651359   53.0013596
   35.1695632   52.9980494
   35.1701986   52.9977938
   35.1701660   52.9975013
   35.1749657   52.9969342
   35.1956925   52.9981919
   35.2027779   52.9995320
   35.2059489   53.0031144
   35.2063941   53.0038463
   35.2065949   53.0037511
   35.2081097   53.0084268
   35.2115332   53.0136028
   35.2155521   53.0152273
   35.2161682   53.0154745
   35.2167749   53.0156549
   35.2174759   53.0157831
   35.2225219   53.0166812
   35.2665520   53.0202775
   35.2694569   53.0209615
   35.2696489   53.0210498
   35.2697440   53.0209122
   35.2780690   53.0263754
   35.2809901   53.0293221
   35.2864978   53.0378754
   35.2913206   53.0475041
   35.2913663   53.0475411
   35.2915068   53.0474108
   35.2928437   53.0487381
   35.2975378   53.0523052
   35.3107178   53.0585727
   35.3126695   53.0609214
   35.3118539   53.0633023
   35.3120421   53.0641983
   35.3118668   53.0681844
   35.3070859   53.0757882
   35.3022564   53.0803019
   35.2925538   53.0873655
   35.2743157   53.0970991
   35.2091070   53.1178096
   35.2035886   53.1183255
   35.2031930   53.1183580
   35.2031913   53.1183371
   35.2025353   53.1183562
   35.1929365   53.1157783
   35.1870513   53.1077159
   35.1859124   53.1057615
   35.1819064   53.1033814
   35.1773202   53.1027344
   35.1705554   53.1045618
   35.1546422   53.1122639
   35.1215680   53.1338561
   35.1092132   53.1449840
   35.1087622   53.1455155
   35.1083766   53.1460617
   35.1072722   53.1476265
   35.1062091   53.1491327
   35.1045551   53.1552859
   35.1052627   53.1566543
   35.1185161   53.1729616
   35.1222166   53.1815639
   35.1222459   53.1865087
   35.1063203   53.2319665
   35.1043801   53.2439788
   35.1055162   53.2530850
   35.1116949   53.2682467
   35.1123722   53.2771697
   35.1107539   53.2863562
   35.1052201   53.3050980
   35.1092658   53.3093119
   35.1791150   53.2914952
   35.1845819   53.2853425
   35.1867632   53.2734726
   35.1883811   53.2711796
   35.1942717   53.2705964
   35.2059403   53.2724279
   35.2243030   53.2786563
   35.2321468   53.2837072
   35.2342201   53.2922896
   35.2326479   53.3014811
   35.2327485   53.3078925
   35.2382342   53.3121946
   35.2415128   53.3121662
   35.2603071   53.3050685
   35.2664041   53.3044323
   35.2715296   53.3082515
   35.2756241   53.3191353
   35.2822991   53.3223345
   35.2872786   53.3216426
   35.3005738   53.3136317
   35.3113580   53.3047496
   35.3206400   53.2919222
   35.3279002   53.2861907
   35.3334405   53.2841506
   35.3439605   53.2829372
   35.3549719   53.2841598
   35.3624389   53.2934716
   35.3645993   53.3048269
   35.3693312   53.3151543
   35.3780062   53.3260426
   35.3837746   53.3369751
   35.3878519   53.3415281
   35.3977537   53.3465647
   35.4032399   53.3504044
   35.4088046   53.3562555
   35.4165966   53.3748359
   35.4187483   53.3875870
   35.4167702   53.3932855
   35.4178299   53.4014051
   35.4222903   53.4044124
   35.4401639   53.4101403
   35.4462458   53.4129445
   35.4505778   53.4168975
   35.4524741   53.4227762
   35.4502678   53.4317892
   35.4507340   53.4383732
   35.4538314   53.4438197
   35.4711580   53.4456384
   35.5063088   53.4432731
   35.5161459   53.4455582
   35.5200875   53.4523526
   35.5226122   53.4642607
   35.5265692   53.4758955
   35.5297001   53.4810842
   35.5451782   53.4906728
   35.6015828   53.5116348
   35.6162384   53.5208621
   35.6364402   53.5424516
   35.6411260   53.5459053
   35.6549313   53.5485008
   35.6683156   53.5476022
   35.6796613   53.5430214
   35.6919856   53.5293911
   35.6998763   53.5240501
   35.7118334   53.5227825
   35.7385983   53.5258598
   35.7512250   53.5243009
   35.7645065   53.5195738
   35.7732720   53.5201604
   35.7795241   53.5230059
   35.7888009   53.5307617
   35.7929356   53.5363620
   35.7963534   53.5454127
   35.8025024   53.5512828
   35.8208089   53.5627373
   35.8254457   53.5677535
   35.8319181   53.5791773
   35.8368496   53.5828910
   35.8804479   53.6033088
   35.8946843   53.6139538
   35.9005839   53.6207281
   35.9050309   53.6280909
   35.9074505   53.6364865
   35.9127988   53.6438699
   35.9326811   53.6422751
   36.0074860   53.6189424
   36.0110711   53.6130239
   36.0132508   53.6051534
   36.0143822   53.5969419
   36.0145629   53.5870607
   36.0191356   53.5830304
   36.0263589   53.5814733
   36.0435074   53.5805813
   36.0553174   53.5787660
   36.0681529   53.5734471
   36.0803070   53.5644531
   36.0887017   53.5596831
   36.0985292   53.5558294
   36.1063811   53.5550897
   36.1412183   53.5563527
   36.2200620   53.5702630
   36.2288552   53.5732104
   36.2325718   53.5713896
   36.2358661   53.5619072
   36.2438031   53.5576718
   36.2537475   53.5556142
   36.2658983   53.5483993
   36.2858110   53.5256107
   36.2974877   53.5147241
   36.3106201   53.5095333
   36.3113365   53.5025553
   36.3092346   53.4906089
   36.3102907   53.4834842
   36.3370260   53.4674279
   36.3710422   53.4525959
   36.3868866   53.4351262
   36.3983055   53.4285036
   36.4234104   53.4269093
   36.4350590   53.4246490
   36.4449171   53.4213250
   36.4897624   53.4019905
   36.5125470   53.3951740
   36.5349150   53.3914088
   36.5509631   53.3916150
   36.5600284   53.3928363
   36.5718641   53.3966503
   36.5886999   53.4058936
   36.6055859   53.4187540
   36.6150854   53.4233719
   36.6268154   53.4235811
   36.6658562   53.4160502
   36.6723953   53.4135783
   36.6754893   53.4083251
   36.6754267   53.3978272
   36.6773287   53.3894331
   36.7041549   53.3546860
   36.7153278   53.3445602
   36.7739459   53.3073347
   36.7812072   53.3042654
   36.8075415   53.2965942
   36.9162123   53.2861310
   36.9423664   53.2878942
   36.9584859   53.2919108
   36.9679611   53.2968122
   36.9817569   53.3074587
   36.9890572   53.3070966
   36.9936574   53.3034582
   37.0066183   53.2870955
   37.0107958   53.2834580
   37.0875750   53.2800322
   37.1105705   53.2761432
   37.1452037   53.2619738
   37.1693344   53.2550479
   37.1965596   53.2507619
   37.2092706   53.2517952
   37.2240174   53.2547447
   37.2542130   53.2636004
   37.2758402   53.2722256
   37.2948158   53.2852388
   37.3269328   53.3030813
   37.3408055   53.3072995
   37.3545913   53.3086368
   37.3822640   53.3088465
   37.4112472   53.3064653
   37.4279141   53.3027089
   37.4475467   53.2931721
   37.4719103   53.2785922
   37.4755691   53.2772826
   37.4871616   53.2755524
   37.4928936   53.2766335
   37.5548069   53.2953998
   37.5610979   53.2959873
   37.5654246   53.2935789
   37.5682740   53.2888009
   37.5679828   53.2785095
   37.5655279   53.2657056
   37.5594794   53.2474814
   37.5543531   53.1979772
   37.5552381   53.1878242
   37.5554498   53.1868486
   37.5584154   53.1751219
   37.5617904   53.1680921
   37.5856475   53.1356894
   37.6082250   53.1154494
   37.6128367   53.1128016
   37.6488329   53.1145231
   37.6642720   53.1190494
   37.6865400   53.1326145
   37.6955560   53.1362100
   37.7044718   53.1347521
   37.7128687   53.1313070
   37.7430083   53.1112749
   37.7871889   53.0889541
   37.8032702   53.0744447
   37.8086338   53.0664927
   37.8233251   53.0348621
   37.8399763   53.0100989
   37.8450538   53.0102607
   37.8617059   53.0173469
   37.8708251   53.0248496
   37.8784384   53.0375708
   37.8961639   53.0613738
   37.9060124   53.0693645
   37.9127318   53.0726284
   37.9254738   53.0726285
   37.9511206   53.0690549
   37.9629717   53.0657505
   37.9740087   53.0613547
   37.9859530   53.0581219
   38.0068761   53.0547486
   38.0233212   53.0543100
   38.0877505   53.0616582
   38.0991525   53.0608351
   38.1080725   53.0588281
   38.1806484   53.0204901
   38.1961800   53.0156590
   38.2106169   53.0127492
   38.2240975   53.0121649
   38.2264709   53.0123456
   38.2299511   53.0130762
   38.2439095   53.0186151
   38.2571546   53.0220404
   38.2656678   53.0225942
   38.2702828   53.0214674
   38.2740168   53.0182641
   38.2944159   52.9929402
   38.3064905   52.9743018
   38.3138007   52.9669751
   38.3201410   52.9636333
   38.3277225   52.9618267
   38.3345495   52.9617983
   38.3445205   52.9632427
   38.3539114   52.9661496
   38.3614258   52.9721604
   38.3643448   52.9791976
   38.3655196   52.9899193
   38.3671839   52.9932842
   38.3725258   52.9962878
   38.4142977   53.0079839
   38.4331259   53.0151778
   38.4563220   53.0293195
   38.4607694   53.0330508
   38.4734130   53.0413354
   38.4794006   53.0426021
   38.4872416   53.0425162
   38.5286432   53.0345008
   38.5312256   53.0342202
   38.5943090   53.0484849
   38.5985456   53.0516174
   38.5965531   53.0551331
   38.5982645   53.0585425
   38.5954170   53.0612204
   38.5931728   53.0662292
   38.5943068   53.0723585
   38.6268743   53.1011193
   38.6353612   53.1133993
   38.6341291   53.1207227
   38.6270075   53.1278451
   38.5879666   53.1537003
   38.5854709   53.1560608
   38.5769010   53.1679777
   38.5782690   53.1800289
   38.5802588   53.1876105
   38.5835910   53.1950745
   38.5955738   53.2119407
   38.5989315   53.2226120
   38.5995203   53.2312504
   38.5959089   53.2394854
   38.5913593   53.2430062
   38.5829914   53.2470949
   38.5725327   53.2509645
   38.5584923   53.2586959
   38.5387178   53.2767139
   38.5292410   53.2819002
   38.5180910   53.2847577
   38.5129723   53.2870325
   38.4948061   53.2987328
   38.4929301   53.3044491
   38.4848409   53.3053881
   38.4855998   53.3118639
   38.4901834   53.3128740
   38.4946171   53.3110538
   38.5007225   53.3151965
   38.6240195   53.3423678
   38.6654604   53.3429425
   38.6753481   53.3442984
   38.6833933   53.3465063
   38.7403810   53.3693375
   38.7537787   53.3762943
   38.7619611   53.3837747
   38.7612427   53.3904822
   38.7553029   53.4000081
   38.7273267   53.4260638
   38.7177897   53.4377252
   38.7143221   53.4436122
   38.7144567   53.4493805
   38.7165686   53.4555135
   38.7246515   53.4668658
   38.7270602   53.4723226
   38.7271711   53.4781801
   38.7270144   53.4786406
   38.7276455   53.4796250
   38.7224122   53.4843475
   38.7065131   53.4930375
   38.6992948   53.4981776
   38.6991092   53.5027525
   38.7044850   53.5101559
   38.7179015   53.5251889
   38.7260011   53.5324719
   38.7339205   53.5372142
   38.8246481   53.5454709
   38.8459379   53.5495673
   38.8563363   53.5530068
   38.8771340   53.5629338
   38.8866830   53.5654075
   38.8956425   53.5651838
   39.0412458   53.5496243
   39.0471191   53.5472747
   39.0536545   53.5418976
   39.0650453   53.5295072
   39.0700780   53.5194537
   39.0875666   53.4813564
   39.1006168   53.4633919
   39.1105579   53.4527240
   39.1202548   53.4439956
   39.1248017   53.4376365
   39.1409369   53.4207477
   39.1615642   53.3948358
   39.1720263   53.3877770
   39.1798614   53.3857445
   39.1892110   53.3911846
   39.1971449   53.3934514
   39.2249483   53.3899529
   39.3003096   53.4006818
   39.3433090   53.4021876
   39.4151450   53.4135472
   39.4832579   53.4317332
   39.5144264   53.4481300
   39.5232176   53.4616923
   39.5237137   53.4700723
   39.5194366   53.4942329
   39.5120000   53.5179402
   39.5139688   53.5266676
   39.5240719   53.5319353
   39.5462938   53.5399518
   39.6602128   53.5694539
   39.7015979   53.5872856
   39.7226088   53.5919589
   39.7275550   53.5923369
   39.7334082   53.5910171
   39.7415259   53.5871180
   39.7493945   53.5803320
   39.7579148   53.5749707
   39.7695689   53.5691262
   39.8293214   53.5476850
   39.8741147   53.5269433
   39.8860741   53.5188601
   39.9066730   53.4987132
   39.9092037   53.4877886
   39.9104377   53.4762376
   39.9095644   53.4644355
   39.9072308   53.4562232
   39.9013421   53.4401715
   39.9017939   53.4297322
   39.9037561   53.4223298
   39.9186699   53.4160284
   40.0515194   53.3822285
   40.0547059   53.3826467
   40.1148309   53.3976090
   40.1165001   53.3902894
   40.1140165   53.3890616
   40.1145449   53.3832309
   40.1132690   53.3789835
   40.1188114   53.3659454
   40.1599566   53.3422902
   40.1899648   53.3347466
   40.1997724   53.3366323
   40.2066042   53.3443659
   40.2100754   53.3468696
   40.2174810   53.3498471
   40.2485035   53.3480825
   40.2595942   53.3488661
   40.2672095   53.3513105
   40.2733673   53.3557469
   40.2840459   53.3649107
   40.2926192   53.3697237
   40.3047819   53.3742849
   40.3062036   53.3744047
   40.3082536   53.3740053
   40.3124994   53.3731660
   40.3160232   53.3671932
   40.3174784   53.3562074
   40.3249815   53.3505257
   40.3253651   53.3503436
   40.3253378   53.3502487
   40.3384653   53.3460686
   40.3672873   53.3422923
   40.3792377   53.3427879
   40.3820020   53.3495600
   40.3841668   53.3503149
   40.3806426   53.3615185
   40.3830593   53.3684662
   40.3869101   53.3725440
   40.3931659   53.3766902
   40.4120523   53.3841233
   40.4175513   53.3890528
   40.4186871   53.3981733
   40.4064143   53.4450751
   40.4073328   53.4644181
   40.4177145   53.4872721
   40.4231700   53.4933533
   40.4303446   53.4952612
   40.4349722   53.4944052
   40.4411998   53.4904266
   40.4461756   53.4854107
   40.4671058   53.4537779
   40.4743723   53.4527554
   40.4812943   53.4536493
   40.5021168   53.4611670
   40.5922579   53.5098305
   40.6016550   53.5108822
   40.6208882   53.5095153
   40.6290239   53.5111465
   40.6349624   53.5165152
   40.6395044   53.5230664
   40.6565364   53.5433161
   40.6837371   53.5625596
   40.6875990   53.5646115
   40.7359083   53.5602158
   40.7390655   53.5595611
   40.7523665   53.5507298
   40.7544575   53.5444397
   40.7608229   53.5368167
   40.7710462   53.5297298
   40.8020214   53.5180910
   40.8079537   53.5140309
   40.8227964   53.5000648
   40.8385635   53.4881918
   40.8514066   53.4822892
   40.8637974   53.4797946
   40.8728960   53.4816840
   40.8768276   53.4843579
   40.8793861   53.4914642
   40.8797127   53.4970482
   40.8817805   53.5033411
   40.8888506   53.5058778
   40.8964697   53.5068529
   40.9272710   53.5052919
   41.0203386   53.4896615
   41.0322385   53.4853734
   41.0453709   53.4777009
   41.0464242   53.4724582
   41.0469626   53.4610606
   41.0494721   53.4535093
   41.0579308   53.4460934
   41.0658259   53.4431027
   41.0669612   53.4428535
   41.1355208   53.4305278
   41.1567544   53.4301082
   41.1667215   53.4313876
   41.1734012   53.4334396
   41.1847791   53.4402440
   41.1899464   53.4460329
   41.2085096   53.4726872
   41.2168245   53.4772842
   41.2288681   53.4823924
   41.2434402   53.4870583
   41.2436026   53.4870473
   41.2499088   53.4912362
   41.2534863   53.4964910
   41.2570133   53.5070310
   41.2607660   53.5138452
   41.2666163   53.5183574
   41.2736942   53.5216298
   41.2973818   53.5259457
   41.3190810   53.5321910
   41.3401137   53.5412304
   41.3493876   53.5494984
   41.3532546   53.5559429
   41.3548400   53.5702618
   41.3526629   53.5949138
   41.3546052   53.6409852
   41.3520207   53.6599261
   41.3487696   53.7399671
   41.3510572   53.7530941
   41.3547096   53.7591987
   41.3619511   53.7646983
   41.3784332   53.7705291
   41.3921713   53.7795259
   41.4003408   53.7832054
   41.4107903   53.7843124
   41.4382313   53.7842319
   41.5076601   53.7809992
   41.5199861   53.7826296
   41.5323812   53.7856343
   41.5456210   53.7956363
   41.5593276   53.8023748
   41.5712368   53.8040740
   41.5800359   53.8031124
   41.6387172   53.7859162
   41.6559559   53.7828107
   41.6668928   53.7838894
   41.6727950   53.7874897
   41.6781031   53.8002685
   41.6815166   53.8063318
   41.6897260   53.8125694
   41.7089076   53.8195269
   41.7488455   53.8234783
   42.0184400   53.8202427
   42.0206973   53.8199568
   42.0488298   53.8130713
   42.0610595   53.8100781
   42.0558219   53.8032092
   42.0850659   53.7809186
   42.0754127   53.7706044
   42.0725234   53.7687571
   42.0635036   53.7591578
   42.0600016   53.7438566
   42.0619081   53.7252508
   42.0694587   53.7087822
   42.0760349   53.6958448
   42.0795674   53.6852246
   42.0761403   53.6744678
   42.0735419   53.6700590
   42.0684255   53.6507109
   42.0697817   53.6347955
   42.0690855   53.6319750
   42.0707859   53.6176609
   42.0697793   53.6132393
   42.0717552   53.6005296
   42.0705107   53.5945092
   42.0726846   53.5833955
   42.0712857   53.5757842
   42.0735682   53.5662650
   42.0721097   53.5570653
   42.0743994   53.5491326
   42.0729911   53.5383498
   42.0792154   53.5202006
   42.0824523   53.5164679
   42.0860866   53.5095749
   42.0951847   53.5031521
   42.1123449   53.4963828
   42.1229760   53.4958429
   42.1311856   53.4934357
   42.1377742   53.4933916
   42.1430771   53.4909404
   42.1479794   53.4858354
   42.1640265   53.4765313
   42.1739419   53.4742413
   42.1812461   53.4698928
   42.1920714   53.4671717
   42.1984684   53.4632683
   42.2101978   53.4600896
   42.2271403   53.4495096
   42.2329648   53.4433081
   42.2249846   53.4232341
   42.2240230   53.4091110
   42.2216574   53.4035759
   42.2208955   53.3841133
   42.2238386   53.3762404
   42.2254316   53.3650567
   42.2317031   53.3461362
   42.2353271   53.3410924
   42.2386838   53.3393382
   42.2481287   53.3373163
   42.2562506   53.3336927
   42.2614622   53.3329393
   42.2738978   53.3283337
   42.3404811   53.3223593
   42.3514655   53.3171826
   42.3644012   53.3096099
   42.3695435   53.3080463
   42.3865197   53.2975375
   42.3976803   53.2853243
   42.4006044   53.2834164
   42.4111251   53.2717147
   42.4146815   53.2692845
   42.4245802   53.2581134
   42.4287497   53.2551451
   42.4380447   53.2445175
   42.4428126   53.2409965
   42.4515140   53.2309299
   42.4568712   53.2268413
   42.4649915   53.2173461
   42.4709233   53.2126821
   42.4784014   53.2038523
   42.4795154   53.1803749
   42.4853462   53.1607605
   42.4962570   53.1451525
   42.5175677   53.1161326
   42.5182471   53.1140685
   42.5301260   53.0992230
   42.5361889   53.0955821
   42.5497121   53.0929792
   42.5551424   53.0901379
   42.5667548   53.0881697
   42.5741255   53.0847571
   42.5837911   53.0832979
   42.5931315   53.0794239
   42.6008225   53.0783801
   42.6121553   53.0741274
   42.6170132   53.0735302
   42.6566763   53.0515949
   42.6632067   53.0457768
   42.6731578   53.0407129
   42.6795316   53.0348926
   42.6896458   53.0298345
   42.6958523   53.0240031
   42.7061354   53.0189652
   42.7121697   53.0131039
   42.7226336   53.0081021
   42.7284806   53.0021947
   42.7461131   52.9940159
   42.7478687   52.9938719
   42.7641944   52.9867683
   42.7984939   52.9730267
   42.8001105   52.9717628
   42.8154080   52.9661958
   42.8180568   52.9642396
   42.8323134   52.9593332
   42.8360189   52.9567420
   42.8492085   52.9524428
   42.8539905   52.9492700
   42.8660951   52.9455277
   42.8719739   52.9418198
   42.8829739   52.9385901
   42.8899671   52.9343898
   42.8998439   52.9316324
   42.9070647   52.9251099
   42.9173110   52.9194161
   42.9290488   52.9074306
   42.9313075   52.9062194
   42.9435796   52.8939032
   42.9452967   52.8930167
   42.9872216   52.8533611
   43.0017733   52.8398690
   43.0085020   52.8369695
   43.0181910   52.8285316
   43.0236638   52.8262291
   43.0346204   52.8172052
   43.0388175   52.8154769
   43.0510592   52.8058878
   43.0539681   52.8047128
   43.0675022   52.7945813
   43.0746972   52.7899309
   43.0822370   52.7812855
   43.0872057   52.7779893
   43.0967539   52.7677410
   43.0996465   52.7659784
   43.1113350   52.7542721
   43.1246755   52.7421026
   43.1256858   52.7405350
   43.1374350   52.7304032
   43.1399711   52.7267204
   43.1501344   52.7186420
   43.1543148   52.7129760
   43.1606472   52.7083617
   43.1718872   52.6934893
   43.1787030   52.6751578
   43.1791286   52.6712789
   43.1730424   52.6651732
   43.1640394   52.6527272
   43.1505919   52.6418881
   43.1482043   52.6408441
   43.1368984   52.6313499
   43.1333188   52.6296850
   43.1231890   52.6208374
   43.1015860   52.6101035
   43.0999813   52.6086152
   43.0847203   52.6017190
   43.0824505   52.5995567
   43.0678408   52.5933468
   43.0649259   52.5904767
   43.0509492   52.5849960
   43.0474117   52.5813646
   43.0340365   52.5766733
   43.0215805   52.5631762
   43.0225547   52.5479930
   43.0239924   52.5376325
   43.0241037   52.5311541
   43.0187442   52.5279788
   43.0037939   52.5112986
   43.0045601   52.5024851
   42.9970686   52.4938645
   43.0051518   52.4791014
   43.0040079   52.4751754
   43.0103347   52.4584488
   43.0101154   52.4565624
   43.0160289   52.4382125
   43.0209635   52.4211770
   43.0183260   52.4149545
   43.0084789   52.4001568
   42.9970979   52.3913703
   42.9842426   52.3910139
   42.9795053   52.3925286
   42.9690705   52.3916288
   42.9622747   52.3936350
   42.9539116   52.3923129
   42.9450525   52.3946572
   42.9295719   52.3908101
   42.9281953   52.3911883
   42.9113080   52.3880674
   42.9022253   52.3818840
   42.8986335   52.3717492
   42.8986820   52.3648024
   42.8952751   52.3539264
   42.8953411   52.3483219
   42.8919259   52.3361036
   42.8919931   52.3318418
   42.8888982   52.3195287
   42.8813732   52.3060552
   42.8781894   52.3029233
   42.8712868   52.2898694
   42.8684528   52.2873430
   42.8611983   52.2736882
   42.8587225   52.2717582
   42.8511028   52.2575136
   42.8391486   52.2498506
   42.8366873   52.2496532
   42.8222062   52.2409842
   42.8208940   52.2408933
   42.8052556   52.2321308
   42.7731527   52.2153547
   42.7717647   52.2137168
   42.7571877   52.2069457
   42.7550073   52.2045316
   42.7419699   52.1988250
   42.7372189   52.1856758
   42.7342043   52.1817180
   42.7311021   52.1626976
   42.7314577   52.1615283
   42.7289857   52.1434393
   42.7248553   52.1066343
   42.7241342   52.1050693
   42.7227389   52.0883359
   42.7217182   52.0858845
   42.7203376   52.0664440
   42.7264439   52.0392091
   42.7143122   52.0283635
   42.7070956   52.0176433
   42.7009576   52.0118456
   42.6980238   52.0059286
   42.6882749   51.9951651
   42.6849089   51.9812743
   42.6815250   51.9770369
   42.6802868   51.9664254
   42.6751300   51.9588211
   42.6754015   51.9466518
   42.6718125   51.9398556
   42.6726614   51.9304954
   42.6687393   51.9208287
   42.6696966   51.9143607
   42.6658645   51.9017536
   42.6665553   51.8982427
   42.6630478   51.8821601
   42.6586437   51.8755671
   42.6549593   51.8728516
   42.6485070   51.8620325
   42.6427729   51.8570180
   42.6381941   51.8485921
   42.6306980   51.8410667
   42.6248869   51.8319839
   42.6167071   51.8271530
   42.6095751   51.8191017
   42.6015541   51.8144723
   42.5942611   51.8062169
   42.5864027   51.8017933
   42.5789508   51.7933333
   42.5712474   51.7891133
   42.5636400   51.7804489
   42.5560944   51.7764366
   42.5483304   51.7675629
   42.5409392   51.7637594
   42.5330216   51.7546758
   42.5257825   51.7510831
   42.5177136   51.7417877
   42.5106248   51.7384087
   42.5024059   51.7288971
   42.4954665   51.7257354
   42.4871010   51.7160057
   42.4819641   51.7137817
   42.4766375   51.6975729
   42.4755337   51.6961286
   42.4755634   51.6861049
   42.4703177   51.6768115
   42.4776384   51.6680680
   42.4733997   51.6589119
   42.4820557   51.6500759
   42.4816969   51.6419034
   42.4880559   51.6352112
   42.4898937   51.6248765
   42.4913380   51.6233339
   42.4912130   51.6139184
   42.4867426   51.6059123
   42.4932663   51.5886003
   42.4946487   51.5877935
   42.5022461   51.5759598
   42.5030795   51.5718510
   42.5094879   51.5637053
   42.5115588   51.5583616
   42.5253284   51.5512129
   42.5273966   51.5510146
   42.5423587   51.5432033
   42.5445339   51.5429923
   42.5593867   51.5351945
   42.5616725   51.5349703
   42.5764180   51.5271851
   42.5788107   51.5269477
   42.5934486   51.5191763
   42.5959478   51.5189255
   42.6104792   51.5111671
   42.6130859   51.5109026
   42.6275075   51.5031589
   42.6302232   51.5028802
   42.6445390   51.4951499
   42.6473622   51.4948570
   42.6615699   51.4871417
   42.6644980   51.4868345
   42.6786006   51.4791330
   42.6816359   51.4788110
   42.6956303   51.4711246
   42.6987727   51.4707876
   42.7126600   51.4631168
   42.7159117   51.4627644
   42.7277319   51.4561979
   42.7386371   51.4426719
   42.7634400   51.4151417
   42.7650953   51.4120250
   42.7754277   51.4015640
   42.7783281   51.3967034
   42.7873636   51.3879218
   42.7916200   51.3814136
   42.7992610   51.3742323
   42.8049557   51.3661497
   42.8059712   51.3438789
   42.8108953   51.3291268
   42.8116423   51.3242530
   42.8145526   51.3185196
   42.8184529   51.3052786
   42.8254645   51.2959011
   42.8281135   51.2879242
   42.8342217   51.2803474
   42.8378389   51.2706056
   42.8429121   51.2647600
   42.8476271   51.2533254
   42.8604207   51.2396158
   42.8722319   51.2278149
   42.8734964   51.2223414
   42.8829857   51.2055618
   42.8997826   51.1967203
   42.9035487   51.1959746
   42.9176066   51.1886391
   42.9211780   51.1879310
   42.9354275   51.1805586
   42.9388089   51.1798873
   42.9532498   51.1724777
   42.9564398   51.1718435
   42.9710736   51.1643960
   42.9740706   51.1637994
   42.9888943   51.1563153
   42.9917016   51.1557558
   43.0067165   51.1482343
   43.0093314   51.1477125
   43.0245402   51.1401523
   43.0269624   51.1396684
   43.0423609   51.1320714
   43.0445935   51.1316249
   43.0601847   51.1239894
   43.0622243   51.1235810
   43.0780052   51.1159085
   43.0798554   51.1155376
   43.1136510   51.0997451
   43.1314717   51.0916645
   43.1386198   51.0902271
   43.1501299   51.0853112
   43.1544247   51.0845678
   43.1701295   51.0788446
   43.2364823   51.0391928
   43.2518542   51.0305540
   43.2533414   51.0291118
   43.2682431   51.0209338
   43.2701969   51.0190309
   43.2846354   51.0113135
   43.2870543   51.0089467
   43.3010274   51.0016958
   43.3039083   50.9988623
   43.3213948   50.9900857
   43.3378698   50.9832467
   43.3392762   50.9821238
   43.3558538   50.9757944
   43.3730714   50.9797187
   43.3803042   50.9838850
   43.3914192   50.9868743
   43.3968204   50.9901184
   43.4097548   50.9940749
   43.4133542   50.9963157
   43.4245256   51.0001064
   43.4285109   50.9996067
   43.4480158   51.0021574
   43.4552035   51.0052008
   43.4669480   51.0069888
   43.4726838   51.0095577
   43.4858715   51.0118515
   43.4901711   51.0138834
   43.5047897   51.0167457
   43.5076656   51.0181765
   43.5675860   51.0329815
   43.5811571   51.0335180
   43.5847149   51.0347204
   43.6007111   51.0358766
   43.6361077   51.0404563
   43.6400150   51.0398119
   43.6532464   51.0426335
   43.6596842   51.0417097
   43.6784922   51.0470346
   43.6864925   51.0535678
   43.6963105   51.0591053
   43.7126625   51.0713846
   43.7172479   51.0771256
   43.7477280   51.0830398
   43.7500319   51.0830125
   43.7651328   51.0865130
   43.7692925   51.0865348
   43.7825415   51.0899523
   43.8687717   51.0915251
   43.8801095   51.0975065
   43.8872350   51.0982186
   43.9047946   51.1085078
   43.9070212   51.1111878
   43.9218731   51.1207075
   43.9296496   51.1265155
   43.9421749   51.1251981
   43.9736413   51.1156215
   43.9813994   51.1115650
   43.9864815   51.1009770
   43.9881891   51.0941889
   43.9964374   51.0777403
   44.0128806   51.0589971
   44.0214769   51.0560859
   44.0404592   51.0550489
   44.0534586   51.0582398
   44.0589990   51.0586970
   44.0772382   51.0655912
   44.0818752   51.0687730
   44.0958680   51.0682756
   44.1143987   51.0720621
   44.1232154   51.0760762
   44.1331881   51.0730415
   44.1509189   51.0718787
   44.1650389   51.0715610
   44.1712078   51.0703467
   44.1858245   51.0714579
   44.1988568   51.0808560
   44.2068017   51.0917951
   44.2118810   51.0954912
   44.2194790   51.1061433
   44.2249031   51.1101271
   44.2361867   51.1262426
   44.2409579   51.1415102
   44.2436202   51.1456424
   44.2487249   51.1611350
   44.2531299   51.1632312
   44.2653711   51.1655086
   44.2910185   51.1597700
   44.2959447   51.1601736
   44.3108056   51.1573511
   44.3134261   51.1576739
   44.3308869   51.1550731
   44.3504038   51.1528022
   44.3630397   51.1554898
   44.3705738   51.1554026
   44.3778333   51.1574612
   44.3890610   51.1582975
   44.3992003   51.1575654
   44.4303011   51.1529251
   44.4504831   51.1557389
   44.4528030   51.1566724
   44.4707975   51.1602396
   44.4797806   51.1641315
   44.4906316   51.1584524
   44.4961743   51.1565945
   44.5098560   51.1485533
   44.5138788   51.1474377
   44.5290800   51.1387009
   44.5315204   51.1382311
   44.5675619   51.1193807
   44.5712236   51.1201078
   44.5815301   51.1185053
   44.5872052   51.1150333
   44.6012312   51.1185946
   44.6073499   51.1173334
   44.6143665   51.1205615
   44.6276205   51.1212809
   44.6485331   51.1337332
   44.6552406   51.1410704
   44.6619415   51.1406045
   44.6688565   51.1383572
   44.6816214   51.1375255
   44.6885883   51.1352170
   44.7013029   51.1344484
   44.7083215   51.1320741
   44.7209850   51.1313738
   44.7280569   51.1289279
   44.7406692   51.1283014
   44.7477887   51.1257799
   44.7650173   51.1250302
   44.7676537   51.1243531
   44.7790074   51.1248624
   44.7875557   51.1234627
   44.8053205   51.1257631
   44.8190660   51.1280511
   44.8278540   51.1281560
   44.8477161   51.1266799
   44.8608977   51.1288634
   44.8672570   51.1210177
   44.8861947   51.1073400
   44.9051796   51.1026758
   44.9198649   51.1006379
   44.9254152   51.0977882
   44.9454311   51.0983910
   44.9507720   51.1012336
   44.9606659   51.1038499
   44.9657445   51.1028992
   44.9728261   51.1041764
   44.9857536   51.1034120
   45.0061700   51.1092919
   45.0076827   51.1102259
   45.0216597   51.1077028
   45.0366678   51.1011806
   45.0439171   51.0958321
   45.0483344   51.0908159
   45.0568743   51.0783898
   45.0687237   51.0632185
   45.0846874   51.0524062
   45.0906487   51.0505184
   45.1018463   51.0429286
   45.1085057   51.0405722
   45.1190016   51.0334537
   45.1263637   51.0306258
   45.1361619   51.0239771
   45.1442204   51.0206790
   45.1533212   51.0145013
   45.1601526   51.0115603
   45.1657122   50.9997015
   45.1824479   50.9769357
   45.1859454   50.9650220
   45.1964355   50.9480953
   45.2110813   50.9358144
   45.2140482   50.9346092
   45.2265042   50.9254898
   45.2373564   50.9182254
   45.2413673   50.9123600
   45.2561924   50.9002762
   45.2639025   50.8969798
   45.2730380   50.8904550
   45.2817065   50.8860210
   45.2883513   50.8760214
   45.2939535   50.8593959
   45.2911165   50.8431177
   45.2832166   50.8255786
   45.2785646   50.8203288
   45.2701781   50.8085236
   45.2660770   50.8046260
   45.2597643   50.7951044
   45.2536737   50.7888466
   45.2428972   50.7715002
   45.2400642   50.7639227
   45.2355474   50.7559674
   45.2152947   50.7426196
   45.2011780   50.7284831
   45.1955535   50.7199955
   45.1889429   50.7125379
   45.1843523   50.7029814
   45.1816650   50.6830758
   45.1820280   50.6701402
   45.1797164   50.6632480
   45.1790499   50.6561529
   45.1750891   50.6431304
   45.1746497   50.6238087
   45.1755728   50.6109018
   45.1747084   50.6038554
   45.1783933   50.5846381
   45.1809601   50.5816479
   45.1908685   50.5782853
   45.1997945   50.5731689
   45.2190160   50.5704143
   45.2248626   50.5719530
   45.2383905   50.5699193
   45.2447761   50.5714691
   45.2577653   50.5694308
   45.2646899   50.5709788
   45.2771407   50.5689485
   45.2846045   50.5704831
   45.2965163   50.5684721
   45.3045171   50.5699823
   45.3158924   50.5680002
   45.3244311   50.5694764
   45.3352686   50.5675327
   45.3443451   50.5689664
   45.3546438   50.5670698
   45.3642592   50.5684527
   45.3740220   50.5666105
   45.3936032   50.5691656
   45.4043177   50.5738408
   45.4162295   50.5765163
   45.4259529   50.5763529
   45.4327972   50.5747551
   45.4439852   50.5747428
   45.4520842   50.5729660
   45.4620180   50.5731137
   45.4673005   50.5720305
   45.4712126   50.5688362
   45.4900253   50.5600361
   45.4960359   50.5592289
   45.5089467   50.5528462
   45.5153518   50.5522740
   45.5278626   50.5455711
   45.5472440   50.5451808
   45.5557672   50.5491179
   45.5670305   50.5507754
   45.5826887   50.5591797
   45.5993420   50.5578385
   45.6045376   50.5588238
   45.6181458   50.5580040
   45.6220451   50.5588635
   45.6369420   50.5582008
   45.6395525   50.5588671
   45.6745455   50.5587265
   45.6933055   50.5590576
   45.7112808   50.5661410
   45.7144184   50.5686693
   45.7228088   50.5900794
   45.7234695   50.6089666
   45.7213726   50.6162597
   45.7216448   50.6282111
   45.7196830   50.6358445
   45.7198399   50.6474527
   45.7179787   50.6554219
   45.7180456   50.6661772
   45.7193260   50.6726956
   45.7240968   50.6848052
   45.7246399   50.6886881
   45.7304166   50.7044410
   45.7382981   50.7165533
   45.7561938   50.7285627
   45.7735015   50.7312337
   45.7929161   50.7287478
   45.7945140   50.7280890
   45.8453071   50.7202725
   45.8504402   50.7182724
   45.8637685   50.7161370
   45.8688332   50.7141879
   45.8818730   50.7120610
   45.8868576   50.7089213
   45.8986175   50.7045257
   45.9040778   50.7010487
   45.9156695   50.6967999
   45.9212988   50.6931719
   45.9327231   50.6890768
   45.9385162   50.6852929
   45.9497776   50.6813578
   45.9557329   50.6774089
   45.9668377   50.6736414
   45.9729497   50.6695190
   45.9907949   50.6636712
   45.9978610   50.6634067
   46.0144213   50.6586381
   46.0301956   50.6375138
   46.0421289   50.6277555
   46.0404360   50.6205119
   46.0404959   50.5987421
   46.0576028   50.5423870
   46.0575159   50.5413212
   46.0636830   50.5224109
   46.0778635   50.5072592
   46.0860517   50.5030553
   46.0930320   50.5030944
   46.2103277   50.5061769
   46.2689961   50.5076014
   46.2834642   50.5129948
   46.2882352   50.5139505
   46.3072789   50.5239551
   46.3165449   50.5319400
   46.3190660   50.5321626
   46.3266072   50.5286353
   46.3464310   50.5240466
   46.3660213   50.5238192
   46.3836715   50.5240599
   46.3856099   50.5235909
   46.4031094   50.5238796
   46.4052029   50.5233610
   46.4225474   50.5237001
   46.4247934   50.5231298
   46.4443479   50.5235757
   46.4636097   50.5295077
   46.4788424   50.5385441
   46.4898166   50.5507700
   46.4999584   50.5676614
   46.5071859   50.5757062
   46.5181642   50.5793529
   46.5332387   50.5873703
   46.5364637   50.5877743
   46.5563078   50.5939916
   46.5649994   50.5988011
   46.5744326   50.6026671
   46.5907281   50.6139399
   46.6045156   50.6287784
   46.6108630   50.6391347
   46.6205202   50.6404659
   46.6399860   50.6472294
   46.6558300   50.6538028
   46.6591372   50.6544388
   46.6707009   50.6598864
   46.6986950   50.6663483
   46.7046132   50.6664201
   46.7200444   50.6461451
   46.7301106   50.6386866
   46.7347456   50.6330473
   46.7491834   50.6230514
   46.7591783   50.6169025
   46.7676357   50.6105089
   46.7816352   50.6043958
   46.7830791   50.5981879
   46.7922921   50.5793465
   46.8053906   50.5645715
   46.8223740   50.5538649
   46.8271324   50.5523512
   46.8363689   50.5470769
   46.8384399   50.5421934
   46.8481021   50.5238240
   46.8617690   50.5096442
   46.8882857   50.4950759
   46.8930227   50.4853908
   46.9023551   50.4746246
   46.9152548   50.4699665
   46.9338385   50.4689788
   46.9377306   50.4700021
   46.9523748   50.4692084
   46.9562577   50.4702477
   46.9709097   50.4694370
   46.9747867   50.4704938
   46.9894430   50.4696660
   46.9933127   50.4707406
   47.0079793   50.4698943
   47.0118402   50.4709870
   47.0265147   50.4701220
   47.0448398   50.4754097
   47.0552698   50.4813535
   47.0669257   50.4819446
   47.0816809   50.4813822
   47.0857870   50.4822979
   47.1002133   50.4816708
   47.1046441   50.4826500
   47.1187443   50.4819599
   47.1235049   50.4830022
   47.1423527   50.4819738
   47.1611675   50.4757813
   47.1670579   50.4722191
   47.1695174   50.4623325
   47.1740841   50.4516124
   47.1754938   50.4436621
   47.1834701   50.4262549
   47.1958399   50.4116349
   47.2051692   50.4050487
   47.2141120   50.3782946
   47.2246699   50.3625230
   47.2312299   50.3551197
   47.2390140   50.3520275
   47.2566906   50.3499127
   47.2627731   50.3508260
   47.2744512   50.3493319
   47.2811459   50.3502626
   47.2922087   50.3487578
   47.2995152   50.3496940
   47.3099699   50.3481888
   47.3178861   50.3491188
   47.3277283   50.3476256
   47.3362588   50.3485389
   47.3454904   50.3470683
   47.3546278   50.3479531
   47.3729736   50.3448942
   47.3912636   50.3369968
   47.4095072   50.3242561
   47.4200925   50.3140260
   47.3704565   50.2777691
   47.3666092   50.2719345
   47.3663870   50.2688948
   47.3837493   50.0523383
   47.3835749   50.0519095
   47.1909108   49.8835093
   47.1905211   49.8833006
   46.9508331   49.8183071
   46.9452662   49.8144022
   46.9436820   49.8107960
   46.8518966   49.3919059
   46.8534233   49.3841019
   46.8563545   49.3812920
   47.0184973   49.2796770
   47.0188215   49.2793439
   47.0985978   49.1439873
   47.0985991   49.1435719
   47.0123205   48.9950075
   47.0119859   48.9946916
   46.8082748   48.8915310
   46.8038882   48.8871607
   46.5958716   48.4801629
   46.5950036   48.4734903
   46.5965563   48.4699166
   46.6020259   48.4659974
   47.1573145   48.3071674
   47.1575785   48.3068567
   47.1750809   48.1572875
   47.1784426   48.1509113
   47.2610298   48.0789271
   47.2610433   48.0785986
   47.1515215   47.9659922
   47.1494263   47.9627859
   47.1488738   47.9571120
   47.1515115   47.9520581
   47.2275066   47.8736985
   47.2276965   47.8732968
   47.2351985   47.8071934
   47.2374520   47.8019198
   47.2422323   47.7987515
   47.3438100   47.7679431
   47.3516515   47.7688176
   47.3557346   47.7731999
   47.4107406   47.8882711
   47.4110927   47.8884261
   47.6673975   47.8104022
   47.6703683   47.8099689
   48.0478905   47.8121786
   48.0483527   47.8120918
   48.2330712   47.7388867
   48.2334457   47.7386235
   48.4677854   47.4729843
   48.4717562   47.4702429
   48.5675869   47.4341079
   48.5679632   47.4338161
   49.0474105   46.7513386
   49.0473686   46.7509787
   48.9258073   46.6428577
   48.9253929   46.6427076
   48.6814330   46.6505269
   48.6741713   46.6477305
   48.6711669   46.6415725
   48.6734323   46.6341280
   48.6774385   46.6312315
   49.1928381   46.4276232
   49.1934426   46.4273362
   49.5209942   46.2439776
   49.5254683   46.2427119
   49.7180505   46.2347998
   49.7184714   46.2346334
   49.9364722   46.0465021
   49.9364361   46.0462331
   49.1153491   45.6541518
   49.1110088   45.6501467
   49.0115596   45.4787562
   49.0112391   45.4784217
   48.8658764   45.3855718
   48.8654289   45.3853970
   48.6720815   45.3508849
   48.6715767   45.3508731
   48.2837240   45.4015267
   48.2766877   45.3997985
   48.0571655   45.2458641
   48.0567146   45.2456677
   47.6519710   45.1593567
   47.6456099   45.1549295
   47.3797127   44.7353626
   47.3786128   44.7270322
   47.3817913   44.7222993
   47.3880008   44.7200109
   47.6546656   44.7157839
   47.6551345   44.7156832
   47.7884198   44.6582392
   47.7887618   44.6579157
   47.8949817   44.4447373
   47.8949928   44.4442975
   47.8134037   44.2574867
   47.8129717   44.2506707
   47.8170157   44.2451671
   47.8206759   44.2436648
   48.0410270   44.2012107
   48.0414903   44.2009822
   48.1642286   44.0920422
   48.1644666   44.0916707
   48.1952921   43.9901834
   48.1952987   43.9897347
   48.1647293   43.8773049
   48.1644717   43.8768648
   47.8964830   43.6132239
   47.8939449   43.6090578
   47.8521953   43.4744606
   47.8519185   43.4696507
   47.8846036   43.2957667
   47.8845963   43.2952748
   47.8471860   43.1245589
   47.8470819   43.1208253
   47.8501135   43.1151241
   47.9792942   42.9939761
   47.9795637   42.9936491
   48.2392602   42.5804756
   48.2402735   42.5791301
   48.6072168   42.1689138
   48.6083250   42.1678516
   48.8643399   41.9576860
   48.8643251   41.9573941
   48.6310077   41.8026613
   48.6290071   41.8009104
   48.4109480   41.5515621
   48.4105396   41.5512844
   48.1156995   41.4463167
   48.1110991   41.4429563
   47.9071183   41.1752277
   47.9067100   41.1749445
   47.7762366   41.1355684
   47.7757822   41.1355642
   47.6424528   41.1731499
   47.6368612   41.1731018
   47.5557895   41.1487350
   47.5553168   41.1487943
   47.4510721   41.2114895
   47.4493271   41.2123210
   47.2407327   41.2879592
   47.2403842   41.2882408
   47.1057212   41.5031646
   47.1011008   41.5070828
   47.0981247   41.5078165
   46.9856238   41.5177276
   46.9852560   41.5179779
   46.9429826   41.6024858
   46.9401844   41.6059009
   46.7253016   41.7732894
   46.7181309   41.7753477
   46.5576670   41.7588055
   46.5572638   41.7589731
   46.4994692   41.8303943
   46.4954107   41.8333881
   46.2072151   41.9487098
   46.2046797   41.9493557
   45.9104210   41.9843126
   45.9100557   41.9845300
   45.8636143   42.0502455
   45.8583198   42.0540529
   45.8555139   42.0544740
   45.7731995   42.0550183
   45.7727155   42.0551502
   45.6149534   42.1466562
   45.6146320   42.1470018
   45.5629485   42.2531173
   45.5630392   42.2534873
   45.6851698   42.3438414
   45.6891186   42.3504442
   45.6994638   42.4217207
   45.6982417   42.4281329
   45.6933235   42.4324249
   45.5465506   42.4919082
   45.5419834   42.4926074
   45.3238174   42.4748509
   45.3233702   42.4750051
   45.1319908   42.6514901
   45.1286579   42.6535261
   45.1238210   42.6540416
   45.0384510   42.6420538
   45.0379903   42.6421246
   44.9326052   42.6923049
   44.9288544   42.6932612
   44.9224403   42.6913751
   44.9193325   42.6876892
   44.8696831   42.5867296
   44.8693620   42.5864363
   44.8107504   42.5639385
   44.8103513   42.5640302
   44.6940943   42.6881448
   44.6871411   42.6913025
   44.5794383   42.6950209
   44.5717167   42.6917786
   44.5324193   42.6488450
   44.5319999   42.6486783
   44.3350953   42.6631086
   44.3302428   42.6622464
   44.3270311   42.6599340
   44.2536646   42.5807975
   44.2532650   42.5805619
   43.9322159   42.5011708
   43.9317334   42.5012005
   43.6774783   42.5984389
   43.6772188   42.5987842
   43.6720396   42.6607552
   43.6721984   42.6611439
   43.7228916   42.7048791
   43.7252767   42.7079253
   43.7258854   42.7154924
   43.7210039   42.7213065
   43.5481254   42.8119763
   43.5454594   42.8129227
   43.1706650   42.8885785
   43.1701975   42.8887802
   42.8453147   43.1184677
   42.8402161   43.1202795
   42.7380503   43.1271837
   42.7321210   43.1257144
   42.6625528   43.0827452
   42.6621305   43.0827128
   42.4022645   43.1925324
   42.3967854   43.1931946
   42.0488865   43.1372976
   42.0482907   43.1372742
   41.6157378   43.1723099
   41.6152693   43.1724445
   41.3694996   43.2999336
   41.3665016   43.3009269
   40.9291277   43.3721229
   40.9286911   43.3722579
   40.7354154   43.4628244
   40.7245770   43.4932901
   40.7232015   43.4959035
   40.7175770   43.4996880
   40.7136552   43.4998797
   40.7091430   43.4979946
   40.7060643   43.4941952
   40.6991371   43.4798344
   40.6570430   43.4995551
   40.6500665   43.5001186
   40.5364337   43.4678193
   40.5359387   43.4677824
   40.1556467   43.5168832
   40.1517164   43.5166080
   40.1461616   43.5126825
   39.9211621   43.1897840
   39.9207715   43.1895880
   39.7720393   43.1943527
   39.7716308   43.1945032
   39.0960239   43.7343312
   39.0953558   43.7348211
   38.5858850   44.0768864
   38.5827069   44.0782928
   38.0684482   44.2052163
   38.0679648   44.2054215
   37.7313455   44.4169699
   37.7279438   44.4183171
   37.3091175   44.5002257
   37.3085964   44.5004235
   37.1346396   44.6028848
   37.1342569   44.6032380
   36.9952946   44.8010725
   36.9904813   44.8047397
   36.8277108   44.8629974
   36.8252814   44.8635379
   36.6290552   44.8820730
   36.6249810   44.8816136
   36.6049136   44.8750032
   36.6014893   44.8774520
   36.5957863   44.8781338
   36.5893721   44.8741063
   36.5869868   44.8690798
   36.3215746   44.7814906
   36.3210120   44.7813747
   35.8674363   44.7415781
   35.8670256   44.7415932
   35.6411915   44.7782490
   35.6349789   44.7772520
   35.1943877   44.5483427
   35.1939673   44.5482325
   34.7560895   44.5334923
   34.7493728   44.5305869
   34.5700113   44.3521305
   34.5696271   44.3518456
   34.2576290   44.1842776
   34.2571625   44.1841364
   33.7336365   44.1341345
   33.7331352   44.1341903
   33.2886457   44.2799560
   33.2882378   44.2801825
   33.0846527   44.4505771
   33.0844210   44.4509632
   33.0463723   44.6321907
   33.0464861   44.6326332
   33.1859471   44.7948900
   33.1883312   44.8006064
   33.1955549   44.8904037
   33.1937474   44.8969857
   33.1899993   44.9001795
   32.8167687   45.0836865
   32.8114753   45.0846737
   32.5822283   45.0643937
   32.5817063   45.0644605
   32.2423734   45.1854803
   32.2420632   45.1857807
   32.1506161   45.4183810
   32.1506563   45.4187986
   32.2899363   45.6377341
   32.2903188   45.6380810
   32.7635611   45.8778588
   32.7641021   45.8780581
   33.4980442   46.0552255
   33.5042023   46.0596858
   33.5725692   46.1702158
   33.5740565   46.1758796
   33.5710801   46.2496193
   33.5713005   46.2499693
   33.6435175   46.2810884
   33.6439548   46.2811247
   34.3592258   46.1052851
   34.3596262   46.1050808
   34.4805039   46.0027006
   34.4858300   46.0003962
   34.4923884   46.0019285
   34.5607796   46.0460542
   34.5612384   46.0461580
   34.6451215   46.0352636
   34.8337710   45.9404451
   34.8340721   45.9400841
   34.8588354   45.8556115
   34.8607626   45.8520069
   34.8649140   45.8490637
   34.9531320   45.8159146
   34.9574435   45.8153071
   35.2521398   45.8387801
   35.2525781   45.8386338
   35.5428441   45.5821770
   35.5501419   45.5796940
   35.5539351   45.5807256
   35.7830164   45.6951933
   35.7834673   45.6952739
   35.9956596   45.6719330
   35.9982535   45.6719863
   36.3323247   45.7226873
   36.4017145   45.7149799
   36.6536375   45.6324828
   36.6602073   45.6326031
   36.6652842   45.6367748
   37.0000524   46.1850102
   37.0002593   46.1853221
   37.4153740   46.7630029
   37.4157620   46.7633528
   37.6230202   46.8820556
   37.6234499   46.8821837
   38.1098516   46.9112356
   38.1143541   46.9126153
   38.2283168   46.9801617
   38.2321978   46.9843636
   38.2323714   46.9927913
   38.1795741   47.1127961
   38.1794705   47.1132435
   38.1705706   47.3319998
   38.1707254   47.3324611
   38.2443867   47.4220221
   38.2466403   47.4290531
   38.2375168   47.5631428
   38.2376642   47.5635755
   38.3203796   47.6570076
   38.3208003   47.6572585
   38.7184764   47.7501680
   38.7236175   47.7531974
   38.7259372   47.7576223
   38.7457856   47.8422482
   38.7460394   47.8426102
   38.8738006   47.9260567
   38.8742817   47.9261869
   39.7093451   47.8842948
   39.7156640   47.8861489
   39.7187593   47.8897485
   39.7586345   47.9681411
   39.7592892   47.9755825
   39.7323805   48.0641281
   39.7324790   48.0645338
   39.8792875   48.2155425
   39.8820704   48.2215451
   39.8817045   48.2253572
   39.8778303   48.2307207
   39.7956069   48.2879529
   39.7954092   48.2883299
   39.7952108   48.3502031
   39.7954019   48.3505789
   39.8466997   48.3877168
   39.8502215   48.3923668
   39.8505497   48.3981907
   39.8482677   48.4025074
   39.7980566   48.4582849
   39.7979059   48.4587186
   39.8016962   48.5179339
   39.8004134   48.5235089
   39.7979089   48.5264248
   39.7925914   48.5285343
   39.6676228   48.5395087
   39.6672050   48.5396997
   39.6156559   48.5896894
   39.6155471   48.5900957
   39.6595974   48.7449101
   39.6597971   48.7453130
   39.7483729   48.8635387
   39.7503560   48.8690087
   39.7489585   48.8746567
   39.7463376   48.8775588
   39.6466110   48.9517279
   39.6463798   48.9521046
   39.6276707   49.0612723
   39.6278665   49.0615572
   39.8952924   49.1149771
   39.8998468   49.1171954
   40.1249611   49.3104255
   40.1282886   49.3162361
   40.1276328   49.3219679
   40.1247089   49.3258108
   39.9805609   49.4415586
   39.9803950   49.4419753
   39.9935302   49.5377003
   39.9933067   49.5415552
   39.9903261   49.5467761
   40.0572825   49.5827504
   40.0608972   49.5860532
   40.0623333   49.5936279
   40.0601786   49.5980246
   40.0542931   49.6014062
   40.0185169   49.6077410
   39.9968822   49.6079501
   39.9757790   49.6029690
   39.9725259   49.6015547
   39.9149309   49.5631251
   39.8891007   49.5531845
   39.8591105   49.5455167
   39.8289079   49.5414992
   39.8017520   49.5421911
   39.7808784   49.5485146
   39.7302709   49.5801190
   39.7279567   49.5811819
   39.6892642   49.5932734
   39.6536214   49.5997620
   39.6227827   49.6136649
   39.5973253   49.6481987
   39.5817758   49.6902237
   39.5713768   49.7113856
   39.5687897   49.7146568
   39.5582652   49.7230941
   39.5543128   49.7242206
   39.4993760   49.7281107
   39.4795837   49.7337426
   39.4462149   49.7483836
   39.4408095   49.7491295
   39.4051830   49.7439915
   39.3674435   49.7319141
   39.3278951   49.7263534
   39.2901415   49.7320242
   39.2611422   49.7444019
   39.2379208   49.7653455
   39.1841267   49.8561916
   39.1804040   49.8598238
   39.1591834   49.8716942
   39.1519863   49.8726952
   39.1191138   49.8648721
   39.1154831   49.8631841
   39.0993883   49.8511722
   39.0685044   49.8212494
   39.0493493   49.8106777
   39.0319055   49.8073340
   38.9376481   49.8034833
   38.9103250   49.8207804
   38.8872203   49.8442796
   38.8852632   49.8458264
   38.8537806   49.8648594
   38.8504557   49.8661293
   38.7480525   49.8853932
   38.6874874   49.9137058
   38.6808460   49.9185108
   38.6755623   49.9272641
   38.6723484   49.9440760
   38.6665034   49.9571643
   38.6628334   49.9603854
   38.6561194   49.9612523
   38.6387277   49.9574197
   38.6285417   49.9532392
   38.6192418   49.9507797
   38.5713554   49.9565019
   38.5690103   49.9565052
   38.4977444   49.9481925
   38.4613673   49.9568466
   38.4385635   49.9669421
   38.4192275   49.9718468
   38.3765417   49.9749171
   38.3562763   49.9805012
   38.3440269   49.9923270
   38.3150811   50.0475815
   38.3123605   50.0508361
   38.3021807   50.0587496
   38.2970600   50.0608028
   38.2800922   50.0622862
   38.2535952   50.0590771
   38.1909575   50.0627202
   38.1798962   50.0611381
   38.1762199   50.0597463
   38.1720329   50.0544051
   38.1648651   50.0326760
   38.1644816   50.0279995
   38.1713088   49.9843070
   38.1662063   49.9408249
   38.1659423   49.9404639
   38.1192618   49.9192735
   38.1081990   49.9207620
   38.0915699   49.9278882
   38.0774567   49.9295635
   38.0656951   49.9268858
   38.0006331   49.8998955
   37.9958425   49.9061480
   37.9954494   49.9178994
   37.9931176   49.9239902
   37.9782859   49.9422620
   37.9470880   49.9775841
   37.9151575   50.0037103
   37.8811312   50.0233008
   37.8422868   50.0392643
   37.7637366   50.0624815
   37.7274907   50.0788596
   37.6325581   50.1733829
   37.6309977   50.1746514
   37.5973326   50.1967946
   37.5902543   50.2040695
   37.5887089   50.2148610
   37.5916662   50.2256209
   37.6006553   50.2468866
   37.6014283   50.2513470
   37.5994584   50.2860346
   37.5979513   50.2907729
   37.5951999   50.2936665
   37.5694468   50.3116503
   37.5666985   50.3129981
   37.4802623   50.3399525
   37.4637159   50.3667167
   37.4504989   50.3983977
   37.4371320   50.4217021
   37.4317370   50.4261523
   37.4172324   50.4311610
   37.4130870   50.4316698
   37.3155867   50.4230436
   37.2867761   50.4156814
   37.2838306   50.4143779
   37.2269480   50.3772435
   37.1968115   50.3623630
   37.0519508   50.3353696
   36.9808024   50.3420810
   36.9149829   50.3391418
   36.9131528   50.3388864
   36.8480170   50.3234647
   36.6834694   50.2609656
   36.6708408   50.2536069
   36.6599479   50.2432104
   36.6445347   50.2224284
   36.6356110   50.2139530
   36.6166701   50.2063725
   36.5941463   50.2044555
   36.5713628   50.2068754
   36.5498221   50.2121106
   36.5348602   50.2198225
   36.5317026   50.2290460
   36.5339878   50.2393353
   36.5360166   50.2601104
   36.5356429   50.2639535
   36.5300070   50.2702722
   36.5203709   50.2742809
   36.5115476   50.2764952
   36.4804244   50.2808261
   36.4539898   50.2929705
   36.4512716   50.2937839
   36.4303263   50.2969710
   36.4107122   50.3043142
   36.3990596   50.3066270
   36.3875051   50.3062198
   36.3799465   50.3034172
   36.3611324   50.2915222
   36.3393225   50.2814254
   36.3161365   50.2749451
   36.2921910   50.2740454
   36.2688604   50.2815510
   36.1710212   50.3819260
   36.1669448   50.3844584
   36.1410007   50.3928712
   36.1349280   50.4073922
   36.1289372   50.4130900
   36.1071790   50.4206441
   36.1044184   50.4211838
   35.9325196   50.4301205
   35.8382007   50.4232845
   35.8204696   50.4193027
   35.8043760   50.4112659
   35.7857900   50.3947124
   35.7746176   50.3870590
   35.7651070   50.3845145
   35.7473938   50.3839903
   35.7361355   50.3803567
   35.7220872   50.3693569
   35.7100985   50.3554730
   35.6966467   50.3450982
   35.6734065   50.3402269
   35.6517685   50.3411799
   35.6312296   50.3450971
   35.6116506   50.3516235
   35.5919717   50.3606390
   35.5703457   50.3763256
   35.5638331   50.3920606
   35.5619537   50.4107186
   35.5552427   50.4314413
   35.5534445   50.4347223
   35.5420949   50.4484862
   35.5390131   50.4509860
   35.5214739   50.4597933
   35.5014022   50.4643754
   35.4797838   50.4669914
   35.4466839   50.4759774
   35.4251544   50.5007495
   35.3777928   50.6216250
   35.3763535   50.6347285
   35.3917896   50.6464314
   35.4503890   50.6632355
   35.4553046   50.6664342
   35.4576324   50.6728292
   35.4568627   50.6766955
   35.4539192   50.6806248
   35.4453929   50.6877563
   35.4437932   50.7097210
   35.4467787   50.7321608
   35.4464292   50.7364030
   35.4391619   50.7601765
   35.4369171   50.7640680
   35.4282058   50.7728679
   35.4173621   50.7792438
   35.3933513   50.7882854
   35.3792601   50.7970852
   35.3774461   50.8077581
   35.3793762   50.8179776
   35.3780499   50.8313385
   35.3763143   50.8357316
   35.3681138   50.8468421
   35.3487343   50.8636285
   35.3414241   50.8767036
   35.3404214   50.8916019
   35.3428243   50.9056955
   35.3414247   50.9151938
   35.3394011   50.9183233
   35.3305604   50.9275988
   35.3272465   50.9298970
   35.3158590   50.9343920
   35.2938390   50.9375785
   35.2849902   50.9441891
   35.2822180   50.9544673
   35.2822180   50.9797400
   35.2783310   50.9926840
   35.3305507   50.9996694
   35.3342910   51.0009594
   35.3440916   51.0067184
   35.3475604   51.0101292
   35.3523628   51.0199636
   35.3527059   51.0278630
   35.3475541   51.0350703
   35.3437343   51.0375749
   35.3277199   51.0433119
   35.3078502   51.0473603
   35.2733305   51.0486617
   35.2067010   51.0389621
   35.1723471   51.0407640
   35.1434993   51.0586901
   35.1237172   51.0915540
   35.0994853   51.1820419
   35.0923062   51.1958663
   35.0897082   51.1989526
   35.0804276   51.2062746
   35.0765976   51.2081404
   35.0610732   51.2119173
   35.0576652   51.2121460
   35.0379015   51.2099272
   35.0189497   51.2046000
   34.9992131   51.2021852
   34.9806407   51.2094137
   34.9636048   51.2147678
   34.9599621   51.2152024
   34.9447022   51.2137495
   34.8993469   51.1963944
   34.8178241   51.1748072
   34.7478611   51.1647422
   34.6751465   51.1676698
   34.6577137   51.1715979
   34.6429669   51.1805061
   34.6332871   51.1954150
   34.6286936   51.2104544
   34.6236044   51.2220803
   34.6199663   51.2263661
   34.6104599   51.2326221
   34.6058495   51.2342293
   34.5771878   51.2365838
   34.5137527   51.2295912
   34.4804157   51.2369750
   34.4095892   51.2529905
   34.3730950   51.2567158
   34.3704818   51.2566336
   34.3385358   51.2513955
   34.3355307   51.2503945
   34.2997567   51.2317425
   34.2815051   51.2264686
   34.2575677   51.2296472
   34.1861925   51.2488498
   34.1861806   51.2490123
   34.2430584   51.2737005
   34.2447237   51.2746207
   34.2822668   51.3003090
   34.2846109   51.3025502
   34.3058562   51.3307907
   34.3077551   51.3353233
   34.3075573   51.3392644
   34.3028700   51.3577172
   34.2991146   51.3633022
   34.2936502   51.3652441
   34.2800302   51.3612581
   34.2640696   51.3612499
   34.2470626   51.3635003
   34.2308504   51.3675786
   34.2155597   51.3738613
   34.1961492   51.3855217
   34.1860537   51.3939803
   34.1820267   51.4021258
   34.1872438   51.4083470
   34.2065181   51.4111338
   34.2147423   51.4155606
   34.2176900   51.4197649
   34.2191212   51.4288606
   34.2168116   51.4366360
   34.2132113   51.4450691
   34.2121744   51.4552671
   34.2150899   51.4648522
   34.2232063   51.4812051
   34.2257920   51.4944185
   34.2238574   51.5130373
   34.2229271   51.5163292
   34.2143996   51.5330965
   34.2015366   51.5467629
   34.1605270   51.5759837
   34.1531728   51.5837829
   34.1487959   51.5934699
   34.1448559   51.6121372
   34.1417658   51.6183548
   34.1370105   51.6224548
   34.1249294   51.6271946
   34.0908895   51.6331663
   34.0795908   51.6433216
   34.0893580   51.6667041
   34.1282212   51.6807850
   34.2979993   51.7061178
   34.3560693   51.7055614
   34.3739174   51.7082234
   34.3782965   51.7100501
   34.4099075   51.7333269
   34.4125157   51.7361727
   34.4139719   51.7417300
   34.4128106   51.7748270
   34.4111058   51.7800701
   34.3869231   51.8159045
   34.3839339   51.8187907
   34.3712553   51.8270049
   34.3828453   51.8415620
END
!2
   41.7628852   51.0286964
   41.7672940   51.0308353
   41.7779298   51.0397797
   41.7812796   51.0453760
   41.7821238   51.0551224
   41.7781763   51.0605757
   41.7736247   51.0622665
   41.7679216   51.0612063
   41.7648762   51.0587724
   41.7532116   51.0449337
   41.7513172   51.0414851
   41.7510391   51.0365927
   41.7525306   51.0329517
   41.7561610   51.0296604
   41.7628852   51.0286964
END
!3
   41.4016215   50.2489008
   41.4093540   50.2485437
   41.4151471   50.2521923
   41.4245774   50.2630585
   41.4269349   50.2682741
   41.4244336   50.2763294
   41.4195366   50.2792923
   41.4156979   50.2795245
   41.4097798   50.2765056
   41.3969634   50.2623942
   41.3961835   50.2556236
   41.3978356   50.2520379
   41.4016215   50.2489008
END
!4
   41.4000852   50.8476793
   41.4066876   50.8488570
   41.4101842   50.8521986
   41.4117295   50.8577667
   41.4113536   50.8745472
   41.4094838   50.8801492
   41.4028458   50.8842117
   41.3979265   50.8837168
   41.3908636   50.8785621
   41.3826604   50.8685257
   41.3794228   50.8619509
   41.3792351   50.8580018
   41.3817933   50.8527059
   41.3850034   50.8503980
   41.4000852   50.8476793
END
!5
   41.3547221   50.1125187
   41.3543739   50.1067874
   41.3588387   50.0993326
   41.3642824   50.0972872
   41.3715373   50.0997639
   41.3745939   50.1047111
   41.3739739   50.1122998
   41.3707209   50.1165747
   41.3664576   50.1187926
   41.3589725   50.1176519
   41.3547221   50.1125187
END
END
