asia-japan-central
1
   135.1793520   32.9167467
   135.1791647   32.9164559
   134.9469133   32.8630862
   134.9395824   32.8934881
   134.9280783   32.9379928
   134.9220156   32.9599215
   134.8822086   33.0977476
   134.8927265   33.1704608
   134.9109081   33.2747450
   134.9150396   33.2905400
   134.9243059   33.3448769
   134.9330716   33.3784256
   134.9438424   33.4163515
   134.9519451   33.4448828
   134.9577808   33.4979750
   134.9017912   33.8796536
   134.8841810   33.9608537
   134.8864098   33.9828379
   134.8823469   34.0205326
   134.8741175   34.0235771
   134.8117392   34.0496671
   134.7926392   34.0563522
   134.7737203   34.0616568
   134.7524513   34.0659239
   134.7461190   34.0686312
   134.7137553   34.0850867
   134.7110950   34.0880605
   134.6991516   34.1153809
   134.6912306   34.1417357
   134.6860283   34.1803158
   134.6687065   34.2051295
   134.6700898   34.2166659
   134.6681894   34.2347753
   134.6609248   34.2492275
   134.6431364   34.2625252
   134.6332557   34.2664577
   134.6311644   34.2708536
   134.5674072   34.3562250
   134.5298469   34.3997275
   134.5239942   34.4058890
   134.5365254   34.4320930
   134.5448645   34.4476459
   134.5901487   34.5232350
   134.5955779   34.5446520
   134.5715503   34.5631376
   134.5654963   34.5666950
   134.5220055   34.5988072
   134.4124910   34.6342887
   134.3991909   34.6791175
   134.3903519   34.6984339
   134.3839370   34.7072622
   134.3759381   34.7116334
   134.3535510   34.7080235
   134.3530870   34.7109014
   134.3383156   34.7208581
   134.3329104   34.7224399
   134.3283310   34.7213259
   134.3233970   34.7171942
   134.3199114   34.7184583
   134.3186219   34.7314809
   134.3119096   34.7385379
   134.3155502   34.7467657
   134.3171587   34.7563147
   134.3228280   34.7657481
   134.3215371   34.7725066
   134.3146148   34.7806320
   134.3162792   34.7862388
   134.3141468   34.7966113
   134.3061910   34.8076527
   134.3025688   34.8110886
   134.2977042   34.8124104
   134.2872775   34.8205413
   134.2852076   34.8233061
   134.2802599   34.8259943
   134.2668462   34.8244418
   134.2632717   34.8257172
   134.2605339   34.8306486
   134.2612673   34.8407873
   134.2597276   34.8442006
   134.2517899   34.8510776
   134.2527221   34.8570391
   134.2575850   34.8659370
   134.2579112   34.8709546
   134.2616936   34.8784392
   134.2620094   34.8852515
   134.2677738   34.8883269
   134.2750191   34.8949643
   134.2838675   34.8987311
   134.2864531   34.9015726
   134.2878957   34.9071055
   134.2870267   34.9108477
   134.2826048   34.9174336
   134.2736117   34.9238663
   134.2731461   34.9269573
   134.2690035   34.9323656
   134.2653256   34.9337962
   134.2586024   34.9328237
   134.2529084   34.9376375
   134.2533679   34.9468061
   134.2592067   34.9532586
   134.2651848   34.9564542
   134.2716517   34.9631765
   134.2730672   34.9696742
   134.2717733   34.9755405
   134.2684130   34.9792739
   134.2697589   34.9842141
   134.2744546   34.9926166
   134.2741053   34.9965570
   134.2708500   35.0014593
   134.2641276   35.0048847
   134.2622703   35.0109024
   134.2632518   35.0170107
   134.2672474   35.0228738
   134.2735986   35.0261312
   134.2767655   35.0299479
   134.2804975   35.0378335
   134.2902252   35.0394966
   134.2969039   35.0443073
   134.3025964   35.0444181
   134.3100707   35.0490659
   134.3128366   35.0552246
   134.3134473   35.0613855
   134.3185625   35.0692360
   134.3192653   35.0742469
   134.3183388   35.0842816
   134.3306550   35.0879765
   134.3367034   35.0924773
   134.3408992   35.0916441
   134.3465584   35.0932163
   134.3512744   35.0988644
   134.3521421   35.1035077
   134.3516132   35.1135858
   134.3551649   35.1192786
   134.3551134   35.1250972
   134.3581277   35.1286965
   134.3614445   35.1407929
   134.3664944   35.1477180
   134.3742026   35.1519883
   134.3832214   35.1537366
   134.3950314   35.1535549
   134.3988825   35.1542623
   134.4043807   35.1596239
   134.4049158   35.1659146
   134.4084297   35.1729431
   134.4090337   35.1778340
   134.4066073   35.1831973
   134.3989034   35.1866101
   134.3933441   35.1903018
   134.3821479   35.1937748
   134.3786472   35.2102382
   134.3815418   35.2222763
   134.3923602   35.2278419
   134.3965090   35.2316804
   134.4030502   35.2421820
   134.4232602   35.2383060
   134.4283824   35.2340055
   134.4323969   35.2326596
   134.4395193   35.2344919
   134.4438471   35.2380610
   134.4532172   35.2392385
   134.4584795   35.2415689
   134.4611103   35.2450699
   134.4756144   35.2515238
   134.4793710   35.2544235
   134.4822987   35.2605310
   134.4856206   35.2636869
   134.4992527   35.2690568
   134.5065131   35.2735498
   134.5105801   35.2789009
   134.5106575   35.2846917
   134.5080435   35.2941497
   134.5098007   35.3034305
   134.5086866   35.3102014
   134.5023479   35.3180177
   134.5006528   35.3265468
   134.5033397   35.3375823
   134.5075355   35.3436023
   134.5086653   35.3494231
   134.5078954   35.3531253
   134.5010605   35.3626737
   134.4978306   35.3650331
   134.4885023   35.3667982
   134.4825237   35.3709754
   134.4742431   35.3737099
   134.4715409   35.3773014
   134.4703788   35.3821821
   134.4776289   35.4035368
   134.4778613   35.4091765
   134.4754120   35.4141723
   134.4758668   35.4206428
   134.4739603   35.4261477
   134.4650033   35.4333733
   134.4612589   35.4349855
   134.4520905   35.4353061
   134.4459660   35.4395771
   134.4389614   35.4424906
   134.4366086   35.4577574
   134.4325666   35.4661664
   134.4343570   35.4727910
   134.4337945   35.4795657
   134.4263049   35.4959111
   134.4267371   35.5016748
   134.4249945   35.5062183
   134.4195094   35.5110574
   134.4116127   35.5142482
   134.4122392   35.5186708
   134.4173332   35.5260964
   134.4209322   35.5399930
   134.4197132   35.5447803
   134.4216797   35.5530387
   134.4199554   35.5575894
   134.4144590   35.5615025
   134.4095048   35.5616935
   134.4039040   35.5702781
   134.4056263   35.5789346
   134.4046923   35.5870469
   134.4026826   35.5910571
   134.3982638   35.5946584
   134.3927270   35.5969654
   134.3858722   35.6016536
   134.3812024   35.6021103
   134.3723302   35.6069058
   134.3669156   35.6013384
   134.3495942   35.6181838
   134.3355261   35.6468659
   134.3255358   35.6646861
   134.2989482   35.7284475
   134.2691617   35.8142176
   134.1192848   36.3038512
   134.1264614   36.3148918
   135.3910648   36.4581733
   135.3914418   36.4580104
   135.5690513   36.2204999
   135.5729693   36.2173635
   135.5769041   36.2164898
   135.5817813   36.2176734
   135.9763113   36.4289889
   136.0697933   36.4600571
   136.0732143   36.4620102
   136.1335981   36.5145764
   136.2144882   36.5539175
   136.2174862   36.5561532
   136.4318943   36.7900592
   136.4329785   36.7914780
   136.4876766   36.8781186
   136.4892170   36.8837298
   136.4871617   36.9590283
   136.4860707   36.9633048
   136.4127077   37.1069092
   136.4126002   37.1073567
   136.4126997   37.2026534
   136.4127904   37.2031914
   136.6553236   37.9047790
   136.6896830   37.9647267
   136.7698855   38.0290280
   136.7703587   38.0292932
   136.8617747   38.0621744
   138.0135144   38.2063336
   138.0203476   38.2103576
   138.1176683   38.3435897
   138.1883254   38.3902594
   138.1897674   38.3914144
   138.2789521   38.4775172
   138.3588503   38.5233544
   139.0306605   38.6692952
   139.0362482   38.6726997
   139.0377302   38.6751307
   139.0596310   38.7262714
   138.9327225   38.7939513
   138.9325072   38.7943221
   138.9349915   38.8814317
   138.9411747   38.8548169
   138.9476047   38.8250774
   139.0877502   38.7501940
   139.3159096   38.6338942
   139.4697380   38.5629195
   139.5454111   38.5384800
   139.5497097   38.5469585
   139.5532308   38.5461666
   139.5597724   38.5419350
   139.5650087   38.5407400
   139.5704035   38.5373709
   139.5758809   38.5364330
   139.5808081   38.5320106
   139.5911551   38.5276164
   139.5994305   38.5209528
   139.6159674   38.5240239
   139.6196857   38.5240114
   139.6272240   38.5212108
   139.6316025   38.5178288
   139.6368590   38.5106622
   139.6474497   38.5083983
   139.6524395   38.5059510
   139.6648575   38.5066629
   139.6802326   38.5037506
   139.6885865   38.5048336
   139.6972544   38.5024490
   139.7018065   38.4981312
   139.7107057   38.4957177
   139.7133769   38.4928121
   139.7145139   38.4851577
   139.7102303   38.4763796
   139.7107733   38.4717194
   139.7133443   38.4672347
   139.7141137   38.4585298
   139.7165633   38.4530372
   139.7170326   38.4484711
   139.7152286   38.4345799
   139.7162906   38.4288383
   139.7154076   38.4243159
   139.7112695   38.4151797
   139.7042367   38.4075702
   139.7021650   38.4000459
   139.7037479   38.3929150
   139.7084511   38.3863964
   139.7205444   38.3867618
   139.7246699   38.3842191
   139.7275137   38.3768835
   139.7316082   38.3706074
   139.7495892   38.3582943
   139.7567117   38.3589461
   139.7626201   38.3578039
   139.7703398   38.3517631
   139.7841799   38.3509804
   139.7904278   38.3475587
   139.8021874   38.3526516
   139.8120520   38.3538523
   139.8171307   38.3528156
   139.8223921   38.3495202
   139.8270072   38.3436205
   139.8394418   38.3420506
   139.8437325   38.3399284
   139.8468082   38.3356779
   139.8580030   38.3292305
   139.8660611   38.3206926
   139.8724774   38.3159275
   139.8786299   38.3024911
   139.8903231   38.2974594
   139.8954914   38.2934773
   139.8977321   38.2868318
   139.8955641   38.2762030
   139.8921527   38.2727228
   139.8757155   38.2626619
   139.8739816   38.2557175
   139.8716474   38.2517878
   139.8674110   38.2484046
   139.8628099   38.2372650
   139.8554405   38.2299175
   139.8466887   38.2261479
   139.8377480   38.2245209
   139.8188595   38.2148429
   139.8098108   38.2122894
   139.7896623   38.1983765
   139.7831181   38.1966426
   139.7757389   38.1995063
   139.7642821   38.2002224
   139.7562389   38.1966319
   139.7495239   38.1976443
   139.7392062   38.2032284
   139.7307732   38.2029859
   139.7221268   38.2069737
   139.7123327   38.2077335
   139.6985116   38.2042812
   139.6986082   38.1985909
   139.6951712   38.1892414
   139.6928349   38.1859013
   139.6867093   38.1830505
   139.6843748   38.1760569
   139.6813119   38.1725055
   139.6835114   38.1593740
   139.6875821   38.1550510
   139.6899628   38.1474061
   139.6871354   38.1345701
   139.6891547   38.1208877
   139.6889866   38.1170977
   139.6854536   38.1115751
   139.6811785   38.1080721
   139.6717106   38.0903173
   139.6701125   38.0770136
   139.6713066   38.0755327
   139.6775567   38.0749160
   139.6831779   38.0709278
   139.6863595   38.0609774
   139.6863468   38.0570688
   139.6835841   38.0519512
   139.6809100   38.0500510
   139.6772337   38.0442583
   139.6729709   38.0422884
   139.6618340   38.0411137
   139.6537127   38.0360044
   139.6544167   38.0307031
   139.6510991   38.0215178
   139.6525828   38.0128487
   139.6514316   38.0027102
   139.6487919   37.9988171
   139.6428109   37.9961897
   139.6408171   37.9890963
   139.6380136   37.9856978
   139.6399046   37.9804084
   139.6392818   37.9746764
   139.6367146   37.9698315
   139.6398220   37.9658154
   139.6409635   37.9598720
   139.6388142   37.9527406
   139.6399675   37.9488693
   139.6374250   37.9375104
   139.6262248   37.9254584
   139.6236119   37.9177212
   139.6253129   37.9137710
   139.6251132   37.9085919
   139.6289004   37.8999300
   139.6282030   37.8937872
   139.6306332   37.8888578
   139.6378653   37.8789643
   139.6488128   37.8750336
   139.6526821   37.8717693
   139.6565167   37.8624236
   139.6734309   37.8533367
   139.6811548   37.8456130
   139.6979294   37.8464662
   139.7044357   37.8495536
   139.7118767   37.8488817
   139.7159822   37.8449794
   139.7195535   37.8389062
   139.7298128   37.8286699
   139.7321166   37.8242782
   139.7322443   37.8202978
   139.7280369   37.8137236
   139.7208441   37.8103319
   139.7152835   37.8032653
   139.7116226   37.8003729
   139.7040544   37.7967552
   139.6944591   37.7855923
   139.6798035   37.7766738
   139.6745639   37.7695295
   139.6573046   37.7561382
   139.6565797   37.7453629
   139.6545951   37.7421433
   139.6389153   37.7245028
   139.6309101   37.7207899
   139.6290828   37.7159628
   139.6229348   37.7105055
   139.6202144   37.7006713
   139.6201543   37.6954471
   139.6164280   37.6900725
   139.6083044   37.6848159
   139.6034128   37.6799949
   139.6018828   37.6740166
   139.5989128   37.6704365
   139.5933767   37.6680756
   139.5887041   37.6685777
   139.5831232   37.6631092
   139.5721109   37.6571578
   139.5482152   37.6496023
   139.5501014   37.6418445
   139.5464128   37.6344227
   139.5448799   37.6290651
   139.5477143   37.6203730
   139.5474541   37.6089662
   139.5532540   37.6016736
   139.5611468   37.5970893
   139.5632161   37.5918258
   139.5629138   37.5881923
   139.5681910   37.5790189
   139.5694514   37.5752666
   139.5692141   37.5680410
   139.5663278   37.5626838
   139.5673043   37.5528719
   139.5646148   37.5456237
   139.5691114   37.5384473
   139.5731270   37.5354014
   139.5830291   37.5231794
   139.5834044   37.5183639
   139.5808484   37.5131900
   139.5675949   37.5052145
   139.5608826   37.5052905
   139.5481079   37.5100058
   139.5434948   37.5132376
   139.5304048   37.5138461
   139.5235197   37.5157560
   139.5191052   37.5148298
   139.5134440   37.5115892
   139.5095274   37.5115299
   139.4975486   37.5137343
   139.4849076   37.5112682
   139.4789900   37.5067060
   139.4732014   37.5066837
   139.4659427   37.5107883
   139.4577695   37.5188919
   139.4495091   37.5183525
   139.4378891   37.5150139
   139.4290034   37.5159380
   139.4253433   37.5133747
   139.4140347   37.5113612
   139.4101289   37.5058040
   139.4101772   37.4997117
   139.4070100   37.4934358
   139.4057113   37.4866705
   139.4063899   37.4827755
   139.4034107   37.4753765
   139.4013838   37.4666525
   139.3976015   37.4635114
   139.3917914   37.4626534
   139.3843759   37.4650681
   139.3730046   37.4659984
   139.3625310   37.4710388
   139.3558792   37.4688807
   139.3510051   37.4691175
   139.3438972   37.4616659
   139.3353819   37.4595799
   139.3303940   37.4607072
   139.3264969   37.4636184
   139.3049720   37.4601032
   139.2513539   37.4538041
   139.2230386   37.4502103
   139.2141583   37.4427297
   139.2066291   37.4299589
   139.2050830   37.4202501
   139.2029891   37.4167399
   139.1963968   37.4117609
   139.2035059   37.4038875
   139.2063201   37.3962129
   139.2096414   37.3924814
   139.2149956   37.3900720
   139.2219054   37.3899428
   139.2285070   37.3855647
   139.2307376   37.3793032
   139.2343307   37.3740760
   139.2352889   37.3685887
   139.2323629   37.3584450
   139.2312178   37.3486629
   139.2291018   37.3455906
   139.2168757   37.3347593
   139.2204028   37.3227955
   139.2204190   37.3168617
   139.2145131   37.3093965
   139.2152128   37.3023112
   139.2129991   37.2928148
   139.2107121   37.2884165
   139.2045225   37.2845529
   139.1741047   37.2576312
   139.1691887   37.2508451
   139.1635952   37.2375366
   139.1655532   37.2307832
   139.1729224   37.2227633
   139.1827720   37.2151608
   139.1861809   37.2089106
   139.1933348   37.2020717
   139.1962534   37.1929633
   139.2056510   37.1930867
   139.2134708   37.1983316
   139.2210195   37.1992653
   139.2252313   37.1969043
   139.2389121   37.1840381
   139.2416133   37.1797128
   139.2420021   37.1700995
   139.2487498   37.1615420
   139.2492433   37.1565521
   139.2478808   37.1509203
   139.2444727   37.1453089
   139.2427109   37.1310637
   139.2409300   37.1264874
   139.2360440   37.1194773
   139.2338658   37.1104330
   139.2346758   37.1014803
   139.2374878   37.0955749
   139.2375137   37.0895738
   139.2435629   37.0827713
   139.2458484   37.0783426
   139.2458542   37.0703840
   139.2516880   37.0625917
   139.2556658   37.0519198
   139.2561010   37.0480446
   139.2545287   37.0434494
   139.2518111   37.0406535
   139.2502983   37.0346056
   139.2476115   37.0316731
   139.2464859   37.0240048
   139.2422297   37.0147977
   139.2490139   37.0042178
   139.2521086   36.9927288
   139.2519618   36.9879822
   139.2496419   36.9838386
   139.2459153   36.9808862
   139.2474277   36.9762438
   139.2456733   36.9691131
   139.2405754   36.9645014
   139.2346715   36.9640056
   139.2312508   36.9652759
   139.2089734   36.9622264
   139.2052623   36.9624153
   139.1900318   36.9661058
   139.1854869   36.9685863
   139.1826073   36.9732544
   139.1822669   36.9773452
   139.1839501   36.9923047
   139.1752713   37.0045213
   139.1553389   37.0142193
   139.1517587   37.0171522
   139.1262619   37.0506274
   139.0958314   37.0631261
   139.0858746   37.0474698
   139.0831351   37.0237614
   139.0787085   37.0165624
   139.0458104   36.9948564
   139.0402924   36.9932032
   139.0156264   36.9932298
   139.0021090   36.9867817
   138.9974459   36.9857832
   138.9716600   36.9865522
   138.9624710   36.9815718
   138.9587627   36.9503477
   138.9695010   36.9105864
   138.9697577   36.9066467
   138.9673002   36.9013123
   138.9632219   36.8985659
   138.9593156   36.8979933
   138.9342390   36.8993273
   138.9195396   36.8866471
   138.9110128   36.8508715
   138.9132886   36.8445018
   138.9123826   36.8396695
   138.9084583   36.8352999
   138.9047395   36.8339749
   138.8798710   36.8303792
   138.8577152   36.8191654
   138.8521780   36.8181206
   138.8189393   36.8214262
   138.8235729   36.7906681
   138.8229960   36.7854294
   138.8176786   36.7725374
   138.8120474   36.7684003
   138.7939388   36.7632578
   138.7881017   36.7565234
   138.7842456   36.7537052
   138.7776303   36.7533582
   138.7254415   36.7686592
   138.7080510   36.7460915
   138.7021532   36.7423471
   138.6214311   36.7252390
   138.6148146   36.7189288
   138.6105015   36.7164370
   138.6065114   36.7161540
   138.5961064   36.7193225
   138.5863018   36.7123564
   138.5809567   36.7105184
   138.5434475   36.7088411
   138.5119149   36.6940614
   138.5137710   36.6744436
   138.5170474   36.6687316
   138.5179458   36.6630509
   138.5148921   36.6571150
   138.5116196   36.6550591
   138.4948191   36.6486114
   138.4914662   36.6479501
   138.4695410   36.6474455
   138.4548062   36.6374915
   138.4506403   36.6229944
   138.4461241   36.6170657
   138.4389408   36.6146761
   138.4229551   36.5982197
   138.4154742   36.5763696
   138.4196346   36.5635017
   138.4200244   36.5587351
   138.4175408   36.5535886
   138.4070365   36.5419190
   138.3923179   36.4903661
   138.3969807   36.4319918
   138.3972298   36.4316721
   138.4460836   36.4151140
   138.4512907   36.4110426
   138.4586412   36.3999296
   138.4889534   36.3961111
   138.4979769   36.4045755
   138.5021999   36.4070098
   138.5080221   36.4069007
   138.5369561   36.3974992
   138.5583325   36.4121487
   138.5626755   36.4138497
   138.5935269   36.4181322
   138.5976145   36.4178522
   138.6362912   36.4069517
   138.6410265   36.4039995
   138.6434426   36.3989694
   138.6486290   36.3662608
   138.6451504   36.3104705
   138.6429598   36.3048226
   138.6398122   36.3022357
   138.5957129   36.2791216
   138.5977506   36.2467195
   138.6207621   36.2130320
   138.6222869   36.2094675
   138.6218058   36.2037184
   138.6179770   36.1970555
   138.6212329   36.1871425
   138.6210324   36.1803467
   138.6188921   36.1770409
   138.6147116   36.1744762
   138.6067349   36.1721993
   138.6027455   36.1726044
   138.5978432   36.1760006
   138.5925676   36.1825065
   138.5835547   36.1836915
   138.5725477   36.1674817
   138.5978657   36.1317694
   138.6270968   36.1253402
   138.6330099   36.1215492
   138.6372853   36.1106692
   138.6376880   36.1056581
   138.6362009   36.1019044
   138.6257294   36.0859373
   138.6350777   36.0703365
   138.6365173   36.0660278
   138.6374980   36.0555485
   138.6369900   36.0513417
   138.6279323   36.0244432
   138.6710803   36.0064539
   138.6754703   36.0028926
   138.6858525   35.9878044
   138.6997736   35.9826613
   138.7051636   35.9780705
   138.7098492   35.9637745
   138.7279373   35.9412912
   138.7301177   35.9357724
   138.7292479   35.9308812
   138.7232775   35.9173656
   138.7288425   35.9019113
   138.7741014   35.8946926
   138.7822430   35.8900811
   138.7860929   35.8841173
   138.7889185   35.8717780
   138.8126531   35.8576065
   138.8462852   35.8597971
   138.8520771   35.8583950
   138.8907814   35.8351911
   138.9104749   35.8451798
   138.9156289   35.8462916
   138.9375233   35.8451008
   138.9441188   35.8421185
   138.9618433   35.8240507
   138.9643035   35.8198522
   138.9804662   35.7649018
   139.0207450   35.7168848
   139.0685650   35.6914644
   139.1010042   35.6858829
   139.1054940   35.6839005
   139.1143676   35.6769607
   139.1173463   35.6731425
   139.1178532   35.6664468
   139.1122705   35.6544273
   139.1247692   35.6095973
   139.1240923   35.6024625
   139.1166039   35.5873892
   139.1208740   35.5723228
   139.1207978   35.5664276
   139.1181698   35.5622499
   139.1076231   35.5520649
   139.1021129   35.5352254
   139.0984585   35.5302248
   139.0826519   35.5188242
   139.0776331   35.5169693
   139.0439526   35.5141611
   139.0229229   35.4882680
   139.0172293   35.4847533
   138.9874384   35.4782757
   138.9352427   35.4534753
   138.9229564   35.4389866
   138.9236666   35.4281911
   138.9213754   35.4209671
   138.9122530   35.4100432
   138.9118065   35.3991754
   138.9192258   35.3953170
   138.9727267   35.3993490
   138.9884610   35.3962987
   138.9929037   35.3940422
   138.9959988   35.3889587
   139.0105698   35.3306140
   139.0102929   35.3248494
   139.0012293   35.2992850
   138.9993682   35.2960855
   138.9702553   35.2624195
   138.9714762   35.2340469
   138.9839899   35.1978506
   139.0166041   35.1756294
   139.0206480   35.1698957
   139.0272475   35.1455805
   139.1063276   35.1361438
   139.1088974   35.1354788
   139.1037911   35.1291234
   139.1328395   35.1057860
   139.1347237   35.1020592
   139.1376028   35.0895770
   139.2235480   35.0381710
   139.3429115   35.0191181
   139.3459834   35.0187397
   139.3329676   34.9998974
   139.3202408   34.9798728
   139.3089045   34.9602622
   139.2629077   34.8714907
   139.2558341   34.8549469
   139.2357094   34.7957752
   139.2275715   34.7769491
   139.2177344   34.7582320
   139.2061966   34.7396234
   139.2004537   34.7315990
   139.1973492   34.7218227
   139.1926522   34.7032696
   139.1808475   34.6420566
   139.1828506   34.6318527
   139.1889832   34.5890957
   139.1703379   34.5643923
   139.1604239   34.5522740
   139.1501069   34.5406394
   139.0478081   34.4342299
   139.0200819   34.4076756
   138.9923556   34.3820837
   138.9848877   34.3706683
   138.7369561   33.9631173
   138.5358752   33.8650364
   138.3502288   33.6559084
   138.4963311   34.1660096
   138.4966204   34.1663681
   138.8661876   34.3643244
   138.2122047   34.3816746
   138.2118028   34.3817351
   137.9513535   34.4544347
   137.9473884   34.4547211
   137.7922350   34.4347503
   137.7917659   34.4347569
   137.6684859   34.4541864
   137.6620987   34.4530643
   137.4729726   34.3487290
   137.4694300   34.3454405
   137.4682505   34.3370151
   137.4731020   34.3311468
   137.6570867   34.2331536
   137.6570911   34.2329186
   135.6706078   33.0791007
   135.6701821   33.0790812
   135.0919234   33.3475912
   135.1793520   32.9167467
END
END
