asia-indonesia-java
1
   104.1396409   -6.5117449
   105.1787710   -6.2566572
   105.1790016   -6.2566120
   105.1792355   -6.2565887
   105.5676686   -6.2363342
   105.5686226   -6.2362384
   105.5695631   -6.2360517
   105.5704814   -6.2357758
   105.5713690   -6.2354132
   105.5722178   -6.2349673
   105.5730201   -6.2344421
   105.5737683   -6.2338425
   105.5744556   -6.2331739
   105.7311093   -6.0654678
   105.7317143   -6.0647562
   105.7322503   -6.0639912
   105.7327126   -6.0631796
   105.7330971   -6.0623284
   105.7927204   -5.9119997
   105.7928083   -5.9118032
   105.7929284   -5.9116254
   106.3227615   -5.1950783
   106.3229071   -5.1948994
   106.3231078   -5.1947859
   106.8418850   -4.9323072
   106.8421178   -4.9321968
   109.0555821   -3.9520315
   109.0557999   -3.9519472
   109.0560155   -3.9520367
   110.2848537   -4.5319776
   110.2857639   -4.5323536
   110.2867068   -4.5326382
   110.2876730   -4.5328287
   113.9480114   -5.0687316
   113.9490948   -5.0688304
   113.9501825   -5.0688109
   113.9512617   -5.0686734
   113.9523196   -5.0684195
   114.5734619   -4.8830631
   114.5737005   -4.8830046
   114.5739432   -4.8830430
   116.5811669   -5.3042451
   116.5813885   -5.3043027
   116.5813845   -5.3045317
   116.4304157   -7.6236421
   116.4303895   -7.6238723
   116.4301579   -7.6238731
   114.9846214   -7.5587432
   114.9835802   -7.5587506
   114.9825455   -7.5588661
   114.9815283   -7.5590887
   114.9805398   -7.5594158
   114.9795907   -7.5598439
   114.9786912   -7.5603684
   114.9778511   -7.5609836
   114.9770796   -7.5616828
   114.5089834   -8.0325296
   114.5085985   -8.0328784
   114.4366088   -8.0916095
   114.4358713   -8.0922748
   114.4352035   -8.0930100
   114.4346119   -8.0938077
   114.4341024   -8.0946603
   114.4336799   -8.0955591
   114.4333487   -8.0964955
   114.4331120   -8.0974601
   114.4204621   -8.1628991
   114.4203298   -8.1638040
   114.4202807   -8.1647173
   114.4203152   -8.1656312
   114.4292725   -8.2726489
   114.4294176   -8.2737036
   114.4296741   -8.2747369
   114.4300389   -8.2757370
   114.4305080   -8.2766927
   114.4310761   -8.2775931
   114.5470076   -8.4413415
   114.5476914   -8.4422027
   114.5484656   -8.4429837
   114.5493209   -8.4436748
   114.5502470   -8.4442679
   114.8206870   -8.5971925
   114.8208905   -8.5973212
   114.8209887   -8.5975411
   114.9718221   -8.9852588
   114.9718911   -8.9854616
   114.9719243   -8.9856725
   115.0350725   -9.5409128
   115.0350872   -9.5411415
   115.0348597   -9.5411143
   105.4580288   -7.9178208
   105.4578051   -7.9177721
   105.4576413   -7.9176127
   104.1395697   -6.5119850
   104.1394216   -6.5118104
   104.1396409   -6.5117449
END
END
