asia-japan-east
1
   134.5757689   20.4777705
   138.4963311   34.1660096
   138.4964104   34.1662416
   138.4966204   34.1663681
   139.0785358   34.4780673
   139.0793797   34.4785743
   139.0801697   34.4791618
   139.0808980   34.4798241
   139.0815577   34.4805549
   139.0821423   34.4813469
   139.0826462   34.4821926
   139.0830646   34.4830838
   139.0833932   34.4840117
   139.1935692   34.8516614
   139.1938074   34.8526292
   139.1939480   34.8536160
   139.1939898   34.8546118
   139.1939322   34.8556068
   139.1937758   34.8565912
   139.1458668   35.0842720
   139.1456541   35.0851040
   139.1453707   35.0859147
   139.1450188   35.0866981
   139.1252684   35.1260553
   139.1247666   35.1269400
   139.1241775   35.1277691
   139.1235073   35.1285340
   139.1227629   35.1292270
   139.1219519   35.1298407
   139.1210827   35.1303689
   139.1201644   35.1308061
   139.1089765   35.1354501
   139.1081160   35.1357620
   139.1072306   35.1359938
   139.1063276   35.1361438
   139.0272475   35.1455805
   139.0270096   35.1456210
   139.0269369   35.1458511
   139.0206480   35.1698957
   139.0203386   35.1708715
   139.0199311   35.1718105
   139.0194297   35.1727030
   139.0188397   35.1735395
   139.0181672   35.1743114
   139.0174194   35.1750104
   139.0166041   35.1756294
   138.9839899   35.1978506
   138.9838086   35.1979868
   138.9837257   35.1981975
   138.9714762   35.2340469
   138.9714110   35.2342721
   138.9713891   35.2345055
   138.9701110   35.2620029
   138.9701113   35.2622361
   138.9702553   35.2624195
   138.9993682   35.2960855
   138.9999433   35.2968168
   139.0004481   35.2975984
   139.0008779   35.2984235
   139.0012293   35.2992850
   139.0102929   35.3248494
   139.0105736   35.3257835
   139.0107620   35.3267405
   139.0108562   35.3277113
   139.0108554   35.3286867
   139.0107597   35.3296573
   139.0105698   35.3306140
   138.9959988   35.3889587
   138.9957060   35.3899219
   138.9953178   35.3908509
   138.9948382   35.3917361
   138.9942720   35.3925685
   138.9936250   35.3933399
   138.9929037   35.3940422
   138.9921154   35.3946685
   138.9912682   35.3952124
   138.9903706   35.3956683
   138.9894317   35.3960316
   138.9884610   35.3962987
   138.9756424   35.3991402
   138.9746789   35.3993049
   138.9737039   35.3993747
   138.9727267   35.3993490
   138.9192258   35.3953170
   138.9190021   35.3953103
   138.9187979   35.3954022
   138.9120102   35.3988337
   138.9118110   35.3989465
   138.9118065   35.3991754
   138.9120934   35.4096214
   138.9121111   35.4098558
   138.9122530   35.4100432
   138.9213754   35.4209671
   138.9219610   35.4217419
   138.9224687   35.4225699
   138.9228936   35.4234432
   138.9232319   35.4243536
   138.9234802   35.4252926
   138.9236363   35.4262512
   138.9236986   35.4272204
   138.9236666   35.4281911
   138.9228198   35.4385573
   138.9228120   35.4387962
   138.9229564   35.4389866
   138.9348274   35.4531541
   138.9350089   35.4533484
   138.9352427   35.4534753
   138.9874384   35.4782757
   138.9877054   35.4783841
   138.9879832   35.4784609
   139.0172293   35.4847533
   139.0181707   35.4850044
   139.0190831   35.4853459
   139.0199580   35.4857745
   139.0207871   35.4862863
   139.0215624   35.4868763
   139.0222766   35.4875390
   139.0229229   35.4882680
   139.0435413   35.5139424
   139.0437064   35.5141279
   139.0439526   35.5141611
   139.0776331   35.5169693
   139.0785281   35.5170848
   139.0794091   35.5172805
   139.0802689   35.5175548
   139.0811004   35.5179056
   139.0818969   35.5183299
   139.0826519   35.5188242
   139.0984585   35.5302248
   139.0992760   35.5308822
   139.1000201   35.5316217
   139.1006826   35.5324350
   139.1012563   35.5333133
   139.1017348   35.5342469
   139.1021129   35.5352254
   139.1076231   35.5520649
   139.1077105   35.5522933
   139.1078793   35.5524704
   139.1181698   35.5622499
   139.1188574   35.5629719
   139.1194697   35.5637587
   139.1200005   35.5646027
   139.1204447   35.5654953
   139.1207978   35.5664276
   139.1210563   35.5673906
   139.1212177   35.5683744
   139.1212802   35.5693695
   139.1212434   35.5703658
   139.1211075   35.5713535
   139.1208740   35.5723228
   139.1165660   35.5869559
   139.1165115   35.5871790
   139.1166039   35.5873892
   139.1240923   35.6024625
   139.1245083   35.6034229
   139.1248216   35.6044216
   139.1250288   35.6054475
   139.1251276   35.6064895
   139.1251170   35.6075360
   139.1249971   35.6085758
   139.1247692   35.6095973
   139.1122705   35.6544273
   139.1122144   35.6546786
   139.1123171   35.6549148
   139.1171565   35.6646219
   139.1175495   35.6655173
   139.1178532   35.6664468
   139.1180646   35.6674016
   139.1181817   35.6683724
   139.1182035   35.6693500
   139.1181297   35.6703251
   139.1179610   35.6712883
   139.1176990   35.6722304
   139.1173463   35.6731425
   139.1169062   35.6740157
   139.1163829   35.6748418
   139.1157814   35.6756128
   139.1151075   35.6763213
   139.1143676   35.6769607
   139.1054940   35.6839005
   139.1046838   35.6844718
   139.1038211   35.6849600
   139.1029142   35.6853604
   139.1019722   35.6856691
   139.1010042   35.6858829
   139.0690622   35.6912956
   139.0688046   35.6913535
   139.0685650   35.6914644
   139.0211132   35.7165871
   139.0209074   35.7167091
   139.0207450   35.7168848
   138.9804662   35.7649018
   138.9803119   35.7651064
   138.9802275   35.7653483
   138.9643035   35.8198522
   138.9639819   35.8207808
   138.9635707   35.8216733
   138.9630739   35.8225212
   138.9624962   35.8233162
   138.9618433   35.8240507
   138.9441188   35.8421185
   138.9434408   35.8427485
   138.9427075   35.8433131
   138.9419251   35.8438075
   138.9411004   35.8442274
   138.9402403   35.8445693
   138.9393524   35.8448302
   138.9384441   35.8450079
   138.9375233   35.8451008
   138.9156289   35.8462916
   138.9145623   35.8462926
   138.9135016   35.8461801
   138.9124590   35.8459552
   138.9114463   35.8456205
   138.9104749   35.8451798
   138.8912262   35.8351775
   138.8910004   35.8350745
   138.8907814   35.8351911
   138.8520771   35.8583950
   138.8511875   35.8588691
   138.8502546   35.8592513
   138.8492880   35.8595375
   138.8482975   35.8597250
   138.8472932   35.8598119
   138.8462852   35.8597971
   138.8126531   35.8576065
   138.8124031   35.8576029
   138.8121829   35.8577212
   138.7889185   35.8717780
   138.7887113   35.8719181
   138.7886467   35.8721597
   138.7860929   35.8841173
   138.7858243   35.8851181
   138.7854535   35.8860857
   138.7849846   35.8870097
   138.7844226   35.8878803
   138.7837736   35.8886880
   138.7830444   35.8894243
   138.7822430   35.8900811
   138.7784558   35.8928698
   138.7776626   35.8933975
   138.7768228   35.8938474
   138.7759439   35.8942153
   138.7750341   35.8944979
   138.7741014   35.8946926
   138.7288425   35.9019113
   138.7286088   35.9019605
   138.7285199   35.9021821
   138.7232775   35.9173656
   138.7232119   35.9175894
   138.7232983   35.9178061
   138.7292479   35.9308812
   138.7296172   35.9318145
   138.7298911   35.9327801
   138.7300668   35.9337682
   138.7301426   35.9347690
   138.7301177   35.9357724
   138.7299923   35.9367682
   138.7297678   35.9377465
   138.7294463   35.9386973
   138.7290311   35.9396111
   138.7285264   35.9404786
   138.7279373   35.9412912
   138.7098492   35.9637745
   138.7097101   35.9639654
   138.7096304   35.9641876
   138.7059676   35.9761694
   138.7056148   35.9771407
   138.7051636   35.9780705
   138.7046190   35.9789487
   138.7039866   35.9797660
   138.7032732   35.9805137
   138.7024865   35.9811837
   138.7016348   35.9817690
   138.7007273   35.9822633
   138.6997736   35.9826613
   138.6862450   35.9875023
   138.6860085   35.9876011
   138.6858525   35.9878044
   138.6754703   36.0028926
   138.6748921   36.0036524
   138.6742441   36.0043537
   138.6735322   36.0049899
   138.6727628   36.0055553
   138.6719431   36.0060448
   138.6710803   36.0064539
   138.6279323   36.0244432
   138.6277152   36.0245468
   138.6277824   36.0247778
   138.6369900   36.0513417
   138.6372852   36.0523670
   138.6374694   36.0534178
   138.6375406   36.0544824
   138.6374980   36.0555485
   138.6365173   36.0660278
   138.6363902   36.0669352
   138.6361807   36.0678271
   138.6358903   36.0686961
   138.6355216   36.0695349
   138.6350777   36.0703365
   138.6257236   36.0855391
   138.6256128   36.0857398
   138.6257294   36.0859373
   138.6362009   36.1019044
   138.6367142   36.1027812
   138.6371359   36.1037055
   138.6374616   36.1046677
   138.6376880   36.1056581
   138.6378127   36.1066664
   138.6378345   36.1076820
   138.6377531   36.1086947
   138.6375694   36.1096939
   138.6372853   36.1106692
   138.6344465   36.1188432
   138.6340611   36.1197928
   138.6335806   36.1206980
   138.6330099   36.1215492
   138.6323551   36.1223376
   138.6316230   36.1230548
   138.6308214   36.1236933
   138.6299587   36.1242464
   138.6290439   36.1247084
   138.6280865   36.1250742
   138.6270968   36.1253402
   138.5982270   36.1315313
   138.5980063   36.1315895
   138.5978657   36.1317694
   138.5725477   36.1674817
   138.5724154   36.1676901
   138.5725460   36.1678995
   138.5835547   36.1836915
   138.5837058   36.1838864
   138.5839510   36.1838606
   138.5925676   36.1825065
   138.5927941   36.1824599
   138.5929447   36.1822844
   138.5978432   36.1760006
   138.5985028   36.1752372
   138.5992360   36.1745442
   138.6000353   36.1739285
   138.6008926   36.1733966
   138.6017990   36.1729537
   138.6027455   36.1726044
   138.6037224   36.1723523
   138.6047197   36.1721998
   138.6057273   36.1721487
   138.6067349   36.1721993
   138.6077323   36.1723512
   138.6087093   36.1726028
   138.6147116   36.1744762
   138.6156414   36.1748178
   138.6165329   36.1752497
   138.6173773   36.1757677
   138.6181663   36.1763667
   138.6188921   36.1770409
   138.6195477   36.1777835
   138.6201266   36.1785874
   138.6206231   36.1794446
   138.6210324   36.1803467
   138.6213504   36.1812848
   138.6215740   36.1822499
   138.6217010   36.1832323
   138.6217303   36.1842225
   138.6216614   36.1852107
   138.6214950   36.1861872
   138.6212329   36.1871425
   138.6179770   36.1970555
   138.6179131   36.1972883
   138.6180335   36.1974977
   138.6209173   36.2019851
   138.6214038   36.2028301
   138.6218058   36.2037184
   138.6221192   36.2046417
   138.6223413   36.2055910
   138.6224699   36.2065575
   138.6225038   36.2075320
   138.6224426   36.2085050
   138.6222869   36.2094675
   138.6220382   36.2104103
   138.6216989   36.2113244
   138.6212722   36.2122011
   138.6207621   36.2130320
   138.5977506   36.2467195
   138.5976138   36.2469448
   138.5975826   36.2472064
   138.5955157   36.2787702
   138.5955117   36.2790035
   138.5957129   36.2791216
   138.6398122   36.3022357
   138.6406947   36.3027576
   138.6415192   36.3033671
   138.6422769   36.3040579
   138.6429598   36.3048226
   138.6435609   36.3056532
   138.6440738   36.3065410
   138.6444931   36.3074767
   138.6448144   36.3084504
   138.6450343   36.3094518
   138.6451504   36.3104705
   138.6486290   36.3662608
   138.6486352   36.3673967
   138.6485125   36.3685259
   138.6434426   36.3989694
   138.6432442   36.3998905
   138.6429600   36.4007888
   138.6425925   36.4016564
   138.6421450   36.4024855
   138.6416215   36.4032689
   138.6410265   36.4039995
   138.6403654   36.4046708
   138.6396441   36.4052770
   138.6388689   36.4058126
   138.6380468   36.4062728
   138.6371850   36.4066537
   138.6362912   36.4069517
   138.5976145   36.4178522
   138.5966089   36.4180804
   138.5955852   36.4182038
   138.5945542   36.4182212
   138.5935269   36.4181322
   138.5626755   36.4138497
   138.5617504   36.4136766
   138.5608456   36.4134173
   138.5599693   36.4130740
   138.5591291   36.4126499
   138.5583325   36.4121487
   138.5374104   36.3975666
   138.5371979   36.3974342
   138.5369561   36.3974992
   138.5080221   36.4069007
   138.5070720   36.4071585
   138.5061012   36.4073216
   138.5051191   36.4073884
   138.5041352   36.4073584
   138.5031590   36.4072318
   138.5021999   36.4070098
   138.5012674   36.4066946
   138.5003703   36.4062892
   138.4995174   36.4057976
   138.4987171   36.4052245
   138.4979769   36.4045755
   138.4893786   36.3962528
   138.4891958   36.3960927
   138.4889534   36.3961111
   138.4586412   36.3999296
   138.4584068   36.3999708
   138.4582687   36.4001646
   138.4512907   36.4110426
   138.4507329   36.4118264
   138.4501024   36.4125530
   138.4494051   36.4132156
   138.4486472   36.4138081
   138.4478360   36.4143251
   138.4469788   36.4147618
   138.4460836   36.4151140
   138.3972298   36.4316721
   138.3970108   36.4317584
   138.3969807   36.4319918
   138.3923179   36.4903661
   138.3923101   36.4905890
   138.3923620   36.4908059
   138.4070365   36.5419190
   138.4071095   36.5421350
   138.4072549   36.5423099
   138.4175408   36.5535886
   138.4181561   36.5543325
   138.4186969   36.5551324
   138.4191580   36.5559806
   138.4195352   36.5568694
   138.4198249   36.5577904
   138.4200244   36.5587351
   138.4201319   36.5596946
   138.4201464   36.5606599
   138.4200677   36.5616222
   138.4198966   36.5625724
   138.4196346   36.5635017
   138.4154736   36.5759302
   138.4154111   36.5761502
   138.4154742   36.5763696
   138.4227288   36.5978491
   138.4228087   36.5980550
   138.4229551   36.5982197
   138.4389408   36.6146761
   138.4391054   36.6148307
   138.4393213   36.6148969
   138.4434894   36.6159681
   138.4444013   36.6162494
   138.4452822   36.6166164
   138.4461241   36.6170657
   138.4469193   36.6175932
   138.4476606   36.6181941
   138.4483413   36.6188629
   138.4489551   36.6195936
   138.4494965   36.6203794
   138.4499606   36.6212133
   138.4503430   36.6220876
   138.4506403   36.6229944
   138.4545335   36.6371089
   138.4546107   36.6373424
   138.4548062   36.6374915
   138.4691012   36.6473036
   138.4693037   36.6474286
   138.4695410   36.6474455
   138.4914662   36.6479501
   138.4926067   36.6480418
   138.4937292   36.6482632
   138.4948191   36.6486114
   138.5116196   36.6550591
   138.5125090   36.6554511
   138.5133561   36.6559275
   138.5141530   36.6564838
   138.5148921   36.6571150
   138.5155664   36.6578148
   138.5161697   36.6585769
   138.5166961   36.6593939
   138.5171407   36.6602581
   138.5174993   36.6611614
   138.5177685   36.6620953
   138.5179458   36.6630509
   138.5180295   36.6640192
   138.5180188   36.6649910
   138.5179138   36.6659572
   138.5177155   36.6669087
   138.5174258   36.6678364
   138.5170474   36.6687316
   138.5165839   36.6695859
   138.5139428   36.6739349
   138.5138145   36.6741749
   138.5137710   36.6744436
   138.5117251   36.6937237
   138.5117117   36.6939534
   138.5119149   36.6940614
   138.5429759   36.7087242
   138.5432030   36.7088180
   138.5434475   36.7088411
   138.5809567   36.7105184
   138.5819073   36.7106065
   138.5828452   36.7107849
   138.5837618   36.7110519
   138.5846488   36.7114051
   138.5854980   36.7118413
   138.5863018   36.7123564
   138.5961064   36.7193225
   138.5963018   36.7194477
   138.5965245   36.7193826
   138.6045547   36.7166148
   138.6055214   36.7163351
   138.6065114   36.7161540
   138.6075146   36.7160734
   138.6085208   36.7160940
   138.6095198   36.7162156
   138.6105015   36.7164370
   138.6114560   36.7167560
   138.6123737   36.7171693
   138.6132451   36.7176727
   138.6140615   36.7182612
   138.6148146   36.7189288
   138.6210314   36.7250246
   138.6212054   36.7251799
   138.6214311   36.7252390
   138.7021532   36.7423471
   138.7031380   36.7426089
   138.7040911   36.7429696
   138.7050026   36.7434254
   138.7058629   36.7439716
   138.7066631   36.7446025
   138.7073950   36.7453116
   138.7080510   36.7460915
   138.7250480   36.7685294
   138.7252047   36.7687159
   138.7254415   36.7686592
   138.7776303   36.7533582
   138.7785675   36.7531318
   138.7795222   36.7529968
   138.7804855   36.7529543
   138.7814483   36.7530049
   138.7824018   36.7531478
   138.7833372   36.7533820
   138.7842456   36.7537052
   138.7851187   36.7541143
   138.7859483   36.7546056
   138.7867267   36.7551745
   138.7874467   36.7558158
   138.7881017   36.7565234
   138.7935404   36.7629999
   138.7937069   36.7631793
   138.7939388   36.7632578
   138.8120474   36.7684003
   138.8130124   36.7687284
   138.8139391   36.7691530
   138.8148177   36.7696697
   138.8156391   36.7702732
   138.8163949   36.7709572
   138.8170771   36.7717145
   138.8176786   36.7725374
   138.8181933   36.7734172
   138.8186157   36.7743448
   138.8229960   36.7854294
   138.8233345   36.7864405
   138.8235633   36.7874818
   138.8236800   36.7885415
   138.8236832   36.7896077
   138.8235729   36.7906681
   138.8187376   36.8212125
   138.8187130   36.8214378
   138.8189393   36.8214262
   138.8521780   36.8181206
   138.8531284   36.8180716
   138.8540792   36.8181131
   138.8550217   36.8182449
   138.8559474   36.8184656
   138.8568480   36.8187734
   138.8577152   36.8191654
   138.8793561   36.8302155
   138.8796046   36.8303256
   138.8798710   36.8303792
   138.9047395   36.8339749
   138.9057141   36.8341656
   138.9066649   36.8344521
   138.9075827   36.8348314
   138.9084583   36.8352999
   138.9092831   36.8358530
   138.9100490   36.8364851
   138.9107485   36.8371901
   138.9113745   36.8379610
   138.9119210   36.8387902
   138.9123826   36.8396695
   138.9127547   36.8405902
   138.9130336   36.8415433
   138.9132166   36.8425194
   138.9133019   36.8435088
   138.9132886   36.8445018
   138.9131769   36.8454886
   138.9129679   36.8464594
   138.9126636   36.8474048
   138.9122671   36.8483152
   138.9111103   36.8506477
   138.9110128   36.8508715
   138.9110576   36.8511114
   138.9195396   36.8866471
   138.9196120   36.8868927
   138.9197968   36.8870700
   138.9338189   36.8991836
   138.9340039   36.8993285
   138.9342390   36.8993273
   138.9593156   36.8979933
   138.9603087   36.8979898
   138.9612973   36.8980849
   138.9622716   36.8982776
   138.9632219   36.8985659
   138.9641390   36.8989471
   138.9650137   36.8994174
   138.9658374   36.8999721
   138.9666021   36.9006058
   138.9673002   36.9013123
   138.9679247   36.9020844
   138.9684696   36.9029147
   138.9689294   36.9037950
   138.9692996   36.9047165
   138.9695766   36.9056703
   138.9697577   36.9066467
   138.9698410   36.9076364
   138.9698257   36.9086294
   138.9697120   36.9096160
   138.9695010   36.9105864
   138.9587627   36.9503477
   138.9587117   36.9505808
   138.9587291   36.9508188
   138.9624710   36.9815718
   138.9625104   36.9818028
   138.9627117   36.9819230
   138.9711705   36.9864375
   138.9714032   36.9865465
   138.9716600   36.9865522
   138.9974459   36.9857832
   138.9984084   36.9858008
   138.9993647   36.9859110
   139.0003061   36.9861125
   139.0012236   36.9864037
   139.0021090   36.9867817
   139.0151963   36.9931312
   139.0154025   36.9932199
   139.0156264   36.9932298
   139.0402924   36.9932032
   139.0412648   36.9932496
   139.0422280   36.9933902
   139.0431730   36.9936239
   139.0440908   36.9939483
   139.0449727   36.9943604
   139.0458104   36.9948564
   139.0787085   37.0165624
   139.0794906   37.0171347
   139.0802136   37.0177799
   139.0808707   37.0184922
   139.0814559   37.0192647
   139.0819635   37.0200902
   139.0823888   37.0209610
   139.0827278   37.0218689
   139.0829774   37.0228053
   139.0831351   37.0237614
   139.0858746   37.0474698
   139.0859095   37.0476869
   139.0860174   37.0478780
   139.0954677   37.0630082
   139.0956048   37.0632051
   139.0958314   37.0631261
   139.1258524   37.0509405
   139.1260911   37.0508284
   139.1262619   37.0506274
   139.1517587   37.0171522
   139.1523586   37.0164367
   139.1530226   37.0157801
   139.1537449   37.0151884
   139.1545192   37.0146666
   139.1553389   37.0142193
   139.1752713   37.0045213
   139.1754914   37.0044000
   139.1756456   37.0042015
   139.1839501   36.9923047
   139.1840860   36.9920865
   139.1840677   36.9918301
   139.1822669   36.9773452
   139.1821925   36.9763148
   139.1822249   36.9752821
   139.1823637   36.9742584
   139.1826073   36.9732544
   139.1829533   36.9722808
   139.1833978   36.9713482
   139.1839362   36.9704665
   139.1841324   36.9701795
   139.1847679   36.9693474
   139.1854869   36.9685863
   139.1862815   36.9679045
   139.1871431   36.9673096
   139.1880621   36.9668080
   139.1890285   36.9664053
   139.1900318   36.9661058
   139.2052623   36.9624153
   139.2061794   36.9622380
   139.2071090   36.9621470
   139.2080431   36.9621431
   139.2089734   36.9622264
   139.2312508   36.9652759
   139.2314972   36.9652971
   139.2318753   36.9650817
   139.2327698   36.9646300
   139.2337050   36.9642701
   139.2346715   36.9640056
   139.2356597   36.9638392
   139.2366595   36.9637725
   139.2376610   36.9638062
   139.2386541   36.9639400
   139.2396289   36.9641725
   139.2405754   36.9645014
   139.2414843   36.9649233
   139.2423464   36.9654341
   139.2431531   36.9660286
   139.2438962   36.9667009
   139.2445683   36.9674441
   139.2451626   36.9682509
   139.2456733   36.9691131
   139.2460950   36.9700221
   139.2463937   36.9708824
   139.2464646   36.9710592
   139.2467325   36.9716407
   139.2470439   36.9725269
   139.2472707   36.9734385
   139.2474109   36.9743673
   139.2474634   36.9753051
   139.2474277   36.9762438
   139.2473041   36.9771750
   139.2470936   36.9780904
   139.2467982   36.9789821
   139.2464204   36.9798421
   139.2460114   36.9806656
   139.2459153   36.9808862
   139.2461026   36.9810374
   139.2482083   36.9825691
   139.2489555   36.9831695
   139.2496419   36.9838386
   139.2502610   36.9845704
   139.2508072   36.9853581
   139.2512755   36.9861945
   139.2516615   36.9870719
   139.2519618   36.9879822
   139.2521735   36.9889171
   139.2522947   36.9898680
   139.2523244   36.9908261
   139.2522621   36.9917826
   139.2521086   36.9927288
   139.2503787   37.0008928
   139.2501518   37.0017670
   139.2498469   37.0026172
   139.2494666   37.0034363
   139.2490139   37.0042178
   139.2422297   37.0147977
   139.2421130   37.0150005
   139.2422125   37.0152124
   139.2455780   37.0215678
   139.2459510   37.0223528
   139.2462544   37.0231672
   139.2464859   37.0240048
   139.2466438   37.0248594
   139.2475652   37.0314317
   139.2476115   37.0316731
   139.2479977   37.0319851
   139.2479912   37.0319932
   139.2484035   37.0323259
   139.2491096   37.0330218
   139.2497432   37.0337842
   139.2502983   37.0346056
   139.2507693   37.0354779
   139.2511516   37.0363925
   139.2514415   37.0373405
   139.2516361   37.0383126
   139.2517335   37.0392991
   139.2517882   37.0404185
   139.2518111   37.0406535
   139.2525900   37.0412486
   139.2533073   37.0419175
   139.2539556   37.0426534
   139.2545287   37.0434494
   139.2550210   37.0442976
   139.2554279   37.0451900
   139.2557454   37.0461180
   139.2559705   37.0470726
   139.2561010   37.0480446
   139.2561357   37.0490248
   139.2560741   37.0500037
   139.2559170   37.0509718
   139.2556658   37.0519198
   139.2532120   37.0596309
   139.2528154   37.0606726
   139.2523052   37.0616636
   139.2516880   37.0625917
   139.2458542   37.0703840
   139.2457133   37.0705939
   139.2457200   37.0708465
   139.2460695   37.0753402
   139.2460969   37.0763468
   139.2460230   37.0773510
   139.2458484   37.0783426
   139.2455751   37.0793117
   139.2452056   37.0802484
   139.2447438   37.0811432
   139.2441944   37.0819871
   139.2435629   37.0827713
   139.2376698   37.0893796
   139.2375137   37.0895738
   139.2375482   37.0898205
   139.2377354   37.0907938
   139.2378718   37.0917507
   139.2379152   37.0927162
   139.2378653   37.0936814
   139.2377223   37.0946373
   139.2374878   37.0955749
   139.2371638   37.0964855
   139.2367535   37.0973606
   139.2348130   37.1010266
   139.2347113   37.1012434
   139.2346758   37.1014803
   139.2338282   37.1098806
   139.2338158   37.1101589
   139.2338658   37.1104330
   139.2360440   37.1194773
   139.2361105   37.1197052
   139.2362389   37.1199049
   139.2409300   37.1264874
   139.2414649   37.1273227
   139.2419144   37.1282068
   139.2422741   37.1291311
   139.2425405   37.1300866
   139.2427109   37.1310637
   139.2444727   37.1453089
   139.2445095   37.1455268
   139.2446200   37.1457177
   139.2473699   37.1500214
   139.2478808   37.1509203
   139.2482962   37.1518671
   139.2486116   37.1528517
   139.2488237   37.1538637
   139.2492433   37.1565521
   139.2493486   37.1575598
   139.2493515   37.1585731
   139.2492517   37.1595814
   139.2490505   37.1605744
   139.2487498   37.1615420
   139.2483527   37.1624742
   139.2478634   37.1633614
   139.2472868   37.1641945
   139.2466288   37.1649651
   139.2421646   37.1696859
   139.2420113   37.1698644
   139.2420021   37.1700995
   139.2420609   37.1766640
   139.2420169   37.1776939
   139.2418672   37.1787138
   139.2416133   37.1797128
   139.2412579   37.1806804
   139.2408048   37.1816063
   139.2402588   37.1824806
   139.2396257   37.1832941
   139.2389121   37.1840381
   139.2252313   37.1969043
   139.2244894   37.1975369
   139.2236894   37.1980941
   139.2228390   37.1985708
   139.2219462   37.1989624
   139.2210195   37.1992653
   139.2200677   37.1994764
   139.2190998   37.1995938
   139.2181251   37.1996165
   139.2171529   37.1995441
   139.2161923   37.1993774
   139.2152525   37.1991180
   139.2143425   37.1987682
   139.2134708   37.1983316
   139.2126458   37.1978121
   139.2061040   37.1932328
   139.2058961   37.1931022
   139.2056510   37.1930867
   139.1962534   37.1929633
   139.1960094   37.1929725
   139.1959333   37.1932044
   139.1939844   37.2003414
   139.1936996   37.2012216
   139.1933348   37.2020717
   139.1928930   37.2028845
   139.1923780   37.2036529
   139.1917941   37.2043705
   139.1911465   37.2050310
   139.1904406   37.2056289
   139.1861809   37.2089106
   139.1860080   37.2090569
   139.1858991   37.2092549
   139.1838175   37.2134811
   139.1833364   37.2143469
   139.1827720   37.2151608
   139.1821298   37.2159150
   139.1814162   37.2166019
   139.1806381   37.2172148
   139.1733140   37.2224180
   139.1731091   37.2225803
   139.1729224   37.2227633
   139.1655532   37.2307832
   139.1654089   37.2309553
   139.1653352   37.2311670
   139.1635704   37.2370745
   139.1635126   37.2373093
   139.1635952   37.2375366
   139.1691887   37.2508451
   139.1693144   37.2511019
   139.1694687   37.2513426
   139.1737395   37.2572288
   139.1739111   37.2574399
   139.1741047   37.2576312
   139.2045225   37.2845529
   139.2047062   37.2847006
   139.2049145   37.2848110
   139.2075200   37.2860377
   139.2084036   37.2865092
   139.2092356   37.2870667
   139.2100077   37.2877046
   139.2107121   37.2884165
   139.2113417   37.2891953
   139.2118903   37.2900332
   139.2123523   37.2909217
   139.2127232   37.2918521
   139.2129991   37.2928148
   139.2152128   37.3023112
   139.2153924   37.3033071
   139.2154704   37.3043160
   139.2154461   37.3053276
   139.2153196   37.3063316
   139.2150924   37.3073176
   139.2145670   37.3091644
   139.2145131   37.3093965
   139.2146758   37.3095706
   139.2178244   37.3126253
   139.2185088   37.3133594
   139.2191161   37.3141585
   139.2196403   37.3150144
   139.2200761   37.3159185
   139.2204190   37.3168617
   139.2206656   37.3178346
   139.2208135   37.3188273
   139.2208611   37.3198299
   139.2208080   37.3208321
   139.2206547   37.3218240
   139.2204028   37.3227955
   139.2167710   37.3343737
   139.2167125   37.3345966
   139.2168757   37.3347593
   139.2270238   37.3439602
   139.2272068   37.3441109
   139.2275317   37.3443302
   139.2276525   37.3444036
   139.2284050   37.3449631
   139.2291018   37.3455906
   139.2297368   37.3462807
   139.2303043   37.3470272
   139.2307994   37.3478236
   139.2312178   37.3486629
   139.2315557   37.3495376
   139.2318101   37.3504402
   139.2319789   37.3513626
   139.2320605   37.3522968
   139.2322914   37.3580257
   139.2323091   37.3582388
   139.2323629   37.3584450
   139.2349092   37.3667485
   139.2351423   37.3676596
   139.2352889   37.3685887
   139.2353475   37.3695273
   139.2353176   37.3704673
   139.2351996   37.3714004
   139.2349944   37.3723182
   139.2347039   37.3732127
   139.2343307   37.3740760
   139.2338780   37.3749004
   139.2333499   37.3756786
   139.2309390   37.3788946
   139.2308097   37.3790848
   139.2307376   37.3793032
   139.2297621   37.3827932
   139.2294387   37.3837581
   139.2290189   37.3846851
   139.2285070   37.3855647
   139.2279084   37.3863876
   139.2272292   37.3871455
   139.2264765   37.3878304
   139.2256582   37.3884352
   139.2247826   37.3889538
   139.2238588   37.3893807
   139.2228964   37.3897115
   139.2219054   37.3899428
   139.2208960   37.3900721
   139.2198787   37.3900982
   139.2154240   37.3899857
   139.2152018   37.3899900
   139.2149956   37.3900720
   139.2096414   37.3924814
   139.2094084   37.3926014
   139.2092245   37.3927883
   139.2065632   37.3957956
   139.2064106   37.3959862
   139.2063201   37.3962129
   139.2042641   37.4022034
   139.2039240   37.4030630
   139.2035059   37.4038875
   139.2030134   37.4046699
   139.2024508   37.4054034
   139.2018229   37.4060819
   139.1963725   37.4114501
   139.1962172   37.4116187
   139.1963968   37.4117609
   139.2014503   37.4153787
   139.2022547   37.4160197
   139.2029891   37.4167399
   139.2036456   37.4175318
   139.2042173   37.4183869
   139.2046981   37.4192962
   139.2050830   37.4202501
   139.2053678   37.4212385
   139.2055496   37.4222509
   139.2064680   37.4294879
   139.2065124   37.4297358
   139.2066291   37.4299589
   139.2141583   37.4427297
   139.2143120   37.4429599
   139.2145127   37.4431504
   139.2226166   37.4500244
   139.2228048   37.4501691
   139.2230386   37.4502103
   139.2513539   37.4538041
   139.3049720   37.4601032
   139.3054266   37.4601672
   139.3262668   37.4635917
   139.3264969   37.4636184
   139.3266826   37.4634800
   139.3286717   37.4618461
   139.3295034   37.4612321
   139.3303940   37.4607072
   139.3313340   37.4602771
   139.3323135   37.4599463
   139.3333218   37.4597185
   139.3343483   37.4595959
   139.3353819   37.4595799
   139.3364117   37.4596708
   139.3374265   37.4598675
   139.3420703   37.4610193
   139.3429994   37.4612982
   139.3438972   37.4616659
   139.3447550   37.4621188
   139.3455650   37.4626527
   139.3463194   37.4632626
   139.3470112   37.4639427
   139.3476338   37.4646866
   139.3508526   37.4689355
   139.3510051   37.4691175
   139.3512413   37.4690933
   139.3527551   37.4688628
   139.3537952   37.4687596
   139.3548403   37.4687656
   139.3558792   37.4688807
   139.3569004   37.4691036
   139.3578927   37.4694318
   139.3620611   37.4710569
   139.3622995   37.4711360
   139.3625310   37.4710388
   139.3730046   37.4659984
   139.3738451   37.4656402
   139.3747147   37.4653603
   139.3756063   37.4651609
   139.3765123   37.4650436
   139.3774253   37.4650096
   139.3843759   37.4650681
   139.3845983   37.4650600
   139.3848105   37.4649931
   139.3898697   37.4631457
   139.3908183   37.4628518
   139.3917914   37.4626534
   139.3927793   37.4625525
   139.3937724   37.4625501
   139.3947608   37.4626463
   139.3957349   37.4628400
   139.3966849   37.4631293
   139.3976015   37.4635114
   139.3984757   37.4639826
   139.3992988   37.4645382
   139.4000628   37.4651726
   139.4007601   37.4658797
   139.4013838   37.4666525
   139.4019278   37.4674834
   139.4023867   37.4683641
   139.4027560   37.4692859
   139.4030320   37.4702399
   139.4032120   37.4712165
   139.4032943   37.4722062
   139.4033922   37.4751466
   139.4034107   37.4753765
   139.4035306   37.4755736
   139.4046798   37.4772768
   139.4051843   37.4781090
   139.4056054   37.4789863
   139.4059392   37.4799004
   139.4061827   37.4808426
   139.4063334   37.4818040
   139.4063899   37.4827755
   139.4063518   37.4837479
   139.4062193   37.4847120
   139.4059937   37.4856587
   139.4057659   37.4864432
   139.4057113   37.4866705
   139.4057445   37.4869020
   139.4069563   37.4932122
   139.4070100   37.4934358
   139.4071410   37.4936242
   139.4082139   37.4950250
   139.4087957   37.4958714
   139.4092876   37.4967730
   139.4096844   37.4977203
   139.4099820   37.4987034
   139.4101772   37.4997117
   139.4102679   37.5007348
   139.4102532   37.5017618
   139.4100153   37.5053776
   139.4100109   37.5056071
   139.4101289   37.5058040
   139.4136690   37.5111328
   139.4138064   37.5113198
   139.4140347   37.5113612
   139.4223007   37.5124609
   139.4233454   37.5126569
   139.4243635   37.5129626
   139.4253433   37.5133747
   139.4262738   37.5138885
   139.4271445   37.5144981
   139.4288091   37.5158006
   139.4290034   37.5159380
   139.4292409   37.5159230
   139.4368040   37.5150759
   139.4378891   37.5150139
   139.4389745   37.5150699
   139.4400474   37.5152434
   139.4410951   37.5155323
   139.4495091   37.5183525
   139.4498038   37.5184315
   139.4501059   37.5184739
   139.4573620   37.5190414
   139.4575958   37.5190485
   139.4577695   37.5188919
   139.4659427   37.5107883
   139.4666755   37.5101301
   139.4674694   37.5095472
   139.4683168   37.5090452
   139.4713920   37.5074225
   139.4722786   37.5070088
   139.4732014   37.5066837
   139.4741515   37.5064504
   139.4751199   37.5063110
   139.4760973   37.5062669
   139.4770743   37.5063185
   139.4780416   37.5064654
   139.4789900   37.5067060
   139.4799102   37.5070382
   139.4807936   37.5074588
   139.4816317   37.5079636
   139.4824164   37.5085479
   139.4831403   37.5092062
   139.4837963   37.5099320
   139.4847349   37.5110783
   139.4849076   37.5112682
   139.4851520   37.5113468
   139.4914663   37.5130215
   139.4921427   37.5131517
   139.4970491   37.5137494
   139.4972996   37.5137672
   139.4975486   37.5137343
   139.5095274   37.5115299
   139.5105040   37.5113995
   139.5114886   37.5113659
   139.5124718   37.5114293
   139.5134440   37.5115892
   139.5143957   37.5118439
   139.5153178   37.5121911
   139.5162012   37.5126273
   139.5170374   37.5131484
   139.5178182   37.5137492
   139.5189196   37.5146865
   139.5191052   37.5148298
   139.5193305   37.5148943
   139.5230743   37.5157768
   139.5232995   37.5158190
   139.5235197   37.5157560
   139.5276673   37.5143589
   139.5285625   37.5141031
   139.5294777   37.5139316
   139.5304048   37.5138461
   139.5432469   37.5132615
   139.5434948   37.5132376
   139.5436846   37.5130764
   139.5447187   37.5121035
   139.5454826   37.5114539
   139.5463077   37.5108841
   139.5471858   37.5103997
   139.5481079   37.5100058
   139.5608826   37.5052905
   139.5618152   37.5049972
   139.5627718   37.5047964
   139.5637436   37.5046900
   139.5647211   37.5046789
   139.5656950   37.5047633
   139.5666560   37.5049424
   139.5675949   37.5052145
   139.5685027   37.5055770
   139.5693709   37.5060263
   139.5785676   37.5113723
   139.5793859   37.5119029
   139.5801486   37.5125108
   139.5808484   37.5131900
   139.5814788   37.5139342
   139.5820336   37.5147363
   139.5825077   37.5155886
   139.5828966   37.5164830
   139.5831964   37.5174111
   139.5834044   37.5183639
   139.5835186   37.5193325
   139.5835379   37.5203076
   139.5834621   37.5212799
   139.5832920   37.5222402
   139.5830291   37.5231794
   139.5826760   37.5240886
   139.5822361   37.5249590
   139.5817134   37.5257823
   139.5811130   37.5265509
   139.5804406   37.5272573
   139.5797025   37.5278949
   139.5789059   37.5284575
   139.5782972   37.5288039
   139.5782988   37.5288067
   139.5779071   37.5290278
   139.5777800   37.5292117
   139.5755793   37.5327261
   139.5750605   37.5334762
   139.5744756   37.5341759
   139.5738293   37.5348195
   139.5731270   37.5354014
   139.5693027   37.5382871
   139.5691114   37.5384473
   139.5690462   37.5386881
   139.5689026   37.5393502
   139.5686315   37.5403476
   139.5682590   37.5413117
   139.5677890   37.5422322
   139.5672265   37.5430993
   139.5665774   37.5439036
   139.5658488   37.5446367
   139.5650485   37.5452907
   139.5647994   37.5454736
   139.5646148   37.5456237
   139.5647070   37.5458430
   139.5663448   37.5492550
   139.5667115   37.5501213
   139.5669953   37.5510182
   139.5671934   37.5519378
   139.5673043   37.5528719
   139.5673269   37.5538124
   139.5672611   37.5547507
   139.5663278   37.5626838
   139.5663115   37.5629175
   139.5664240   37.5631229
   139.5683741   37.5663131
   139.5688357   37.5671568
   139.5692141   37.5680410
   139.5695058   37.5689575
   139.5697081   37.5698977
   139.5698191   37.5708531
   139.5698379   37.5718146
   139.5697642   37.5727736
   139.5694514   37.5752666
   139.5692784   37.5762472
   139.5690087   37.5772057
   139.5686451   37.5781327
   139.5681910   37.5790189
   139.5630289   37.5879666
   139.5629138   37.5881923
   139.5629509   37.5884429
   139.5630578   37.5889730
   139.5632015   37.5899174
   139.5632544   37.5908712
   139.5632161   37.5918258
   139.5630869   37.5927723
   139.5628680   37.5937021
   139.5625613   37.5946069
   139.5621697   37.5954782
   139.5616968   37.5963082
   139.5611468   37.5970893
   139.5605248   37.5978143
   139.5598364   37.5984767
   139.5590880   37.5990704
   139.5582863   37.5995899
   139.5574388   37.6000306
   139.5565530   37.6003884
   139.5536214   37.6014126
   139.5534065   37.6014992
   139.5532540   37.6016736
   139.5474541   37.6089662
   139.5473125   37.6091635
   139.5473297   37.6094058
   139.5481348   37.6160740
   139.5482063   37.6171596
   139.5481594   37.6182465
   139.5479948   37.6193218
   139.5477143   37.6203730
   139.5448799   37.6290651
   139.5448137   37.6293101
   139.5448768   37.6295559
   139.5463196   37.6341726
   139.5464128   37.6344227
   139.5465807   37.6346302
   139.5475396   37.6356925
   139.5481540   37.6364434
   139.5486927   37.6372503
   139.5491507   37.6381056
   139.5495237   37.6390012
   139.5498081   37.6399288
   139.5500013   37.6408795
   139.5501014   37.6418445
   139.5501076   37.6428147
   139.5500197   37.6437809
   139.5498386   37.6447341
   139.5495660   37.6456652
   139.5482817   37.6493740
   139.5482152   37.6496023
   139.5484382   37.6496852
   139.5721109   37.6571578
   139.5730787   37.6575192
   139.5740040   37.6579786
   139.5831232   37.6631092
   139.5840658   37.6637112
   139.5849352   37.6644147
   139.5857206   37.6652110
   139.5885412   37.6684099
   139.5887041   37.6685777
   139.5889349   37.6685404
   139.5903366   37.6682442
   139.5913425   37.6680847
   139.5923593   37.6680283
   139.5933767   37.6680756
   139.5943839   37.6682262
   139.5953706   37.6684784
   139.5963265   37.6688297
   139.5972418   37.6692763
   139.5981069   37.6698138
   139.5989128   37.6704365
   139.5996512   37.6711378
   139.6003144   37.6719107
   139.6013241   37.6732164
   139.6018828   37.6740166
   139.6023608   37.6748676
   139.6027536   37.6757610
   139.6030574   37.6766885
   139.6032693   37.6776412
   139.6033874   37.6786100
   139.6034104   37.6795857
   139.6034064   37.6797461
   139.6034128   37.6799949
   139.6035800   37.6801792
   139.6079261   37.6845068
   139.6081076   37.6846707
   139.6083044   37.6848159
   139.6144975   37.6889353
   139.6147056   37.6890596
   139.6147941   37.6891013
   139.6156342   37.6895480
   139.6164280   37.6900725
   139.6171684   37.6906700
   139.6178486   37.6913352
   139.6184626   37.6920621
   139.6190047   37.6928440
   139.6194700   37.6936738
   139.6198544   37.6945442
   139.6201543   37.6954471
   139.6203670   37.6963745
   139.6204906   37.6973178
   139.6205241   37.6982687
   139.6204670   37.6992184
   139.6203199   37.7001584
   139.6202144   37.7006713
   139.6202704   37.7009232
   139.6229348   37.7105055
   139.6230101   37.7107329
   139.6231984   37.7108811
   139.6264474   37.7131915
   139.6272034   37.7137858
   139.6278988   37.7144500
   139.6285272   37.7151779
   139.6290828   37.7159628
   139.6295604   37.7167975
   139.6299556   37.7176742
   139.6302648   37.7185847
   139.6308302   37.7205566
   139.6309101   37.7207899
   139.6311434   37.7208697
   139.6344616   37.7218206
   139.6354557   37.7221630
   139.6364083   37.7226079
   139.6373090   37.7231503
   139.6381477   37.7237843
   139.6389153   37.7245028
   139.6396032   37.7252980
   139.6420741   37.7284780
   139.6423387   37.7287912
   139.6545951   37.7421433
   139.6552041   37.7428736
   139.6557410   37.7436584
   139.6562009   37.7444907
   139.6565797   37.7453629
   139.6568739   37.7462671
   139.6570809   37.7471952
   139.6571988   37.7481388
   139.6572266   37.7490892
   139.6571047   37.7557214
   139.6571132   37.7559737
   139.6573046   37.7561382
   139.6678825   37.7643165
   139.6679175   37.7643436
   139.6745639   37.7695295
   139.6752483   37.7701149
   139.6758772   37.7707595
   139.6764455   37.7714581
   139.6769488   37.7722049
   139.6794759   37.7763467
   139.6796082   37.7765418
   139.6798035   37.7766738
   139.6944591   37.7855923
   139.6951996   37.7860895
   139.6958930   37.7866508
   139.6965335   37.7872716
   139.6971162   37.7879470
   139.7040544   37.7967552
   139.7042070   37.7969312
   139.7044135   37.7970387
   139.7116226   37.8003729
   139.7124575   37.8008079
   139.7132479   37.8013195
   139.7139866   37.8019032
   139.7146672   37.8025537
   139.7152835   37.8032653
   139.7208441   37.8103319
   139.7210079   37.8105197
   139.7212321   37.8106282
   139.7262810   37.8127635
   139.7271831   37.8131995
   139.7280369   37.8137236
   139.7288341   37.8143304
   139.7295665   37.8150140
   139.7302269   37.8157675
   139.7308086   37.8165833
   139.7313057   37.8174531
   139.7317132   37.8183684
   139.7320272   37.8193198
   139.7322443   37.8202978
   139.7323626   37.8212927
   139.7323806   37.8222945
   139.7322984   37.8232930
   139.7321166   37.8242782
   139.7318371   37.8252403
   139.7314628   37.8261697
   139.7309974   37.8270569
   139.7304456   37.8278931
   139.7298128   37.8286699
   139.7291055   37.8293794
   139.7286248   37.8298156
   139.7195535   37.8389062
   139.7194072   37.8390661
   139.7192913   37.8392482
   139.7159822   37.8449794
   139.7154647   37.8457842
   139.7148727   37.8465358
   139.7142115   37.8472273
   139.7134873   37.8478526
   139.7127067   37.8484057
   139.7118767   37.8488817
   139.7110051   37.8492763
   139.7100998   37.8495857
   139.7091690   37.8498072
   139.7082213   37.8499387
   139.7072654   37.8499790
   139.7063100   37.8499279
   139.7053639   37.8497856
   139.7044357   37.8495536
   139.7035339   37.8492339
   139.7026668   37.8488295
   139.6984398   37.8466061
   139.6981961   37.8464943
   139.6979294   37.8464662
   139.6811548   37.8456130
   139.6809056   37.8456130
   139.6807350   37.8457946
   139.6763254   37.8509949
   139.6756874   37.8516796
   139.6749881   37.8523017
   139.6742337   37.8528557
   139.6734309   37.8533367
   139.6565167   37.8624236
   139.6563100   37.8625481
   139.6562295   37.8627757
   139.6546054   37.8682038
   139.6542638   37.8691643
   139.6538262   37.8700850
   139.6532971   37.8709564
   139.6526821   37.8717693
   139.6519875   37.8725154
   139.6512206   37.8731870
   139.6495595   37.8744981
   139.6488128   37.8750336
   139.6480202   37.8754983
   139.6471883   37.8758884
   139.6463240   37.8762004
   139.6382180   37.8787124
   139.6380061   37.8787889
   139.6378653   37.8789643
   139.6306332   37.8888578
   139.6305087   37.8890453
   139.6304017   37.8892432
   139.6282030   37.8937872
   139.6281116   37.8940014
   139.6281496   37.8942312
   139.6287218   37.8969004
   139.6288840   37.8979024
   139.6289437   37.8989158
   139.6289004   37.8999300
   139.6287544   37.9009346
   139.6285074   37.9019192
   139.6281619   37.9028737
   139.6277213   37.9037882
   139.6252208   37.9083687
   139.6251132   37.9085919
   139.6251516   37.9088368
   139.6253200   37.9096418
   139.6254797   37.9106688
   139.6255319   37.9117068
   139.6254761   37.9127446
   139.6253129   37.9137710
   139.6250440   37.9147750
   139.6246724   37.9157456
   139.6242021   37.9166724
   139.6237175   37.9175156
   139.6236119   37.9177212
   139.6236757   37.9179433
   139.6262248   37.9254584
   139.6263096   37.9256746
   139.6264510   37.9258588
   139.6311429   37.9314140
   139.6313079   37.9315911
   139.6315040   37.9317329
   139.6337456   37.9331932
   139.6345224   37.9337541
   139.6352421   37.9343868
   139.6358978   37.9350854
   139.6364837   37.9358436
   139.6369943   37.9366544
   139.6374250   37.9375104
   139.6377718   37.9384036
   139.6380315   37.9393259
   139.6382018   37.9402689
   139.6382810   37.9412238
   139.6382920   37.9415397
   139.6383105   37.9417677
   139.6383905   37.9419820
   139.6392170   37.9439180
   139.6395667   37.9448675
   139.6398187   37.9458476
   139.6399704   37.9468480
   139.6400201   37.9478587
   139.6399675   37.9488693
   139.6398129   37.9498693
   139.6395582   37.9508486
   139.6392057   37.9517972
   139.6389029   37.9525008
   139.6388142   37.9527406
   139.6388826   37.9529870
   139.6405167   37.9578755
   139.6407913   37.9588623
   139.6409635   37.9598720
   139.6410315   37.9608940
   139.6409946   37.9619176
   139.6408531   37.9629321
   139.6406087   37.9639268
   139.6402637   37.9648912
   139.6398220   37.9658154
   139.6392880   37.9666894
   139.6386674   37.9675043
   139.6368615   37.9696391
   139.6367146   37.9698315
   139.6368195   37.9700497
   139.6388585   37.9737987
   139.6392818   37.9746764
   139.6396177   37.9755911
   139.6398630   37.9765341
   139.6400153   37.9774965
   139.6400732   37.9784692
   139.6400362   37.9794429
   139.6399046   37.9804084
   139.6396796   37.9813565
   139.6393635   37.9822782
   139.6380911   37.9854713
   139.6380136   37.9856978
   139.6381592   37.9858877
   139.6402131   37.9883083
   139.6408171   37.9890963
   139.6413399   37.9899402
   139.6417765   37.9908319
   139.6421225   37.9917624
   139.6423745   37.9927227
   139.6425301   37.9937033
   139.6427732   37.9959523
   139.6428109   37.9961897
   139.6430457   37.9962416
   139.6437369   37.9963587
   139.6446643   37.9965614
   139.6455683   37.9968512
   139.6464407   37.9972254
   139.6472737   37.9976806
   139.6480598   37.9982128
   139.6487919   37.9988171
   139.6494634   37.9994880
   139.6500682   38.0002197
   139.6506009   38.0010054
   139.6510568   38.0018380
   139.6514316   38.0027102
   139.6517221   38.0036139
   139.6519255   38.0045412
   139.6520401   38.0054835
   139.6525828   38.0128487
   139.6526047   38.0139028
   139.6525155   38.0149534
   139.6523162   38.0159888
   139.6510576   38.0210677
   139.6510119   38.0212989
   139.6510991   38.0215178
   139.6535225   38.0268428
   139.6538896   38.0277695
   139.6541627   38.0287282
   139.6543390   38.0297093
   139.6544167   38.0307031
   139.6543951   38.0316997
   139.6542744   38.0326892
   139.6537416   38.0357696
   139.6537127   38.0360044
   139.6539052   38.0361419
   139.6614021   38.0409628
   139.6616037   38.0410794
   139.6618340   38.0411137
   139.6720336   38.0421482
   139.6729709   38.0422884
   139.6738907   38.0425166
   139.6747847   38.0428310
   139.6756450   38.0432285
   139.6764638   38.0437057
   139.6772337   38.0442583
   139.6779479   38.0448813
   139.6785999   38.0455691
   139.6791838   38.0463155
   139.6796945   38.0471138
   139.6801273   38.0479569
   139.6804784   38.0488372
   139.6808182   38.0498226
   139.6809100   38.0500510
   139.6812142   38.0502116
   139.6820600   38.0507127
   139.6828525   38.0512945
   139.6835841   38.0519512
   139.6842476   38.0526766
   139.6848367   38.0534636
   139.6853457   38.0543047
   139.6857696   38.0551917
   139.6861044   38.0561160
   139.6863468   38.0570688
   139.6864944   38.0580407
   139.6865460   38.0590225
   139.6865009   38.0600045
   139.6863595   38.0609774
   139.6861234   38.0619317
   139.6857946   38.0628582
   139.6853765   38.0637480
   139.6849420   38.0644767
   139.6849121   38.0645330
   139.6849131   38.0648228
   139.6849353   38.0652534
   139.6848860   38.0662570
   139.6847363   38.0672506
   139.6844876   38.0682241
   139.6841425   38.0691678
   139.6837045   38.0700720
   139.6831779   38.0709278
   139.6825681   38.0717264
   139.6818812   38.0724597
   139.6811242   38.0731204
   139.6803047   38.0737019
   139.6794310   38.0741981
   139.6785119   38.0746042
   139.6775567   38.0749160
   139.6765750   38.0751303
   139.6755768   38.0752451
   139.6715585   38.0755034
   139.6713066   38.0755327
   139.6711375   38.0757217
   139.6702553   38.0768172
   139.6701125   38.0770136
   139.6701282   38.0772559
   139.6715733   38.0898765
   139.6716106   38.0901067
   139.6717106   38.0903173
   139.6811785   38.1080721
   139.6813104   38.1082913
   139.6815028   38.1084599
   139.6854536   38.1115751
   139.6861736   38.1122008
   139.6868307   38.1128922
   139.6874189   38.1136431
   139.6879330   38.1144465
   139.6883681   38.1152954
   139.6887204   38.1161818
   139.6889866   38.1170977
   139.6891644   38.1180348
   139.6892520   38.1189846
   139.6892488   38.1199385
   139.6891547   38.1208877
   139.6871354   38.1345701
   139.6871119   38.1348094
   139.6871580   38.1350455
   139.6896761   38.1452724
   139.6898771   38.1463315
   139.6899628   38.1474061
   139.6899324   38.1484837
   139.6897862   38.1495517
   139.6895583   38.1507366
   139.6893326   38.1516675
   139.6890189   38.1525725
   139.6886199   38.1534434
   139.6881396   38.1542720
   139.6875821   38.1550510
   139.6869526   38.1557730
   139.6836640   38.1591992
   139.6835114   38.1593740
   139.6835207   38.1596059
   139.6836866   38.1615008
   139.6837241   38.1624852
   139.6836645   38.1634685
   139.6835085   38.1644412
   139.6832576   38.1653938
   139.6829141   38.1663171
   139.6824815   38.1672021
   139.6819639   38.1680402
   139.6815358   38.1686625
   139.6814112   38.1688637
   139.6813934   38.1690996
   139.6813067   38.1722653
   139.6813119   38.1725055
   139.6814679   38.1726881
   139.6831691   38.1744934
   139.6838107   38.1752453
   139.6843748   38.1760569
   139.6848561   38.1769203
   139.6852498   38.1778269
   139.6855521   38.1787680
   139.6866373   38.1828256
   139.6867093   38.1830505
   139.6869356   38.1831182
   139.6883780   38.1834744
   139.6893599   38.1837710
   139.6903063   38.1841667
   139.6912071   38.1846573
   139.6920530   38.1852375
   139.6928349   38.1859013
   139.6935448   38.1866418
   139.6941750   38.1874511
   139.6947191   38.1883207
   139.6951712   38.1892414
   139.6978301   38.1954416
   139.6982032   38.1964611
   139.6984636   38.1975150
   139.6986082   38.1985909
   139.6986353   38.1996761
   139.6985071   38.2040479
   139.6985116   38.2042812
   139.6987350   38.2043485
   139.7123327   38.2077335
   139.7126012   38.2077848
   139.7128745   38.2077762
   139.7221268   38.2069737
   139.7223954   38.2069355
   139.7226373   38.2068125
   139.7270626   38.2042482
   139.7279389   38.2037966
   139.7288554   38.2034335
   139.7298033   38.2031624
   139.7307732   38.2029859
   139.7317557   38.2029058
   139.7327414   38.2029228
   139.7387660   38.2033244
   139.7389976   38.2033290
   139.7392062   38.2032284
   139.7495239   38.1976443
   139.7504163   38.1972170
   139.7513465   38.1968800
   139.7523055   38.1966365
   139.7532838   38.1964890
   139.7542720   38.1964389
   139.7552602   38.1964867
   139.7562389   38.1966319
   139.7571984   38.1968732
   139.7581295   38.1972080
   139.7590228   38.1976332
   139.7598698   38.1981446
   139.7606621   38.1987373
   139.7613919   38.1994053
   139.7615059   38.1995205
   139.7617248   38.1995938
   139.7637281   38.2001628
   139.7640017   38.2002240
   139.7642821   38.2002224
   139.7757389   38.1995063
   139.7759963   38.1994767
   139.7762320   38.1993690
   139.7793538   38.1977399
   139.7802496   38.1973273
   139.7811816   38.1970049
   139.7821409   38.1967759
   139.7831181   38.1966426
   139.7841037   38.1966061
   139.7850880   38.1966669
   139.7860616   38.1968244
   139.7870149   38.1970770
   139.7879388   38.1974222
   139.7888241   38.1978568
   139.7896623   38.1983765
   139.8098108   38.2122894
   139.8100044   38.2124103
   139.8102235   38.2124739
   139.8166426   38.2140210
   139.8177755   38.2143662
   139.8188595   38.2148429
   139.8377480   38.2245209
   139.8380048   38.2246346
   139.8382806   38.2246878
   139.8442265   38.2254885
   139.8450650   38.2256380
   139.8458877   38.2258583
   139.8466887   38.2261479
   139.8538321   38.2290796
   139.8546553   38.2294620
   139.8554405   38.2299175
   139.8561812   38.2304423
   139.8597132   38.2331942
   139.8604949   38.2338710
   139.8612026   38.2346249
   139.8618286   38.2354478
   139.8623663   38.2363310
   139.8628099   38.2372650
   139.8674110   38.2484046
   139.8675087   38.2486131
   139.8676897   38.2487554
   139.8702529   38.2505844
   139.8709779   38.2511539
   139.8716474   38.2517878
   139.8722556   38.2524807
   139.8727975   38.2532266
   139.8732683   38.2540192
   139.8736642   38.2548519
   139.8739816   38.2557175
   139.8742180   38.2566086
   139.8754465   38.2622831
   139.8755111   38.2625221
   139.8757155   38.2626619
   139.8921527   38.2727228
   139.8929658   38.2732772
   139.8937205   38.2739089
   139.8944094   38.2746118
   139.8950260   38.2753789
   139.8955641   38.2762030
   139.8960186   38.2770759
   139.8963850   38.2779893
   139.8966600   38.2789343
   139.8968407   38.2799018
   139.8976460   38.2858122
   139.8977321   38.2868318
   139.8977136   38.2878548
   139.8975906   38.2888706
   139.8973645   38.2898685
   139.8970376   38.2908380
   139.8966133   38.2917691
   139.8960961   38.2926519
   139.8954914   38.2934773
   139.8948055   38.2942366
   139.8940457   38.2949218
   139.8926786   38.2960331
   139.8919384   38.2965803
   139.8911510   38.2970571
   139.8903231   38.2974594
   139.8786299   38.3024911
   139.8784096   38.3025992
   139.8783110   38.3028239
   139.8746006   38.3125692
   139.8741987   38.3134844
   139.8737075   38.3143549
   139.8731318   38.3151720
   139.8724774   38.3159275
   139.8717509   38.3166140
   139.8709594   38.3172245
   139.8663757   38.3204080
   139.8662058   38.3205370
   139.8660611   38.3206926
   139.8606218   38.3270574
   139.8598335   38.3278799
   139.8589568   38.3286074
   139.8580030   38.3292305
   139.8470045   38.3355524
   139.8468082   38.3356779
   139.8466904   38.3358789
   139.8461383   38.3369316
   139.8456485   38.3377647
   139.8450807   38.3385466
   139.8444400   38.3392701
   139.8437325   38.3399284
   139.8429648   38.3405153
   139.8421440   38.3410253
   139.8412777   38.3414537
   139.8403742   38.3417966
   139.8394418   38.3420506
   139.8384893   38.3422134
   139.8272383   38.3435810
   139.8270072   38.3436205
   139.8268871   38.3438218
   139.8258328   38.3457984
   139.8253051   38.3466765
   139.8246903   38.3474959
   139.8239948   38.3482481
   139.8232261   38.3489253
   139.8223921   38.3495202
   139.8180424   38.3522984
   139.8171307   38.3528156
   139.8161698   38.3532344
   139.8151704   38.3535504
   139.8141434   38.3537601
   139.8131001   38.3538611
   139.8120520   38.3538523
   139.8055540   38.3534568
   139.8046893   38.3533663
   139.8038356   38.3532010
   139.8029996   38.3529622
   139.8021874   38.3526516
   139.7904278   38.3475587
   139.7902012   38.3474736
   139.7899929   38.3475969
   139.7866772   38.3497886
   139.7858828   38.3502625
   139.7850480   38.3506609
   139.7841799   38.3509804
   139.7832860   38.3512184
   139.7823739   38.3513728
   139.7814515   38.3514422
   139.7703398   38.3517631
   139.7701043   38.3517812
   139.7699166   38.3519246
   139.7643006   38.3566580
   139.7634896   38.3572738
   139.7626201   38.3578039
   139.7617013   38.3582429
   139.7607425   38.3585861
   139.7597539   38.3588300
   139.7587455   38.3589721
   139.7577279   38.3590109
   139.7567117   38.3589461
   139.7500538   38.3581792
   139.7498033   38.3581633
   139.7495892   38.3582943
   139.7316082   38.3706074
   139.7314093   38.3707590
   139.7312645   38.3709629
   139.7276406   38.3766590
   139.7275137   38.3768835
   139.7275161   38.3771365
   139.7274775   38.3781143
   139.7273435   38.3790836
   139.7271154   38.3800353
   139.7267954   38.3809600
   139.7263865   38.3818491
   139.7258926   38.3826939
   139.7253186   38.3834864
   139.7246699   38.3842191
   139.7239526   38.3848848
   139.7231737   38.3854772
   139.7223407   38.3859906
   139.7214614   38.3864202
   139.7205444   38.3867618
   139.7195984   38.3870121
   139.7186324   38.3871687
   139.7176558   38.3872302
   139.7166778   38.3871959
   139.7157079   38.3870662
   139.7147553   38.3868424
   139.7138291   38.3865265
   139.7129382   38.3861215
   139.7120912   38.3856315
   139.7117977   38.3854419
   139.7115691   38.3854848
   139.7088477   38.3861312
   139.7086075   38.3862013
   139.7084511   38.3863964
   139.7037479   38.3929150
   139.7036118   38.3931253
   139.7035447   38.3933667
   139.7021535   38.3995713
   139.7021122   38.3998097
   139.7021650   38.4000459
   139.7042367   38.4075702
   139.7043099   38.4077938
   139.7044776   38.4079590
   139.7088297   38.4118545
   139.7095662   38.4125860
   139.7102229   38.4133899
   139.7107927   38.4142576
   139.7112695   38.4151797
   139.7154076   38.4243159
   139.7157514   38.4251796
   139.7160135   38.4260715
   139.7161916   38.4269838
   139.7162842   38.4279088
   139.7162906   38.4288383
   139.7162106   38.4297645
   139.7160450   38.4306792
   139.7152496   38.4341438
   139.7152099   38.4343605
   139.7152286   38.4345799
   139.7170326   38.4484711
   139.7171092   38.4493939
   139.7171001   38.4503198
   139.7170055   38.4512409
   139.7168260   38.4521493
   139.7165633   38.4530372
   139.7162196   38.4538970
   139.7141137   38.4585298
   139.7140150   38.4587831
   139.7140036   38.4590549
   139.7140602   38.4633863
   139.7140246   38.4643702
   139.7138924   38.4653458
   139.7136649   38.4663038
   139.7133443   38.4672347
   139.7129338   38.4681295
   139.7124372   38.4689797
   139.7109262   38.4712965
   139.7108101   38.4714939
   139.7107733   38.4717194
   139.7102303   38.4763796
   139.7102139   38.4766380
   139.7103041   38.4768806
   139.7118041   38.4803483
   139.7119097   38.4805633
   139.7121654   38.4808397
   139.7128025   38.4816011
   139.7133611   38.4824220
   139.7138354   38.4832941
   139.7142210   38.4842090
   139.7145139   38.4851577
   139.7147113   38.4861307
   139.7148112   38.4871184
   139.7148128   38.4881113
   139.7147158   38.4890993
   139.7145214   38.4900729
   139.7142314   38.4910225
   139.7138486   38.4919385
   139.7133769   38.4928121
   139.7128209   38.4936347
   139.7121861   38.4943980
   139.7114787   38.4950947
   139.7107057   38.4957177
   139.7098747   38.4962610
   139.7089940   38.4967193
   139.7080722   38.4970880
   139.7071183   38.4973634
   139.7061419   38.4975429
   139.7020444   38.4980875
   139.7018065   38.4981312
   139.7016508   38.4983163
   139.7006881   38.4995832
   139.7001107   38.5002759
   139.6994732   38.5009138
   139.6987808   38.5014916
   139.6980392   38.5020047
   139.6972544   38.5024490
   139.6945031   38.5038463
   139.6935760   38.5042594
   139.6926119   38.5045764
   139.6916206   38.5047940
   139.6906123   38.5049100
   139.6895975   38.5049233
   139.6885865   38.5048336
   139.6807695   38.5037378
   139.6805004   38.5037149
   139.6802326   38.5037506
   139.6648575   38.5066629
   139.6639516   38.5067919
   139.6630378   38.5068375
   139.6621237   38.5067994
   139.6524395   38.5059510
   139.6522024   38.5059417
   139.6519878   38.5060430
   139.6483984   38.5079551
   139.6474497   38.5083983
   139.6464599   38.5087399
   139.6454398   38.5089762
   139.6372348   38.5104284
   139.6370064   38.5104802
   139.6368590   38.5106622
   139.6316025   38.5178288
   139.6310156   38.5185553
   139.6303634   38.5192238
   139.6296518   38.5198286
   139.6288868   38.5203644
   139.6280752   38.5208264
   139.6272240   38.5212108
   139.6214783   38.5234883
   139.6205942   38.5237918
   139.6196857   38.5240114
   139.6187607   38.5241452
   139.6178271   38.5241920
   139.6168933   38.5241515
   139.6159674   38.5240239
   139.5994305   38.5209528
   139.5992034   38.5209216
   139.5990291   38.5210705
   139.5941021   38.5256972
   139.5934320   38.5262730
   139.5927136   38.5267874
   139.5919527   38.5272363
   139.5911551   38.5276164
   139.5810353   38.5319004
   139.5808081   38.5320106
   139.5806435   38.5322019
   139.5796848   38.5334386
   139.5790488   38.5341810
   139.5783435   38.5348578
   139.5775754   38.5354624
   139.5767519   38.5359892
   139.5758809   38.5364330
   139.5749708   38.5367897
   139.5740302   38.5370558
   139.5730681   38.5372288
   139.5720937   38.5373071
   139.5706361   38.5373526
   139.5704035   38.5373709
   139.5702048   38.5374930
   139.5669501   38.5397098
   139.5660078   38.5402784
   139.5650087   38.5407400
   139.5639650   38.5410889
   139.5628892   38.5413211
   139.5602720   38.5417368
   139.5600057   38.5417943
   139.5597724   38.5419350
   139.5549202   38.5452404
   139.5540978   38.5457443
   139.5532308   38.5461666
   139.5523271   38.5465034
   139.5513952   38.5467517
   139.5504437   38.5469090
   139.5494814   38.5469739
   139.5485174   38.5469458
   139.5475606   38.5468250
   139.5466198   38.5466125
   139.5457039   38.5463105
   139.5448214   38.5459216
   139.5439804   38.5454495
   139.5431888   38.5448985
   139.5424540   38.5442739
   139.4912744   38.4963334
   139.4910982   38.4961835
   139.4908891   38.4962825
   138.9327225   38.7939513
   138.9325126   38.7940773
   138.9325072   38.7943221
   138.9862931   40.6802865
   138.9863113   40.6805228
   138.9865171   40.6806405
   140.8682920   41.6380842
   140.8685026   41.6381792
   140.8687334   41.6381909
   140.9647813   41.6385744
   140.9657503   41.6386253
   140.9667098   41.6387700
   140.9676508   41.6390069
   140.9685644   41.6393339
   140.9694419   41.6397480
   140.9702753   41.6402451
   140.9710565   41.6408206
   140.9717782   41.6414692
   140.9724337   41.6421847
   140.9730168   41.6429603
   140.9735220   41.6437888
   140.9739444   41.6446623
   140.9742803   41.6455727
   140.9745263   41.6465113
   140.9746802   41.6474694
   140.9747405   41.6484378
   140.9747066   41.6494076
   140.9745789   41.6503695
   140.9743586   41.6513145
   140.9740478   41.6522337
   140.9736493   41.6531184
   140.9731670   41.6539604
   140.9726053   41.6547517
   140.9719695   41.6554847
   140.9712658   41.6561528
   140.9705005   41.6567494
   140.9696811   41.6572691
   140.9688151   41.6577069
   140.9679108   41.6580588
   140.9669767   41.6583213
   140.9660215   41.6584920
   140.9650542   41.6585694
   140.9499548   41.6590420
   140.9497017   41.6590629
   140.9494521   41.6591094
   140.9335387   41.6629228
   140.9333039   41.6629914
   140.9330770   41.6630827
   140.8775870   41.6886365
   140.8766400   41.6890154
   140.8756593   41.6892958
   140.8746552   41.6894748
   140.8736380   41.6895507
   140.8726184   41.6895225
   140.8716070   41.6893906
   140.8706143   41.6891564
   140.8696506   41.6888222
   140.8687259   41.6883917
   139.8628939   41.1559926
   139.8626970   41.1558992
   139.8624826   41.1558603
   139.8500203   41.1541564
   139.8497790   41.1541294
   139.8140192   41.1509992
   139.8135800   41.1509801
   139.7845065   41.1509999
   139.7840942   41.1510172
   139.7561359   41.1533503
   139.7556670   41.1534119
   139.7189880   41.1600083
   139.7181969   41.1601182
   139.7173995   41.1601645
   137.9348415   41.1925156
   137.9346160   41.1925306
   137.9346895   41.1927444
   138.3602096   42.2596332
   138.3603106   42.2598545
   138.3604327   42.2600649
   140.6632658   45.8151929
   140.6634061   45.8153876
   140.6636458   45.8153779
   141.2593287   45.7617954
   141.2596699   45.7617528
   142.0709389   45.6320698
   142.0710608   45.6320487
   142.9096735   45.4766305
   142.9103156   45.4764668
   144.3884166   44.9931773
   144.3885824   44.9931198
   145.7535742   44.4931327
   145.7537878   44.4930426
   145.7537696   44.4928114
   145.7237328   44.2572469
   145.7236874   44.2569959
   145.7235238   44.2568002
   145.3366357   43.8399598
   145.3359928   43.8391935
   145.3354296   43.8383668
   145.3349518   43.8374880
   145.3345642   43.8365659
   145.3342707   43.8356096
   145.3340741   43.8346288
   145.3339766   43.8336333
   145.3339790   43.8326330
   145.3340813   43.8316379
   145.3342825   43.8306581
   145.3345806   43.8297033
   145.3349726   43.8287830
   145.3354545   43.8279064
   145.3360217   43.8270825
   145.3385493   43.8237770
   145.3386846   43.8235806
   145.3385336   43.8233961
   145.3270662   43.8107280
   145.3264549   43.8099837
   145.3259181   43.8091839
   145.3254607   43.8083362
   145.3250870   43.8074485
   145.3248005   43.8065289
   145.3246037   43.8055860
   145.3244986   43.8046285
   145.3244860   43.8036654
   145.3245662   43.8027056
   145.3247384   43.8017579
   145.3250009   43.8008311
   145.3253514   43.7999340
   145.3257866   43.7990747
   145.3263024   43.7982612
   145.3995581   43.6941847
   145.4001602   43.6934126
   145.4008350   43.6927030
   145.4015759   43.6920628
   145.4023759   43.6914982
   145.4032272   43.6910145
   145.4041218   43.6906164
   145.4549865   43.6709028
   145.4551935   43.6708114
   145.4553389   43.6706379
   145.4739211   43.6462725
   145.4745330   43.6455447
   145.4752112   43.6448784
   145.4759496   43.6442795
   145.4767415   43.6437534
   145.4775798   43.6433049
   145.4784570   43.6429381
   145.7322070   43.5507202
   145.7325866   43.5505642
   145.7800627   43.5287490
   145.7802904   43.5286296
   145.7804283   43.5284126
   145.8121021   43.4722536
   145.8121928   43.4720767
   145.8122691   43.4718931
   145.8423187   43.3906132
   145.8426625   43.3897965
   145.8430773   43.3890135
   145.8435597   43.3882702
   145.8441061   43.3875725
   145.8447120   43.3869260
   146.0087217   43.2267841
   146.0088878   43.2266049
   146.0089000   43.2263608
   146.0089000   43.2248363
   146.0089938   43.2234702
   146.2475670   41.4934693
   146.2475873   41.4932415
   146.2473585   41.4932376
   141.7901579   41.6327443
   141.7891923   41.6327279
   141.7882327   41.6326184
   141.7872882   41.6324168
   141.7863676   41.6321251
   141.7854793   41.6317459
   141.7846318   41.6312828
   141.7838330   41.6307401
   141.7830902   41.6301229
   141.7824104   41.6294369
   141.7817999   41.6286886
   141.7812645   41.6278848
   141.7808091   41.6270331
   141.7804380   41.6261415
   141.7801546   41.6252182
   141.7799617   41.6242719
   141.7798609   41.6233114
   141.7798532   41.6223457
   141.7799387   41.6213837
   141.7801167   41.6204345
   141.7803853   41.6195068
   141.7807422   41.6186094
   142.8780927   39.2057158
   142.8781859   39.2054791
   142.8781238   39.2052324
   142.8664610   39.1673182
   142.8663920   39.1671232
   142.8662921   39.1669429
   141.2676911   36.5430395
   141.2672166   36.5421657
   141.2668313   36.5412491
   141.2665389   36.5402988
   141.2663422   36.5393241
   141.2662434   36.5383347
   141.2662433   36.5373404
   141.2663420   36.5363510
   141.2665384   36.5353763
   141.2668306   36.5344259
   141.2672158   36.5335093
   141.2676901   36.5326354
   141.2682488   36.5318129
   141.2688865   36.5310500
   141.2695967   36.5303542
   153.8803953   25.3490015
   153.8805877   25.3488111
   153.8807085   25.3485689
   154.4708025   23.9827556
   154.4708840   23.9825383
   154.4706596   23.9824789
   149.1255417   22.8456714
   149.1250544   22.8455927
   142.0892149   22.0632343
   142.0882435   22.0630776
   142.0872922   22.0628261
   142.0863702   22.0624824
   142.0854865   22.0620498
   142.0846496   22.0615324
   142.0838676   22.0609353
   142.0831480   22.0602642
   142.0824979   22.0595256
   142.0819235   22.0587267
   141.5487336   21.2344266
   141.5485927   21.2342306
   141.5483594   21.2341688
   136.1325241   20.0823277
   136.1323000   20.0822906
   136.1320779   20.0823364
   134.5759425   20.4774684
   134.5757148   20.4775385
   134.5757689   20.4777705
END
END
