asia-indonesia-outer
1
   104.2413362   -6.6205116
   101.8964364   -7.1698736
   101.8960558   -7.1697336
   92.7649560   5.2066371
   92.7650217   5.2069603
   95.7937044   6.9992024
   95.7941167   6.9991748
   100.6618495   3.1586109
   101.4409954   2.5599829
   101.4418342   2.5594039
   101.7150729   2.3906694
   102.4500427   1.8442043
   102.4505691   1.8438385
   103.2349614   1.3352637
   103.2367296   1.3343530
   103.4289078   1.2584829
   103.4466665   1.2457601
   103.4493417   1.2443905
   103.5485712   1.2112520
   103.5651638   1.2046978
   103.5807045   1.2007297
   103.6173847   1.1962246
   103.6644288   1.1887277
   103.7356768   1.1531433
   103.7440441   1.1528810
   103.8767917   1.2090895
   104.0373954   1.2767508
   104.0378218   1.2768467
   104.3517982   1.2905237
   104.3561259   1.2917214
   104.4371692   1.3356203
   104.6010559   1.4229151
   104.6056528   1.4280606
   104.6475163   1.5338183
   105.3579111   3.2429540
   105.3581885   3.2433028
   108.1769971   5.2594809
   108.1773187   5.2594066
   109.5284851   2.7611625
   109.7243435   2.3879521
   109.7284453   2.3838007
   109.7333215   2.3823870
   109.7536670   2.3444025
   109.6846309   1.8063392
   109.6852674   1.8013463
   109.7691864   1.5919715
   109.7719656   1.5880950
   110.1373130   1.2753638
   110.5650966   0.9301940
   110.5717954   0.9279853
   110.5748134   0.9285859
   110.8334022   1.0232370
   110.8340092   1.0234165
   111.1971668   1.1061799
   111.1976387   1.1062180
   111.6897308   1.0752560
   111.6930126   1.0755949
   112.0866028   1.1839317
   112.0907709   1.1862613
   112.0938440   1.1921278
   112.1271646   1.4202496
   112.1273962   1.4206387
   112.3672002   1.5999007
   112.3676492   1.6000608
   112.8572750   1.6213332
   112.8577194   1.6212924
   113.0842535   1.5690309
   113.0845825   1.5687348
   113.1103266   1.4941156
   113.1164490   1.4879481
   113.6254515   1.3081418
   113.6340888   1.3090949
   113.9110844   1.4825140
   113.9115540   1.4826619
   114.5146917   1.5133491
   114.5184754   1.5143040
   114.5238885   1.5209251
   114.7004429   2.2315871
   114.7006995   2.2319447
   114.9232523   2.3744404
   114.9276916   2.3810344
   115.0057530   2.8009563
   115.0059652   2.8014060
   115.2081494   3.0425084
   115.2085232   3.0427596
   115.3659716   3.0932935
   115.3714384   3.0975843
   115.4955465   3.2998003
   115.4968440   3.3031442
   115.5545989   3.6037225
   115.5547760   3.6058343
   115.5479061   3.9112577
   115.5480070   3.9117742
   115.6611111   4.1731825
   115.6613553   4.1735493
   115.8600333   4.3798849
   115.8604402   4.3800665
   116.5393023   4.4041590
   116.5396976   4.4041574
   117.2492418   4.3731763
   117.2497189   4.3730276
   117.3954748   4.2815426
   117.5002058   4.2068393
   117.5050837   4.2050234
   117.6238644   4.1939971
   117.8381154   4.1982154
   117.9606619   4.2051525
   117.9611322   4.2051118
   118.2881676   4.1287103
   118.2885303   4.1284560
   119.7819149   1.8369508
   119.7854622   1.8336548
   119.7901421   1.8324118
   124.0227127   1.7686343
   124.0290747   1.7707961
   124.0323767   1.7755516
   125.0033258   4.7730061
   125.0036394   4.7732597
   125.1349918   4.7867875
   125.1401888   4.7889059
   125.7361238   5.2624795
   126.6206029   5.9481052
   126.6209478   5.9480571
   127.2743280   5.0597256
   127.2758595   5.0580721
   127.3974850   4.9533701
   127.3978679   4.9529563
   127.6499529   4.6094845
   127.6501580   4.6090422
   127.8745933   3.6730111
   127.8770152   3.6685109
   127.8803751   3.6661528
   129.7702758   2.8553812
   129.7704987   2.8550410
   129.7610451   1.1187297
   129.7632902   1.1123616
   129.7690709   1.1088721
   129.7748622   1.1094325
   129.7781149   1.1116030
   130.7426338   2.0758008
   130.7430322   2.0759308
   133.2922092   1.6781794
   133.2927722   1.6780221
   134.6481876   1.1206324
   134.6486035   1.1204385
   140.3348177   -1.8544389
   140.5083029   -1.9535764
   140.5086442   -1.9538643
   141.0124431   -2.5662063
   141.0125993   -2.5666440
   141.0017005   -6.2974638
   141.0207000   -6.8819232
   141.0216999   -9.1605001
   141.0216575   -9.1611511
   140.9779324   -9.4948691
   140.9776539   -9.4950781
   138.8508996   -9.1672038
   138.8505079   -9.1671105
   137.4831445   -8.7222925
   137.4827686   -8.7219920
   135.4026582   -5.2241222
   135.3992096   -5.2206595
   135.3925630   -5.2193467
   135.3880568   -5.2212382
   135.3841563   -5.2278719
   135.0384335   -7.7434024
   135.0381621   -7.7437079
   128.2001316   -9.5218783
   128.1952583   -9.5248194
   128.1932699   -9.5280859
   128.1939274   -9.5364499
   128.4078799   -9.9177479
   128.4077665   -9.9180380
   123.2212252   -11.6064767
   123.2207662   -11.6065125
   122.6570483   -11.5162206
   119.2568557   -10.8980765
   119.2563594   -10.8979317
   114.9913055   -9.1560848
   115.0350725   -9.5409128
   115.0348597   -9.5411143
   114.7627388   -9.4949892
   114.7811280   -9.3590223
   114.7843301   -9.3336402
   114.8291750   -8.9494471
   114.8344286   -8.9157904
   114.8498493   -8.8378375
   114.8655189   -8.7432791
   114.8680908   -8.7300305
   114.8628354   -8.7184827
   114.8533697   -8.6997197
   114.8433220   -8.6817120
   114.8326739   -8.6644280
   114.8214569   -8.6479184
   114.8149994   -8.6399422
   114.8015339   -8.6262402
   114.7876689   -8.6133649
   114.7414460   -8.5743525
   114.7279485   -8.5670963
   114.7083986   -8.5577118
   114.6888674   -8.5497607
   114.6693316   -8.5432341
   114.6498145   -8.5381405
   114.6383730   -8.5359917
   114.6213785   -8.5316807
   114.6048730   -8.5263446
   114.5540968   -8.5060513
   114.5440419   -8.4906353
   114.5336364   -8.4714483
   114.5305150   -8.4642417
   114.5204741   -8.4458115
   114.4950449   -8.4083539
   114.4764345   -8.3866085
   114.4694414   -8.3779014
   114.4623399   -8.3707564
   114.4544825   -8.3370150
   114.4308135   -8.2329599
   114.4313250   -8.2162895
   114.4305166   -8.2129632
   114.4310798   -8.1961338
   114.4302140   -8.1929689
   114.4308422   -8.1759797
   114.4299013   -8.1729697
   114.4307464   -8.1557927
   114.4311151   -8.1367310
   114.4318174   -8.1353606
   114.4315358   -8.1173084
   114.4344678   -8.1127224
   114.4363038   -8.0991530
   114.4422168   -8.0813308
   114.4587622   -8.0681647
   114.4596154   -8.0668546
   114.4751408   -8.0548196
   114.4771131   -8.0524084
   114.4915153   -8.0413771
   114.4946490   -8.0379720
   114.5468573   -7.9982579
   114.5776000   -7.9787095
   114.5902425   -7.9637021
   114.6738552   -7.9105057
   114.6971339   -7.8968954
   114.7245117   -7.8764735
   114.7344822   -7.8686546
   114.8158998   -7.8086375
   114.8444095   -7.7863632
   114.8687422   -7.7663220
   114.9248450   -7.6112277
   114.9329633   -7.5875846
   114.9414093   -7.5825289
   115.0570862   -7.5112358
   115.1715354   -7.5243919
   115.1816817   -7.5254603
   115.3542062   -7.5419595
   115.3665975   -7.5429706
   115.3823348   -7.5524446
   115.4591256   -7.5969970
   115.5246499   -7.6264196
   115.5623823   -7.6442094
   115.5804699   -7.6524145
   115.6170079   -7.6677217
   115.6355237   -7.6748518
   115.6729531   -7.6880284
   115.6919344   -7.6940978
   115.7155820   -7.7011604
   115.7427896   -7.7098971
   115.8085069   -7.7324864
   115.8280412   -7.7388006
   115.9354938   -7.7713800
   116.0115453   -7.7385422
   116.0299822   -7.7309605
   116.1194917   -7.6959721
   116.1543173   -7.6813460
   116.1716140   -7.6735704
   116.2058517   -7.6571498
   116.3449109   -7.5861992
   116.3585801   -7.5794207
   116.7021030   -7.4138892
   116.7210477   -7.4028623
   116.9496505   -7.2663006
   117.0372064   -7.1278677
   117.0493090   -7.1083751
   117.0876027   -7.0454307
   117.4608038   -6.4441137
   117.5892774   -6.1780546
   117.4626082   -5.9211549
   116.7880979   -5.9306606
   116.7251803   -5.9322542
   116.4023201   -5.9441311
   116.1607681   -5.9167404
   116.1238900   -5.9121442
   116.0687762   -5.9046419
   115.8678306   -5.8745756
   115.8553402   -5.8726320
   115.5501727   -5.8233135
   115.5177959   -5.8176808
   115.4854694   -5.8115234
   115.3414156   -5.7822990
   115.3234973   -5.7785064
   115.2878263   -5.7704861
   115.2699570   -5.7662332
   115.2342011   -5.7572535
   114.9385174   -5.6791043
   114.5976268   -5.5917527
   114.5828428   -5.5950434
   114.2498380   -5.5116715
   114.2171887   -5.5031810
   114.1753908   -5.4919565
   114.1086775   -5.4745971
   113.6252049   -4.9012735
   113.6033533   -4.8748102
   113.4796992   -4.7218567
   113.4464178   -4.7070228
   113.3999582   -4.6872295
   113.0900430   -4.5599690
   113.0216098   -4.5618740
   112.9007400   -4.5662149
   112.8954169   -4.5665533
   112.5474342   -4.5902834
   112.4422066   -4.5948948
   111.7424301   -4.8346481
   111.6862906   -4.8530204
   111.6672152   -4.8589768
   111.5050613   -4.9084140
   111.4708039   -4.8864907
   111.4401527   -4.8672833
   111.4094872   -4.8486060
   110.8973202   -4.5433509
   110.7825571   -4.4759744
   110.7493133   -4.4701127
   110.1922307   -4.4289614
   110.0179589   -4.4410391
   109.9902745   -4.4427653
   109.3282621   -4.4794616
   109.1180051   -4.6510654
   109.1126495   -4.6513231
   108.4544465   -4.7137100
   108.3720917   -4.7171256
   108.3389857   -4.7187661
   108.3061356   -4.7207491
   108.2354027   -4.7255942
   108.1592219   -4.7227837
   107.8065914   -4.6402421
   107.7337269   -4.6328558
   107.6761328   -4.6262211
   107.3927058   -4.5896203
   107.2792006   -4.5647004
   107.1723195   -4.6533991
   107.0405315   -4.7740848
   106.9470030   -4.8799098
   106.9322981   -4.8968152
   106.7157151   -5.1498761
   106.6661970   -5.2061480
   106.6604685   -5.2152566
   106.5954520   -5.2766175
   106.3694021   -5.4190193
   106.3642357   -5.4223912
   106.3313794   -5.4540850
   106.3151949   -5.4692299
   106.1787425   -5.5496781
   106.1157576   -5.6039502
   106.0854728   -5.6288119
   106.0683814   -5.6435230
   106.0523059   -5.6583017
   105.9863875   -5.7232959
   105.9598319   -5.7496763
   105.9496721   -5.7607855
   105.9394906   -5.7749988
   105.9289572   -5.7919483
   105.9198208   -5.8091934
   105.9020951   -5.8437983
   105.8821469   -5.8918120
   105.8689360   -5.9176360
   105.8286634   -5.9624521
   105.8246955   -5.9673423
   105.8124383   -5.9803153
   105.7710764   -6.0179222
   105.7584687   -6.0281133
   105.7449656   -6.0378451
   105.6963677   -6.0691383
   105.6751910   -6.0813145
   105.6524495   -6.0930374
   105.6281371   -6.1043090
   105.6023032   -6.1151076
   105.5749012   -6.1254536
   105.5459279   -6.1353473
   105.4752201   -6.1572008
   105.4596246   -6.1553908
   105.4124703   -6.1591630
   105.3706907   -6.1395043
   105.3128450   -6.1442603
   105.2852458   -6.1472660
   105.1736331   -6.1624482
   105.1403777   -6.1658578
   105.1073577   -6.1684523
   105.0814728   -6.1714788
   105.0296176   -6.1762255
   105.0289247   -6.1765591
   104.9395893   -6.2439175
   104.9133290   -6.2624814
   104.8983088   -6.2723801
   104.8091917   -6.3319203
   104.7949033   -6.3410715
   104.6818581   -6.4104634
   104.6619501   -6.4232527
   104.6420831   -6.4365828
   104.6221828   -6.4505030
   104.6022728   -6.4649973
   104.5823266   -6.4800861
   104.5624273   -6.4957054
   104.3138728   -6.6978665
   104.2413362   -6.6205116
END
END
