asia-russia-far-east
1
   147.7132224   81.8872339
   147.6959745   81.8347368
   147.6956662   81.8344618
   115.3935434   75.1766925
   179.9997548   82.0002041
   180.0000000   81.9999835
   180.0000000   37.3468355
   179.9997545   37.3465900
   172.1704723   37.3465900
   172.1699342   37.3466488
   146.0521230   43.1259007
   146.0517505   43.1261227
   145.8298466   43.3824192
   145.8263840   43.3849956
   145.4935647   43.5344911
   145.4930697   43.5347866
   145.1954955   43.7630101
   145.1954311   43.7633686
   145.4308107   44.1377637
   145.4318873   44.1400958
   145.5932836   44.6551244
   145.5933275   44.6609611
   145.5901055   44.6658280
   145.5866486   44.6676828
   142.5868328   45.5792273
   142.5853418   45.5795585
   140.7940119   45.8358574
   140.7864451   45.8338431
   133.2676973   39.9689739
   133.2673150   39.9689884
   130.8995005   42.1232317
   130.8977622   42.1245002
   130.6270991   42.2804053
   130.6267905   42.2807220
   130.5040184   42.5072015
   130.5040185   42.5076384
   130.5525437   42.5970889
   130.5533524   42.6046619
   130.5501999   42.6095023
   130.5468030   42.6113810
   130.3949531   42.6599990
   130.3945449   42.6602958
   130.3443466   42.7301261
   130.3444091   42.7304691
   130.5418727   42.8618388
   130.5423638   42.8620601
   130.8020313   42.9310186
   130.8025773   42.9310694
   130.9550924   42.9197604
   130.9608884   42.9211057
   131.0475088   42.9718735
   131.0523597   42.9791430
   131.0671651   43.0871654
   131.0673940   43.0875885
   131.1466407   43.1564186
   131.1500801   43.1642228
   131.1481066   43.2417718
   131.1482218   43.2422578
   131.2372507   43.4087640
   131.2384306   43.4136505
   131.2365306   43.4193456
   131.1362359   43.5578024
   131.1361264   43.5582201
   131.1855706   43.9896833
   131.1857301   43.9901633
   131.2359171   44.0763225
   131.2368559   44.0842246
   131.0661836   44.6541532
   131.0633949   44.6586250
   130.9171751   44.7938980
   130.9170082   44.7942985
   130.9200914   44.8835316
   130.9203129   44.8839083
   131.0876750   44.9847744
   131.0881607   44.9849420
   131.4399045   45.0281404
   131.4439769   45.0295804
   131.5996351   45.1266464
   131.6038994   45.1321841
   131.6432274   45.2596747
   131.6435419   45.2599561
   131.7371590   45.2778055
   131.7416873   45.2799458
   131.8760164   45.3918670
   131.8764040   45.3918955
   132.0279517   45.2994327
   132.0308363   45.2982430
   132.9308326   45.0832201
   132.9379907   45.0841926
   133.0501040   45.1461091
   133.0541332   45.1502329
   133.0552161   45.1558957
   133.0403275   45.2992756
   133.0404103   45.2997818
   133.1503030   45.5406774
   133.1506157   45.5409800
   133.3509608   45.6245483
   133.3567245   45.6310239
   133.4253371   45.8705605
   133.4255814   45.8709187
   133.6626657   46.0521804
   133.6652343   46.0550935
   133.6664693   46.0616863
   133.6469390   46.1852136
   133.6471151   46.1855862
   133.8255477   46.2902776
   133.8299298   46.2956107
   133.8303465   46.3005741
   133.7971409   46.4964485
   133.7972603   46.4968752
   133.9638073   46.6892241
   133.9661341   46.6942687
   134.0128652   47.0020208
   134.0130662   47.0024116
   134.1630820   47.1482165
   134.1652487   47.1513223
   134.1658062   47.1578428
   134.1641982   47.1612713
   134.1006460   47.2486093
   134.1005648   47.2490496
   134.1254328   47.3409518
   134.1256984   47.3413636
   134.2983972   47.4837528
   134.2988593   47.4839629
   134.5153078   47.5197787
   134.5210297   47.5228687
   134.7042349   47.7217157
   134.7067414   47.7268293
   134.7045341   47.7349277
   134.4937588   47.9855711
   134.4937150   47.9859783
   134.6777323   48.3352090
   134.6786595   48.3419841
   134.6757721   48.3471214
   134.6685060   48.3498635
   134.2181415   48.3327671
   134.2157078   48.3323705
   133.7894599   48.2074177
   133.7845431   48.2041658
   133.7355495   48.1444722
   133.7351645   48.1442817
   133.6276789   48.1404898
   133.6212833   48.1378759
   133.5532826   48.0756970
   133.5528528   48.0755181
   133.0812743   48.0528732
   133.0761918   48.0511951
   132.8260114   47.8837515
   132.8255457   47.8836152
   132.7387675   47.8854010
   132.7338690   47.8842337
   132.7296527   47.8799451
   132.6441067   47.7121492
   132.6437980   47.7118201
   132.5682135   47.6669468
   132.5677548   47.6668594
   132.3324459   47.7046911
   132.3283919   47.7045089
   131.9640480   47.6117731
   131.9635473   47.6117508
   131.7168287   47.6516092
   131.7115322   47.6510268
   131.5965347   47.6052035
   131.5960820   47.6052378
   131.4538250   47.6886379
   131.4471266   47.6898756
   131.0998534   47.6321122
   131.0993457   47.6321067
   130.9678552   47.6510931
   130.9674765   47.6513564
   130.8419232   47.8815971
   130.8395136   47.8845183
   130.6075986   48.0761559
   130.6074385   48.0765747
   130.6184640   48.1494916
   130.6186605   48.1499099
   130.7512998   48.2985604
   130.7538302   48.3056210
   130.7525125   48.3101940
   130.6811826   48.4345422
   130.6776135   48.4381651
   130.6737493   48.4394891
   130.5907435   48.4498696
   130.5904120   48.4501290
   130.5547378   48.5429494
   130.5505396   48.5479421
   130.4750164   48.5931505
   130.4748937   48.5935142
   130.5556308   48.7952330
   130.5563444   48.7991697
   130.5544490   48.8048103
   130.5496846   48.8083754
   130.4306358   48.8505283
   130.4260468   48.8510232
   130.1981274   48.8222787
   130.1977007   48.8223631
   129.8922952   48.9956492
   129.8919561   48.9959323
   129.6911871   49.2364318
   129.6835389   49.2400233
   129.5410555   49.2404293
   129.5406902   49.2406607
   129.4781044   49.3721777
   129.4743682   49.3763647
   129.4708515   49.3777215
   129.4350996   49.3841767
   129.4311449   49.3840958
   129.4253889   49.3804231
   129.3669505   49.3042562
   129.3665617   49.3041260
   129.2208483   49.3445008
   129.2151803   49.3444040
   129.0797304   49.3018424
   129.0793246   49.3019359
   128.9751944   49.4004599
   128.9692818   49.4031497
   128.7493430   49.4243666
   128.7489630   49.4245920
   128.6902592   49.5111272
   128.6843645   49.5152257
   128.5485371   49.5485206
   128.5444339   49.5486587
   128.1808320   49.4850806
   128.1803659   49.4850657
   127.8413508   49.5223224
   127.8408802   49.5224739
   127.6585037   49.6252352
   127.6582083   49.6255651
   127.6172544   49.7216004
   127.6116670   49.7270030
   127.5006209   49.7700044
   127.5003405   49.7703193
   127.4377632   50.0115365
   127.4378317   50.0119943
   127.5393266   50.1771688
   127.5407941   50.1829021
   127.5398094   50.1867570
   127.5348794   50.1915371
   127.2874263   50.3018891
   127.2872094   50.3022376
   127.2907752   50.3962604
   127.2890462   50.4022705
   127.2365346   50.4793324
   127.2365248   50.4797339
   127.2949011   50.5750945
   127.2962690   50.5788822
   127.2953133   50.5847943
   127.2302416   50.7146988
   127.2289163   50.7167009
   127.0847616   50.8860975
   127.0828038   50.8878622
   126.8735027   51.0314809
   126.8732553   51.0318617
   126.8435702   51.1923086
   126.8414573   51.1968453
   126.7586638   51.2974110
   126.7585864   51.2978528
   126.7826921   51.3655787
   126.7831609   51.3704119
   126.7806751   51.3756535
   126.7257614   51.4361422
   126.7256753   51.4365480
   126.7460208   51.4981377
   126.7458129   51.5049816
   126.7421056   51.5095726
   126.6211984   51.5908766
   126.6211052   51.5912247
   126.6591663   51.6689321
   126.6599636   51.6754268
   126.6572768   51.6803818
   126.4074620   51.9316171
   126.4072681   51.9320075
   126.3914329   52.0449352
   126.3915994   52.0452984
   126.4633742   52.0915179
   126.4667140   52.0950912
   126.4679211   52.1008082
   126.4668130   52.1045760
   126.4608819   52.1094891
   126.2713434   52.1673956
   126.2711124   52.1677242
   126.2812389   52.3752883
   126.2792833   52.3817320
   126.2746238   52.3851896
   126.1547324   52.4281467
   126.1544181   52.4284629
   126.1240405   52.5148692
   126.1220936   52.5181816
   126.1172370   52.5212004
   125.9401363   52.5694856
   125.9398218   52.5697821
   125.9116752   52.6533267
   125.9117177   52.6537541
   125.9394172   52.7017840
   125.9404534   52.7092158
   125.9375551   52.7141115
   125.8062533   52.8359024
   125.7985796   52.8385326
   125.6316492   52.8239018
   125.6313124   52.8241143
   125.6027848   52.9003932
   125.6028189   52.9008309
   125.6358177   52.9593386
   125.6371034   52.9639624
   125.6344478   52.9710425
   125.5898031   53.0192953
   125.5874990   53.0211433
   125.5798657   53.0221608
   125.4941334   52.9991028
   125.4936787   52.9991372
   125.1510445   53.1496799
   125.1461490   53.1504864
   124.9598991   53.1341645
   124.9560927   53.1330403
   124.9515027   53.1279549
   124.9248959   53.0622269
   124.9245478   53.0619483
   124.8534611   53.0501932
   124.8529642   53.0502701
   124.6556198   53.1507930
   124.6517625   53.1518592
   124.4176493   53.1678530
   124.4172038   53.1680248
   124.2291913   53.3163360
   124.2213165   53.3183423
   124.0985402   53.2974010
   124.0980877   53.2974796
   123.8621684   53.4303954
   123.8594805   53.4314333
   123.6211019   53.4857230
   123.6163188   53.4856388
   123.4702249   53.4469096
   123.4697777   53.4469186
   123.2760480   53.5066633
   123.2686034   53.5060389
   123.1576376   53.4501597
   123.1571368   53.4500010
   122.8516874   53.4046826
   122.8511096   53.4046310
   122.4355248   53.3916970
   122.4350945   53.3917814
   122.3274816   53.4396580
   122.3215043   53.4403368
   122.1088063   53.3988884
   122.1046305   53.4174213
   122.0984239   53.4363670
   122.0905697   53.4540226
   122.0810694   53.4703852
   122.0684982   53.4901943
   122.0614052   53.5025946
   122.0584161   53.5066393
   122.0515770   53.5186934
   122.0483327   53.5230853
   122.0417438   53.5347994
   122.0382476   53.5395346
   122.0319108   53.5509046
   122.0281675   53.5559771
   122.0220821   53.5670037
   122.0180835   53.5724251
   122.0122487   53.5831092
   122.0080011   53.5888715
   121.9988786   53.6057643
   121.9922409   53.6238019
   121.9907365   53.6307490
   121.9865094   53.6422596
   121.9849398   53.6493611
   121.9807767   53.6607194
   121.9791428   53.6679744
   121.9750448   53.6791755
   121.9733474   53.6865839
   121.9693118   53.6976325
   121.9675503   53.7051999
   121.9635781   53.7160922
   121.9617542   53.7238134
   121.9578455   53.7345477
   121.9559590   53.7424257
   121.9521123   53.7530046
   121.9501636   53.7610394
   121.9463774   53.7714655
   121.9443684   53.7796515
   121.9406453   53.7899168
   121.9385736   53.7982654
   121.9349110   53.8083758
   121.9327800   53.8168743
   121.9291750   53.8268367
   121.9256506   53.8391790
   121.9145120   53.8573323
   121.9035619   53.8723925
   121.8660349   53.9138416
   121.8424828   53.9395254
   121.8288722   53.9477682
   121.8187570   53.9532641
   121.8127536   53.9573615
   121.8018945   53.9633004
   121.7966377   53.9669477
   121.7850411   53.9733356
   121.7805131   53.9765341
   121.7681884   53.9833766
   121.7525216   53.9946637
   121.7384759   54.0076381
   121.7257310   54.0219784
   121.7140427   54.0374298
   121.7039559   54.0545476
   121.6954650   54.0733403
   121.6885702   54.0938099
   121.6853399   54.1073133
   121.6962242   54.1268656
   121.7283813   54.1728921
   121.7374418   54.1885661
   121.7406387   54.1952301
   121.7407980   54.2035873
   121.7397071   54.2220123
   121.7371697   54.2400935
   121.7264149   54.2927465
   121.7241232   54.3125829
   121.7236056   54.3327381
   121.7245374   54.3478956
   121.7309382   54.3546845
   121.7457773   54.3680340
   121.7613064   54.3797220
   121.7775058   54.3897332
   121.7943867   54.3980749
   121.8119420   54.4047437
   121.8301790   54.4097422
   121.8490900   54.4130686
   121.8686775   54.4147236
   121.8964004   54.4159301
   121.9176193   54.4178659
   121.9232336   54.4191761
   121.9417706   54.4269313
   121.9600853   54.4362123
   121.9781868   54.4470243
   121.9960540   54.4593539
   122.0090771   54.4695792
   122.0026481   54.4874644
   121.9936576   54.5083949
   121.9837346   54.5278378
   121.9728842   54.5457846
   121.9536511   54.5726514
   121.9434188   54.5900712
   121.9349761   54.6081183
   121.9283241   54.6267933
   121.9234672   54.6460818
   121.9221623   54.6545593
   121.9072162   54.7260373
   121.9027506   54.7409914
   121.8950543   54.7526743
   121.8843305   54.7666260
   121.8725181   54.7799021
   121.8596233   54.7924958
   121.8456391   54.8044137
   121.8232870   54.8210831
   121.8241884   54.8271481
   121.8290529   54.8493618
   121.8352847   54.8702559
   121.8428836   54.8898304
   121.8518497   54.9080854
   121.8621829   54.9250207
   121.8738854   54.9406392
   121.8869502   54.9549325
   121.9286105   54.9933031
   121.9337750   54.9990300
   121.9396401   55.0174907
   121.9433916   55.0349059
   121.9455170   55.0524680
   121.9481983   55.1041969
   121.9510271   55.1235234
   121.9557903   55.1427974
   121.9624867   55.1620186
   121.9667219   55.1714272
   121.9701813   55.1812267
   121.9764562   55.1964655
   121.9643044   55.2589335
   121.9624995   55.2783630
   121.9616644   55.4903197
   121.9598734   55.5095608
   121.9575030   55.5158839
   121.9458902   55.5318020
   121.9330009   55.5462484
   121.9188347   55.5592241
   121.9033845   55.5707352
   121.8871680   55.5813673
   121.8698679   55.5907432
   121.8513058   55.5986703
   121.8418415   55.6017630
   121.7757788   55.6010840
   121.7445212   55.5921062
   121.7347337   55.5887500
   121.7262407   55.5866802
   121.7153513   55.5829910
   121.7079631   55.5812488
   121.6959684   55.5772385
   121.6896890   55.5758113
   121.5990453   55.5486074
   121.5794870   55.5452481
   121.5653589   55.5446734
   121.5597933   55.5437400
   121.5462725   55.5432448
   121.5400987   55.5422344
   121.5271861   55.5418138
   121.5204039   55.5407313
   121.5080998   55.5403803
   121.5007089   55.5392306
   121.4890177   55.5389444
   121.4810140   55.5377319
   121.4699287   55.5375054
   121.4613194   55.5362360
   121.4415381   55.5359123
   121.4215684   55.5381538
   121.4014104   55.5429604
   121.3810643   55.5503321
   121.3733236   55.5540778
   121.3698108   55.5611985
   121.3628446   55.5798302
   121.3578301   55.5990201
   121.3564716   55.6077833
   121.3537212   55.6184676
   121.3524732   55.6266411
   121.3496152   55.6379089
   121.3484738   55.6454975
   121.3455093   55.6573574
   121.3444723   55.6643550
   121.3414063   55.6767995
   121.3404697   55.6832122
   121.3107953   55.8225409
   121.2787081   55.8996681
   121.2758062   55.9055307
   121.2713497   55.9172960
   121.2680784   55.9239524
   121.2639871   55.9349261
   121.2603506   55.9423819
   121.2566228   55.9525508
   121.2483443   55.9696591
   121.2384093   55.9858161
   121.2268078   56.0010372
   121.2156136   56.0144517
   121.2053373   56.0204832
   121.1914041   56.0271807
   121.1688302   56.0296716
   121.1495608   56.0296125
   120.8844098   56.0097706
   120.8688501   56.0068303
   120.8606291   56.0047093
   120.8494332   56.0028983
   120.8412590   56.0007808
   120.8300113   55.9989661
   120.8218849   55.9968521
   120.8105973   55.9950357
   120.8025045   55.9929215
   120.7911813   55.9911042
   120.7831355   55.9889929
   120.7717642   55.9871731
   120.7637602   55.9850632
   120.7523406   55.9832410
   120.7443861   55.9811343
   120.7329290   55.9793115
   120.7250062   55.9772031
   120.7135119   55.9753802
   120.7056358   55.9732739
   120.6940903   55.9714487
   120.6862617   55.9693444
   120.6746757   55.9675191
   120.6668820   55.9654131
   120.6552593   55.9635883
   120.6475124   55.9614836
   120.6358378   55.9596573
   120.6281373   55.9575536
   120.6164247   55.9557282
   120.6087590   55.9536219
   120.5970057   55.9517974
   120.5893882   55.9496919
   120.5775889   55.9478677
   120.5700142   55.9457611
   120.5581676   55.9439374
   120.5506392   55.9418304
   120.5387523   55.9400087
   120.5312603   55.9378981
   120.5193355   55.9360790
   120.5118902   55.9339673
   120.4999142   55.9321493
   120.4925153   55.9300360
   120.4805001   55.9282213
   120.4731376   55.9261031
   120.4610809   55.9242919
   120.4537665   55.9221716
   120.4416602   55.9203629
   120.4343926   55.9182397
   120.4148935   55.9153438
   120.3950669   55.9151535
   120.3853927   55.9163613
   120.3750894   55.9162759
   120.3651468   55.9174696
   120.3551082   55.9173985
   120.3449107   55.9185782
   120.3351239   55.9185196
   120.3246646   55.9196876
   120.3151470   55.9196402
   120.3044292   55.9207976
   120.2951672   55.9207600
   120.2841837   55.9219086
   120.2751814   55.9218799
   120.2639467   55.9230192
   120.2552065   55.9229983
   120.2437026   55.9241312
   120.2352257   55.9241172
   120.2234669   55.9252431
   120.2152449   55.9252353
   120.2032203   55.9263559
   120.1952598   55.9263535
   120.1752000   55.9281752
   120.1516561   55.9326969
   120.1395863   55.9513454
   120.1303189   55.9690700
   120.1228160   55.9872332
   120.1208284   55.9936752
   120.1026066   56.0422959
   120.0962121   56.0607375
   120.0917081   56.0796464
   120.0890908   56.0990411
   120.0883628   56.1189065
   120.0889856   56.1298190
   120.0947181   56.1355502
   120.1101535   56.1483976
   120.1262794   56.1593495
   120.1598828   56.1774868
   120.1767835   56.1862696
   120.1944157   56.1930413
   120.2722520   56.2130675
   120.2912138   56.2205982
   120.3098461   56.2303273
   120.3281491   56.2422549
   120.3462145   56.2557780
   120.3641057   56.2704509
   120.3800102   56.2855868
   120.3770953   56.2917454
   120.3664533   56.3108914
   120.3549370   56.3285396
   120.3425675   56.3446573
   120.3293294   56.3592652
   120.2879246   56.3977039
   120.2581242   56.4206341
   120.2307413   56.4413036
   120.1958668   56.4507158
   120.1035551   56.4753885
   120.0111294   56.5004663
   120.0066527   56.5012624
   119.9875358   56.5070132
   119.9693819   56.5149464
   119.9522082   56.5250551
   119.9465034   56.5293819
   119.9354083   56.5360092
   119.9303967   56.5398282
   119.9186125   56.5469636
   119.9142887   56.5502730
   119.9018144   56.5579221
   119.8856685   56.5703308
   119.8703991   56.5847112
   119.8560163   56.6010530
   119.8425025   56.6193772
   119.8366366   56.6287998
   119.8298876   56.6381104
   119.8249257   56.6508366
   119.7825836   56.6933432
   119.7704531   56.7075248
   119.7592753   56.7225204
   119.7493116   56.7379215
   119.7495930   56.7556492
   119.7511649   56.7746200
   119.7540007   56.7931376
   119.7580976   56.8111894
   119.7634594   56.8287933
   119.7755727   56.8608822
   119.7810317   56.8790861
   119.7851585   56.8977914
   119.7868186   56.9091969
   119.7815955   56.9220920
   119.7717667   56.9415769
   119.7582968   56.9525084
   119.7425239   56.9634496
   119.7264290   56.9727955
   119.7099957   56.9805562
   119.7012138   56.9837892
   119.6841268   56.9920091
   119.6680755   57.0017770
   119.6530684   57.0130870
   119.6390870   57.0259536
   119.6261473   57.0403630
   119.6177362   57.0516386
   119.6155335   57.0669705
   119.6145275   57.0863997
   119.6145046   57.1058949
   119.6157829   57.1254857
   119.6188118   57.1452053
   119.6235915   57.1650537
   119.6282284   57.1792386
   119.5912575   57.2601604
   119.5893870   57.2652603
   119.5803103   57.2838307
   119.5695696   57.3007589
   119.5571662   57.3160420
   119.5488531   57.3241023
   119.5437921   57.3303647
   119.5353050   57.3386142
   119.5304180   57.3446873
   119.5217528   57.3531311
   119.5170412   57.3590118
   119.5082053   57.3676441
   119.5036682   57.3733320
   119.4946546   57.3821608
   119.4902929   57.3876534
   119.4811077   57.3966739
   119.4769174   57.4019747
   119.4675593   57.4111897
   119.4552649   57.4268144
   119.4448585   57.4440974
   119.4363389   57.4630384
   119.4297036   57.4836435
   119.4249522   57.5059181
   119.4244048   57.5104917
   119.4141939   57.5626467
   119.4008808   57.5722505
   119.3899468   57.5758016
   119.3695439   57.5807604
   119.3493099   57.5839970
   119.3292493   57.5855112
   119.3093435   57.5853040
   119.2896124   57.5833749
   119.2590446   57.5776703
   119.2391697   57.5756178
   119.2187091   57.5751105
   119.2065957   57.5757069
   119.1986519   57.5807443
   119.1834406   57.5919625
   119.1739990   57.6000108
   119.1671258   57.6102693
   119.1051666   57.7160066
   119.0998383   57.7243497
   119.0910073   57.7409959
   119.0835857   57.7582519
   119.0784286   57.7735743
   119.0814779   57.7936129
   119.0862873   57.8132294
   119.1550953   58.0180428
   119.1597166   58.0372593
   119.1622729   58.0569970
   119.1626606   58.0729812
   119.1653823   58.1328327
   119.1050523   58.3618765
   119.1024591   58.3813384
   119.1020839   58.4011406
   119.1029324   58.4104262
   119.1028156   58.4211233
   119.1035936   58.4293215
   119.1035523   58.4411070
   119.1042503   58.4482178
   119.1043138   58.4672521
   119.1027234   58.4854322
   119.0950404   58.4975662
   119.0897492   58.5045822
   119.0787067   58.5120305
   119.0615524   58.5214304
   118.8978426   58.5904405
   118.8809055   58.6002145
   118.8648802   58.6118675
   118.8497774   58.6253923
   118.8355935   58.6407914
   118.8305507   58.6473579
   118.8312277   58.6525556
   118.8355187   58.6721160
   118.8454238   58.7050473
   118.8494608   58.7243556
   118.8514494   58.7437590
   118.8513897   58.7632514
   118.8492812   58.7828482
   118.8465121   58.7959637
   118.8457783   58.8025051
   118.8430723   58.8153135
   118.8422753   58.8221615
   118.8396320   58.8346645
   118.8154843   58.9706128
   118.8018552   58.9995842
   118.7476978   59.0624231
   118.7321822   59.0805801
   118.7211134   59.0967117
   118.7117681   59.1135741
   118.7041473   59.1311676
   118.6982561   59.1494789
   118.6966907   59.1566334
   118.6979719   59.1651710
   118.7028222   59.1843521
   118.7095365   59.2028138
   118.7181152   59.2205576
   118.7438082   59.2642486
   118.7622169   59.2961432
   118.7709684   59.3124633
   118.7773089   59.3269170
   118.7729678   59.3432502
   118.7666985   59.3609759
   118.7590877   59.3778797
   118.7510193   59.3944871
   118.7395932   59.4131507
   118.7328491   59.4178249
   118.7148813   59.4278684
   118.6963779   59.4358727
   118.6863440   59.4390157
   118.6776047   59.4428034
   118.6676432   59.4459072
   118.6588272   59.4497358
   118.6489423   59.4527985
   118.6400456   59.4566701
   118.6302451   59.4596889
   118.6212723   59.4636021
   118.6115401   59.4665814
   118.6024950   59.4705351
   118.5928389   59.4734720
   118.5837178   59.4774683
   118.5741353   59.4803630
   118.5649368   59.4844033
   118.5554353   59.4872530
   118.5461633   59.4913361
   118.5367369   59.4941418
   118.5273864   59.4982707
   118.5180316   59.5010328
   118.5086095   59.5052052
   118.4993297   59.5079220
   118.4898293   59.5121417
   118.4806277   59.5148112
   118.4710559   59.5190760
   118.4619254   59.5216995
   118.4522793   59.5260118
   118.4432228   59.5285875
   118.4251220   59.5367079
   118.4082844   59.5474435
   118.3503979   59.5973308
   118.3459199   59.6006152
   118.3360584   59.6096583
   118.3266539   59.6173834
   118.3125548   59.6227197
   118.2848366   59.6340094
   118.2682378   59.6396030
   118.2511570   59.6436192
   118.2437345   59.6446494
   118.2331703   59.6440696
   118.2137803   59.6409783
   118.1946006   59.6358735
   118.1870312   59.6330340
   118.1754941   59.6299174
   118.1683357   59.6272332
   118.1563925   59.6239628
   118.1496496   59.6214354
   118.0540981   59.5918251
   118.0244191   59.5706875
   117.9457291   59.5149422
   117.9297466   59.5042253
   117.9129808   59.4949485
   117.9053102   59.4915223
   117.8994582   59.4917456
   117.8801714   59.4940919
   117.8616767   59.4980154
   117.8439466   59.5035217
   117.8269975   59.5106063
   117.7628225   59.5465948
   117.7588489   59.5472701
   117.7383861   59.5487014
   117.7185205   59.5479852
   117.6992523   59.5451215
   117.6378856   59.5342928
   117.6226134   59.5321025
   117.6186217   59.5310018
   117.6034536   59.5288488
   117.5993544   59.5277098
   117.5842937   59.5255956
   117.5800866   59.5244173
   117.5651337   59.5223427
   117.5608196   59.5211245
   117.5415094   59.5184788
   117.4634709   59.5199320
   117.4593837   59.5204547
   117.4439556   59.5203839
   117.4394135   59.5209404
   117.4244356   59.5208377
   117.4194430   59.5214238
   117.4049244   59.5212928
   117.3994724   59.5219060
   117.3854088   59.5217500
   117.3795025   59.5223867
   117.3658925   59.5222088
   117.3595316   59.5228659
   117.3463769   59.5226689
   117.3395561   59.5233442
   117.3268610   59.5231309
   117.3195891   59.5238208
   117.3073398   59.5235937
   117.2996176   59.5242956
   117.2878283   59.5240572
   117.2682293   59.5257642
   117.2566583   59.5279962
   117.2477345   59.5337502
   117.2327953   59.5456462
   117.2190415   59.5590420
   117.2059665   59.5733001
   117.1938092   59.5887056
   117.1828128   59.6055868
   117.1745755   59.6209631
   117.1812159   59.6516738
   117.1896053   59.6880727
   117.2016350   59.7386220
   117.2045899   59.7581387
   117.2055558   59.7777786
   117.2045334   59.7975473
   117.2015228   59.8174452
   117.1965251   59.8374668
   117.1895359   59.8576280
   117.1805606   59.8779123
   117.1695969   59.8983256
   117.1663413   59.9034892
   117.1549414   59.9246850
   117.1444305   59.9475884
   117.1413145   59.9555593
   117.1070496   59.9622541
   117.0914413   59.9662524
   117.0821861   59.9739061
   117.0659520   59.9890216
   117.0513040   60.0045124
   117.0382173   60.0204043
   117.0267084   60.0366775
   117.0167651   60.0533492
   116.9901223   60.1070214
   116.9792975   60.1239664
   116.9668947   60.1396397
   116.9529087   60.1540487
   116.9206170   60.1821116
   116.9027391   60.1909572
   116.8901544   60.1967350
   116.8848578   60.1998048
   116.8722271   60.2055999
   116.8669799   60.2086504
   116.8543044   60.2144622
   116.8490987   60.2174981
   116.8363807   60.2233252
   116.8312197   60.2263451
   116.8184513   60.2321911
   116.8133418   60.2351910
   116.8005284   60.2410532
   116.7954607   60.2440389
   116.7826010   60.2499177
   116.7775828   60.2528850
   116.7646779   60.2587797
   116.7596980   60.2617354
   116.7467508   60.2676444
   116.7418228   60.2705806
   116.7288276   60.2765065
   116.7239450   60.2794273
   116.7109001   60.2853704
   116.7060642   60.2882754
   116.6929742   60.2942334
   116.6881863   60.2971221
   116.6750506   60.3030950
   116.6580114   60.3134215
   116.6302042   60.3345800
   116.6258794   60.3372718
   116.6147219   60.3461096
   116.6098180   60.3492001
   116.5992400   60.3576350
   116.5937542   60.3611334
   116.5837529   60.3691598
   116.5712641   60.3782597
   116.5563271   60.3826368
   116.5373758   60.3860861
   116.5273017   60.3868171
   116.5183478   60.3884912
   116.5075647   60.3893103
   116.4993285   60.3908923
   116.4878307   60.3918058
   116.4802995   60.3932920
   116.4680894   60.3943061
   116.4612754   60.3956875
   116.4483528   60.3968087
   116.4422553   60.3980788
   116.4286168   60.3993141
   116.4232258   60.4004679
   116.4088816   60.4018235
   116.4042053   60.4028520
   116.2707489   60.4194645
   116.2115730   60.4271464
   116.2001507   60.4304683
   116.1922058   60.4316114
   116.1809835   60.4348850
   116.1728387   60.4360765
   116.1618168   60.4393012
   116.1534717   60.4405418
   116.1426445   60.4437186
   116.1341083   60.4450075
   116.1234812   60.4481343
   116.1147378   60.4494743
   116.1043123   60.4525502
   116.0953709   60.4539405
   116.0851453   60.4569655
   116.0760041   60.4584067
   116.0659726   60.4613820
   116.0566374   60.4628738
   116.0468090   60.4657963
   116.0372743   60.4673399
   116.0276400   60.4702118
   116.0179038   60.4718081
   116.0084728   60.4746262
   115.9985371   60.4762752
   115.9892997   60.4790420
   115.9791706   60.4807431
   115.9701361   60.4834554
   115.9598040   60.4852106
   115.9509667   60.4878697
   115.9404374   60.4896784
   115.9317994   60.4922834
   115.9210747   60.4941456
   115.9126300   60.4966978
   115.9017055   60.4986147
   115.8934586   60.5011124
   115.8823388   60.5030834
   115.8742929   60.5055253
   115.8629724   60.5075519
   115.8551254   60.5099383
   115.8436060   60.5120204
   115.8359556   60.5143516
   115.8242396   60.5164892
   115.8167839   60.5187656
   115.8048774   60.5209577
   115.7976182   60.5231783
   115.7855069   60.5254281
   115.7784500   60.5275909
   115.7661406   60.5298974
   115.7592824   60.5320032
   115.7467743   60.5343666
   115.7401081   60.5364171
   115.7274082   60.5388366
   115.7209446   60.5408283
   115.7015845   60.5445461
   115.6907821   60.5454377
   115.3957114   60.5122478
   115.3905823   60.5120954
   115.3765527   60.5101001
   115.3712511   60.5099395
   115.3573894   60.5079525
   115.3519243   60.5077836
   115.3382351   60.5058057
   115.3326018   60.5056282
   115.3190772   60.5036584
   115.3132706   60.5034719
   115.2999184   60.5015117
   115.2939482   60.5013163
   115.2747096   60.4984694
   115.2557668   60.4934157
   115.2371210   60.4861564
   115.2138945   60.4740397
   115.1971649   60.4597190
   115.1173847   60.3900619
   115.0992758   60.3624818
   115.0390192   60.2689352
   115.0269752   60.2534801
   115.0122283   60.2386146
   114.9940800   60.2312111
   114.9754445   60.2258857
   114.7336423   60.1849925
   114.7207049   60.1825985
   114.6197287   60.1500843
   114.6025499   60.1430096
   114.5910736   60.1369089
   114.5809076   60.1286549
   114.5675744   60.1154757
   114.5554290   60.1009086
   114.5444630   60.0849429
   114.5346839   60.0675891
   114.5271796   60.0531991
   114.5209375   60.0244936
   114.5155250   60.0016114
   114.4968676   59.9793091
   114.4821231   59.9648759
   114.4664294   59.9520927
   114.4497738   59.9409489
   114.4440738   59.9378744
   114.1781364   59.7715590
   114.1616435   59.7634393
   114.1516242   59.7608477
   114.1445430   59.7582141
   114.1325764   59.7550972
   114.1258154   59.7525689
   114.1135197   59.7493439
   114.1070804   59.7469227
   114.0944720   59.7435927
   114.0883480   59.7412775
   114.0754157   59.7378383
   114.0696127   59.7356325
   114.0563684   59.7320860
   114.0508754   59.7299866
   114.0373126   59.7263300
   114.0321450   59.7243443
   113.7325122   59.6341818
   113.6753717   59.6168885
   113.6569514   59.6090615
   113.6391557   59.5992301
   113.6331326   59.5950792
   113.6223930   59.5771240
   113.5914305   59.5175769
   113.5813323   59.5010499
   113.5696043   59.4853951
   113.5652402   59.4805655
   113.4782648   59.3716162
   113.4660367   59.3215024
   113.4601853   59.3038648
   113.4482078   59.2881040
   113.4346299   59.2732027
   113.4200185   59.2599072
   113.4043831   59.2482250
   113.3931171   59.2414142
   113.3880445   59.2376106
   113.3765159   59.2306155
   113.3717155   59.2270031
   113.3172435   59.1918081
   113.2911152   59.1822226
   113.2716437   59.1772768
   113.2519146   59.1745319
   113.2434943   59.1743023
   113.2320587   59.1727669
   113.2244457   59.1725901
   113.2122124   59.1710060
   113.2054018   59.1708749
   113.1923568   59.1692473
   113.1863494   59.1691553
   113.0533927   59.1570313
   112.9387149   59.1469796
   112.9244887   59.1456102
   112.8912806   59.1378074
   112.8156461   59.1195655
   112.7975191   59.1128520
   112.7801276   59.1041121
   112.7284459   59.0765366
   112.7239583   59.0737060
   112.7061755   59.0648259
   112.6872225   59.0575442
   112.6670956   59.0518598
   112.6458055   59.0477751
   112.6233429   59.0452882
   112.5997064   59.0443989
   112.5748943   59.0451081
   112.5513692   59.0471974
   112.5385782   59.0823380
   112.5327205   59.1021256
   112.5281864   59.1218442
   112.5249821   59.1414689
   112.5231063   59.1610007
   112.5225574   59.1804618
   112.5233363   59.1998217
   112.5306129   59.2664136
   112.5232865   59.2724069
   112.5049813   59.2854872
   112.4864951   59.2968211
   112.4678304   59.3064070
   112.4489860   59.3142458
   112.4299608   59.3203377
   112.3805543   59.3315146
   112.3620963   59.3373385
   112.3437333   59.3447892
   112.3309482   59.3511424
   112.3272147   59.3581243
   112.3198766   59.3744866
   112.3124912   59.3956133
   112.3058322   59.4135087
   112.2978088   59.4308616
   112.2884173   59.4476809
   112.2776586   59.4639631
   112.2692334   59.4749032
   112.2551130   59.4780530
   112.2354052   59.4803674
   112.2161609   59.4811795
   112.2069677   59.4808426
   112.1958814   59.4785871
   112.1764698   59.4728164
   112.1581855   59.4654542
   112.1410170   59.4564955
   112.1249760   59.4459459
   112.0033213   59.3523347
   111.9400243   59.3039639
   111.9346509   59.3011688
   111.9162349   59.2959813
   111.7618353   59.2584063
   111.7308497   59.2503580
   111.6880039   59.2402375
   111.6566932   59.2321094
   111.6400138   59.2292626
   111.6224913   59.2299406
   111.6029759   59.2327772
   111.5949366   59.2348126
   111.5834988   59.2365459
   111.5763788   59.2383721
   111.4439100   59.2636992
   111.3806802   59.2624670
   111.3684750   59.2617795
   111.3610063   59.2620157
   111.3487927   59.2613232
   111.3413334   59.2615648
   111.3290991   59.2608665
   111.3146680   59.2607118
   111.3078142   59.2592128
   111.2098683   59.2363213
   111.1900910   59.2341878
   111.1704499   59.2346397
   111.1621504   59.2359316
   111.1508698   59.2362237
   111.1429293   59.2374749
   111.1312826   59.2378096
   111.1237119   59.2390168
   111.1117027   59.2393956
   111.1044944   59.2405585
   111.0921155   59.2409831
   111.0852759   59.2420989
   111.0725357   59.2425706
   111.0660582   59.2436391
   111.0529485   59.2441597
   111.0468445   59.2451774
   111.0333688   59.2457482
   111.0276228   59.2467162
   111.0137809   59.2473387
   111.0084049   59.2482538
   110.9941978   59.2489292
   110.9891869   59.2497906
   110.9746183   59.2505202
   110.9699688   59.2513273
   110.7201278   59.2712559
   110.7019554   59.2707258
   110.6873045   59.2639541
   110.6715283   59.2545920
   110.6567025   59.2435979
   110.6494464   59.2369948
   110.6423723   59.2317737
   110.6345276   59.2247117
   110.6280424   59.2199462
   110.5731276   59.1743546
   110.5633788   59.1602578
   110.5251081   59.1060443
   110.5194772   59.0972527
   110.5076609   59.0822354
   110.4946566   59.0686819
   110.4779909   59.0610844
   110.4602336   59.0550133
   110.4478118   59.0521035
   110.4421301   59.0501237
   110.3518995   59.0258891
   110.2648138   59.0021360
   110.2492439   58.9999996
   110.2357032   58.9986949
   110.2299926   58.9975190
   110.2158240   58.9961169
   110.2107510   58.9950430
   110.1915030   58.9930854
   110.1688523   58.9936446
   109.9796914   58.9989012
   109.8256490   59.0034841
   109.8178921   59.0045753
   109.8098938   59.0073252
   109.7920136   59.0155209
   109.6722761   59.0853920
   109.6534566   59.0965555
   109.5565048   59.1880718
   109.5435406   59.2018093
   109.5319124   59.2166613
   109.5046296   59.2578014
   109.4874074   59.2830664
   109.4740720   59.2915510
   109.4576264   59.3001501
   109.4407381   59.3071648
   109.4188718   59.3135724
   109.4000591   59.3196360
   109.3818173   59.3275761
   109.3641646   59.3373853
   109.3470908   59.3490686
   109.3306017   59.3626221
   109.3146933   59.3780487
   109.3078635   59.3857574
   109.3044640   59.4392419
   109.3146264   59.4657273
   109.3234521   59.4850576
   109.3335538   59.5028680
   109.3449307   59.5191573
   109.3575844   59.5339278
   109.3715161   59.5471804
   109.4607562   59.6185012
   109.4749348   59.6323301
   109.4878731   59.6477713
   109.4921997   59.6540783
   109.5003436   59.6638165
   109.5068281   59.6726910
   109.5109503   59.6950106
   109.5204124   59.7498871
   109.5259173   59.7691097
   109.5334457   59.7874628
   109.5430001   59.8049515
   109.5545725   59.8215630
   109.6157044   59.8922304
   109.6362210   59.9165199
   109.6686135   59.9784957
   109.6919759   60.0240875
   109.7111544   60.1644672
   109.7159807   60.1839738
   109.7226231   60.2027070
   109.7302899   60.2189831
   109.7407269   60.2331200
   109.8055273   60.3063647
   109.9087650   60.4235022
   109.9115311   60.4262598
   109.9295027   60.4604012
   109.9462259   60.4926431
   109.9565889   60.5091922
   109.9683406   60.5246982
   109.9814947   60.5391793
   110.0687000   60.6198926
   110.0707708   60.6213210
   110.1952919   60.6752206
   110.1997013   60.6767868
   110.2179073   60.6851326
   110.2351558   60.6950180
   110.2533746   60.7081873
   110.2619935   60.7260019
   110.2647347   60.7332976
   110.2699101   60.7439575
   110.2726255   60.7512394
   110.2778265   60.7619111
   110.2805130   60.7691759
   110.2857447   60.7798663
   110.2884022   60.7871185
   110.2936629   60.7978196
   110.2962882   60.8050566
   110.3015833   60.8157743
   110.3041743   60.8229975
   110.3095044   60.8337272
   110.3120600   60.8409421
   110.3207353   60.8582999
   110.3314175   60.8741868
   110.3441017   60.8885950
   110.3521118   60.8956481
   110.3578888   60.9021941
   110.3660474   60.9094314
   110.3716769   60.9157960
   110.3799877   60.9232192
   110.3854613   60.9293944
   110.3939273   60.9370049
   110.3992490   60.9429968
   110.4078634   60.9507868
   110.4130322   60.9565959
   110.4218077   60.9645756
   110.4268196   60.9701989
   110.4357425   60.9783548
   110.4406019   60.9837983
   110.4496850   60.9921411
   110.4543862   60.9973994
   110.4636244   61.0059234
   110.4696850   61.0124050
   110.4792168   61.0266173
   110.4846580   61.0338591
   110.4944327   61.0496942
   110.5027624   61.0664315
   110.5096469   61.0840711
   110.5150862   61.1026129
   110.5169051   61.1114675
   110.5162105   61.1181831
   110.5131170   61.1351258
   110.5002711   61.1528124
   110.4886718   61.1659960
   110.4721832   61.1752085
   110.4542526   61.1841050
   110.4359937   61.1915161
   110.4173180   61.1970173
   110.4076349   61.1988388
   110.3992926   61.1987803
   110.3809907   61.1968862
   110.3734510   61.1953527
   110.3628138   61.1942884
   110.3546922   61.1926594
   110.3446377   61.1916885
   110.3359370   61.1899683
   110.3264668   61.1890874
   110.3171864   61.1872795
   110.3082877   61.1864835
   110.2984271   61.1845916
   110.2901122   61.1838782
   110.2796760   61.1819069
   110.2719374   61.1812715
   110.2609153   61.1792229
   110.2420366   61.1777431
   110.2229351   61.1782530
   110.2126848   61.1807289
   110.1949649   61.1889233
   110.0759034   61.2616380
   109.9354829   61.3071215
   109.9280470   61.3090850
   109.9097212   61.3158000
   109.8920884   61.3242077
   109.8751471   61.3343086
   109.8588973   61.3461027
   109.8433414   61.3595881
   109.8300850   61.3731242
   109.8299008   61.3885955
   109.8311743   61.4079655
   109.8392631   61.4745698
   109.8435160   61.5112827
   109.8450060   61.5296386
   109.8448995   61.5470910
   109.8345019   61.5656607
   109.8232123   61.5817339
   109.8105872   61.5962941
   109.7966285   61.6093392
   109.7869691   61.6166227
   109.7818168   61.6214275
   109.7722374   61.6286475
   109.7670082   61.6335139
   109.7574998   61.6406774
   109.7521993   61.6456000
   109.7427682   61.6527023
   109.7373906   61.6576864
   109.7280306   61.6647322
   109.7225837   61.6697705
   109.7132989   61.6767569
   109.7077721   61.6818590
   109.6985586   61.6887890
   109.6929629   61.6939448
   109.6838291   61.7008121
   109.6781541   61.7060311
   109.6690915   61.7128423
   109.6633451   61.7181170
   109.6543571   61.7248695
   109.6485360   61.7302029
   109.6396258   61.7368944
   109.6255344   61.7497819
   109.6207617   61.7550609
   109.6179366   61.7621972
   109.6125773   61.7807801
   109.6090946   61.7996632
   109.6074854   61.8188628
   109.6076052   61.8276543
   109.6060973   61.8575552
   109.6054683   61.8760140
   109.6160931   61.8920034
   109.6286758   61.9074666
   109.6424126   61.9211961
   109.6573081   61.9331970
   109.6685664   61.9404006
   109.6730046   61.9440058
   109.6847934   61.9516103
   109.6887040   61.9548132
   109.8145447   62.0413261
   109.8307404   62.0525792
   109.8456001   62.0657045
   109.8591319   62.0807090
   109.8672470   62.0919375
   109.8717278   62.0970182
   109.8790365   62.1072266
   109.8843206   62.1133386
   109.8908317   62.1225094
   109.8969090   62.1296652
   109.9026363   62.1377930
   109.9408017   62.1870161
   109.9482661   62.2192586
   109.9559091   62.2504730
   109.9592249   62.2692904
   109.9609977   62.2878331
   109.9536833   62.3070855
   109.9450844   62.3249322
   109.9350999   62.3417115
   109.9237368   62.3574113
   109.9109924   62.3720368
   109.8975515   62.3861373
   109.8828925   62.3992768
   109.8694227   62.4094256
   109.8516437   62.4125004
   109.6022709   62.4360372
   109.5939019   62.4372547
   109.5829432   62.4378804
   109.5740752   62.4391513
   109.5636142   62.4397247
   109.5542474   62.4410469
   109.5442867   62.4415701
   109.5344205   62.4429413
   109.5249580   62.4434167
   109.5145935   62.4448346
   109.5056307   62.4452643
   109.4947665   62.4467269
   109.4863023   62.4471131
   109.4701980   62.4488233
   109.4536633   62.4555164
   109.4356983   62.4647933
   109.4189348   62.4755876
   109.4033647   62.4879040
   109.3889878   62.5017434
   109.3758112   62.5170987
   109.3638261   62.5339802
   109.3520703   62.5546997
   109.3594505   62.5740880
   109.3674746   62.5929527
   109.3768942   62.6106247
   109.3877387   62.6270849
   109.4943718   62.7590095
   109.4981740   62.7643934
   109.5109995   62.7791900
   109.5253064   62.7927226
   109.5527056   62.8140168
   109.5682252   62.8284163
   109.5831308   62.8446775
   109.5869939   62.8495764
   109.5829132   62.8619872
   109.5753205   62.8804079
   109.5665429   62.8977604
   109.5406592   62.9426599
   109.5320264   62.9604831
   109.5252119   62.9788584
   109.5227364   62.9882349
   109.5192941   62.9975150
   109.5168210   63.0068875
   109.5133792   63.0161643
   109.5109089   63.0255310
   109.5074609   63.0348229
   109.5049947   63.0441790
   109.5015435   63.0534777
   109.4990792   63.0628315
   109.4956291   63.0721252
   109.4931671   63.0814749
   109.4897108   63.0907837
   109.4872535   63.1001209
   109.4837953   63.1094329
   109.4813381   63.1187747
   109.4778771   63.1280925
   109.4754255   63.1374180
   109.4719605   63.1467445
   109.4695113   63.1560660
   109.4660451   63.1653938
   109.4635964   63.1747186
   109.4601272   63.1840524
   109.4576839   63.1933620
   109.4542098   63.2027072
   109.4517695   63.2120100
   109.4482949   63.2213546
   109.4458546   63.2306626
   109.4423770   63.2400132
   109.4399421   63.2493060
   109.4364616   63.2586625
   109.4340284   63.2679542
   109.4305430   63.2773218
   109.4281129   63.2866066
   109.4246268   63.2959740
   109.4222004   63.3052500
   109.4153711   63.3235974
   109.4066703   63.3413348
   109.4000452   63.3520669
   109.3900827   63.3596780
   109.3836116   63.3637055
   109.3740212   63.3710573
   109.3673176   63.3752373
   109.3579627   63.3824336
   109.3510325   63.3867632
   109.3419042   63.3938100
   109.3347411   63.3982938
   109.3258489   63.4051831
   109.3184590   63.4098180
   109.3097851   63.4165627
   109.3021692   63.4213490
   109.2937288   63.4279367
   109.2858785   63.4328804
   109.2776729   63.4393090
   109.2695940   63.4444072
   109.2616103   63.4506861
   109.2533066   63.4559373
   109.2455507   63.4620608
   109.2370208   63.4674666
   109.2294943   63.4734326
   109.2207337   63.4789968
   109.2134295   63.4848101
   109.2044471   63.4905280
   109.1973719   63.4961822
   109.1881619   63.5020582
   109.1813148   63.5075531
   109.1718727   63.5135911
   109.1652510   63.5189279
   109.1555899   63.5251205
   109.1491902   63.5303007
   109.1393069   63.5366509
   109.1331325   63.5416708
   109.1230168   63.5481863
   109.1170665   63.5530458
   109.1005519   63.5637092
   109.0828461   63.5725220
   109.0765272   63.5748501
   109.0703863   63.5757424
   109.0572524   63.5762411
   109.0510087   63.5771611
   109.0374798   63.5777046
   109.0316265   63.5785792
   109.0177078   63.5791690
   109.0122442   63.5799966
   108.7409055   63.5997548
   108.5470851   63.6141884
   108.5431694   63.6141532
   108.5234252   63.6160345
   108.5038166   63.6199759
   108.4843451   63.6259772
   108.4650102   63.6340384
   108.4458117   63.6441596
   108.4267496   63.6563407
   108.4078230   63.6705824
   108.3889789   63.6860551
   108.3702493   63.7032580
   108.3658265   63.7078150
   108.3681691   63.7236294
   108.3720383   63.7425185
   108.3750013   63.7537577
   108.3865164   63.7637656
   108.4047184   63.7777770
   108.4230588   63.7900995
   108.4415191   63.8007213
   108.4601189   63.8096542
   108.4787987   63.8175661
   108.4975909   63.8240318
   108.5165264   63.8287525
   108.5355877   63.8317243
   108.6298911   63.8380082
   108.6487973   63.8408510
   108.6674399   63.8453532
   108.6821751   63.8547157
   108.6968598   63.8658283
   108.7107563   63.8782243
   108.7238486   63.8918892
   108.7361496   63.9068362
   108.7400392   63.9123213
   108.7400624   63.9211619
   108.7387193   63.9401703
   108.7360942   63.9588505
   108.7327797   63.9773751
   108.7297837   63.9889102
   108.7222239   63.9981090
   108.7087498   64.0120960
   108.6338559   64.0767241
   108.6211718   64.0906877
   108.6100696   64.1058561
   108.6005517   64.1222267
   108.5540197   64.2275977
   108.5113718   64.2677650
   108.4958713   64.2798950
   108.4855983   64.2865146
   108.4733975   64.2892348
   108.4536442   64.2917224
   108.4340380   64.2922617
   108.4145654   64.2908525
   108.1925210   64.2584913
   108.1502695   64.2445128
   108.0448363   64.2098403
   108.0383477   64.2072343
   108.0272642   64.2040408
   108.0196896   64.2010399
   108.0008398   64.1957499
   107.9815445   64.1924635
   107.9734517   64.1919383
   107.9650250   64.1931169
   107.9457826   64.1979046
   107.9396112   64.2001461
   107.9266832   64.2033617
   107.9204364   64.2056223
   107.9075933   64.2088159
   107.9012618   64.2110989
   107.8884959   64.2142724
   107.8820825   64.2165768
   107.8694057   64.2197273
   107.8629134   64.2220520
   107.8503066   64.2251841
   107.8437366   64.2275286
   107.8312169   64.2306383
   107.8245619   64.2330052
   107.8121194   64.2360949
   107.8053872   64.2384814
   107.7930292   64.2415493
   107.7862126   64.2439580
   107.7739300   64.2470065
   107.7670330   64.2494358
   107.7548423   64.2524607
   107.7478630   64.2549113
   107.7357423   64.2579181
   107.7286882   64.2603873
   107.7166530   64.2633722
   107.7095136   64.2658639
   107.6975536   64.2688294
   107.6903387   64.2713399
   107.6784660   64.2742832
   107.6711641   64.2768165
   107.6593658   64.2797407
   107.6519842   64.2822943
   107.6402767   64.2851953
   107.6290578   64.2887003
   107.6080187   64.2897659
   107.6006080   64.2897000
   107.5888922   64.2906889
   107.5804642   64.2906382
   107.5697619   64.2916076
   107.5603315   64.2915797
   107.5506308   64.2925226
   107.5401915   64.2925261
   107.5314967   64.2934331
   107.5200601   64.2934773
   107.5123719   64.2943383
   107.4999212   64.2944339
   107.4932443   64.2952370
   107.4797940   64.2953959
   107.4741172   64.2961297
   107.4596580   64.2963654
   107.4549860   64.2970150
   107.3590378   64.3013507
   107.3395994   64.3053261
   107.3208700   64.3123478
   107.2895005   64.3297115
   107.2846559   64.3318004
   107.2735079   64.3384330
   107.2665612   64.3415918
   107.2533689   64.3490869
   107.2097775   64.3600963
   107.0999646   64.3880997
   107.0943427   64.3890696
   107.0815935   64.3927604
   107.0751043   64.3939151
   107.0632237   64.3974160
   107.0558735   64.3987633
   107.0448510   64.4020679
   107.0366356   64.4036176
   107.0264771   64.4067151
   107.0174088   64.4084738
   107.0081022   64.4113587
   106.9981723   64.4133368
   106.9897297   64.4159964
   106.9789459   64.4182012
   106.9713498   64.4206323
   106.9597118   64.4230723
   106.9529714   64.4252631
   106.9370118   64.4290921
   106.8464485   64.4400815
   106.8415492   64.4402375
   106.8278147   64.4423452
   106.8217369   64.4425694
   106.8091846   64.4446025
   106.8019197   64.4449090
   106.7905586   64.4468512
   106.7821100   64.4472550
   106.7625661   64.4507821
   106.7436233   64.4568711
   106.6574803   64.4973972
   106.6394304   64.5043809
   106.6202399   64.5098458
   106.6099753   64.5110479
   106.5724332   64.5070782
   106.5543991   64.4981747
   106.5245350   64.4840362
   106.5167200   64.4797243
   106.4977047   64.4717174
   106.4783398   64.4660034
   106.4586284   64.4625841
   106.4500186   64.4621014
   106.4387678   64.4601636
   106.4303096   64.4596932
   106.4189029   64.4577425
   106.4106008   64.4572845
   106.3990467   64.4553224
   106.3908918   64.4548763
   106.3791849   64.4529022
   106.3711785   64.4524676
   106.3593242   64.4504826
   106.3514740   64.4500599
   106.3394635   64.4480625
   106.3317651   64.4476513
   106.3195985   64.4456419
   106.3120563   64.4452422
   106.2997411   64.4432222
   106.2923474   64.4428335
   106.2798804   64.4408024
   106.2726340   64.4404244
   106.2600198   64.4383833
   106.2529297   64.4380163
   106.2401579   64.4359636
   106.2332208   64.4356073
   106.2202925   64.4335433
   106.2002261   64.4325207
   106.1798349   64.4336283
   106.1591215   64.4368665
   106.1455401   64.4409124
   106.1334008   64.4464514
   106.0239673   64.4926124
   105.9718885   64.4950040
   105.9395956   64.4960780
   105.9201004   64.4982497
   105.9010864   64.5021653
   105.8825339   64.5078295
   105.8643826   64.5149267
   105.8465114   64.5230874
   105.8291162   64.5329690
   105.8121806   64.5445814
   105.7957207   64.5579135
   105.7881532   64.5650387
   105.7853257   64.5744420
   105.7810692   64.5935162
   105.7781861   64.6129348
   105.7766730   64.6327176
   105.7768819   64.6876165
   105.8147111   64.7648069
   105.8192528   64.7749194
   105.8288073   64.7926295
   105.8395639   64.8094522
   105.8515224   64.8253875
   105.8646860   64.8404387
   105.8790460   64.8545966
   105.8946107   64.8678696
   105.9113727   64.8802516
   105.9218646   64.8869653
   106.0112317   64.9476233
   106.0140939   64.9610290
   106.0172144   64.9675165
   106.0286791   64.9883416
   106.0408871   65.0077024
   106.0533453   65.0265639
   106.0665081   65.0440516
   106.0804517   65.0599798
   106.0951909   65.0743655
   106.1107135   65.0871958
   106.1270217   65.0984735
   106.1441218   65.1082025
   106.1714832   65.1213973
   106.3727950   65.2220407
   106.3904274   65.2307094
   106.4088339   65.2378526
   106.4634653   65.2542431
   106.5054721   65.3079464
   106.5191378   65.3244350
   106.5339317   65.3386978
   106.5498548   65.3507358
   106.5669112   65.3605515
   106.5850939   65.3681408
   106.6821113   65.3949546
   106.7013255   65.4024239
   106.7203856   65.4119733
   106.7393078   65.4236106
   106.7580918   65.4373370
   106.7767188   65.4531376
   106.7876427   65.4637078
   106.7379189   65.5225206
   106.7237447   65.5370671
   106.7091096   65.5506836
   106.6936427   65.5626551
   106.6773416   65.5729832
   106.5132671   65.6611015
   106.4970894   65.6713458
   106.4818653   65.6832575
   106.4676051   65.6968281
   106.4542983   65.7120669
   106.4504111   65.7173876
   106.4501633   65.7225798
   106.4508741   65.7417117
   106.4532235   65.7605296
   106.4724349   65.8917335
   106.4738952   65.8987798
   106.4751809   65.9104760
   106.4767020   65.9178602
   106.4779285   65.9292238
   106.4795064   65.9369314
   106.4806745   65.9479614
   106.4823124   65.9560127
   106.4843015   65.9751686
   106.4844224   65.9945288
   106.4831977   66.0082274
   106.4750104   66.0199566
   106.4622895   66.0348699
   106.4482885   66.0483050
   106.4330136   66.0602559
   106.4218138   66.0673403
   106.3522535   66.1149256
   106.3387187   66.1238768
   106.2135985   66.1636054
   106.1959213   66.1709848
   106.1792053   66.1802436
   106.1632825   66.1910047
   106.1479429   66.2029115
   106.1379562   66.2124610
   106.1362168   66.2268467
   106.1359028   66.2465145
   106.1377056   66.2657552
   106.1388979   66.2714769
   106.1480826   66.3420531
   106.1528592   66.3606871
   106.1598765   66.3788565
   106.1691384   66.3965726
   106.2496613   66.5182778
   106.2444800   66.6138071
   106.2420753   66.6330642
   106.2381608   66.6518256
   106.2327377   66.6700915
   106.2257990   66.6878837
   106.2215417   66.6966017
   106.2121305   66.7125581
   106.2013751   66.7279538
   106.1892670   66.7428008
   106.1730782   66.7605516
   106.1462505   66.7765878
   106.0283967   66.8476068
   105.9753321   66.8795136
   105.9589288   66.8910887
   105.9431507   66.9038556
   105.9280161   66.9177988
   105.9135091   66.9329328
   105.8994374   66.9495137
   105.9052512   66.9576970
   105.9847049   67.0567027
   105.9972326   67.0697748
   106.0010623   67.0731205
   106.0742807   67.1462240
   106.0875496   67.1577094
   106.1079492   67.1652039
   106.2351363   67.1985746
   106.2407579   67.2005151
   106.2537178   67.2034920
   106.2597304   67.2055563
   106.2722904   67.2084074
   106.2787006   67.2105962
   106.2908697   67.2133254
   106.2976782   67.2156372
   106.3094427   67.2182428
   106.3166517   67.2206767
   106.3280231   67.2231632
   106.3356255   67.2257149
   106.3465949   67.2280820
   106.3545946   67.2307511
   106.3651749   67.2330034
   106.3735743   67.2357888
   106.3837462   67.2379240
   106.3925485   67.2408248
   106.4023254   67.2428477
   106.4115190   67.2458581
   106.4208963   67.2477696
   106.4304972   67.2508930
   106.4394710   67.2526942
   106.4494735   67.2559265
   106.4687231   67.2597294
   106.4815479   67.2607346
   106.4883032   67.2620330
   106.5005583   67.2629636
   106.5078918   67.2643356
   106.5195640   67.2651946
   106.5274784   67.2666366
   106.5385790   67.2674288
   106.5470640   67.2689353
   106.5575899   67.2696640
   106.5666454   67.2712314
   106.5765957   67.2719000
   106.5862362   67.2735277
   106.5956109   67.2741392
   106.6058223   67.2758215
   106.6146160   67.2763786
   106.6254058   67.2781139
   106.6336314   67.2786202
   106.6449980   67.2804054
   106.6526416   67.2808627
   106.6645856   67.2826955
   106.6716463   67.2831061
   106.7173110   67.2886926
   106.7594448   67.3099299
   106.7756808   67.3202708
   106.7906625   67.3320624
   106.8047262   67.3449184
   106.8141385   67.3548537
   106.8194050   67.3682832
   106.8245835   67.3869310
   106.8277693   67.4059458
   106.8283654   67.4156435
   106.8299853   67.4251299
   106.8306712   67.4355296
   106.8321978   67.4443094
   106.8329791   67.4554201
   106.8344088   67.4635006
   106.8352890   67.4753017
   106.8366175   67.4826861
   106.8376020   67.4951874
   106.8388240   67.5018720
   106.8399173   67.5150736
   106.8410273   67.5210528
   106.8573790   67.6640718
   106.8575981   67.6742040
   106.8586617   67.6834977
   106.8589185   67.6941421
   106.8599430   67.7029183
   106.8602401   67.7140808
   106.8612231   67.7223388
   106.8615629   67.7340189
   106.8625019   67.7417586
   106.8628871   67.7539621
   106.8637784   67.7611739
   106.8815435   68.0330905
   106.8958417   68.2466801
   106.8962778   68.2924121
   106.8992926   68.5859988
   106.8989303   68.5923946
   106.8994880   68.6055746
   106.8991121   68.6123928
   106.8996825   68.6251555
   106.8992944   68.6323966
   106.8998759   68.6447414
   106.8994779   68.6523899
   106.9000691   68.6643172
   106.8996620   68.6723888
   106.9002615   68.6839036
   106.8998474   68.6923870
   106.9004531   68.7034798
   106.9000330   68.7123850
   106.9006436   68.7230606
   106.9002195   68.7323836
   106.9008336   68.7426462
   106.9004074   68.7523817
   106.9010226   68.7622221
   106.9005956   68.7723796
   106.9012105   68.7818035
   106.9007848   68.7923781
   106.9013978   68.8013891
   106.9006463   68.8209334
   106.8978081   68.8404118
   106.8964338   68.8458276
   106.8931179   68.8503600
   106.8798330   68.8650366
   106.8652137   68.8780564
   106.8549576   68.8853619
   106.8497314   68.8900143
   106.8394662   68.8973309
   106.8342548   68.9019680
   106.8239702   68.9093030
   106.8187773   68.9139217
   106.8084755   68.9212734
   106.8032952   68.9258789
   106.7929825   68.9332428
   106.7878158   68.9378343
   106.7774883   68.9452133
   106.7723364   68.9497897
   106.7619966   68.9571820
   106.7568562   68.9617463
   106.7465006   68.9691541
   106.7413768   68.9737017
   106.7310089   68.9811227
   106.7258976   68.9856574
   106.7155128   68.9930948
   106.7104183   68.9976128
   106.7000185   69.0050653
   106.6949389   69.0095683
   106.6845239   69.0170359
   106.6794584   69.0215246
   106.6690309   69.0290053
   106.6639791   69.0334800
   106.6535393   69.0409738
   106.6485000   69.0454357
   106.6380431   69.0529459
   106.6330207   69.0573912
   106.6225488   69.0649163
   106.6175434   69.0693449
   106.6070570   69.0768845
   106.6020614   69.0813026
   106.5915607   69.0888566
   106.5865790   69.0932609
   106.5760694   69.1008254
   106.5711027   69.1052146
   106.5605731   69.1127975
   106.5556235   69.1171701
   106.5450757   69.1247701
   106.5401460   69.1291234
   106.5295872   69.1367353
   106.5246640   69.1410813
   106.5140908   69.1487074
   106.5091847   69.1530368
   106.4985993   69.1606758
   106.4937024   69.1649954
   106.4831031   69.1726482
   106.4782283   69.1769469
   106.4676086   69.1846183
   106.4627461   69.1889046
   106.4521170   69.1965866
   106.4472670   69.2008604
   106.4366206   69.2085587
   106.4317878   69.2128159
   106.4211290   69.2205270
   106.4163087   69.2247717
   106.4056294   69.2325014
   106.4008281   69.2367280
   106.3901385   69.2444688
   106.3126680   69.3043198
   106.2979116   69.3172839
   106.2842306   69.3317232
   106.2716431   69.3476176
   106.2601312   69.3649893
   106.2494007   69.3834144
   106.2401855   69.4008704
   106.2402540   69.4047979
   106.2527969   69.4222218
   106.2668251   69.4388686
   106.2816623   69.4537961
   106.2973016   69.4669963
   106.3137411   69.4784678
   106.3769322   69.5148035
   106.3822708   69.5183905
   106.3930896   69.5241559
   106.3994041   69.5283544
   106.4092438   69.5335129
   106.4165512   69.5383190
   106.4253938   69.5428759
   106.4336953   69.5482742
   106.4415396   69.5522447
   106.4508412   69.5582220
   106.4685273   69.5670065
   106.4871423   69.5738055
   106.4913272   69.5744555
   106.5107324   69.5730479
   106.5240002   69.5706209
   106.5299238   69.5702079
   106.5436850   69.5677298
   106.5491162   69.5673663
   106.7602219   69.5360172
   106.8389697   69.5245294
   106.8541664   69.5241496
   106.8686197   69.5262751
   106.8821425   69.5288707
   106.8878931   69.5293325
   106.9016724   69.5319586
   106.9071571   69.5323892
   106.9211979   69.5350457
   106.9264244   69.5354465
   106.9407312   69.5381335
   106.9456975   69.5385052
   107.3118049   69.5967029
   107.6008466   69.6422714
   107.6047080   69.6433000
   107.6243069   69.6458598
   107.6304937   69.6458577
   107.6440237   69.6476211
   107.6502407   69.6476273
   107.6637356   69.6493824
   107.6699880   69.6493967
   107.6834447   69.6511433
   107.6897357   69.6511656
   107.7031605   69.6529047
   107.7094834   69.6529350
   107.7228735   69.6546662
   107.7292310   69.6547043
   107.7425865   69.6564277
   107.7489787   69.6564736
   107.7622942   69.6581887
   107.7687264   69.6582423
   107.7820113   69.6599504
   107.7884741   69.6600115
   107.8017231   69.6617120
   107.8082218   69.6617806
   107.8214318   69.6634731
   107.8279695   69.6635492
   107.8411490   69.6652349
   107.8477172   69.6653183
   107.8608608   69.6669967
   107.8674648   69.6670873
   107.8805738   69.6687585
   107.8872125   69.6688563
   107.9002823   69.6705198
   107.9069602   69.6706248
   107.9199985   69.6722817
   107.9267079   69.6723937
   107.9455728   69.6747873
   107.9594794   69.6829495
   108.0796826   69.7653281
   108.0964207   69.7742602
   108.1052478   69.7776840
   108.1136932   69.7822481
   108.1234582   69.7861221
   108.1309727   69.7902322
   108.1416682   69.7945670
   108.1482528   69.7982100
   108.1598737   69.8030161
   108.1655341   69.8061823
   108.1780800   69.8114714
   108.1828221   69.8141517
   108.2524433   69.8459546
   108.2725402   69.8484732
   108.2924530   69.8487456
   108.3045732   69.8475330
   108.3122530   69.8476302
   108.3241280   69.8464220
   108.3320566   69.8465141
   108.3436740   69.8453121
   108.3518522   69.8453985
   108.3632288   69.8442017
   108.3716514   69.8442817
   108.3827749   69.8430920
   108.3914504   69.8431651
   108.4023297   69.8419821
   108.4112545   69.8420477
   108.4218758   69.8408736
   108.4310494   69.8409308
   108.4414309   69.8397644
   108.4508483   69.8398127
   108.4609820   69.8386555
   108.4706481   69.8386943
   108.4805283   69.8375475
   108.4904472   69.8375759
   108.5000830   69.8364394
   108.5102509   69.8364568
   108.5196294   69.8353326
   108.5300458   69.8353382
   108.5391840   69.8342252
   108.5498446   69.8342183
   108.5587304   69.8331186
   108.5696442   69.8330986
   108.5782851   69.8320120
   108.5894471   69.8319779
   108.5978316   69.8309067
   108.6092427   69.8308579
   108.6173866   69.8298008
   108.6290415   69.8297364
   108.6369338   69.8286958
   108.6488402   69.8286151
   108.6564883   69.8275907
   108.6686396   69.8274928
   108.6760389   69.8264861
   108.6884422   69.8263701
   108.6955856   69.8253829
   108.7082377   69.8252480
   108.7151402   69.8242791
   108.7280363   69.8241245
   108.7346870   69.8231762
   108.7478348   69.8230010
   108.7542415   69.8220733
   108.7676378   69.8218765
   108.7737883   69.8209719
   108.7874326   69.8207526
   108.7933432   69.8198698
   108.8072310   69.8196273
   108.8128908   69.8187689
   108.8270301   69.8185019
   108.8324452   69.8176679
   108.8468322   69.8173755
   108.8664683   69.8143042
   108.8858889   69.8085640
   108.8907087   69.8064534
   108.9052520   69.8021231
   108.9100676   69.8000440
   108.9246160   69.7956838
   108.9294301   69.7936319
   108.9439840   69.7892446
   108.9487895   69.7872198
   108.9683900   69.7807335
   109.0822237   69.7771308
   109.1960505   69.7731201
   109.2012647   69.7733661
   109.2150794   69.7724666
   109.2210993   69.7727281
   109.2341083   69.7718158
   109.2531163   69.7725688
   109.2720922   69.7754101
   109.2910406   69.7803406
   109.2935428   69.7814453
   109.3084117   69.7926172
   109.3223058   69.8053204
   109.3303018   69.8141305
   109.3355995   69.8189660
   109.3675281   69.8519915
   109.3998771   69.9193798
   109.4032092   69.9272772
   109.4341392   69.9852863
   109.4425857   70.0048632
   109.4465434   70.0163860
   109.4068122   70.0729964
   109.3973691   70.0888691
   109.3888702   70.1054940
   109.3807167   70.1223866
   109.3736207   70.1401363
   109.3690879   70.1541072
   109.3758505   70.1617821
   109.3924037   70.1780764
   109.4093531   70.1923288
   109.4267022   70.2045424
   109.4444499   70.2147162
   109.4625942   70.2228493
   109.4811380   70.2289429
   109.4910662   70.2310675
   109.5087157   70.2367948
   109.5257472   70.2443399
   109.5421655   70.2537048
   109.5579711   70.2648907
   109.5721988   70.2761447
   109.6191168   70.3395600
   109.6332625   70.3473113
   109.6516414   70.3564915
   109.6702832   70.3636353
   109.6891733   70.3687364
   109.7083118   70.3717960
   109.7181319   70.3723122
   109.7275847   70.3738485
   109.7379017   70.3744215
   109.7468484   70.3758990
   109.7576806   70.3765326
   109.7661217   70.3779487
   109.7774547   70.3786449
   109.7853857   70.3799960
   109.7972287   70.3807580
   109.8046594   70.3820430
   109.8169971   70.3828726
   109.8239237   70.3840881
   109.8367755   70.3849892
   109.8431977   70.3861325
   109.8565491   70.3871068
   109.8624623   70.3881744
   109.8763227   70.3892252
   109.8817367   70.3902163
   110.0147345   70.4040923
   110.0343469   70.4080178
   110.0537773   70.4139850
   110.0730204   70.4219917
   110.0920920   70.4320451
   110.1109762   70.4441373
   110.1416633   70.4668467
   110.1398297   70.4909518
   110.1394688   70.5122373
   110.1402832   70.5330298
   110.1427034   70.5531455
   110.1467292   70.5725843
   110.1523615   70.5913488
   110.1595982   70.6094323
   110.1640151   70.6181272
   110.1738678   70.6249453
   110.1919431   70.6359931
   110.2103863   70.6450972
   110.2292512   70.6520004
   110.2485474   70.6567057
   110.2561446   70.6576707
   110.2680015   70.6605687
   110.2756839   70.6615476
   110.2874529   70.6644307
   110.2952215   70.6654238
   110.3069111   70.6682942
   110.3147608   70.6693007
   110.3263668   70.6721572
   110.3342983   70.6731774
   110.3458209   70.6760200
   110.3538333   70.6770539
   110.3652722   70.6798824
   110.3733752   70.6809313
   110.3847305   70.6837457
   110.3929144   70.6848084
   110.4041862   70.6876085
   110.4124519   70.6886853
   110.4236360   70.6914702
   110.4319912   70.6925619
   110.4430959   70.6953335
   110.4515286   70.6964389
   110.4625500   70.6991961
   110.4710678   70.7003161
   110.4851068   70.7034674
   110.5009159   70.7097410
   110.5155578   70.7150375
   110.5196957   70.7171088
   110.5334882   70.7219889
   110.5384708   70.7244721
   110.5514131   70.7289395
   110.5572547   70.7318369
   110.5693397   70.7358945
   110.5760344   70.7391975
   110.5872648   70.7428519
   110.5948159   70.7465553
   110.6138587   70.7525347
   110.6335009   70.7554454
   110.6395306   70.7553977
   110.6533269   70.7573810
   110.6589686   70.7573363
   110.6731508   70.7593156
   110.6784000   70.7592740
   110.6929800   70.7612512
   110.6978346   70.7612126
   110.7128073   70.7631868
   110.7172730   70.7631513
   110.7326296   70.7651214
   110.7367040   70.7650890
   110.8606837   70.7775132
   110.8711772   70.7798987
   110.8800799   70.7808517
   110.8907337   70.7832609
   110.8994844   70.7841923
   110.9102846   70.7866218
   110.9188836   70.7875319
   110.9298328   70.7899819
   110.9382840   70.7908714
   110.9493879   70.7933430
   110.9576800   70.7942109
   110.9689403   70.7967042
   110.9770834   70.7975518
   110.9884870   70.8000638
   110.9964838   70.8008915
   111.0080438   70.8034248
   111.0158840   70.8042319
   111.0275948   70.8067851
   111.0352842   70.8075722
   111.0471474   70.8101454
   111.0546788   70.8109122
   111.0666939   70.8135050
   111.0740836   70.8142533
   111.0862509   70.8168656
   111.0934837   70.8175940
   111.1058020   70.8202255
   111.1128827   70.8209347
   111.1253503   70.8235845
   111.1322786   70.8242747
   111.1449056   70.8269451
   111.1516831   70.8276166
   111.1644584   70.8303048
   111.1710832   70.8309578
   111.1840050   70.8336634
   111.1904821   70.8342983
   111.2035622   70.8370234
   111.2098823   70.8376397
   111.2231133   70.8403827
   111.2292778   70.8409806
   111.2426661   70.8437426
   111.2486812   70.8443229
   111.2622127   70.8471008
   111.2680815   70.8476640
   111.2817701   70.8504604
   111.2874815   70.8510057
   111.3013217   70.8538194
   111.3068768   70.8543470
   111.3208681   70.8571778
   111.3262803   70.8576891
   111.3617326   70.8640600
   111.5313699   70.9178530
   111.5509720   70.9209487
   111.7692293   70.9523338
   111.9161983   70.9737376
   112.0135553   71.0103684
   112.0180866   71.0126093
   112.0315195   71.0171275
   112.0369067   71.0197787
   112.0559095   71.0259892
   112.0754609   71.0293301
   112.0955736   71.0298027
   112.1042370   71.0287980
   112.1159500   71.0288837
   112.1227518   71.0280428
   112.1363272   71.0279469
   112.1412691   71.0273023
   112.1974753   71.0251189
   112.2491576   71.0227241
   112.2580436   71.0252852
   112.2676823   71.0271131
   112.2773456   71.0299076
   112.2870976   71.0317581
   112.2966597   71.0345328
   112.3065108   71.0364034
   112.3159668   71.0391567
   112.3259221   71.0410483
   112.3352708   71.0437799
   112.3453404   71.0456946
   112.3545833   71.0484049
   112.3647564   71.0503406
   112.3738904   71.0530287
   112.3841715   71.0549862
   112.3931995   71.0576528
   112.4035848   71.0596316
   112.4227072   71.0653008
   112.4412777   71.0728904
   112.4592953   71.0823997
   112.4767646   71.0938311
   112.4939950   71.1060836
   112.5107599   71.1199709
   112.5269948   71.1357011
   112.5426987   71.1532727
   112.5485332   71.1607373
   112.5578238   71.1843843
   112.5634623   71.2022197
   112.5456663   71.2199745
   112.5290410   71.2345022
   112.5120429   71.2475145
   112.4946809   71.2591583
   112.4771166   71.2699389
   112.4591444   71.2791815
   112.4407931   71.2868712
   112.3279807   71.3225691
   112.0707339   71.4033859
   112.0528210   71.4103291
   112.0344385   71.4196838
   112.0323682   71.4233464
   112.0238254   71.4426396
   112.0175503   71.4621031
   112.0135464   71.4817240
   112.0118108   71.5015158
   112.0119223   71.5056853
   111.9768372   72.0571458
   111.9734241   72.0767256
   111.9679015   72.0961931
   111.9637896   72.1066208
   111.9563689   72.1111457
   111.9386013   72.1197668
   111.8656796   72.1457637
   111.8606149   72.1470777
   111.8474416   72.1522013
   111.8416294   72.1537226
   111.8291936   72.1586400
   111.8226451   72.1603699
   111.8109492   72.1650754
   111.8036640   72.1670187
   111.7927077   72.1715072
   111.7846805   72.1736705
   111.7662211   72.1813783
   111.7489554   72.1914975
   111.7441373   72.1952539
   111.7320626   72.2023774
   111.7274527   72.2059645
   111.7151752   72.2132526
   111.7107664   72.2166770
   111.6982847   72.2241298
   111.6940821   72.2273885
   111.6813939   72.2350064
   111.6773906   72.2381054
   111.6645033   72.2458833
   111.6607075   72.2488172
   111.5640950   72.3105571
   111.5506762   72.3143148
   111.5431484   72.3157159
   111.5319438   72.3190416
   111.5131637   72.3225959
   111.4187484   72.3316096
   111.3409387   72.3393665
   111.3219112   72.3439273
   111.3032693   72.3508604
   111.2850128   72.3601658
   111.2671419   72.3718435
   111.2495380   72.3851977
   111.2321664   72.3999128
   111.2151504   72.4168506
   111.1984963   72.4360053
   111.1806742   72.4596412
   111.1061297   72.4763092
   111.0989786   72.4840179
   111.0730017   72.5135348
   111.0570024   72.5296484
   111.0405170   72.5440396
   111.0235248   72.5567264
   111.0060508   72.5676901
   110.9880686   72.5769475
   110.9798105   72.5803186
   110.9698801   72.5854394
   110.9616936   72.5887641
   110.9516847   72.5939343
   110.9435792   72.5972079
   110.9334839   72.6024325
   110.9254624   72.6056533
   110.9152950   72.6109254
   110.9073476   72.6140966
   110.8970947   72.6194242
   110.8892304   72.6225413
   110.8789057   72.6279181
   110.8711116   72.6309853
   110.8607067   72.6364167
   110.8530010   72.6394259
   110.8425153   72.6449131
   110.8348782   72.6478710
   110.8243185   72.6534119
   110.8167666   72.6563108
   110.8061273   72.6619096
   110.7986435   72.6647546
   110.7810877   72.6740221
   110.7649112   72.6853614
   110.7501323   72.6987599
   110.7367340   72.7142330
   110.7241291   72.7308643
   110.7127265   72.7493081
   110.7026666   72.7697315
   110.6947767   72.7900034
   110.6986579   72.8721658
   110.7026928   72.8812963
   110.7111591   72.8976108
   110.7206399   72.9133768
   110.7311351   72.9285943
   110.7426404   72.9432576
   110.7551696   72.9573839
   110.7708332   72.9743979
   110.7837553   72.9890444
   110.7960332   73.0046576
   110.7969868   73.0075681
   110.7968411   73.0270292
   110.7956186   73.0462331
   110.7923248   73.0706706
   110.7714474   73.0944279
   110.7555170   73.1100425
   110.7391809   73.1238990
   110.7224122   73.1360204
   110.7052290   73.1463927
   110.6225896   73.1868934
   110.6032492   73.1984226
   110.5030280   73.2671943
   110.4977731   73.2866780
   110.4853505   73.3443913
   110.4998697   73.3606220
   110.5171167   73.3779646
   110.5346104   73.3936421
   110.5523184   73.4076255
   110.5702721   73.4199397
   110.5884438   73.4305654
   110.6068587   73.4395176
   110.6254909   73.4467836
   110.7129950   73.4742235
   110.7195657   73.4767663
   110.7313026   73.4800280
   110.7490665   73.4868897
   110.7659549   73.4954329
   110.7819697   73.5056582
   110.7971084   73.5175639
   110.8113773   73.5311548
   110.8247710   73.5464265
   110.8554717   73.5837875
   110.8695524   73.5997962
   110.8852469   73.6153224
   110.9029827   73.6307349
   110.9204003   73.6478425
   110.9354344   73.6643654
   111.0471150   73.6863455
   111.0707122   73.6908299
   111.0819801   73.7082405
   111.0971016   73.7290694
   111.1126691   73.7480481
   111.1286653   73.7651545
   111.1450903   73.7803908
   111.1619637   73.7937741
   111.1792602   73.8052842
   111.1970016   73.8149359
   111.2151685   73.8227185
   111.2337794   73.8286401
   111.2459501   73.8312325
   111.2526601   73.8333717
   111.2649066   73.8359836
   111.2835456   73.8419379
   111.3016736   73.8497604
   111.3193030   73.8594556
   111.3380931   73.8723647
   111.3557679   73.8743631
   111.3641414   73.8760582
   111.3945367   73.8806727
   111.4135451   73.8852427
   111.4616909   73.8983437
   111.4777583   73.9008268
   111.4969969   73.9029861
   111.5162859   73.9033548
   111.5738192   73.8989728
   111.5929987   73.8991186
   111.6124904   73.9008803
   111.6322760   73.9042571
   111.6647599   73.9124966
   111.6724271   73.9141747
   111.6926783   73.9200237
   111.7131989   73.9273477
   111.7339813   73.9361428
   111.7550581   73.9464234
   111.7763989   73.9581752
   111.7980139   73.9714032
   111.8214484   73.9872366
   111.8081505   74.0044526
   111.7914557   74.0242954
   111.7745757   74.0426068
   111.7575134   74.0593841
   111.7402729   74.0746240
   111.7228321   74.0883451
   111.7052143   74.1005282
   111.6696183   74.1218847
   111.6516442   74.1311092
   111.6334793   74.1386864
   111.6151036   74.1446241
   111.5965354   74.1489156
   111.5697046   74.1533459
   111.5388881   74.1599579
   111.5224559   74.1621589
   111.4533937   74.1723250
   111.4424638   74.1735576
   111.4224356   74.1774340
   111.4023423   74.1829362
   111.3698272   74.1943122
   111.3620543   74.1966783
   111.3418837   74.2042911
   111.3216584   74.2133930
   111.3013785   74.2239840
   111.2810432   74.2360646
   111.2606543   74.2496338
   111.2401990   74.2647007
   111.2197116   74.2812394
   111.1991589   74.2992758
   111.1763456   74.3210451
   111.1967660   74.3546060
   111.2154700   74.3750408
   111.2636749   74.4226526
   111.2801440   74.4371732
   111.2969307   74.4506163
   111.3140196   74.4629705
   111.3314342   74.4742525
   111.3491515   74.4844476
   111.3671862   74.4935647
   111.3855476   74.5016075
   111.4042025   74.5085620
   111.4359292   74.5187679
   111.4591047   74.5240252
   111.4729403   74.5255866
   111.5860094   74.5271373
   111.6236782   74.5275492
   111.6424723   74.5273295
   111.7169484   74.5210774
   111.7379833   74.5180848
   111.7568688   74.5166400
   111.7759762   74.5164062
   111.8143631   74.5168351
   111.8195389   74.5172316
   111.8473995   74.5466351
   111.8596456   74.5585925
   111.8642283   74.5622146
   111.8803401   74.5728181
   111.9165329   74.5932242
   111.9329295   74.6008812
   111.9498088   74.6072218
   111.9671593   74.6122419
   111.9925101   74.6184786
   112.0109833   74.6239912
   112.0292218   74.6310293
   112.0472011   74.6395836
   112.0593542   74.6464887
   112.0653192   74.6473236
   112.0840550   74.6513002
   112.1025623   74.6565972
   112.1209991   74.6624181
   112.1392863   74.6690697
   112.1573699   74.6770225
   112.2044193   74.7006080
   112.2111782   74.7036663
   112.2296875   74.7133874
   112.2406251   74.7153264
   112.2602061   74.7176718
   112.2860316   74.7189658
   112.3591175   74.7222910
   112.4136127   74.7245801
   112.4184793   74.7249730
   112.4534287   74.7257683
   112.4857546   74.7240399
   112.5179927   74.7220646
   112.5369791   74.7216615
   112.5560548   74.7221535
   112.6325363   74.7252848
   112.7629862   74.7307680
   112.9385585   74.7477028
   112.9584216   74.7504489
   112.9864470   74.7557685
   113.0566033   74.7695157
   113.1123542   74.7788107
   113.1316963   74.7827584
   113.1510941   74.7873833
   113.1782434   74.7949291
   113.2091813   74.7995068
   113.2285221   74.8032062
   113.2712191   74.8122973
   113.3469327   74.8214035
   113.3662587   74.8231319
   113.3857169   74.8243375
   113.4644576   74.8266116
   113.5329837   74.8269375
   113.5536625   74.8265476
   113.6375864   74.8222750
   113.6588113   74.8206587
   113.6802417   74.8185810
   113.7177619   74.8138603
   113.7328623   74.8105813
   113.9292935   74.7639899
   113.9708675   74.7549204
   114.0044188   74.7482123
   114.4411469   74.6569537
   114.4573960   74.6522435
   114.5026415   74.6708316
   114.5418017   74.6878403
   114.5855286   74.7078379
   114.6818077   74.7617614
   114.7013988   74.7757116
   114.7344612   74.7999299
   114.7673202   74.8248206
   114.7915776   74.8437543
   114.8804805   75.0209739
   114.8856014   75.0313027
   114.9631497   75.1895807
   115.1931443   75.4952415
   115.2144542   75.5241135
   115.7336884   76.2412759
   115.7622459   76.2812664
   115.7905300   76.3215989
   116.5157213   77.3696816
   116.5933050   77.4792724
   116.6309446   77.5328092
   119.0239225   80.9598217
   119.3373942   81.3702696
   119.3923035   81.4423522
   119.7278818   81.8840158
   147.7130515   81.8874700
   147.7132224   81.8872339
END
2
   -169.6576536   70.9574733
   -168.6841425   65.9903068
   -168.6841158   65.9898697
   -168.7252820   65.4151212
   -168.7255329   65.4147740
   -172.0740021   64.0336416
   -172.0744089   64.0335133
   -179.9997572   62.2613943
   -180.0000000   62.2615888
   -180.0000000   72.2390108
   -179.9997527   72.2392294
   -169.6579394   70.9577397
   -169.6576536   70.9574733
END
END
