australia-oceania-australia-west
1
   110.2897969   -12.8314047
   110.2898113   -12.8311715
   110.2900447   -12.8311619
   117.8526644   -12.8911881
   117.8528983   -12.8912010
   117.8531257   -12.8912575
   118.2530854   -13.0108681
   118.2541207   -13.0111185
   118.2551768   -13.0112574
   118.2562416   -13.0112831
   118.2573031   -13.0111955
   118.2583493   -13.0109954
   118.7152976   -12.8980900
   118.7155014   -12.8980486
   118.7157085   -12.8980417
   128.8298583   -12.9783277
   128.8308337   -12.9782878
   128.8318005   -12.9781529
   128.8327496   -12.9779245
   128.8336719   -12.9776046
   128.8345586   -12.9771963
   128.8354013   -12.9767035
   128.8361919   -12.9761308
   128.8369229   -12.9754839
   128.8375873   -12.9747687
   128.8381789   -12.9739921
   128.8386919   -12.9731616
   128.8391215   -12.9722850
   128.8394635   -12.9713707
   128.8397148   -12.9704274
   128.8398729   -12.9694641
   128.8399364   -12.9684899
   128.8399045   -12.9675142
   128.6705202   -10.8928971
   128.6705126   -10.8926598
   128.6707445   -10.8926092
   130.9998446   -10.5041659
   131.0001567   -10.5041239
   136.1866546   -9.9719592
   136.1868963   -9.9719464
   136.1870907   -9.9720904
   139.2774813   -12.5064018
   137.9906732   -16.5213816
   137.9906114   -16.5216119
   137.9905946   -16.5218498
   137.9902013   -16.5394028
   137.9902000   -16.5395172
   137.9945999   -25.9974047
   137.9946115   -25.9976385
   137.9948453   -25.9976502
   140.9849156   -26.0004207
   140.9858947   -26.0004697
   140.9868644   -26.0006143
   140.9878152   -26.0008532
   140.9887381   -26.0011840
   140.9896242   -26.0016036
   140.9904649   -26.0021079
   140.9912521   -26.0026922
   140.9919784   -26.0033507
   140.9926367   -26.0040772
   140.9932208   -26.0048646
   140.9937248   -26.0057055
   140.9941442   -26.0065917
   140.9944747   -26.0075146
   140.9947133   -26.0084655
   140.9948576   -26.0094352
   140.9949063   -26.0104144
   140.9967942   -28.9931115
   140.9967532   -28.9940221
   140.9966295   -28.9949252
   140.9964240   -28.9958133
   140.9961386   -28.9966789
   140.9957755   -28.9975150
   140.9953378   -28.9983146
   140.9948291   -28.9990709
   140.9948119   -28.9990942
   140.9948001   -28.9993355
   140.9971758   -33.9875437
   140.9971279   -33.9885257
   140.9969838   -33.9894983
   140.9967449   -33.9904520
   140.9964136   -33.9913777
   140.9959929   -33.9922663
   140.9954870   -33.9931094
   140.9949007   -33.9938987
   140.9942398   -33.9946266
   140.9935105   -33.9952860
   140.9927201   -33.9958707
   140.9918760   -33.9963750
   140.9909865   -33.9967939
   140.9900602   -33.9971234
   140.9891060   -33.9973604
   140.9881331   -33.9975025
   140.9871510   -33.9975484
   140.9861691   -33.9974976
   140.9851970   -33.9973507
   140.9842439   -33.9971090
   140.9833193   -33.9967749
   140.9824319   -33.9963516
   140.9815903   -33.9958432
   140.9808028   -33.9952546
   140.9800768   -33.9945915
   140.9794195   -33.9938603
   140.9788371   -33.9930681
   140.9783354   -33.9922226
   140.9779191   -33.9913319
   140.9735942   -33.9807505
   140.9734916   -33.9805314
   140.9732520   -33.9804983
   140.9599428   -33.9793313
   140.9597113   -33.9793223
   140.9596997   -33.9795537
   140.9574000   -35.7998263
   140.9619998   -38.1101747
   140.9620065   -38.1104251
   140.9627047   -38.1238153
   140.0857135   -39.8313390
   140.0855945   -39.8315449
   140.0853706   -39.8314647
   129.5438652   -35.4508481
   129.5429217   -35.4505104
   129.5419492   -35.4502688
   129.5409573   -35.4501258
   129.5399561   -35.4500827
   129.5389557   -35.4501401
   129.5379660   -35.4502974
   129.5369970   -35.4505528
   129.5360584   -35.4509040
   129.5351597   -35.4513474
   129.5343099   -35.4518785
   129.5335175   -35.4524920
   129.5327905   -35.4531817
   129.5321361   -35.4539407
   129.5315611   -35.4547613
   129.5310710   -35.4556355
   129.5306709   -35.4565542
   129.5303648   -35.4575084
   129.5301556   -35.4584885
   129.5300457   -35.4594846
   129.5300360   -35.4604866
   129.5301266   -35.4614846
   130.3199648   -41.0388816
   130.3199863   -41.0391182
   130.3197492   -41.0391315
   109.9283484   -41.1642685
   109.9281119   -41.1642582
   109.9281032   -41.1640216
   110.2897969   -12.8314047
END
2
   122.7840059   -11.8927327
   122.7843022   -11.8926782
   122.7846029   -11.8926600
   124.0413545   -11.8926600
   124.0415885   -11.8926715
   124.0416000   -11.8929055
   124.0416000   -12.8479540
   124.0415885   -12.8481884
   124.0413540   -12.8481992
   122.5838423   -12.8436108
   122.5836110   -12.8435988
   122.5835958   -12.8433677
   122.5681042   -11.9463303
   122.5681113   -11.9460987
   122.5683333   -11.9460323
   122.7840059   -11.8927327
END
3
   105.3044980   -10.1712454
   105.3045114   -10.1710116
   105.3047454   -10.1710019
   105.9943545   -10.1763381
   105.9945884   -10.1763514
   105.9945980   -10.1765855
   105.9894020   -10.8263146
   105.9893886   -10.8265484
   105.9891546   -10.8265581
   105.2995455   -10.8212319
   105.2993116   -10.8212186
   105.2993020   -10.8209845
   105.3044980   -10.1712454
END
4
   97.2402746   -11.5468119
   97.2405086   -11.5468216
   97.2405219   -11.5470554
   97.2484181   -12.5465145
   97.2484084   -12.5467486
   97.2481745   -12.5467619
   96.4616054   -12.5526981
   96.4613714   -12.5526884
   96.4613581   -12.5524546
   96.4534519   -11.5530155
   96.4534616   -11.5527814
   96.4536955   -11.5527681
   97.2402746   -11.5468119
END
5
   72.1752107   -52.7038154
   72.1752691   -52.7035910
   72.1755005   -52.7035757
   74.4526952   -52.6630844
   74.4529277   -52.6630916
   74.4529214   -52.6633241
   74.3861489   -53.5416318
   74.3861190   -53.5418682
   74.3858810   -53.5418804
   71.9993671   -53.5454896
   71.9991342   -53.5454785
   71.9991706   -53.5452482
   72.1752107   -52.7038154
END
END
