australia-oceania-australia-east
1
   138.2266339   -16.1387568
   138.2512939   -16.1048251
   138.2989555   -16.0560793
   138.3642966   -15.9913755
   138.4349940   -15.9232932
   138.5116085   -15.8512883
   138.5939484   -15.7755455
   138.5999505   -15.7701285
   138.6079600   -15.7208672
   138.6109249   -15.6985066
   138.6875141   -15.1581036
   138.6903467   -15.1375411
   138.7486950   -14.7015531
   138.8378272   -14.6053448
   138.9473214   -14.4951112
   139.2335418   -14.1692447
   139.2037810   -13.6953391
   139.1999684   -13.6414174
   139.1981275   -13.6182503
   139.1953170   -13.1780980
   139.1951955   -13.1664897
   139.2089244   -13.1220007
   139.2199479   -13.0850744
   139.2302823   -13.0494054
   139.2750530   -12.7277592
   139.2854980   -12.4813891
   140.2224263   -9.5580719
   140.2227401   -9.5578174
   141.5002518   -9.4267345
   141.5007483   -9.4267332
   142.0438042   -9.4797272
   142.0486386   -9.4789982
   142.0536330   -9.4744161
   142.0547748   -9.4696622
   142.0521027   -9.2317239
   142.0523152   -9.2313846
   142.1899811   -9.1665191
   142.1904199   -9.1665170
   142.3379694   -9.2342913
   142.5490566   -9.3518211
   142.5553351   -9.3529837
   142.8648542   -9.3087771
   142.8650815   -9.3089896
   142.8523438   -9.4790462
   142.8528419   -9.4829939
   142.8555415   -9.4871490
   142.8589462   -9.4892083
   142.8638796   -9.4896701
   143.2939776   -9.4215727
   143.2982152   -9.4198409
   144.1024041   -8.8470455
   144.1403500   -8.8416637
   144.1406975   -8.8418618
   146.8924228   -15.4089598
   146.8977730   -15.4143148
   146.9025199   -15.4150569
   146.9098428   -15.4108231
   146.9115077   -15.4034387
   146.8651395   -15.1273854
   146.8653387   -15.1271455
   154.6661710   -14.9814643
   154.6665975   -14.9815760
   155.8859002   -15.6975227
   155.8861682   -15.6978614
   157.5858251   -21.2189665
   157.5858723   -21.2194632
   157.4159224   -22.7745598
   157.4174754   -22.7810910
   157.4210162   -22.7843930
   158.2004905   -23.2163339
   158.2007705   -23.2166789
   160.4217273   -30.4315437
   160.4215538   -30.4318022
   158.7943397   -30.5782884
   158.7939638   -30.5781115
   153.4241058   -22.7563820
   153.4212586   -22.7536233
   153.4145819   -22.7521241
   153.4108286   -22.7534008
   153.4073079   -22.7568618
   153.4059798   -22.7635746
   154.2004615   -27.8856816
   154.2002703   -27.8860320
   153.6369087   -28.1363068
   153.6337447   -28.1385307
   153.6311297   -28.1436576
   153.6314353   -28.1484649
   153.6363002   -28.1542890
   160.0744809   -31.5529643
   160.0746501   -31.5533227
   158.7979502   -37.7595961
   158.7976511   -37.7598335
   150.4784757   -37.5422356
   150.4719427   -37.5444433
   150.4689652   -37.5484303
   150.4680852   -37.5535607
   147.2749118   -39.1985909
   147.2238107   -39.1986618
   147.2167140   -39.2016089
   147.2138461   -39.2077360
   147.2161291   -39.2150733
   147.2219669   -39.2184918
   148.8864533   -39.5294139
   148.8868585   -39.5296546
   161.6705443   -55.2253888
   161.6704576   -55.2256250
   152.8589576   -56.8623121
   152.8584381   -56.8623532
   146.9657407   -56.7096062
   146.9654529   -56.7093639
   143.4758654   -39.2255829
   143.4715836   -39.2192049
   143.4659987   -39.2175404
   141.0207383   -39.2322386
   141.0204876   -39.2320020
   140.9627047   -38.1238153
   140.9449510   -38.1583822
   140.9545645   -38.1002211
   140.9521602   -38.0545196
   140.9618949   -38.0575020
   140.9574000   -35.7998263
   140.9596997   -33.9795537
   140.9732520   -33.9804983
   140.9779191   -33.9913319
   140.9808028   -33.9952546
   140.9851970   -33.9973507
   140.9927201   -33.9958707
   140.9964136   -33.9913777
   140.9971758   -33.9875437
   140.9948001   -28.9993355
   140.9967942   -28.9931115
   140.9949063   -26.0104144
   140.9932208   -26.0048646
   140.9904649   -26.0021079
   140.9849156   -26.0004207
   137.9948453   -25.9976502
   137.9945999   -25.9974047
   137.9902000   -16.5395172
   137.9902892   -16.5354797
   137.9835680   -16.5313184
   138.2266339   -16.1387568
END
!2
   153.1862419   -21.8346593
   153.2541955   -20.5688483
   153.2515143   -20.5614826
   153.2453495   -20.5583774
   152.7332555   -20.4996355
   152.7284679   -20.5002594
   152.7229736   -20.5055185
   152.7221196   -20.5092996
   152.7236332   -20.5148659
   152.7279694   -20.5186701
   152.7975816   -20.5503905
   152.7978662   -20.5507207
   153.1666437   -21.8368794
   153.1697346   -21.8417039
   153.1759316   -21.8441179
   153.1822722   -21.8421112
   153.1862419   -21.8346593
END
!3
   151.5456308   -19.9598246
   151.5437576   -19.9575755
   150.6088753   -19.1218634
   150.6033341   -19.1193821
   149.4075053   -18.9841872
   149.4001942   -18.9862682
   149.3972359   -18.9900804
   149.3965236   -18.9958014
   149.3979010   -18.9994224
   149.4022354   -19.0032237
   151.5329465   -19.9741307
   151.5386858   -19.9749032
   151.5431414   -19.9729944
   151.5469981   -19.9664052
   151.5456308   -19.9598246
END
4
   167.6247457   -29.4569313
   167.6245017   -29.4566843
   167.6292983   -28.7580552
   167.6295452   -28.7578113
   168.2058496   -28.7608487
   168.2063190   -28.7609713
   168.3453869   -28.8380219
   168.3455983   -28.8383836
   168.3413017   -29.4604348
   168.3410548   -29.4606787
   167.6247457   -29.4569313
END
END
