central-america-mexico-centre-south
1
   -107.4541783   13.9523730
   -105.9019349   16.2191830
   -105.5741258   16.6707233
   -105.0810163   17.2672804
   -104.7510569   17.7456681
   -104.7107030   17.8032564
   -104.6707501   17.8593360
   -104.6315551   17.9134043
   -104.5860276   17.9748994
   -104.5425769   18.0257141
   -104.4965385   18.0785639
   -104.4666339   18.1122178
   -104.3982687   18.1775069
   -104.3346939   18.2367881
   -104.2740071   18.2918833
   -104.2161654   18.3428361
   -104.1610129   18.3897838
   -104.1085482   18.4327224
   -104.0589825   18.4714798
   -104.0368726   18.4878664
   -104.0113604   18.5073803
   -103.9659855   18.5399462
   -103.9494901   18.5508955
   -103.9316008   18.5608954
   -103.8814208   18.5863373
   -103.8368030   18.6060619
   -103.7872779   18.6238244
   -103.7354120   18.6839782
   -103.7420250   18.6904120
   -103.7184180   18.7060940
   -103.7081350   18.7168420
   -103.7020370   18.7324490
   -103.6990910   18.7453160
   -103.6947500   18.7579770
   -103.6882390   18.7693460
   -103.6790670   18.7788540
   -103.6645970   18.7853650
   -103.6508510   18.7870190
   -103.6381390   18.7905330
   -103.6270280   18.8024190
   -103.6227910   18.8153380
   -103.6202070   18.8419510
   -103.6147550   18.8544050
   -103.6136700   18.8632420
   -103.6159950   18.8718720
   -103.6166160   18.8782800
   -103.6151430   18.8838090
   -103.6118100   18.8884600
   -103.6066160   18.8919740
   -103.5949370   18.8853590
   -103.5859710   18.8820520
   -103.5776000   18.8839640
   -103.5675490   18.8930590
   -103.5579630   18.8995700
   -103.5309360   18.9116630
   -103.5249160   18.9151250
   -103.5249160   18.9193110
   -103.5273190   18.9285090
   -103.5253030   18.9329530
   -103.5205750   18.9350720
   -103.5080690   18.9356400
   -103.5033930   18.9382240
   -103.4988450   18.9494380
   -103.4963390   18.9611690
   -103.4908870   18.9685580
   -103.4778130   18.9664400
   -103.4647130   18.9727960
   -103.4509150   18.9753280
   -103.4217180   18.9757410
   -103.4035790   18.9750180
   -103.3827540   18.9734680
   -103.3629880   18.9736740
   -103.3481050   18.9777570
   -103.3381570   18.9875750
   -103.3273050   19.0029750
   -103.3176160   19.0190460
   -103.3110270   19.0311380
   -103.2962990   19.0477270
   -103.2817260   19.0530490
   -103.2680840   19.0468480
   -103.2562500   19.0289680
   -103.2423490   19.0129480
   -103.2272080   19.0132580
   -103.2113170   19.0150670
   -103.1950910   19.0036470
   -103.1827140   18.9843710
   -103.1667720   18.9635970
   -103.1491250   18.9538300
   -103.1314770   18.9678860
   -103.1289710   18.9768780
   -103.1258960   18.9999260
   -103.1222530   19.0061270
   -103.0960270   19.0195630
   -103.0694400   19.0321720
   -103.0152570   19.0474160
   -102.9883340   19.0584240
   -102.9671460   19.0744430
   -102.9544600   19.0972840
   -102.9461400   19.1248790
   -102.9365800   19.1529910
   -102.9201980   19.1771760
   -102.9036100   19.1916450
   -102.8844380   19.2025490
   -102.8638190   19.2108170
   -102.8427870   19.2171740
   -102.8171810   19.2236850
   -102.8045720   19.2263720
   -102.7914200   19.2274570
   -102.7866920   19.2307130
   -102.7771060   19.2465770
   -102.7711630   19.2527270
   -102.7510090   19.2588760
   -102.7280390   19.2575330
   -102.7054570   19.2507630
   -102.6864400   19.2408410
   -102.6825900   19.2357250
   -102.6783270   19.2248220
   -102.6719450   19.2230130
   -102.6575010   19.2311260
   -102.6425410   19.2490060
   -102.6186400   19.2843530
   -102.5963680   19.3129820
   -102.5941200   19.3198550
   -102.5981510   19.3335490
   -102.5976860   19.3401120
   -102.5883320   19.3539090
   -102.5755420   19.3656920
   -102.5615380   19.3763370
   -102.5486450   19.3868790
   -102.5447170   19.4000050
   -102.5517970   19.4051210
   -102.5638890   19.4076530
   -102.5752580   19.4127170
   -102.5825180   19.4246030
   -102.5884100   19.4422240
   -102.5978410   19.4810330
   -102.6015610   19.4864080
   -102.6070650   19.4897150
   -102.6142220   19.4908520
   -102.6559510   19.4789660
   -102.7073950   19.4680110
   -102.7457130   19.4756070
   -102.7481160   19.5190670
   -102.7430000   19.5492460
   -102.7399770   19.5653690
   -102.7374700   19.5823190
   -102.7387360   19.5984420
   -102.7471850   19.6121880
   -102.7551950   19.6228850
   -102.7573660   19.6330650
   -102.7582960   19.6435040
   -102.7624820   19.6547700
   -102.7665120   19.6589040
   -102.7832300   19.6681020
   -102.7910590   19.6771970
   -102.7965360   19.6886690
   -102.8047530   19.7126990
   -102.8104370   19.7312510
   -102.8139260   19.7509910
   -102.8158120   19.7710420
   -102.8165870   19.7904720
   -102.8098430   19.8208580
   -102.7864600   19.8286090
   -102.7561510   19.8293840
   -102.7285820   19.8388930
   -102.7165410   19.8490730
   -102.7068000   19.8615270
   -102.7179370   19.8716560
   -102.7302100   19.8791490
   -102.7433610   19.8852460
   -102.7572110   19.8910340
   -102.7604660   19.8988890
   -102.7601560   19.9135130
   -102.7586830   19.9296880
   -102.7587870   19.9421420
   -102.7601560   19.9478780
   -102.7628950   19.9523740
   -102.7670550   19.9554230
   -102.7726360   19.9570770
   -102.7897930   19.9560430
   -102.8229950   19.9625540
   -102.8378780   19.9621410
   -102.8495560   19.9605390
   -102.8627340   19.9603840
   -102.8880040   19.9616240
   -102.9053150   19.9710290
   -102.9187510   19.9829150
   -102.9338670   19.9904080
   -102.9561390   19.9866360
   -102.9821320   19.9785740
   -103.0090560   19.9717010
   -103.0228280   19.9696860
   -103.0364180   19.9704090
   -103.0425160   19.9781090
   -103.0478390   19.9830180
   -103.0568310   19.9852400
   -103.0738320   19.9972810
   -103.0815840   20.0255480
   -103.0841930   20.0576390
   -103.0857440   20.0817200
   -103.0775010   20.1048200
   -103.0482260   20.1204260
   -103.0128020   20.1307100
   -102.9858790   20.1375830
   -102.9768350   20.1404250
   -102.8103340   20.1805770
   -102.7813950   20.1873990
   -102.7696130   20.1983020
   -102.7534900   20.2117380
   -102.7298220   20.2174230
   -102.6777580   20.2181980
   -102.6497750   20.2231590
   -102.6277610   20.2354060
   -102.5921040   20.2666190
   -102.5279740   20.2840850
   -102.5170190   20.2901830
   -102.5117480   20.3047560
   -102.4983120   20.3147290
   -102.4213140   20.3425830
   -102.4006430   20.3473370
   -102.3536690   20.3514200
   -102.3167210   20.3607730
   -102.2972900   20.3622200
   -102.2878340   20.3601530
   -102.2608590   20.3502830
   -102.2427720   20.3403610
   -102.2322810   20.3422730
   -102.2178120   20.3491970
   -102.1999320   20.3506440
   -102.1830850   20.3547790
   -102.1184900   20.3838210
   -102.0996800   20.3868180
   -102.0971480   20.4027340
   -102.0807140   20.4364270
   -102.0607160   20.4682600
   -102.0349810   20.5000410
   -102.0064040   20.5276880
   -101.9806170   20.5552830
   -101.9675430   20.5874260
   -101.9768970   20.6285600
   -101.9834080   20.6404460
   -102.0071790   20.6644750
   -102.0618010   20.7046280
   -102.0851070   20.7293290
   -102.0944090   20.7589920
   -102.0879490   20.7906690
   -102.0732730   20.8217270
   -102.0578220   20.8496840
   -102.0456260   20.8724730
   -102.0050090   20.9379990
   -101.9768970   20.9799600
   -101.9482160   21.0215080
   -101.9175200   21.0612990
   -101.8832070   21.0981440
   -101.8776780   21.1064640
   -101.8729240   21.1153520
   -101.8644490   21.1339560
   -101.8550440   21.1483740
   -101.8411940   21.1574170
   -101.8261050   21.1653230
   -101.8129790   21.1763300
   -101.8054340   21.1872860
   -101.7925150   21.2105400
   -101.7853840   21.2218060
   -101.7719480   21.2300740
   -101.7525170   21.2323480
   -101.7162410   21.2306940
   -101.7014610   21.2319860
   -101.6875090   21.2360680
   -101.6743830   21.2425800
   -101.6620840   21.2511060
   -101.6355740   21.2722940
   -101.6114410   21.2941530
   -101.5902530   21.3185440
   -101.5726830   21.3475860
   -101.5682390   21.3667060
   -101.5664820   21.3862920
   -101.5682390   21.4057220
   -101.5746470   21.4242740
   -101.5943880   21.4552280
   -101.6183650   21.4849940
   -101.6368660   21.5166710
   -101.6401210   21.5534130
   -101.6150580   21.5846780
   -101.5733040   21.6107230
   -101.5382670   21.6368710
   -101.5333580   21.6683930
   -101.5475690   21.6895810
   -101.5643120   21.7098380
   -101.5787810   21.7310770
   -101.5862230   21.7550550
   -101.5797110   21.7784640
   -101.5613660   21.8018220
   -101.5205420   21.8409410
   -101.4806480   21.8231130
   -101.4493840   21.8221310
   -101.4194630   21.8342750
   -101.3834440   21.8557720
   -101.3739360   21.8609400
   -101.3502680   21.8696210
   -101.3259800   21.8729290
   -101.3043280   21.8668310
   -101.2884110   21.8472970
   -101.2856730   21.8332410
   -101.2862930   21.8184620
   -101.2856730   21.8038890
   -101.2794710   21.7906080
   -101.2704800   21.7811000
   -101.2597310   21.7719530
   -101.2480520   21.7640980
   -101.2364770   21.7583620
   -101.2015950   21.7536600
   -101.1645430   21.7593440
   -101.1271290   21.7681290
   -101.0911620   21.7724700
   -101.0592780   21.7712300
   -101.0251200   21.7678190
   -100.9916340   21.7611010
   -100.9614550   21.7503520
   -100.9447110   21.7378470
   -100.9287430   21.7238420
   -100.8977890   21.6946970
   -100.8514870   21.6592980
   -100.8045130   21.6246750
   -100.7573330   21.5903100
   -100.7102550   21.5557910
   -100.6697410   21.5216840
   -100.6487610   21.5053030
   -100.6273150   21.4917630
   -100.5936220   21.4923840
   -100.5563110   21.4920220
   -100.5225150   21.4969830
   -100.4992090   21.5136230
   -100.4917160   21.5319160
   -100.4870650   21.5543950
   -100.4832930   21.5774430
   -100.4784870   21.5977000
   -100.4691330   21.6238480
   -100.4631900   21.6365610
   -100.4557490   21.6481360
   -100.4484630   21.6564560
   -100.4391090   21.6652930
   -100.4286710   21.6727340
   -100.4182320   21.6770230
   -100.4039690   21.6777470
   -100.3961660   21.6737680
   -100.3906370   21.6679280
   -100.3831440   21.6629160
   -100.3619050   21.6568180
   -100.3521900   21.6533560
   -100.3225270   21.6382660
   -100.2839250   21.6243650
   -100.2654760   21.6165100
   -100.2544180   21.6101020
   -100.2426870   21.6050900
   -100.2304400   21.6013170
   -100.2179340   21.5985270
   -100.1844990   21.5892250
   -100.1514270   21.5794580
   -100.1184570   21.5691750
   -100.0853320   21.5584260
   -100.0761340   21.5542920
   -100.0387200   21.5265930
   -99.9996530   21.4888700
   -99.9586220   21.4591040
   -99.9153690   21.4549700
   -99.8784720   21.4557970
   -99.8484990   21.4460810
   -99.8208010   21.4318700
   -99.7906220   21.4191060
   -99.7782710   21.4470120
   -99.7659720   21.4789990
   -99.7484020   21.5049930
   -99.7200830   21.5146560
   -99.7075780   21.5079380
   -99.6929530   21.5010130
   -99.6793620   21.4928490
   -99.6699570   21.4826680
   -99.6640660   21.4754340
   -99.6496480   21.4671650
   -99.6426720   21.4614290
   -99.6364710   21.4504220
   -99.6322330   21.4378130
   -99.6267560   21.4266510
   -99.6169370   21.4199330
   -99.6069640   21.4148690
   -99.5917190   21.3998310
   -99.5822620   21.3942500
   -99.5702220   21.3923900
   -99.5634000   21.3957490
   -99.5581810   21.4007610
   -99.5509980   21.4041720
   -99.5286220   21.4040170
   -99.5009240   21.4026220
   -99.4760670   21.4070140
   -99.4624760   21.4242740
   -99.4476970   21.4291320
   -99.4321420   21.4315600
   -99.4189130   21.4347130
   -99.3932300   21.4307850
   -99.3811890   21.4326460
   -99.3752980   21.4373480
   -99.3700270   21.4444790
   -99.3616040   21.4587940
   -99.3530770   21.4745030
   -99.3478060   21.4824620
   -99.3419150   21.4873190
   -99.3353520   21.4956910
   -99.3324070   21.5227690
   -99.3251720   21.5339310
   -99.3196940   21.5373420
   -99.3148370   21.5388410
   -99.3097730   21.5383760
   -99.2926680   21.5306240
   -99.2849160   21.5296940
   -99.2770610   21.5324840
   -99.2659510   21.5384790
   -99.2566490   21.5475740
   -99.2558220   21.5579610
   -99.2575280   21.5689680
   -99.2558220   21.5796130
   -99.2397510   21.5940310
   -99.2163930   21.6072090
   -99.1982550   21.6231250
   -99.1975310   21.6455010
   -99.1694190   21.5526900
   -99.1618750   21.5281440
   -99.1534000   21.5023570
   -99.1438910   21.4773970
   -99.1334530   21.4526960
   -99.1224970   21.4278400
   -99.1063220   21.3981260
   -99.0988290   21.3815380
   -99.0969690   21.3678950
   -99.1123170   21.2903290
   -99.0935580   21.2922920
   -99.0753170   21.2881580
   -99.0583670   21.2795800
   -99.0433810   21.2683150
   -99.0251390   21.2868660
   -98.9958900   21.2964780
   -98.9644190   21.2977180
   -98.9390970   21.2912070
   -98.9334650   21.2854710
   -98.9246800   21.2718290
   -98.9170320   21.2523980
   -98.9115020   21.2269220
   -98.9055590   21.2160700
   -98.8959480   21.2086280
   -98.8831840   21.2026850
   -98.8582760   21.1927640
   -98.8402400   21.1839790
   -98.8236010   21.1768990
   -98.8067540   21.1742630
   -98.7879960   21.1786040
   -98.7641730   21.1894560
   -98.7401950   21.1999980
   -98.7155970   21.2081630
   -98.6898100   21.2119870
   -98.6746690   21.2077500
   -98.6595800   21.2027890
   -98.6516210   21.2011870
   -98.6437670   21.2013420
   -98.6361700   21.2033570
   -98.6291420   21.2071300
   -98.6213390   21.2143640
   -98.6124510   21.2173620
   -98.6026840   21.2165350
   -98.5922970   21.2122460
   -98.5861990   21.2453700
   -98.5856310   21.2806140
   -98.5876460   21.3160640
   -98.5899200   21.3631410
   -98.5895580   21.3715120
   -98.5851660   21.3770420
   -98.5740030   21.3815890
   -98.5445480   21.3910980
   -98.5297680   21.3954390
   -98.5150920   21.3988490
   -98.5147820   21.4174530
   -98.5154540   21.4360560
   -98.5173140   21.4732630
   -98.5210350   21.5044760
   -98.5300780   21.5248360
   -98.5481650   21.5392020
   -98.6001520   21.5616820
   -98.6181870   21.5732050
   -98.6324500   21.5886050
   -98.6422680   21.6088620
   -98.6380310   21.6156830
   -98.6248010   21.6281890
   -98.6247500   21.6428650
   -98.6296070   21.6596080
   -98.6240260   21.6848780
   -98.6087300   21.6966090
   -98.5701790   21.6919580
   -98.5551420   21.7053940
   -98.5647530   21.7134040
   -98.5653220   21.7207420
   -98.5592760   21.7273560
   -98.5489400   21.7332990
   -98.5435660   21.7335060
   -98.5312150   21.7274080
   -98.5247040   21.7258580
   -98.5210870   21.7278210
   -98.5169530   21.7371750
   -98.5147820   21.7401200
   -98.4889960   21.7527290
   -98.4770070   21.7615140
   -98.4664130   21.7742780
   -98.4612450   21.7832700
   -98.4563880   21.7970680
   -98.4591780   21.8097290
   -98.4766450   21.8152580
   -98.4846030   21.8196500
   -98.4863090   21.8301410
   -98.4866700   21.8425430
   -98.4909080   21.8527750
   -98.5318350   21.8493640
   -98.5446000   21.8598030
   -98.5616010   21.8823340
   -98.5660450   21.9037280
   -98.5414470   21.9108080
   -98.5501290   21.9309100
   -98.5389670   21.9435700
   -98.5258410   21.9519940
   -98.5284250   21.9592280
   -98.5474420   21.9574710
   -98.5702830   21.9497720
   -98.5876460   21.9518900
   -98.5899200   21.9796920
   -98.5882140   21.9807260
   -98.5765870   21.9776250
   -98.5383470   21.9722510
   -98.5337480   21.9735940
   -98.5209830   21.9796920
   -98.5092010   21.9802090
   -98.4963340   21.9780900
   -98.4866190   21.9743180
   -98.4772140   21.9749380
   -98.4664130   21.9865140
   -98.4572660   21.9790720
   -98.4522540   21.9804160
   -98.4406780   22.0115250
   -98.4343220   22.0268210
   -98.4267260   22.0414970
   -98.3814570   22.1138960
   -98.3613030   22.1525500
   -98.3485910   22.1920310
   -98.3477120   22.2216410
   -98.3565490   22.2452060
   -98.3737060   22.2649460
   -98.3978390   22.2830330
   -98.4262090   22.3001900
   -98.4847580   22.3316090
   -98.5131290   22.3488170
   -98.5328170   22.3627700
   -98.5521960   22.3769810
   -98.5719880   22.3906750
   -98.5929690   22.4029740
   -98.6161710   22.4185800
   -98.5819620   22.4226110
   -98.5469770   22.4299490
   -98.5136450   22.4352720
   -98.4770580   22.4332050
   -98.4664130   22.4343420
   -98.4523570   22.4236960
   -98.4477060   22.4261770
   -98.4440890   22.4311890
   -98.4392310   22.4327400
   -98.4234700   22.4235930
   -98.4126180   22.4145490
   -98.4022830   22.4125340
   -98.3881230   22.4245230
   -98.3781500   22.4269000
   -98.3717940   22.4129990
   -98.3636800   22.4008550
   -98.3483840   22.4085030
   -98.3359820   22.4034390
   -98.3225980   22.3994600
   -98.3094200   22.3995120
   -98.2977410   22.4066430
   -98.2940720   22.4233860
   -98.2939690   22.4477260
   -98.2897830   22.4667940
   -98.2738150   22.4675180
   -98.2619290   22.4612130
   -98.2556770   22.4585780
   -98.2497340   22.4589400
   -98.2390370   22.4615750
   -98.2294250   22.4656570
   -98.2205880   22.4714970
   -98.2105630   22.4771300
   -98.1976960   22.4805400
   -98.1785240   22.4732540
   -98.1701000   22.4521180
   -98.1619360   22.4277790
   -98.1434350   22.4108800
   -98.1266410   22.3993050
   -98.1096910   22.3844740
   -98.0927930   22.3726400
   -98.0759460   22.3699530
   -98.0534150   22.3696940
   -98.0289200   22.3626150
   -98.0037020   22.3549670
   -97.9787430   22.3529510
   -97.9629810   22.3494890
   -97.9439640   22.3394640
   -97.9247920   22.3277330
   -97.9086180   22.3191030
   -97.8951820   22.3075790
   -97.9024170   22.2956420
   -97.9137850   22.2825160
   -97.9128040   22.2674270
   -97.8913580   22.2500120
   -97.8826240   22.2416920
   -97.8731680   22.2302200
   -97.8627810   22.2197810
   -97.8517740   22.2202980
   -97.8416450   22.2301160
   -97.8348750   22.2412780
   -97.8258320   22.2466010
   -97.8164790   22.2502700
   -97.7884700   22.2678400
   -97.7818580   22.2733360
   -97.7742810   22.2534850
   -97.7740718   22.2447830
   -97.2608442   22.2571094
   -97.2158513   22.2694481
   -97.1398910   22.2916577
   -97.0592124   22.3165460
   -96.9739351   22.3440789
   -96.8898488   22.3723132
   -96.8762978   22.3811331
   -96.6761836   22.5140292
   -96.1016353   22.7037442
   -96.0592692   22.7174844
   -96.0163589   22.7311557
   -95.9730649   22.7447084
   -95.9287287   22.7583473
   -95.8840087   22.7718684
   -95.8387517   22.7853194
   -95.0430838   23.0178217
   -94.9827342   23.0356566
   -94.9228174   23.0535583
   -94.2331270   23.2618178
   -94.1364670   23.2804485
   -94.0752183   23.2920263
   -93.7126237   23.3596065
   -93.6731455   23.6198787
   -93.5197882   24.0071624
   -93.5146702   24.0200017
   -93.2881183   24.5451318
   -93.2747575   24.5763710
   -92.9935763   25.2394834
   -92.9730317   25.2874027
   -92.9297883   25.3871772
   -89.1967868   24.8248157
   -89.1963866   24.8246049
   -86.1944457   21.6082168
   -86.1942439   21.6078265
   -85.4909198   18.1977913
   -85.4911115   18.1975015
   -87.3630347   17.8219712
   -87.3635145   17.8220518
   -87.9120818   18.1440775
   -87.9161266   18.1454017
   -88.0359032   18.1576558
   -88.0361497   18.1579178
   -88.0459954   18.3980940
   -88.0490756   18.4049117
   -88.0560240   18.4076844
   -88.2842012   18.4068409
   -88.2844704   18.4070879
   -88.2890834   18.4631406
   -88.2910668   18.4683431
   -88.2946616   18.4713062
   -88.3238166   18.4855438
   -88.3301801   18.4863610
   -88.3795846   18.4764054
   -88.3894540   18.4799131
   -88.3964460   18.4877823
   -88.4003583   18.4905410
   -88.4079006   18.4904335
   -88.4473232   18.4737204
   -88.4696606   18.4864147
   -88.4741543   18.4877470
   -88.4804050   18.4859530
   -88.5129995   18.4631401
   -88.5169869   18.4572909
   -88.5288583   18.4080443
   -88.5438103   18.3855407
   -88.5453908   18.3785308
   -88.5427370   18.3593051
   -88.5625952   18.3279043
   -88.6007972   18.2379520
   -88.6404047   18.1814124
   -88.6415137   18.1793572
   -88.6604958   18.1316917
   -88.7006967   18.0728871
   -88.7583346   18.0234902
   -88.7608941   18.0201152
   -88.7827692   17.9733539
   -88.8384397   17.9303823
   -88.8413877   17.9267026
   -88.8579737   17.8912372
   -88.8814907   17.8927538
   -88.9118265   17.9059950
   -88.9242624   17.9152594
   -88.9372394   17.9295937
   -88.9462543   17.9440156
   -88.9497815   17.9474155
   -88.9564713   17.9485853
   -88.9868718   17.9432617
   -88.9979426   17.9507641
   -89.0205942   17.9918069
   -89.0246452   17.9957994
   -89.0330153   17.9962787
   -89.1333655   17.9567378
   -89.1373770   17.9538416
   -89.1396994   17.9473893
   -89.1391011   17.8136856
   -89.1393456   17.8134391
   -90.3662846   17.8091702
   -90.9742125   17.8125738
   -90.9780523   17.8118305
   -90.9830735   17.8073145
   -90.9842685   17.8025924
   -90.9852298   17.2813601
   -90.9867833   17.2502276
   -91.4178164   17.2461573
   -91.4249642   17.2430533
   -91.4275934   17.2377561
   -91.4267702   17.2318999
   -91.4201297   17.2177882
   -91.4178615   17.2146955
   -91.4127356   17.2121838
   -91.2624264   17.1869730
   -91.2619689   17.1867654
   -90.6808707   16.7111179
   -90.6805952   16.7107566
   -90.6202153   16.5748195
   -90.5840198   16.4850412
   -90.5779411   16.4793045
   -90.5722755   16.4790898
   -90.5476092   16.4852503
   -90.4755108   16.4624268
   -90.3863511   16.4141551
   -90.3660751   16.3718909
   -90.3660734   16.3714483
   -90.4248132   16.2455283
   -90.4257459   16.2409896
   -90.4212880   16.0978074
   -90.4391164   16.0710903
   -91.7242923   16.0726132
   -91.7304495   16.0705021
   -91.7329314   16.0676699
   -92.1451183   15.3644370
   -92.2045394   15.2669277
   -92.2059922   15.2621204
   -92.2038319   15.2555059
   -92.0577597   15.0715186
   -92.0681149   15.0457472
   -92.0901954   15.0108678
   -92.1363598   14.9932620
   -92.1410475   14.9895681
   -92.1427510   14.9848705
   -92.1444075   14.9646858
   -92.1339551   14.8898016
   -92.1445756   14.8688424
   -92.1739598   14.8470598
   -92.1776699   14.8415916
   -92.1775038   14.8359014
   -92.1559829   14.7704821
   -92.1519560   14.7338760
   -92.1411109   14.6899568
   -92.1453942   14.6806794
   -92.1457280   14.6776149
   -92.1446612   14.6545824
   -92.1593630   14.6467618
   -92.1622902   14.6421104
   -92.1822586   14.5735251
   -92.2100503   14.5553968
   -92.2135018   14.5516064
   -92.2158741   14.5411962
   -92.2250442   14.5279410
   -97.1320372   9.4568876
   -97.1324574   9.4567319
   -101.1686512   9.8309569
   -101.1691202   9.8310981
   -107.4929253   13.2218654
   -107.4541783   13.9523730
END
END
