europe-italy-centre-south
1
   11.4017913   44.2284181
   11.4031373   44.2275491
   11.4166121   44.2322269
   11.4176377   44.2393910
   11.4314870   44.2394917
   11.4329312   44.2333284
   11.4448231   44.2275999
   11.4479643   44.2287215
   11.4548018   44.2180071
   11.4506710   44.2090153
   11.4537554   44.2045094
   11.4531825   44.1963400
   11.4634543   44.1914603
   11.4687267   44.1925745
   11.4727508   44.1862160
   11.4844253   44.1847901
   11.4846426   44.1775002
   11.4981365   44.1739021
   11.4985913   44.1683488
   11.5107508   44.1636374
   11.5144366   44.1659004
   11.5243673   44.1593910
   11.5311022   44.1624974
   11.5381234   44.1557321
   11.5456379   44.1579212
   11.5480214   44.1626944
   11.5559838   44.1635585
   11.5593217   44.1700148
   11.5722140   44.1685973
   11.5733936   44.1658768
   11.5899539   44.1654612
   11.5921162   44.1614575
   11.6076556   44.1621073
   11.6107296   44.1574359
   11.6108889   44.1511519
   11.6140840   44.1465262
   11.6146394   44.1386635
   11.6071412   44.1302319
   11.6065155   44.1273894
   11.6237614   44.1190542
   11.6248949   44.1146236
   11.6375704   44.1132794
   11.6421087   44.1045955
   11.6517128   44.1060112
   11.6570534   44.1137236
   11.6641051   44.1129376
   11.6738114   44.1218709
   11.6756832   44.1212172
   11.6883072   44.1271028
   11.6953397   44.1210992
   11.7045162   44.1275435
   11.7149518   44.1218830
   11.7207657   44.1271552
   11.7345689   44.1234219
   11.7370460   44.1261113
   11.7495865   44.1257259
   11.7524559   44.1200293
   11.7497948   44.1135797
   11.7526639   44.1073020
   11.7469008   44.0995676
   11.7475963   44.0953489
   11.7380136   44.0910598
   11.7372121   44.0807175
   11.7271188   44.0807070
   11.7241287   44.0684030
   11.7158803   44.0680256
   11.7111829   44.0559706
   11.7045546   44.0554378
   11.6985599   44.0432606
   11.6887354   44.0320233
   11.6906013   44.0271548
   11.6891179   44.0254688
   11.6766321   44.0201465
   11.6756832   44.0158074
   11.6640568   44.0121534
   11.6611823   44.0079799
   11.6613258   44.0045864
   11.6522803   43.9950012
   11.6532150   43.9848894
   11.6617141   43.9804291
   11.6637503   43.9756197
   11.6744315   43.9723810
   11.6781046   43.9645886
   11.6869699   43.9641293
   11.6914544   43.9560493
   11.6891562   43.9501390
   11.6920968   43.9439356
   11.6900868   43.9383525
   11.6920961   43.9334560
   11.7033468   43.9311569
   11.7048862   43.9271173
   11.7164975   43.9241721
   11.7187778   43.9177271
   11.7157626   43.9120507
   11.7188951   43.9030120
   11.7159350   43.8973648
   11.7190138   43.8882964
   11.7161065   43.8826784
   11.7190519   43.8738246
   11.7327070   43.8749006
   11.7370183   43.8654328
   11.7483117   43.8686054
   11.7552719   43.8577391
   11.7635969   43.8615814
   11.7738427   43.8508150
   11.7785226   43.8537347
   11.7918883   43.8452991
   11.7918296   43.8445830
   11.8029347   43.8342931
   11.8053927   43.8347542
   11.8139963   43.8239534
   11.8189661   43.8242978
   11.8236028   43.8167721
   11.8367298   43.8160991
   11.8439418   43.8135340
   11.8535462   43.8185522
   11.8566127   43.8160046
   11.8703276   43.8194229
   11.8717264   43.8169141
   11.8852150   43.8152525
   11.8870348   43.8168848
   11.8985215   43.8126627
   11.9037686   43.8155336
   11.9093891   43.8124974
   11.9139485   43.8033516
   11.9138518   43.8016721
   11.9245597   43.7959279
   11.9296790   43.7981077
   11.9375022   43.7929223
   11.9436015   43.7955869
   11.9509892   43.7894404
   11.9513344   43.7830543
   11.9577232   43.7801991
   11.9610329   43.7724340
   11.9742362   43.7745635
   11.9782164   43.7682732
   11.9913117   43.7686608
   11.9933470   43.7661200
   12.0089506   43.7660125
   12.0102864   43.7641005
   12.0265749   43.7632826
   12.0272368   43.7621848
   12.0441814   43.7604478
   12.0574702   43.7581915
   12.0596833   43.7519058
   12.0684636   43.7515139
   12.0717972   43.7441643
   12.0823031   43.7448467
   12.0844142   43.7496521
   12.0972566   43.7502094
   12.0992632   43.7553079
   12.1119358   43.7555424
   12.1135105   43.7568192
   12.1218164   43.7530535
   12.1292503   43.7554844
   12.1334131   43.7519646
   12.1458558   43.7593170
   12.1496390   43.7573133
   12.1594455   43.7650416
   12.1720839   43.7614591
   12.1911374   43.7664528
   12.1968238   43.7821753
   12.2021353   43.7847706
   12.2140579   43.7855021
   12.2229794   43.7811138
   12.2288647   43.7755516
   12.2376850   43.7714099
   12.2424297   43.7661089
   12.2486167   43.7634549
   12.2628443   43.7645256
   12.2767364   43.7665047
   12.2806929   43.7721482
   12.2795076   43.7776799
   12.2850779   43.7864608
   12.2838032   43.7908966
   12.2875081   43.7974690
   12.2996183   43.7987580
   12.3000571   43.8021469
   12.3140899   43.8093756
   12.3138864   43.8103707
   12.3247399   43.8212855
   12.3282421   43.8204476
   12.3363168   43.8321980
   12.3341887   43.8363923
   12.3432409   43.8474131
   12.3404226   43.8528101
   12.3501965   43.8626157
   12.3466190   43.8692458
   12.3569975   43.8776432
   12.3626215   43.8743819
   12.3715977   43.8827081
   12.3782970   43.8793893
   12.3862703   43.8877082
   12.3977596   43.8892647
   12.4010368   43.8860499
   12.4096505   43.8846779
   12.4183016   43.9078282
   12.4237093   43.9106485
   12.4709504   43.9049095
   12.4737875   43.9049705
   12.4795236   43.9080747
   12.4930795   43.9228443
   12.4942840   43.9226150
   12.4928371   43.9182872
   12.5004143   43.9159048
   12.5113304   43.9080511
   12.5154225   43.9093262
   12.5235145   43.9014684
   12.5301975   43.9021678
   12.5357787   43.8955826
   12.5363782   43.8854894
   12.5381405   43.8837437
   12.5409962   43.8748947
   12.5434828   43.8738144
   12.5581578   43.8771994
   12.5590277   43.8787319
   12.5723911   43.8815212
   12.5731006   43.8834484
   12.5875675   43.8858573
   12.5922168   43.8802119
   12.5914079   43.8751763
   12.6011575   43.8659633
   12.6008504   43.8583267
   12.6097669   43.8515090
   12.6106011   43.8416441
   12.6180965   43.8368813
   12.6197090   43.8293509
   12.6309918   43.8241986
   12.6385058   43.8296374
   12.6483991   43.8244799
   12.6563869   43.8303522
   12.6658064   43.8247503
   12.6757936   43.8322219
   12.6756304   43.8366913
   12.6798262   43.8433295
   12.6792475   43.8507884
   12.6867757   43.8564502
   12.6938399   43.8544111
   12.6995226   43.8618173
   12.7102578   43.8606548
   12.7126489   43.8660645
   12.7261624   43.8681122
   12.7273410   43.8732369
   12.7200152   43.8814466
   12.7282915   43.8922825
   12.7262688   43.8993765
   12.7271583   43.9005807
   12.7272601   43.9139344
   12.7232961   43.9178052
   12.7302091   43.9321651
   12.7317363   43.9323940
   12.7378691   43.9482495
   12.7409646   43.9488014
   12.7455985   43.9642975
   12.7501241   43.9652446
   12.7792514   44.0993081
   12.7963378   44.2089295
   12.8091001   44.2371340
   12.8169834   44.2559658
   12.8293077   44.2828414
   12.8425672   44.3137063
   12.8705634   44.3741916
   12.9024173   44.4389810
   12.9443999   44.5202125
   13.1296281   44.5857180
   13.1750321   44.6069022
   13.1908249   44.6134326
   13.2644388   44.5503738
   13.2644781   44.5500092
   12.9891617   44.1861040
   14.1051421   43.8301059
   14.1055697   43.8298675
   14.6683620   43.3477811
   14.6683392   43.3474902
   13.9592940   42.9108434
   13.9548435   42.9047826
   13.9554338   42.8981910
   13.9608903   42.8930174
   18.1637471   41.2466573
   18.1641276   41.2463898
   19.1248270   40.1481863
   19.1248183   40.1478216
   17.5079677   38.4682754
   17.5075502   38.4678884
   16.7010206   37.8016774
   16.7005828   37.8015204
   15.4778562   37.8033796
   15.4738704   37.8073194
   15.4683615   37.8088431
   15.4614377   37.8058631
   15.4589931   37.8017513
   15.4589642   37.7960356
   15.6859672   37.0205887
   15.6859801   37.0200879
   15.5205493   36.3241796
   15.5069446   36.3095454
   13.8428696   36.3480698
   13.8365976   36.3460418
   13.8336009   36.3423536
   13.2339855   35.0766028
   13.2336338   35.0763935
   11.9758315   35.1453362
   11.9755038   35.1455900
   11.9139579   35.3394524
   11.5977348   36.5435713
   11.5976804   36.5439958
   11.6003492   37.8484660
   11.5980526   37.8548629
   11.5949944   37.8573421
   11.5902267   37.8584857
   11.2537468   37.8543629
   11.2534498   37.8545891
   11.2375483   37.9151332
   11.2346584   37.9199416
   11.2286947   37.9225594
   9.3570944   38.0762485
   9.3565893   38.0763720
   7.8028461   38.7292279
   7.8026193   38.7295576
   7.7184611   41.3365085
   7.7187046   41.3367583
   9.2598430   41.3263203
   9.2653649   41.3279385
   9.4178270   41.4271492
   9.4182666   41.4273033
   9.6153045   41.4465674
   9.6222042   41.4503539
   9.6243148   41.4559429
   9.6276936   41.5144010
   9.6279573   41.5146543
   9.8767639   41.5189253
   9.8772847   41.5188195
   12.4294189   40.3846745
   12.4332621   40.3838152
   12.4389000   40.3854091
   12.4417244   40.3881535
   12.4434237   40.3927542
   12.4427311   40.3976096
   12.4390164   40.4021403
   9.7051134   42.2197834
   9.7049570   42.2201618
   9.7571568   42.4778584
   9.7565368   42.4838073
   9.3228846   43.4882958
   9.3165189   43.4939278
   9.3066535   43.4944339
   9.3759291   43.5492568
   9.4438936   43.5609317
   9.4963512   43.5627505
   9.5969886   43.5601371
   9.6083035   43.5599517
   9.8078102   43.5586097
   9.8220093   43.5740723
   9.8407081   43.5952682
   9.8585797   43.6164003
   9.8755662   43.6374011
   9.8916801   43.6582849
   9.9041727   43.6753062
   9.9328270   43.7040548
   9.9960377   43.8705621
   10.0001448   43.9183276
   10.0011261   43.9650525
   10.0007706   43.9697430
   10.0210121   44.0566853
   10.0318573   44.0570617
   10.0353922   44.0676811
   10.0449199   44.0674825
   10.0498622   44.0785639
   10.0579007   44.0780110
   10.0649710   44.0903113
   10.0634349   44.0947126
   10.0628503   44.1021231
   10.0510108   44.1100857
   10.0496202   44.1096734
   10.0412064   44.1141451
   10.0363277   44.1113827
   10.0263431   44.1167121
   10.0201510   44.1099094
   10.0116422   44.1104675
   10.0063033   44.1060530
   9.9960676   44.1049093
   9.9934062   44.1092805
   9.9927688   44.1144152
   9.9821062   44.1239241
   9.9840943   44.1338212
   9.9780901   44.1385304
   9.9777839   44.1507358
   9.9743114   44.1532326
   9.9721120   44.1635848
   9.9617780   44.1669944
   9.9546331   44.1628174
   9.9465805   44.1676142
   9.9356716   44.1634082
   9.9313898   44.1672803
   9.9167661   44.1650269
   9.9075071   44.1767573
   9.9020770   44.1797714
   9.8998998   44.1857690
   9.8995127   44.1916243
   9.8905373   44.1969591
   9.8711808   44.1999950
   9.8694770   44.2135464
   9.8681550   44.2151146
   9.8674859   44.2305325
   9.8575919   44.2351060
   9.8618570   44.2464114
   9.8524562   44.2539484
   9.8560462   44.2620422
   9.8483553   44.2720384
   9.8403701   44.2686059
   9.8296482   44.2775929
   9.8256646   44.2752144
   9.8110397   44.2820545
   9.8108210   44.2828032
   9.7963328   44.2851713
   9.7944855   44.2954080
   9.7833955   44.2949345
   9.7793764   44.3045283
   9.7760442   44.3065143
   9.7711112   44.3055770
   9.7615879   44.3176662
   9.7594160   44.3170134
   9.7491050   44.3242015
   9.7447508   44.3229943
   9.7380705   44.3276972
   9.7334848   44.3266090
   9.7240721   44.3332953
   9.7252894   44.3375083
   9.7184245   44.3493974
   9.7148863   44.3504514
   9.7129646   44.3620099
   9.7036857   44.3680917
   9.7117116   44.3800257
   9.7201772   44.3777963
   9.7203386   44.3778987
   9.7231864   44.3789771
   9.7291027   44.3861845
   9.7372671   44.3829907
   9.7484551   44.3938138
   9.7509209   44.3934295
   9.7551140   44.3962516
   9.7557691   44.4115115
   9.7568231   44.4126025
   9.7676896   44.4112289
   9.7705845   44.4244909
   9.7805274   44.4240989
   9.7850584   44.4365322
   9.7935338   44.4367564
   9.7993766   44.4487251
   9.8066370   44.4492928
   9.8133430   44.4612582
   9.8242656   44.4735678
   9.8328357   44.4655466
   9.8329557   44.4655594
   9.8429869   44.4743190
   9.8493267   44.4673041
   9.8502643   44.4674041
   9.8617326   44.4746751
   9.8663139   44.4688638
   9.8805018   44.4746535
   9.8829976   44.4711029
   9.8992934   44.4742698
   9.8996627   44.4736904
   9.9164742   44.4735536
   9.9179362   44.4762839
   9.9340417   44.4725726
   9.9493919   44.4713894
   9.9504808   44.4688390
   9.9649533   44.4696366
   9.9675464   44.4637465
   9.9733268   44.4616755
   9.9749907   44.4524119
   9.9836589   44.4486896
   9.9899291   44.4511320
   9.9954313   44.4457383
   10.0057737   44.4454014
   10.0063914   44.4318120
   10.0013985   44.4288130
   10.0012938   44.4282141
   10.0006533   44.4263074
   10.0003989   44.4257450
   10.0016403   44.4164623
   9.9946268   44.4110661
   9.9961367   44.4037459
   10.0069405   44.3982061
   10.0068915   44.3957746
   10.0167247   44.3858783
   10.0231363   44.3886848
   10.0319725   44.3784927
   10.0395015   44.3813439
   10.0472619   44.3711956
   10.0558278   44.3739197
   10.0625892   44.3639783
   10.0721186   44.3664163
   10.0779532   44.3568385
   10.0883754   44.3588375
   10.0933508   44.3497708
   10.1049504   44.3512322
   10.1069848   44.3544370
   10.1204697   44.3517102
   10.1237974   44.3581275
   10.1280105   44.3582486
   10.1336014   44.3531213
   10.1436073   44.3581574
   10.1444137   44.3567834
   10.1581129   44.3509462
   10.1577796   44.3461559
   10.1718086   44.3389055
   10.1717347   44.3351582
   10.1855707   44.3269520
   10.1856386   44.3241033
   10.1993989   44.3147021
   10.2160571   44.3069549
   10.2155499   44.3016485
   10.2293432   44.3007567
   10.2330962   44.2979041
   10.2322442   44.2953670
   10.2420883   44.2853868
   10.2462345   44.2865500
   10.2513331   44.2748428
   10.2605469   44.2744853
   10.2633498   44.2790902
   10.2770898   44.2792756
   10.2790799   44.2830935
   10.2936021   44.2841681
   10.2948413   44.2869752
   10.3072880   44.2887798
   10.3108516   44.2822795
   10.3208217   44.2836339
   10.3242754   44.2772099
   10.3343547   44.2784859
   10.3376995   44.2721423
   10.3503059   44.2736192
   10.3508265   44.2728529
   10.3653454   44.2715017
   10.3672560   44.2738133
   10.3812637   44.2692383
   10.3813221   44.2634506
   10.3954538   44.2591032
   10.3956269   44.2530208
   10.4096377   44.2489596
   10.4099369   44.2425976
   10.4238170   44.2388093
   10.4242532   44.2321826
   10.4372438   44.2288427
   10.4414600   44.2340527
   10.4530044   44.2294597
   10.4586803   44.2357378
   10.4693880   44.2299180
   10.4710790   44.2259381
   10.4801483   44.2273989
   10.4897541   44.2195179
   10.4895976   44.2168880
   10.4937544   44.2104565
   10.4915656   44.2040982
   10.4962327   44.1942651
   10.5075672   44.1951645
   10.5094860   44.1837228
   10.5222924   44.1839551
   10.5240035   44.1825434
   10.5231772   44.1741839
   10.5281950   44.1685161
   10.5264162   44.1624951
   10.5318647   44.1542603
   10.5411032   44.1566709
   10.5456478   44.1458732
   10.5555656   44.1487255
   10.5573580   44.1475935
   10.5590911   44.1386770
   10.5609144   44.1378348
   10.5687356   44.1404074
   10.5730634   44.1376740
   10.5729536   44.1319644
   10.5845825   44.1270782
   10.5895854   44.1199467
   10.6001978   44.1196606
   10.6040237   44.1224192
   10.6069775   44.1211012
   10.6184275   44.1235887
   10.6219535   44.1280501
   10.6183682   44.1360226
   10.6244117   44.1462613
   10.6264364   44.1462991
   10.6355568   44.1539595
   10.6360464   44.1583446
   10.6482857   44.1626538
   10.6532747   44.1574633
   10.6660606   44.1622551
   10.6713148   44.1568716
   10.6838355   44.1618522
   10.6893556   44.1562848
   10.7016101   44.1614447
   10.7073966   44.1557024
   10.7193842   44.1610315
   10.7254375   44.1551248
   10.7371581   44.1606148
   10.7434786   44.1545523
   10.7534085   44.1594424
   10.7557365   44.1580479
   10.7590176   44.1472353
   10.7697449   44.1496572
   10.7710797   44.1488577
   10.7723132   44.1397580
   10.7860694   44.1383651
   10.7862678   44.1332524
   10.7999011   44.1262720
   10.8012423   44.1268673
   10.8111341   44.1165466
   10.8162678   44.1201616
   10.8268768   44.1174115
   10.8279541   44.1159979
   10.8369342   44.1178521
   10.8447828   44.1055168
   10.8458364   44.1057389
   10.8558808   44.0999284
   10.8616198   44.1023105
   10.8691164   44.0974465
   10.8750803   44.1002897
   10.8823442   44.0948979
   10.8885605   44.0983533
   10.8972599   44.0907626
   10.8970675   44.0884959
   10.9076795   44.0816310
   10.9077489   44.0716319
   10.9145378   44.0695240
   10.9271402   44.0802579
   10.9296026   44.0796911
   10.9423768   44.0902037
   10.9446859   44.0898290
   10.9559640   44.0988685
   10.9563396   44.1018371
   10.9686005   44.1091573
   10.9691875   44.1149498
   10.9813320   44.1193573
   10.9819054   44.1282338
   11.0024719   44.1301268
   11.0069357   44.1265463
   11.0119860   44.1173184
   11.0118616   44.1128421
   11.0220258   44.1011155
   11.0313044   44.1050172
   11.0409560   44.0948528
   11.0496351   44.0984796
   11.0558975   44.0924359
   11.0667609   44.0947510
   11.0695244   44.0922354
   11.0798917   44.0948534
   11.0831522   44.0920593
   11.0937819   44.0951517
   11.0947759   44.0977656
   11.1061800   44.1007930
   11.1072511   44.1037278
   11.1185822   44.1064265
   11.1197230   44.1096987
   11.1332072   44.1125168
   11.1338874   44.1115052
   11.1498471   44.1118764
   11.1510826   44.1148469
   11.1674676   44.1100381
   11.1688738   44.1125021
   11.1857288   44.1091886
   11.1866708   44.1104910
   11.2039399   44.1080244
   11.2090121   44.1138296
   11.2174831   44.1164875
   11.2067349   44.1413498
   11.2053459   44.1434567
   11.2178343   44.1578929
   11.2243805   44.1543608
   11.2347217   44.1600439
   11.2365350   44.1619244
   11.2489757   44.1577485
   11.2533388   44.1634800
   11.2623860   44.1575560
   11.2715528   44.1623938
   11.2759753   44.1588288
   11.2863710   44.1600018
   11.2896676   44.1680187
   11.3011598   44.1683692
   11.3046942   44.1773949
   11.3159731   44.1767008
   11.3204255   44.1887980
   11.3266048   44.1886205
   11.3277942   44.1917722
   11.3282080   44.1924041
   11.3299011   44.2030898
   11.3326154   44.2058437
   11.3409850   44.2026268
   11.3484156   44.2076610
   11.3571033   44.2018027
   11.3679865   44.2072672
   11.3732078   44.2018540
   11.3837407   44.2048229
   11.3846203   44.2145321
   11.3869668   44.2164298
   11.3937748   44.2148476
   11.3986538   44.2258809
   11.4017913   44.2284181
END
!2
   12.7798893   40.2338980
   12.7818380   40.2293849
   12.7857018   40.2263457
   15.5063620   39.0173093
   15.5131230   39.0168190
   15.5186432   39.0207531
   15.5202019   39.0243566
   15.5200243   39.0292430
   15.3912449   39.4715516
   15.3874243   39.4769160
   13.4527356   40.8475355
   13.4482177   40.8492956
   13.4434029   40.8487236
   13.4394231   40.8459540
   13.0036103   40.3469850
   13.0032056   40.3466800
   12.7855150   40.2445370
   12.7811655   40.2405916
   12.7798893   40.2338980
END
END
