europe-poland-north
1
   13.9904653   54.7625822
   16.6911400   55.0066400
   17.4970573   55.0794681
   17.4975437   55.0794882
   19.2524776   55.0666318
   19.2527139   55.0666186
   19.2528557   55.0664292
   19.6540067   54.4726462
   19.6546089   54.4718447
   19.6552882   54.4711075
   19.6560380   54.4704420
   19.6568506   54.4698549
   19.6577180   54.4693521
   19.6586313   54.4689388
   19.6595814   54.4686189
   19.6605588   54.4683958
   19.6615536   54.4682716
   21.4542152   54.3353582
   21.4552460   54.3353350
   22.6424106   54.3699445
   22.6427891   54.3699627
   22.7840793   54.3794495
   22.7850941   54.3795700
   22.7860912   54.3797934
   22.7870604   54.3801174
   22.7879914   54.3805386
   22.7888746   54.3810526
   22.7897007   54.3816541
   22.7904611   54.3823367
   22.8280676   54.4197386
   22.8282453   54.4198989
   22.8284818   54.4199348
   22.8815516   54.4253735
   22.8818093   54.4253865
   22.8820641   54.4253460
   23.0176029   54.3965225
   23.0178399   54.3964595
   23.0179125   54.3962252
   23.0232052   54.3754968
   23.0235080   54.3745217
   23.0239087   54.3735824
   23.0244030   54.3726890
   23.0249859   54.3718506
   23.0256513   54.3710760
   23.0263922   54.3703733
   23.0272008   54.3697499
   23.0280689   54.3692121
   23.0289872   54.3687657
   23.0765492   54.3485780
   23.0767639   54.3484738
   23.0766744   54.3482526
   23.0727206   54.3397401
   23.0723510   54.3388296
   23.0720725   54.3378872
   23.0718878   54.3369220
   23.0717988   54.3359434
   23.0718062   54.3349607
   23.0719101   54.3339835
   23.0721093   54.3330212
   23.0724021   54.3320831
   23.0727855   54.3311783
   23.0732559   54.3303155
   23.0738087   54.3295030
   23.0744385   54.3287487
   23.0751394   54.3280599
   23.0759045   54.3274432
   23.0767264   54.3269045
   23.0775972   54.3264492
   23.0785085   54.3260815
   23.0794515   54.3258050
   23.0804171   54.3256224
   23.0813960   54.3255355
   23.0823786   54.3255450
   23.1514255   54.3296156
   23.1516671   54.3296180
   23.1518815   54.3295064
   23.2435792   54.2759233
   23.2443815   54.2755020
   23.2452186   54.2751551
   23.2460837   54.2748854
   23.2469696   54.2746952
   23.2478692   54.2745859
   23.3373459   54.2678085
   23.3375868   54.2677783
   23.3378086   54.2676797
   23.3924493   54.2401112
   23.3926257   54.2400130
   23.3927936   54.2399009
   23.4975238   54.1636728
   23.4977108   54.1635223
   23.4978269   54.1633121
   23.5435965   54.0700609
   23.5436888   54.0698480
   23.5436748   54.0696164
   23.5387668   54.0241482
   23.5387283   54.0239057
   23.5385599   54.0237272
   23.5105213   53.9968350
   23.5098321   53.9961041
   23.5092197   53.9953077
   23.5086903   53.9944538
   23.5082493   53.9935512
   23.5079011   53.9926089
   23.5076491   53.9916363
   23.5074960   53.9906434
   23.5074433   53.9896402
   23.5074916   53.9886367
   23.5076402   53.9876432
   23.5078879   53.9866695
   23.5082319   53.9857256
   23.5086689   53.9848210
   23.5091945   53.9839649
   23.5098034   53.9831657
   23.5104893   53.9824317
   23.5313190   53.9622752
   23.5314880   53.9620942
   23.5315243   53.9618493
   23.5394095   53.8805805
   23.5395566   53.8795870
   23.5398026   53.8786132
   23.5401450   53.8776691
   23.5405804   53.8767640
   23.5411043   53.8759072
   23.5417116   53.8751073
   23.5423961   53.8743723
   23.5431508   53.8737097
   23.5670333   53.8547780
   23.5672086   53.8546249
   23.5672076   53.8543921
   23.5636455   53.7860695
   23.5636425   53.7850906
   23.5637351   53.7841162
   23.5639226   53.7831554
   23.5642031   53.7822176
   23.5645740   53.7813118
   23.5650316   53.7804465
   23.5655717   53.7796301
   23.5661889   53.7788704
   23.5668775   53.7781747
   23.5954688   53.7519860
   23.5956397   53.7518132
   23.5957315   53.7515881
   23.6727229   53.5324256
   23.6730565   53.5315966
   23.6734627   53.5308007
   23.8249148   53.2641933
   23.8254824   53.2633064
   23.8261401   53.2624841
   23.8268807   53.2617355
   23.8276958   53.2610689
   23.8285766   53.2604917
   23.8295131   53.2600104
   23.8653828   53.2439020
   23.8656003   53.2437910
   23.8656958   53.2435662
   23.8777640   53.2106967
   23.8781864   53.2097125
   23.8787117   53.2087791
   23.8793338   53.2079072
   23.8800456   53.2071069
   23.8808389   53.2063873
   23.9322431   53.1645502
   23.9324247   53.1643865
   23.9323337   53.1641595
   23.8974324   53.0884722
   23.8970735   53.0875844
   23.8968012   53.0866663
   23.8966179   53.0857264
   23.8965254   53.0847732
   23.8965244   53.0838156
   23.8966151   53.0828623
   23.8967965   53.0819221
   23.8970671   53.0810035
   23.8974243   53.0801149
   23.8978648   53.0792647
   23.8983846   53.0784604
   23.8989790   53.0777096
   23.9389635   53.0318908
   23.9391187   53.0316936
   23.9392078   53.0314590
   23.9613357   52.9629300
   23.9613973   52.9627022
   23.9612630   52.9625082
   23.9351224   52.9284099
   23.9345825   52.9276319
   23.9341186   52.9268064
   23.9337349   52.9259407
   23.9334348   52.9250426
   23.9332209   52.9241201
   23.9330953   52.9231815
   23.9330591   52.9222353
   23.9331124   52.9212899
   23.9546354   52.7146361
   23.9546485   52.7144045
   23.9544824   52.7142425
   23.9000630   52.6660034
   23.8998837   52.6658586
   23.8996816   52.6657499
   23.7628437   52.6000071
   23.7625959   52.5999041
   23.7623317   52.5998567
   23.5934951   52.5788920
   23.5925842   52.5787358
   23.5916916   52.5784963
   23.5908249   52.5781753
   23.4442961   52.5160680
   23.4432826   52.5155691
   23.4423318   52.5149591
   23.4414558   52.5142458
   23.2282868   52.3196110
   23.2275691   52.3188851
   23.2269291   52.3180898
   23.2119735   52.2974290
   23.2114480   52.2966242
   23.2110021   52.2957726
   23.2106401   52.2948822
   23.2103652   52.2939612
   23.2101801   52.2930180
   23.2100863   52.2920614
   23.2100848   52.2911002
   23.2101756   52.2901433
   23.2123544   52.2749776
   23.2123764   52.2747417
   23.2121399   52.2747268
   23.1804965   52.2743176
   23.1793284   52.2742339
   23.1560160   52.2711836
   23.1550584   52.2710105
   23.1541221   52.2707452
   23.1532160   52.2703901
   23.1523488   52.2699487
   23.1515285   52.2694250
   23.1507631   52.2688241
   23.1500596   52.2681516
   23.1494249   52.2674139
   23.1488649   52.2666181
   23.1338381   52.2428881
   23.1336899   52.2426788
   23.1335020   52.2425044
   23.0931228   52.2087291
   23.0923956   52.2080569
   23.0917384   52.2073161
   23.0911578   52.2065139
   23.0906593   52.2056582
   23.0902479   52.2047575
   23.0899276   52.2038204
   23.0897016   52.2028563
   23.0895721   52.2018745
   23.0895402   52.2008848
   23.0896065   52.1998967
   23.0897701   52.1989200
   23.0900295   52.1979643
   23.0903822   52.1970390
   23.0908246   52.1961531
   23.0913526   52.1953152
   23.0919607   52.1945337
   23.0926433   52.1938162
   23.0928786   52.1936134
   23.0931095   52.1933912
   23.0932551   52.1931764
   23.1012759   52.1798954
   23.1013880   52.1796881
   23.1013466   52.1794560
   23.0949228   52.1513214
   23.0948611   52.1511000
   23.0946341   52.1510634
   23.0131896   52.1418943
   23.0122345   52.1417397
   23.0112987   52.1414935
   23.0103912   52.1411580
   23.0095203   52.1407363
   23.0086942   52.1402325
   23.0079207   52.1396512
   22.9967562   52.1303823
   22.9960645   52.1297511
   22.9954348   52.1290579
   22.9948728   52.1283088
   22.9943833   52.1275104
   22.9939706   52.1266698
   22.9936384   52.1257942
   22.9933895   52.1248914
   22.9932262   52.1239692
   22.9894907   52.0950477
   22.9894495   52.0948166
   22.9892595   52.0946787
   22.9554039   52.0725070
   22.9552070   52.0723907
   22.9549787   52.0723960
   22.9435551   52.0731879
   22.9425785   52.0732078
   22.9416047   52.0731323
   22.9406429   52.0729622
   22.9397023   52.0726990
   22.9387918   52.0723453
   22.9379202   52.0719045
   22.9370957   52.0713808
   22.9363263   52.0707791
   22.9356192   52.0701053
   22.9349812   52.0693656
   22.9344185   52.0685673
   22.9134962   52.0355748
   22.9133531   52.0353727
   22.9131057   52.0353629
   22.8443987   52.0361470
   22.8441436   52.0361632
   22.8439166   52.0362805
   22.8259910   52.0467520
   22.8251459   52.0471930
   22.8242626   52.0475516
   22.8233492   52.0478245
   22.8224140   52.0480091
   22.8214655   52.0481039
   22.8205122   52.0481079
   22.8195629   52.0480211
   22.8186262   52.0478443
   22.8177105   52.0475791
   22.7951447   52.0398605
   22.7948775   52.0397855
   22.7946002   52.0397717
   22.7753029   52.0398885
   22.7750636   52.0399016
   22.7748580   52.0400250
   22.7407968   52.0627803
   22.7398973   52.0633153
   22.7389469   52.0637534
   22.7379559   52.0640898
   22.7121166   52.0713766
   22.7111323   52.0716012
   22.7101304   52.0717255
   22.7091210   52.0717480
   22.7081145   52.0716687
   22.7071211   52.0714883
   22.7061510   52.0712086
   22.7052140   52.0708326
   22.7043198   52.0703640
   22.7034773   52.0698076
   22.7026952   52.0691691
   22.7019815   52.0684550
   22.7013434   52.0676725
   22.7007875   52.0668297
   22.7003194   52.0659352
   22.6999439   52.0649980
   22.6996648   52.0640277
   22.6994850   52.0630342
   22.6985937   52.0561405
   22.6985466   52.0558832
   22.6984727   52.0556322
   22.6852482   52.0180919
   22.6851612   52.0178777
   22.6849613   52.0177615
   22.6299890   51.9891739
   22.6297677   51.9890723
   22.6295248   51.9890877
   22.6057105   51.9917817
   22.6054646   51.9918221
   22.6052544   51.9919558
   22.5865585   52.0052096
   22.5858094   52.0056920
   22.5850203   52.0061058
   22.5841975   52.0064477
   22.5833475   52.0067150
   22.5824772   52.0069056
   22.5427738   52.0137631
   22.5425624   52.0138091
   22.5423629   52.0138907
   22.5049478   52.0311134
   22.5040117   52.0314883
   22.5030427   52.0317671
   22.5020504   52.0319468
   22.5010452   52.0320257
   22.5000371   52.0320030
   22.4990364   52.0318788
   22.4980533   52.0316545
   22.4970978   52.0313324
   22.4961796   52.0309156
   22.4953080   52.0304085
   22.4944919   52.0298162
   22.4937397   52.0291447
   22.4930588   52.0284009
   22.4757317   52.0074398
   22.4755394   52.0072324
   22.4753051   52.0070739
   22.4480016   51.9907843
   22.4478057   51.9906790
   22.4475949   51.9906104
   22.4241855   51.9841269
   22.4239783   51.9840789
   22.4237668   51.9840669
   22.3951296   51.9836568
   22.3942074   51.9836009
   22.3932943   51.9834601
   22.3923981   51.9832357
   22.3915264   51.9829295
   22.3522814   51.9670716
   22.3520275   51.9669847
   22.3517592   51.9669835
   22.3313901   51.9679980
   22.3311534   51.9680213
   22.3309426   51.9681317
   22.2989722   51.9868881
   22.2980866   51.9873498
   22.2971594   51.9877209
   22.2961999   51.9879977
   22.2952175   51.9881773
   22.2942220   51.9882581
   22.2932235   51.9882392
   22.2922319   51.9881208
   22.2912570   51.9879040
   22.2903086   51.9875911
   22.2554995   51.9741448
   22.2552790   51.9740713
   22.2550492   51.9741058
   22.1720814   51.9905683
   22.1710936   51.9907134
   22.1700964   51.9907594
   22.1690994   51.9907057
   22.1681129   51.9905529
   22.1671464   51.9903024
   22.1662098   51.9899569
   22.1653123   51.9895196
   22.1644628   51.9889951
   22.1482221   51.9778092
   22.1480152   51.9776812
   22.1477800   51.9776187
   22.1172519   51.9710960
   22.1169893   51.9710544
   22.1167239   51.9710696
   22.0684825   51.9764353
   22.0682620   51.9764698
   22.0680521   51.9765429
   22.0434960   51.9863320
   22.0425986   51.9866412
   22.0416760   51.9868640
   22.0407363   51.9869982
   22.0397882   51.9870428
   22.0388401   51.9869973
   22.0379006   51.9868622
   22.0369782   51.9866385
   22.0068577   51.9778031
   22.0060484   51.9775276
   22.0052656   51.9771840
   22.0045149   51.9767747
   21.9758858   51.9595399
   21.9756669   51.9594227
   21.9754187   51.9594257
   21.9516094   51.9609126
   21.9505254   51.9609215
   21.9494469   51.9608129
   21.9483865   51.9605883
   21.9473566   51.9602502
   21.9237156   51.9510418
   21.9228211   51.9506419
   21.9219701   51.9501564
   21.9211707   51.9495899
   21.9204305   51.9489479
   21.9197567   51.9482366
   21.9191558   51.9474627
   21.9186335   51.9466337
   21.9181948   51.9457576
   21.9178439   51.9448428
   21.9175843   51.9438980
   21.9174184   51.9429324
   21.9173477   51.9419551
   21.9173731   51.9409757
   21.9174942   51.9400034
   21.9177098   51.9390476
   21.9189400   51.9346184
   21.9192356   51.9337208
   21.9196147   51.9328552
   21.9200738   51.9320291
   21.9206088   51.9312501
   21.9212150   51.9305251
   21.9218869   51.9298605
   21.9325819   51.9202382
   21.9327678   51.9200521
   21.9328601   51.9198059
   21.9420939   51.8905114
   21.9421566   51.8902707
   21.9420706   51.8900372
   21.9360514   51.8759319
   21.9357143   51.8750218
   21.9354669   51.8740834
   21.9353117   51.8731254
   21.9352501   51.8721568
   21.9352827   51.8711869
   21.9354091   51.8702246
   21.9356282   51.8692792
   21.9359379   51.8683595
   21.9363354   51.8674741
   21.9368167   51.8666314
   21.9373775   51.8658393
   21.9380125   51.8651053
   21.9387156   51.8644363
   21.9394802   51.8638387
   21.9639082   51.8465866
   21.9641190   51.8464199
   21.9642653   51.8461946
   21.9786477   51.8211654
   21.9787508   51.8209658
   21.9788354   51.8207577
   21.9861411   51.8001921
   21.9862086   51.7999693
   21.9861676   51.7997402
   21.9812725   51.7782702
   21.9812101   51.7780461
   21.9810372   51.7778905
   21.9598546   51.7605628
   21.9596743   51.7604284
   21.9594736   51.7603291
   21.9369915   51.7504244
   21.9367972   51.7503483
   21.9365936   51.7503059
   21.9221165   51.7479110
   21.9211415   51.7476992
   21.9201925   51.7473914
   21.9192788   51.7469905
   21.9184097   51.7465006
   21.9175937   51.7459265
   21.9168390   51.7452740
   21.9161530   51.7445495
   21.9155427   51.7437602
   21.9150140   51.7429141
   21.9145723   51.7420194
   21.9142219   51.7410853
   21.9139664   51.7401208
   21.9138083   51.7391357
   21.9137490   51.7381398
   21.9137894   51.7371429
   21.9139289   51.7361549
   21.9141661   51.7351858
   21.9144987   51.7342452
   21.9149234   51.7333424
   21.9154359   51.7324864
   21.9160312   51.7316857
   21.9167033   51.7309483
   21.9174455   51.7302816
   21.9182505   51.7296921
   21.9248560   51.7253443
   21.9250490   51.7252033
   21.9250867   51.7249672
   21.9287823   51.6913716
   21.9287969   51.6911240
   21.9286469   51.6909264
   21.8970760   51.6534633
   21.8969241   51.6532987
   21.8967154   51.6532173
   21.8766983   51.6464343
   21.8756961   51.6460331
   21.8747429   51.6455263
   21.8738499   51.6449196
   21.8730275   51.6442202
   21.8553438   51.6274547
   21.8551634   51.6272994
   21.8549567   51.6271812
   21.8416164   51.6203801
   21.8414171   51.6202894
   21.8412011   51.6202539
   21.8048842   51.6159170
   21.8039122   51.6157520
   21.8029612   51.6154921
   21.8020404   51.6151398
   21.8011588   51.6146985
   21.8003249   51.6141726
   21.7995469   51.6135671
   21.7988322   51.6128879
   21.7981879   51.6121417
   21.7976202   51.6113357
   21.7971347   51.6104776
   21.7967360   51.6095760
   21.7964280   51.6086394
   21.7962137   51.6076771
   21.7960952   51.6066984
   21.7960737   51.6057127
   21.7961493   51.6047297
   21.7963214   51.6037590
   21.7965882   51.6028099
   21.7969472   51.6018917
   21.7973949   51.6010133
   21.7979268   51.6001832
   21.7985379   51.5994096
   21.7992223   51.5986999
   21.7999732   51.5980610
   21.8007833   51.5974992
   21.8016448   51.5970199
   21.8025494   51.5966278
   21.8034881   51.5963266
   21.8044520   51.5961193
   21.8054315   51.5960079
   21.8199799   51.5950773
   21.8202467   51.5950457
   21.8205005   51.5949575
   21.8419717   51.5861676
   21.8422025   51.5860589
   21.8423893   51.5858852
   21.8557148   51.5721509
   21.8558878   51.5719524
   21.8559899   51.5717096
   21.8645600   51.5478438
   21.8649688   51.5468703
   21.8654779   51.5459454
   21.8660817   51.5450794
   21.8813418   51.5254832
   21.8814875   51.5252747
   21.8815376   51.5250252
   21.8847794   51.5030831
   21.8849893   51.5020456
   21.8853077   51.5010361
   21.8857310   51.5000659
   21.8862545   51.4991459
   21.8868724   51.4982864
   21.8875776   51.4974970
   21.9016569   51.4833243
   21.9018181   51.4831451
   21.9018291   51.4829044
   21.9017409   51.4598016
   21.9017294   51.4595731
   21.9016171   51.4593737
   21.8657421   51.4020956
   21.8652728   51.4012599
   21.8648857   51.4003831
   21.8645844   51.3994732
   21.8643715   51.3985387
   21.8642491   51.3975881
   21.8642182   51.3966302
   21.8642792   51.3956737
   21.8644315   51.3947274
   21.8646737   51.3938001
   21.8650035   51.3929001
   21.8654180   51.3920360
   21.8659133   51.3912154
   21.8749684   51.3777212
   21.8750812   51.3775361
   21.8751423   51.3773282
   21.8829389   51.3457377
   21.8829862   51.3454931
   21.8828402   51.3452910
   21.8657452   51.3239988
   21.8652072   51.3232623
   21.8647386   51.3224800
   21.8643432   51.3216581
   21.8640244   51.3208037
   21.8618556   51.3140696
   21.8616002   51.3131184
   21.8614396   51.3121467
   21.8613754   51.3111638
   21.8614082   51.3101795
   21.8615377   51.3092031
   21.8617625   51.3082442
   21.8620807   51.3073121
   21.8624889   51.3064157
   21.8629834   51.3055639
   21.8635593   51.3047649
   21.8895169   51.2722517
   21.8896550   51.2720602
   21.8895120   51.2718723
   21.8705613   51.2493635
   21.8703812   51.2491713
   21.8701499   51.2490454
   21.8520848   51.2404202
   21.8512312   51.2399605
   21.8504261   51.2394204
   21.8496771   51.2388049
   21.8489912   51.2381197
   21.8483749   51.2373713
   21.8478340   51.2365668
   21.8473735   51.2357136
   21.8469978   51.2348199
   21.8467104   51.2338940
   21.8465140   51.2329446
   21.8442614   51.2185739
   21.8442067   51.2183160
   21.8440501   51.2181039
   21.8227142   51.1922294
   21.8221371   51.1914565
   21.8216372   51.1906316
   21.8212192   51.1897624
   21.8208868   51.1888569
   21.8206431   51.1879237
   21.8204906   51.1869712
   21.8204305   51.1860086
   21.8200415   51.1584396
   21.8200861   51.1573441
   21.8202504   51.1562601
   21.8205324   51.1552005
   21.8209287   51.1541783
   21.8293166   51.1356287
   21.8294071   51.1353984
   21.8293757   51.1351530
   21.8254228   51.1131196
   21.8252888   51.1120339
   21.8252742   51.1109401
   21.8253792   51.1098513
   21.8256024   51.1087804
   21.8297799   51.0930933
   21.8298353   51.0928278
   21.8298615   51.0925577
   21.8311691   51.0616676
   21.8311668   51.0614151
   21.8309982   51.0612272
   21.8164824   51.0466266
   21.8158095   51.0458779
   21.8152153   51.0450654
   21.7976578   51.0183298
   21.7975121   51.0181306
   21.7972793   51.0180489
   21.7636675   51.0081271
   21.7634389   51.0080713
   21.7632039   51.0080819
   21.6949904   51.0143987
   21.6947643   51.0144302
   21.6945891   51.0145761
   21.6688786   51.0380606
   21.6680887   51.0387112
   21.6672364   51.0392777
   21.6663306   51.0397541
   21.6653810   51.0401354
   21.6643973   51.0404177
   21.6633899   51.0405980
   21.6623693   51.0406743
   21.6613463   51.0406460
   21.6603316   51.0405132
   21.6593357   51.0402775
   21.6287948   51.0313743
   21.6285375   51.0313139
   21.6282752   51.0312811
   21.5804735   51.0278646
   21.5795766   51.0277596
   21.5786928   51.0275741
   21.5426527   51.0182943
   21.5416800   51.0179903
   21.5407433   51.0175888
   21.5398523   51.0170940
   21.5165353   51.0025444
   21.5161118   51.0022649
   21.4998536   50.9909349
   21.4996559   50.9908106
   21.4994262   50.9907678
   21.4541506   50.9845417
   21.4539211   50.9845210
   21.4536997   50.9845852
   21.3691049   51.0134564
   21.3688683   51.0135511
   21.3687094   51.0137505
   21.3553926   51.0323668
   21.3547694   51.0331517
   21.3540707   51.0338703
   21.3533037   51.0345153
   21.3524759   51.0350803
   21.3248928   51.0519463
   21.3240784   51.0523937
   21.3232259   51.0527636
   21.3223428   51.0530527
   21.3214367   51.0532586
   21.3205154   51.0533796
   21.3195869   51.0534145
   21.1422603   51.0518321
   21.1420258   51.0518413
   21.1418806   51.0520258
   21.1241431   51.0769430
   21.1240198   51.0771343
   21.1239735   51.0773566
   21.1206290   51.0981245
   21.1204215   51.0991001
   21.1201179   51.1000502
   21.1197210   51.1009654
   21.1192350   51.1018364
   21.1186647   51.1026547
   21.1180156   51.1034121
   21.1172944   51.1041011
   21.1026907   51.1167199
   21.1020312   51.1172429
   21.1013301   51.1177086
   21.1005923   51.1181137
   21.0771936   51.1297075
   21.0763026   51.1300963
   21.0753780   51.1303967
   21.0744286   51.1306059
   21.0734633   51.1307219
   21.0724914   51.1307437
   21.0715219   51.1306709
   21.0705641   51.1305044
   20.9990157   51.1144474
   20.9987613   51.1144041
   20.9985195   51.1144940
   20.9748351   51.1247327
   20.9746174   51.1248397
   20.9744573   51.1250218
   20.9619479   51.1407321
   20.9612303   51.1415396
   20.9604298   51.1422651
   20.9595557   51.1428999
   20.9586182   51.1434367
   20.9377421   51.1539366
   20.9368568   51.1543294
   20.9359377   51.1546347
   20.9349934   51.1548496
   20.9340327   51.1549722
   20.9330646   51.1550013
   20.9320983   51.1549366
   20.9311428   51.1547787
   20.9302070   51.1545292
   20.9292998   51.1541902
   20.9187304   51.1496472
   20.9177217   51.1491445
   20.9167760   51.1485315
   20.8846045   51.1250023
   20.8844081   51.1248727
   20.8841822   51.1249386
   20.8514931   51.1362226
   20.8505540   51.1364962
   20.8495926   51.1366767
   20.8486182   51.1367624
   20.8476401   51.1367525
   20.8466677   51.1366471
   20.8457102   51.1364472
   20.8447768   51.1361547
   20.8438764   51.1357724
   20.8430177   51.1353040
   20.8422089   51.1347540
   20.8196531   51.1177432
   20.8194455   51.1176026
   20.8191958   51.1175809
   20.7764804   51.1160497
   20.7762119   51.1160546
   20.7759506   51.1161171
   20.7536809   51.1227344
   20.7534649   51.1228095
   20.7532776   51.1229409
   20.7418437   51.1317694
   20.7410285   51.1323366
   20.7401611   51.1328201
   20.7392500   51.1332151
   20.7383042   51.1335179
   20.7328643   51.1349658
   20.7319133   51.1351700
   20.7309470   51.1352808
   20.7299744   51.1352972
   20.7290049   51.1352190
   20.7280476   51.1350471
   20.7271115   51.1347829
   20.7262055   51.1344291
   20.7253381   51.1339889
   20.7245177   51.1334665
   20.7064741   51.1207043
   20.7062666   51.1205726
   20.7060209   51.1205810
   20.6768877   51.1230383
   20.6766361   51.1230727
   20.6764513   51.1232469
   20.6553682   51.1453040
   20.6552117   51.1454846
   20.6552039   51.1457235
   20.6556921   51.1758422
   20.6556609   51.1768093
   20.6555364   51.1777689
   20.6553198   51.1787120
   20.6550131   51.1796296
   20.6546191   51.1805134
   20.6541415   51.1813549
   20.6535848   51.1821464
   20.6529543   51.1828803
   20.6522557   51.1835499
   20.6514957   51.1841488
   20.6506814   51.1846714
   20.6498204   51.1851129
   20.6489208   51.1854692
   20.6225775   51.1944520
   20.6222980   51.1945666
   20.6220345   51.1947143
   20.5980232   51.2101583
   20.5971745   51.2106472
   20.5962819   51.2110507
   20.5953542   51.2113650
   20.5944001   51.2115870
   20.5934289   51.2117145
   20.5924499   51.2117465
   20.5914725   51.2116825
   20.5865306   51.2111149
   20.5856124   51.2109658
   20.5847120   51.2107322
   20.5838372   51.2104158
   20.5829957   51.2100196
   20.5648907   51.2004421
   20.5646576   51.2003339
   20.5644015   51.2003564
   20.5276493   51.2055263
   20.5274162   51.2055707
   20.5272622   51.2057512
   20.5083454   51.2302249
   20.5082183   51.2304053
   20.5081076   51.2305962
   20.4958310   51.2541208
   20.4952847   51.2550436
   20.4946426   51.2559025
   20.4939123   51.2566877
   20.4713437   51.2784822
   20.4711801   51.2786563
   20.4710940   51.2788793
   20.4658374   51.2947467
   20.4654821   51.2956649
   20.4650383   51.2965437
   20.4645102   51.2973746
   20.4639030   51.2981496
   20.4632225   51.2988611
   20.4624754   51.2995022
   20.4616688   51.3000668
   20.4608106   51.3005493
   20.4599091   51.3009451
   20.4589731   51.3012503
   20.4173300   51.3125946
   20.4168539   51.3127501
   20.4164089   51.3129206
   20.4154578   51.3131810
   20.4144856   51.3133464
   20.4135019   51.3134152
   20.4125161   51.3133869
   20.4115380   51.3132615
   20.4105769   51.3130405
   20.4096423   51.3127259
   20.3976086   51.3080021
   20.3967363   51.3076105
   20.3959053   51.3071375
   20.3951233   51.3065872
   20.3943974   51.3059647
   20.3937344   51.3052758
   20.3931401   51.3045267
   20.3926201   51.3037242
   20.3921791   51.3028758
   20.3918212   51.3019891
   20.3915496   51.3010723
   20.3913668   51.3001337
   20.3912745   51.2991820
   20.3912736   51.2982258
   20.3913639   51.2972739
   20.3915447   51.2963349
   20.3918144   51.2954176
   20.3921705   51.2945302
   20.4028500   51.2712084
   20.4029373   51.2709906
   20.4028283   51.2707829
   20.3761984   51.2254585
   20.3760647   51.2252554
   20.3758346   51.2253339
   20.3385100   51.2402226
   20.3375726   51.2405437
   20.3366081   51.2407704
   20.3356259   51.2409005
   20.3346356   51.2409329
   20.3336470   51.2408670
   20.2810249   51.2347323
   20.2800822   51.2345765
   20.2791588   51.2343314
   20.2782629   51.2339993
   20.2774028   51.2335832
   20.2765864   51.2330869
   20.2758210   51.2325150
   20.2751137   51.2318726
   20.2744710   51.2311657
   20.2738986   51.2304007
   20.2734019   51.2295845
   20.2729853   51.2287247
   20.2726527   51.2278290
   20.2724071   51.2269056
   20.2722508   51.2259631
   20.2721851   51.2250099
   20.2722106   51.2240548
   20.2723272   51.2231065
   20.2745789   51.2099995
   20.2746073   51.2097663
   20.2744042   51.2096483
   20.2332769   51.1883671
   20.2330669   51.1882705
   20.2328383   51.1882356
   20.1213787   51.1765120
   20.1211698   51.1764988
   20.1209606   51.1765032
   20.0459978   51.1812369
   20.0450331   51.1812512
   20.0440714   51.1811725
   20.0431218   51.1810014
   20.0421931   51.1807396
   20.0412940   51.1803895
   20.0404328   51.1799544
   20.0396175   51.1794383
   20.0388558   51.1788461
   20.0381547   51.1781832
   20.0375208   51.1774558
   20.0369599   51.1766707
   20.0364772   51.1758352
   20.0360774   51.1749570
   20.0357640   51.1740445
   20.0355401   51.1731060
   20.0354076   51.1721502
   20.0353679   51.1711862
   20.0354212   51.1702228
   20.0355672   51.1692690
   20.0358044   51.1683337
   20.0361306   51.1674257
   20.0365428   51.1665533
   20.0370372   51.1657247
   20.0376091   51.1649476
   20.0382533   51.1642292
   20.0382906   51.1641915
   20.0384451   51.1640192
   20.0383108   51.1638306
   20.0056670   51.1223822
   20.0050999   51.1215848
   20.0046134   51.1207357
   20.0042123   51.1198432
   20.0039003   51.1189157
   20.0036804   51.1179622
   20.0035548   51.1169917
   20.0035247   51.1160136
   20.0038467   51.0982627
   20.0039096   51.0973096
   20.0040631   51.0963669
   20.0043059   51.0954431
   20.0046357   51.0945467
   20.0050496   51.0936858
   20.0055436   51.0928684
   20.0061134   51.0921019
   20.0067538   51.0913931
   20.0074588   51.0907488
   20.0082221   51.0901746
   20.0090367   51.0896759
   20.0098952   51.0892571
   20.0107897   51.0889222
   20.0117121   51.0886741
   20.0487367   51.0805909
   20.0489644   51.0805297
   20.0491384   51.0803707
   20.0683088   51.0611022
   20.0684758   51.0609161
   20.0684277   51.0606707
   20.0440295   50.9629784
   20.0439601   50.9627490
   20.0437386   50.9626573
   20.0114405   50.9511124
   20.0112106   50.9510427
   20.0109885   50.9511342
   19.9530768   50.9783880
   19.9528668   50.9784994
   19.9526971   50.9786657
   19.9239991   51.0096217
   19.9232700   51.0103320
   19.9224725   51.0109644
   19.9216149   51.0115125
   19.9207059   51.0119706
   19.9197552   51.0123339
   19.8887832   51.0223951
   19.8878011   51.0226597
   19.8867972   51.0228232
   19.8857818   51.0228839
   19.8847656   51.0228412
   19.8837589   51.0226954
   19.8827723   51.0224481
   19.8818159   51.0221018
   19.8808996   51.0216602
   19.8800329   51.0211278
   19.8792248   51.0205102
   19.8784836   51.0198136
   19.8778170   51.0190453
   19.8772319   51.0182133
   19.8479068   50.9716485
   19.8474283   50.9707996
   19.8470347   50.9699081
   19.8467297   50.9689825
   19.8465163   50.9680317
   19.8463964   50.9670646
   19.8463712   50.9660904
   19.8464410   50.9651184
   19.8466050   50.9641578
   19.8468618   50.9632178
   19.8472088   50.9623072
   19.8476429   50.9614347
   19.8608120   50.9379107
   19.8609171   50.9376996
   19.8608237   50.9374831
   19.8466666   50.9085876
   19.8465517   50.9083793
   19.8463315   50.9082892
   19.8065016   50.8942030
   19.8056463   50.8938553
   19.8048267   50.8934302
   19.8040498   50.8929313
   19.8033222   50.8923630
   19.7327376   50.8317710
   19.7325455   50.8316219
   19.7323028   50.8316057
   19.6924995   50.8309143
   19.6922529   50.8309224
   19.6920289   50.8310256
   19.5755499   50.8919002
   19.5746593   50.8923114
   19.5737326   50.8926334
   19.5727789   50.8928630
   19.5718072   50.8929980
   19.5708270   50.8930372
   19.5698477   50.8929802
   19.5688787   50.8928274
   19.5679293   50.8925805
   19.5670086   50.8922418
   19.5114047   50.8686239
   19.5111580   50.8685343
   19.5108964   50.8685544
   19.4670705   50.8742773
   19.4668292   50.8743213
   19.4667383   50.8745491
   19.4527288   50.9155278
   19.4523996   50.9163654
   19.4519966   50.9171699
   19.4515228   50.9179349
   19.4509822   50.9186543
   19.4210667   50.9549393
   19.4203376   50.9557324
   19.4195276   50.9564424
   19.4186458   50.9570611
   19.4177026   50.9575815
   19.4167089   50.9579973
   19.3949391   50.9657583
   19.3947190   50.9658491
   19.3946259   50.9660682
   19.3907433   50.9766059
   19.3903494   50.9775292
   19.3898650   50.9784083
   19.3892948   50.9792345
   19.3886447   50.9799994
   19.3879211   50.9806952
   19.3871315   50.9813149
   19.3862837   50.9818524
   19.3853863   50.9823022
   19.3844483   50.9826597
   19.3834792   50.9829214
   19.3824887   50.9830847
   19.3814869   50.9831478
   19.3804838   50.9831101
   19.3526384   50.9806610
   19.3524048   50.9806516
   19.3522456   50.9808228
   19.3381896   50.9974626
   19.3373940   50.9983010
   19.3365070   50.9990419
   19.2978605   51.0277013
   19.2970681   51.0282323
   19.2962288   51.0286853
   19.2953500   51.0290564
   19.2944400   51.0293420
   19.2935068   51.0295396
   19.2925591   51.0296474
   19.2916054   51.0296645
   19.2906544   51.0295906
   19.2897148   51.0294264
   19.2887951   51.0291734
   19.2879037   51.0288340
   19.2679183   51.0201111
   19.2670654   51.0196894
   19.2662564   51.0191886
   19.2654987   51.0186132
   19.2647991   51.0179684
   19.2641639   51.0172600
   19.2635990   51.0164945
   19.2631093   51.0156787
   19.2626994   51.0148201
   19.2482217   50.9803681
   19.2481221   50.9801594
   19.2478994   50.9800968
   19.2032095   50.9697876
   19.2029611   50.9697435
   19.2027230   50.9698268
   19.1527471   50.9902313
   19.1517911   50.9905662
   19.1508061   50.9908027
   19.1498022   50.9909383
   19.1487898   50.9909716
   19.1477791   50.9909024
   19.1200025   50.9875790
   19.1197641   50.9875622
   19.1195830   50.9877183
   19.0942369   51.0118108
   19.0934968   51.0124485
   19.0926981   51.0130108
   19.0918483   51.0134926
   19.0909556   51.0138891
   19.0900285   51.0141967
   19.0890757   51.0144123
   19.0881065   51.0145340
   19.0871300   51.0145605
   19.0477724   51.0137051
   19.0475439   51.0137107
   19.0473655   51.0138536
   18.9961898   51.0589177
   18.9953823   51.0595580
   18.9945133   51.0601117
   18.9935918   51.0605731
   18.9926278   51.0609373
   18.9324676   51.0801811
   18.9314842   51.0804413
   18.9304795   51.0806003
   18.9294638   51.0806564
   18.9284477   51.0806091
   18.9274417   51.0804587
   18.9264561   51.0802069
   18.9255012   51.0798563
   18.9245869   51.0794105
   18.9237226   51.0788742
   18.9229173   51.0782528
   18.9221792   51.0775528
   18.8935247   51.0474629
   18.8933569   51.0473028
   18.8931346   51.0473688
   18.8581794   51.0595805
   18.8571485   51.0598796
   18.8560915   51.0600665
   18.8550206   51.0601391
   18.8539480   51.0600964
   18.6603070   51.0419441
   18.6600515   51.0419334
   18.6598050   51.0420010
   18.5705705   51.0715105
   18.5703391   51.0716002
   18.5702219   51.0718190
   18.5495043   51.1157004
   18.5490409   51.1165685
   18.5484945   51.1173868
   18.5478703   51.1181475
   18.5471743   51.1188432
   18.5464133   51.1194670
   18.5455947   51.1200131
   18.5447264   51.1204760
   18.5438168   51.1208514
   18.5428747   51.1211355
   18.5419092   51.1213257
   18.5409297   51.1214201
   18.5399457   51.1214178
   18.5389667   51.1213187
   18.5380021   51.1211239
   18.5370614   51.1208353
   18.5361536   51.1204556
   18.5352875   51.1199885
   18.5344715   51.1194386
   18.5337135   51.1188111
   18.5330209   51.1181122
   18.5324003   51.1173485
   18.5318577   51.1165276
   18.5313985   51.1156573
   18.5310270   51.1147461
   18.5307468   51.1138028
   18.5305608   51.1128366
   18.5304706   51.1118567
   18.5300108   51.1010632
   18.5299878   51.1008175
   18.5297794   51.1006852
   18.4898349   51.0780959
   18.4896306   51.0779927
   18.4894377   51.0781158
   18.4564275   51.1014316
   18.4556131   51.1019499
   18.4547524   51.1023871
   18.4538536   51.1027394
   18.4529251   51.1030033
   18.3642776   51.1236349
   18.3631919   51.1238252
   18.1826300   51.1453003
   18.1823847   51.1453421
   18.1821754   51.1454766
   18.1502959   51.1683196
   18.1501125   51.1684649
   18.1501497   51.1686958
   18.1619071   51.2245102
   18.1620532   51.2254017
   18.1621182   51.2263027
   18.1621017   51.2272059
   18.1620037   51.2281040
   18.1618250   51.2289896
   18.1615672   51.2298554
   18.1567287   51.2437723
   18.1563651   51.2446741
   18.1559156   51.2455363
   18.1553846   51.2463509
   18.1547769   51.2471100
   18.1540984   51.2478064
   18.1533554   51.2484337
   18.1525550   51.2489859
   18.1517048   51.2494577
   18.1508128   51.2498448
   18.1498874   51.2501433
   18.1489373   51.2503506
   18.1479717   51.2504646
   18.0985754   51.2538731
   18.0983413   51.2539008
   18.0983235   51.2541359
   18.0970710   51.3016368
   18.0969955   51.3026277
   18.0968220   51.3036062
   18.0965522   51.3045627
   18.0961889   51.3054876
   18.0957355   51.3063720
   18.0951966   51.3072069
   18.0624101   51.3528550
   18.0622857   51.3530469
   18.0624732   51.3531778
   18.0963985   51.3745133
   18.0966027   51.3746285
   18.0968367   51.3746150
   18.1157647   51.3726194
   18.1167070   51.3725649
   18.1176503   51.3725994
   18.1185861   51.3727227
   18.1195061   51.3729337
   18.1204021   51.3732305
   18.1212662   51.3736105
   18.1220905   51.3740702
   18.1228679   51.3746056
   18.1235913   51.3752119
   18.1242543   51.3758838
   18.1248511   51.3766151
   18.1443971   51.4030235
   18.1445565   51.4032172
   18.1448069   51.4032323
   18.1799298   51.4035423
   18.1809343   51.4036018
   18.1819277   51.4037619
   18.1828999   51.4040211
   18.1838413   51.4043766
   18.1847421   51.4048250
   18.1855933   51.4053616
   18.1863862   51.4059810
   18.1871129   51.4066770
   18.1877660   51.4074425
   18.1883389   51.4082698
   18.1888257   51.4091504
   18.1892215   51.4100755
   18.1895224   51.4110357
   18.1913421   51.4180648
   18.1915450   51.4190507
   18.1916477   51.4200521
   18.1916493   51.4210587
   18.1915497   51.4220604
   18.1913498   51.4230470
   18.1910518   51.4240085
   18.1906586   51.4249352
   18.1901743   51.4258176
   18.1771195   51.4469999
   18.1770060   51.4472061
   18.1772013   51.4473377
   18.2082446   51.4660998
   18.2084619   51.4662166
   18.2087032   51.4661649
   18.3151041   51.4376648
   18.3160957   51.4374524
   18.3171038   51.4373416
   18.3181179   51.4373334
   18.3191276   51.4374279
   18.3201225   51.4376243
   18.3210925   51.4379204
   18.3220274   51.4383132
   18.3229178   51.4387987
   18.3237544   51.4393719
   18.3245287   51.4400269
   18.3252326   51.4407569
   18.3258590   51.4415545
   18.3264014   51.4424114
   18.3268542   51.4433188
   18.3417408   51.4773732
   18.3418487   51.4775900
   18.3420787   51.4776655
   18.3589266   51.4822860
   18.3598773   51.4825987
   18.3607920   51.4830048
   18.3616615   51.4835004
   18.3624771   51.4840803
   18.3632307   51.4847389
   18.3639147   51.4854695
   18.3645222   51.4862648
   18.3650472   51.4871168
   18.3654844   51.4880171
   18.3658294   51.4889566
   18.3660788   51.4899258
   18.3662301   51.4909151
   18.3662817   51.4919146
   18.3663044   51.5066918
   18.3662568   51.5076821
   18.3661113   51.5086629
   18.3658695   51.5096245
   18.3655335   51.5105573
   18.3651069   51.5114523
   18.3645937   51.5123007
   18.3639991   51.5130941
   18.3458154   51.5350007
   18.3456643   51.5352033
   18.3457115   51.5354516
   18.3562307   51.5785220
   18.3564194   51.5795060
   18.3565086   51.5805039
   18.3564976   51.5815057
   18.3563863   51.5825014
   18.3561760   51.5834810
   18.3558687   51.5844346
   18.3554676   51.5853526
   18.3549765   51.5862259
   18.3544006   51.5870458
   18.3537455   51.5878038
   18.3530179   51.5884925
   18.3522250   51.5891050
   18.3513748   51.5896350
   18.3370469   51.5975994
   18.3368422   51.5977269
   18.3368371   51.5979681
   18.3376827   51.6276821
   18.3377029   51.6279347
   18.3378660   51.6281287
   18.3504810   51.6416521
   18.3511215   51.6424111
   18.3516836   51.6432299
   18.3521617   51.6441004
   18.3525512   51.6450141
   18.3528480   51.6459619
   18.3530494   51.6469344
   18.3531533   51.6479221
   18.3531588   51.6489153
   18.3530656   51.6499041
   18.3528749   51.6508788
   18.3525884   51.6518297
   18.3452019   51.6725602
   18.3451334   51.6727867
   18.3452998   51.6729549
   18.3872015   51.7113880
   18.3879002   51.7120959
   18.3885250   51.7128698
   18.3890699   51.7137018
   18.3895295   51.7145839
   18.3898991   51.7155073
   18.3901752   51.7164628
   18.3903550   51.7174410
   18.3904368   51.7184322
   18.3916623   51.7560821
   18.3916808   51.7563133
   18.3918798   51.7564323
   18.4040647   51.7629516
   18.4049257   51.7634695
   18.4057305   51.7640713
   18.4064707   51.7647508
   18.4071391   51.7655011
   18.4077288   51.7663147
   18.4082338   51.7671834
   18.4086491   51.7680984
   18.4089705   51.7690504
   18.4091948   51.7700299
   18.4093196   51.7710270
   18.4093437   51.7720315
   18.4092669   51.7730334
   18.4090899   51.7740225
   18.4088145   51.7749889
   18.4084436   51.7759227
   18.4079808   51.7768147
   18.3973530   51.7949996
   18.3972454   51.7952060
   18.3974390   51.7953354
   18.4243947   51.8115019
   18.4252121   51.8120485
   18.4259718   51.8126727
   18.4266666   51.8133685
   18.4272897   51.8141292
   18.4278350   51.8149474
   18.4282974   51.8158152
   18.4286723   51.8167242
   18.4289561   51.8176657
   18.4291461   51.8186304
   18.4315448   51.8350291
   18.4315908   51.8352636
   18.4317743   51.8354167
   18.4680874   51.8628321
   18.4682739   51.8629600
   18.4684977   51.8629923
   18.5042831   51.8664958
   18.5045261   51.8665075
   18.5047204   51.8663609
   18.5211640   51.8526170
   18.5219148   51.8520473
   18.5227160   51.8515508
   18.5235603   51.8511320
   18.5244404   51.8507945
   18.5253482   51.8505414
   18.5262759   51.8503748
   18.5272152   51.8502964
   18.5281577   51.8503067
   18.5290950   51.8504057
   18.5966485   51.8607798
   18.5969092   51.8608059
   18.5971649   51.8607492
   18.6669060   51.8413821
   18.6678437   51.8411696
   18.6687975   51.8410482
   18.6697586   51.8410190
   18.6707181   51.8410822
   18.6716670   51.8412373
   18.6725967   51.8414828
   18.6734984   51.8418164
   18.6743640   51.8422351
   18.6751854   51.8427350
   18.6759549   51.8433115
   18.6766656   51.8439592
   18.6773107   51.8446721
   18.6778844   51.8454438
   18.6783813   51.8462669
   18.6787969   51.8471340
   18.6791272   51.8480370
   18.6871698   51.8737953
   18.6872495   51.8740137
   18.6874195   51.8741722
   18.7334825   51.9132314
   18.7342024   51.9139056
   18.7348523   51.9146474
   18.7354260   51.9154496
   18.7359180   51.9163045
   18.7363233   51.9172036
   18.7366380   51.9181383
   18.7368592   51.9190995
   18.7369846   51.9200778
   18.7370130   51.9210636
   18.7369441   51.9220475
   18.7367787   51.9230198
   18.7365183   51.9239711
   18.7361655   51.9248921
   18.7357236   51.9257739
   18.7351971   51.9266078
   18.7345909   51.9273858
   18.7029777   51.9640770
   18.7028317   51.9642639
   18.7028349   51.9645012
   18.7096646   52.0747807
   18.7096915   52.0750210
   18.7099178   52.0751063
   18.7532824   52.0890206
   18.7535292   52.0890858
   18.7537677   52.0889946
   18.7838233   52.0756670
   18.7846795   52.0753335
   18.7855627   52.0750800
   18.7864654   52.0749087
   18.7873801   52.0748209
   18.7882989   52.0748175
   18.7892142   52.0748984
   18.8246167   52.0796753
   18.8255067   52.0798367
   18.8263786   52.0800778
   18.8272250   52.0803968
   18.8280392   52.0807909
   18.8638203   52.1001557
   18.8640526   52.1002661
   18.8643090   52.1002460
   18.9063056   52.0947291
   18.9072904   52.0946489
   18.9082782   52.0946664
   18.9092595   52.0947812
   18.9102247   52.0949923
   18.9111643   52.0952976
   18.9120692   52.0956941
   18.9129306   52.0961780
   18.9137400   52.0967446
   18.9144896   52.0973882
   18.9151720   52.0981027
   18.9157805   52.0988810
   18.9163093   52.0997156
   18.9167532   52.1005983
   18.9171078   52.1015204
   18.9185043   52.1057677
   18.9187632   52.1067074
   18.9189295   52.1076679
   18.9190014   52.1086400
   18.9189784   52.1096144
   18.9188606   52.1105820
   18.9186491   52.1115336
   18.9183461   52.1124600
   18.9179542   52.1133525
   18.9174774   52.1142026
   18.9169200   52.1150023
   18.9162874   52.1157439
   18.9155857   52.1164204
   18.9148214   52.1170254
   18.9000872   52.1275618
   18.8998919   52.1277171
   18.8998457   52.1279624
   18.8962539   52.1544106
   18.8962328   52.1546585
   18.8963106   52.1548948
   18.9160070   52.2059490
   18.9161098   52.2061792
   18.9163488   52.2062596
   18.9908050   52.2270887
   18.9910616   52.2271460
   18.9913246   52.2271481
   19.0538968   52.2243342
   19.0548851   52.2243386
   19.0558681   52.2244406
   19.0568363   52.2246391
   19.0577801   52.2249322
   19.0586904   52.2253171
   19.0595583   52.2257899
   19.0603752   52.2263461
   19.0611333   52.2269802
   19.0618251   52.2276860
   19.0735716   52.2409206
   19.0741756   52.2416711
   19.0747047   52.2424762
   19.0751538   52.2433285
   19.0755188   52.2442200
   19.0757963   52.2451426
   19.0759838   52.2460875
   19.0760794   52.2470461
   19.0760824   52.2480095
   19.0759927   52.2489687
   19.0758111   52.2499148
   19.0755393   52.2508390
   19.0751798   52.2517328
   19.0747360   52.2525878
   19.0742119   52.2533962
   19.0736125   52.2541504
   19.0729434   52.2548434
   19.0722106   52.2554688
   19.0714211   52.2560208
   19.0705821   52.2564943
   19.0697014   52.2568848
   19.0687873   52.2571888
   19.0678481   52.2574034
   19.0188700   52.2661372
   19.0186453   52.2661887
   19.0187160   52.2664081
   19.0270902   52.2886179
   19.0273791   52.2895085
   19.0275835   52.2904221
   19.0277016   52.2913509
   19.0277322   52.2922867
   19.0276753   52.2932212
   19.0275311   52.2941462
   19.0273011   52.2950538
   19.0197240   52.3199857
   19.0193982   52.3208967
   19.0189858   52.3217720
   19.0184909   52.3226033
   19.0179179   52.3233829
   19.0172722   52.3241035
   19.0165600   52.3247583
   19.0157877   52.3253413
   19.0149628   52.3258468
   19.0140929   52.3262703
   19.0131861   52.3266077
   19.0122509   52.3268560
   19.0112962   52.3270126
   19.0103307   52.3270763
   19.0080758   52.3271157
   19.0078338   52.3271319
   19.0076281   52.3272603
   18.9421700   52.3727535
   18.9413412   52.3732714
   18.9404658   52.3737058
   18.9395522   52.3740528
   18.9386091   52.3743089
   18.9376454   52.3744718
   18.9366705   52.3745398
   18.9356936   52.3745123
   18.9347241   52.3743896
   18.9337711   52.3741728
   18.9328439   52.3738640
   18.9319512   52.3734662
   18.9311016   52.3729832
   18.9303033   52.3724196
   18.9295637   52.3717807
   18.9119650   52.3550073
   18.9117944   52.3548589
   18.9115826   52.3547814
   18.8598821   52.3384696
   18.8596279   52.3384039
   18.8593656   52.3383931
   18.8111419   52.3389510
   18.8100584   52.3389047
   18.8089863   52.3387414
   18.8079382   52.3384630
   18.7547543   52.3211961
   18.7545247   52.3211338
   18.7543801   52.3213227
   18.7110121   52.3841673
   18.7104415   52.3849161
   18.7098031   52.3856079
   18.7091025   52.3862365
   18.7083459   52.3867966
   18.7075399   52.3872830
   18.7066918   52.3876914
   18.7058091   52.3880183
   18.7048995   52.3882608
   18.7039711   52.3884166
   18.6733150   52.3920894
   18.6730671   52.3921322
   18.6729087   52.3923276
   18.6392104   52.4385689
   18.6385796   52.4393491
   18.6378737   52.4400621
   18.6371000   52.4407008
   18.6362662   52.4412588
   18.6353806   52.4417304
   18.6344523   52.4421109
   18.6334905   52.4423965
   18.6325049   52.4425842
   18.5571361   52.4530558
   18.5568989   52.4531009
   18.5568072   52.4533243
   18.5514139   52.4685948
   18.5510124   52.4695659
   18.5505111   52.4704895
   18.5499157   52.4713554
   18.5492328   52.4721541
   18.5484698   52.4728766
   18.5476351   52.4735152
   18.5467381   52.4740626
   18.5204572   52.4882615
   18.5195784   52.4886823
   18.5186629   52.4890156
   18.5177192   52.4892582
   18.5167565   52.4894078
   18.4991368   52.4912729
   18.4981932   52.4913279
   18.4972486   52.4912935
   18.4963114   52.4911701
   18.4953901   52.4909588
   18.4944929   52.4906614
   18.4936278   52.4902806
   18.4928025   52.4898199
   18.4920243   52.4892833
   18.4913003   52.4886756
   18.4675448   52.4667414
   18.4673653   52.4665908
   18.4671329   52.4665611
   18.3873548   52.4601995
   18.3871169   52.4601923
   18.3869984   52.4603988
   18.3653054   52.5029135
   18.3652108   52.5031221
   18.3652112   52.5031327
   18.3651994   52.5041332
   18.3650876   52.5051275
   18.3648771   52.5061057
   18.3645698   52.5070579
   18.3641689   52.5079747
   18.3636785   52.5088468
   18.3631033   52.5096655
   18.3624491   52.5104226
   18.3617226   52.5111106
   18.3609310   52.5117226
   18.3600822   52.5122523
   18.3591847   52.5126946
   18.3582475   52.5130450
   18.3572799   52.5133000
   18.3562918   52.5134570
   18.3552928   52.5135145
   18.3542932   52.5134719
   18.3533028   52.5133296
   18.3523316   52.5130890
   18.3513892   52.5127526
   18.3504853   52.5123237
   18.3496287   52.5118065
   18.3491993   52.5115171
   18.3490095   52.5114158
   18.2634909   52.4710196
   18.2632777   52.4709308
   18.2630469   52.4709258
   18.2032197   52.4724237
   18.2029762   52.4724420
   18.2028195   52.4726294
   18.1898951   52.4897477
   18.1892904   52.4904745
   18.1886197   52.4911409
   18.1878890   52.4917411
   18.1871050   52.4922695
   18.1862745   52.4927215
   18.1854051   52.4930931
   18.1845044   52.4933809
   18.1835806   52.4935823
   18.0874395   52.5098295
   18.0872110   52.5098797
   18.0871895   52.5101127
   18.0863047   52.5305814
   18.0862117   52.5315767
   18.0860197   52.5325578
   18.0857308   52.5335149
   18.0853477   52.5344383
   18.0848744   52.5353188
   18.0843155   52.5361477
   18.0836766   52.5369166
   18.0829642   52.5376179
   18.0821853   52.5382445
   18.0813477   52.5387903
   18.0804598   52.5392497
   18.0795305   52.5396181
   18.0785690   52.5398920
   18.0775850   52.5400684
   18.0765883   52.5401458
   18.0755889   52.5401232
   17.9828126   52.5333776
   17.9825775   52.5333720
   17.9824800   52.5335860
   17.9768269   52.5477863
   17.9764089   52.5486998
   17.9759014   52.5495667
   17.9753095   52.5503784
   17.9746392   52.5511265
   17.9738971   52.5518037
   17.9730909   52.5524029
   17.9722286   52.5529183
   17.9713190   52.5533445
   17.9703712   52.5536774
   17.8981403   52.5750319
   17.8979209   52.5751084
   17.8979017   52.5753401
   17.8971551   52.5969527
   17.8970787   52.5978878
   17.8969151   52.5988116
   17.8966656   52.5997160
   17.8963325   52.6005930
   17.8959186   52.6014349
   17.8954277   52.6022344
   17.8948640   52.6029843
   17.8942325   52.6036781
   17.8935388   52.6043097
   17.8927889   52.6048735
   17.8732140   52.6182009
   17.8724182   52.6186900
   17.8715802   52.6191026
   17.8707074   52.6194353
   17.8698074   52.6196851
   17.8688880   52.6198498
   17.8679572   52.6199280
   17.8670232   52.6199190
   17.8398118   52.6183848
   17.8395529   52.6183838
   17.8393160   52.6184883
   17.8101319   52.6332374
   17.8092623   52.6336260
   17.8083597   52.6339302
   17.8074323   52.6341471
   17.8064884   52.6342748
   17.8055366   52.6343121
   17.8045856   52.6342586
   17.8036441   52.6341150
   17.7575557   52.6248183
   17.7566628   52.6245950
   17.7557943   52.6242905
   17.7549574   52.6239075
   17.7541593   52.6234492
   17.7080181   52.5940490
   17.7077958   52.5939230
   17.7075417   52.5938970
   17.6745981   52.5922420
   17.6743689   52.5922414
   17.6743147   52.5924640
   17.6674904   52.6277516
   17.6672667   52.6286723
   17.6669568   52.6295676
   17.6665635   52.6304296
   17.6660905   52.6312505
   17.6655419   52.6320230
   17.6649226   52.6327401
   17.6642383   52.6333953
   17.6634950   52.6339829
   17.6626994   52.6344974
   17.6618587   52.6349344
   17.6609805   52.6352898
   17.6213270   52.6491904
   17.6211113   52.6492779
   17.6211040   52.6495105
   17.6216745   52.6835743
   17.6216404   52.6845841
   17.6215045   52.6855854
   17.6212683   52.6865679
   17.6209341   52.6875214
   17.6205054   52.6884364
   17.6199866   52.6893035
   17.6193829   52.6901138
   17.6187005   52.6908590
   17.6179464   52.6915315
   17.6171283   52.6921246
   17.6162545   52.6926320
   17.6153340   52.6930487
   17.6143761   52.6933703
   17.6133907   52.6935936
   17.6123877   52.6937164
   17.6113775   52.6937373
   17.5918614   52.6931545
   17.5908008   52.6930662
   17.5897556   52.6928657
   17.5887376   52.6925552
   17.5877583   52.6921382
   17.5267008   52.6622083
   17.5264780   52.6621123
   17.5262363   52.6621330
   17.4629746   52.6706869
   17.4627432   52.6707299
   17.4627651   52.6709643
   17.4690568   52.7146985
   17.4691483   52.7156665
   17.4691453   52.7166389
   17.4690480   52.7176064
   17.4688571   52.7185598
   17.4685745   52.7194902
   17.4682029   52.7203888
   17.4677458   52.7212470
   17.4672076   52.7220567
   17.4665932   52.7228104
   17.4659085   52.7235008
   17.4651600   52.7241215
   17.4643547   52.7246665
   17.4635004   52.7251308
   17.3938218   52.7587131
   17.3936146   52.7588259
   17.3936856   52.7590508
   17.4070481   52.7950791
   17.4071382   52.7952910
   17.4073569   52.7953636
   17.4516883   52.8077950
   17.4519204   52.8078482
   17.4521555   52.8078103
   17.4850635   52.8008709
   17.4860536   52.8007134
   17.4870545   52.8006559
   17.4880562   52.8006990
   17.4890485   52.8008421
   17.4900215   52.8010838
   17.4909654   52.8014217
   17.4918707   52.8018525
   17.4927283   52.8023717
   17.4935296   52.8029742
   17.4942666   52.8036540
   17.4949318   52.8044041
   17.4955185   52.8052170
   17.4960210   52.8060846
   17.4964340   52.8069981
   17.4967534   52.8079484
   17.5128165   52.8650663
   17.5130509   52.8661119
   17.5131721   52.8671766
   17.5131787   52.8682481
   17.5130706   52.8693142
   17.5128490   52.8703626
   17.5003412   52.9170259
   17.5000293   52.9179910
   17.4996212   52.9189195
   17.4991212   52.9198019
   17.4985343   52.9206291
   17.4978667   52.9213926
   17.4836709   52.9360554
   17.4830006   52.9366869
   17.4822750   52.9372540
   17.4815003   52.9377519
   17.4806830   52.9381765
   17.4798302   52.9385240
   17.3951666   52.9685635
   17.3942109   52.9688498
   17.3932315   52.9690394
   17.3922380   52.9691305
   17.3912404   52.9691222
   17.3124337   52.9645248
   17.3121863   52.9645230
   17.3120338   52.9647179
   17.2911766   52.9943856
   17.2910538   52.9945793
   17.2911962   52.9947590
   17.3208205   53.0287024
   17.3214556   53.0295103
   17.3220044   53.0303792
   17.3224611   53.0312998
   17.3228209   53.0322623
   17.3230800   53.0332568
   17.3232357   53.0342725
   17.3232864   53.0352989
   17.3232314   53.0363251
   17.3230714   53.0373402
   17.3138098   53.0812838
   17.3137728   53.0815135
   17.3139798   53.0816199
   17.3415105   53.0941370
   17.3424025   53.0945979
   17.3432438   53.0951459
   17.3440258   53.0957755
   17.3447408   53.0964804
   17.3453815   53.0972534
   17.3459415   53.0980868
   17.3464151   53.0989721
   17.3467975   53.0999005
   17.3470849   53.1008625
   17.3472743   53.1018485
   17.3490932   53.1147901
   17.3491707   53.1155519
   17.3491896   53.1163173
   17.3489416   53.1346277
   17.3488791   53.1356164
   17.3487191   53.1365940
   17.3484632   53.1375511
   17.3481138   53.1384781
   17.3476745   53.1393660
   17.3471494   53.1402060
   17.3465438   53.1409900
   17.3458636   53.1417102
   17.3451155   53.1423596
   17.3443067   53.1429318
   17.3434454   53.1434211
   17.3425398   53.1438228
   17.3266725   53.1499403
   17.3264528   53.1500379
   17.3264631   53.1502781
   17.3300679   53.1889790
   17.3301106   53.1899990
   17.3300490   53.1910181
   17.3298839   53.1920256
   17.3296169   53.1930110
   17.3292508   53.1939640
   17.3287894   53.1948748
   17.3282376   53.1957337
   17.3276011   53.1965320
   17.3268866   53.1972611
   17.3261014   53.1979136
   17.3252537   53.1984827
   17.3243525   53.1989623
   17.3137058   53.2039489
   17.3135005   53.2040573
   17.3134699   53.2042875
   17.3120904   53.2206182
   17.3120821   53.2208509
   17.3123079   53.2209081
   17.3974081   53.2381050
   17.3983742   53.2383510
   17.3993110   53.2386919
   17.4002093   53.2391244
   17.4010600   53.2396441
   17.4018547   53.2402460
   17.4025856   53.2409241
   17.4032453   53.2416715
   17.4038273   53.2424810
   17.4134395   53.2573618
   17.4139305   53.2582104
   17.4143360   53.2591031
   17.4146521   53.2600311
   17.4148759   53.2609857
   17.4150051   53.2619576
   17.4150385   53.2629375
   17.4149757   53.2639159
   17.4148175   53.2648835
   17.4145653   53.2658309
   17.4142215   53.2667491
   17.4137894   53.2676292
   17.4132732   53.2684628
   17.4126779   53.2692418
   17.4120092   53.2699588
   17.4112734   53.2706068
   17.4104778   53.2711797
   17.4096298   53.2716719
   17.4087378   53.2720787
   17.3886315   53.2800818
   17.3884162   53.2801797
   17.3882372   53.2803342
   17.3315930   53.3341853
   17.3307769   53.3348818
   17.3298908   53.3354868
   17.3289450   53.3359934
   17.3279504   53.3363958
   17.3269184   53.3366893
   17.2530741   53.3534668
   17.2528482   53.3535297
   17.2527493   53.3537423
   17.2394419   53.3863646
   17.2393644   53.3865849
   17.2395638   53.3867063
   17.2808223   53.4091437
   17.2816813   53.4096685
   17.2824831   53.4102769
   17.2832197   53.4109629
   17.2838836   53.4117194
   17.2844681   53.4125389
   17.2849672   53.4134130
   17.2853760   53.4143328
   17.2856902   53.4152890
   17.2859067   53.4162720
   17.2882391   53.4301566
   17.2882908   53.4303924
   17.2884947   53.4305218
   17.3562019   53.4689168
   17.3570364   53.4694462
   17.3578146   53.4700553
   17.3585288   53.4707383
   17.3591722   53.4714884
   17.3597383   53.4722984
   17.3602218   53.4731603
   17.3606178   53.4740657
   17.3609225   53.4750058
   17.3611330   53.4759713
   17.3612471   53.4769529
   17.3612638   53.4779410
   17.3611828   53.4789259
   17.3610051   53.4798981
   17.3607323   53.4808479
   17.3603670   53.4817661
   17.3599129   53.4826439
   17.3593744   53.4834725
   17.3587567   53.4842439
   17.3580659   53.4849506
   17.3573088   53.4855856
   17.3564926   53.4861428
   17.3556254   53.4866168
   17.3547157   53.4870028
   17.3537723   53.4872971
   17.3528045   53.4874969
   17.3340134   53.4904168
   17.3338030   53.4904589
   17.3336105   53.4905534
   17.2743597   53.5228904
   17.2735273   53.5232959
   17.2726610   53.5236226
   17.2717681   53.5238678
   17.2708564   53.5240294
   17.2699337   53.5241060
   17.0954584   53.5304710
   17.0944902   53.5304594
   17.0935278   53.5303542
   17.0925800   53.5301565
   17.0916558   53.5298681
   17.0907638   53.5294916
   17.0899124   53.5290306
   17.0571951   53.5092103
   17.0569763   53.5090924
   17.0567287   53.5090695
   16.9978178   53.5066103
   16.9975745   53.5066123
   16.9973888   53.5067694
   16.9783721   53.5245497
   16.9782036   53.5247238
   16.9782589   53.5249622
   16.9784328   53.5259225
   16.9785122   53.5268952
   16.9784964   53.5278710
   16.9783856   53.5288406
   16.9781808   53.5297948
   16.9778839   53.5307245
   16.9774979   53.5316208
   16.9770263   53.5324753
   16.9764736   53.5332797
   16.9758452   53.5340263
   16.9751470   53.5347082
   16.9743857   53.5353188
   16.9735684   53.5358523
   16.9727031   53.5363035
   16.9717979   53.5366682
   16.9708614   53.5369430
   16.9699026   53.5371252
   16.9689307   53.5372131
   16.9679548   53.5372057
   16.9669842   53.5371033
   16.9660283   53.5369068
   16.9470619   53.5320322
   16.9468268   53.5319841
   16.9467172   53.5321976
   16.9271709   53.5754692
   16.9267398   53.5763142
   16.9262305   53.5771146
   16.9256478   53.5778632
   16.9249967   53.5785531
   16.8863452   53.6158015
   16.8861715   53.6159870
   16.8860866   53.6162265
   16.8809945   53.6333138
   16.8806668   53.6342434
   16.8802491   53.6351363
   16.8797456   53.6359837
   16.8791611   53.6367774
   16.8785013   53.6375097
   16.8777726   53.6381735
   16.8769820   53.6387623
   16.8761374   53.6392704
   16.8752468   53.6396929
   16.8743190   53.6400257
   16.8733629   53.6402655
   16.8723878   53.6404100
   16.8714033   53.6404579
   16.8704188   53.6404085
   16.8694439   53.6402625
   16.8684882   53.6400212
   16.8675609   53.6396870
   16.8666710   53.6392631
   16.8658271   53.6387537
   16.8650375   53.6381636
   16.8643098   53.6374987
   16.8636511   53.6367654
   16.8505894   53.6206961
   16.8504264   53.6205151
   16.8501998   53.6206043
   16.8297729   53.6298567
   16.8288594   53.6302175
   16.8279150   53.6304870
   16.8269487   53.6306625
   16.8259698   53.6307424
   16.8249878   53.6307259
   16.8240122   53.6306131
   16.8230523   53.6304052
   16.8221175   53.6301041
   16.8212167   53.6297128
   16.8203586   53.6292350
   16.8195516   53.6286753
   16.8188033   53.6280391
   16.8181211   53.6273327
   16.8154099   53.6242342
   16.8152334   53.6240523
   16.8149841   53.6240066
   16.7740967   53.6186759
   16.7731628   53.6185087
   16.7722489   53.6182538
   16.7713632   53.6179134
   16.7705138   53.6174906
   16.7697083   53.6169892
   16.7689540   53.6164137
   16.7682575   53.6157694
   16.7676253   53.6150619
   16.7522909   53.5961698
   16.7517161   53.5953867
   16.7512200   53.5945516
   16.7508072   53.5936723
   16.7504817   53.5927571
   16.7502466   53.5918146
   16.7501039   53.5908538
   16.7500552   53.5898836
   16.7501008   53.5889133
   16.7517758   53.5714429
   16.7517869   53.5711942
   16.7516330   53.5709985
   16.7306669   53.5469630
   16.7300756   53.5462162
   16.7295581   53.5454165
   16.7291190   53.5445712
   16.7287624   53.5436879
   16.7284914   53.5427747
   16.7283085   53.5418399
   16.7282154   53.5408919
   16.7282129   53.5399393
   16.7283010   53.5389909
   16.7284790   53.5380551
   16.7287453   53.5371405
   16.7290973   53.5362554
   16.7295320   53.5354078
   16.7350666   53.5257749
   16.7351739   53.5255645
   16.7349733   53.5254397
   16.6535512   53.4802428
   16.6533261   53.4801323
   16.6530783   53.4800942
   16.4914345   53.4635471
   16.4911724   53.4635343
   16.4909283   53.4636308
   16.4832434   53.4671523
   16.4823569   53.4675084
   16.4814405   53.4677782
   16.4805026   53.4679593
   16.4795516   53.4680501
   16.4785963   53.4680498
   16.4776454   53.4679583
   16.4767076   53.4677765
   16.4757914   53.4675060
   16.4749052   53.4671494
   16.4740571   53.4667098
   16.4732547   53.4661913
   16.4725056   53.4655986
   16.4718163   53.4649371
   16.4711934   53.4642129
   16.4706424   53.4634325
   16.4701684   53.4626031
   16.4701393   53.4625461
   16.4700058   53.4623381
   16.4602364   53.4486624
   16.4597227   53.4478660
   16.4592866   53.4470245
   16.4589322   53.4461456
   16.4586626   53.4452370
   16.4584802   53.4443070
   16.4583867   53.4433639
   16.4583829   53.4424162
   16.4584688   53.4414723
   16.4586436   53.4405409
   16.4589059   53.4396301
   16.4592532   53.4387483
   16.4596824   53.4379034
   16.4826905   53.3974762
   16.4831963   53.3966777
   16.4837753   53.3959305
   16.4844222   53.3952413
   16.4851314   53.3946164
   16.4858963   53.3940611
   16.4867103   53.3935805
   16.4875659   53.3931790
   16.5822052   53.3541128
   16.5831824   53.3537675
   16.5841901   53.3535252
   16.5852175   53.3533886
   16.5862535   53.3533590
   16.6302823   53.3543838
   16.6305465   53.3543758
   16.6307834   53.3542588
   16.7171318   53.3057127
   16.7173395   53.3055818
   16.7174138   53.3053480
   16.7200375   53.2953970
   16.7200860   53.2951681
   16.7198632   53.2950969
   16.6815613   53.2848913
   16.6805334   53.2845570
   16.6795477   53.2841137
   16.6786155   53.2835666
   16.6388458   53.2572364
   16.6381106   53.2567000
   16.6374272   53.2560989
   16.6368012   53.2554382
   16.6362380   53.2547234
   16.6357420   53.2539602
   16.6353175   53.2531552
   16.6231645   53.2273220
   16.6230524   53.2271113
   16.6228150   53.2270873
   16.5666583   53.2241847
   16.5655721   53.2240688
   16.5645051   53.2238351
   16.5634699   53.2234865
   16.5624789   53.2230270
   16.5477832   53.2152112
   16.5469431   53.2147103
   16.5461560   53.2141296
   16.5454293   53.2134749
   16.5447702   53.2127523
   16.5441847   53.2119687
   16.5436786   53.2111317
   16.5432567   53.2102493
   16.5429231   53.2093299
   16.5426808   53.2083822
   16.5425323   53.2074155
   16.5424789   53.2064388
   16.5425212   53.2054616
   16.5426588   53.2044933
   16.5428903   53.2035429
   16.5432136   53.2026198
   16.5436254   53.2017326
   16.5454545   53.1982499
   16.5455553   53.1980324
   16.5453905   53.1978583
   16.5036102   53.1579123
   16.5034258   53.1577528
   16.5031830   53.1577734
   16.4753089   53.1615382
   16.4742568   53.1616241
   16.4732016   53.1615986
   16.4721549   53.1614620
   16.4711285   53.1612158
   16.4701337   53.1608629
   16.4244908   53.1419000
   16.4242503   53.1418145
   16.4240142   53.1419111
   16.4149926   53.1461620
   16.4140683   53.1465423
   16.4131107   53.1468284
   16.4121292   53.1470176
   16.4111338   53.1471078
   16.4101344   53.1470981
   16.4091409   53.1469888
   16.4081633   53.1467809
   16.4072114   53.1464764
   16.4062946   53.1460784
   16.4054221   53.1455908
   16.4046026   53.1450186
   16.4038443   53.1443675
   16.4031548   53.1436439
   16.4025410   53.1428551
   16.4020090   53.1420090
   16.4015642   53.1411140
   16.3948053   53.1256184
   16.3947013   53.1254080
   16.3945000   53.1252874
   16.3674249   53.1107638
   16.3665773   53.1102536
   16.3657842   53.1096622
   16.3650535   53.1089952
   16.3643922   53.1082593
   16.3638069   53.1074617
   16.3633033   53.1066101
   16.3628863   53.1057130
   16.3625600   53.1047790
   16.3623275   53.1038174
   16.3621913   53.1028374
   16.3621525   53.1018489
   16.3622116   53.1008613
   16.3623679   53.0998844
   16.3626201   53.0989277
   16.3701558   53.0751738
   16.3702163   53.0749447
   16.3700279   53.0748010
   16.3265015   53.0448531
   16.3256953   53.0442358
   16.3249558   53.0435398
   16.3242907   53.0427725
   16.3237068   53.0419417
   16.3232102   53.0410559
   16.3228060   53.0401244
   16.3191738   53.0304336
   16.3190831   53.0302228
   16.3188570   53.0302621
   16.2702543   53.0411382
   16.2692710   53.0413072
   16.2682758   53.0413774
   16.2672786   53.0413482
   16.2662893   53.0412196
   16.1882788   53.0270981
   16.1872556   53.0268567
   16.1862633   53.0265092
   16.1380878   53.0067376
   16.1378476   53.0066531
   16.1375930   53.0066456
   16.0819377   53.0078544
   16.0816823   53.0078731
   16.0814362   53.0079437
   16.0253635   53.0272090
   16.0243882   53.0274896
   16.0233895   53.0276699
   15.9586165   53.0359983
   15.9583859   53.0360397
   15.9584543   53.0362638
   15.9673662   53.0609877
   15.9674603   53.0612131
   15.9676339   53.0613849
   15.9802217   53.0726722
   15.9809035   53.0733451
   15.9815177   53.0740802
   15.9820588   53.0748707
   15.9825217   53.0757093
   15.9829023   53.0765884
   15.9831971   53.0774998
   15.9834032   53.0784353
   15.9835190   53.0793862
   15.9835432   53.0803438
   15.9834756   53.0812994
   15.9833170   53.0822441
   15.9830687   53.0831693
   15.9827330   53.0840664
   15.9823129   53.0849274
   15.9744097   53.0993327
   15.9738999   53.1001632
   15.9733117   53.1009401
   15.9726507   53.1016561
   15.9719231   53.1023043
   15.9711359   53.1028787
   15.9702966   53.1033737
   15.9694130   53.1037846
   15.9684937   53.1041076
   15.9675473   53.1043396
   15.9665828   53.1044784
   15.8754796   53.1130830
   15.8744996   53.1131273
   15.8735200   53.1130752
   15.8725501   53.1129275
   15.8715995   53.1126854
   15.8687794   53.1118181
   15.8678698   53.1114894
   15.8669962   53.1110743
   15.8661668   53.1105768
   15.8653893   53.1100015
   15.8646711   53.1093538
   15.8640187   53.1086397
   15.8634384   53.1078660
   15.8629356   53.1070398
   15.8625149   53.1061689
   15.8621803   53.1052614
   15.8619350   53.1043259
   15.8617812   53.1033710
   15.8617203   53.1024058
   15.8617530   53.1014391
   15.8618789   53.1004802
   15.8640554   53.0884467
   15.8640862   53.0882089
   15.8638568   53.0881390
   15.8336938   53.0805773
   15.8327371   53.0802859
   15.8318143   53.0799003
   15.8309345   53.0794246
   15.8301067   53.0788633
   15.8293392   53.0782221
   15.8286394   53.0775075
   15.8280146   53.0767266
   15.8274709   53.0758871
   15.8270138   53.0749976
   15.8266478   53.0740668
   15.8263766   53.0731041
   15.8262030   53.0721192
   15.8261285   53.0711218
   15.8261541   53.0701220
   15.8262795   53.0691298
   15.8275571   53.0619319
   15.8275869   53.0616974
   15.8273711   53.0616009
   15.8183011   53.0580711
   15.8174144   53.0576754
   15.8165703   53.0571957
   15.8157766   53.0566363
   15.8150410   53.0560025
   15.8143703   53.0553005
   15.8137708   53.0545366
   15.8132483   53.0537183
   15.8128076   53.0528531
   15.8124528   53.0519493
   15.8121874   53.0510153
   15.8120138   53.0500600
   15.8119337   53.0490923
   15.8119478   53.0481215
   15.8120560   53.0471566
   15.8122572   53.0462067
   15.8125497   53.0452808
   15.8129305   53.0443877
   15.8142658   53.0416349
   15.8143548   53.0414266
   15.8141420   53.0413487
   15.7933914   53.0348592
   15.7924339   53.0345051
   15.7915174   53.0340552
   15.7906516   53.0335143
   15.7898454   53.0328878
   15.7891073   53.0321825
   15.7832510   53.0259838
   15.7826555   53.0252928
   15.7821254   53.0245505
   15.7816651   53.0237630
   15.7812785   53.0229368
   15.7809689   53.0220788
   15.7807386   53.0211962
   15.7805898   53.0202962
   15.7780289   52.9987432
   15.7779890   52.9985069
   15.7777939   52.9983676
   15.7625912   52.9886028
   15.7623960   52.9884896
   15.7621776   52.9884332
   15.7217504   52.9799285
   15.7215203   52.9798913
   15.7212927   52.9799413
   15.6878090   52.9889701
   15.6867695   52.9891919
   15.6857124   52.9893021
   15.6846495   52.9892995
   15.6835930   52.9891841
   15.6825546   52.9889572
   15.6815462   52.9886214
   15.6331027   52.9695736
   15.6328889   52.9695007
   15.6326649   52.9695295
   15.5696771   52.9805884
   15.5694459   52.9806405
   15.5692807   52.9808105
   15.5517061   53.0007218
   15.5510274   53.0014193
   15.5502840   53.0020474
   15.5494831   53.0026004
   15.5486323   53.0030728
   15.5477396   53.0034604
   15.5468134   53.0037593
   15.5458625   53.0039667
   15.5448960   53.0040808
   15.5439230   53.0041003
   15.5429527   53.0040252
   15.5419943   53.0038561
   15.4241131   52.9770863
   15.4232180   52.9768388
   15.4223497   52.9765093
   15.4215157   52.9761007
   15.4207232   52.9756165
   15.3640449   52.9372619
   15.3638475   52.9371414
   15.3636176   52.9371671
   15.3214073   52.9438964
   15.3204128   52.9440043
   15.3194124   52.9440123
   15.3184163   52.9439203
   15.3174344   52.9437292
   15.3164764   52.9434410
   15.3155521   52.9430585
   15.3146706   52.9425856
   15.3138407   52.9420269
   15.3130708   52.9413882
   15.3123686   52.9406757
   15.3117411   52.9398967
   15.3111945   52.9390588
   15.3107345   52.9381705
   15.3103654   52.9372407
   15.3100911   52.9362787
   15.3099143   52.9352941
   15.3098367   52.9342967
   15.3098592   52.9332966
   15.3099815   52.9323038
   15.3102024   52.9313281
   15.3105196   52.9303794
   15.3109301   52.9294671
   15.3114296   52.9286004
   15.3120132   52.9277879
   15.3126751   52.9270379
   15.3394291   52.8996152
   15.3395814   52.8994429
   15.3393834   52.8993261
   15.2897848   52.8732430
   15.2895688   52.8731424
   15.2893376   52.8731999
   15.2804986   52.8758599
   15.2796236   52.8760807
   15.2787323   52.8762217
   15.2778319   52.8762818
   15.2769297   52.8762605
   15.2760331   52.8761579
   15.2751494   52.8759749
   15.0707542   52.8239322
   15.0705128   52.8238835
   15.0703106   52.8240241
   15.0385557   52.8485527
   15.0377463   52.8491165
   15.0368853   52.8495977
   15.0359811   52.8499918
   15.0350424   52.8502949
   15.0340785   52.8505041
   15.0330986   52.8506172
   15.0321124   52.8506333
   15.0311293   52.8505521
   15.0301591   52.8503745
   15.0292111   52.8501022
   14.9887371   52.8362810
   14.9885048   52.8362144
   14.9883591   52.8364072
   14.9737381   52.8579107
   14.9731116   52.8587366
   14.9724029   52.8594932
   14.9716198   52.8601724
   14.9707705   52.8607668
   14.9698643   52.8612701
   14.9689108   52.8616769
   14.9224082   52.8787256
   14.9214822   52.8790150
   14.9205325   52.8792133
   14.9195680   52.8793186
   14.9185979   52.8793299
   14.9176312   52.8792472
   14.9166771   52.8790712
   14.9157445   52.8788036
   14.9148423   52.8784469
   14.9139789   52.8780044
   14.9131624   52.8774803
   14.9124006   52.8768795
   14.9117005   52.8762078
   14.9110689   52.8754714
   14.9095416   52.8735053
   14.9089816   52.8727068
   14.9085020   52.8718577
   14.9081074   52.8709658
   14.9078016   52.8700398
   14.9075874   52.8690884
   14.9074669   52.8681206
   14.9074413   52.8671457
   14.9075108   52.8661730
   14.9076746   52.8652116
   14.9079314   52.8642708
   14.9082785   52.8633594
   14.9087128   52.8624862
   14.9092301   52.8616595
   14.9098254   52.8608870
   14.9104932   52.8601763
   14.9112270   52.8595339
   14.9120199   52.8589661
   14.9128643   52.8584783
   14.9237688   52.8528687
   14.9239693   52.8527531
   14.9239920   52.8525227
   14.9246275   52.8399766
   14.9246278   52.8397373
   14.9244162   52.8396256
   14.8958549   52.8263102
   14.8956411   52.8262226
   14.8954452   52.8263453
   14.8899993   52.8301273
   14.8891541   52.8306539
   14.8882607   52.8310939
   14.8873279   52.8314427
   14.8863651   52.8316971
   14.8853818   52.8318545
   14.8843876   52.8319133
   14.8833926   52.8318729
   14.8824065   52.8317337
   14.8814391   52.8314972
   14.8805001   52.8311656
   14.8795987   52.8307422
   14.8787439   52.8302313
   14.8785923   52.8301301
   14.8766016   52.8289427
   14.8757933   52.8284058
   14.8750408   52.8277930
   14.8743513   52.8271102
   14.8737312   52.8263637
   14.8731864   52.8255607
   14.8727220   52.8247087
   14.8723424   52.8238156
   14.8720511   52.8228900
   14.8718509   52.8219405
   14.8717436   52.8209760
   14.8717304   52.8200057
   14.8718112   52.8190387
   14.8719854   52.8180841
   14.8722514   52.8171508
   14.8726065   52.8162477
   14.8730474   52.8153833
   14.8735701   52.8145657
   14.8741696   52.8138026
   14.8744270   52.8135058
   14.8744057   52.8132618
   14.8709348   52.7881320
   14.8708881   52.7878864
   14.8707090   52.7877120
   14.8523824   52.7715905
   14.8521949   52.7714411
   14.8519594   52.7713965
   14.8223507   52.7672703
   14.8214480   52.7671019
   14.8205645   52.7668515
   14.8197078   52.7665210
   14.8188849   52.7661133
   14.8181029   52.7656319
   14.8173684   52.7650808
   14.8064351   52.7560639
   14.8057157   52.7554092
   14.8050632   52.7546877
   14.8044839   52.7539062
   14.8039833   52.7530722
   14.8035661   52.7521934
   14.8032363   52.7512782
   14.8029969   52.7503354
   14.8028503   52.7493737
   14.8027978   52.7484024
   14.8028400   52.7474305
   14.8029763   52.7464674
   14.8032056   52.7455220
   14.8035257   52.7446034
   14.8063691   52.7375651
   14.8064479   52.7373389
   14.8064121   52.7371020
   14.7978287   52.6944420
   14.7977691   52.6942066
   14.7975882   52.6940445
   14.7604810   52.6639699
   14.7597083   52.6632739
   14.7590119   52.6625015
   14.7583996   52.6616610
   14.7578779   52.6607614
   14.7574524   52.6598124
   14.7571278   52.6588245
   14.7569075   52.6578081
   14.7539587   52.6396980
   14.7539098   52.6394677
   14.7537024   52.6393562
   14.7221067   52.6242834
   14.7218881   52.6241917
   14.7216520   52.6242113
   14.6673053   52.6313651
   14.6670449   52.6314136
   14.6668131   52.6315419
   14.6394734   52.6486431
   14.6386084   52.6491262
   14.6376998   52.6495214
   14.6367565   52.6498248
   14.6357879   52.6500333
   14.6348034   52.6501449
   14.6338127   52.6501586
   14.6328255   52.6500742
   14.6318515   52.6498924
   14.6309002   52.6496152
   14.6299811   52.6492452
   14.5612494   52.6175351
   14.5609968   52.6174349
   14.5607253   52.6174220
   14.5205494   52.6177083
   14.5203128   52.6177213
   14.5200983   52.6178218
   14.4246366   52.6682303
   14.4244173   52.6683609
   14.4242125   52.6685133
   14.3409840   52.7373194
   14.3401763   52.7379213
   14.3393121   52.7384390
   14.3384002   52.7388670
   14.1080969   52.8331271
   14.1078871   52.8332253
   14.1080050   52.8334247
   14.1406248   52.8829085
   14.1411275   52.8837599
   14.1415436   52.8846567
   14.1418692   52.8855902
   14.1421010   52.8865513
   14.1422367   52.8875305
   14.1422751   52.8885184
   14.1422158   52.8895053
   14.1331362   52.9720820
   14.1331219   52.9723133
   14.1333271   52.9724210
   14.3327763   53.0651873
   14.3336518   53.0656486
   14.3344774   53.0661940
   14.3352451   53.0668184
   14.3359473   53.0675157
   14.3365772   53.0682789
   14.3371285   53.0691006
   14.3375959   53.0699728
   14.3648285   53.1274490
   14.3652226   53.1284056
   14.3655156   53.1293978
   14.3657046   53.1304150
   14.3657875   53.1314463
   14.3657634   53.1324806
   14.3656326   53.1335068
   14.3653964   53.1345141
   14.3650575   53.1354916
   14.3517293   53.1683299
   14.3516517   53.1685506
   14.3517055   53.1687783
   14.3626726   53.2069953
   14.3627503   53.2072233
   14.3629259   53.2073883
   14.4168039   53.2532699
   14.4175153   53.2539383
   14.4181581   53.2546729
   14.4187263   53.2554666
   14.4192143   53.2563120
   14.4196177   53.2572009
   14.4199324   53.2581248
   14.4201555   53.2590751
   14.4202850   53.2600426
   14.4203195   53.2610181
   14.4202587   53.2619924
   14.4201032   53.2629560
   14.4198546   53.2638999
   14.4195150   53.2648151
   14.4190879   53.2656928
   14.4185772   53.2665247
   14.3916102   53.3059948
   14.3914812   53.3062054
   14.3913963   53.3064373
   14.3374722   53.4799807
   14.3371530   53.4808605
   14.3367529   53.4817065
   14.3362755   53.4825115
   14.3357249   53.4832683
   14.2907846   53.5393272
   14.2906425   53.5395236
   14.2906583   53.5397655
   14.2977554   53.6013234
   14.2978187   53.6022467
   14.2977964   53.6031718
   14.2976887   53.6040910
   14.2974965   53.6049962
   14.2972214   53.6058798
   14.2968658   53.6067342
   14.2964328   53.6075521
   14.2959260   53.6083264
   14.2552505   53.6646056
   14.2551215   53.6648034
   14.2551209   53.6650396
   14.2599697   53.7713941
   14.2599670   53.7723606
   14.2598710   53.7733224
   14.2596826   53.7742704
   14.2594036   53.7751957
   14.2590366   53.7760898
   14.2585849   53.7769443
   14.2580529   53.7777513
   14.2005348   53.8564282
   14.2003931   53.8566451
   14.2003520   53.8569008
   14.1971595   53.8866922
   14.1970131   53.8876328
   14.1967780   53.8885552
   14.1964562   53.8894511
   14.1960507   53.8903124
   14.1955652   53.8911311
   14.1950040   53.8919000
   14.1943722   53.8926121
   14.1936756   53.8932608
   14.1929204   53.8938404
   14.1921136   53.8943455
   14.1710435   53.9061801
   14.1708500   53.9063016
   14.1710218   53.9064523
   14.2088320   53.9364803
   14.2096092   53.9371661
   14.2103113   53.9379287
   14.2109306   53.9387599
   14.2114605   53.9396508
   14.2118954   53.9405917
   14.2122306   53.9415725
   14.2235981   53.9814939
   14.2238144   53.9824180
   14.2239422   53.9833585
   14.2239801   53.9843069
   14.2239280   53.9852546
   14.2237863   53.9861931
   14.2235563   53.9871139
   13.9902910   54.7623242
   13.9902350   54.7625499
   13.9904653   54.7625822
END
END
