europe-great-britain-england-south
1
   -5.7515315   51.1127946
   -4.7013460   51.2899492
   -4.7004489   51.2900591
   -4.6995455   51.2900876
   -3.2852935   51.2706931
   -3.2850675   51.2707003
   -3.2848585   51.2707880
   -3.1048029   51.3562836
   -3.1046059   51.3563882
   -3.1044301   51.3565269
   -2.9935398   51.4523894
   -2.9927850   51.4529811
   -2.9919769   51.4534978
   -2.9911231   51.4539347
   -2.9902313   51.4542878
   -2.7868044   51.5237491
   -2.7857884   51.5240371
   -2.7161124   51.5398661
   -2.7158842   51.5399297
   -2.7158085   51.5401542
   -2.7080257   51.5675773
   -2.7076953   51.5685484
   -2.7072672   51.5694807
   -2.7067459   51.5703642
   -2.7036016   51.5751175
   -2.7029740   51.5759653
   -2.7022606   51.5767424
   -2.7014693   51.5774400
   -2.7006089   51.5780503
   -2.6996891   51.5785666
   -2.6987199   51.5789832
   -2.6646648   51.5915364
   -2.6644476   51.5916286
   -2.6643780   51.5918541
   -2.6609529   51.6052078
   -2.6606297   51.6062348
   -2.6540121   51.6238805
   -2.6539396   51.6241068
   -2.6541047   51.6242777
   -2.6606497   51.6304180
   -2.6613382   51.6311313
   -2.6619528   51.6319094
   -2.6624872   51.6327445
   -2.6629364   51.6336284
   -2.6632958   51.6345524
   -2.6635619   51.6355075
   -2.6637322   51.6364842
   -2.6638049   51.6374730
   -2.6637793   51.6384641
   -2.6636557   51.6394478
   -2.6634353   51.6404145
   -2.6631202   51.6413546
   -2.6630780   51.6414625
   -2.6630019   51.6416891
   -2.6631075   51.6419037
   -2.6660247   51.6471628
   -2.6664589   51.6480454
   -2.6668044   51.6489664
   -2.6670576   51.6499169
   -2.6672163   51.6508877
   -2.6672788   51.6518693
   -2.6672446   51.6528524
   -2.6671140   51.6538273
   -2.6668882   51.6547847
   -2.6665695   51.6557153
   -2.6661608   51.6566100
   -2.6656663   51.6574603
   -2.6650906   51.6582579
   -2.6644393   51.6589950
   -2.6641763   51.6592647
   -2.6641742   51.6594985
   -2.6642516   51.6615109
   -2.6642384   51.6625364
   -2.6641202   51.6635552
   -2.6638983   51.6645565
   -2.6635750   51.6655298
   -2.6631538   51.6664648
   -2.6626390   51.6673518
   -2.6620360   51.6681814
   -2.6613512   51.6689449
   -2.6605919   51.6696343
   -2.6597659   51.6702422
   -2.6582624   51.6712342
   -2.6577814   51.6715948
   -2.6540754   51.6747393
   -2.6539027   51.6749012
   -2.6540502   51.6750864
   -2.6575789   51.6790928
   -2.6577411   51.6792603
   -2.6579618   51.6793357
   -2.6589235   51.6796144
   -2.6598801   51.6799450
   -2.6607985   51.6803706
   -2.6616691   51.6808869
   -2.6624830   51.6814885
   -2.6632320   51.6821693
   -2.6639083   51.6829223
   -2.6645051   51.6837399
   -2.6650161   51.6846135
   -2.6654362   51.6855344
   -2.6657611   51.6864930
   -2.6659874   51.6874796
   -2.6660338   51.6878514
   -2.6660893   51.6881672
   -2.6661570   51.6884079
   -2.6681841   51.6944330
   -2.6684393   51.6953267
   -2.6686103   51.6962403
   -2.6686958   51.6971658
   -2.6686950   51.6980953
   -2.6686079   51.6990206
   -2.6684352   51.6999339
   -2.6681786   51.7008272
   -2.6678400   51.7016928
   -2.6656886   51.7065198
   -2.6656010   51.7067464
   -2.6657820   51.7069084
   -2.6735356   51.7131747
   -2.6742850   51.7138453
   -2.6749632   51.7145877
   -2.6755634   51.7153945
   -2.6760795   51.7162576
   -2.6765064   51.7171680
   -2.6768396   51.7181168
   -2.6770759   51.7190942
   -2.6772128   51.7200904
   -2.6775298   51.7237542
   -2.6775659   51.7247603
   -2.6775007   51.7257649
   -2.6773349   51.7267579
   -2.6770700   51.7277292
   -2.6767089   51.7286689
   -2.6762550   51.7295675
   -2.6757131   51.7304160
   -2.6750887   51.7312057
   -2.6743880   51.7319286
   -2.6736182   51.7325773
   -2.6727870   51.7331454
   -2.6719030   51.7336270
   -2.6709750   51.7340174
   -2.6701926   51.7343010
   -2.6699564   51.7344008
   -2.6698237   51.7346203
   -2.6598268   51.7532913
   -2.6597285   51.7534977
   -2.6598904   51.7536591
   -2.6702825   51.7630867
   -2.6709659   51.7637697
   -2.6715802   51.7645154
   -2.6721196   51.7653169
   -2.6725792   51.7661668
   -2.6729546   51.7670570
   -2.6732424   51.7679793
   -2.6734398   51.7689250
   -2.6735450   51.7698854
   -2.6735571   51.7708515
   -2.6734759   51.7718142
   -2.6733021   51.7727646
   -2.6730375   51.7736938
   -2.6726844   51.7745931
   -2.6725493   51.7748937
   -2.6724765   51.7751040
   -2.6668694   51.7939962
   -2.6668124   51.7942293
   -2.6668990   51.7944700
   -2.6671860   51.7954101
   -2.6673794   51.7963737
   -2.6674772   51.7973517
   -2.6674785   51.7983345
   -2.6673833   51.7993128
   -2.6671926   51.8002770
   -2.6669081   51.8012177
   -2.6665327   51.8021261
   -2.6660699   51.8029931
   -2.6655242   51.8038106
   -2.6649009   51.8045705
   -2.6642060   51.8052656
   -2.6634462   51.8058891
   -2.6626289   51.8064350
   -2.6617620   51.8068981
   -2.6608538   51.8072738
   -2.6577400   51.8083861
   -2.6575160   51.8084789
   -2.6574727   51.8087174
   -2.6568745   51.8132927
   -2.6567058   51.8142321
   -2.6564483   51.8151510
   -2.6561044   51.8160412
   -2.6556772   51.8168946
   -2.6551705   51.8177034
   -2.6545891   51.8184602
   -2.6539382   51.8191581
   -2.6532237   51.8197908
   -2.6524522   51.8203525
   -2.6516307   51.8208381
   -2.6507665   51.8212432
   -2.6498677   51.8215640
   -2.6489425   51.8217978
   -2.6482870   51.8219304
   -2.6480543   51.8219898
   -2.6480491   51.8222298
   -2.6481848   51.8270380
   -2.6481617   51.8280549
   -2.6480355   51.8290641
   -2.6478074   51.8300553
   -2.6474798   51.8310183
   -2.6470561   51.8319429
   -2.6465407   51.8328197
   -2.6459389   51.8336397
   -2.6452568   51.8343942
   -2.6418852   51.8377631
   -2.6411372   51.8384386
   -2.6403251   51.8390354
   -2.6394570   51.8395474
   -2.6385418   51.8399695
   -2.6375887   51.8402973
   -2.6366075   51.8405274
   -2.6356081   51.8406577
   -2.6346007   51.8406867
   -2.6335954   51.8406141
   -2.6326026   51.8404407
   -2.6316323   51.8401683
   -2.6306943   51.8397996
   -2.6302983   51.8395957
   -2.6300273   51.8394710
   -2.6297942   51.8394583
   -2.6246242   51.8394219
   -2.6243654   51.8394337
   -2.6241475   51.8395739
   -2.6054302   51.8530612
   -2.6046267   51.8535835
   -2.6037769   51.8540266
   -2.6028886   51.8543863
   -2.6019700   51.8546592
   -2.6010294   51.8548430
   -2.6000756   51.8549360
   -2.5991172   51.8549371
   -2.5981631   51.8548466
   -2.5972221   51.8546651
   -2.5963028   51.8543944
   -2.5825399   51.8496137
   -2.5823008   51.8495441
   -2.5820862   51.8496705
   -2.5791093   51.8516364
   -2.5789189   51.8517758
   -2.5789207   51.8518325
   -2.5789038   51.8527982
   -2.5787939   51.8537577
   -2.5785919   51.8547022
   -2.5782997   51.8556227
   -2.5779201   51.8565108
   -2.5774566   51.8573581
   -2.5769135   51.8581568
   -2.5762959   51.8588993
   -2.5756095   51.8595788
   -2.5748608   51.8601889
   -2.5740568   51.8607239
   -2.5732049   51.8611789
   -2.5723130   51.8615496
   -2.5713896   51.8618325
   -2.5704432   51.8620250
   -2.5690123   51.8622447
   -2.5679334   51.8623510
   -2.5668494   51.8623398
   -2.5396904   51.8605840
   -2.5387546   51.8604791
   -2.5378329   51.8602866
   -2.5369333   51.8600082
   -2.5360638   51.8596465
   -2.5352323   51.8592046
   -2.5344460   51.8586865
   -2.5340569   51.8584029
   -2.5338179   51.8584422
   -2.5170496   51.8620549
   -2.5168018   51.8621220
   -2.5166407   51.8623217
   -2.5129271   51.8674497
   -2.5127958   51.8676511
   -2.5128866   51.8678590
   -2.5131063   51.8683000
   -2.5134525   51.8692055
   -2.5137093   51.8701402
   -2.5138745   51.8710954
   -2.5139464   51.8720621
   -2.5139243   51.8730313
   -2.5138086   51.8739937
   -2.5136001   51.8749404
   -2.5133010   51.8758625
   -2.5129141   51.8767513
   -2.5124428   51.8775985
   -2.5118918   51.8783960
   -2.5112661   51.8791364
   -2.5105717   51.8798128
   -2.5098151   51.8804188
   -2.5090033   51.8809487
   -2.5081441   51.8813974
   -2.5072454   51.8817609
   -2.5063158   51.8820356
   -2.5053639   51.8822191
   -2.5043988   51.8823095
   -2.5034294   51.8823060
   -2.5024649   51.8822087
   -2.5016997   51.8820556
   -2.5016100   51.8820423
   -2.5012822   51.8820913
   -2.5003062   51.8821885
   -2.4993254   51.8821896
   -2.4983491   51.8820946
   -2.4973869   51.8819044
   -2.4964479   51.8816209
   -2.4955412   51.8812468
   -2.4946755   51.8807856
   -2.4941117   51.8804100
   -2.4939810   51.8803314
   -2.4937464   51.8803386
   -2.4887214   51.8807314
   -2.4884899   51.8807607
   -2.4882679   51.8810334
   -2.4880719   51.8812975
   -2.4873956   51.8820401
   -2.4866482   51.8827110
   -2.4858373   51.8833036
   -2.4849710   51.8838119
   -2.4840581   51.8842307
   -2.4831078   51.8845558
   -2.4821297   51.8847839
   -2.4811336   51.8849128
   -2.4748047   51.8854102
   -2.4745586   51.8854421
   -2.4743744   51.8856085
   -2.4704973   51.8894837
   -2.4698196   51.8901016
   -2.4690882   51.8906548
   -2.4683091   51.8911387
   -2.4674890   51.8915492
   -2.4666348   51.8918828
   -2.4657536   51.8921367
   -2.4375401   51.8988831
   -2.4373193   51.8989474
   -2.4374246   51.8991519
   -2.4488676   51.9189404
   -2.4489906   51.9191322
   -2.4491861   51.9192492
   -2.4599164   51.9250175
   -2.4607493   51.9255189
   -2.4615296   51.9260988
   -2.4622500   51.9267518
   -2.4629035   51.9274717
   -2.4634840   51.9282516
   -2.4639860   51.9290841
   -2.4644048   51.9299615
   -2.4647364   51.9308755
   -2.4649777   51.9318173
   -2.4651264   51.9327781
   -2.4651812   51.9337488
   -2.4651413   51.9347202
   -2.4650074   51.9356831
   -2.4647806   51.9366285
   -2.4644630   51.9375474
   -2.4640577   51.9384311
   -2.4635685   51.9392713
   -2.4634509   51.9394524
   -2.4634738   51.9395583
   -2.4636422   51.9401750
   -2.4637994   51.9410521
   -2.4638780   51.9419397
   -2.4638772   51.9428308
   -2.4637971   51.9437183
   -2.4637686   51.9439288
   -2.4638470   51.9441500
   -2.4687290   51.9560876
   -2.4688328   51.9563091
   -2.4690711   51.9563646
   -2.4849297   51.9592255
   -2.4858647   51.9594409
   -2.4867747   51.9597450
   -2.4876514   51.9601348
   -2.4884866   51.9606069
   -2.4892728   51.9611569
   -2.4900027   51.9617797
   -2.4906695   51.9624695
   -2.4912672   51.9632201
   -2.4917901   51.9640245
   -2.4922336   51.9648753
   -2.4925935   51.9657647
   -2.4928665   51.9666845
   -2.4930501   51.9676262
   -2.4939801   51.9740156
   -2.4940736   51.9749904
   -2.4940712   51.9759697
   -2.4939731   51.9769441
   -2.4937801   51.9779042
   -2.4934942   51.9788408
   -2.4931180   51.9797449
   -2.4926551   51.9806080
   -2.4921101   51.9814216
   -2.4914881   51.9821780
   -2.4907952   51.9828699
   -2.4900378   51.9834908
   -2.4892234   51.9840345
   -2.4713267   51.9947556
   -2.4711431   51.9948780
   -2.4713444   51.9949686
   -2.4792437   51.9980736
   -2.4801486   51.9984822
   -2.4810086   51.9989787
   -2.4818151   51.9995579
   -2.4825602   52.0002143
   -2.4832365   52.0009413
   -2.4838373   52.0017319
   -2.4843569   52.0025781
   -2.4847899   52.0034717
   -2.4851321   52.0044038
   -2.4853803   52.0053652
   -2.4855318   52.0063466
   -2.4855853   52.0073381
   -2.4855402   52.0083300
   -2.4853970   52.0093126
   -2.4851570   52.0102761
   -2.4848226   52.0112111
   -2.4843972   52.0121083
   -2.4838849   52.0129589
   -2.4832907   52.0137545
   -2.4808124   52.0167503
   -2.4801520   52.0174735
   -2.4794239   52.0181286
   -2.4786353   52.0187093
   -2.4777937   52.0192101
   -2.4769071   52.0196261
   -2.4759841   52.0199535
   -2.4750334   52.0201890
   -2.4740643   52.0203303
   -2.4730860   52.0203762
   -2.4721080   52.0203262
   -2.4711395   52.0201807
   -2.4701898   52.0199413
   -2.4692682   52.0196100
   -2.4683834   52.0191902
   -2.4675439   52.0186859
   -2.4667577   52.0181018
   -2.4660324   52.0174437
   -2.4653750   52.0167177
   -2.4647918   52.0159310
   -2.4643977   52.0152734
   -2.4643430   52.0151919
   -2.4641011   52.0151715
   -2.4455000   52.0145372
   -2.4445107   52.0144542
   -2.4435345   52.0142735
   -2.4425810   52.0139968
   -2.4416597   52.0136270
   -2.4407795   52.0131676
   -2.4399493   52.0126233
   -2.4391771   52.0119993
   -2.4384706   52.0113017
   -2.4378368   52.0105376
   -2.4372818   52.0097144
   -2.4368112   52.0088402
   -2.4364296   52.0079237
   -2.4361408   52.0069738
   -2.4359475   52.0060000
   -2.4358518   52.0050118
   -2.4358546   52.0040191
   -2.4359557   52.0030314
   -2.4361543   52.0020587
   -2.4363419   52.0014540
   -2.4363837   52.0012881
   -2.4363879   52.0011862
   -2.4363760   52.0005406
   -2.4364385   51.9996554
   -2.4365792   51.9987792
   -2.4367970   51.9979190
   -2.4369318   51.9974711
   -2.4366998   51.9974535
   -2.3993137   51.9964763
   -2.3990818   51.9964815
   -2.3990716   51.9965909
   -2.3989334   51.9975627
   -2.3987005   51.9985163
   -2.3983753   51.9994425
   -2.3979609   52.0003323
   -2.3974612   52.0011771
   -2.3968810   52.0019690
   -2.3962261   52.0027001
   -2.3949675   52.0039734
   -2.3947952   52.0041670
   -2.3947168   52.0044139
   -2.3940630   52.0069227
   -2.3937537   52.0079008
   -2.3933458   52.0088421
   -2.3928436   52.0097366
   -2.3922524   52.0105750
   -2.3915784   52.0113485
   -2.3908288   52.0120487
   -2.3900113   52.0126686
   -2.3891346   52.0132013
   -2.3882080   52.0136415
   -2.3872411   52.0139844
   -2.3862442   52.0142265
   -2.3644258   52.0183523
   -2.3634515   52.0184873
   -2.3624687   52.0185259
   -2.3614869   52.0184678
   -2.3605155   52.0183135
   -2.3595640   52.0180646
   -2.3586415   52.0177234
   -2.3577570   52.0172932
   -2.3569191   52.0167782
   -2.3561358   52.0161834
   -2.3554147   52.0155145
   -2.3547628   52.0147780
   -2.3541864   52.0139810
   -2.3536911   52.0131313
   -2.3536380   52.0130290
   -2.3534283   52.0128908
   -2.3410246   52.0055968
   -2.3408239   52.0054908
   -2.3405971   52.0055061
   -2.3364411   52.0059794
   -2.3354285   52.0060429
   -2.3344146   52.0060035
   -2.3334099   52.0058615
   -2.3324248   52.0056185
   -2.3314694   52.0052769
   -2.3305536   52.0048402
   -2.3296866   52.0043130
   -2.3288776   52.0037006
   -2.3281348   52.0030094
   -2.3274659   52.0022465
   -2.3268777   52.0014197
   -2.3263763   52.0005376
   -2.3259669   51.9996092
   -2.3237788   51.9938759
   -2.3234705   51.9929291
   -2.3232579   51.9919564
   -2.3231431   51.9909673
   -2.3231272   51.9899718
   -2.3232104   51.9889796
   -2.3238203   51.9844371
   -2.3240138   51.9834079
   -2.3243139   51.9824045
   -2.3247172   51.9814381
   -2.3252195   51.9805191
   -2.3258150   51.9796577
   -2.3279226   51.9769271
   -2.3280546   51.9767383
   -2.3279787   51.9765207
   -2.3273519   51.9749633
   -2.3272498   51.9747424
   -2.3270065   51.9747347
   -2.3190957   51.9748837
   -2.3180686   51.9748502
   -2.3170504   51.9747115
   -2.3160518   51.9744691
   -2.3150833   51.9741254
   -2.3141553   51.9736842
   -2.3132774   51.9731500
   -2.3124590   51.9725286
   -2.3117086   51.9718265
   -2.3110343   51.9710511
   -2.3104431   51.9702105
   -2.3101380   51.9697255
   -2.3100081   51.9695387
   -2.3097990   51.9694481
   -2.2998690   51.9656823
   -2.2996521   51.9656114
   -2.2994365   51.9656860
   -2.2936625   51.9679916
   -2.2927371   51.9683095
   -2.2917851   51.9685355
   -2.2908156   51.9686674
   -2.2837434   51.9692788
   -2.2826901   51.9693142
   -2.2816389   51.9692384
   -2.2512555   51.9654320
   -2.2510040   51.9654136
   -2.2508029   51.9655657
   -2.2429795   51.9721422
   -2.2427791   51.9723305
   -2.2426006   51.9725398
   -2.2344988   51.9831801
   -2.2338276   51.9839724
   -2.2330780   51.9846910
   -2.2322578   51.9853279
   -2.2229819   51.9917883
   -2.2220731   51.9923516
   -2.2211093   51.9928146
   -2.2201017   51.9931721
   -2.2190616   51.9934200
   -2.2119885   51.9947105
   -2.2110399   51.9948370
   -2.2100836   51.9948723
   -2.2091282   51.9948159
   -2.1998205   51.9938186
   -2.1988177   51.9936593
   -2.1978363   51.9933992
   -2.1851565   51.9893389
   -2.1849123   51.9892745
   -2.1846996   51.9894108
   -2.1809215   51.9921183
   -2.1801130   51.9926407
   -2.1792580   51.9930830
   -2.1783645   51.9934409
   -2.1774407   51.9937114
   -2.1764951   51.9938917
   -2.1755366   51.9939803
   -2.1745740   51.9939764
   -2.1736163   51.9938799
   -2.1703907   51.9933971
   -2.1701437   51.9933727
   -2.1699004   51.9934225
   -2.1643634   51.9948488
   -2.1641350   51.9949198
   -2.1640447   51.9951413
   -2.1626886   51.9989978
   -2.1623201   51.9999019
   -2.1618653   52.0007657
   -2.1613284   52.0015811
   -2.1607146   52.0023403
   -2.1600296   52.0030359
   -2.1592801   52.0036615
   -2.1584732   52.0042110
   -2.1576165   52.0046792
   -2.1567183   52.0050616
   -2.1557870   52.0053546
   -2.1548316   52.0055554
   -2.1538612   52.0056621
   -2.1528850   52.0056737
   -2.1519123   52.0055900
   -2.1509524   52.0054119
   -2.1500145   52.0051410
   -2.1491074   52.0047800
   -2.1471697   52.0038968
   -2.1462560   52.0034220
   -2.1453959   52.0028559
   -2.1445987   52.0022043
   -2.1438726   52.0014742
   -2.1411043   51.9983876
   -2.1409308   51.9982128
   -2.1406846   51.9982170
   -2.1347896   51.9986144
   -2.1345634   51.9986402
   -2.1344142   51.9988122
   -2.1308727   52.0033005
   -2.1301671   52.0041026
   -2.1293800   52.0048249
   -2.1285203   52.0054591
   -2.1192968   52.0115301
   -2.1185009   52.0120026
   -2.1176648   52.0123996
   -2.1167955   52.0127175
   -2.1159005   52.0129537
   -2.1151961   52.0131052
   -2.1143034   52.0132552
   -2.1134009   52.0133238
   -2.1124958   52.0133106
   -2.1115957   52.0132156
   -2.0852092   52.0092161
   -2.0849709   52.0091917
   -2.0847324   52.0092133
   -2.0686030   52.0114631
   -2.0675715   52.0115529
   -2.0665363   52.0115355
   -2.0655084   52.0114111
   -2.0644989   52.0111812
   -2.0635185   52.0108481
   -2.0625779   52.0104154
   -2.0616870   52.0098878
   -2.0608555   52.0092709
   -2.0600922   52.0085713
   -2.0600439   52.0085221
   -2.0597965   52.0084531
   -2.0566134   52.0077410
   -2.0556518   52.0074749
   -2.0547216   52.0071143
   -2.0538318   52.0066628
   -2.0529915   52.0061249
   -2.0522090   52.0055059
   -2.0514921   52.0048121
   -2.0508478   52.0040502
   -2.0502827   52.0032279
   -2.0500299   52.0028176
   -2.0498958   52.0026219
   -2.0496585   52.0026232
   -2.0389294   52.0032063
   -2.0386833   52.0032322
   -2.0384953   52.0033933
   -2.0355579   52.0061804
   -2.0348412   52.0067987
   -2.0340693   52.0073465
   -2.0332490   52.0078188
   -2.0323878   52.0082114
   -2.0314933   52.0085208
   -2.0305735   52.0087443
   -2.0265547   52.0095215
   -2.0263126   52.0095813
   -2.0261905   52.0097987
   -2.0257225   52.0107416
   -2.0252827   52.0115353
   -2.0247727   52.0122858
   -2.0241967   52.0129871
   -2.0235596   52.0136332
   -2.0228665   52.0142189
   -2.0177040   52.0181946
   -2.0167814   52.0188262
   -2.0157941   52.0193509
   -2.0026450   52.0254213
   -2.0017469   52.0257842
   -2.0008180   52.0260586
   -1.9998668   52.0262418
   -1.9989024   52.0263321
   -1.9979338   52.0263286
   -1.9969700   52.0262315
   -1.9960202   52.0260416
   -1.9945041   52.0256612
   -1.9942628   52.0256135
   -1.9940612   52.0257543
   -1.9851267   52.0326871
   -1.9842837   52.0332745
   -1.9833848   52.0337722
   -1.9824395   52.0341751
   -1.9814579   52.0344789
   -1.9804503   52.0346804
   -1.9794274   52.0347773
   -1.9580838   52.0356984
   -1.9570599   52.0356902
   -1.9560422   52.0355772
   -1.9550414   52.0353608
   -1.9540680   52.0350432
   -1.9531322   52.0346277
   -1.9522437   52.0341187
   -1.9514120   52.0335215
   -1.9479259   52.0307373
   -1.9477248   52.0305926
   -1.9474771   52.0305880
   -1.9409526   52.0307941
   -1.9399916   52.0307783
   -1.9390366   52.0306703
   -1.9380963   52.0304710
   -1.9317513   52.0288044
   -1.9315104   52.0287540
   -1.9313403   52.0289320
   -1.9295306   52.0310285
   -1.9288797   52.0317142
   -1.9281670   52.0323353
   -1.9273987   52.0328864
   -1.9265819   52.0333624
   -1.9257238   52.0337592
   -1.9248320   52.0340731
   -1.9239146   52.0343015
   -1.9213011   52.0348222
   -1.9210662   52.0348810
   -1.9208716   52.0350251
   -1.9172530   52.0379885
   -1.9164797   52.0385619
   -1.9156548   52.0390582
   -1.9147861   52.0394730
   -1.9138815   52.0398023
   -1.9129494   52.0400431
   -1.9119984   52.0401931
   -1.9110375   52.0402510
   -1.9100754   52.0402163
   -1.9091211   52.0400891
   -1.9081835   52.0398709
   -1.9072712   52.0395634
   -1.9063927   52.0391697
   -1.8751238   52.0233058
   -1.8743024   52.0228390
   -1.8735287   52.0222968
   -1.8728096   52.0216839
   -1.8620427   52.0115922
   -1.8618523   52.0114309
   -1.8616225   52.0113336
   -1.8483764   52.0064939
   -1.8481724   52.0064291
   -1.8479594   52.0064003
   -1.8390632   52.0055815
   -1.8388327   52.0055711
   -1.8386321   52.0056851
   -1.8345513   52.0082651
   -1.8343498   52.0084073
   -1.8343131   52.0086511
   -1.8333727   52.0181495
   -1.8332195   52.0191636
   -1.8329631   52.0201568
   -1.8326064   52.0211184
   -1.8321531   52.0220385
   -1.8316078   52.0229072
   -1.8309765   52.0237156
   -1.8302657   52.0244550
   -1.8294829   52.0251178
   -1.8253508   52.0282669
   -1.8251722   52.0284168
   -1.8250814   52.0286315
   -1.8240784   52.0313529
   -1.8240058   52.0315854
   -1.8243977   52.0318898
   -1.8243958   52.0318923
   -1.8249631   52.0323340
   -1.8257058   52.0330461
   -1.8263713   52.0338307
   -1.8269528   52.0346796
   -1.8274439   52.0355837
   -1.8278395   52.0365336
   -1.8281354   52.0375190
   -1.8285782   52.0393263
   -1.8286425   52.0395446
   -1.8287971   52.0397116
   -1.8335970   52.0444395
   -1.8337652   52.0445906
   -1.8339828   52.0446519
   -1.8462192   52.0475027
   -1.8471102   52.0477543
   -1.8479741   52.0480872
   -1.8488036   52.0484986
   -1.8555255   52.0522300
   -1.8563563   52.0527459
   -1.8571327   52.0533404
   -1.8578474   52.0540080
   -1.8584934   52.0547421
   -1.8590646   52.0555358
   -1.8595556   52.0563816
   -1.8599616   52.0572712
   -1.8601405   52.0577203
   -1.8604538   52.0586317
   -1.8606778   52.0595690
   -1.8608106   52.0605235
   -1.8608508   52.0614864
   -1.8607982   52.0624487
   -1.8606532   52.0634015
   -1.8604172   52.0643359
   -1.8600923   52.0652432
   -1.8596816   52.0661150
   -1.8591889   52.0669433
   -1.8586187   52.0677202
   -1.8579764   52.0684387
   -1.8572679   52.0690920
   -1.8564998   52.0696741
   -1.8556793   52.0701795
   -1.8548139   52.0706036
   -1.8539117   52.0709424
   -1.8529810   52.0711929
   -1.8529464   52.0712004
   -1.8527528   52.0713305
   -1.8497322   52.0735738
   -1.8488923   52.0741341
   -1.8480002   52.0746069
   -1.8470650   52.0749872
   -1.8460962   52.0752714
   -1.8451037   52.0754564
   -1.8440976   52.0755403
   -1.8430882   52.0755225
   -1.8420857   52.0754029
   -1.8411004   52.0751828
   -1.8401423   52.0748645
   -1.8318261   52.0716272
   -1.8316040   52.0715529
   -1.8314160   52.0716925
   -1.8251045   52.0768677
   -1.8243338   52.0774400
   -1.8235118   52.0779358
   -1.8226460   52.0783505
   -1.8217444   52.0786803
   -1.8208154   52.0789221
   -1.8198675   52.0790737
   -1.8189094   52.0791337
   -1.8179500   52.0791016
   -1.8169980   52.0789777
   -1.8160624   52.0787630
   -1.8123969   52.0777345
   -1.8121732   52.0776831
   -1.8120714   52.0778888
   -1.8078187   52.0876231
   -1.8073934   52.0884819
   -1.8068879   52.0892960
   -1.8063067   52.0900580
   -1.8025510   52.0945216
   -1.8019027   52.0952214
   -1.8011906   52.0958562
   -1.8004214   52.0964204
   -1.7996018   52.0969086
   -1.7985280   52.0974808
   -1.7976394   52.0978996
   -1.7967140   52.0982292
   -1.7957607   52.0984665
   -1.7947887   52.0986090
   -1.7938074   52.0986555
   -1.7910203   52.0986505
   -1.7907694   52.0986629
   -1.7906080   52.0988554
   -1.7875345   52.1029288
   -1.7868645   52.1037268
   -1.7861150   52.1044507
   -1.7852943   52.1050927
   -1.7844112   52.1056457
   -1.7834754   52.1061039
   -1.7824969   52.1064623
   -1.7736087   52.1092014
   -1.7726643   52.1094427
   -1.7717008   52.1095909
   -1.7707275   52.1096447
   -1.7697536   52.1096034
   -1.7687883   52.1094674
   -1.7678409   52.1092382
   -1.7669202   52.1089177
   -1.7660352   52.1085092
   -1.7623333   52.1065763
   -1.7614957   52.1060858
   -1.7607095   52.1055163
   -1.7599823   52.1048734
   -1.7593208   52.1041629
   -1.7587314   52.1033917
   -1.7544924   52.0972490
   -1.7543545   52.0970675
   -1.7541724   52.0969305
   -1.7477793   52.0925621
   -1.7475816   52.0924401
   -1.7473577   52.0923778
   -1.7389361   52.0904517
   -1.7383322   52.0903428
   -1.7380437   52.0903034
   -1.7370717   52.0900699
   -1.7361278   52.0897405
   -1.7352215   52.0893185
   -1.7343619   52.0888081
   -1.7335575   52.0882144
   -1.7328164   52.0875434
   -1.7321460   52.0868018
   -1.7315531   52.0859969
   -1.7310434   52.0851368
   -1.7306222   52.0842302
   -1.7302936   52.0832860
   -1.7300609   52.0823138
   -1.7299265   52.0813231
   -1.7298917   52.0803240
   -1.7299567   52.0793264
   -1.7301211   52.0783403
   -1.7303831   52.0773755
   -1.7315843   52.0736913
   -1.7316489   52.0734527
   -1.7314996   52.0732559
   -1.7295940   52.0709917
   -1.7294346   52.0708197
   -1.7292144   52.0707396
   -1.7125504   52.0655652
   -1.7116538   52.0652392
   -1.7107924   52.0648292
   -1.7099739   52.0643389
   -1.7092059   52.0637729
   -1.7084954   52.0631363
   -1.7078487   52.0624349
   -1.7072718   52.0616750
   -1.7067700   52.0608636
   -1.7063477   52.0600081
   -1.7061921   52.0595985
   -1.7060942   52.0593769
   -1.7059301   52.0591890
   -1.7011481   52.0542409
   -1.7009760   52.0540790
   -1.7009053   52.0540341
   -1.7002179   52.0536424
   -1.6994332   52.0530894
   -1.6987051   52.0524637
   -1.6980405   52.0517710
   -1.6974453   52.0510179
   -1.6969250   52.0502111
   -1.6964845   52.0493581
   -1.6961279   52.0484668
   -1.6958583   52.0475455
   -1.6956783   52.0466025
   -1.6955896   52.0456466
   -1.6955929   52.0446866
   -1.6956883   52.0437314
   -1.6958749   52.0427897
   -1.6958896   52.0427304
   -1.6958173   52.0425112
   -1.6944066   52.0388242
   -1.6943077   52.0386000
   -1.6940776   52.0385152
   -1.6879693   52.0366075
   -1.6876858   52.0365370
   -1.6873961   52.0365001
   -1.6724931   52.0354869
   -1.6715001   52.0353693
   -1.6705237   52.0351531
   -1.6695739   52.0348404
   -1.6686600   52.0344345
   -1.6677912   52.0339393
   -1.6669762   52.0333598
   -1.6662232   52.0327018
   -1.6655397   52.0319719
   -1.6642991   52.0305067
   -1.6641361   52.0303323
   -1.6638978   52.0303469
   -1.6564370   52.0311734
   -1.6562011   52.0312111
   -1.6558327   52.0314345
   -1.6549617   52.0319051
   -1.6540486   52.0322872
   -1.6531021   52.0325773
   -1.6521315   52.0327723
   -1.6511465   52.0328704
   -1.6501565   52.0328706
   -1.6491714   52.0327730
   -1.6482008   52.0325784
   -1.6472542   52.0322888
   -1.6463408   52.0319070
   -1.6454697   52.0314368
   -1.6446493   52.0308828
   -1.6438877   52.0302504
   -1.6431924   52.0295458
   -1.6425701   52.0287758
   -1.6420271   52.0279482
   -1.6415685   52.0270709
   -1.6411989   52.0261525
   -1.6409219   52.0252021
   -1.6407402   52.0242290
   -1.6406557   52.0232427
   -1.6406691   52.0222528
   -1.6407803   52.0212692
   -1.6409882   52.0203013
   -1.6412907   52.0193587
   -1.6416850   52.0184507
   -1.6421671   52.0175861
   -1.6427324   52.0167734
   -1.6433439   52.0159810
   -1.6434844   52.0157784
   -1.6435364   52.0152352
   -1.6436802   52.0142522
   -1.6439207   52.0132882
   -1.6442558   52.0123528
   -1.6446820   52.0114553
   -1.6451951   52.0106046
   -1.6457901   52.0098089
   -1.6464612   52.0090763
   -1.6472017   52.0084138
   -1.6480042   52.0078281
   -1.6488609   52.0073249
   -1.6657074   51.9985248
   -1.6659016   51.9984119
   -1.6660585   51.9982510
   -1.6707185   51.9930169
   -1.6708641   51.9928369
   -1.6708244   51.9926089
   -1.6699470   51.9886807
   -1.6698798   51.9884391
   -1.6696572   51.9883237
   -1.6395536   51.9746425
   -1.6383546   51.9739957
   -1.6285922   51.9678356
   -1.6278724   51.9673360
   -1.6271992   51.9667754
   -1.6265776   51.9661581
   -1.6180027   51.9568605
   -1.6178191   51.9566811
   -1.6175895   51.9565664
   -1.6135622   51.9548100
   -1.6133335   51.9547236
   -1.6131122   51.9548275
   -1.5962421   51.9638019
   -1.5960457   51.9639184
   -1.5958884   51.9640839
   -1.5914849   51.9691678
   -1.5907812   51.9699013
   -1.5900067   51.9705596
   -1.5891693   51.9711358
   -1.5882778   51.9716241
   -1.5873413   51.9720194
   -1.5863696   51.9723175
   -1.5853726   51.9725155
   -1.5843606   51.9726112
   -1.5833442   51.9726037
   -1.5823338   51.9724930
   -1.5802744   51.9721609
   -1.5800216   51.9721333
   -1.5797724   51.9721837
   -1.5494022   51.9799598
   -1.5491771   51.9800292
   -1.5491296   51.9802599
   -1.5489689   51.9812896
   -1.5489440   51.9815197
   -1.5489599   51.9816113
   -1.5491321   51.9823972
   -1.5492473   51.9833748
   -1.5492658   51.9843589
   -1.5491874   51.9853402
   -1.5490130   51.9863090
   -1.5487441   51.9872559
   -1.5483835   51.9881718
   -1.5479345   51.9890478
   -1.5474016   51.9898755
   -1.5467899   51.9906467
   -1.5461054   51.9913541
   -1.5453546   51.9919907
   -1.5445449   51.9925504
   -1.5436840   51.9930278
   -1.5427804   51.9934183
   -1.5418428   51.9937180
   -1.5408802   51.9939241
   -1.5399021   51.9940346
   -1.5389178   51.9940483
   -1.5379370   51.9939652
   -1.5369690   51.9937861
   -1.5360234   51.9935127
   -1.5282321   51.9908380
   -1.5280057   51.9907722
   -1.5277875   51.9908617
   -1.5244114   51.9924404
   -1.5241864   51.9925601
   -1.5240501   51.9927755
   -1.5219756   51.9964625
   -1.5218560   51.9967051
   -1.5217917   51.9969678
   -1.5205285   52.0036968
   -1.5202992   52.0046551
   -1.5199767   52.0055862
   -1.5195642   52.0064811
   -1.5190655   52.0073310
   -1.5101406   52.0209570
   -1.5100023   52.0211963
   -1.5099202   52.0214602
   -1.5064321   52.0353700
   -1.5061961   52.0361688
   -1.5058943   52.0369451
   -1.4965338   52.0583450
   -1.4964440   52.0585827
   -1.4964305   52.0588364
   -1.4964255   52.0611755
   -1.4964369   52.0614177
   -1.4964474   52.0614475
   -1.4968061   52.0623276
   -1.4970921   52.0633022
   -1.4972778   52.0643008
   -1.4973612   52.0653131
   -1.4973415   52.0663286
   -1.4972188   52.0673369
   -1.4969945   52.0683276
   -1.4966709   52.0692903
   -1.4962513   52.0702153
   -1.4957400   52.0710930
   -1.4951424   52.0719142
   -1.4944645   52.0726706
   -1.4937133   52.0733544
   -1.4928967   52.0739584
   -1.4928369   52.0739981
   -1.4926629   52.0741375
   -1.4900004   52.0764734
   -1.4898340   52.0766341
   -1.4898696   52.0768759
   -1.4899648   52.0778522
   -1.4899638   52.0788332
   -1.4898668   52.0798093
   -1.4896746   52.0807712
   -1.4893891   52.0817097
   -1.4890129   52.0826157
   -1.4885499   52.0834805
   -1.4880043   52.0842957
   -1.4873815   52.0850536
   -1.4866874   52.0857468
   -1.4859288   52.0863686
   -1.4851129   52.0869132
   -1.4849698   52.0869988
   -1.4848941   52.0871643
   -1.4846791   52.0877069
   -1.4842364   52.0885693
   -1.4837123   52.0893848
   -1.4831117   52.0901457
   -1.4824403   52.0908448
   -1.4817043   52.0914757
   -1.4809107   52.0920323
   -1.4800670   52.0925095
   -1.4797087   52.0926686
   -1.4794480   52.0927992
   -1.4793875   52.0928675
   -1.4789111   52.0934596
   -1.4782491   52.0941390
   -1.4775258   52.0947526
   -1.4767475   52.0952949
   -1.4759214   52.0957611
   -1.4750548   52.0961468
   -1.4741556   52.0964488
   -1.4732318   52.0966641
   -1.4722918   52.0967910
   -1.4713440   52.0968282
   -1.4703969   52.0967755
   -1.4694590   52.0966333
   -1.4685389   52.0964028
   -1.4676447   52.0960862
   -1.4676318   52.0960809
   -1.4674001   52.0960778
   -1.4469552   52.0967617
   -1.4467193   52.0967813
   -1.4467198   52.0970180
   -1.4471109   52.1045893
   -1.4471138   52.1055603
   -1.4470225   52.1065271
   -1.4468380   52.1074804
   -1.4465618   52.1084114
   -1.4461966   52.1093112
   -1.4457458   52.1101713
   -1.4452138   52.1109836
   -1.4446055   52.1117406
   -1.4439266   52.1124349
   -1.4431836   52.1130601
   -1.4423835   52.1136103
   -1.4415337   52.1140803
   -1.4406424   52.1144657
   -1.4397179   52.1147628
   -1.4387690   52.1149689
   -1.4267778   52.1169684
   -1.4259072   52.1170746
   -1.4250306   52.1171041
   -1.4241548   52.1170566
   -1.4232866   52.1169327
   -1.4196276   52.1162452
   -1.4187366   52.1160352
   -1.4178685   52.1157446
   -1.4170306   52.1153757
   -1.4079753   52.1108843
   -1.4070802   52.1103814
   -1.4062413   52.1097895
   -1.4054676   52.1091147
   -1.4047671   52.1083640
   -1.4041473   52.1075456
   -1.4036147   52.1066679
   -1.4027234   52.1050132
   -1.4026062   52.1048176
   -1.4024141   52.1046947
   -1.3903039   52.0977127
   -1.3895663   52.0972433
   -1.3888726   52.0967113
   -1.3882279   52.0961207
   -1.3876373   52.0954761
   -1.3858881   52.0933909
   -1.3857235   52.0932134
   -1.3854850   52.0932551
   -1.3776408   52.0950351
   -1.3774053   52.0951010
   -1.3772295   52.0952710
   -1.3766835   52.0958540
   -1.3759667   52.0965466
   -1.3751846   52.0971645
   -1.3743448   52.0977014
   -1.3734558   52.0981520
   -1.3725263   52.0985120
   -1.3715657   52.0987775
   -1.3705833   52.0989462
   -1.3573739   52.1005410
   -1.3571472   52.1005796
   -1.3571802   52.1008072
   -1.3580537   52.1052875
   -1.3581121   52.1055241
   -1.3582757   52.1057047
   -1.3645430   52.1119730
   -1.3647270   52.1121394
   -1.3650354   52.1122828
   -1.3659136   52.1127452
   -1.3667416   52.1132925
   -1.3675113   52.1139191
   -1.3682151   52.1146190
   -1.3688461   52.1153851
   -1.3693980   52.1162101
   -1.3698654   52.1170857
   -1.3702437   52.1180033
   -1.3703758   52.1183749
   -1.3705908   52.1187370
   -1.3710493   52.1196027
   -1.3714208   52.1205092
   -1.3717019   52.1214478
   -1.3718898   52.1224093
   -1.3719827   52.1233845
   -1.3719797   52.1243642
   -1.3718809   52.1253389
   -1.3716871   52.1262993
   -1.3714004   52.1272360
   -1.3710233   52.1281403
   -1.3705596   52.1290032
   -1.3700136   52.1298167
   -1.3693907   52.1305729
   -1.3686968   52.1312644
   -1.3679385   52.1318848
   -1.3671232   52.1324279
   -1.3662586   52.1328887
   -1.3653531   52.1332627
   -1.3644153   52.1335462
   -1.3634543   52.1337367
   -1.3624793   52.1338322
   -1.3481807   52.1345280
   -1.3479471   52.1345510
   -1.3479473   52.1346227
   -1.3478978   52.1356456
   -1.3477439   52.1366582
   -1.3474872   52.1376497
   -1.3471304   52.1386097
   -1.3466774   52.1395282
   -1.3461327   52.1403956
   -1.3455022   52.1412027
   -1.3447925   52.1419410
   -1.3440109   52.1426030
   -1.3431658   52.1431814
   -1.3422659   52.1436705
   -1.3402803   52.1446212
   -1.3400668   52.1447370
   -1.3400996   52.1449777
   -1.3405097   52.1471584
   -1.3406452   52.1481490
   -1.3406811   52.1491481
   -1.3406170   52.1501458
   -1.3404536   52.1511321
   -1.3401925   52.1520972
   -1.3398364   52.1530314
   -1.3393888   52.1539254
   -1.3388542   52.1547702
   -1.3382378   52.1555574
   -1.3375460   52.1562791
   -1.3367855   52.1569282
   -1.3359641   52.1574980
   -1.3350898   52.1579830
   -1.3341715   52.1583783
   -1.3332183   52.1586799
   -1.3330958   52.1587120
   -1.3326901   52.1588631
   -1.3317570   52.1591596
   -1.3307993   52.1593634
   -1.3298262   52.1594725
   -1.3288472   52.1594860
   -1.3278715   52.1594037
   -1.3269085   52.1592263
   -1.3259676   52.1589556
   -1.3250576   52.1585942
   -1.3241873   52.1581456
   -1.3233650   52.1576139
   -1.3225987   52.1570044
   -1.3218957   52.1563229
   -1.3183649   52.1525477
   -1.3093921   52.1430713
   -1.3089687   52.1426733
   -1.2774572   52.1163299
   -1.2769820   52.1159783
   -1.2767090   52.1158002
   -1.2759286   52.1152359
   -1.2752060   52.1145991
   -1.2745481   52.1138957
   -1.2739609   52.1131323
   -1.2734499   52.1123160
   -1.2730198   52.1114543
   -1.2726745   52.1105552
   -1.2724173   52.1096271
   -1.2722507   52.1086785
   -1.2721760   52.1077184
   -1.2721941   52.1067554
   -1.2723047   52.1057987
   -1.2725068   52.1048571
   -1.2727985   52.1039392
   -1.2731772   52.1030537
   -1.2736394   52.1022087
   -1.2741807   52.1014121
   -1.2747961   52.1006713
   -1.2754799   52.0999931
   -1.2762257   52.0993838
   -1.2770268   52.0988491
   -1.2778755   52.0983940
   -1.2787641   52.0980226
   -1.2796843   52.0977384
   -1.2806276   52.0975440
   -1.3077491   52.0933055
   -1.3083236   52.0931807
   -1.3167685   52.0908181
   -1.3170067   52.0907383
   -1.3172240   52.0906123
   -1.3218507   52.0876066
   -1.3220481   52.0874639
   -1.3220339   52.0872207
   -1.3214122   52.0815107
   -1.3213751   52.0812759
   -1.3211989   52.0811163
   -1.3188354   52.0791747
   -1.3186428   52.0790317
   -1.3184032   52.0790187
   -1.3176520   52.0790148
   -1.3166889   52.0789632
   -1.3157352   52.0788191
   -1.3147999   52.0785838
   -1.3138915   52.0782595
   -1.3130186   52.0778492
   -1.3121893   52.0773567
   -1.3114114   52.0767866
   -1.3106919   52.0761442
   -1.3100377   52.0754355
   -1.3094548   52.0746670
   -1.3089487   52.0738460
   -1.3085240   52.0729800
   -1.3081847   52.0720771
   -1.3079340   52.0711458
   -1.3077742   52.0701946
   -1.3077067   52.0692324
   -1.3077322   52.0682683
   -1.3078506   52.0673110
   -1.3080605   52.0663697
   -1.3083602   52.0654529
   -1.3085884   52.0649314
   -1.3086587   52.0647475
   -1.3086770   52.0645103
   -1.3087854   52.0607997
   -1.3088703   52.0597589
   -1.3090634   52.0587326
   -1.3093624   52.0577321
   -1.3097641   52.0567681
   -1.3102641   52.0558514
   -1.3108571   52.0549917
   -1.3137274   52.0512630
   -1.3138602   52.0510720
   -1.3136849   52.0509190
   -1.3080671   52.0464818
   -1.3078695   52.0463408
   -1.3076395   52.0462631
   -1.3039076   52.0452026
   -1.3030063   52.0448995
   -1.3021379   52.0445121
   -1.3013103   52.0440441
   -1.3005308   52.0434995
   -1.2998066   52.0428834
   -1.2976762   52.0408889
   -1.2969615   52.0401471
   -1.2963270   52.0393357
   -1.2957792   52.0384634
   -1.2953241   52.0375393
   -1.2948090   52.0363414
   -1.2944802   52.0354664
   -1.2942347   52.0345644
   -1.2940744   52.0336435
   -1.2940008   52.0327116
   -1.2940145   52.0317769
   -1.2941155   52.0308475
   -1.2943028   52.0299317
   -1.2945748   52.0290373
   -1.2949291   52.0281723
   -1.2951103   52.0277828
   -1.2951978   52.0275678
   -1.2949751   52.0275022
   -1.2924231   52.0268853
   -1.2914363   52.0265922
   -1.2904848   52.0261992
   -1.2895788   52.0257105
   -1.2887278   52.0251312
   -1.2879409   52.0244675
   -1.2872264   52.0237264
   -1.2865919   52.0229158
   -1.2860440   52.0220443
   -1.2855887   52.0211210
   -1.2854722   52.0208069
   -1.2852221   52.0202197
   -1.2850568   52.0198811
   -1.2847222   52.0189886
   -1.2844741   52.0180683
   -1.2843147   52.0171285
   -1.2842455   52.0161779
   -1.2842672   52.0152250
   -1.2843795   52.0142784
   -1.2845813   52.0133469
   -1.2848710   52.0124388
   -1.2852458   52.0115624
   -1.2853375   52.0113944
   -1.2854937   52.0110693
   -1.2854114   52.0108410
   -1.2845822   52.0088556
   -1.2843583   52.0083856
   -1.2839959   52.0075227
   -1.2837157   52.0066297
   -1.2835202   52.0057144
   -1.2834111   52.0047849
   -1.2833894   52.0038492
   -1.2834553   52.0029156
   -1.2836081   52.0019922
   -1.2838467   52.0010872
   -1.2841688   52.0002084
   -1.2843297   51.9998259
   -1.2844019   51.9995922
   -1.2853726   51.9958046
   -1.2856436   51.9949198
   -1.2859952   51.9940638
   -1.2864244   51.9932440
   -1.2869276   51.9924674
   -1.2875004   51.9917406
   -1.2881380   51.9910698
   -1.2888348   51.9904609
   -1.2895849   51.9899190
   -1.2898495   51.9897459
   -1.2897522   51.9895392
   -1.2841389   51.9789571
   -1.2840221   51.9787598
   -1.2837970   51.9787160
   -1.2822942   51.9784958
   -1.2820546   51.9784727
   -1.2818095   51.9787212
   -1.2810385   51.9794254
   -1.2801984   51.9800452
   -1.2792982   51.9805742
   -1.2783477   51.9810063
   -1.2773574   51.9813370
   -1.2763379   51.9815627
   -1.2753006   51.9816808
   -1.2724771   51.9818537
   -1.2716495   51.9818701
   -1.2708234   51.9818179
   -1.2700044   51.9816976
   -1.2609614   51.9799842
   -1.2607291   51.9799515
   -1.2605077   51.9800287
   -1.2505873   51.9840221
   -1.2495864   51.9843647
   -1.2485548   51.9845996
   -1.2475043   51.9847243
   -1.2439744   51.9849546
   -1.2428770   51.9849659
   -1.2417849   51.9848568
   -1.2407113   51.9846287
   -1.2396692   51.9842844
   -1.2298739   51.9804393
   -1.2296701   51.9803692
   -1.2294565   51.9803354
   -1.1961256   51.9765266
   -1.1958960   51.9765112
   -1.1957045   51.9766389
   -1.1930105   51.9786253
   -1.1922087   51.9791588
   -1.1913593   51.9796128
   -1.1904701   51.9799829
   -1.1895495   51.9802658
   -1.1886059   51.9804588
   -1.1876482   51.9805601
   -1.1756768   51.9812461
   -1.1754388   51.9812714
   -1.1752541   51.9814236
   -1.1668398   51.9890762
   -1.1660949   51.9896906
   -1.1652943   51.9902303
   -1.1644453   51.9906903
   -1.1635560   51.9910662
   -1.1626345   51.9913547
   -1.1616895   51.9915529
   -1.1607298   51.9916591
   -1.1597644   51.9916722
   -1.1588022   51.9915921
   -1.1566807   51.9913119
   -1.1564404   51.9912920
   -1.1562105   51.9913650
   -1.1515394   51.9931032
   -1.1451422   51.9954971
   -1.1442020   51.9957970
   -1.1432368   51.9960027
   -1.1422560   51.9961123
   -1.1338251   51.9966348
   -1.1335856   51.9966615
   -1.1334175   51.9968342
   -1.1172470   52.0151564
   -1.1171005   52.0153398
   -1.1172512   52.0155199
   -1.1193360   52.0177760
   -1.1195120   52.0179483
   -1.1197546   52.0179909
   -1.1220649   52.0182782
   -1.1230495   52.0184509
   -1.1240119   52.0187211
   -1.1249425   52.0190860
   -1.1258320   52.0195420
   -1.1266715   52.0200845
   -1.1274527   52.0207082
   -1.1281678   52.0214067
   -1.1288095   52.0221731
   -1.1293715   52.0229997
   -1.1298482   52.0238783
   -1.1302347   52.0248001
   -1.1305274   52.0257559
   -1.1307231   52.0267362
   -1.1308200   52.0277311
   -1.1308171   52.0287307
   -1.1307144   52.0297250
   -1.1305129   52.0307040
   -1.1302148   52.0316581
   -1.1298228   52.0325777
   -1.1293410   52.0334535
   -1.1287742   52.0342768
   -1.1233516   52.0413668
   -1.1227186   52.0421154
   -1.1220153   52.0427984
   -1.1212486   52.0434092
   -1.1204257   52.0439421
   -1.1195546   52.0443918
   -1.1186436   52.0447540
   -1.1177016   52.0450253
   -1.1167375   52.0452030
   -1.0991877   52.0475563
   -1.0986890   52.0476491
   -1.0835334   52.0512753
   -1.0832682   52.0513546
   -1.0830135   52.0514627
   -1.0713918   52.0571806
   -1.0660747   52.0597983
   -1.0652278   52.0601677
   -1.0643505   52.0604573
   -1.0634501   52.0606647
   -1.0625345   52.0607882
   -1.0616113   52.0608266
   -1.0606886   52.0607796
   -1.0597741   52.0606477
   -1.0588758   52.0604319
   -1.0530726   52.0587511
   -1.0528280   52.0586937
   -1.0525950   52.0587875
   -1.0429602   52.0632529
   -1.0420100   52.0636355
   -1.0410257   52.0639188
   -1.0400176   52.0641000
   -1.0389962   52.0641771
   -1.0379723   52.0641493
   -1.0369566   52.0640169
   -1.0359598   52.0637813
   -1.0349923   52.0634450
   -1.0314944   52.0620244
   -1.0312609   52.0619429
   -1.0310170   52.0619838
   -1.0275389   52.0627475
   -1.0273072   52.0628104
   -1.0271676   52.0630057
   -1.0253334   52.0658543
   -1.0251274   52.0662115
   -1.0246073   52.0670208
   -1.0240118   52.0677763
   -1.0233464   52.0684712
   -1.0226174   52.0690988
   -1.0218314   52.0696536
   -1.0209957   52.0701302
   -1.0201182   52.0705243
   -1.0192068   52.0708323
   -1.0182700   52.0710513
   -1.0173165   52.0711792
   -1.0163552   52.0712150
   -1.0153948   52.0711581
   -1.0144444   52.0710093
   -1.0135126   52.0707698
   -1.0130948   52.0706407
   -1.0128639   52.0706146
   -0.9848305   52.0687575
   -0.9845673   52.0687541
   -0.9843093   52.0688061
   -0.9760614   52.0709288
   -0.9751547   52.0711178
   -0.9742344   52.0712222
   -0.9733084   52.0712410
   -0.9723846   52.0711740
   -0.9714710   52.0710218
   -0.9705754   52.0707858
   -0.9680560   52.0699953
   -0.9678196   52.0699340
   -0.9676412   52.0701009
   -0.9624214   52.0755016
   -0.9617078   52.0761710
   -0.9609322   52.0767675
   -0.9601021   52.0772854
   -0.9592253   52.0777196
   -0.9583102   52.0780661
   -0.9573657   52.0783215
   -0.9564008   52.0784833
   -0.9554246   52.0785501
   -0.9544466   52.0785212
   -0.9534761   52.0783968
   -0.9525224   52.0781782
   -0.9515946   52.0778674
   -0.9507017   52.0774675
   -0.9498521   52.0769822
   -0.9490539   52.0764162
   -0.9483150   52.0757749
   -0.9476422   52.0750644
   -0.9470421   52.0742916
   -0.9465204   52.0734639
   -0.9460821   52.0725891
   -0.9457313   52.0716757
   -0.9454715   52.0707324
   -0.9453051   52.0697682
   -0.9452836   52.0695928
   -0.9451949   52.0693819
   -0.9425974   52.0639285
   -0.9424784   52.0636946
   -0.9310531   52.0426314
   -0.9309225   52.0424171
   -0.9307710   52.0422171
   -0.9250941   52.0354566
   -0.9249203   52.0352700
   -0.9247120   52.0351227
   -0.9162688   52.0297792
   -0.9155482   52.0292775
   -0.9148744   52.0287146
   -0.9142525   52.0280947
   -0.9136875   52.0274226
   -0.9119735   52.0251923
   -0.9117629   52.0249491
   -0.9114313   52.0245455
   -0.9091740   52.0216463
   -0.9090223   52.0214693
   -0.9088066   52.0213807
   -0.9059608   52.0203652
   -0.9057243   52.0202941
   -0.9055235   52.0204377
   -0.8992103   52.0254525
   -0.8985492   52.0259348
   -0.8978510   52.0263615
   -0.8971201   52.0267296
   -0.8936916   52.0282843
   -0.8928157   52.0286326
   -0.8919109   52.0288970
   -0.8909853   52.0290750
   -0.8900470   52.0291650
   -0.8891043   52.0291663
   -0.8881658   52.0290789
   -0.8872396   52.0289034
   -0.8863341   52.0286416
   -0.8854573   52.0282956
   -0.8833224   52.0273346
   -0.8830891   52.0272436
   -0.8828458   52.0273030
   -0.8773712   52.0289400
   -0.8771426   52.0290207
   -0.8769472   52.0291640
   -0.8591479   52.0436025
   -0.8590082   52.0437201
   -0.8518044   52.0500137
   -0.8516280   52.0501843
   -0.8516496   52.0502865
   -0.8518026   52.0512288
   -0.8518650   52.0521814
   -0.8518363   52.0531356
   -0.8517168   52.0540827
   -0.8515075   52.0550140
   -0.8512103   52.0559212
   -0.8508280   52.0567959
   -0.8503640   52.0576302
   -0.8498226   52.0584164
   -0.8492087   52.0591475
   -0.8485279   52.0598166
   -0.8477863   52.0604178
   -0.8469909   52.0609455
   -0.8461487   52.0613950
   -0.8452675   52.0617622
   -0.8443553   52.0620436
   -0.8434205   52.0622368
   -0.8393359   52.0628793
   -0.8390827   52.0629328
   -0.8388732   52.0630848
   -0.8325880   52.0681675
   -0.8323975   52.0683385
   -0.8322683   52.0685596
   -0.8305735   52.0718363
   -0.8304770   52.0720472
   -0.8306468   52.0722052
   -0.8309240   52.0724394
   -0.8316551   52.0731223
   -0.8323142   52.0738749
   -0.8328948   52.0746895
   -0.8333911   52.0755581
   -0.8337982   52.0764719
   -0.8341120   52.0774218
   -0.8343292   52.0783983
   -0.8344478   52.0793916
   -0.8344645   52.0802815
   -0.8344679   52.0803355
   -0.8346221   52.0805093
   -0.8458335   52.0920089
   -0.8460177   52.0921797
   -0.8462326   52.0923101
   -0.8560693   52.0976165
   -0.8568969   52.0981160
   -0.8576724   52.0986931
   -0.8583885   52.0993423
   -0.8715531   52.1124914
   -0.8722173   52.1132239
   -0.8728059   52.1140184
   -0.8733131   52.1148672
   -0.8737341   52.1157619
   -0.8740646   52.1166938
   -0.8743015   52.1176538
   -0.8744425   52.1186325
   -0.8744861   52.1196203
   -0.8744319   52.1206076
   -0.8742804   52.1215847
   -0.8740333   52.1225421
   -0.8736927   52.1234704
   -0.8732622   52.1243605
   -0.8727459   52.1252038
   -0.8721488   52.1259920
   -0.8714768   52.1267173
   -0.8707364   52.1273727
   -0.8699349   52.1279518
   -0.8690802   52.1284489
   -0.8681806   52.1288592
   -0.8672448   52.1291786
   -0.8662820   52.1294041
   -0.8653017   52.1295333
   -0.8581577   52.1301179
   -0.8572451   52.1301507
   -0.8563332   52.1301002
   -0.8554298   52.1299666
   -0.8545423   52.1297512
   -0.8536782   52.1294558
   -0.8528446   52.1290827
   -0.8520485   52.1286352
   -0.8518056   52.1284835
   -0.8515526   52.1284991
   -0.8264661   52.1313424
   -0.8262346   52.1313802
   -0.8262243   52.1316420
   -0.8262283   52.1321040
   -0.8261379   52.1330961
   -0.8259492   52.1340742
   -0.8256642   52.1350287
   -0.8252856   52.1359501
   -0.8248172   52.1368293
   -0.8242636   52.1376575
   -0.8236304   52.1384265
   -0.8229239   52.1391287
   -0.8221510   52.1397571
   -0.8213194   52.1403055
   -0.8204373   52.1407685
   -0.8195136   52.1411414
   -0.8185573   52.1414205
   -0.8175781   52.1416031
   -0.8165855   52.1416874
   -0.8155894   52.1416725
   -0.8139453   52.1415658
   -0.8137065   52.1415621
   -0.8135516   52.1417439
   -0.8080202   52.1489205
   -0.8074058   52.1496440
   -0.8067254   52.1503060
   -0.8059854   52.1509004
   -0.8051924   52.1514220
   -0.8043535   52.1518661
   -0.8034762   52.1522287
   -0.8025686   52.1525064
   -0.8016386   52.1526968
   -0.8006949   52.1527982
   -0.7997457   52.1528097
   -0.7987998   52.1527311
   -0.7978655   52.1525631
   -0.7969514   52.1523074
   -0.7960657   52.1519661
   -0.7927078   52.1504857
   -0.7924673   52.1503944
   -0.7922191   52.1504620
   -0.7903725   52.1510704
   -0.7901381   52.1511611
   -0.7899588   52.1513370
   -0.7802286   52.1619054
   -0.7800855   52.1620754
   -0.7799745   52.1622690
   -0.7797245   52.1627544
   -0.7792257   52.1636149
   -0.7786438   52.1644216
   -0.7779847   52.1651665
   -0.7772548   52.1658423
   -0.7764614   52.1664422
   -0.7756123   52.1669603
   -0.7747160   52.1673915
   -0.7737812   52.1677315
   -0.7728174   52.1679770
   -0.7718338   52.1681255
   -0.7708404   52.1681755
   -0.7698470   52.1681267
   -0.7688633   52.1679794
   -0.7678991   52.1677350
   -0.7669639   52.1673962
   -0.7660671   52.1669660
   -0.7652174   52.1664490
   -0.7644233   52.1658500
   -0.7636926   52.1651751
   -0.7630325   52.1644310
   -0.7624497   52.1636250
   -0.7618504   52.1627030
   -0.7617068   52.1625049
   -0.7614714   52.1625713
   -0.7386585   52.1702831
   -0.7384357   52.1703705
   -0.7382224   52.1704789
   -0.7187559   52.1815750
   -0.7185998   52.1816678
   -0.7034915   52.1910224
   -0.7026142   52.1915065
   -0.7016929   52.1919005
   -0.7007367   52.1922002
   -0.6997554   52.1924027
   -0.6987587   52.1925061
   -0.6679291   52.1941471
   -0.6676968   52.1941708
   -0.6676721   52.1944030
   -0.6676395   52.1949719
   -0.6675451   52.1958838
   -0.6673677   52.1967831
   -0.6671086   52.1976625
   -0.6667701   52.1985145
   -0.6663550   52.1993318
   -0.6658668   52.2001077
   -0.6613880   52.2065506
   -0.6608430   52.2072640
   -0.6602362   52.2079257
   -0.6489247   52.2191991
   -0.6480483   52.2199757
   -0.6470871   52.2206446
   -0.6365905   52.2270711
   -0.6363952   52.2272044
   -0.6364894   52.2274213
   -0.6420556   52.2386747
   -0.6422847   52.2391716
   -0.6486047   52.2539296
   -0.6489182   52.2547623
   -0.6491565   52.2556197
   -0.6497403   52.2581521
   -0.6499153   52.2591310
   -0.6499921   52.2601225
   -0.6499701   52.2611167
   -0.6498494   52.2621038
   -0.6496314   52.2630740
   -0.6493180   52.2640178
   -0.6489124   52.2649258
   -0.6484187   52.2657890
   -0.6478416   52.2665989
   -0.6471870   52.2673475
   -0.6464612   52.2680274
   -0.6456716   52.2686318
   -0.6448258   52.2691548
   -0.6439322   52.2695912
   -0.6429997   52.2699367
   -0.6413346   52.2704611
   -0.6403281   52.2707214
   -0.6393001   52.2708758
   -0.6382615   52.2709227
   -0.6372237   52.2708614
   -0.6361979   52.2706928
   -0.6351951   52.2704185
   -0.6314148   52.2691702
   -0.6311748   52.2691043
   -0.6309770   52.2692554
   -0.6268028   52.2727964
   -0.6260626   52.2733670
   -0.6252724   52.2738661
   -0.6244390   52.2742892
   -0.6235698   52.2746326
   -0.6226723   52.2748934
   -0.6217544   52.2750692
   -0.6054666   52.2774068
   -0.6045230   52.2774968
   -0.6035751   52.2774971
   -0.6026314   52.2774076
   -0.6017004   52.2772292
   -0.6007905   52.2769634
   -0.5940307   52.2746359
   -0.5930704   52.2742485
   -0.5921553   52.2737640
   -0.5912952   52.2731873
   -0.5904993   52.2725249
   -0.5897762   52.2717836
   -0.5891337   52.2709716
   -0.5885785   52.2700975
   -0.5885297   52.2699994
   -0.5885254   52.2700018
   -0.5883025   52.2695970
   -0.5881261   52.2694495
   -0.5817558   52.2646104
   -0.5815670   52.2644803
   -0.5814906   52.2644696
   -0.5804849   52.2642757
   -0.5795042   52.2639800
   -0.5785590   52.2635854
   -0.5776590   52.2630963
   -0.5768139   52.2625177
   -0.5760323   52.2618556
   -0.5663727   52.2527835
   -0.5661851   52.2526244
   -0.5659509   52.2526995
   -0.5573604   52.2559404
   -0.5563695   52.2562565
   -0.5553511   52.2564679
   -0.5543163   52.2565724
   -0.5532762   52.2565688
   -0.5522421   52.2564572
   -0.5432374   52.2550085
   -0.5429990   52.2549819
   -0.5427682   52.2550475
   -0.5399844   52.2559869
   -0.5397470   52.2560810
   -0.5396094   52.2562960
   -0.5367684   52.2612873
   -0.5366636   52.2614931
   -0.5366344   52.2617909
   -0.5364811   52.2628102
   -0.5362236   52.2638084
   -0.5358648   52.2647748
   -0.5354084   52.2656991
   -0.5348592   52.2665715
   -0.5342232   52.2673827
   -0.5335070   52.2681241
   -0.5327183   52.2687879
   -0.5318654   52.2693670
   -0.5304429   52.2702291
   -0.5302407   52.2703661
   -0.5302736   52.2706081
   -0.5334012   52.2872566
   -0.5335325   52.2882033
   -0.5335729   52.2891582
   -0.5335220   52.2901126
   -0.5333801   52.2910577
   -0.5331487   52.2919851
   -0.5328298   52.2928861
   -0.5324264   52.2937525
   -0.5319421   52.2945764
   -0.5313813   52.2953504
   -0.5307492   52.2960673
   -0.5131810   52.3141695
   -0.5124451   52.3148551
   -0.5116442   52.3154633
   -0.5107861   52.3159879
   -0.5098798   52.3164238
   -0.5089342   52.3167664
   -0.5079590   52.3170122
   -0.5069641   52.3171589
   -0.5059594   52.3172049
   -0.4764959   52.3170710
   -0.4762696   52.3170803
   -0.4760612   52.3171702
   -0.4645709   52.3227663
   -0.4643684   52.3228771
   -0.4643400   52.3231061
   -0.4638149   52.3300110
   -0.4638085   52.3302591
   -0.4638514   52.3305035
   -0.4658603   52.3393352
   -0.4659260   52.3395691
   -0.4661646   52.3396156
   -0.4683249   52.3399246
   -0.4692804   52.3401092
   -0.4702134   52.3403857
   -0.4711151   52.3407516
   -0.4719769   52.3412034
   -0.4727908   52.3417368
   -0.4735490   52.3423468
   -0.4742443   52.3430276
   -0.4748701   52.3437728
   -0.4754205   52.3445753
   -0.4758904   52.3454274
   -0.4762752   52.3463212
   -0.4765713   52.3472482
   -0.4767759   52.3481995
   -0.4768870   52.3491663
   -0.4769112   52.3495332
   -0.4771124   52.3496540
   -0.4879662   52.3554830
   -0.4888023   52.3559860
   -0.4895853   52.3565682
   -0.4903079   52.3572238
   -0.4909632   52.3579468
   -0.4915449   52.3587301
   -0.4920474   52.3595665
   -0.4924661   52.3604478
   -0.4927969   52.3613657
   -0.4930366   52.3623115
   -0.4931831   52.3632762
   -0.4932348   52.3642505
   -0.4931914   52.3652253
   -0.4930531   52.3661912
   -0.4928214   52.3671390
   -0.4924984   52.3680597
   -0.4920872   52.3689445
   -0.4915917   52.3697851
   -0.4910167   52.3705733
   -0.4903676   52.3713018
   -0.4896506   52.3719636
   -0.4888725   52.3725523
   -0.4880408   52.3730624
   -0.4871632   52.3734890
   -0.4862483   52.3738281
   -0.4853047   52.3740764
   -0.4465753   52.3822702
   -0.4435389   52.3829130
   -0.4433209   52.3829696
   -0.4431262   52.3830827
   -0.4364253   52.3873917
   -0.4361568   52.3875771
   -0.4155211   52.4028376
   -0.4153278   52.4029965
   -0.4153080   52.4033121
   -0.4153054   52.4036129
   -0.4152015   52.4045843
   -0.4150033   52.4055408
   -0.4147127   52.4064735
   -0.4143326   52.4073734
   -0.4138664   52.4082318
   -0.4133187   52.4090407
   -0.4126947   52.4097923
   -0.4120003   52.4104795
   -0.4112422   52.4110956
   -0.4104276   52.4116348
   -0.4095643   52.4120919
   -0.4086605   52.4124626
   -0.4077249   52.4127434
   -0.4009092   52.4144305
   -0.4006731   52.4145015
   -0.4004451   52.4145956
   -0.3619108   52.4327659
   -0.3617042   52.4328760
   -0.3617702   52.4331006
   -0.3621795   52.4342784
   -0.3622707   52.4345044
   -0.3624464   52.4347727
   -0.3629341   52.4356023
   -0.3633399   52.4364749
   -0.3636599   52.4373824
   -0.3638912   52.4383165
   -0.3640316   52.4392685
   -0.3640799   52.4402296
   -0.3640355   52.4411909
   -0.3638990   52.4421435
   -0.3636715   52.4430785
   -0.3633553   52.4439874
   -0.3629531   52.4448616
   -0.3624687   52.4456932
   -0.3619067   52.4464743
   -0.3547335   52.4554945
   -0.3545954   52.4556861
   -0.3544761   52.4558900
   -0.3535248   52.4577072
   -0.3530247   52.4585576
   -0.3524432   52.4593547
   -0.3517860   52.4600905
   -0.3510595   52.4607581
   -0.3502707   52.4613507
   -0.3494274   52.4618628
   -0.3408913   52.4664856
   -0.3406931   52.4666056
   -0.3407443   52.4668315
   -0.3414836   52.4694925
   -0.3415532   52.4697056
   -0.3416604   52.4699034
   -0.3463877   52.4777584
   -0.3466096   52.4781465
   -0.3492605   52.4830332
   -0.3494539   52.4833595
   -0.3537903   52.4900811
   -0.3542686   52.4909063
   -0.3546661   52.4917734
   -0.3549791   52.4926743
   -0.3552049   52.4936010
   -0.3553414   52.4945450
   -0.3553873   52.4954977
   -0.3553423   52.4964505
   -0.3552067   52.4973946
   -0.3549817   52.4983215
   -0.3546695   52.4992228
   -0.3542728   52.5000902
   -0.3537953   52.5009158
   -0.3532413   52.5016923
   -0.3526158   52.5024124
   -0.3514895   52.5035906
   -0.3513334   52.5037710
   -0.3514635   52.5039710
   -0.3537931   52.5071884
   -0.3539444   52.5073770
   -0.3541850   52.5073527
   -0.3550046   52.5072283
   -0.3559052   52.5071330
   -0.3568108   52.5071197
   -0.3577139   52.5071883
   -0.3586071   52.5073384
   -0.3594831   52.5075686
   -0.3603346   52.5078772
   -0.3901225   52.5202249
   -0.3903802   52.5203155
   -0.3906463   52.5203774
   -0.3941202   52.5209862
   -0.3950824   52.5212042
   -0.3960184   52.5215160
   -0.3969192   52.5219185
   -0.3977759   52.5224078
   -0.3985802   52.5229791
   -0.3993243   52.5236269
   -0.4000010   52.5243449
   -0.4006036   52.5251261
   -0.4011263   52.5259628
   -0.4015640   52.5268470
   -0.4019124   52.5277700
   -0.4021682   52.5287229
   -0.4023289   52.5296963
   -0.4023928   52.5306808
   -0.4023595   52.5316668
   -0.4022291   52.5326448
   -0.4020030   52.5336051
   -0.4016834   52.5345385
   -0.4012733   52.5354358
   -0.4012015   52.5355746
   -0.4011335   52.5358114
   -0.4004193   52.5388597
   -0.4003752   52.5391010
   -0.4003793   52.5393463
   -0.4009417   52.5478585
   -0.4009721   52.5481139
   -0.4011469   52.5483027
   -0.4024555   52.5495748
   -0.4026542   52.5497484
   -0.4029228   52.5498971
   -0.4031649   52.5500132
   -0.4039830   52.5505066
   -0.4047503   52.5510758
   -0.4054597   52.5517156
   -0.4061049   52.5524202
   -0.4066799   52.5531832
   -0.4071795   52.5539975
   -0.4075990   52.5548559
   -0.4079348   52.5557503
   -0.4081836   52.5566727
   -0.4083433   52.5576146
   -0.4084124   52.5585674
   -0.4083903   52.5595226
   -0.4082771   52.5604712
   -0.4080738   52.5614047
   -0.4077825   52.5623145
   -0.4074056   52.5631924
   -0.4063764   52.5653055
   -0.4062808   52.5655294
   -0.4063966   52.5657435
   -0.4143568   52.5788586
   -0.4144870   52.5790520
   -0.4146793   52.5791840
   -0.4190080   52.5818627
   -0.4192519   52.5819954
   -0.4195193   52.5820706
   -0.4251009   52.5833089
   -0.4253313   52.5833488
   -0.4255637   52.5833227
   -0.4705336   52.5761243
   -0.4715500   52.5760145
   -0.4725723   52.5760091
   -0.4735898   52.5761080
   -0.4745919   52.5763104
   -0.4755681   52.5766139
   -0.4765081   52.5770156
   -0.4774023   52.5775112
   -0.4782412   52.5780954
   -0.4786201   52.5783891
   -0.4788502   52.5784762
   -0.4812034   52.5792352
   -0.4821045   52.5795746
   -0.4829688   52.5799991
   -0.4837883   52.5805047
   -0.4845554   52.5810869
   -0.4852629   52.5817401
   -0.4859043   52.5824583
   -0.4864736   52.5832348
   -0.4869657   52.5840626
   -0.4873758   52.5849338
   -0.4877002   52.5858404
   -0.4879359   52.5867741
   -0.4880808   52.5877260
   -0.4881334   52.5886875
   -0.4880932   52.5896496
   -0.4879608   52.5906034
   -0.4877372   52.5915400
   -0.4874245   52.5924508
   -0.4870257   52.5933272
   -0.4865445   52.5941613
   -0.4859853   52.5949452
   -0.4803706   52.6020638
   -0.4802209   52.6022756
   -0.4801706   52.6025299
   -0.4797287   52.6056032
   -0.4795350   52.6065927
   -0.4792427   52.6075577
   -0.4788547   52.6084883
   -0.4783750   52.6093752
   -0.4778083   52.6102092
   -0.4771606   52.6109819
   -0.4764384   52.6116855
   -0.4756490   52.6123127
   -0.4748004   52.6128573
   -0.4739013   52.6133137
   -0.4738388   52.6133379
   -0.4738399   52.6133403
   -0.4734100   52.6135287
   -0.4732444   52.6138355
   -0.4730963   52.6141416
   -0.4725703   52.6149973
   -0.4719611   52.6157960
   -0.4712748   52.6165295
   -0.4705185   52.6171905
   -0.4704701   52.6172248
   -0.4704716   52.6172267
   -0.4701010   52.6175157
   -0.4700888   52.6177477
   -0.4700562   52.6239676
   -0.4700657   52.6241970
   -0.4701770   52.6243979
   -0.4730205   52.6290096
   -0.4731523   52.6292024
   -0.4732142   52.6292534
   -0.4738514   52.6297303
   -0.4745595   52.6303748
   -0.4752028   52.6310839
   -0.4757753   52.6318514
   -0.4762718   52.6326701
   -0.4766877   52.6335325
   -0.4770193   52.6344308
   -0.4772634   52.6353566
   -0.4774178   52.6363016
   -0.4774812   52.6372569
   -0.4774529   52.6382140
   -0.4773332   52.6391640
   -0.4771231   52.6400981
   -0.4768248   52.6410079
   -0.4764407   52.6418850
   -0.4759746   52.6427214
   -0.4754306   52.6435093
   -0.4749872   52.6440356
   -0.4748467   52.6442213
   -0.4741935   52.6449995
   -0.4734647   52.6457074
   -0.4726679   52.6463377
   -0.4718112   52.6468839
   -0.4709034   52.6473403
   -0.4699541   52.6477023
   -0.4689729   52.6479660
   -0.4679701   52.6481289
   -0.4669559   52.6481891
   -0.4530133   52.6483079
   -0.4527674   52.6483223
   -0.4526630   52.6484220
   -0.4522230   52.6488890
   -0.4515042   52.6495188
   -0.4507286   52.6500772
   -0.4499032   52.6505589
   -0.4490356   52.6509597
   -0.4481337   52.6512758
   -0.4472057   52.6515043
   -0.4462602   52.6516433
   -0.4453057   52.6516913
   -0.4443510   52.6516480
   -0.4434047   52.6515138
   -0.4426142   52.6513628
   -0.4416201   52.6511196
   -0.4406561   52.6507760
   -0.4324224   52.6473578
   -0.4322104   52.6472808
   -0.4319891   52.6473260
   -0.4312628   52.6475094
   -0.4303657   52.6476927
   -0.4294556   52.6477931
   -0.4285402   52.6478099
   -0.4276270   52.6477429
   -0.4267238   52.6475927
   -0.4183617   52.6458047
   -0.4181053   52.6457637
   -0.4178459   52.6457769
   -0.4056406   52.6470390
   -0.4054395   52.6470682
   -0.4052415   52.6471135
   -0.3998624   52.6485791
   -0.3996081   52.6486633
   -0.3993777   52.6488001
   -0.3953366   52.6515044
   -0.3945177   52.6519975
   -0.3936554   52.6524101
   -0.3927576   52.6527385
   -0.3918326   52.6529797
   -0.3908888   52.6531315
   -0.3773879   52.6546447
   -0.3771650   52.6546799
   -0.3769513   52.6547552
   -0.3687283   52.6580806
   -0.3677235   52.6584261
   -0.3666876   52.6586630
   -0.3656325   52.6587887
   -0.3645700   52.6588017
   -0.3569343   52.6584889
   -0.3567173   52.6584895
   -0.3565078   52.6585464
   -0.3500319   52.6606110
   -0.3498498   52.6606770
   -0.3496734   52.6607568
   -0.3359555   52.6676197
   -0.3357610   52.6677280
   -0.3355883   52.6678700
   -0.3328947   52.6702947
   -0.3320770   52.6709563
   -0.3311943   52.6715284
   -0.3302563   52.6720046
   -0.3292735   52.6723797
   -0.3282568   52.6726494
   -0.3272174   52.6728109
   -0.3196498   52.6735813
   -0.3185514   52.6736324
   -0.3174540   52.6735625
   -0.3163709   52.6733726
   -0.2949574   52.6683906
   -0.2946968   52.6683445
   -0.2941703   52.6684217
   -0.2941701   52.6684202
   -0.2934814   52.6685234
   -0.2924735   52.6685715
   -0.2914659   52.6685178
   -0.2904688   52.6683628
   -0.2894924   52.6681082
   -0.2885467   52.6677564
   -0.2876412   52.6673111
   -0.2872992   52.6671209
   -0.2870687   52.6670464
   -0.2831432   52.6659861
   -0.2822700   52.6657067
   -0.2814261   52.6653486
   -0.2806186   52.6649146
   -0.2798541   52.6644085
   -0.2791393   52.6638346
   -0.2784800   52.6631975
   -0.2749899   52.6595014
   -0.2748418   52.6593569
   -0.2746711   52.6592387
   -0.2608881   52.6505147
   -0.2606898   52.6504018
   -0.2604734   52.6504740
   -0.2252678   52.6640657
   -0.2244932   52.6643289
   -0.2236998   52.6645279
   -0.2228928   52.6646613
   -0.2121761   52.6659858
   -0.2112248   52.6660575
   -0.2102711   52.6660383
   -0.2093235   52.6659283
   -0.2083906   52.6657284
   -0.2074811   52.6654406
   -0.2066032   52.6650674
   -0.2057648   52.6646123
   -0.2049736   52.6640793
   -0.2042367   52.6634734
   -0.2035610   52.6628000
   -0.1934377   52.6517006
   -0.1932681   52.6515319
   -0.1930288   52.6515319
   -0.1900172   52.6516782
   -0.1897781   52.6517015
   -0.1895777   52.6518340
   -0.1830150   52.6566473
   -0.1822212   52.6571732
   -0.1813811   52.6576213
   -0.1805021   52.6579874
   -0.1795922   52.6582683
   -0.1786598   52.6584614
   -0.1777133   52.6585649
   -0.1767611   52.6585779
   -0.1758121   52.6585002
   -0.1748748   52.6583327
   -0.1410243   52.6506035
   -0.1407954   52.6505627
   -0.1406652   52.6507554
   -0.1402539   52.6514325
   -0.1397113   52.6522351
   -0.1390935   52.6529815
   -0.1384065   52.6536647
   -0.1376565   52.6542781
   -0.1368507   52.6548161
   -0.1359967   52.6552735
   -0.1073534   52.6688735
   -0.1064964   52.6692326
   -0.1056098   52.6695106
   -0.1047013   52.6697051
   -0.1037786   52.6698145
   -0.1028497   52.6698377
   -0.1019227   52.6697746
   -0.1010055   52.6696258
   -0.1001061   52.6693925
   -0.0992323   52.6690767
   -0.0919424   52.6660523
   -0.0917420   52.6659791
   -0.0915295   52.6659593
   -0.0879498   52.6657815
   -0.0877195   52.6657807
   -0.0874920   52.6658226
   -0.0654556   52.6709542
   -0.0652211   52.6710211
   -0.0651523   52.6710655
   -0.0642991   52.6715585
   -0.0634015   52.6719650
   -0.0624682   52.6722813
   -0.0615084   52.6725042
   -0.0605313   52.6726315
   -0.0595464   52.6726620
   -0.0585633   52.6725955
   -0.0575915   52.6724325
   -0.0566404   52.6721747
   -0.0371285   52.6658379
   -0.0362311   52.6654981
   -0.0353705   52.6650738
   -0.0345545   52.6645690
   -0.0337907   52.6639884
   -0.0330860   52.6633372
   -0.0324469   52.6626214
   -0.0318794   52.6618477
   -0.0313887   52.6610232
   -0.0312329   52.6607305
   -0.0311146   52.6605315
   -0.0308831   52.6605348
   0.0209239   52.6637549
   0.0211634   52.6637815
   0.0213747   52.6638971
   0.0494688   52.6810838
   0.0496639   52.6812166
   0.0496883   52.6814514
   0.0501255   52.6894043
   0.0501268   52.6896402
   0.0497761   52.6899890
   0.0491228   52.6907052
   0.0485419   52.6914813
   0.0480388   52.6923100
   0.0476184   52.6931835
   0.0472845   52.6940936
   0.0470403   52.6950317
   0.0468881   52.6959891
   0.0468293   52.6969567
   0.0468566   52.6977081
   0.0468500   52.6980674
   0.0460325   52.7097248
   0.0460116   52.7106912
   0.0460841   52.7116550
   0.0462492   52.7126074
   0.0465056   52.7135394
   0.0468507   52.7144422
   0.0472814   52.7153076
   0.0477936   52.7161273
   0.0483826   52.7168937
   0.0490428   52.7175997
   0.0497681   52.7182386
   0.0505517   52.7188045
   0.0513862   52.7192922
   0.0614674   52.7245463
   0.0624027   52.7249741
   0.0633769   52.7253036
   0.0643798   52.7255313
   0.0654008   52.7256547
   0.0664291   52.7256727
   0.0674537   52.7255849
   0.0887975   52.7226451
   0.0890489   52.7226235
   0.0892666   52.7227513
   0.0967366   52.7276700
   0.0976168   52.7281873
   0.0985452   52.7286120
   0.0995121   52.7289399
   0.1005073   52.7291675
   0.1015206   52.7292924
   0.1025414   52.7293134
   0.1135271   52.7289778
   0.1137741   52.7289830
   0.1141525   52.7293328
   0.1149281   52.7299802
   0.1157651   52.7305460
   0.1166548   52.7310244
   0.1175883   52.7314107
   0.1185560   52.7317008
   0.1195481   52.7318917
   0.1199394   52.7319467
   0.1201723   52.7319909
   0.1203831   52.7320991
   0.1277892   52.7363576
   0.1286813   52.7368127
   0.1296145   52.7371763
   0.1305794   52.7374447
   0.1315662   52.7376153
   0.1406177   52.7387165
   0.1415661   52.7387863
   0.1425169   52.7387657
   0.1434615   52.7386549
   0.1524516   52.7371639
   0.1526560   52.7371386
   0.1528625   52.7371474
   0.1673912   52.7383748
   0.1684515   52.7384080
   0.1695093   52.7383286
   0.1705527   52.7381376
   0.1861844   52.7344098
   0.1864332   52.7343638
   0.1866626   52.7344705
   0.2328889   52.7589464
   0.2336851   52.7593241
   0.2345115   52.7596302
   0.2722811   52.7717559
   0.2725006   52.7718383
   0.2725119   52.7720725
   0.2725111   52.7735021
   0.2725000   52.7737329
   0.2722946   52.7738389
   0.2629910   52.7780899
   0.2621184   52.7785416
   0.2612944   52.7790768
   0.2605269   52.7796903
   0.2598233   52.7803761
   0.2591904   52.7811277
   0.2586344   52.7819378
   0.2581605   52.7827985
   0.2577733   52.7837016
   0.2574767   52.7846383
   0.2572734   52.7855996
   0.2571654   52.7865762
   0.2571538   52.7875586
   0.2572387   52.7885375
   0.2574192   52.7895034
   0.2576936   52.7904468
   0.2580593   52.7913588
   0.2585128   52.7922304
   0.2590496   52.7930534
   0.2596645   52.7938197
   0.2603517   52.7945220
   0.2611045   52.7951534
   0.2616210   52.7955065
   0.2617679   52.7956169
   0.2618502   52.7958326
   0.2646586   52.8043767
   0.2650417   52.8053630
   0.2736989   52.8245712
   0.2737822   52.8247810
   0.2737436   52.8250036
   0.2415645   52.9705344
   0.2414040   52.9714679
   0.2413326   52.9724124
   0.2413509   52.9733594
   0.2414586   52.9743005
   0.2416550   52.9752271
   0.2419381   52.9761310
   0.2423055   52.9770041
   0.2427538   52.9778385
   0.2432791   52.9786267
   0.2438766   52.9793617
   0.2445409   52.9800369
   0.4942083   53.2108094
   0.4943695   53.2109733
   0.4943097   53.2111952
   0.3955793   53.5188484
   0.3954961   53.5190700
   0.3952661   53.5191260
   0.1673877   53.5629785
   0.1664239   53.5632141
   0.1654883   53.5635440
   0.1645899   53.5639650
   0.1637377   53.5644730
   0.1629400   53.5650629
   0.1622047   53.5657290
   0.1615389   53.5664646
   0.1609494   53.5672626
   0.1604419   53.5681151
   0.1600213   53.5690136
   0.1596918   53.5699494
   0.1594567   53.5709133
   0.1593182   53.5718957
   0.1592778   53.5728870
   0.1593358   53.5738775
   0.1594917   53.5748573
   0.1597438   53.5758168
   0.1600899   53.5767467
   0.1605263   53.5776376
   0.1610489   53.5784810
   0.1616525   53.5792684
   0.1623312   53.5799921
   0.1630782   53.5806450
   0.1638862   53.5812206
   0.1647473   53.5817134
   0.1656530   53.5821184
   0.1665944   53.5824317
   0.1675622   53.5826501
   0.4891971   53.6386477
   0.4894175   53.6386974
   0.4892679   53.6388666
   -0.0685066   54.2102777
   -0.0686778   54.2104369
   -0.0689004   54.2103656
   -0.1603916   54.1761132
   -0.1613242   54.1758152
   -0.1622813   54.1756099
   -0.1632540   54.1754991
   -0.1642329   54.1754840
   -0.1652085   54.1755647
   -0.1661716   54.1757403
   -0.1671128   54.1760093
   -0.1680233   54.1763691
   -0.1688942   54.1768161
   -0.1697173   54.1773462
   -0.1704846   54.1779542
   -0.1711887   54.1786343
   -0.1718230   54.1793800
   -0.1723813   54.1801841
   -0.1728583   54.1810390
   -0.1732495   54.1819364
   -0.1735510   54.1828678
   -0.1737600   54.1838242
   -0.1738745   54.1847964
   -0.1738934   54.1857752
   -0.1738165   54.1867511
   -0.1736445   54.1877148
   -0.1733791   54.1886571
   -0.1730229   54.1895690
   -0.1725792   54.1904416
   -0.1720523   54.1912667
   -0.1714472   54.1920363
   -0.0407763   54.3424644
   -0.0406346   54.3426446
   -0.0408485   54.3427272
   -1.1092817   54.6959540
   -1.1102310   54.6963224
   -1.1111379   54.6967855
   -1.1119930   54.6973384
   -1.1127874   54.6979754
   -1.1135130   54.6986899
   -1.1141621   54.6994745
   -1.2509618   54.8831105
   -1.2511076   54.8832880
   -1.2513344   54.8832522
   -1.2590358   54.8816617
   -1.2600141   54.8815098
   -1.2610026   54.8814552
   -1.2619916   54.8814987
   -1.2629715   54.8816398
   -1.2639327   54.8818771
   -1.2648656   54.8822083
   -1.2657613   54.8826300
   -1.2666109   54.8831383
   -1.2674060   54.8837281
   -1.2681390   54.8843936
   -1.2688025   54.8851284
   -1.2693901   54.8859251
   -1.2698961   54.8867761
   -1.3876897   55.1092666
   -1.3878166   55.1094794
   -1.3879794   55.1095344
   -1.3888945   55.1098945
   -1.3897698   55.1103427
   -1.3905969   55.1108748
   -1.3913677   55.1114855
   -1.3920747   55.1121689
   -1.3927113   55.1129185
   -1.3932711   55.1137270
   -1.3937488   55.1145866
   -1.3941398   55.1154889
   -1.3944402   55.1164253
   -1.3946473   55.1173866
   -1.3947589   55.1183636
   -1.3947740   55.1193469
   -1.3946924   55.1203269
   -1.3945150   55.1212942
   -1.3942435   55.1222393
   -1.3938804   55.1231532
   -1.3934293   55.1240271
   -1.3928946   55.1248524
   -1.3922814   55.1256212
   -1.3915956   55.1263260
   -1.3908439   55.1269601
   -1.2234811   55.2546020
   -1.2233029   55.2547522
   -1.2234332   55.2549454
   -1.5542275   55.6970183
   -1.5543781   55.6972005
   -1.5545956   55.6972930
   -1.8613964   55.8106241
   -1.8623063   55.8110124
   -1.8631734   55.8114887
   -1.8639892   55.8120483
   -1.8647457   55.8126858
   -1.8654355   55.8133949
   -1.8660518   55.8141687
   -1.8665887   55.8149997
   -1.8670409   55.8158796
   -1.8674039   55.8167998
   -1.8676742   55.8177515
   -1.8678491   55.8187252
   -1.8679270   55.8197114
   -1.8679071   55.8207004
   -1.8677895   55.8216827
   -1.8675755   55.8226486
   -1.8672670   55.8235885
   -1.8668672   55.8244934
   -1.8663800   55.8253544
   -1.8658101   55.8261630
   -1.8651630   55.8269113
   -1.8644452   55.8275921
   -1.8636636   55.8281985
   -1.8628260   55.8287248
   -1.8619404   55.8291658
   -1.8610156   55.8295171
   -1.8600606   55.8297753
   -1.8590848   55.8299379
   -1.2685038   55.8985147
   2.2497567   52.9386775
   2.2499312   52.9385156
   2.2498942   52.9382804
   1.8893138   51.2050269
   1.8891631   51.2040739
   1.8891049   51.2031108
   1.8891398   51.2021466
   1.8892675   51.2011903
   1.8894867   51.2002507
   1.8897955   51.1993366
   1.8901860   51.1983416
   1.8902599   51.1981233
   1.8900920   51.1979653
   1.5263313   50.8871462
   1.5261167   50.8869822
   1.5258856   50.8868423
   0.9009862   50.5534537
   0.9007888   50.5533593
   0.9005735   50.5533198
   -6.1424392   49.5781135
   -6.1426809   49.5780920
   -6.1429222   49.5781178
   -7.1009463   49.7281215
   -7.1011687   49.7281678
   -7.1010184   49.7283381
   -5.7515315   51.1127946
END
2
   -2.1756427   52.0227878
   -2.1777299   52.0352992
   -2.1778416   52.0362440
   -2.1778631   52.0371951
   -2.1777940   52.0381440
   -2.1776351   52.0390820
   -2.1773878   52.0400007
   -2.1770543   52.0408917
   -2.1766376   52.0417470
   -2.1761416   52.0425589
   -2.1755706   52.0433199
   -2.1749299   52.0440232
   -2.1742252   52.0446624
   -2.1734630   52.0452318
   -2.1726502   52.0457261
   -2.1717940   52.0461410
   -2.1709023   52.0464727
   -2.1651877   52.0482936
   -2.1641477   52.0485644
   -2.1630846   52.0487221
   -2.1620107   52.0487647
   -2.1609385   52.0486918
   -2.1598803   52.0485043
   -2.1455925   52.0451720
   -2.1446605   52.0449064
   -2.1437586   52.0445519
   -2.1428953   52.0441117
   -2.1420786   52.0435900
   -2.1413162   52.0429917
   -2.1406154   52.0423225
   -2.1399826   52.0415885
   -2.1394238   52.0407968
   -2.1389443   52.0399546
   -2.1385485   52.0390700
   -2.1382403   52.0381513
   -2.1380224   52.0372070
   -2.1378969   52.0362461
   -2.1378651   52.0352775
   -2.1379271   52.0343104
   -2.1380824   52.0333539
   -2.1383297   52.0324168
   -2.1386664   52.0315082
   -2.1390895   52.0306363
   -2.1395951   52.0298095
   -2.1401783   52.0290356
   -2.1404878   52.0286638
   -2.1405823   52.0284415
   -2.1431171   52.0215687
   -2.1434752   52.0207202
   -2.1439099   52.0199082
   -2.1444175   52.0191396
   -2.1449936   52.0184211
   -2.1507075   52.0119309
   -2.1508486   52.0117552
   -2.1509709   52.0113763
   -2.1513137   52.0104672
   -2.1517432   52.0095957
   -2.1522552   52.0087700
   -2.1528449   52.0079979
   -2.1535068   52.0072866
   -2.1542345   52.0066429
   -2.1550213   52.0060729
   -2.1558597   52.0055820
   -2.1567418   52.0051747
   -2.1576592   52.0048549
   -2.1586034   52.0046257
   -2.1595653   52.0044891
   -2.1605359   52.0044466
   -2.1615061   52.0044984
   -2.1624667   52.0046442
   -2.1634086   52.0048825
   -2.1643229   52.0052110
   -2.1652010   52.0056268
   -2.1715132   52.0089999
   -2.1723396   52.0094941
   -2.1731147   52.0100655
   -2.1738313   52.0107089
   -2.1744826   52.0114181
   -2.1750627   52.0121868
   -2.1755662   52.0130076
   -2.1759884   52.0138731
   -2.1763254   52.0147752
   -2.1765741   52.0157055
   -2.1767321   52.0166554
   -2.1767980   52.0176161
   -2.1767712   52.0185787
   -2.1766520   52.0195343
   -2.1764413   52.0204740
   -2.1761413   52.0213890
   -2.1757547   52.0222709
   -2.1756149   52.0225521
   -2.1756427   52.0227878
END
3
   -4.1168270   54.5261656
   -4.1166359   54.5262943
   -3.8292767   54.7004476
   -3.8164261   54.7033894
   -3.8154451   54.7035631
   -3.8144517   54.7036383
   -3.8134558   54.7036143
   -3.8124672   54.7034913
   -3.8114957   54.7032705
   -3.8105510   54.7029542
   -3.8096425   54.7025454
   -3.8087792   54.7020483
   -3.8079696   54.7014677
   -3.8072217   54.7008095
   -3.8065431   54.7000801
   -3.8059405   54.6992869
   -3.8054197   54.6984375
   -3.8049861   54.6975406
   -3.8046438   54.6966050
   -3.8043964   54.6956400
   -3.8042461   54.6946552
   -3.8041946   54.6936603
   -3.8042424   54.6926652
   -3.8043890   54.6916798
   -3.8046328   54.6907139
   -3.8049716   54.6897770
   -3.8054019   54.6888785
   -3.8059194   54.6880272
   -3.8065191   54.6872317
   -3.8071950   54.6864998
   -3.8079403   54.6858388
   -3.8087478   54.6852552
   -3.8096092   54.6847548
   -3.9072585   54.6343696
   -3.9074548   54.6342561
   -3.9073308   54.6340663
   -3.3764260   53.9008344
   -3.3762742   53.9006456
   -3.3760529   53.9007440
   -2.9019537   54.1408982
   -2.9010584   54.1412978
   -2.9001284   54.1416078
   -2.8991724   54.1418253
   -2.8981997   54.1419481
   -2.8972197   54.1419751
   -2.8962417   54.1419059
   -2.8952752   54.1417414
   -2.8943295   54.1414830
   -2.8934136   54.1411332
   -2.8925363   54.1406954
   -2.8917062   54.1401738
   -2.8909311   54.1395735
   -2.8902185   54.1389001
   -2.8895753   54.1381602
   -2.8890077   54.1373608
   -2.8885210   54.1365098
   -2.8881200   54.1356151
   -2.8878086   54.1346855
   -2.8875897   54.1337298
   -2.8845560   54.1166870
   -2.8844318   54.1157150
   -2.8844032   54.1147355
   -2.8844707   54.1137580
   -2.8846335   54.1127917
   -2.8848902   54.1118460
   -2.8852381   54.1109300
   -2.8856740   54.1100524
   -2.9028127   54.0794154
   -2.9033008   54.0786303
   -2.9038594   54.0778936
   -2.9044836   54.0772117
   -2.9051681   54.0765904
   -2.9059070   54.0760349
   -2.9066941   54.0755500
   -2.9232224   54.0663939
   -2.9234336   54.0662623
   -2.9234569   54.0660146
   -2.9240212   54.0528000
   -2.9241026   54.0518839
   -2.9242679   54.0509791
   -2.9245156   54.0500933
   -2.9248437   54.0492340
   -2.9252493   54.0484085
   -2.9257291   54.0476237
   -2.9440640   54.0205187
   -2.9445932   54.0198065
   -2.9451835   54.0191441
   -2.9458302   54.0185366
   -2.9465281   54.0179888
   -2.9472719   54.0175051
   -2.9891955   53.9928128
   -2.9893912   53.9926844
   -2.9893514   53.9924539
   -2.9880263   53.9865087
   -2.9878596   53.9855377
   -2.9877893   53.9845549
   -2.9878160   53.9835700
   -2.9879395   53.9825925
   -2.9881586   53.9816319
   -2.9884712   53.9806976
   -2.9888742   53.9797985
   -2.9893637   53.9789434
   -2.9899350   53.9781407
   -2.9905825   53.9773981
   -2.9912999   53.9767228
   -2.9920803   53.9761214
   -2.9929161   53.9755997
   -2.9937992   53.9751628
   -2.9947210   53.9748149
   -3.0755410   53.9487834
   -3.0757565   53.9487025
   -3.0757267   53.9484742
   -3.0628640   53.8768443
   -3.0627267   53.8757102
   -3.0627196   53.8745678
   -3.0628428   53.8734321
   -3.0921152   53.6978849
   -3.0921435   53.6976410
   -3.0921380   53.6976219
   -3.0919094   53.6966535
   -3.0917782   53.6956672
   -3.0917457   53.6946728
   -3.0918121   53.6936800
   -3.0919769   53.6926987
   -3.0922384   53.6917387
   -3.0925940   53.6908094
   -3.0930402   53.6899200
   -3.0935725   53.6890794
   -3.0941858   53.6882959
   -3.0948739   53.6875771
   -3.0956300   53.6869304
   -3.0964467   53.6863619
   -3.0973158   53.6858774
   -3.0982287   53.6854817
   -3.0991764   53.6851787
   -3.1001496   53.6849714
   -3.1011386   53.6848618
   -3.3425298   53.6702152
   -3.3427651   53.6701890
   -3.3427062   53.6699597
   -3.2744650   53.4506125
   -3.2743937   53.4504134
   -3.2743057   53.4502210
   -3.2330923   53.3693390
   -3.2326908   53.3684453
   -3.2323786   53.3675165
   -3.2321589   53.3665617
   -3.2320336   53.3655900
   -3.2320041   53.3646106
   -3.2320705   53.3636331
   -3.2322322   53.3626667
   -3.2324878   53.3617209
   -3.2328347   53.3608046
   -3.2332696   53.3599266
   -3.2337883   53.3590954
   -3.2343859   53.3583189
   -3.2350566   53.3576047
   -3.2357939   53.3569595
   -3.2365909   53.3563896
   -3.2374398   53.3559004
   -3.2383325   53.3554966
   -3.2392605   53.3551821
   -3.2402147   53.3549600
   -3.2411862   53.3548323
   -3.2421654   53.3548002
   -3.2431431   53.3548642
   -3.2441099   53.3550235
   -3.2450564   53.3552767
   -3.2459736   53.3556213
   -3.2468526   53.3560540
   -3.2476851   53.3565706
   -3.2484631   53.3571662
   -3.2491790   53.3578351
   -3.2963400   53.4064382
   -3.2965024   53.4065912
   -3.2967087   53.4066772
   -3.3555654   53.4281446
   -3.3566110   53.4285950
   -3.4091333   53.4548567
   -3.4098504   53.4552527
   -3.5353568   53.5314433
   -3.5355873   53.5315671
   -3.5358385   53.5316399
   -3.6977345   53.5694700
   -4.1167448   54.5259503
   -4.1168270   54.5261656
END
4
   -3.2966070   54.9662273
   -3.2958889   54.9661604
   -3.2952742   54.9656895
   -3.2945579   54.9650195
   -3.2939106   54.9642827
   -3.2933386   54.9634859
   -3.2928475   54.9626370
   -3.2924418   54.9617440
   -3.2921256   54.9608156
   -3.2919018   54.9598606
   -3.2917727   54.9588884
   -3.2917394   54.9579082
   -3.2918024   54.9569294
   -3.2919609   54.9559615
   -3.2922134   54.9550138
   -3.2925576   54.9540953
   -3.2929901   54.9532150
   -3.2935067   54.9523814
   -3.2941026   54.9516023
   -3.2947719   54.9508853
   -3.2955082   54.9502374
   -3.2963044   54.9496647
   -3.2971529   54.9491728
   -3.3431418   54.9254434
   -3.3440459   54.9250324
   -3.3449863   54.9247131
   -3.3459537   54.9244886
   -3.3469386   54.9243612
   -3.3479313   54.9243322
   -3.3489220   54.9244017
   -3.3499008   54.9245692
   -3.3508583   54.9248329
   -3.3517849   54.9251903
   -3.3526714   54.9256379
   -3.3535092   54.9261711
   -3.3542900   54.9267849
   -3.3550060   54.9274730
   -3.3556502   54.9282288
   -3.3562163   54.9290448
   -3.3566987   54.9299128
   -3.3570926   54.9308245
   -3.3573942   54.9317707
   -3.3576003   54.9327422
   -3.3577092   54.9337293
   -3.3577195   54.9347224
   -3.3576313   54.9357116
   -3.3574455   54.9366871
   -3.3571638   54.9376394
   -3.3567890   54.9385591
   -3.3563248   54.9394371
   -3.3557759   54.9402647
   -3.3551476   54.9410337
   -3.3544460   54.9417367
   -3.3536783   54.9423666
   -3.3528518   54.9429172
   -3.3152086   54.9653816
   -3.2973101   54.9662431
   -3.2966070   54.9662273
END
END
