europe-spain-north
1
   -9.7787720   44.1485372
   -7.1886406   44.0110103
   -4.4477809   43.8654804
   -4.4475472   43.8654738
   -3.1452214   43.7963227
   -3.1449940   43.7962997
   -3.1449854   43.7960713
   -3.1454052   43.7540777
   -3.1453641   43.7530667
   -3.1452211   43.7520650
   -3.1449775   43.7510828
   -3.1446360   43.7501304
   -3.1441999   43.7492173
   -3.1436738   43.7483529
   -3.1430630   43.7475462
   -3.1423739   43.7468052
   -3.1416134   43.7461378
   -3.1407893   43.7455506
   -3.1399101   43.7450497
   -3.1389848   43.7446402
   -3.1380228   43.7443263
   -3.1370341   43.7441112
   -3.1360287   43.7439972
   -1.6665288   43.6522753
   -1.6662999   43.6522497
   -1.6663693   43.6520300
   -1.7656234   43.3843209
   -1.7657182   43.3840994
   -1.7659420   43.3840103
   -1.7759490   43.3805898
   -1.7768716   43.3802224
   -1.7777532   43.3797652
   -1.7785850   43.3792229
   -1.7793590   43.3786008
   -1.7800675   43.3779049
   -1.7807034   43.3771422
   -1.7812606   43.3763202
   -1.7817335   43.3754470
   -1.7821175   43.3745312
   -1.7824087   43.3735819
   -1.7826044   43.3726083
   -1.7827025   43.3716201
   -1.7827021   43.3706271
   -1.7826033   43.3696390
   -1.7824069   43.3686656
   -1.7821149   43.3677164
   -1.7817303   43.3668009
   -1.7812568   43.3659281
   -1.7806990   43.3651065
   -1.7800624   43.3643443
   -1.7793535   43.3636490
   -1.7785790   43.3630274
   -1.7785238   43.3629874
   -1.7788121   43.3626149
   -1.7793874   43.3617887
   -1.7798767   43.3609089
   -1.7802750   43.3599843
   -1.7805784   43.3590243
   -1.7807836   43.3580388
   -1.7808888   43.3570375
   -1.7808928   43.3560308
   -1.7807955   43.3550287
   -1.7805979   43.3540416
   -1.7803021   43.3530792
   -1.7799110   43.3521515
   -1.7794287   43.3512679
   -1.7788599   43.3504372
   -1.7782105   43.3496679
   -1.7774870   43.3489678
   -1.7771364   43.3486910
   -1.7769191   43.3485022
   -1.7766758   43.3481174
   -1.7761036   43.3473046
   -1.7754534   43.3465526
   -1.7747319   43.3458689
   -1.7739460   43.3452602
   -1.7731036   43.3447325
   -1.7722130   43.3442911
   -1.7712829   43.3439403
   -1.7703226   43.3436835
   -1.7693416   43.3435234
   -1.7683495   43.3434614
   -1.7673561   43.3434983
   -1.7663713   43.3436336
   -1.7611571   43.3446161
   -1.7609235   43.3446487
   -1.7606879   43.3446367
   -1.7568080   43.3442537
   -1.7565719   43.3442188
   -1.7563663   43.3440977
   -1.7525588   43.3415991
   -1.7523711   43.3414629
   -1.7522855   43.3412474
   -1.7518506   43.3399828
   -1.7514991   43.3390995
   -1.7510653   43.3382536
   -1.7505531   43.3374526
   -1.7499672   43.3367040
   -1.7493129   43.3360143
   -1.7485960   43.3353899
   -1.7478230   43.3348364
   -1.7470010   43.3343589
   -1.7461374   43.3339615
   -1.7414739   43.3320790
   -1.7409282   43.3318769
   -1.7368420   43.3304979
   -1.7366227   43.3304118
   -1.7366164   43.3301763
   -1.7367991   43.3218859
   -1.7368190   43.3216226
   -1.7369180   43.3212882
   -1.7371431   43.3203710
   -1.7372807   43.3194366
   -1.7373295   43.3184934
   -1.7372891   43.3175498
   -1.7371599   43.3166143
   -1.7369430   43.3156950
   -1.7366403   43.3148004
   -1.7362546   43.3139383
   -1.7357893   43.3131164
   -1.7356619   43.3129341
   -1.7354588   43.3126149
   -1.7353558   43.3124155
   -1.7328592   43.3069978
   -1.7324173   43.3061484
   -1.7318962   43.3053451
   -1.7313007   43.3045954
   -1.7306362   43.3039061
   -1.7299088   43.3032834
   -1.7291252   43.3027332
   -1.7282926   43.3022605
   -1.7274185   43.3018695
   -1.7265111   43.3015639
   -1.7255787   43.3013466
   -1.7246297   43.3012193
   -1.7236729   43.3011835
   -1.7227170   43.3012393
   -1.7223930   43.3012738
   -1.7172583   43.3015840
   -1.7163314   43.3016835
   -1.7154178   43.3018689
   -1.7145255   43.3021386
   -1.7136621   43.3024902
   -1.7128352   43.3029207
   -1.7120520   43.3034263
   -1.7113193   43.3040026
   -1.7106435   43.3046447
   -1.7065808   43.3088814
   -1.7063922   43.3090586
   -1.7061582   43.3091690
   -1.6988966   43.3121407
   -1.6986508   43.3122266
   -1.6983926   43.3122594
   -1.6928828   43.3126676
   -1.6925819   43.3126717
   -1.6922826   43.3126394
   -1.6862223   43.3116110
   -1.6852434   43.3114942
   -1.6842578   43.3114744
   -1.6832750   43.3115516
   -1.6823046   43.3117253
   -1.6813560   43.3119937
   -1.6680537   43.3164763
   -1.6678345   43.3165391
   -1.6676103   43.3164977
   -1.6544727   43.3134400
   -1.6542203   43.3133670
   -1.6539889   43.3132426
   -1.6487456   43.3100561
   -1.6479370   43.3096143
   -1.6470912   43.3092489
   -1.6462153   43.3089628
   -1.6453169   43.3087586
   -1.6444034   43.3086380
   -1.6434827   43.3086019
   -1.6425626   43.3086508
   -1.6357500   43.3093282
   -1.6355309   43.3093403
   -1.6353139   43.3093138
   -1.6220862   43.3071113
   -1.6218502   43.3070597
   -1.6218387   43.3068184
   -1.6218563   43.3008586
   -1.6218674   43.3006322
   -1.6219585   43.3004252
   -1.6270401   43.2901704
   -1.6274214   43.2892989
   -1.6277182   43.2883951
   -1.6279278   43.2874671
   -1.6280483   43.2865235
   -1.6280786   43.2855726
   -1.6280183   43.2846232
   -1.6278682   43.2836838
   -1.6276294   43.2827630
   -1.6273042   43.2818690
   -1.6235041   43.2727910
   -1.6231405   43.2720170
   -1.6227121   43.2712769
   -1.6165218   43.2615665
   -1.6159281   43.2607326
   -1.6152523   43.2599638
   -1.6145014   43.2592682
   -1.6136833   43.2586529
   -1.6128067   43.2581245
   -1.6118806   43.2576884
   -1.6109148   43.2573494
   -1.6099193   43.2571108
   -1.6089047   43.2569752
   -1.5814190   43.2547270
   -1.5804140   43.2546955
   -1.5794108   43.2547651
   -1.5784197   43.2549351
   -1.5774507   43.2552038
   -1.5765136   43.2555684
   -1.5756178   43.2560254
   -1.5747725   43.2565699
   -1.5739861   43.2571966
   -1.5696433   43.2610300
   -1.5688994   43.2617590
   -1.5682354   43.2625614
   -1.5676584   43.2634286
   -1.5671747   43.2643510
   -1.5667897   43.2653188
   -1.5665073   43.2663213
   -1.5663308   43.2673478
   -1.5662620   43.2683870
   -1.5659845   43.2881977
   -1.5659688   43.2884413
   -1.5657436   43.2885356
   -1.5570201   43.2916796
   -1.5567942   43.2917491
   -1.5565627   43.2917969
   -1.5355788   43.2951022
   -1.5353383   43.2951282
   -1.5350965   43.2951308
   -1.5062987   43.2940386
   -1.5060743   43.2940199
   -1.5058810   43.2939042
   -1.5037021   43.2924619
   -1.5035241   43.2923324
   -1.5033582   43.2921877
   -1.4984571   43.2875169
   -1.4980550   43.2871540
   -1.4961614   43.2855357
   -1.4954137   43.2849556
   -1.4946146   43.2844488
   -1.4937711   43.2840198
   -1.4928908   43.2836724
   -1.4919816   43.2834098
   -1.4910517   43.2832344
   -1.4901094   43.2831476
   -1.4891631   43.2831503
   -1.4882212   43.2832424
   -1.4872923   43.2834231
   -1.4863847   43.2836909
   -1.4844691   43.2843559
   -1.4842266   43.2844264
   -1.4839807   43.2843690
   -1.4315201   43.2692394
   -1.4306018   43.2690209
   -1.4296671   43.2688900
   -1.4287241   43.2688478
   -1.4277814   43.2688947
   -1.4268473   43.2690303
   -1.4259301   43.2692533
   -1.4250381   43.2695619
   -1.4241791   43.2699531
   -1.4159806   43.2741654
   -1.4157752   43.2742593
   -1.4155512   43.2742321
   -1.4074211   43.2728681
   -1.4071979   43.2728200
   -1.4070075   43.2726950
   -1.3780431   43.2517249
   -1.3778541   43.2515732
   -1.3778052   43.2513359
   -1.3751764   43.2343755
   -1.3751526   43.2341602
   -1.3751853   43.2339461
   -1.3819596   43.1996625
   -1.3821002   43.1987134
   -1.3821492   43.1977551
   -1.3821062   43.1967966
   -1.3819715   43.1958467
   -1.3817464   43.1949140
   -1.3814329   43.1940072
   -1.3810340   43.1931346
   -1.3805532   43.1923042
   -1.3799951   43.1915238
   -1.3793648   43.1908004
   -1.3786681   43.1901407
   -1.3781539   43.1897400
   -1.3781553   43.1897382
   -1.3777770   43.1894422
   -1.3779816   43.1893364
   -1.3933307   43.1823463
   -1.3942384   43.1818755
   -1.3950932   43.1813145
   -1.3958863   43.1806691
   -1.3966094   43.1799461
   -1.3972548   43.1791530
   -1.3978159   43.1782982
   -1.3982867   43.1773905
   -1.3986624   43.1764395
   -1.3989390   43.1754551
   -1.3991137   43.1744476
   -1.4013192   43.1562315
   -1.4013557   43.1560121
   -1.4014305   43.1558035
   -1.4129489   43.1276401
   -1.4130534   43.1274169
   -1.4132189   43.1272343
   -1.4254682   43.1149966
   -1.4256524   43.1148301
   -1.4258661   43.1147035
   -1.4621480   43.0955801
   -1.4629659   43.0950980
   -1.4637344   43.0945406
   -1.4644466   43.0939128
   -1.4650960   43.0932203
   -1.4656769   43.0924693
   -1.4661839   43.0916666
   -1.4666125   43.0908195
   -1.4669588   43.0899355
   -1.4672197   43.0890227
   -1.4673929   43.0880892
   -1.4674768   43.0871435
   -1.4674707   43.0861942
   -1.4673745   43.0852496
   -1.4665406   43.0796930
   -1.4663488   43.0787359
   -1.4660646   43.0778020
   -1.4656907   43.0769003
   -1.4652307   43.0760394
   -1.4646889   43.0752274
   -1.4640705   43.0744721
   -1.4417244   43.0497459
   -1.4409753   43.0490003
   -1.4401516   43.0483379
   -1.4392626   43.0477661
   -1.4383183   43.0472914
   -1.4373291   43.0469190
   -1.4363062   43.0466531
   -1.3635328   43.0317915
   -1.3625589   43.0316421
   -1.3615749   43.0315893
   -1.3605906   43.0316337
   -1.3596154   43.0317746
   -1.3586588   43.0320109
   -1.3577301   43.0323402
   -1.3568383   43.0327592
   -1.3559920   43.0332640
   -1.3551996   43.0338496
   -1.3544687   43.0345104
   -1.3538063   43.0352399
   -1.3532189   43.0360311
   -1.3527123   43.0368762
   -1.3522912   43.0377670
   -1.3466561   43.0513906
   -1.3463006   43.0523999
   -1.3460550   43.0534414
   -1.3459221   43.0545032
   -1.3459033   43.0555731
   -1.3472327   43.0924487
   -1.3472303   43.0926763
   -1.3470911   43.0928563
   -1.3282108   43.1150731
   -1.3280462   43.1152486
   -1.3278076   43.1152800
   -1.2671387   43.1202496
   -1.2669112   43.1202569
   -1.2670188   43.1200563
   -1.2710261   43.1134104
   -1.2711613   43.1132092
   -1.2713755   43.1130957
   -1.2782766   43.1098586
   -1.2791684   43.1093839
   -1.2800077   43.1088217
   -1.2807861   43.1081776
   -1.2814955   43.1074583
   -1.2821287   43.1066711
   -1.2826792   43.1058241
   -1.2830486   43.1051875
   -1.2831775   43.1049881
   -1.2833716   43.1048515
   -1.2888312   43.1013887
   -1.2896944   43.1007747
   -1.2904878   43.1000729
   -1.2912025   43.0992912
   -1.2972661   43.0919089
   -1.2977906   43.0912102
   -1.2982522   43.0904683
   -1.2986472   43.0896891
   -1.3024022   43.0814021
   -1.3027712   43.0804650
   -1.3030440   43.0794955
   -1.3032179   43.0785035
   -1.3032912   43.0774990
   -1.3032630   43.0764923
   -1.3031338   43.0754935
   -1.3029047   43.0745128
   -1.3025782   43.0735600
   -1.3021574   43.0726450
   -1.3016468   43.0717769
   -1.3010514   43.0709646
   -1.3003774   43.0702163
   -1.2996315   43.0695396
   -1.2988213   43.0689413
   -1.2979550   43.0684276
   -1.2970415   43.0680036
   -1.2960900   43.0676737
   -1.2956696   43.0675512
   -1.2953891   43.0674605
   -1.2856573   43.0639920
   -1.2849940   43.0636998
   -1.2570027   43.0488541
   -1.2561402   43.0484481
   -1.2552429   43.0481260
   -1.2543190   43.0478909
   -1.2533769   43.0477448
   -1.2524252   43.0476891
   -1.2514725   43.0477242
   -1.2505275   43.0478500
   -1.2495987   43.0480651
   -1.2486947   43.0483677
   -1.2273549   43.0566614
   -1.2271266   43.0567375
   -1.2268944   43.0566745
   -1.1643624   43.0363775
   -1.1637762   43.0361454
   -1.1371692   43.0236139
   -1.1362340   43.0232300
   -1.1352649   43.0229424
   -1.1342717   43.0227541
   -1.1332646   43.0226671
   -1.1322539   43.0226822
   -1.1312498   43.0227992
   -1.1134035   43.0258006
   -1.1131704   43.0258284
   -1.1129503   43.0257465
   -1.0799752   43.0116463
   -1.0797610   43.0115420
   -1.0797341   43.0113487
   -1.0796858   43.0108027
   -1.0795098   43.0098590
   -1.0792442   43.0089365
   -1.0788913   43.0080437
   -1.0784544   43.0071889
   -1.0779376   43.0063799
   -1.0773456   43.0056242
   -1.0766839   43.0049287
   -1.0759585   43.0042999
   -1.0751762   43.0037436
   -1.0743441   43.0032648
   -1.0734699   43.0028680
   -1.0725618   43.0025569
   -1.0716280   43.0023343
   -1.0706771   43.0022022
   -1.0146219   42.9971448
   -1.0143517   42.9971053
   -1.0141091   42.9969801
   -0.9462309   42.9570732
   -0.9453638   42.9566190
   -0.9444565   42.9562518
   -0.9435176   42.9559750
   -0.9425561   42.9557913
   -0.9415813   42.9557025
   -0.9406025   42.9557095
   -0.9303593   42.9562842
   -0.9293518   42.9563921
   -0.9283605   42.9566014
   -0.9273955   42.9569100
   -0.9264666   42.9573146
   -0.9255834   42.9578112
   -0.9247550   42.9583945
   -0.9146392   42.9663141
   -0.9144365   42.9664568
   -0.9141897   42.9664334
   -0.8958061   42.9637463
   -0.8955664   42.9636989
   -0.8953423   42.9632611
   -0.8948610   42.9624232
   -0.8943011   42.9616356
   -0.8936678   42.9609058
   -0.8929670   42.9602405
   -0.8922052   42.9596460
   -0.8913897   42.9591278
   -0.8905279   42.9586907
   -0.8896279   42.9583388
   -0.8886982   42.9580754
   -0.8877474   42.9579030
   -0.8867844   42.9578231
   -0.8388946   42.9561754
   -0.8385821   42.9561548
   -0.8174972   42.9541020
   -0.8165821   42.9540551
   -0.8156666   42.9540921
   -0.8147583   42.9542128
   -0.8138649   42.9544161
   -0.8129938   42.9547003
   -0.8121525   42.9550631
   -0.8113478   42.9555013
   -0.7944672   42.9657248
   -0.7942734   42.9658307
   -0.7940586   42.9658817
   -0.7718191   42.9701330
   -0.7715198   42.9701716
   -0.7712179   42.9701737
   -0.7478322   42.9689128
   -0.7476013   42.9688893
   -0.7474674   42.9686997
   -0.7166178   42.9202614
   -0.7165273   42.9200995
   -0.7166227   42.9198914
   -0.7232117   42.9071243
   -0.7236120   42.9062473
   -0.7239261   42.9053357
   -0.7241509   42.9043982
   -0.7242843   42.9034433
   -0.7243252   42.9024801
   -0.7242731   42.9015174
   -0.7241286   42.9005641
   -0.7238929   42.8996293
   -0.7235684   42.8987214
   -0.7231578   42.8978491
   -0.7226652   42.8970203
   -0.7220951   42.8962428
   -0.7214528   42.8955238
   -0.7207442   42.8948701
   -0.7199759   42.8942876
   -0.7191551   42.8937818
   -0.6995601   42.8829738
   -0.6987077   42.8825551
   -0.6978195   42.8822192
   -0.6969034   42.8819691
   -0.6959677   42.8818070
   -0.6950208   42.8817343
   -0.6940714   42.8817519
   -0.6931278   42.8818594
   -0.6921988   42.8820559
   -0.6912925   42.8823396
   -0.6904173   42.8827081
   -0.6794800   42.8879367
   -0.6792650   42.8880271
   -0.6790674   42.8879034
   -0.6006807   42.8334450
   -0.6004825   42.8332918
   -0.6003839   42.8330616
   -0.5939638   42.8156820
   -0.5935694   42.8147595
   -0.5930846   42.8138813
   -0.5925142   42.8130560
   -0.5918639   42.8122920
   -0.5911405   42.8115970
   -0.5903510   42.8109780
   -0.5895034   42.8104412
   -0.5886064   42.8099921
   -0.5876688   42.8096351
   -0.5867002   42.8093738
   -0.5857103   42.8092109
   -0.5847091   42.8091480
   -0.5837066   42.8091857
   -0.5827129   42.8093237
   -0.5727465   42.8112214
   -0.5724943   42.8112559
   -0.5722830   42.8111139
   -0.5651498   42.8057590
   -0.5649499   42.8055917
   -0.5648619   42.8053463
   -0.5623190   42.7968659
   -0.5619888   42.7959347
   -0.5615684   42.7950406
   -0.5610617   42.7941924
   -0.5604739   42.7933983
   -0.5598105   42.7926661
   -0.5590781   42.7920030
   -0.5582839   42.7914153
   -0.5574356   42.7909089
   -0.5565414   42.7904887
   -0.5556101   42.7901588
   -0.5546508   42.7899223
   -0.5536728   42.7897817
   -0.5526858   42.7897383
   -0.5516993   42.7897925
   -0.5507229   42.7899438
   -0.5497663   42.7901906
   -0.5488386   42.7905307
   -0.5479491   42.7909607
   -0.5471063   42.7914763
   -0.5463185   42.7920726
   -0.5455935   42.7927437
   -0.5427961   42.7956021
   -0.5426169   42.7957679
   -0.5423731   42.7957800
   -0.5379098   42.7957800
   -0.5369159   42.7958295
   -0.5359318   42.7959776
   -0.5349674   42.7962227
   -0.5340321   42.7965624
   -0.5331352   42.7969934
   -0.5322856   42.7975115
   -0.5314916   42.7981114
   -0.5307612   42.7987872
   -0.5301016   42.7995323
   -0.5295194   42.8003393
   -0.5290202   42.8012001
   -0.5286090   42.8021063
   -0.5282899   42.8030489
   -0.5280661   42.8040185
   -0.5279398   42.8050056
   -0.5279122   42.8060003
   -0.5279654   42.8084177
   -0.5279583   42.8086670
   -0.5278539   42.8088935
   -0.5231748   42.8178247
   -0.5230530   42.8180320
   -0.5228617   42.8181777
   -0.5045370   42.8307752
   -0.5043406   42.8308969
   -0.5041369   42.8307878
   -0.4734811   42.8124370
   -0.4725610   42.8119494
   -0.4715952   42.8115602
   -0.4434122   42.8018738
   -0.4424539   42.8015970
   -0.4414728   42.8014171
   -0.4404786   42.8013358
   -0.4394813   42.8013540
   -0.4384907   42.8014714
   -0.4375168   42.8016870
   -0.4365692   42.8019985
   -0.4156371   42.8100568
   -0.4154204   42.8101289
   -0.4151985   42.8100759
   -0.3974165   42.8049504
   -0.3964559   42.8047241
   -0.3954776   42.8045937
   -0.3944912   42.8045604
   -0.3935064   42.8046244
   -0.3925327   42.8047852
   -0.3915795   42.8050412
   -0.3906562   42.8053899
   -0.3897718   42.8058279
   -0.3889349   42.8063510
   -0.3881537   42.8069540
   -0.3819592   42.8122427
   -0.3817692   42.8123897
   -0.3815451   42.8124760
   -0.3709336   42.8159841
   -0.3700147   42.8163389
   -0.3691352   42.8167825
   -0.3683036   42.8173104
   -0.3675280   42.8179176
   -0.3668158   42.8185982
   -0.3661741   42.8193455
   -0.3515023   42.8382400
   -0.3513404   42.8384281
   -0.3510951   42.8384654
   -0.3345519   42.8401354
   -0.3343104   42.8401478
   -0.3340938   42.8400463
   -0.3337012   42.8398372
   -0.3328271   42.8394732
   -0.3319225   42.8391935
   -0.3309955   42.8390006
   -0.3300544   42.8388962
   -0.3291077   42.8388813
   -0.3281638   42.8389560
   -0.3272312   42.8391197
   -0.3263182   42.8393708
   -0.3254331   42.8397072
   -0.3245838   42.8401258
   -0.3237779   42.8406228
   -0.3230226   42.8411938
   -0.3223247   42.8418337
   -0.3137225   42.8505051
   -0.3135475   42.8506649
   -0.3133443   42.8505429
   -0.3027393   42.8434414
   -0.3019353   42.8429561
   -0.3010893   42.8425483
   -0.3002087   42.8422217
   -0.2993014   42.8419792
   -0.2983754   42.8418228
   -0.2781804   42.8393815
   -0.2779252   42.8393370
   -0.2777104   42.8391924
   -0.2602895   42.8260935
   -0.2594941   42.8255532
   -0.2586504   42.8250918
   -0.2577663   42.8247136
   -0.2568500   42.8244221
   -0.2559099   42.8242199
   -0.2549547   42.8241090
   -0.2539933   42.8240903
   -0.2423731   42.8244232
   -0.2421423   42.8244189
   -0.2419932   42.8242426
   -0.2334355   42.8130947
   -0.2328536   42.8124037
   -0.2322117   42.8117681
   -0.2315151   42.8111929
   -0.2307694   42.8106830
   -0.2299808   42.8102424
   -0.2291556   42.8098748
   -0.1977381   42.7975483
   -0.1971051   42.7972471
   -0.1842658   42.7899914
   -0.1834107   42.7895608
   -0.1825184   42.7892139
   -0.1815969   42.7889540
   -0.1806548   42.7887834
   -0.1797008   42.7887036
   -0.1787434   42.7887155
   -0.1777916   42.7888189
   -0.1768541   42.7890128
   -0.1759394   42.7892954
   -0.1750559   42.7896643
   -0.1742117   42.7901159
   -0.1734146   42.7906463
   -0.1726718   42.7912504
   -0.1627481   42.8001441
   -0.1625604   42.8002962
   -0.1623306   42.8002217
   -0.1573149   42.7983169
   -0.1570941   42.7982205
   -0.1569638   42.7980178
   -0.1444090   42.7762076
   -0.1438019   42.7752768
   -0.1430953   42.7744191
   -0.1002524   42.7279375
   -0.0995505   42.7272475
   -0.0987842   42.7266298
   -0.0979608   42.7260905
   -0.0970885   42.7256347
   -0.0961755   42.7252668
   -0.0952309   42.7249905
   -0.0651781   42.7177852
   -0.0649560   42.7177207
   -0.0648582   42.7175111
   -0.0589883   42.7031971
   -0.0585670   42.7022994
   -0.0580589   42.7014478
   -0.0574689   42.7006507
   -0.0568029   42.6999160
   -0.0560673   42.6992508
   -0.0552695   42.6986618
   -0.0544173   42.6981547
   -0.0535190   42.6977345
   -0.0525836   42.6974053
   -0.0516201   42.6971704
   -0.0052232   42.6882696
   -0.0042513   42.6881322
   -0.0032706   42.6880908
   -0.0022905   42.6881457
   -0.0013206   42.6882964
   -0.0003701   42.6885415
   0.0005518   42.6888786
   0.0014363   42.6893044
   0.0022747   42.6898150
   0.0030590   42.6904052
   0.0037816   42.6910695
   0.0044357   42.6918015
   0.0135190   42.7030309
   0.0136776   42.7032085
   0.0139152   42.7032237
   0.0603686   42.7039269
   0.0613536   42.7039905
   0.0623275   42.7041510
   0.0632809   42.7044066
   0.0642044   42.7047550
   0.0650891   42.7051927
   0.0659263   42.7057156
   0.0667079   42.7063184
   0.0674262   42.7069953
   0.0784558   42.7184682
   0.0786255   42.7186286
   0.0788590   42.7186274
   0.1240339   42.7162391
   0.1250133   42.7162354
   0.1259883   42.7163274
   0.1269496   42.7165144
   0.1278881   42.7167946
   0.1287946   42.7171651
   0.1296606   42.7176226
   0.1304776   42.7181626
   0.1312379   42.7187800
   0.1319341   42.7194687
   0.1349349   42.7227429
   0.1350941   42.7229016
   0.1352988   42.7229932
   0.1754301   42.7388261
   0.1756689   42.7389065
   0.1759165   42.7388597
   0.2610808   42.7182119
   0.2613285   42.7181379
   0.2615057   42.7179497
   0.2910561   42.6830755
   0.2917178   42.6823673
   0.2924449   42.6817264
   0.2932307   42.6811590
   0.2940676   42.6806703
   0.2949480   42.6802649
   0.2958635   42.6799467
   0.2968055   42.6797185
   0.2977651   42.6795827
   0.2987334   42.6795403
   0.2997013   42.6795919
   0.3006596   42.6797370
   0.3015993   42.6799742
   0.3025117   42.6803012
   0.3120763   42.6842622
   0.3129203   42.6846588
   0.3137237   42.6851323
   0.3144795   42.6856786
   0.3151811   42.6862929
   0.3158225   42.6869699
   0.3163980   42.6877037
   0.3169026   42.6884879
   0.3173320   42.6893157
   0.3176824   42.6901800
   0.3236716   42.7071888
   0.3237625   42.7074115
   0.3239740   42.7075262
   0.3598597   42.7247666
   0.3600758   42.7248580
   0.3603020   42.7247957
   0.3924009   42.7142868
   0.3926014   42.7142115
   0.3927947   42.7141193
   0.4300039   42.6943583
   0.4309221   42.6939288
   0.4318789   42.6935945
   0.4328647   42.6933588
   0.4338693   42.6932241
   0.4348824   42.6931918
   0.4358936   42.6932622
   0.4368924   42.6934346
   0.4752536   42.7020781
   0.4754838   42.7021186
   0.4757128   42.7020714
   0.5079637   42.6938128
   0.5089465   42.6936131
   0.5099444   42.6935128
   0.5109472   42.6935129
   0.5119450   42.6936135
   0.5129278   42.6938135
   0.5138855   42.6941110
   0.5148086   42.6945028
   0.5156879   42.6949852
   0.5165144   42.6955532
   0.5281889   42.7044702
   0.5283883   42.7046075
   0.5286294   42.7045863
   0.5799512   42.6975084
   0.5809105   42.6974229
   0.5818737   42.6974301
   0.5828317   42.6975300
   0.5837756   42.6977215
   0.5846967   42.6980029
   0.5855865   42.6983717
   0.5864367   42.6988244
   0.5872394   42.6993567
   0.5879871   42.6999638
   0.5886730   42.7006400
   0.5892906   42.7013791
   0.5898343   42.7021742
   0.5902989   42.7030179
   0.5922456   42.7069946
   0.5923628   42.7072063
   0.5926025   42.7071728
   0.6614997   42.6939732
   0.6617205   42.6939203
   0.6618950   42.6937749
   0.6991993   42.6596597
   0.7002380   42.6588295
   0.7701255   42.6102222
   0.7703164   42.6100748
   0.7702727   42.6098376
   0.7608918   42.5701619
   0.7523822   42.5345589
   0.7521887   42.5339338
   0.7411585   42.5051320
   0.7410497   42.5048881
   0.7408689   42.5046915
   0.7168943   42.4812842
   0.7162266   42.4805650
   0.7156326   42.4797838
   0.7151180   42.4789481
   0.7146878   42.4780660
   0.7143462   42.4771460
   0.7140964   42.4761970
   0.7139408   42.4752280
   0.7138809   42.4742484
   0.7139174   42.4732677
   0.7168424   42.4394325
   0.7169696   42.4384884
   0.7171860   42.4375607
   0.7174897   42.4366577
   0.7178780   42.4357878
   0.7183473   42.4349588
   0.7188933   42.4341782
   0.7195111   42.4334530
   0.7201952   42.4327900
   0.7209392   42.4321951
   0.7217364   42.4316736
   0.7280745   42.4279467
   0.7282658   42.4278221
   0.7283990   42.4276372
   0.7385983   42.4120245
   0.7387322   42.4117935
   0.7388405   42.4115494
   0.7482635   42.3868279
   0.7487675   42.3857151
   0.7494033   42.3846722
   0.7724225   42.3516401
   0.7725497   42.3514373
   0.7725203   42.3511996
   0.7676368   42.3230641
   0.7674942   42.3224647
   0.7190554   42.1632216
   0.7188238   42.1623075
   0.7067761   42.1031661
   0.7067198   42.1029431
   0.7066432   42.1027262
   0.6680196   42.0075510
   0.6679248   42.0073448
   0.6677946   42.0071599
   0.6467465   41.9799703
   0.6459499   41.9787723
   0.6121784   41.9190680
   0.6117595   41.9182402
   0.6114192   41.9173771
   0.6111604   41.9164862
   0.6109852   41.9155752
   0.6108952   41.9146518
   0.6108912   41.9137240
   0.6126488   41.8719724
   0.6126473   41.8717356
   0.6124648   41.8715846
   0.5816105   41.8484849
   0.5814139   41.8483520
   0.5811773   41.8483715
   0.5689364   41.8499810
   0.5679720   41.8500606
   0.5670044   41.8500466
   0.5660427   41.8499391
   0.5650959   41.8497392
   0.5641728   41.8494487
   0.5632822   41.8490704
   0.5624323   41.8486077
   0.5616310   41.8480651
   0.5608860   41.8474476
   0.5602042   41.8467609
   0.5595919   41.8460115
   0.5590549   41.8452065
   0.5585983   41.8443534
   0.5463367   41.8185133
   0.5462156   41.8182888
   0.5460146   41.8181318
   0.4659002   41.7619684
   0.4657120   41.7618487
   0.4655139   41.7617462
   0.3988214   41.7309596
   0.3977761   41.7303997
   0.3968044   41.7297199
   0.3396403   41.6844518
   0.3389116   41.6838151
   0.3382479   41.6831109
   0.3376554   41.6823458
   0.3371395   41.6815270
   0.3367053   41.6806623
   0.3363566   41.6797595
   0.3360969   41.6788274
   0.3359284   41.6778744
   0.3358529   41.6769097
   0.3358709   41.6759422
   0.3359824   41.6749809
   0.3361863   41.6740349
   0.3364807   41.6731131
   0.3368627   41.6722240
   0.3373290   41.6713760
   0.3615642   41.6319447
   0.3616779   41.6317380
   0.3616381   41.6315054
   0.3576760   41.6135817
   0.3575127   41.6126244
   0.3574430   41.6116557
   0.3574676   41.6106849
   0.3575862   41.6097210
   0.3577978   41.6087732
   0.3581003   41.6078504
   0.3584909   41.6069613
   0.3589659   41.6061143
   0.3595208   41.6053173
   0.3601504   41.6045779
   0.3608488   41.6039031
   0.3616093   41.6032992
   0.3624249   41.6027719
   0.3632877   41.6023262
   0.3641897   41.6019663
   0.3651223   41.6016956
   0.3660768   41.6015166
   0.3670442   41.6014311
   0.3680153   41.6014398
   0.4304485   41.6050356
   0.4306896   41.6050375
   0.4307788   41.6048135
   0.4524181   41.5414570
   0.4524851   41.5412231
   0.4523242   41.5410407
   0.3970435   41.4843168
   0.3968763   41.4841604
   0.3966485   41.4841376
   0.3616356   41.4822708
   0.3606459   41.4821685
   0.3596713   41.4819683
   0.3587214   41.4816723
   0.3578056   41.4812833
   0.3569330   41.4808053
   0.3561122   41.4802429
   0.3553514   41.4796017
   0.3546581   41.4788881
   0.3540391   41.4781092
   0.3535006   41.4772726
   0.3530478   41.4763866
   0.3526854   41.4754600
   0.3524168   41.4745020
   0.3522448   41.4735220
   0.3521710   41.4725298
   0.3521961   41.4715352
   0.3523200   41.4705479
   0.3525413   41.4695779
   0.3528580   41.4686347
   0.3532668   41.4677276
   0.3614035   41.4518356
   0.3615053   41.4516091
   0.3614351   41.4513709
   0.3491782   41.4164469
   0.3488959   41.4154933
   0.3487098   41.4145163
   0.3486216   41.4135257
   0.3486322   41.4125312
   0.3487416   41.4115427
   0.3489486   41.4105700
   0.3492512   41.4096226
   0.3496465   41.4087100
   0.3780578   41.3511373
   0.3781577   41.3509061
   0.3782090   41.3506595
   0.3894539   41.2783500
   0.3894818   41.2780594
   0.3894754   41.2777675
   0.3857430   41.2314678
   0.3857117   41.2312291
   0.3854854   41.2311471
   0.3269461   41.2132005
   0.3260018   41.2128582
   0.3250966   41.2124230
   0.3242396   41.2118991
   0.3234395   41.2112919
   0.3227044   41.2106075
   0.3220416   41.2098529
   0.3214578   41.2090355
   0.3209590   41.2081637
   0.3205502   41.2072463
   0.3202355   41.2062925
   0.3076819   41.1606658
   0.3076070   41.1604378
   0.3074048   41.1603085
   0.2536857   41.1295521
   0.2528613   41.1290250
   0.2520925   41.1284198
   0.2513864   41.1277424
   0.2507500   41.1269992
   0.2501892   41.1261974
   0.2497094   41.1253446
   0.2493153   41.1244491
   0.2490106   41.1235193
   0.2487982   41.1225641
   0.2376907   41.0577969
   0.2375718   41.0568144
   0.2375507   41.0558250
   0.2376275   41.0548383
   0.2378014   41.0538641
   0.2380708   41.0529118
   0.2384330   41.0519908
   0.2388844   41.0511101
   0.2394207   41.0502784
   0.2400366   41.0495037
   0.2407260   41.0487937
   0.2414822   41.0481554
   0.2422978   41.0475949
   0.2852672   41.0210969
   0.2854630   41.0209627
   0.2855315   41.0207354
   0.2981188   40.9702793
   0.2981643   40.9700516
   0.2980603   40.9698439
   0.2770822   40.9324877
   0.2770392   40.9324127
   0.2530102   40.8913038
   0.2525421   40.8904003
   0.2521682   40.8894539
   0.2518924   40.8884745
   0.2517176   40.8874721
   0.2516455   40.8864571
   0.2516770   40.8854400
   0.2518116   40.8844314
   0.2520481   40.8834417
   0.2523839   40.8824812
   0.2528156   40.8815598
   0.2533387   40.8806870
   0.2539478   40.8798718
   0.2546365   40.8791228
   0.2587037   40.8751285
   0.2588566   40.8749641
   0.2589598   40.8747647
   0.2850244   40.8183266
   0.2851146   40.8181024
   0.2849562   40.8179200
   0.2341702   40.7650143
   0.2339637   40.7648224
   0.2337370   40.7646549
   0.1675956   40.7213876
   0.1673641   40.7212534
   0.1671091   40.7211718
   0.0407431   40.6881204
   0.0405124   40.6880717
   0.0402850   40.6881346
   0.0239424   40.6935033
   0.0237806   40.6935595
   -0.0842422   40.7331939
   -0.1336834   40.7518597
   -0.1338897   40.7519485
   -0.1340361   40.7521190
   -0.1489273   40.7711347
   -0.1495515   40.7718578
   -0.1502419   40.7725181
   -0.1509921   40.7731095
   -0.1517954   40.7736265
   -0.1526443   40.7740646
   -0.1535311   40.7744197
   -0.1544478   40.7746885
   -0.1553859   40.7748687
   -0.1805401   40.7784629
   -0.1815087   40.7785535
   -0.1824816   40.7785496
   -0.1834495   40.7784511
   -0.1844033   40.7782590
   -0.1853339   40.7779752
   -0.1862325   40.7776022
   -0.1870906   40.7771438
   -0.1879001   40.7766041
   -0.1886533   40.7759882
   -0.1893431   40.7753022
   -0.1899630   40.7745523
   -0.1905070   40.7737457
   -0.1909701   40.7728901
   -0.2316433   40.6881378
   -0.2317507   40.6879382
   -0.2319565   40.6878432
   -0.3084357   40.6567659
   -0.3086489   40.6566904
   -0.3088746   40.6566960
   -0.3551484   40.6599490
   -0.3561351   40.6599696
   -0.3571191   40.6598928
   -0.3580907   40.6597193
   -0.3590404   40.6594510
   -0.3599591   40.6590903
   -0.3608377   40.6586408
   -0.3616678   40.6581069
   -0.3624411   40.6574938
   -0.3631503   40.6568074
   -0.3637884   40.6560545
   -0.3643491   40.6552423
   -0.3648271   40.6543789
   -0.3652176   40.6534725
   -0.3655169   40.6525320
   -0.3657220   40.6515666
   -0.3687357   40.6328893
   -0.3688433   40.6319300
   -0.3688579   40.6309647
   -0.3687794   40.6300025
   -0.3686084   40.6290524
   -0.3683466   40.6281232
   -0.3679964   40.6272235
   -0.3675611   40.6263618
   -0.3670448   40.6255461
   -0.3664522   40.6247840
   -0.3657889   40.6240826
   -0.3650610   40.6234484
   -0.3642754   40.6228874
   -0.3634393   40.6224047
   -0.3625606   40.6220049
   -0.3616475   40.6216917
   -0.3607084   40.6214680
   -0.3597520   40.6213359
   -0.2889724   40.6150212
   -0.2887454   40.6149900
   -0.2887226   40.6147620
   -0.2850275   40.5438348
   -0.2849424   40.5429534
   -0.2847795   40.5420829
   -0.2845403   40.5412303
   -0.2702794   40.4978765
   -0.2702093   40.4976170
   -0.2701675   40.4973514
   -0.2678164   40.4743491
   -0.2678039   40.4741169
   -0.2680112   40.4740113
   -0.3214833   40.4499337
   -0.3223559   40.4494882
   -0.3231807   40.4489594
   -0.3239498   40.4483524
   -0.3246558   40.4476730
   -0.3252919   40.4469279
   -0.3258521   40.4461240
   -0.3263309   40.4452692
   -0.3267238   40.4443717
   -0.3270269   40.4434400
   -0.3272374   40.4424831
   -0.3273533   40.4415102
   -0.3273734   40.4405306
   -0.3272976   40.4395538
   -0.3271265   40.4385891
   -0.3268618   40.4376457
   -0.3265061   40.4367328
   -0.3260627   40.4358591
   -0.3255360   40.4350329
   -0.3249310   40.4342623
   -0.3242534   40.4335546
   -0.2789535   40.3906562
   -0.2787888   40.3904844
   -0.2787453   40.3902505
   -0.2753780   40.3656213
   -0.2753574   40.3653852
   -0.2755410   40.3652355
   -0.3755430   40.2914999
   -0.3763336   40.2908520
   -0.3770540   40.2901268
   -0.3776966   40.2893318
   -0.3782546   40.2884754
   -0.3787223   40.2875665
   -0.3790948   40.2866146
   -0.3793682   40.2856296
   -0.3795396   40.2846219
   -0.3796072   40.2836019
   -0.3795704   40.2825804
   -0.3776761   40.2609109
   -0.3776670   40.2606772
   -0.3778777   40.2605757
   -0.4522873   40.2290501
   -0.4525023   40.2289705
   -0.4527309   40.2289528
   -0.5381469   40.2262898
   -0.5390887   40.2262158
   -0.5400194   40.2260532
   -0.5409305   40.2258036
   -0.5418141   40.2254690
   -0.5426621   40.2250526
   -0.5434670   40.2245580
   -0.5442217   40.2239897
   -0.5449194   40.2233527
   -0.5455538   40.2226527
   -0.5461194   40.2218959
   -0.5466110   40.2210892
   -0.5470243   40.2202396
   -0.5473555   40.2193549
   -0.5592069   40.1824858
   -0.5593302   40.1820716
   -0.5726079   40.1336807
   -0.5726711   40.1334830
   -0.5727660   40.1332991
   -0.6096234   40.0685584
   -0.6097499   40.0683590
   -0.6099645   40.0682606
   -0.6781992   40.0408431
   -0.6784089   40.0407695
   -0.6786274   40.0407345
   -0.7492891   40.0325929
   -0.7502652   40.0324311
   -0.7512206   40.0321737
   -0.7521459   40.0318232
   -0.7530319   40.0313829
   -0.7538702   40.0308572
   -0.7546524   40.0302512
   -0.7553708   40.0295709
   -0.7560185   40.0288230
   -0.7565892   40.0280147
   -0.7570771   40.0271539
   -0.7574777   40.0262492
   -0.7577868   40.0253093
   -0.7628032   40.0070610
   -0.7628731   40.0068459
   -0.7630450   40.0066993
   -0.8268434   39.9571091
   -0.8275831   39.9564740
   -0.8282575   39.9557698
   -0.8288600   39.9550033
   -0.8293851   39.9541817
   -0.8298276   39.9533129
   -0.8301834   39.9524052
   -0.8304492   39.9514671
   -0.8306223   39.9505076
   -0.8307012   39.9495358
   -0.8306850   39.9485610
   -0.8305740   39.9475923
   -0.8303692   39.9466391
   -0.8300726   39.9457103
   -0.8296869   39.9448148
   -0.8292158   39.9439612
   -0.7880542   39.8772776
   -0.7879421   39.8770746
   -0.7881441   39.8769606
   -0.8649626   39.8384360
   -0.8651745   39.8383420
   -0.8653931   39.8384192
   -0.9051030   39.8545827
   -0.9053338   39.8546909
   -0.9055019   39.8548825
   -0.9199654   39.8732032
   -0.9200954   39.8733840
   -0.9201337   39.8736034
   -0.9290082   39.9426475
   -0.9291886   39.9436470
   -0.9294696   39.9446230
   -0.9298480   39.9455655
   -0.9303202   39.9464648
   -0.9308811   39.9473115
   -0.9315250   39.9480969
   -0.9322452   39.9488130
   -0.9330344   39.9494524
   -0.9338843   39.9500084
   -0.9347863   39.9504753
   -0.9878529   39.9746123
   -0.9887242   39.9749603
   -0.9896244   39.9752251
   -0.9905454   39.9754043
   -0.9914791   39.9754965
   -0.9924173   39.9755007
   -0.9933519   39.9754170
   -1.1303193   39.9566333
   -1.1305601   39.9566122
   -1.1307824   39.9567069
   -1.1551452   39.9685224
   -1.1553579   39.9686389
   -1.1554696   39.9688542
   -1.1762947   40.0143785
   -1.1763802   40.0145924
   -1.1761597   40.0146593
   -1.1150305   40.0300133
   -1.1140690   40.0303069
   -1.1131420   40.0306955
   -1.1122586   40.0311752
   -1.1114278   40.0317412
   -1.0946855   40.0444251
   -1.0939266   40.0450616
   -1.0932344   40.0457700
   -1.0926157   40.0465434
   -1.0920765   40.0473742
   -1.0916222   40.0482543
   -1.0912571   40.0491750
   -1.0909849   40.0501273
   -1.0908083   40.0511019
   -1.0907289   40.0520891
   -1.0907476   40.0530794
   -1.0908641   40.0540630
   -1.0910774   40.0550302
   -1.0913853   40.0559716
   -1.0917848   40.0568778
   -1.0922720   40.0577402
   -1.0928421   40.0585501
   -1.0934896   40.0592996
   -1.0942080   40.0599814
   -1.0949903   40.0605888
   -1.0958289   40.0611158
   -1.0967155   40.0615573
   -1.0976415   40.0619089
   -1.2535194   40.1124216
   -1.2545131   40.1126880
   -1.2555290   40.1128508
   -1.3662769   40.1248040
   -1.3665719   40.1248448
   -1.4595623   40.1405284
   -1.4597949   40.1405797
   -1.4597599   40.1408154
   -1.4544034   40.1676089
   -1.4542588   40.1685753
   -1.4542093   40.1695512
   -1.4542553   40.1705272
   -1.4543963   40.1714941
   -1.4546310   40.1724426
   -1.4549571   40.1733637
   -1.4553716   40.1742485
   -1.4558704   40.1750887
   -1.4564489   40.1758762
   -1.4571015   40.1766034
   -1.4578219   40.1772636
   -1.4586033   40.1778502
   -1.4594382   40.1783578
   -1.4603187   40.1787815
   -1.4612363   40.1791172
   -1.4621824   40.1793618
   -1.4631477   40.1795128
   -1.5453655   40.1882907
   -1.5456359   40.1883348
   -1.5458901   40.1884370
   -1.7280499   40.2736491
   -1.7282780   40.2737707
   -1.7284369   40.2739746
   -1.8180963   40.4023171
   -1.8182237   40.4025202
   -1.8181028   40.4027273
   -1.6892826   40.6001951
   -1.6891435   40.6003872
   -1.6889084   40.6003559
   -1.6025209   40.5845359
   -1.6015261   40.5844049
   -1.6005233   40.5843742
   -1.5995224   40.5844442
   -1.5985336   40.5846141
   -1.5975667   40.5848823
   -1.5966317   40.5852460
   -1.5957377   40.5857016
   -1.5948939   40.5862444
   -1.5941088   40.5868691
   -1.5933902   40.5875693
   -1.5927454   40.5883380
   -1.5921808   40.5891674
   -1.5917023   40.5900492
   -1.5913145   40.5909746
   -1.5910213   40.5919341
   -1.5908258   40.5929182
   -1.5700898   40.7340072
   -1.5699974   40.7349349
   -1.5699918   40.7358672
   -1.5700730   40.7367960
   -1.5702404   40.7377132
   -1.5704924   40.7386108
   -1.5708270   40.7394810
   -1.6389264   40.8946076
   -1.6390113   40.8948297
   -1.6389160   40.8950476
   -1.6283472   40.9163464
   -1.6279483   40.9172628
   -1.6276428   40.9182144
   -1.6274338   40.9191917
   -1.6273234   40.9201851
   -1.6273128   40.9211845
   -1.6274019   40.9221799
   -1.6275900   40.9231615
   -1.6278751   40.9241194
   -1.6282544   40.9250441
   -1.6287241   40.9259263
   -1.6292795   40.9267572
   -1.6299151   40.9275285
   -1.6306245   40.9282325
   -1.6314007   40.9288622
   -1.8715826   41.1045713
   -1.8725139   41.1051762
   -1.8735065   41.1056741
   -1.9340906   41.1319617
   -1.9351460   41.1323506
   -1.9362383   41.1326186
   -1.9373538   41.1327622
   -2.0283935   41.1393096
   -2.0293797   41.1393318
   -2.0303632   41.1392566
   -2.0313346   41.1390850
   -2.0322843   41.1388185
   -2.0332032   41.1384597
   -2.0340822   41.1380121
   -2.0349129   41.1374801
   -2.0356871   41.1368688
   -2.0363973   41.1361843
   -2.0370366   41.1354331
   -2.0375988   41.1346225
   -2.0380784   41.1337605
   -2.0384708   41.1328555
   -2.0387720   41.1319162
   -2.0389793   41.1309518
   -2.0390905   41.1299717
   -2.0434410   41.0617412
   -2.0434681   41.0615045
   -2.0437035   41.0615410
   -2.0782227   41.0686876
   -2.0784713   41.0687526
   -2.0787012   41.0688673
   -2.1263781   41.0958189
   -2.1272865   41.0962731
   -2.1282362   41.0966329
   -2.1292175   41.0968945
   -2.1302203   41.0970552
   -2.1312343   41.0971134
   -2.1322489   41.0970684
   -2.1332537   41.0969207
   -2.1342383   41.0966719
   -2.1351926   41.0963245
   -2.1726297   41.0805000
   -2.1728945   41.0804053
   -2.1731683   41.0803411
   -2.2685678   41.0635792
   -2.2687858   41.0635384
   -2.3257313   41.0522258
   -2.3260133   41.0521863
   -2.3262981   41.0521794
   -2.4205061   41.0552714
   -2.4207664   41.0552937
   -2.4210162   41.0553698
   -2.4768602   41.0756523
   -2.4770685   41.0757389
   -2.4772320   41.0758937
   -2.5358552   41.1366575
   -2.5365855   41.1373423
   -2.5373806   41.1379506
   -2.5382325   41.1384764
   -2.5391327   41.1389143
   -2.5400722   41.1392601
   -2.5410416   41.1395102
   -2.5420311   41.1396621
   -2.5430308   41.1397143
   -2.5440308   41.1396663
   -2.5836001   41.1357743
   -2.5838438   41.1357625
   -2.5840523   41.1358894
   -2.6045671   41.1498186
   -2.6047793   41.1499801
   -2.6049293   41.1502006
   -2.6270415   41.1868132
   -2.6271651   41.1870299
   -2.6488798   41.2274089
   -2.6493905   41.2282554
   -2.6499823   41.2290474
   -2.6506495   41.2297770
   -2.6513854   41.2304372
   -2.6521829   41.2310216
   -2.6530343   41.2315243
   -2.6539311   41.2319404
   -2.6548646   41.2322660
   -2.6558257   41.2324978
   -2.6958787   41.2400854
   -2.6961108   41.2401410
   -2.6963365   41.2402186
   -2.7486404   41.2610362
   -2.7496058   41.2613645
   -2.7505995   41.2615927
   -2.7516114   41.2617186
   -2.7526308   41.2617408
   -2.7536471   41.2616591
   -2.7546499   41.2614743
   -2.7556286   41.2611883
   -2.7565731   41.2608042
   -2.7574736   41.2603259
   -2.7583207   41.2597583
   -2.7591056   41.2591075
   -2.7728377   41.2464857
   -2.7730219   41.2463324
   -2.7732606   41.2463538
   -2.8283965   41.2540265
   -2.8286337   41.2540714
   -2.8288578   41.2541611
   -2.9236420   41.2975870
   -2.9245245   41.2979415
   -2.9254367   41.2982107
   -2.9263703   41.2983919
   -2.9273169   41.2984837
   -2.9282680   41.2984851
   -2.9292149   41.2983961
   -2.9301491   41.2982176
   -2.9310620   41.2979512
   -2.9319456   41.2975992
   -2.9327917   41.2971649
   -2.9335927   41.2966522
   -2.9472348   41.2869756
   -2.9474302   41.2868504
   -2.9476578   41.2868054
   -3.0594759   41.2701024
   -3.0596927   41.2700797
   -3.0599080   41.2701142
   -3.1985441   41.2986308
   -3.1995309   41.2987829
   -3.2005280   41.2988358
   -3.2015253   41.2987890
   -3.2025131   41.2986430
   -3.2034813   41.2983993
   -3.2044205   41.2980602
   -3.2053211   41.2976291
   -3.2061742   41.2971103
   -3.2069714   41.2965091
   -3.2077046   41.2958314
   -3.2476673   41.2550102
   -3.2478384   41.2548514
   -3.2480718   41.2548546
   -3.2744019   41.2564753
   -3.2758530   41.2564591
   -3.3378290   41.2512550
   -3.3381264   41.2512479
   -3.3384225   41.2512763
   -3.3688482   41.2560438
   -3.3697675   41.2561446
   -3.3706921   41.2561600
   -3.3716142   41.2560899
   -3.3865553   41.2542565
   -3.3874995   41.2540944
   -3.3884237   41.2538428
   -3.3893197   41.2535038
   -3.3901791   41.2530807
   -3.3909941   41.2525773
   -3.3917572   41.2519982
   -3.3924614   41.2513487
   -3.3931002   41.2506349
   -3.3936677   41.2498632
   -3.3941589   41.2490408
   -3.3945690   41.2481751
   -3.3948945   41.2472741
   -3.3951323   41.2463462
   -3.3952801   41.2453997
   -3.3990407   41.2104149
   -3.3990774   41.2101818
   -3.3993133   41.2101734
   -3.4179356   41.2104298
   -3.4179644   41.2104302
   -3.4368624   41.2106361
   -3.4378824   41.2105951
   -3.4388928   41.2104503
   -3.4398833   41.2102033
   -3.4408434   41.2098566
   -3.4417631   41.2094139
   -3.4426329   41.2088796
   -3.4434438   41.2082595
   -3.4441872   41.2075600
   -3.4448554   41.2067883
   -3.4642234   41.1819658
   -3.4643929   41.1817706
   -3.4646143   41.1816370
   -3.5081768   41.1583678
   -3.5084200   41.1582543
   -3.5086868   41.1582246
   -3.5736499   41.1545353
   -3.5746434   41.1544289
   -3.5756213   41.1542239
   -3.5765739   41.1539223
   -3.5774917   41.1535271
   -3.5783654   41.1530423
   -3.5791863   41.1524728
   -3.7540156   41.0177665
   -3.7541112   41.0176946
   -3.7959038   40.9870585
   -3.7961259   40.9869133
   -3.7963825   40.9868458
   -3.8542396   40.9748908
   -3.8552763   40.9746179
   -3.8562777   40.9742357
   -3.8572325   40.9737484
   -3.8581297   40.9731618
   -3.9137155   40.9323990
   -3.9144287   40.9318240
   -3.9150862   40.9311862
   -3.9156826   40.9304908
   -3.9162128   40.9297438
   -3.9166725   40.9289514
   -3.9370585   40.8897796
   -3.9374665   40.8888921
   -3.9377861   40.8879691
   -3.9380140   40.8870194
   -3.9488573   40.8296209
   -3.9489087   40.8294028
   -3.9489981   40.8291982
   -3.9726526   40.7810167
   -3.9727662   40.7808110
   -3.9730000   40.7807873
   -4.0267948   40.7779510
   -4.0270037   40.7779488
   -4.0272094   40.7779813
   -4.0603898   40.7846608
   -4.0613630   40.7848073
   -4.0623458   40.7848575
   -4.0633289   40.7848108
   -4.0643025   40.7846677
   -4.0652574   40.7844295
   -4.0661843   40.7840987
   -4.0670741   40.7836784
   -4.0679184   40.7831726
   -4.0687088   40.7825863
   -4.0694378   40.7819252
   -4.0700982   40.7811955
   -4.0706838   40.7804046
   -4.0711887   40.7795598
   -4.0873250   40.7492751
   -4.0874366   40.7490863
   -4.0876065   40.7489481
   -4.1211827   40.7239952
   -4.1219459   40.7233672
   -4.1226434   40.7226669
   -4.1232683   40.7219011
   -4.1238146   40.7210774
   -4.1398438   40.6941022
   -4.1399655   40.6939168
   -4.1401440   40.6937861
   -4.1571305   40.6824703
   -4.1579492   40.6818624
   -4.1587017   40.6811744
   -4.1593802   40.6804133
   -4.1599778   40.6795870
   -4.1604880   40.6787042
   -4.1609057   40.6777740
   -4.1612266   40.6768061
   -4.1614471   40.6758105
   -4.1615652   40.6747977
   -4.1636082   40.6434264
   -4.1636249   40.6424782
   -4.1635517   40.6415327
   -4.1633893   40.6405984
   -4.1631391   40.6396837
   -4.1572854   40.6216849
   -4.1572237   40.6214576
   -4.1574447   40.6213759
   -4.2137636   40.6036734
   -4.2140320   40.6036052
   -4.2143063   40.6035672
   -4.2469525   40.6008841
   -4.2472454   40.6008773
   -4.2475370   40.6009050
   -4.2629704   40.6032929
   -4.2632065   40.6033413
   -4.2635335   40.6034779
   -4.2644504   40.6038096
   -4.2653953   40.6040504
   -4.2663591   40.6041981
   -4.2673327   40.6042511
   -4.2683068   40.6042091
   -4.2692723   40.6040725
   -4.2702198   40.6038424
   -4.2711404   40.6035212
   -4.2720254   40.6031118
   -4.2728663   40.6026182
   -4.2736551   40.6020451
   -4.2743843   40.6013979
   -4.2750471   40.6006827
   -4.2756370   40.5999063
   -4.2761486   40.5990762
   -4.2765768   40.5982003
   -4.2769177   40.5972867
   -4.2771681   40.5963444
   -4.2773254   40.5953821
   -4.2779050   40.5902899
   -4.2779395   40.5900728
   -4.2780297   40.5898724
   -4.2870553   40.5719874
   -4.2874418   40.5711217
   -4.2877446   40.5702233
   -4.2879610   40.5693002
   -4.2880890   40.5683608
   -4.2881274   40.5674135
   -4.2881027   40.5638196
   -4.2881131   40.5635781
   -4.2883328   40.5634774
   -4.3071201   40.5559752
   -4.3080602   40.5555421
   -4.3089506   40.5550141
   -4.3097816   40.5543969
   -4.3105443   40.5536972
   -4.3112306   40.5529223
   -4.3118332   40.5520806
   -4.3123455   40.5511812
   -4.3127620   40.5502336
   -4.3130784   40.5492480
   -4.3170506   40.5342471
   -4.3172648   40.5332253
   -4.3173713   40.5321866
   -4.3173689   40.5311426
   -4.3138624   40.4668792
   -4.3138598   40.4666703
   -4.3138920   40.4664645
   -4.3211722   40.4299713
   -4.3213138   40.4290297
   -4.3213652   40.4280789
   -4.3213260   40.4271275
   -4.3211964   40.4261842
   -4.3209778   40.4252575
   -4.3206719   40.4243557
   -4.3142853   40.4081122
   -4.3142108   40.4078908
   -4.3144432   40.4078676
   -4.3614218   40.4055275
   -4.3617224   40.4055216
   -4.4088732   40.4060117
   -4.4098802   40.4059714
   -4.4108780   40.4058299
   -4.4118566   40.4055887
   -4.4128058   40.4052503
   -4.4137162   40.4048180
   -4.4145785   40.4042963
   -4.4153839   40.4036904
   -4.4322384   40.3896269
   -4.4329654   40.3889566
   -4.4336227   40.3882177
   -4.4342038   40.3874175
   -4.4347031   40.3865638
   -4.4351155   40.3856650
   -4.4354372   40.3847299
   -4.4356649   40.3837675
   -4.4357965   40.3827874
   -4.4358306   40.3817991
   -4.4353910   40.3524351
   -4.4354009   40.3521736
   -4.4355176   40.3519393
   -4.4536341   40.3199336
   -4.4537629   40.3197301
   -4.4539915   40.3196544
   -4.4592132   40.3182071
   -4.4594207   40.3181590
   -4.4596326   40.3181470
   -4.4846791   40.3177933
   -4.4856681   40.3177302
   -4.4866460   40.3175695
   -4.4876032   40.3173129
   -4.4885303   40.3169627
   -4.4894182   40.3165225
   -4.4902582   40.3159966
   -4.5217853   40.2940095
   -4.5226047   40.2933723
   -4.5233537   40.2926536
   -4.5240242   40.2918611
   -4.5246089   40.2910034
   -4.5251015   40.2900897
   -4.5524300   40.2324233
   -4.5524918   40.2322975
   -4.5604182   40.2167158
   -4.5605361   40.2165094
   -4.5607574   40.2164226
   -4.6107684   40.1995368
   -4.6109986   40.1994712
   -4.6112340   40.1994280
   -4.6478222   40.1945140
   -4.6480741   40.1944931
   -4.6483205   40.1945492
   -4.6883572   40.2058253
   -4.6885784   40.2058992
   -4.6886670   40.2061149
   -4.7070458   40.2578215
   -4.7071153   40.2580517
   -4.7071155   40.2581656
   -4.7070815   40.2588895
   -4.7071285   40.2598475
   -4.7072671   40.2607966
   -4.7074960   40.2617281
   -4.7078131   40.2626333
   -4.7082155   40.2635040
   -4.7086994   40.2643322
   -4.7092604   40.2651102
   -4.7098934   40.2658308
   -4.7105925   40.2664875
   -4.7113513   40.2670742
   -4.7121629   40.2675855
   -4.7130196   40.2680167
   -4.7139138   40.2683638
   -4.7148371   40.2686236
   -4.7157811   40.2687938
   -4.7167370   40.2688728
   -4.7176960   40.2688599
   -4.7186495   40.2687551
   -4.7195885   40.2685594
   -4.7614821   40.2577103
   -4.7617146   40.2576619
   -4.7619431   40.2577266
   -4.7902259   40.2672225
   -4.7911734   40.2674896
   -4.7921425   40.2676621
   -4.7931239   40.2677386
   -4.7941080   40.2677181
   -4.7950854   40.2676011
   -4.7960466   40.2673885
   -4.7969821   40.2670824
   -4.7978831   40.2666858
   -4.7987407   40.2662026
   -4.7995466   40.2656374
   -4.8002931   40.2649957
   -4.8009728   40.2642837
   -4.8015793   40.2635083
   -4.8021065   40.2626771
   -4.8025496   40.2617980
   -4.8029040   40.2608797
   -4.8031664   40.2599310
   -4.8033343   40.2589610
   -4.8034060   40.2579793
   -4.8039378   40.2355139
   -4.8039576   40.2352548
   -4.8041053   40.2350410
   -4.8168235   40.2185558
   -4.8169996   40.2183516
   -4.8172321   40.2182147
   -4.8739299   40.1888670
   -4.8740347   40.1888143
   -4.9090291   40.1717288
   -4.9098933   40.1712527
   -4.9107065   40.1706937
   -4.9114605   40.1700573
   -4.9121482   40.1693497
   -4.9127628   40.1685778
   -4.9132983   40.1677490
   -4.9137496   40.1668715
   -4.9141122   40.1659538
   -4.9143825   40.1650048
   -4.9145580   40.1640338
   -4.9146370   40.1630502
   -4.9146187   40.1620637
   -4.9145032   40.1610837
   -4.9142917   40.1601199
   -4.9139862   40.1591817
   -4.9133815   40.1575948
   -4.9133052   40.1573598
   -4.9133757   40.1571230
   -4.9207596   40.1362117
   -4.9208556   40.1359789
   -4.9210683   40.1358440
   -4.9494704   40.1198205
   -4.9496883   40.1197113
   -4.9499234   40.1196466
   -5.0042075   40.1075427
   -5.0044443   40.1075019
   -5.0046829   40.1075306
   -5.0165565   40.1095480
   -5.0167928   40.1096004
   -5.0168284   40.1098398
   -5.0198196   40.1404485
   -5.0199623   40.1414168
   -5.0201991   40.1423664
   -5.0205275   40.1432885
   -5.0209445   40.1441739
   -5.0214460   40.1450144
   -5.0220273   40.1458018
   -5.0226829   40.1465287
   -5.0234063   40.1471879
   -5.0241907   40.1477733
   -5.0250286   40.1482792
   -5.0259119   40.1487007
   -5.0268322   40.1490339
   -5.0277806   40.1492756
   -5.0287482   40.1494233
   -5.0297255   40.1494758
   -5.0307033   40.1494324
   -5.0316722   40.1492937
   -5.0326229   40.1490609
   -5.0335462   40.1487363
   -5.0344334   40.1483230
   -5.0829399   40.1227666
   -5.0838474   40.1222254
   -5.1388137   40.0853730
   -5.1390314   40.0852427
   -5.1392831   40.0852102
   -5.2008496   40.0804579
   -5.2010803   40.0804509
   -5.2012976   40.0805284
   -5.2152771   40.0862578
   -5.2154907   40.0863577
   -5.2155058   40.0865930
   -5.2156089   40.0932561
   -5.2156705   40.0942206
   -5.2158250   40.0951747
   -5.2160709   40.0961094
   -5.2164058   40.0970161
   -5.2168267   40.0978861
   -5.2173296   40.0987115
   -5.2179099   40.0994844
   -5.2185621   40.1001977
   -5.2192800   40.1008448
   -5.2200571   40.1014195
   -5.2208861   40.1019165
   -5.2217591   40.1023311
   -5.2226681   40.1026595
   -5.2236046   40.1028987
   -5.2245598   40.1030463
   -5.2255247   40.1031010
   -5.3192010   40.1038780
   -5.3194400   40.1038916
   -5.3196563   40.1039944
   -5.3347651   40.1120959
   -5.3349705   40.1122191
   -5.3351322   40.1123959
   -5.3508647   40.1313718
   -5.3510176   40.1315768
   -5.3511253   40.1318087
   -5.3572442   40.1469798
   -5.3573252   40.1472135
   -5.3574283   40.1476454
   -5.3577060   40.1485966
   -5.3580765   40.1495157
   -5.3585361   40.1503936
   -5.3590804   40.1512217
   -5.3597039   40.1519919
   -5.3604006   40.1526966
   -5.3611636   40.1533288
   -5.3619855   40.1538825
   -5.3720957   40.1599876
   -5.3723023   40.1601272
   -5.3723157   40.1603762
   -5.3724853   40.2183759
   -5.3724760   40.2185982
   -5.3724080   40.2188101
   -5.3673418   40.2324491
   -5.3670471   40.2333789
   -5.3668445   40.2343330
   -5.3667357   40.2353023
   -5.3667219   40.2362776
   -5.3668032   40.2372496
   -5.3669788   40.2382091
   -5.3672471   40.2391468
   -5.3676054   40.2400540
   -5.3680504   40.2409220
   -5.3685779   40.2417425
   -5.3691827   40.2425077
   -5.3698593   40.2432103
   -5.3706010   40.2438437
   -5.3714010   40.2444017
   -5.3722515   40.2448793
   -5.3731445   40.2452716
   -5.3740715   40.2455751
   -5.3750236   40.2457869
   -5.3759918   40.2459049
   -5.4160694   40.2488146
   -5.4170072   40.2488386
   -5.4179431   40.2487746
   -5.4188689   40.2486231
   -5.4197765   40.2483856
   -5.4206578   40.2480641
   -5.4215050   40.2476614
   -5.4223109   40.2471811
   -5.4230681   40.2466273
   -5.4237702   40.2460051
   -5.4658720   40.2050056
   -5.4660474   40.2048502
   -5.4662744   40.2047922
   -5.5360133   40.1904589
   -5.5362505   40.1904220
   -5.5364841   40.1904777
   -5.6118811   40.2123689
   -5.6121198   40.2124516
   -5.6123226   40.2126025
   -5.6641145   40.2553977
   -5.6642981   40.2555658
   -5.6643016   40.2558147
   -5.6640216   40.2633590
   -5.6640342   40.2643524
   -5.6641452   40.2653397
   -5.6643537   40.2663111
   -5.6646575   40.2672570
   -5.6650537   40.2681681
   -5.6655383   40.2690354
   -5.6661066   40.2698504
   -5.6667530   40.2706049
   -5.6674711   40.2712915
   -5.6682537   40.2719035
   -5.6690932   40.2724349
   -5.6902784   40.2844122
   -5.6910888   40.2848229
   -5.6919331   40.2851584
   -5.6928043   40.2854159
   -5.6936953   40.2855932
   -5.6945988   40.2856890
   -5.7353810   40.2881451
   -5.7363892   40.2881549
   -5.7373934   40.2880631
   -5.7383831   40.2878707
   -5.7393485   40.2875795
   -5.7402796   40.2871927
   -5.7619354   40.2768859
   -5.7621599   40.2767924
   -5.7624019   40.2768162
   -5.7945390   40.2815853
   -5.7947671   40.2816302
   -5.7949193   40.2818060
   -5.8074998   40.2978015
   -5.8076328   40.2979885
   -5.8074651   40.2981450
   -5.7936294   40.3098693
   -5.7929281   40.3105239
   -5.7922928   40.3112427
   -5.7917292   40.3120190
   -5.7912427   40.3128458
   -5.7908376   40.3137154
   -5.7905177   40.3146198
   -5.7902859   40.3155507
   -5.7901444   40.3164995
   -5.7900945   40.3174576
   -5.7901366   40.3184160
   -5.7902703   40.3193659
   -5.7904944   40.3202987
   -5.7908069   40.3212057
   -5.7912049   40.3220786
   -5.7996791   40.3385262
   -5.8001675   40.3393704
   -5.8007359   40.3401630
   -5.8013788   40.3408964
   -5.8020900   40.3415638
   -5.8028629   40.3421587
   -5.8036900   40.3426754
   -5.8045636   40.3431091
   -5.8054753   40.3434557
   -5.8064163   40.3437118
   -5.8073779   40.3438750
   -5.8083508   40.3439438
   -5.8093257   40.3439175
   -5.8102935   40.3437963
   -5.8112448   40.3435814
   -5.8121707   40.3432749
   -5.8130623   40.3428796
   -5.8453483   40.3266390
   -5.8455893   40.3265334
   -5.8458470   40.3264809
   -5.8762470   40.3219407
   -5.8772632   40.3217346
   -5.8782527   40.3214243
   -5.8792046   40.3210133
   -5.8801089   40.3205059
   -5.8809558   40.3199076
   -5.8817361   40.3192248
   -5.8824416   40.3184649
   -5.8830646   40.3176360
   -5.9129052   40.2733220
   -5.9130535   40.2731244
   -5.9132957   40.2731728
   -5.9705634   40.2876952
   -5.9712177   40.2879101
   -5.9913106   40.2960842
   -5.9916767   40.2962506
   -6.1059089   40.3538266
   -6.1060793   40.3539167
   -6.1095635   40.3558446
   -6.1097568   40.3559640
   -6.1096465   40.3561626
   -6.0897956   40.3881987
   -6.0893319   40.3890337
   -6.0889500   40.3899090
   -6.0886533   40.3908168
   -6.0884445   40.3917488
   -6.0883257   40.3926964
   -6.0882977   40.3936511
   -6.0883610   40.3946040
   -6.0885149   40.3955466
   -6.0887580   40.3964702
   -6.0890881   40.3973664
   -6.0895022   40.3982270
   -6.0899965   40.3990442
   -6.0905665   40.3998105
   -6.0912070   40.4005190
   -6.0919121   40.4011631
   -6.0926755   40.4017370
   -6.0934902   40.4022354
   -6.0943487   40.4026539
   -6.1315157   40.4186215
   -6.1317378   40.4187304
   -6.1319180   40.4188999
   -6.1448335   40.4323330
   -6.1455185   40.4329812
   -6.1462616   40.4335621
   -6.1470560   40.4340704
   -6.2261454   40.4795632
   -6.2269839   40.4799942
   -6.2278592   40.4803443
   -6.2287636   40.4806105
   -6.2296890   40.4807903
   -6.2306273   40.4808821
   -6.2315700   40.4808852
   -6.2325089   40.4807996
   -6.2334355   40.4806258
   -6.2343416   40.4803656
   -6.2352192   40.4800212
   -6.2360605   40.4795957
   -6.2368579   40.4790929
   -6.2503550   40.4696650
   -6.2505388   40.4695483
   -6.2507320   40.4694480
   -6.2913532   40.4505666
   -6.2915645   40.4504799
   -6.2917872   40.4504335
   -6.3336415   40.4436727
   -6.3346217   40.4434635
   -6.3355760   40.4431572
   -6.3364949   40.4427569
   -6.3373691   40.4422667
   -6.3381898   40.4416914
   -6.3389488   40.4410368
   -6.3396385   40.4403096
   -6.3402520   40.4395170
   -6.3407830   40.4386669
   -6.3588962   40.4061494
   -6.3590337   40.4059305
   -6.3592625   40.4058099
   -6.4340515   40.3712935
   -6.4347353   40.3710367
   -6.5308007   40.3427903
   -6.5317133   40.3424733
   -6.5325911   40.3420697
   -6.5334258   40.3415833
   -6.5342098   40.3410186
   -6.5349355   40.3403809
   -6.5355963   40.3396762
   -6.5361861   40.3389109
   -6.5366992   40.3380924
   -6.5371310   40.3372281
   -6.5374774   40.3363262
   -6.5525873   40.2904744
   -6.5526667   40.2902658
   -6.5528291   40.2901127
   -6.5778907   40.2685392
   -6.5780691   40.2683993
   -6.5782853   40.2683326
   -6.6880316   40.2398920
   -6.6882729   40.2398421
   -6.6885179   40.2398162
   -6.7538778   40.2361678
   -6.7541564   40.2361600
   -6.8063282   40.2361600
   -6.8065434   40.2361693
   -6.8067489   40.2362337
   -6.8483798   40.2512797
   -6.8485962   40.2513697
   -6.8487789   40.2515166
   -6.8698641   40.2701865
   -6.8700478   40.2703672
   -6.8701166   40.2706155
   -6.8708932   40.2741173
   -6.8709342   40.2743583
   -6.8708327   40.2745807
   -6.8669965   40.2819926
   -6.8666185   40.2828113
   -6.8663159   40.2836607
   -6.8660909   40.2845339
   -6.8659456   40.2854239
   -6.8658810   40.2863233
   -6.8654758   40.3015533
   -6.8654564   40.3018024
   -6.8652458   40.3019370
   -6.8210708   40.3270763
   -6.8208675   40.3271799
   -6.8206436   40.3272243
   -6.8044749   40.3296602
   -6.8035426   40.3298463
   -6.8026323   40.3301201
   -6.8017521   40.3304791
   -6.8009100   40.3309201
   -6.8001135   40.3314391
   -6.7993699   40.3320313
   -6.7986859   40.3326915
   -6.7980677   40.3334136
   -6.7975208   40.3341911
   -6.7970502   40.3350171
   -6.7966602   40.3358841
   -6.7963543   40.3367841
   -6.7961352   40.3377091
   -6.7960050   40.3386508
   -6.7937749   40.3633899
   -6.7937349   40.3643808
   -6.7937933   40.3653708
   -6.7939495   40.3663501
   -6.7942019   40.3673092
   -6.7945480   40.3682385
   -6.7949845   40.3691290
   -6.7955071   40.3699719
   -6.7961105   40.3707588
   -6.7967890   40.3714822
   -6.7975357   40.3721347
   -6.8384635   40.4044658
   -6.8386370   40.4046165
   -6.8387245   40.4048290
   -6.8560736   40.4532502
   -6.8561430   40.4534781
   -6.8560117   40.4536769
   -6.8212768   40.5010792
   -6.8211293   40.5012617
   -6.8209366   40.5013956
   -6.8096336   40.5084834
   -6.8088243   40.5090484
   -6.8080747   40.5096904
   -6.8073920   40.5104031
   -6.8067828   40.5111797
   -6.8062533   40.5120125
   -6.8058083   40.5128935
   -6.8054524   40.5138140
   -6.8051890   40.5147652
   -6.8050206   40.5157377
   -6.8049489   40.5167220
   -6.8049745   40.5177086
   -6.8069772   40.5442263
   -6.8070952   40.5451780
   -6.8073039   40.5461142
   -6.8076012   40.5470260
   -6.8079846   40.5479051
   -6.8084504   40.5487435
   -6.8089943   40.5495334
   -6.8096115   40.5502675
   -6.8102961   40.5509392
   -6.8110419   40.5515421
   -6.8118421   40.5520709
   -6.8126892   40.5525206
   -6.8135755   40.5528870
   -6.8144928   40.5531669
   -6.8494002   40.5620110
   -6.8496200   40.5620781
   -6.8495819   40.5623047
   -6.8428171   40.5933852
   -6.8427559   40.5936131
   -6.8425660   40.5937532
   -6.8361735   40.5980105
   -6.8354764   40.5985196
   -6.8306395   40.6023823
   -6.8297910   40.6031429
   -6.8290347   40.6039951
   -6.8283801   40.6049278
   -6.8266895   40.6076552
   -6.8265320   40.6078806
   -6.8263506   40.6080872
   -6.8238959   40.6105893
   -6.8231916   40.6113882
   -6.8225763   40.6122574
   -6.8220569   40.6131871
   -6.8033880   40.6512320
   -6.8030042   40.6521205
   -6.8027081   40.6530419
   -6.8025024   40.6539877
   -6.8023891   40.6549489
   -6.8023693   40.6559166
   -6.8024431   40.6568816
   -6.8026099   40.6578350
   -6.8028681   40.6587678
   -6.8032152   40.6596713
   -6.8036480   40.6605369
   -6.8041625   40.6613567
   -6.8047539   40.6621229
   -6.8054165   40.6628284
   -6.8061442   40.6634665
   -6.8069303   40.6640312
   -6.8070484   40.6641078
   -6.8070943   40.6643507
   -6.8114251   40.6959821
   -6.8116010   40.6969263
   -6.8118666   40.6978493
   -6.8122195   40.6987426
   -6.8317738   40.7420281
   -6.8318553   40.7422322
   -6.8318609   40.7424515
   -6.8313457   40.7699777
   -6.8313284   40.7702278
   -6.8312613   40.7704694
   -6.8219108   40.7985523
   -6.8216476   40.7994942
   -6.8214777   40.8004573
   -6.8214026   40.8014325
   -6.8214232   40.8024103
   -6.8215392   40.8033814
   -6.8217495   40.8043365
   -6.8255448   40.8182870
   -6.8255913   40.8184916
   -6.8256204   40.8186994
   -6.8282481   40.8456154
   -6.8282594   40.8458496
   -6.8280273   40.8458834
   -6.8146573   40.8471625
   -6.8136718   40.8473066
   -6.8127055   40.8475481
   -6.8117680   40.8478844
   -6.8108686   40.8483124
   -6.8100162   40.8488277
   -6.8092194   40.8494252
   -6.8084859   40.8500991
   -6.8078231   40.8508425
   -6.8072376   40.8516482
   -6.8067351   40.8525082
   -6.8063206   40.8534139
   -6.8059983   40.8543563
   -6.8057713   40.8553261
   -6.8056420   40.8563137
   -6.8056115   40.8573092
   -6.8056802   40.8583028
   -6.8058474   40.8592847
   -6.8087616   40.8724092
   -6.8090219   40.8733580
   -6.8093741   40.8742767
   -6.8098149   40.8751563
   -6.8103401   40.8759884
   -6.8109444   40.8767648
   -6.8116221   40.8774780
   -6.8123667   40.8781212
   -6.8131708   40.8786882
   -6.8140268   40.8791733
   -6.8149263   40.8795720
   -6.8158606   40.8798804
   -6.8168207   40.8800954
   -6.8177973   40.8802151
   -6.8187809   40.8802382
   -6.8301178   40.8799467
   -6.8303715   40.8799533
   -6.8305569   40.8801267
   -6.8503445   40.9006565
   -6.8505180   40.9008571
   -6.8505922   40.9011118
   -6.8593677   40.9386738
   -6.8596217   40.9395702
   -6.8599581   40.9404392
   -6.8603739   40.9412730
   -6.8608654   40.9420646
   -6.8614286   40.9428069
   -6.8620583   40.9434936
   -6.9331867   41.0141439
   -6.9333512   41.0143245
   -6.9333364   41.0145683
   -6.9316717   41.0295604
   -6.9316324   41.0298027
   -6.9314308   41.0299426
   -6.9164118   41.0392845
   -6.9161920   41.0394061
   -6.9159464   41.0393530
   -6.9079056   41.0371765
   -6.9077010   41.0371115
   -6.9075199   41.0369962
   -6.9060524   41.0359703
   -6.9051187   41.0353912
   -6.9041272   41.0349181
   -6.9030897   41.0345565
   -6.9020189   41.0343110
   -6.8978157   41.0335877
   -6.8974964   41.0335219
   -6.8801704   41.0293618
   -6.8793245   41.0291969
   -6.8784675   41.0291054
   -6.8644882   41.0282203
   -6.8635291   41.0282057
   -6.8440777   41.0288425
   -6.8432421   41.0289050
   -6.8424146   41.0290372
   -6.8248141   41.0326117
   -6.8238576   41.0328557
   -6.8229298   41.0331928
   -6.8220398   41.0336197
   -6.8211962   41.0341322
   -6.8152169   41.0381824
   -6.8144575   41.0387512
   -6.8137553   41.0393894
   -6.8131169   41.0400913
   -6.8125478   41.0408505
   -6.8086979   41.0465295
   -6.8085544   41.0467206
   -6.8083383   41.0468229
   -6.8050993   41.0481689
   -6.8042816   41.0485528
   -6.8035020   41.0490090
   -6.8027667   41.0495336
   -6.8020817   41.0501225
   -6.7829104   41.0681720
   -6.7822081   41.0689039
   -6.7815835   41.0697031
   -6.7757405   41.0780174
   -6.7753278   41.0786548
   -6.7749647   41.0793216
   -6.7701697   41.0889832
   -6.7700591   41.0891823
   -6.7698605   41.0892933
   -6.7690648   41.0896911
   -6.7682295   41.0901601
   -6.7674429   41.0907068
   -6.7667122   41.0913263
   -6.7660441   41.0920128
   -6.7654448   41.0927602
   -6.7649198   41.0935614
   -6.7644738   41.0944092
   -6.7639101   41.0956182
   -6.7637917   41.0958415
   -6.7636378   41.0959644
   -6.7629036   41.0966125
   -6.7622363   41.0973293
   -6.7616423   41.0981079
   -6.7611273   41.0989408
   -6.7606962   41.0998202
   -6.7603532   41.1007375
   -6.7601016   41.1016839
   -6.7599438   41.1026504
   -6.7598812   41.1036278
   -6.7599146   41.1046065
   -6.7600436   41.1055773
   -6.7602668   41.1065308
   -6.7605823   41.1074579
   -6.7609870   41.1083498
   -6.7614769   41.1091977
   -6.7620474   41.1099937
   -6.7765842   41.1283088
   -6.7767201   41.1284982
   -6.7765462   41.1286534
   -6.7045152   41.1868724
   -6.7037776   41.1875315
   -6.7031087   41.1882602
   -6.7025151   41.1890514
   -6.7020026   41.1898973
   -6.7015762   41.1907898
   -6.6940250   41.2088368
   -6.6939065   41.2090812
   -6.6937155   41.2092742
   -6.6495316   41.2492493
   -6.6493380   41.2494074
   -6.6490887   41.2494259
   -6.6176822   41.2501588
   -6.6167981   41.2502187
   -6.6159227   41.2503566
   -6.6150630   41.2505715
   -6.5902312   41.2579618
   -6.5900050   41.2580175
   -6.5898291   41.2578648
   -6.5783960   41.2469376
   -6.5776399   41.2462841
   -6.5768224   41.2457093
   -6.5759516   41.2452190
   -6.5750363   41.2448180
   -6.5740855   41.2445104
   -6.5731087   41.2442992
   -6.5721157   41.2441866
   -6.5711165   41.2441737
   -6.5701209   41.2442605
   -6.5691390   41.2444463
   -6.5681805   41.2447291
   -6.5672551   41.2451063
   -6.5663719   41.2455738
   -6.5655398   41.2461273
   -6.5227145   41.2778054
   -6.5225176   41.2779367
   -6.5222983   41.2778481
   -6.5123735   41.2732650
   -6.5121535   41.2731498
   -6.5119775   41.2729745
   -6.5113844   41.2723215
   -6.5107031   41.2716404
   -6.5099593   41.2710280
   -6.5091601   41.2704900
   -6.5083129   41.2700314
   -6.5074254   41.2696565
   -6.5065060   41.2693687
   -6.5055631   41.2691708
   -6.5046056   41.2690644
   -6.5036423   41.2690508
   -6.5026821   41.2691298
   -6.5017340   41.2693009
   -6.5008068   41.2695625
   -6.4982860   41.2704066
   -6.4973535   41.2707717
   -6.4964622   41.2712283
   -6.4956211   41.2717717
   -6.4948385   41.2723965
   -6.4941223   41.2730964
   -6.4934798   41.2738645
   -6.4929172   41.2746930
   -6.4924404   41.2755735
   -6.4920540   41.2764974
   -6.4917619   41.2774553
   -6.4915671   41.2784376
   -6.4914716   41.2794344
   -6.4914762   41.2804358
   -6.4915809   41.2814317
   -6.4917848   41.2824121
   -6.4920856   41.2833673
   -6.4934695   41.2870976
   -6.4935391   41.2873165
   -6.4933694   41.2874715
   -6.4871105   41.2926653
   -6.4869046   41.2928189
   -6.4866840   41.2929505
   -6.4715185   41.3009697
   -6.4710523   41.3011863
   -6.4668628   41.3028766
   -6.4666531   41.3029505
   -6.4664346   41.3029858
   -6.4496371   41.3049429
   -6.4486556   41.3051070
   -6.4476954   41.3053680
   -6.4467658   41.3057230
   -6.4458761   41.3061687
   -6.4450351   41.3067006
   -6.4442511   41.3073135
   -6.4435320   41.3080012
   -6.4428847   41.3087571
   -6.4423158   41.3095735
   -6.4418308   41.3104424
   -6.4414345   41.3113552
   -6.4411310   41.3123028
   -6.4393363   41.3190436
   -6.4392659   41.3192657
   -6.4391553   41.3194708
   -6.4254064   41.3423381
   -6.4252766   41.3425325
   -6.4250978   41.3426831
   -6.4006206   41.3613919
   -6.3998333   41.3620609
   -6.3991192   41.3628076
   -6.3984859   41.3636239
   -6.3979402   41.3645012
   -6.3974880   41.3654302
   -6.3971340   41.3664009
   -6.3968821   41.3674029
   -6.3932757   41.3856981
   -6.3932176   41.3859315
   -6.3930000   41.3860338
   -6.3666066   41.3968864
   -6.3663784   41.3969674
   -6.3661438   41.3969075
   -6.3476963   41.3912239
   -6.3467424   41.3909807
   -6.3457693   41.3908325
   -6.3447863   41.3907807
   -6.3438029   41.3908258
   -6.3428288   41.3909673
   -6.3418733   41.3912039
   -6.3409457   41.3915333
   -6.3400549   41.3919524
   -6.3392097   41.3924569
   -6.3384182   41.3930421
   -6.3376881   41.3937023
   -6.3370264   41.3944311
   -6.3364395   41.3952215
   -6.3359332   41.3960656
   -6.3355124   41.3969555
   -6.3351811   41.3978825
   -6.3349425   41.3988375
   -6.3347990   41.3998113
   -6.3347519   41.4007946
   -6.3347717   41.4149802
   -6.3347608   41.4152135
   -6.3345636   41.4153386
   -6.3080352   41.4304379
   -6.3072196   41.4309559
   -6.3064578   41.4315501
   -6.3057568   41.4322151
   -6.3051234   41.4329446
   -6.3045632   41.4337318
   -6.3040817   41.4345694
   -6.3036832   41.4354496
   -6.3033716   41.4363641
   -6.3031496   41.4373045
   -6.3030195   41.4382618
   -6.3029823   41.4392273
   -6.3030385   41.4401918
   -6.3031875   41.4411464
   -6.3034279   41.4420822
   -6.3037575   41.4429904
   -6.3041732   41.4438626
   -6.3046712   41.4446906
   -6.3052467   41.4454666
   -6.3077345   41.4485029
   -6.3078801   41.4487004
   -6.3077441   41.4489046
   -6.2853490   41.4790727
   -6.2852029   41.4792515
   -6.2850016   41.4793648
   -6.2794329   41.4821639
   -6.2789774   41.4824079
   -6.2743569   41.4850378
   -6.2735144   41.4855748
   -6.2727297   41.4861931
   -6.2720106   41.4868866
   -6.2713643   41.4876485
   -6.2707973   41.4884710
   -6.2703151   41.4893460
   -6.2699227   41.4902647
   -6.2696239   41.4912180
   -6.2694217   41.4921963
   -6.2693181   41.4931900
   -6.2693142   41.4941890
   -6.2693197   41.4943078
   -6.2692227   41.4945206
   -6.2677105   41.4974623
   -6.2676064   41.4976453
   -6.2674736   41.4978075
   -6.2657260   41.4997682
   -6.2655471   41.4999493
   -6.2651372   41.5001642
   -6.2650899   41.5001860
   -6.2642243   41.5006942
   -6.2634141   41.5012866
   -6.2626673   41.5019573
   -6.2619915   41.5026994
   -6.2613935   41.5035056
   -6.2608794   41.5043676
   -6.2604542   41.5052769
   -6.2601224   41.5062242
   -6.2598871   41.5072000
   -6.2597509   41.5081944
   -6.2597151   41.5091975
   -6.2597800   41.5101991
   -6.2599449   41.5111892
   -6.2600479   41.5116600
   -6.2599420   41.5118710
   -6.2583633   41.5146702
   -6.2582377   41.5148698
   -6.2580085   41.5149256
   -6.2498677   41.5164942
   -6.2488776   41.5167380
   -6.2479175   41.5170812
   -6.2469974   41.5175205
   -6.2461267   41.5180511
   -6.2453146   41.5186677
   -6.2445696   41.5193637
   -6.2438992   41.5201320
   -6.1993842   41.5767374
   -6.1988202   41.5775314
   -6.1983360   41.5783764
   -6.1979364   41.5792645
   -6.1976251   41.5801873
   -6.1974049   41.5811360
   -6.1972782   41.5821016
   -6.1972459   41.5830750
   -6.1973085   41.5840469
   -6.1974654   41.5850081
   -6.1977149   41.5859494
   -6.1980549   41.5868621
   -6.1984821   41.5877373
   -6.1989923   41.5885668
   -6.1995808   41.5893428
   -6.2002420   41.5900578
   -6.2009697   41.5907052
   -6.2017568   41.5912786
   -6.2025960   41.5917728
   -6.2034793   41.5921830
   -6.2343590   41.6047342
   -6.2345644   41.6048288
   -6.2347366   41.6049753
   -6.2837477   41.6506682
   -6.2844463   41.6512621
   -6.2851964   41.6517895
   -6.2859917   41.6522460
   -6.2868254   41.6526277
   -6.2876906   41.6529314
   -6.3527462   41.6724680
   -6.3537330   41.6727104
   -6.3547392   41.6728515
   -6.3557546   41.6728897
   -6.3743263   41.6726442
   -6.3749538   41.6726754
   -6.4345326   41.6794148
   -6.4354903   41.6794768
   -6.4364495   41.6794467
   -6.4374014   41.6793248
   -6.4383372   41.6791122
   -6.4392484   41.6788109
   -6.4401264   41.6784236
   -6.4409633   41.6779540
   -6.4417513   41.6774062
   -6.4424832   41.6767855
   -6.4431523   41.6760975
   -6.4532723   41.6646377
   -6.4534447   41.6644610
   -6.4536808   41.6643889
   -6.4987426   41.6530431
   -6.4989914   41.6529939
   -6.4992225   41.6530984
   -6.5493458   41.6789549
   -6.5495599   41.6790793
   -6.5496876   41.6792914
   -6.5590602   41.6967827
   -6.5591685   41.6970125
   -6.5591494   41.6972658
   -6.5566350   41.7169869
   -6.5565580   41.7179942
   -6.5565831   41.7190042
   -6.5567099   41.7200064
   -6.5569372   41.7209908
   -6.5572627   41.7219472
   -6.5576830   41.7228659
   -6.5581938   41.7237375
   -6.5715009   41.7440187
   -6.5716196   41.7442200
   -6.5715021   41.7444221
   -6.5568810   41.7670010
   -6.5564233   41.7677836
   -6.5560382   41.7686044
   -6.5557291   41.7694567
   -6.5476412   41.7953664
   -6.5476328   41.7953936
   -6.5269103   41.8624486
   -6.5266626   41.8634206
   -6.5265135   41.8644125
   -6.5264645   41.8654144
   -6.5265161   41.8664162
   -6.5266679   41.8674077
   -6.5269182   41.8683791
   -6.5272645   41.8693204
   -6.5277035   41.8702224
   -6.5282305   41.8710759
   -6.5288405   41.8718722
   -6.5295271   41.8726034
   -6.5302836   41.8732622
   -6.5311022   41.8738419
   -6.5319748   41.8743366
   -6.5328925   41.8747415
   -6.5338462   41.8750523
   -6.5348263   41.8752661
   -6.5740564   41.8817807
   -6.5742774   41.8818284
   -6.5741959   41.8820394
   -6.5521030   41.9319704
   -6.5517454   41.9329015
   -6.5514823   41.9338637
   -6.5513164   41.9348473
   -6.5512493   41.9358425
   -6.5512817   41.9368395
   -6.5514133   41.9378283
   -6.5516427   41.9387990
   -6.5519677   41.9397421
   -6.5523850   41.9406481
   -6.5528905   41.9415080
   -6.5534791   41.9423133
   -6.5541451   41.9430559
   -6.5548817   41.9437285
   -6.5556817   41.9443244
   -6.5777643   41.9591196
   -6.5786231   41.9596347
   -6.5795292   41.9600613
   -6.5804735   41.9603951
   -6.5814463   41.9606328
   -6.5824381   41.9607720
   -6.5834388   41.9608114
   -6.5844385   41.9607504
   -6.5854270   41.9605897
   -6.5863945   41.9603309
   -6.5873313   41.9599767
   -6.5882279   41.9595306
   -6.5890754   41.9589970
   -6.5898653   41.9583813
   -6.5905896   41.9576897
   -6.5912412   41.9569291
   -6.5987958   41.9471594
   -6.5989580   41.9469702
   -6.5991813   41.9468599
   -6.6172491   41.9390387
   -6.6174563   41.9389598
   -6.6176770   41.9389385
   -6.6695688   41.9362701
   -6.6703451   41.9361998
   -6.6711135   41.9360692
   -6.6967284   41.9306819
   -6.6969751   41.9306428
   -6.6972222   41.9306791
   -6.7501952   41.9411898
   -6.7504399   41.9412516
   -6.7505828   41.9414597
   -6.7736944   41.9791302
   -6.7742242   41.9799089
   -6.7748248   41.9806342
   -6.7754911   41.9812999
   -6.7762170   41.9818999
   -6.7769962   41.9824290
   -6.7778216   41.9828825
   -6.7786861   41.9832562
   -6.7795819   41.9835470
   -6.7805011   41.9837522
   -6.7814355   41.9838701
   -6.7823769   41.9838995
   -6.7967685   41.9836709
   -6.7977097   41.9836115
   -6.7986412   41.9834637
   -6.7995545   41.9832287
   -6.8004417   41.9829088
   -6.8012948   41.9825068
   -6.8021062   41.9820261
   -6.8028687   41.9814712
   -6.8035756   41.9808469
   -6.8042205   41.9801588
   -6.8047977   41.9794130
   -6.8053021   41.9786161
   -6.8057292   41.9777752
   -6.8212879   41.9431948
   -6.8213968   41.9429813
   -6.8216350   41.9429543
   -6.8925722   41.9384211
   -6.8932337   41.9384228
   -6.9427577   41.9418325
   -6.9430064   41.9418624
   -6.9431928   41.9420296
   -6.9661319   41.9648232
   -6.9668356   41.9654590
   -6.9675963   41.9660252
   -6.9684073   41.9665169
   -6.9692611   41.9669296
   -6.9701503   41.9672595
   -6.9710666   41.9675037
   -6.9720020   41.9676599
   -6.9729480   41.9677269
   -6.9738961   41.9677040
   -6.9748377   41.9675913
   -6.9757645   41.9673900
   -6.9766680   41.9671018
   -6.9775401   41.9667292
   -6.9783730   41.9662758
   -6.9813551   41.9644639
   -6.9815625   41.9643510
   -6.9817858   41.9643249
   -6.9826939   41.9641758
   -6.9835844   41.9639439
   -6.9844498   41.9636311
   -6.9852828   41.9632401
   -6.9860764   41.9627742
   -6.9868237   41.9622373
   -6.9875186   41.9616339
   -6.9899421   41.9593256
   -6.9901458   41.9591515
   -6.9903670   41.9590003
   -7.0092375   41.9475394
   -7.0094710   41.9474142
   -7.0097356   41.9473976
   -7.0705608   41.9468620
   -7.0707881   41.9468705
   -7.0709880   41.9469791
   -7.1343088   41.9852436
   -7.1351393   41.9856933
   -7.1360085   41.9860627
   -7.1369086   41.9863484
   -7.1378317   41.9865480
   -7.1387695   41.9866596
   -7.1397136   41.9866822
   -7.1406557   41.9866156
   -7.1415873   41.9864605
   -7.1425001   41.9862182
   -7.1433860   41.9858909
   -7.1442370   41.9854814
   -7.1450456   41.9849935
   -7.1458046   41.9844315
   -7.1572057   41.9751243
   -7.1574108   41.9749739
   -7.1576641   41.9749980
   -7.1712141   41.9770013
   -7.1721662   41.9770958
   -7.1731229   41.9770989
   -7.1740755   41.9770105
   -7.1750154   41.9768315
   -7.1759338   41.9765635
   -7.1768224   41.9762089
   -7.1776731   41.9757711
   -7.1784780   41.9752540
   -7.1792299   41.9746623
   -7.1799217   41.9740015
   -7.1807912   41.9730875
   -7.1814193   41.9723604
   -7.1819747   41.9715763
   -7.1824522   41.9707425
   -7.1828476   41.9698667
   -7.1831571   41.9689571
   -7.1833778   41.9680219
   -7.1835078   41.9670699
   -7.1835458   41.9661098
   -7.1834914   41.9651505
   -7.1833453   41.9642008
   -7.1808204   41.9517930
   -7.1807854   41.9515698
   -7.1808120   41.9513455
   -7.1820287   41.9439587
   -7.1821437   41.9429329
   -7.1821523   41.9419006
   -7.1820544   41.9408730
   -7.1818512   41.9398609
   -7.1815446   41.9388752
   -7.1811381   41.9379264
   -7.1720129   41.9193400
   -7.1719143   41.9191101
   -7.1720150   41.9188811
   -7.1824650   41.8980886
   -7.1827910   41.8975325
   -7.1956030   41.8785973
   -7.1957587   41.8783912
   -7.1959967   41.8782909
   -7.2308042   41.8657230
   -7.2310369   41.8656516
   -7.2312755   41.8656032
   -7.2521954   41.8624182
   -7.2531571   41.8622231
   -7.2540950   41.8619347
   -7.3086104   41.8421945
   -7.3088185   41.8421292
   -7.3090339   41.8421014
   -7.3560023   41.8380978
   -7.3562110   41.8380888
   -7.3564198   41.8380973
   -7.3776655   41.8398550
   -7.3786477   41.8398878
   -7.3796283   41.8398240
   -7.3805980   41.8396643
   -7.3815473   41.8394102
   -7.3824670   41.8390642
   -7.3833484   41.8386295
   -7.3841828   41.8381105
   -7.3849623   41.8375120
   -7.3856792   41.8368399
   -7.3863268   41.8361007
   -7.3868986   41.8353015
   -7.3958432   41.8214057
   -7.3959911   41.8211999
   -7.3962088   41.8210702
   -7.4274980   41.8045425
   -7.4277067   41.8044448
   -7.4278297   41.8046396
   -7.4460650   41.8368446
   -7.4461617   41.8370338
   -7.4462247   41.8372360
   -7.4507647   41.8543350
   -7.4510678   41.8552833
   -7.4514636   41.8561969
   -7.4519484   41.8570665
   -7.4525172   41.8578836
   -7.4531645   41.8586401
   -7.4538838   41.8593285
   -7.4546680   41.8599420
   -7.4555093   41.8604744
   -7.4563993   41.8609206
   -7.4573293   41.8612760
   -7.4582901   41.8615372
   -7.4592721   41.8617015
   -7.4602655   41.8617674
   -7.4612606   41.8617342
   -7.4850561   41.8597505
   -7.4852966   41.8597424
   -7.4854547   41.8599239
   -7.4882161   41.8634304
   -7.4888775   41.8641885
   -7.4896117   41.8648762
   -7.4904113   41.8654868
   -7.4912681   41.8660139
   -7.4921737   41.8664522
   -7.4931186   41.8667973
   -7.4940935   41.8670458
   -7.4950884   41.8671950
   -7.4960933   41.8672435
   -7.4970979   41.8671908
   -7.4980922   41.8670374
   -7.4990660   41.8667849
   -7.4992857   41.8667160
   -7.5002054   41.8663771
   -7.5010874   41.8659498
   -7.5019235   41.8654382
   -7.5027054   41.8648473
   -7.5034257   41.8641826
   -7.5040775   41.8634506
   -7.5046545   41.8626583
   -7.5051511   41.8618133
   -7.5055627   41.8609238
   -7.5058852   41.8599982
   -7.5061155   41.8590455
   -7.5062515   41.8580749
   -7.5062918   41.8570956
   -7.5062360   41.8561170
   -7.5060847   41.8551486
   -7.5058394   41.8541997
   -7.5055023   41.8532794
   -7.5038740   41.8494293
   -7.5037922   41.8492055
   -7.5039981   41.8490856
   -7.5399015   41.8305108
   -7.5401387   41.8304035
   -7.5403975   41.8303751
   -7.6167154   41.8260339
   -7.6169469   41.8260321
   -7.6169268   41.8262627
   -7.6142529   41.8457906
   -7.6142018   41.8460556
   -7.6140947   41.8463034
   -7.6047461   41.8650634
   -7.6043446   41.8659815
   -7.6040371   41.8669351
   -7.6038266   41.8679147
   -7.6037151   41.8689105
   -7.6037039   41.8699124
   -7.6037929   41.8709104
   -7.6039814   41.8718945
   -7.6042675   41.8728548
   -7.6046482   41.8737817
   -7.6051197   41.8746658
   -7.6056774   41.8754982
   -7.6063155   41.8762707
   -7.6070278   41.8769755
   -7.6078070   41.8776054
   -7.6086453   41.8781542
   -7.6095343   41.8786163
   -7.6134399   41.8804040
   -7.6143763   41.8807768
   -7.6153455   41.8810534
   -7.6163377   41.8812310
   -7.6173426   41.8813079
   -7.6183502   41.8812832
   -7.6193502   41.8811572
   -7.6203324   41.8809312
   -7.6212869   41.8806075
   -7.6279981   41.8779472
   -7.6282196   41.8778713
   -7.6284534   41.8778826
   -7.6587813   41.8807883
   -7.6590049   41.8808200
   -7.6592021   41.8809292
   -7.6952741   41.9030944
   -7.6961550   41.9035765
   -7.6970798   41.9039678
   -7.6980391   41.9042644
   -7.6990234   41.9044633
   -7.7000226   41.9045624
   -7.7010268   41.9045609
   -7.7020257   41.9044587
   -7.7030093   41.9042568
   -7.7039678   41.9039573
   -7.7048913   41.9035631
   -7.7308809   41.8908937
   -7.7311167   41.8907935
   -7.7313728   41.8907969
   -7.7427202   41.8915358
   -7.7429366   41.8915594
   -7.7431447   41.8916201
   -7.7552994   41.8957418
   -7.7562372   41.8960096
   -7.7571967   41.8961848
   -7.7581686   41.8962656
   -7.7591438   41.8962514
   -7.7601130   41.8961423
   -7.7610669   41.8959393
   -7.7619966   41.8956443
   -7.7628930   41.8952602
   -7.7637478   41.8947905
   -7.7830577   41.8829201
   -7.7832566   41.8828100
   -7.7834813   41.8827788
   -7.8291750   41.8785266
   -7.8301154   41.8783938
   -7.8310389   41.8781724
   -7.8319372   41.8778644
   -7.8328023   41.8774726
   -7.8336263   41.8770005
   -7.8344017   41.8764523
   -7.8351217   41.8758331
   -7.8357798   41.8751483
   -7.8363699   41.8744043
   -7.8368867   41.8736076
   -7.8373256   41.8727654
   -7.8376827   41.8718855
   -7.8379547   41.8709756
   -7.8381392   41.8700440
   -7.8387107   41.8662098
   -7.8387548   41.8659862
   -7.8389385   41.8658514
   -7.8735544   41.8428493
   -7.8737637   41.8427249
   -7.8739686   41.8428564
   -7.8950166   41.8579130
   -7.8952071   41.8580645
   -7.8951322   41.8582961
   -7.8864569   41.8811132
   -7.8861509   41.8820564
   -7.8859398   41.8830252
   -7.8858257   41.8840102
   -7.8858096   41.8850017
   -7.8858919   41.8859898
   -7.8884546   41.9051947
   -7.8885075   41.9057725
   -7.8886423   41.9067318
   -7.8888694   41.9076736
   -7.8891865   41.9085889
   -7.8895908   41.9094693
   -7.8900783   41.9103065
   -7.8906445   41.9110925
   -7.8912841   41.9118201
   -7.8919911   41.9124823
   -7.8927589   41.9130731
   -7.8935802   41.9135868
   -7.8944474   41.9140186
   -7.8953523   41.9143644
   -7.8962864   41.9146211
   -7.8972410   41.9147862
   -7.8982071   41.9148581
   -7.8991756   41.9148363
   -7.9001374   41.9147208
   -7.9010836   41.9145128
   -7.9020051   41.9142142
   -7.9028935   41.9138279
   -7.9037403   41.9133574
   -7.9045376   41.9128071
   -7.9052780   41.9121824
   -7.9059544   41.9114889
   -7.9065605   41.9107332
   -7.9070907   41.9099224
   -7.9075399   41.9090641
   -7.9079040   41.9081664
   -7.9181103   41.8790190
   -7.9182038   41.8787899
   -7.9184342   41.8786998
   -7.9452530   41.8697411
   -7.9454674   41.8696801
   -7.9456904   41.8696783
   -7.9741650   41.8707268
   -7.9751314   41.8707157
   -7.9760922   41.8706113
   -7.9770384   41.8704147
   -7.9779613   41.8701276
   -7.9788521   41.8697528
   -7.9797025   41.8692938
   -7.9805047   41.8687548
   -7.9812511   41.8681409
   -7.9819348   41.8674578
   -7.9825493   41.8667119
   -8.0115032   41.8278876
   -8.0116646   41.8276931
   -8.0119169   41.8276805
   -8.0296579   41.8277147
   -8.0307205   41.8276602
   -8.0317714   41.8274930
   -8.0327986   41.8272151
   -8.0337904   41.8268296
   -8.0347356   41.8263410
   -8.0549915   41.8144628
   -8.0552407   41.8143350
   -8.0555121   41.8142662
   -8.0921754   41.8071473
   -8.0928746   41.8070621
   -8.1216852   41.8056022
   -8.1219239   41.8056015
   -8.1221584   41.8056465
   -8.1677603   41.8166839
   -8.1679802   41.8167484
   -8.1679690   41.8169773
   -8.1650597   41.8469649
   -8.1650136   41.8480424
   -8.1650837   41.8491185
   -8.1652694   41.8501808
   -8.1690205   41.8664223
   -8.1692982   41.8673968
   -8.1696731   41.8683381
   -8.1701414   41.8692367
   -8.1706981   41.8700832
   -8.1713377   41.8708691
   -8.1720536   41.8715862
   -8.1728383   41.8722272
   -8.1736838   41.8727855
   -8.1745816   41.8732554
   -8.1755222   41.8736320
   -8.1764962   41.8739115
   -8.1774934   41.8740910
   -8.1785036   41.8741686
   -8.1795166   41.8741437
   -8.2010514   41.8725183
   -8.2012847   41.8725121
   -8.2013391   41.8727391
   -8.2035890   41.8846595
   -8.2038079   41.8855784
   -8.2041125   41.8864727
   -8.2045001   41.8873342
   -8.2049673   41.8881553
   -8.2055099   41.8889286
   -8.2061231   41.8896473
   -8.2068013   41.8903049
   -8.2075385   41.8908956
   -8.2083283   41.8914141
   -8.2152617   41.8955111
   -8.2154534   41.8956368
   -8.2155084   41.8958593
   -8.2186288   41.9116117
   -8.2186637   41.9118476
   -8.2185425   41.9120530
   -8.2009930   41.9387428
   -8.2008252   41.9389689
   -8.2006107   41.9391515
   -8.1807387   41.9542120
   -8.1800119   41.9548192
   -8.1793458   41.9554923
   -8.1787463   41.9562255
   -8.1782188   41.9570120
   -8.1777682   41.9578450
   -8.1652781   41.9837958
   -8.1651672   41.9840007
   -8.1649457   41.9840726
   -8.1451804   41.9894698
   -8.1442050   41.9897908
   -8.1432676   41.9902101
   -8.1423782   41.9907234
   -8.1415461   41.9913252
   -8.1407801   41.9920092
   -8.1400883   41.9927681
   -8.1394779   41.9935939
   -8.1315365   42.0055818
   -8.1313836   42.0057883
   -8.1311386   42.0058655
   -8.0949371   42.0152297
   -8.0939807   42.0155290
   -8.0930591   42.0159224
   -8.0921814   42.0164062
   -8.0913566   42.0169753
   -8.0905929   42.0176242
   -8.0898980   42.0183462
   -8.0892788   42.0191342
   -8.0887416   42.0199801
   -8.0882918   42.0208756
   -8.0879338   42.0218116
   -8.0876713   42.0227788
   -8.0875070   42.0237673
   -8.0874424   42.0247674
   -8.0871547   42.0447841
   -8.0871927   42.0458102
   -8.0873357   42.0468270
   -8.0875822   42.0478238
   -8.0879296   42.0487901
   -8.0883743   42.0497156
   -8.0968606   42.0652770
   -8.0973858   42.0661345
   -8.0979944   42.0669349
   -8.0986804   42.0676701
   -8.0994368   42.0683327
   -8.1002558   42.0689160
   -8.1011293   42.0694142
   -8.1171334   42.0775026
   -8.1179940   42.0778877
   -8.1188870   42.0781901
   -8.1198046   42.0784070
   -8.1207385   42.0785366
   -8.1216805   42.0785776
   -8.1226221   42.0785297
   -8.1235551   42.0783934
   -8.1244710   42.0781698
   -8.1709178   42.0644808
   -8.1711591   42.0644226
   -8.1714068   42.0644385
   -8.1868058   42.0662011
   -8.1870470   42.0662412
   -8.1870927   42.0664815
   -8.1957658   42.1294247
   -8.1958023   42.1298512
   -8.1959305   42.1308050
   -8.1961497   42.1317421
   -8.1964580   42.1326537
   -8.1968524   42.1335315
   -8.1973295   42.1343673
   -8.1978846   42.1351534
   -8.1985128   42.1358825
   -8.1992081   42.1365478
   -8.1999642   42.1371432
   -8.2007740   42.1376632
   -8.2016300   42.1381029
   -8.2025243   42.1384583
   -8.2034486   42.1387261
   -8.2043945   42.1389038
   -8.2053530   42.1389897
   -8.2063153   42.1389832
   -8.2072725   42.1388841
   -8.2082158   42.1386935
   -8.2091364   42.1384131
   -8.2100258   42.1380455
   -8.2295749   42.1288408
   -8.2297880   42.1287525
   -8.2299842   42.1288738
   -8.2342579   42.1318030
   -8.2350880   42.1323143
   -8.2359639   42.1327423
   -8.2368773   42.1330831
   -8.2378195   42.1333332
   -8.2387817   42.1334905
   -8.2397545   42.1335533
   -8.2407289   42.1335210
   -8.2416955   42.1333941
   -8.2426451   42.1331736
   -8.2435687   42.1328617
   -8.2444576   42.1324614
   -8.2453033   42.1319764
   -8.2460978   42.1314113
   -8.2468334   42.1307716
   -8.2579271   42.1201316
   -8.2581102   42.1199726
   -8.2583518   42.1199915
   -8.2696412   42.1214398
   -8.2706490   42.1215176
   -8.2716595   42.1214933
   -8.2726623   42.1213670
   -8.2736474   42.1211402
   -8.2746044   42.1208151
   -8.2755238   42.1203950
   -8.2763961   42.1198843
   -8.2980824   42.1056679
   -8.2986786   42.1053330
   -8.3027961   42.1033782
   -8.3030057   42.1032902
   -8.3032313   42.1032624
   -8.3133903   42.1024795
   -8.3146640   42.1022984
   -8.3155334   42.1021170
   -8.3165139   42.1018600
   -8.3174632   42.1015051
   -8.3183718   42.1010559
   -8.3192302   42.1005171
   -8.3200297   42.0998941
   -8.3207620   42.0991934
   -8.3214196   42.0984222
   -8.3219958   42.0975884
   -8.3224846   42.0967006
   -8.3228810   42.0957678
   -8.3231810   42.0947997
   -8.3233815   42.0938062
   -8.3234728   42.0931951
   -8.3240249   42.0903577
   -8.3240875   42.0901069
   -8.3242673   42.0899213
   -8.3323997   42.0823647
   -8.3325809   42.0822120
   -8.3328172   42.0822295
   -8.3440188   42.0836069
   -8.3442838   42.0836542
   -8.3445325   42.0837574
   -8.3513938   42.0870526
   -8.3522105   42.0874011
   -8.3530548   42.0876757
   -8.3539202   42.0878744
   -8.3547998   42.0879955
   -8.3556867   42.0880382
   -8.3594888   42.0880519
   -8.3605806   42.0879961
   -8.3616599   42.0878215
   -8.3627136   42.0875300
   -8.3637292   42.0871253
   -8.3681980   42.0850546
   -8.3691087   42.0845742
   -8.3699652   42.0840027
   -8.3821612   42.0749235
   -8.3823581   42.0747912
   -8.3825939   42.0747648
   -8.3906592   42.0742548
   -8.3908910   42.0742511
   -8.3910888   42.0743719
   -8.3952157   42.0771674
   -8.3960787   42.0776905
   -8.3969901   42.0781240
   -8.3979405   42.0784633
   -8.3989203   42.0787052
   -8.3999195   42.0788471
   -8.4009279   42.0788875
   -8.4011574   42.0788851
   -8.4021197   42.0788287
   -8.4030721   42.0786798
   -8.4040057   42.0784400
   -8.4108669   42.0763199
   -8.4116934   42.0760242
   -8.4124908   42.0756571
   -8.4192767   42.0721647
   -8.4195228   42.0720545
   -8.4197913   42.0720293
   -8.4296697   42.0716392
   -8.4299007   42.0716410
   -8.4300952   42.0717657
   -8.4378178   42.0772433
   -8.4386851   42.0777938
   -8.4396043   42.0782524
   -8.4445427   42.0804071
   -8.4453805   42.0807287
   -8.4462438   42.0809739
   -8.4471256   42.0811408
   -8.4480188   42.0812279
   -8.4489161   42.0812345
   -8.4781909   42.0801378
   -8.4783976   42.0801386
   -8.4786036   42.0801565
   -8.4833183   42.0807650
   -8.4843653   42.0808446
   -8.4854148   42.0808139
   -8.4889362   42.0805254
   -8.4898496   42.0804081
   -8.4907484   42.0802071
   -8.4953837   42.0789443
   -8.4959963   42.0787561
   -8.4998018   42.0774522
   -8.5000736   42.0773761
   -8.5003556   42.0773632
   -8.5141562   42.0775196
   -8.5151511   42.0774813
   -8.5161373   42.0773443
   -8.5171049   42.0771099
   -8.5180444   42.0767804
   -8.5189466   42.0763591
   -8.5198023   42.0758502
   -8.5206032   42.0752588
   -8.5213413   42.0745906
   -8.5220094   42.0738524
   -8.5226007   42.0730513
   -8.5231094   42.0721955
   -8.5235305   42.0712933
   -8.5238597   42.0703537
   -8.5240940   42.0693860
   -8.5242308   42.0683998
   -8.5242689   42.0674049
   -8.5242079   42.0664112
   -8.5240483   42.0654284
   -8.5237918   42.0644664
   -8.5237297   42.0642727
   -8.5238846   42.0641015
   -8.5267879   42.0611822
   -8.5269870   42.0610025
   -8.5272332   42.0608959
   -8.5368244   42.0573450
   -8.5369592   42.0572940
   -8.5466516   42.0535460
   -8.5468505   42.0534785
   -8.5470572   42.0534456
   -8.5608679   42.0518316
   -8.5610533   42.0518169
   -8.5612392   42.0518161
   -8.5729360   42.0521988
   -8.5742313   42.0521571
   -8.5821904   42.0513828
   -8.5824245   42.0513711
   -8.5826567   42.0514036
   -8.5956209   42.0538409
   -8.5965713   42.0539727
   -8.5975299   42.0540129
   -8.5984879   42.0539610
   -8.5994365   42.0538175
   -8.6321326   42.0472549
   -8.6330513   42.0470248
   -8.6339442   42.0467087
   -8.6348031   42.0463097
   -8.6356204   42.0458311
   -8.6363888   42.0452773
   -8.6371014   42.0446534
   -8.6458115   42.0362651
   -8.6459901   42.0361089
   -8.6461826   42.0359703
   -8.6514606   42.0325410
   -8.6522703   42.0319554
   -8.6530176   42.0312918
   -8.6536948   42.0305570
   -8.6542954   42.0297583
   -8.6548132   42.0289036
   -8.6552432   42.0280015
   -8.6555809   42.0270610
   -8.6558231   42.0260915
   -8.6559674   42.0251027
   -8.6566022   42.0184305
   -8.6566749   42.0179332
   -8.6594623   42.0038560
   -8.6595165   42.0036360
   -8.6596920   42.0034927
   -8.6785677   41.9894868
   -8.6787854   41.9893423
   -8.6790285   41.9892466
   -8.6996224   41.9823603
   -8.6998047   41.9823032
   -8.7209914   41.9761083
   -8.7219247   41.9757845
   -8.7228215   41.9753703
   -8.7390106   41.9668985
   -8.7398611   41.9663985
   -8.7406582   41.9658172
   -8.7413940   41.9651601
   -8.7420616   41.9644338
   -8.7426544   41.9636452
   -8.7431665   41.9628020
   -8.7435931   41.9619125
   -8.7452050   41.9580769
   -8.7455710   41.9570536
   -8.7458237   41.9559967
   -8.7459603   41.9549186
   -8.7459791   41.9538321
   -8.7457263   41.9470142
   -8.7457281   41.9467905
   -8.7457696   41.9465716
   -8.7474239   41.9395745
   -8.7474864   41.9393557
   -8.7476545   41.9392027
   -8.7638800   41.9257327
   -8.7640827   41.9255812
   -8.7643119   41.9254738
   -8.7780514   41.9198701
   -8.7791014   41.9193687
   -8.7869458   41.9150458
   -8.7874140   41.9148187
   -8.8097067   41.9054071
   -8.8105777   41.9049888
   -8.8114042   41.9044883
   -8.8291108   41.8925606
   -8.8298287   41.8920289
   -8.8304964   41.8914352
   -8.8434312   41.8788538
   -8.8436624   41.8786550
   -8.8439161   41.8784860
   -8.8533583   41.8729995
   -8.8535683   41.8728905
   -8.8537951   41.8728232
   -8.8601482   41.8712626
   -8.8610752   41.8709867
   -8.8619712   41.8706226
   -8.8628279   41.8701736
   -8.8636371   41.8696439
   -8.8643914   41.8690386
   -8.8650837   41.8683632
   -8.8705226   41.8625177
   -8.8706932   41.8623513
   -8.8709305   41.8623291
   -9.2142294   41.8469510
   -9.2144677   41.8469521
   -9.2145788   41.8471629
   -9.6003232   42.6758620
   -9.6004207   42.6761038
   -9.6004656   42.6763606
   -9.7789848   44.1483094
   -9.7790014   44.1485382
   -9.7787720   44.1485372
END
END
