europe-norway-north
1
   8.2561402   80.4343735
   8.2563584   80.4344812
   9.5514783   81.0345861
   9.5517272   81.0346855
   9.5519948   81.0347002
   35.3405000   81.0518298
   35.3407260   81.0518191
   35.3406801   81.0515976
   33.4962293   73.8993500
   33.4961614   73.8991302
   33.4959333   73.8991002
   13.6540558   72.2425751
   13.6530882   72.2424465
   13.6521379   72.2422243
   13.6512137   72.2419104
   13.6503245   72.2415079
   13.6494788   72.2410207
   13.6486847   72.2404534
   13.6479496   72.2398113
   13.6472806   72.2391006
   13.6466841   72.2383281
   13.6461657   72.2375012
   13.6457304   72.2366276
   13.6453823   72.2357158
   13.6451248   72.2347743
   13.6449603   72.2338123
   13.6448903   72.2328388
   13.6449156   72.2318631
   13.6450359   72.2308945
   13.6452501   72.2299423
   13.6455560   72.2290155
   13.6459508   72.2281229
   13.6464308   72.2272731
   13.6469913   72.2264741
   13.6476271   72.2257335
   13.6483320   72.2250584
   13.6490994   72.2244553
   13.6499219   72.2239299
   13.6507917   72.2234871
   13.6517005   72.2231313
   13.6526397   72.2228657
   13.6536003   72.2226930
   13.6545732   72.2226147
   33.6394089   71.5936676
   33.6396367   71.5936494
   33.6396028   71.5934235
   33.4962191   70.8749262
   33.4961593   70.8746890
   33.4959359   70.8745893
   31.5857910   70.1340853
   31.5856077   70.1340183
   31.1099146   69.9706531
   31.1088018   69.9701943
   31.1077522   69.9696052
   30.8452120   69.8007008
   30.8444259   69.8001396
   30.8436977   69.7995053
   30.8430340   69.7988036
   30.8424411   69.7980412
   30.8419246   69.7972251
   30.8414891   69.7963630
   30.8411389   69.7954629
   30.8408771   69.7945333
   30.8407062   69.7935827
   30.8406279   69.7926201
   30.8406427   69.7916544
   30.8407507   69.7906946
   30.8409507   69.7897498
   30.8412410   69.7888286
   30.8416187   69.7879397
   30.8420805   69.7870914
   30.8426219   69.7862916
   30.8432379   69.7855478
   30.8439229   69.7848669
   30.8446703   69.7842552
   30.8980167   69.7447406
   30.8982076   69.7445836
   30.8982258   69.7443371
   30.8987795   69.7201462
   30.8988524   69.7191484
   30.8990247   69.7181628
   30.8992945   69.7171995
   30.8996593   69.7162678
   30.9001153   69.7153773
   30.9006581   69.7145369
   30.9012821   69.7137548
   30.9019811   69.7130391
   30.9027481   69.7123967
   30.9035755   69.7118342
   30.9044549   69.7113573
   30.9536940   69.6877583
   30.9539037   69.6876446
   30.9538043   69.6874277
   30.9447389   69.6700054
   30.9443160   69.6690806
   30.9439892   69.6681176
   30.9437618   69.6671265
   30.9436364   69.6661174
   30.9436140   69.6651007
   30.9436950   69.6640870
   30.9438786   69.6630868
   30.9441627   69.6621105
   30.9445446   69.6611680
   30.9450202   69.6602692
   30.9455846   69.6594233
   30.9462320   69.6586391
   30.9610312   69.6424645
   30.9611879   69.6422750
   30.9612102   69.6420301
   30.9624002   69.6129103
   30.9623985   69.6126712
   30.9623511   69.6124369
   30.9525139   69.5735329
   30.9524379   69.5732868
   30.9522686   69.5730926
   30.9244284   69.5443343
   30.9242436   69.5441620
   30.9239979   69.5441025
   30.7978131   69.5203514
   30.7975388   69.5203154
   30.7972623   69.5203101
   30.5146663   69.5305404
   30.5144035   69.5305639
   30.5141615   69.5306689
   30.4145081   69.5803469
   30.4131721   69.5808963
   30.2375025   69.6386976
   30.2366878   69.6389279
   30.1610855   69.6568840
   30.1601148   69.6570644
   30.1591311   69.6571483
   30.1581439   69.6571347
   30.1571628   69.6570239
   30.1561975   69.6568168
   30.1552572   69.6565156
   30.1543513   69.6561231
   30.1534885   69.6556432
   30.1526772   69.6550805
   30.1519253   69.6544406
   30.1512402   69.6537297
   30.1506286   69.6529547
   30.1500963   69.6521231
   30.1496487   69.6512431
   30.1492900   69.6503232
   30.1490238   69.6493725
   30.1488526   69.6484002
   30.1487781   69.6474157
   30.1488011   69.6464286
   30.1489213   69.6454487
   30.1491376   69.6444853
   30.1494478   69.6435480
   30.1498489   69.6426458
   30.1503370   69.6417876
   30.1979216   69.5669776
   30.1980456   69.5667585
   30.1979687   69.5665188
   30.1841035   69.5298707
   30.1840115   69.5296585
   30.1837992   69.5295669
   30.1339894   69.5108241
   30.1330454   69.5104122
   30.1321488   69.5099054
   30.1313090   69.5093091
   30.1305350   69.5086295
   30.1298351   69.5078739
   30.1292166   69.5070504
   30.1286860   69.5061675
   30.1282491   69.5052348
   30.1279105   69.5042621
   30.1276736   69.5032598
   30.1197232   69.4596867
   30.1196699   69.4594578
   30.1194611   69.4593501
   29.9944531   69.4023018
   29.9942266   69.4022116
   29.9939869   69.4021673
   29.9424865   69.3952305
   29.9422605   69.3952105
   29.9420376   69.3952525
   29.8646708   69.4135082
   29.8637277   69.4136835
   29.8627721   69.4137676
   29.8618129   69.4137597
   29.8608588   69.4136600
   29.8599187   69.4134694
   29.7299329   69.3805436
   29.7290111   69.3802622
   29.7281207   69.3798934
   29.7272699   69.3794405
   29.7264667   69.3789079
   29.7257185   69.3783004
   29.6989099   69.3543010
   29.6987240   69.3541501
   29.6985027   69.3540586
   29.5674701   69.3071288
   29.5672483   69.3070609
   29.5670163   69.3070570
   29.3938235   69.3122681
   29.3929005   69.3122532
   29.3919828   69.3121533
   29.3910782   69.3119692
   29.3009674   69.2892521
   29.2999947   69.2889535
   29.2990574   69.2885576
   29.2981652   69.2880685
   29.2973273   69.2874913
   29.2965524   69.2868319
   29.2958485   69.2860972
   29.2952229   69.2852948
   29.2946820   69.2844329
   29.2942316   69.2835205
   29.2938762   69.2825671
   29.2936195   69.2815826
   29.2900012   69.2641025
   29.2898465   69.2631029
   29.2897936   69.2620928
   29.2898430   69.2610825
   29.2899942   69.2600824
   29.2902457   69.2591026
   29.2905948   69.2581533
   29.2910381   69.2572441
   29.2915709   69.2563844
   29.2921879   69.2555828
   29.2928827   69.2548477
   29.2936482   69.2541866
   29.3234828   69.2309458
   29.3236566   69.2307967
   29.3235734   69.2305833
   29.2988651   69.1751433
   29.2987612   69.1749367
   29.2985891   69.1747823
   29.2555357   69.1396375
   29.2547765   69.1389500
   29.2540916   69.1381885
   29.2534881   69.1373609
   29.2529725   69.1364759
   29.2525501   69.1355429
   29.2522254   69.1345715
   29.2520017   69.1335720
   29.2518815   69.1325549
   29.2501956   69.1072242
   29.2501697   69.1069968
   29.2499709   69.1068833
   29.0423345   69.0009645
   29.0421091   69.0008635
   29.0418720   69.0009328
   28.8516491   69.0670673
   28.8514448   69.0671486
   28.8512691   69.0672807
   28.7958017   69.1129504
   28.7956321   69.1131040
   28.7956777   69.1133282
   28.8257885   69.2323369
   28.8258604   69.2325712
   28.8260789   69.2326824
   29.2135843   69.4060162
   29.2143995   69.4064265
   29.2151739   69.4069094
   29.3107438   69.4727428
   29.3115246   69.4733392
   29.3122431   69.4740094
   29.3128923   69.4747469
   29.3134660   69.4755445
   29.3139587   69.4763945
   29.3143656   69.4772888
   29.3146828   69.4782188
   29.3149071   69.4791753
   29.3150366   69.4801493
   29.3150698   69.4811312
   29.3150065   69.4821117
   29.3148473   69.4830813
   29.3145937   69.4840305
   29.3142482   69.4849502
   29.3138141   69.4858317
   29.3132956   69.4866662
   29.3126977   69.4874459
   29.3120261   69.4881631
   29.1638084   69.6316379
   29.1636218   69.6318397
   29.1634585   69.6320609
   29.1303529   69.6825040
   29.1297456   69.6833330
   29.1290565   69.6840954
   29.1282927   69.6847830
   29.1274625   69.6853885
   29.1265744   69.6859057
   29.1256380   69.6863290
   29.1246631   69.6866540
   29.1236600   69.6868772
   28.4006726   69.8091405
   28.4003850   69.8092069
   28.4001072   69.8093069
   28.3235403   69.8421213
   28.3233241   69.8422271
   28.3233687   69.8424635
   28.3285169   69.8638079
   28.3287016   69.8647847
   28.3287885   69.8657750
   28.3287766   69.8667691
   28.3286661   69.8677570
   28.3284580   69.8687291
   28.3281544   69.8696757
   28.3277584   69.8705876
   28.3272737   69.8714556
   28.3267053   69.8722711
   28.3260587   69.8730262
   28.3253404   69.8737134
   28.3245573   69.8743259
   28.3237173   69.8748576
   28.3228287   69.8753032
   28.3219002   69.8756585
   28.3209410   69.8759197
   28.1563088   69.9120819
   28.1560930   69.9121396
   28.1558918   69.9122344
   27.9796286   70.0051201
   27.9794289   70.0052376
   27.9793433   70.0054530
   27.9556238   70.0744152
   27.9552601   70.0753251
   27.9548090   70.0761950
   27.9542750   70.0770167
   27.9536631   70.0777821
   27.9529792   70.0784839
   27.9522300   70.0791155
   27.9514225   70.0796707
   27.9505645   70.0801441
   27.9496643   70.0805314
   27.9487306   70.0808286
   27.9477722   70.0810331
   27.9467984   70.0811428
   27.9458186   70.0811566
   27.9448421   70.0810744
   27.7448891   70.0543360
   27.7446196   70.0543147
   27.7443495   70.0543228
   27.6224116   70.0646140
   27.6213437   70.0646468
   27.6202783   70.0645655
   27.6192277   70.0643711
   27.5627215   70.0507527
   27.5617408   70.0504625
   27.5607948   70.0500737
   27.5598935   70.0495903
   27.5590464   70.0490174
   27.5582621   70.0483609
   27.5575490   70.0476278
   27.5276372   70.0135505
   27.5274641   70.0133724
   27.5272168   70.0133500
   27.4334057   70.0096307
   27.4323874   70.0095380
   27.4313840   70.0093418
   27.3151144   69.9803703
   27.3141753   69.9800867
   27.3132685   69.9797125
   27.3124028   69.9792512
   27.3115864   69.9787073
   27.3108272   69.9780860
   27.3101326   69.9773934
   27.3095091   69.9766360
   27.3089629   69.9758212
   27.3084991   69.9749567
   27.3081223   69.9740510
   27.3078360   69.9731128
   27.3076430   69.9721510
   27.3075452   69.9711749
   27.3075434   69.9701939
   27.3076379   69.9692175
   27.3078275   69.9682550
   27.3081105   69.9673157
   27.3084842   69.9664087
   27.3089449   69.9655427
   27.3094883   69.9647260
   27.3101091   69.9639664
   27.3147287   69.9588487
   27.3148746   69.9586706
   27.3147163   69.9585033
   27.2998696   69.9442623
   27.2996843   69.9441014
   27.2994446   69.9440485
   27.0421505   69.9005440
   27.0418914   69.9005142
   27.0416428   69.9005932
   26.9705182   69.9274239
   26.9695657   69.9277298
   26.9685874   69.9279389
   26.9675931   69.9280492
   26.9665928   69.9280597
   26.8711747   69.9242793
   26.8709444   69.9242810
   26.8707773   69.9244395
   26.8497939   69.9463029
   26.8490530   69.9470002
   26.8482450   69.9476186
   26.8473784   69.9481516
   26.8464620   69.9485939
   26.8455055   69.9489407
   26.8445187   69.9491886
   26.8435118   69.9493349
   26.8424953   69.9493782
   26.8414796   69.9493179
   26.7150113   69.9353267
   26.7147722   69.9353119
   26.7145538   69.9354105
   26.6796505   69.9532450
   26.6787528   69.9536493
   26.6778197   69.9539633
   26.6768603   69.9541841
   26.6758838   69.9543094
   26.6748997   69.9543382
   26.6739176   69.9542700
   26.4734188   69.9303879
   26.4724622   69.9302266
   26.4715258   69.9299734
   26.4706183   69.9296306
   26.4697482   69.9292014
   26.4689239   69.9286900
   26.4681530   69.9281011
   26.4674428   69.9274403
   26.3859161   69.8438508
   26.3857226   69.8436725
   26.3854728   69.8435902
   26.2616335   69.8099812
   26.2606759   69.8096687
   26.2597546   69.8092615
   26.2588789   69.8087637
   26.2580578   69.8081803
   26.2572995   69.8075173
   26.2566117   69.8067813
   26.2560015   69.8059799
   26.2554750   69.8051212
   26.2550376   69.8042138
   26.2546936   69.8032671
   26.2544467   69.8022905
   26.2514193   69.7871468
   26.2513590   69.7869083
   26.2511454   69.7867865
   26.1297661   69.7254843
   26.1295155   69.7253746
   26.1292469   69.7253224
   26.0008849   69.7076298
   25.9998404   69.7074288
   25.9988231   69.7071179
   25.9978447   69.7067007
   25.9396441   69.6781377
   25.9387686   69.6776521
   25.9379459   69.6770815
   25.9371844   69.6764314
   25.9364918   69.6757085
   25.9358749   69.6749199
   25.9353400   69.6740736
   25.9348924   69.6731780
   25.9345365   69.6722422
   25.9342761   69.6712755
   25.9341136   69.6702875
   25.9340507   69.6692883
   25.9340880   69.6682878
   25.9342252   69.6672960
   25.9344609   69.6663230
   25.9347927   69.6653784
   25.9352173   69.6644716
   25.9357304   69.6636119
   25.9363269   69.6628078
   25.9370009   69.6620674
   25.9377455   69.6613981
   25.9385533   69.6608066
   25.9394161   69.6602989
   25.9403255   69.6598799
   25.9412722   69.6595540
   25.9615339   69.6536954
   25.9617523   69.6536209
   25.9618607   69.6534173
   25.9845864   69.6054287
   25.9846762   69.6052126
   25.9845137   69.6050442
   25.9407613   69.5638906
   25.9405739   69.5637311
   25.9403392   69.5636567
   25.8857587   69.5493123
   25.8848180   69.5490147
   25.8839112   69.5486259
   25.8830472   69.5481497
   25.8822343   69.5475906
   25.8814804   69.5469542
   25.8807929   69.5462465
   25.8801785   69.5454746
   25.8796432   69.5446458
   25.8791921   69.5437684
   25.8788297   69.5428507
   25.8785595   69.5419019
   25.8783841   69.5409310
   25.8783052   69.5399475
   25.8783236   69.5389611
   25.8784391   69.5379813
   25.8786506   69.5370176
   25.8789561   69.5360795
   25.8793525   69.5351760
   25.8798360   69.5343160
   25.8804019   69.5335078
   25.8810447   69.5327594
   25.8817581   69.5320779
   25.8864956   69.5279795
   25.8866648   69.5278181
   25.8865413   69.5276195
   25.8665317   69.4986976
   25.8660043   69.4978474
   25.8655645   69.4969487
   25.8652168   69.4960106
   25.8649645   69.4950424
   25.8648102   69.4940538
   25.8647555   69.4930548
   25.8648009   69.4920553
   25.8649459   69.4910654
   25.8651891   69.4900948
   25.8655281   69.4891535
   25.8727440   69.4718798
   25.8728255   69.4716537
   25.8726450   69.4714950
   25.8288463   69.4366813
   25.8280928   69.4360180
   25.8274095   69.4352824
   25.8268035   69.4344821
   25.8262807   69.4336250
   25.8258466   69.4327199
   25.8255053   69.4317758
   25.8252605   69.4308022
   25.8251145   69.4298089
   25.8250688   69.4288061
   25.8251239   69.4278037
   25.8252792   69.4268119
   25.8255332   69.4258406
   25.8258832   69.4248998
   25.8263259   69.4239987
   25.8268567   69.4231466
   25.8274702   69.4223520
   25.8555163   69.3895713
   25.8556640   69.3893800
   25.8555174   69.3891877
   25.8243012   69.3522706
   25.8241335   69.3520913
   25.8238940   69.3520378
   25.7926773   69.3466791
   25.7917441   69.3464725
   25.7908349   69.3461778
   25.7899579   69.3457977
   25.7891213   69.3453355
   25.7883326   69.3447956
   25.7875990   69.3441829
   25.7573675   69.3163730
   25.7566469   69.3156380
   25.7560056   69.3148329
   25.7554504   69.3139661
   25.7549873   69.3130469
   25.7546211   69.3120849
   25.7543558   69.3110904
   25.7541941   69.3100738
   25.7541378   69.3090461
   25.7541874   69.3080179
   25.7568166   69.2817336
   25.7568287   69.2815044
   25.7566653   69.2813432
   25.7220092   69.2502278
   25.7213189   69.2495446
   25.7206980   69.2487976
   25.7201526   69.2479939
   25.7196877   69.2471411
   25.7193078   69.2462472
   25.7190163   69.2453206
   25.7188161   69.2443702
   25.7187091   69.2434048
   25.7186962   69.2424336
   25.7187776   69.2414657
   25.7230368   69.2095087
   25.7230570   69.2092650
   25.7228780   69.2090984
   25.7169637   69.2041193
   25.7162504   69.2034568
   25.7156049   69.2027282
   25.7150333   69.2019402
   25.7145410   69.2011004
   25.7141328   69.2002167
   25.7138123   69.1992975
   25.7135828   69.1983516
   25.7134463   69.1973877
   25.7134042   69.1964152
   25.7134568   69.1954432
   25.7136037   69.1944809
   25.7138435   69.1935374
   25.7141738   69.1926217
   25.7145917   69.1917425
   25.7150930   69.1909081
   25.7156731   69.1901264
   25.7528065   69.1448671
   25.7529478   69.1446769
   25.7529158   69.1444421
   25.7417336   69.0843174
   25.7416006   69.0833321
   25.7415661   69.0823386
   25.7416304   69.0813465
   25.7417930   69.0803657
   25.7420521   69.0794059
   25.7424052   69.0784766
   25.7428489   69.0775869
   25.7433787   69.0767457
   25.7439894   69.0759612
   25.7446750   69.0752413
   25.7454287   69.0745930
   25.7616122   69.0620160
   25.7617882   69.0618652
   25.7617677   69.0616343
   25.7597822   69.0471584
   25.7596978   69.0462071
   25.7597045   69.0452520
   25.7598023   69.0443020
   25.7599902   69.0433656
   25.7602667   69.0424514
   25.7606291   69.0415677
   25.7610741   69.0407227
   25.7615977   69.0399239
   25.7621952   69.0391788
   25.7628610   69.0384940
   25.7635891   69.0378759
   25.7643728   69.0373301
   25.7652051   69.0368615
   25.7847889   69.0270359
   25.7849884   69.0269238
   25.7849712   69.0266956
   25.7826404   69.0076977
   25.7825988   69.0074580
   25.7823853   69.0073413
   25.7329337   68.9834153
   25.7319984   68.9828994
   25.7311235   68.9822867
   25.7303190   68.9815842
   25.7295939   68.9807999
   25.6620987   68.8994733
   25.6619213   68.8992811
   25.6616927   68.8991538
   25.6269283   68.8821269
   25.6267069   68.8820315
   25.6264674   68.8820038
   25.5416697   68.8763553
   25.5414413   68.8763506
   25.5412202   68.8764084
   25.4837381   68.8943045
   25.4828241   68.8945424
   25.4818917   68.8946929
   25.4809493   68.8947549
   25.4800053   68.8947276
   25.4790681   68.8946115
   25.4111780   68.8829181
   25.4102713   68.8827182
   25.4093870   68.8824350
   25.1669121   68.7921789
   25.1659785   68.7917762
   25.1650906   68.7912808
   25.1642576   68.7906978
   25.1634881   68.7900332
   25.1627900   68.7892939
   25.1621706   68.7884875
   25.1367475   68.7516539
   25.1362061   68.7507760
   25.1357581   68.7498469
   25.1354082   68.7488767
   25.1351600   68.7478756
   25.1350163   68.7468543
   25.1349786   68.7458236
   25.1350472   68.7447944
   25.1352214   68.7437779
   25.1412841   68.7168382
   25.1413262   68.7165941
   25.1411582   68.7164120
   25.1261809   68.7017481
   25.1255064   68.7010186
   25.1249075   68.7002257
   25.1243903   68.6993773
   25.1239599   68.6984818
   25.1236204   68.6975480
   25.1233753   68.6965850
   25.1232270   68.6956026
   25.1231768   68.6946102
   25.1231302   68.6324138
   25.1231185   68.6321776
   25.1229055   68.6320750
   25.0708888   68.6100710
   25.0706467   68.6099831
   25.0703918   68.6099469
   24.9316616   68.5975461
   24.9306568   68.5974046
   24.9296715   68.5971620
   24.9287159   68.5968208
   24.9277997   68.5963845
   24.9269325   68.5958576
   24.9261232   68.5952455
   24.9253800   68.5945546
   24.9247107   68.5937919
   24.9241221   68.5929653
   24.9236204   68.5920833
   24.9232106   68.5911550
   24.9056174   68.5451087
   24.9055226   68.5448929
   24.9052885   68.5449203
   24.8519150   68.5538175
   24.8516663   68.5538723
   24.8514772   68.5540429
   24.7802302   68.6253190
   24.7794419   68.6260281
   24.7785829   68.6266498
   24.7776629   68.6271771
   24.7766922   68.6276039
   24.7756818   68.6279256
   24.6071161   68.6718967
   24.6058481   68.6721413
   24.2494503   68.7172657
   24.2487595   68.7174032
   24.1480355   68.7449656
   24.1478112   68.7450389
   24.1477916   68.7452740
   24.1470316   68.7674142
   24.1469513   68.7683814
   24.1467776   68.7693363
   24.1465121   68.7702699
   24.1461573   68.7711733
   24.1457167   68.7720381
   24.1451943   68.7728561
   24.1445950   68.7736197
   24.1439246   68.7743215
   24.1431893   68.7749550
   24.1423960   68.7755142
   24.1415522   68.7759939
   24.1406659   68.7763896
   24.1397455   68.7766975
   24.1387995   68.7769146
   24.1378369   68.7770391
   24.1368668   68.7770696
   24.1358983   68.7770060
   24.0750400   68.7700275
   24.0748021   68.7700118
   24.0745842   68.7701084
   23.9822569   68.8164728
   23.9813848   68.8168598
   23.9804799   68.8171619
   23.9795502   68.8173764
   23.9786044   68.8175014
   23.8732802   68.8263285
   23.8723965   68.8263633
   23.8715132   68.8263199
   23.8706371   68.8261987
   23.7856476   68.8105753
   23.7846625   68.8103421
   23.7837060   68.8100105
   23.7827879   68.8095839
   23.7819177   68.8090667
   23.7811042   68.8084641
   23.7803558   68.8077824
   23.7796802   68.8070286
   23.7790843   68.8062102
   23.7385925   68.7442433
   23.7384285   68.7440206
   23.7382194   68.7438396
   23.6762877   68.6960127
   23.6760855   68.6958721
   23.6758406   68.6958455
   23.4428624   68.6822796
   23.4420152   68.6821940
   23.4411784   68.6820366
   23.1684075   68.6185952
   23.1681714   68.6185523
   23.1679509   68.6186469
   23.0457167   68.6783018
   23.0448716   68.6786671
   23.0439964   68.6789532
   23.0430986   68.6791575
   23.0421858   68.6792784
   23.0412658   68.6793148
   22.7991420   68.6777418
   22.7988715   68.6777547
   22.7986040   68.6777970
   22.5368271   68.7338899
   22.5358967   68.7340438
   22.5349560   68.7341094
   22.5340132   68.7340860
   22.5330768   68.7339740
   22.3723568   68.7070014
   22.3721180   68.7069735
   22.3720275   68.7071962
   22.3335510   68.8172992
   22.3331852   68.8182020
   22.3327333   68.8190650
   22.3321996   68.8198799
   22.3315892   68.8206391
   22.3309078   68.8213352
   22.3301618   68.8219617
   22.3293585   68.8225127
   22.1852205   68.9113702
   22.1850195   68.9115083
   22.1849080   68.9117253
   22.1691158   68.9466133
   22.1686437   68.9475277
   22.1680802   68.9483887
   22.1674312   68.9491873
   22.1667035   68.9499150
   22.1659050   68.9505640
   22.1650439   68.9511275
   21.6255828   69.2657776
   21.6246338   69.2662653
   21.6236381   69.2666491
   21.6226073   69.2669245
   21.6215529   69.2670886
   21.2817516   69.3015280
   21.2807173   69.3015789
   21.2796832   69.3015226
   21.2786605   69.3013597
   21.2776601   69.3010918
   21.0144292   69.2157770
   21.0135180   69.2154318
   21.0126448   69.2149995
   21.0118178   69.2144843
   21.0110448   69.2138911
   21.0103332   69.2132255
   21.0096898   69.2124938
   21.0091207   69.2117029
   21.0086312   69.2108604
   21.0033634   69.2006816
   21.0029626   69.1998063
   21.0026478   69.1988964
   21.0024219   69.1979605
   21.0022871   69.1970073
   21.0022446   69.1960454
   21.0022948   69.1950840
   21.0024372   69.1941318
   21.0026705   69.1931977
   21.0029926   69.1922904
   21.0034004   69.1914183
   21.0038902   69.1905894
   21.0044574   69.1898115
   21.0050969   69.1890918
   21.0612799   69.1316711
   21.0620098   69.1309959
   21.0628032   69.1303964
   21.0636522   69.1298787
   21.0645484   69.1294479
   21.1180087   69.1069474
   21.1182215   69.1068449
   21.1180912   69.1066478
   21.0591851   69.0265972
   21.0590352   69.0264131
   21.0588021   69.0264578
   20.7207864   69.1086385
   20.7198292   69.1088224
   20.7188586   69.1089121
   20.7178840   69.1089070
   20.7169144   69.1088070
   20.7159592   69.1086131
   20.7150274   69.1083271
   20.5544486   69.0503398
   20.5541974   69.0502638
   20.5539358   69.0502422
   20.1411296   69.0380869
   20.1401481   69.0380096
   20.1391790   69.0378360
   20.1382316   69.0375680
   20.1373152   69.0372082
   20.1364386   69.0367600
   20.1356103   69.0362277
   20.1348384   69.0356166
   20.1341303   69.0349325
   20.1334929   69.0341821
   20.1329324   69.0333727
   20.1324542   69.0325121
   20.1320629   69.0316086
   20.1317624   69.0306710
   20.1315556   69.0297084
   20.1314444   69.0287302
   20.1314299   69.0277457
   20.1315123   69.0267647
   20.1316908   69.0257964
   20.1319637   69.0248504
   20.1323282   69.0239358
   20.1327809   69.0230616
   20.1333174   69.0222360
   20.1339325   69.0214672
   20.1346202   69.0207627
   20.1353738   69.0201291
   20.1361861   69.0195728
   20.1370492   69.0190990
   20.3132703   68.9333669
   20.3134800   68.9332519
   20.3135478   68.9330226
   20.3456807   68.8010038
   20.3457265   68.8007636
   20.3455663   68.8005789
   20.2087788   68.6580051
   20.2086245   68.6578575
   20.2084376   68.6577541
   20.0567907   68.5822000
   20.0565863   68.5821094
   20.0563746   68.5820374
   20.0099009   68.5685311
   20.0089770   68.5682129
   20.0080886   68.5678060
   20.0072441   68.5673144
   20.0064516   68.5667426
   20.0057187   68.5660963
   20.0050524   68.5653815
   20.0044590   68.5646050
   20.0039443   68.5637744
   20.0035131   68.5628975
   20.0031695   68.5619827
   20.0029169   68.5610387
   20.0027576   68.5600746
   20.0026931   68.5590996
   20.0027242   68.5581229
   20.0028504   68.5571539
   20.0030706   68.5562018
   20.0033826   68.5552758
   20.0037836   68.5543846
   20.0042696   68.5535369
   20.0048361   68.5527406
   20.0054775   68.5520034
   20.0061879   68.5513324
   20.0069603   68.5507339
   20.0077875   68.5502136
   20.0086615   68.5497765
   20.0095740   68.5494269
   20.0105162   68.5491679
   20.2281446   68.5006625
   20.2283711   68.5006004
   20.2284491   68.5003789
   20.2333711   68.4839205
   20.2334265   68.4836962
   20.2332201   68.4835923
   19.9250034   68.3466992
   19.9247785   68.3466122
   19.9245390   68.3466410
   18.9839676   68.5067553
   18.9829966   68.5068721
   18.9820188   68.5068934
   18.6197058   68.4970861
   18.6194816   68.4970902
   18.6192667   68.4971541
   18.4072567   68.5707713
   18.4063071   68.5710492
   18.4053346   68.5712319
   18.4043488   68.5713176
   18.4033594   68.5713055
   18.4023761   68.5711957
   18.1413806   68.5288804
   18.1403857   68.5286667
   18.1394178   68.5283530
   18.1384867   68.5279425
   18.1376022   68.5274395
   18.1367733   68.5268493
   18.1360088   68.5261779
   18.1353164   68.5254323
   18.1347034   68.5246201
   18.1341760   68.5237499
   18.1337399   68.5228306
   18.1333994   68.5218717
   18.1331581   68.5208832
   18.1116845   68.4083202
   18.1115411   68.4072675
   18.1115102   68.4062055
   18.1115922   68.4051463
   18.1117860   68.4041018
   18.1620930   68.1955064
   18.1621372   68.1952739
   18.1619700   68.1951064
   17.9032781   67.9600609
   17.9030867   67.9599040
   17.9028457   67.9599599
   17.6626956   68.0286711
   17.6619982   68.0288438
   17.2879738   68.1073190
   17.2869938   68.1074743
   17.2860033   68.1075317
   17.2850119   68.1074907
   17.2840295   68.1073517
   17.2830657   68.1071160
   17.2821300   68.1067859
   17.2812316   68.1063647
   17.2803794   68.1058566
   17.1829899   68.0410331
   17.1827850   68.0409105
   17.1825605   68.0408292
   16.7476994   67.9067298
   16.7467965   67.9064031
   16.7459291   67.9059914
   16.7451052   67.9054983
   16.7443323   67.9049285
   16.7436177   67.9042872
   16.7429679   67.9035803
   16.7423889   67.9028144
   16.5639429   67.6415831
   16.5637559   67.6413424
   16.5635408   67.6411264
   16.5021058   67.5865483
   16.5015877   67.5861458
   16.4103423   67.5244004
   16.4101153   67.5242640
   16.4098521   67.5242344
   16.1663011   67.5100221
   16.1653672   67.5099234
   16.1644467   67.5097376
   16.1635476   67.5094662
   16.1626780   67.5091117
   16.1618455   67.5086772
   16.1610574   67.5081665
   16.1603207   67.5075841
   16.1596419   67.5069352
   16.1590269   67.5062255
   16.1110925   67.4453485
   16.1105130   67.4445314
   16.1100181   67.4436604
   16.1096128   67.4427442
   16.1093013   67.4417920
   16.1090866   67.4408135
   16.1089708   67.4398184
   16.1089553   67.4388167
   16.1090400   67.4378185
   16.1092241   67.4368337
   16.1095059   67.4358724
   16.1098825   67.4349440
   16.1103500   67.4340580
   16.1109038   67.4332232
   16.1115384   67.4324480
   16.1122474   67.4317402
   16.1130237   67.4311069
   16.4114426   67.2115826
   16.4116365   67.2114239
   16.4116261   67.2111736
   16.3956035   67.0396012
   16.3955684   67.0393588
   16.3953446   67.0392593
   16.0454802   66.9043996
   16.0446543   66.9040377
   16.0438644   66.9036029
   16.0431169   66.9030987
   15.6321762   66.5980882
   15.6319844   66.5979592
   15.6317815   66.5978485
   15.3999172   66.4849703
   15.3990578   66.4844985
   15.3982487   66.4839448
   15.3974978   66.4833145
   15.3968122   66.4826138
   15.3961985   66.4818492
   15.3956626   66.4810283
   15.3952097   66.4801588
   15.3948440   66.4792491
   15.3945693   66.4783081
   15.3943880   66.4773446
   15.3943019   66.4763680
   15.3943118   66.4753877
   15.3944177   66.4744130
   15.3946185   66.4734534
   15.3949124   66.4725181
   15.3952964   66.4716160
   15.4907444   66.2747777
   15.4908343   66.2745670
   15.4906175   66.2744930
   15.0363584   66.1436531
   15.0360671   66.1435878
   15.0357702   66.1435579
   14.5432232   66.1236295
   14.5422510   66.1235424
   14.5412919   66.1233611
   14.5403550   66.1230870
   14.5394493   66.1227229
   14.5385834   66.1222723
   14.5377656   66.1217394
   14.5370037   66.1211293
   14.5363048   66.1204478
   14.5356757   66.1197014
   14.5351224   66.1188973
   14.5346502   66.1180430
   14.5342634   66.1171468
   14.5339659   66.1162171
   14.5337604   66.1152628
   14.5336490   66.1142931
   14.5336326   66.1133171
   14.5337115   66.1123442
   14.5338848   66.1113836
   14.5341510   66.1104445
   14.6339252   65.8143420
   14.6339881   65.8141217
   14.6338655   65.8139282
   14.5402410   65.6804861
   14.5396895   65.6796061
   14.5392322   65.6786736
   14.5388741   65.6776987
   14.5386190   65.6766919
   14.5070464   65.5178291
   14.5068870   65.5166846
   14.5068607   65.5155294
   14.5142417   65.3050374
   14.5142388   65.3048066
   14.5140378   65.3046933
   14.3901143   65.2423912
   14.3892345   65.2418917
   14.3884098   65.2413058
   14.3876485   65.2406396
   14.3869583   65.2398998
   14.3863465   65.2390942
   14.3858192   65.2382308
   14.3853818   65.2373186
   14.3360570   65.1195016
   14.3358777   65.1191273
   14.3354923   65.1182077
   14.3353354   65.1177737
   14.3330839   65.1123886
   14.3329683   65.1121492
   14.3327633   65.1119799
   14.0220977   64.8825725
   14.0215382   64.8821275
   13.6873651   64.5963080
   13.6866647   64.5956481
   13.6860311   64.5949240
   13.6854700   64.5941423
   13.6849866   64.5933103
   13.6845854   64.5924356
   13.6842702   64.5915265
   13.6840437   64.5905913
   13.6839083   64.5896386
   13.6838650   64.5886773
   13.6839143   64.5877164
   13.6840557   64.5867646
   13.6842879   64.5858308
   13.6846089   64.5849236
   13.6850155   64.5840515
   13.6855041   64.5832225
   13.6860701   64.5824443
   13.6867082   64.5817242
   13.6874127   64.5810686
   13.6881768   64.5804839
   13.6889937   64.5799752
   13.6898556   64.5795475
   13.6907547   64.5792046
   13.8639728   64.5225176
   13.8647679   64.5222933
   13.8655788   64.5221354
   14.0892783   64.4880983
   14.0895254   64.4880477
   14.0897459   64.4879251
   14.1245069   64.4662168
   14.1246997   64.4660832
   14.1247459   64.4658533
   14.1675747   64.1837923
   14.1675985   64.1835638
   14.1674432   64.1833945
   13.9892640   64.0065228
   13.9890857   64.0063623
   13.9888460   64.0063747
   13.2121973   64.0849929
   13.2110410   64.0850426
   13.2098867   64.0849584
   12.9301517   64.0481843
   12.9291422   64.0479985
   12.9281572   64.0477102
   12.6917410   63.9651220
   12.6908625   63.9647676
   12.6900216   63.9643316
   12.6892256   63.9638181
   12.3484223   63.7203276
   12.3477163   63.7197736
   12.3470627   63.7191586
   12.3464670   63.7184875
   12.3030792   63.6649564
   12.3029118   63.6647700
   12.3026964   63.6646421
   12.1844041   63.6022535
   12.1835455   63.6017444
   12.1827420   63.6011521
   12.1820015   63.6004828
   12.1813314   63.5997429
   12.1807384   63.5989399
   12.1802284   63.5980818
   12.1798066   63.5971771
   12.1794770   63.5962349
   12.1792430   63.5952645
   12.1791069   63.5942756
   12.1790700   63.5932780
   12.1791328   63.5922818
   12.1792947   63.5912968
   12.1795539   63.5903328
   12.1799079   63.5893995
   12.1803532   63.5885061
   12.1808854   63.5876616
   12.1814991   63.5868743
   12.1821882   63.5861521
   12.1829459   63.5855023
   12.2019823   63.5707586
   12.2021882   63.5705802
   12.2023250   63.5703447
   12.2480801   63.4805756
   12.2481758   63.4803630
   12.2480029   63.4802065
   11.9976131   63.2747296
   11.9968651   63.2740497
   11.9961896   63.2732979
   11.9955935   63.2724816
   11.9950828   63.2716094
   11.9946628   63.2706901
   11.9943377   63.2697331
   11.9941109   63.2687481
   11.9939846   63.2677453
   11.9939603   63.2667348
   11.9940380   63.2657271
   11.9942171   63.2647323
   11.9944957   63.2637607
   11.9948709   63.2628222
   11.9953390   63.2619264
   11.9958951   63.2610824
   11.9965336   63.2602988
   12.2279759   63.0038918
   12.2281232   63.0037117
   12.2279436   63.0035637
   12.0922506   62.9025272
   12.0914740   62.9018857
   12.0907659   62.9011694
   12.0901335   62.9003855
   12.0895831   62.8995419
   12.0891204   62.8986472
   12.0887501   62.8977106
   12.0884758   62.8967414
   12.0883004   62.8957496
   12.0882257   62.8947451
   12.0882524   62.8937383
   12.0883802   62.8927392
   12.0886079   62.8917581
   12.0889331   62.8908048
   12.1462368   62.7469940
   12.1463163   62.7467610
   12.1462032   62.7465423
   12.0712541   62.6178776
   12.0708168   62.6170379
   12.0704609   62.6161605
   12.0701895   62.6152535
   12.0700052   62.6143248
   12.0699095   62.6133829
   12.0699033   62.6124361
   12.0699867   62.6114930
   12.0701589   62.6105620
   12.0704183   62.6096515
   12.0707628   62.6087695
   12.0711890   62.6079241
   12.0716934   62.6071229
   12.2642188   62.3311355
   12.2641240   62.3312582
   12.2638853   62.3312659
   12.2423692   62.3309017
   12.2421708   62.3309003
   12.2184753   62.3309692
   12.2179451   62.3309848
   12.2088068   62.3314967
   12.2085710   62.3314987
   12.2083391   62.3314563
   12.1914640   62.3275288
   12.1435288   62.3158932
   12.1424982   62.3156997
   12.1414530   62.3156151
   12.1404047   62.3156404
   12.1393649   62.3157753
   12.1383448   62.3160184
   12.0803064   62.3331109
   12.0793527   62.3334450
   12.0784376   62.3338736
   12.0775704   62.3343924
   12.0767600   62.3349961
   12.0655314   62.3442783
   12.0653551   62.3444113
   12.0651500   62.3444931
   12.0588104   62.3467007
   12.0584657   62.3468069
   12.0510898   62.3487920
   12.0505029   62.3489127
   12.0153299   62.3539725
   12.0146740   62.3540893
   11.9883072   62.3596957
   11.9881725   62.3597224
   11.9824187   62.3607816
   11.9819988   62.3608406
   11.7890550   62.3796494
   11.7879336   62.3798234
   11.7868391   62.3801233
   11.7726733   62.3848849
   11.7724506   62.3849483
   11.7722358   62.3848619
   11.7635569   62.3808881
   11.7633065   62.3807649
   11.7163655   62.3560157
   11.7154900   62.3556068
   11.7145791   62.3552844
   11.7136413   62.3550514
   11.7126854   62.3549100
   11.7117203   62.3548615
   11.7107551   62.3549064
   11.7097987   62.3550442
   11.7088600   62.3552737
   11.7079479   62.3555927
   11.7070708   62.3559983
   11.7062370   62.3564866
   11.7054542   62.3570532
   11.6728384   62.3831492
   11.6726465   62.3832882
   11.6724098   62.3832765
   11.5615725   62.3724555
   11.5605444   62.3724083
   11.5595169   62.3724671
   11.5585009   62.3726311
   11.5575071   62.3728988
   11.5565461   62.3732671
   11.5556280   62.3737323
   11.5547626   62.3742893
   11.5539590   62.3749324
   11.5532258   62.3756547
   11.4966715   62.4374136
   11.4965027   62.4375811
   11.4963052   62.4377135
   11.4600878   62.4595432
   11.4593530   62.4600316
   11.4586641   62.4605828
   11.4474417   62.4704047
   11.4472210   62.4705770
   11.4469823   62.4707234
   11.4296295   62.4800679
   11.4294371   62.4801612
   11.4292307   62.4802203
   11.3734483   62.4936188
   11.3725326   62.4938856
   11.3716465   62.4942383
   11.3707980   62.4946739
   11.3699949   62.4951883
   11.3397869   62.5166344
   11.3396059   62.5167514
   11.3394010   62.5168179
   11.2860507   62.5316044
   11.2858491   62.5316514
   11.2856417   62.5316643
   11.2614994   62.5321577
   11.2605443   62.5322230
   11.2595997   62.5323794
   11.2586744   62.5326254
   11.2577769   62.5329588
   11.2569154   62.5333765
   11.2560978   62.5338747
   11.2553316   62.5344487
   11.2546238   62.5350934
   11.2521783   62.5375451
   11.2515093   62.5382863
   11.2509176   62.5390906
   11.2504090   62.5399499
   11.2499887   62.5408556
   11.2496608   62.5417987
   11.2494285   62.5427698
   11.2492943   62.5437593
   11.2492594   62.5447572
   11.2493242   62.5457535
   11.2494881   62.5467385
   11.2497493   62.5477022
   11.2501054   62.5486351
   11.2505527   62.5495278
   11.2510868   62.5503714
   11.2517023   62.5511576
   11.2524156   62.5519803
   11.2525653   62.5521717
   11.2524617   62.5523914
   11.2446997   62.5669246
   11.2445826   62.5671213
   11.2443701   62.5672066
   11.2335391   62.5709802
   11.2333078   62.5710484
   11.2330676   62.5710707
   11.2112743   62.5720333
   11.2102669   62.5721290
   11.2092743   62.5723261
   11.2083067   62.5726225
   11.2073740   62.5730151
   11.2064858   62.5735000
   11.2056512   62.5740722
   11.2048786   62.5747259
   11.2041761   62.5754542
   11.2035507   62.5762498
   11.2030090   62.5771046
   11.2025565   62.5780097
   11.2021977   62.5789559
   11.1973908   62.5938702
   11.1973105   62.5940849
   11.1971746   62.5942694
   11.1878974   62.6057135
   11.1877205   62.6059094
   11.1875063   62.6060636
   11.1704686   62.6170007
   11.1696416   62.6175931
   11.1688790   62.6182664
   11.1681888   62.6190138
   11.1675781   62.6198274
   11.1670532   62.6206989
   11.1666195   62.6216191
   11.1662817   62.6225787
   11.1660430   62.6235676
   11.1615559   62.6474260
   11.1614998   62.6476598
   11.1612664   62.6477177
   11.1441430   62.6510714
   11.1369516   62.6524692
   11.1360717   62.6526820
   11.1352147   62.6529734
   11.1343876   62.6533412
   11.1306599   62.6552051
   11.1297427   62.6557258
   11.1288855   62.6563403
   11.1280978   62.6570416
   11.1273883   62.6578220
   11.1267650   62.6586728
   11.1262347   62.6595845
   11.1250871   62.6618212
   11.1249732   62.6620197
   11.1247458   62.6620451
   11.0450276   62.6671704
   11.0441067   62.6672726
   11.0431993   62.6674596
   10.9287973   62.6966195
   10.9285588   62.6966680
   10.9283154   62.6966692
   10.8515311   62.6932742
   10.8508934   62.6932048
   10.8250874   62.6887032
   10.8245982   62.6885922
   10.7919911   62.6794575
   10.7917552   62.6793785
   10.7915397   62.6792542
   10.7435007   62.6482253
   10.7426554   62.6477361
   10.7417665   62.6473317
   10.7408424   62.6470159
   10.7398919   62.6467918
   10.7389240   62.6466615
   10.7379480   62.6466262
   10.7369733   62.6466863
   10.7360091   62.6468411
   10.7240624   62.6493636
   10.7231190   62.6496115
   10.7222042   62.6499500
   10.7213268   62.6503761
   10.7204950   62.6508856
   10.7197169   62.6514737
   10.7189997   62.6521348
   10.7183504   62.6528627
   10.7177751   62.6536503
   10.7172792   62.6544903
   10.7168675   62.6553746
   10.7125100   62.6660690
   10.7124119   62.6662805
   10.7121877   62.6663443
   10.6734024   62.6754127
   10.6731987   62.6754514
   10.6729925   62.6754732
   10.6495134   62.6769639
   10.6492612   62.6769671
   10.6490134   62.6769193
   10.5984255   62.6644739
   10.5975987   62.6643072
   10.5967608   62.6642107
   10.5959178   62.6641851
   10.5935769   62.6642129
   10.5923882   62.6642980
   10.4604292   62.6817009
   10.4602906   62.6817172
   10.3255430   62.6956728
   10.3250156   62.6956993
   10.2387472   62.6954805
   10.2383336   62.6954623
   10.2070807   62.6927868
   10.2059518   62.6927542
   10.2048264   62.6928490
   10.1867392   62.6954090
   10.1863024   62.6954807
   10.1765902   62.6972969
   10.1763605   62.6973289
   10.1761351   62.6972745
   10.1435965   62.6877960
   10.1433756   62.6877202
   10.1431982   62.6875683
   10.1188385   62.6646345
   10.1187040   62.6645030
   10.1083254   62.6539680
   10.1079932   62.6535954
   10.0855941   62.6257814
   10.0854501   62.6255834
   10.0853262   62.6253722
   10.0757188   62.6069836
   10.0752197   62.6061333
   10.0746393   62.6053363
   10.0739833   62.6046003
   10.0732580   62.6039325
   10.0724704   62.6033394
   10.0716283   62.6028267
   10.0707398   62.6023994
   10.0698135   62.6020617
   10.0688585   62.6018169
   10.0678840   62.6016673
   10.0563194   62.6004717
   10.0561124   62.6004415
   10.0559126   62.6003767
   10.0466362   62.5969312
   10.0460037   62.5966447
   10.0260435   62.5858752
   10.0258420   62.5857535
   10.0258514   62.5855183
   10.0268957   62.5737408
   10.0269345   62.5727902
   10.0268829   62.5718402
   10.0267412   62.5708994
   10.0265107   62.5699763
   10.0261935   62.5690793
   10.0257925   62.5682165
   10.0253114   62.5673957
   10.0247544   62.5666244
   10.0241267   62.5659095
   10.0234338   62.5652574
   10.0226821   62.5646742
   10.0218784   62.5641651
   10.0210300   62.5637346
   10.0201445   62.5633867
   10.0050689   62.5582776
   10.0048559   62.5581937
   10.0049549   62.5579874
   10.0201203   62.5299245
   10.0203348   62.5295645
   10.0375632   62.5032285
   10.0378116   62.5028821
   10.0865501   62.4406778
   10.0871082   62.4398900
   10.0875877   62.4390521
   10.0879841   62.4381718
   10.0882938   62.4372574
   10.0885139   62.4363174
   10.0886424   62.4353605
   10.0886779   62.4343958
   10.0886203   62.4334321
   10.0884700   62.4324784
   10.0882284   62.4315437
   10.0878979   62.4306366
   10.0874814   62.4297656
   10.0869828   62.4289389
   10.0864069   62.4281641
   10.0857589   62.4274484
   10.0850449   62.4267986
   10.0842716   62.4262206
   10.0834462   62.4257199
   10.0825763   62.4253011
   10.0816701   62.4249682
   10.0807360   62.4247242
   9.9513860   62.3975296
   9.9511619   62.3974711
   9.9511700   62.3972397
   9.9521720   62.3851955
   9.9522046   62.3841743
   9.9521328   62.3831552
   9.9519574   62.3821486
   9.9516803   62.3811652
   9.9513042   62.3802153
   9.9508331   62.3793086
   9.9502720   62.3784548
   9.9353621   62.3581124
   9.9346996   62.3573013
   9.9339558   62.3565638
   9.9331389   62.3559082
   9.9322580   62.3553417
   9.9313227   62.3548703
   9.9303431   62.3544994
   9.9031657   62.3458065
   9.9022054   62.3455511
   9.9012246   62.3453924
   9.9002328   62.3453317
   9.8992398   62.3453698
   9.8982556   62.3455063
   9.8972898   62.3457397
   9.8389239   62.3629575
   9.8386821   62.3630155
   9.8385071   62.3628389
   9.8207181   62.3429524
   9.8205744   62.3427749
   9.8207854   62.3426876
   9.8246402   62.3413095
   9.8255331   62.3409407
   9.8263863   62.3404875
   9.8271917   62.3399540
   9.8279419   62.3393454
   9.8286299   62.3386671
   9.8292492   62.3379257
   9.8297941   62.3371279
   9.8302595   62.3362813
   9.8306410   62.3353937
   9.8309351   62.3344735
   9.8311390   62.3335292
   9.8328225   62.3233775
   9.8329309   62.3224669
   9.8329554   62.3215503
   9.8328069   62.3137826
   9.8327383   62.3127891
   9.8325712   62.3118074
   9.8323074   62.3108472
   9.8319493   62.3099180
   9.8315006   62.3090290
   9.8309657   62.3081890
   9.8303499   62.3074064
   9.8296593   62.3066889
   9.8281704   62.3052888
   9.8274073   62.3046400
   9.8265831   62.3040708
   9.8115362   62.2947566
   9.8105597   62.2942248
   9.8095302   62.2938047
   9.8084604   62.2935015
   9.7859303   62.2884508
   9.7844799   62.2882358
   9.7159999   62.2831746
   9.7158032   62.2831522
   9.7156089   62.2831143
   9.6043384   62.2567684
   9.6033877   62.2565913
   9.6024244   62.2565069
   9.6014574   62.2565160
   9.6004958   62.2566184
   9.5995486   62.2568132
   9.5167119   62.2780716
   9.5156492   62.2784085
   9.5146306   62.2788616
   9.4897468   62.2916364
   9.4895420   62.2917301
   9.4893228   62.2917855
   9.3609238   62.3180998
   9.3608240   62.3181192
   9.1136792   62.3635553
   9.1127275   62.3637788
   9.1118022   62.3640942
   9.1109122   62.3644985
   9.1100658   62.3649877
   9.1092713   62.3655572
   9.1085361   62.3662016
   9.1078674   62.3669147
   9.1072715   62.3676896
   9.1067541   62.3685191
   9.1063202   62.3693951
   9.1059739   62.3703092
   9.1057185   62.3712529
   9.1055565   62.3722169
   9.1054893   62.3731922
   9.1055177   62.3741693
   9.1056414   62.3751391
   9.1058592   62.3760921
   9.1061690   62.3770193
   9.1065678   62.3779118
   9.1070519   62.3787611
   9.1076166   62.3795591
   9.1082565   62.3802981
   9.1089655   62.3809711
   9.1097369   62.3815717
   9.1105632   62.3820941
   9.1114365   62.3825333
   9.1123486   62.3828851
   9.1756645   62.4038161
   9.1758805   62.4038990
   9.1760005   62.4040967
   9.1994915   62.4472469
   9.1995970   62.4474666
   9.1994103   62.4476231
   9.1931659   62.4523409
   9.1924166   62.4529667
   9.1917319   62.4536626
   9.1911184   62.4544220
   9.1905818   62.4552375
   9.1901272   62.4561015
   9.1897591   62.4570057
   9.1894809   62.4579415
   9.1892953   62.4588999
   9.1892041   62.4598719
   9.1892080   62.4608482
   9.1893071   62.4618194
   9.1895005   62.4627763
   9.1897862   62.4637098
   9.1901616   62.4646110
   9.1906231   62.4654713
   9.1911662   62.4662825
   9.2661334   62.5672127
   9.2662609   62.5674032
   9.2660415   62.5674693
   9.1136865   62.6053736
   9.1126498   62.6056921
   9.1116537   62.6061210
   9.1107100   62.6066552
   9.0813980   62.6254164
   9.0811641   62.6255572
   9.0129016   62.6641644
   9.0127388   62.6642526
   8.9394107   62.7022135
   8.9385693   62.7027024
   8.9377794   62.7032708
   8.9370485   62.7039132
   8.9363835   62.7046237
   8.9357907   62.7053954
   8.9352757   62.7062211
   8.9348434   62.7070929
   8.9344979   62.7080026
   8.9342425   62.7089416
   8.9340795   62.7099010
   8.9340105   62.7108716
   8.9340362   62.7118444
   8.9341564   62.7128101
   8.9343698   62.7137595
   8.9346745   62.7146837
   8.9350676   62.7155739
   8.9355453   62.7164217
   8.9361032   62.7172190
   8.9367360   62.7179583
   8.9374376   62.7186326
   8.9382014   62.7192355
   8.9390202   62.7197614
   8.9398863   62.7202051
   8.9850104   62.7406191
   8.9859244   62.7409796
   8.9868694   62.7412487
   8.9878363   62.7414237
   8.9888156   62.7415031
   9.1280664   62.7459137
   9.1282641   62.7459278
   9.1284601   62.7459576
   9.3744078   62.7934023
   9.3746363   62.7934584
   9.3745270   62.7936669
   9.3086418   62.9053336
   9.3085119   62.9055314
   9.3083056   62.9056470
   9.2672950   62.9261043
   9.2670804   62.9261989
   9.2668461   62.9262074
   9.2038956   62.9255185
   9.2031220   62.9255400
   9.2023523   62.9256212
   9.1624816   62.9313979
   9.1615235   62.9315849
   9.1605882   62.9318644
   9.1596846   62.9322337
   9.1588213   62.9326894
   9.1580066   62.9332271
   9.1572481   62.9338417
   9.1565532   62.9345273
   9.1559285   62.9352773
   9.1553798   62.9360848
   9.1549125   62.9369418
   9.1545310   62.9378404
   9.1542390   62.9387718
   9.1540391   62.9397273
   9.1539334   62.9406978
   9.1539227   62.9416739
   9.1540073   62.9426464
   9.1541863   62.9436060
   9.1544581   62.9445436
   9.1548199   62.9454503
   9.1552684   62.9463173
   9.1823065   62.9928656
   9.1824163   62.9930782
   9.1822597   62.9932592
   9.1586599   63.0179497
   9.1584712   63.0181274
   9.1582188   63.0181862
   9.1276628   63.0236309
   9.1267269   63.0238445
   9.1258157   63.0241468
   9.1249378   63.0245351
   9.1241012   63.0250058
   9.1233135   63.0255545
   9.1225821   63.0261763
   9.1219136   63.0268653
   9.1213143   63.0276152
   9.1207897   63.0284192
   9.0844024   63.0905009
   9.0842667   63.0907076
   9.0840201   63.0907264
   9.0505970   63.0915633
   9.0503337   63.0915559
   9.0500860   63.0914662
   9.0248783   63.0807916
   9.0239837   63.0804622
   9.0230619   63.0802194
   9.0221212   63.0800655
   8.9833478   63.0756070
   8.9823894   63.0755432
   8.9814293   63.0755717
   8.9804763   63.0756922
   8.9795393   63.0759035
   8.9786269   63.0762038
   8.9777475   63.0765902
   8.9769093   63.0770592
   8.9761199   63.0776064
   8.9753866   63.0782269
   8.9747163   63.0789149
   8.9741151   63.0796640
   8.9735025   63.0805072
   8.9729737   63.0813142
   8.9725252   63.0821683
   8.9721611   63.0830617
   8.9718848   63.0839860
   8.9716988   63.0849327
   8.9716049   63.0858928
   8.9716040   63.0868576
   8.9716961   63.0878179
   8.9718802   63.0887649
   8.9721548   63.0896898
   8.9725172   63.0905839
   8.9729641   63.0914389
   8.9734912   63.0922469
   8.9740938   63.0930003
   8.9747662   63.0936921
   8.9755021   63.0943159
   8.9762947   63.0948659
   8.9771366   63.0953370
   8.9780200   63.0957248
   8.9789367   63.0960256
   9.0003171   63.1019161
   9.0005279   63.1019852
   9.0003740   63.1021451
   8.9885070   63.1133416
   8.9878206   63.1140568
   8.9872084   63.1148363
   8.9866764   63.1156727
   8.9814880   63.1247982
   8.9813715   63.1249837
   8.9812104   63.1251323
   8.9705501   63.1341272
   8.9703652   63.1342687
   8.9701324   63.1342664
   8.8344817   63.1264657
   8.8335858   63.1264544
   8.8026252   63.1274510
   8.8023471   63.1274443
   8.8020775   63.1273760
   8.7507423   63.1112615
   8.7504802   63.1111712
   8.6583919   63.0765484
   8.6576075   63.0762899
   8.6568044   63.0760970
   8.6559882   63.0759711
   8.5100978   63.0595957
   8.5091192   63.0595342
   8.5081392   63.0595689
   8.5071673   63.0596994
   8.5062129   63.0599244
   8.5052852   63.0602418
   8.5043929   63.0606486
   8.5035448   63.0611408
   8.5027490   63.0617137
   8.5020131   63.0623618
   8.5013443   63.0630789
   8.4836650   63.0840007
   8.4835006   63.0841768
   8.4832632   63.0841356
   8.3011238   63.0431900
   8.3008627   63.0431161
   8.3006237   63.0429872
   8.2750286   63.0273217
   8.2741730   63.0268537
   8.2732759   63.0264714
   8.2723459   63.0261782
   8.2713917   63.0259771
   8.2688282   63.0255659
   8.2680017   63.0254685
   8.2676826   63.0254442
   8.2673090   63.0254017
   8.2667988   63.0253241
   8.2663552   63.0252359
   8.2658871   63.0251205
   8.2650639   63.0249541
   8.2629551   63.0246191
   8.2627134   63.0245682
   8.2624974   63.0244485
   8.2471249   63.0148936
   8.2462356   63.0144017
   8.2453010   63.0140025
   8.2443307   63.0137003
   8.2433348   63.0134981
   8.2423235   63.0133981
   8.2413072   63.0134012
   8.2402965   63.0135075
   8.2393018   63.0137157
   8.2071768   63.0221669
   8.2062385   63.0224638
   8.2053340   63.0228515
   8.2044720   63.0233262
   8.2036608   63.0238833
   8.2029083   63.0245175
   8.2022218   63.0252225
   8.2016079   63.0259916
   8.1516737   63.0952869
   8.1515023   63.0954992
   8.1512887   63.0956690
   8.1236322   63.1152692
   8.1228600   63.1158756
   8.1221510   63.1165547
   8.1215120   63.1173001
   8.1209491   63.1181046
   8.1204679   63.1189603
   8.1200729   63.1198592
   8.1197680   63.1207924
   8.1195560   63.1217511
   8.1194391   63.1227259
   8.1194183   63.1237075
   8.1194939   63.1246864
   8.1196651   63.1256531
   8.1199303   63.1265984
   8.1202869   63.1275132
   8.1207315   63.1283886
   8.1212597   63.1292161
   8.1218666   63.1299879
   8.1225463   63.1306964
   8.1232921   63.1313349
   8.1240970   63.1318971
   8.1249531   63.1323777
   8.1258522   63.1327721
   8.1267857   63.1330764
   8.1277445   63.1332876
   8.1720915   63.1407986
   8.1728200   63.1408946
   8.3186381   63.1546834
   8.3195975   63.1547278
   8.3205569   63.1546799
   8.3215072   63.1545402
   8.3829559   63.1424686
   8.3832553   63.1424284
   8.3835575   63.1424249
   8.4873708   63.1475176
   8.4876221   63.1475427
   8.4878695   63.1475931
   8.5661954   63.1677388
   8.5669895   63.1679090
   8.6702297   63.1856844
   8.6709616   63.1857828
   8.6716988   63.1858269
   8.7589771   63.1878151
   8.7594076   63.1878435
   8.8193056   63.1944063
   8.8195202   63.1944393
   8.8197311   63.1944909
   8.8338492   63.1986010
   8.8340758   63.1986794
   8.8341661   63.1990303
   8.8342124   63.1992565
   8.8345005   63.2001895
   8.8348782   63.2010898
   8.8353420   63.2019491
   8.8358873   63.2027590
   8.8365090   63.2035119
   8.8372011   63.2042005
   8.8379571   63.2048184
   8.8387698   63.2053596
   8.8622797   63.2194097
   8.8624708   63.2195364
   8.8625030   63.2197635
   8.8635691   63.2310668
   8.8635798   63.2313049
   8.8634033   63.2314651
   8.8337753   63.2558194
   8.8330619   63.2564657
   8.8324140   63.2571777
   8.8318376   63.2579486
   8.8313379   63.2587714
   8.8309197   63.2596384
   8.8305868   63.2605416
   8.8303423   63.2614727
   8.8301884   63.2624229
   8.8301266   63.2633836
   8.8301574   63.2643457
   8.8302807   63.2653004
   8.8304951   63.2662388
   8.8307988   63.2671523
   8.8311889   63.2680323
   8.8316618   63.2688708
   8.8322131   63.2696599
   8.8328378   63.2703923
   8.8335300   63.2710612
   8.8342833   63.2716606
   8.8666162   63.2949341
   8.8668065   63.2950860
   8.8668060   63.2953295
   8.8660336   63.3101284
   8.8660353   63.3112010
   8.8661518   63.3122674
   8.8663818   63.3133151
   8.8697456   63.3254777
   8.8700692   63.3264506
   8.8704906   63.3273852
   8.8710056   63.3282717
   8.8716087   63.3291009
   8.8722934   63.3298639
   8.8730527   63.3305528
   8.8738786   63.3311604
   8.8747623   63.3316802
   8.8831276   63.3360397
   8.8832809   63.3361230
   8.9050444   63.3484490
   8.9052511   63.3485799
   8.9054439   63.3487303
   8.9146644   63.3566817
   8.9148261   63.3568354
   8.9146162   63.3569110
   8.8689408   63.3709000
   8.8682013   63.3711586
   8.8674843   63.3714743
   8.8048469   63.4020356
   8.8040400   63.4024763
   8.8032771   63.4029892
   8.7429214   63.4477263
   8.7427108   63.4478661
   8.7424604   63.4478318
   8.4338591   63.3891277
   8.4332623   63.3889755
   8.3475024   63.3613762
   8.3465795   63.3611272
   8.3456371   63.3609674
   8.3446836   63.3608984
   8.3437280   63.3609207
   8.3427788   63.3610341
   8.3418449   63.3612377
   8.3409346   63.3615295
   8.3400563   63.3619069
   8.3392181   63.3623664
   8.2429739   63.4212805
   8.2421917   63.4218116
   8.2414633   63.4224143
   8.2407949   63.4230831
   8.2401928   63.4238120
   8.1094671   63.5982284
   8.1093245   63.5984019
   8.1091291   63.5985135
   8.0098298   63.6494370
   8.0091320   63.6498310
   6.8050479   64.3947258
   9.7535264   65.9494337
   9.7537475   65.9495365
   9.7539755   65.9494500
   10.0956003   65.7999688
   10.0965011   65.7996254
   10.0974308   65.7993703
   10.0983808   65.7992059
   10.0993421   65.7991338
   10.1003060   65.7991545
   10.1012634   65.7992680
   10.1022054   65.7994732
   10.1031232   65.7997681
   10.1040084   65.8001500
   10.1048527   65.8006154
   10.1056483   65.8011599
   10.1063878   65.8017785
   10.1070642   65.8024655
   10.1076713   65.8032143
   10.1082035   65.8040182
   10.1086559   65.8048696
   10.1090241   65.8057606
   10.1093048   65.8066829
   10.1094954   65.8076279
   10.1095941   65.8085869
   10.1096001   65.8095510
   10.1095131   65.8105111
   10.1093341   65.8114585
   10.1090647   65.8123841
   8.0596334   71.7679471
   8.0592540   71.7688907
   8.0587808   71.7697909
   8.0582185   71.7706383
   8.0575731   71.7714243
   8.0568512   71.7721406
   8.0560603   71.7727799
   8.0552085   71.7733356
   8.0543047   71.7738018
   8.0533582   71.7741739
   8.0523788   71.7744479
   8.0513767   71.7746211
   8.0503621   71.7746915
   8.0493457   71.7746585
   -10.0777969   70.2612903
   -10.0780362   70.2612820
   -10.0782270   70.2614266
   -10.4952019   70.6105725
   -10.4953699   70.6107278
   -10.4951727   70.6108438
   8.2561402   80.4343735
END
END
