europe-spain-south-east
1
   -2.9209331   35.2787021
   -2.9300759   35.2691102
   -2.9489008   35.2639891
   -2.9523809   35.2642524
   -2.9722167   35.2852020
   -2.9705890   35.2988021
   -2.9648388   35.3131461
   -2.9593720   35.3188177
   -2.9477512   35.3238274
   -2.9084239   35.3052155
   -2.9209331   35.2787021
END
2
   -5.3909301   35.9217561
   -5.3907934   35.9220558
   -5.2795065   35.9586136
   -5.2791965   35.9584579
   -5.2566952   35.8911001
   -5.2568587   35.8907916
   -5.3413098   35.8670846
   -5.3457114   35.8693564
   -5.3559464   35.8721872
   -5.3734922   35.8801775
   -5.3909301   35.9217561
END
3
   0.6718844   42.7010558
   0.6725400   42.7089942
   0.6706826   42.7124565
   0.6360165   42.7544480
   0.6470597   42.7634768
   0.6496228   42.7664988
   0.6508660   42.7712743
   0.6491589   42.7769163
   0.6423743   42.7823032
   0.6454344   42.7864837
   0.6596794   42.8002135
   0.6625525   42.8054874
   0.6625141   42.8095259
   0.6563125   42.8382216
   0.6766036   42.8557995
   0.7148607   42.8631208
   0.7798226   42.8390542
   0.7858234   42.8387558
   0.7974758   42.8417988
   0.8096412   42.8413450
   0.8296652   42.8307888
   0.8346297   42.8296393
   0.8498450   42.8299807
   0.9069606   42.8052078
   0.9178936   42.7983033
   0.9260519   42.7971455
   0.9603314   42.8069937
   1.0165794   42.7888304
   1.0198207   42.7883480
   1.0796170   42.7893555
   1.1134966   42.7701539
   1.1352549   42.7505004
   1.1611455   42.7161441
   1.1650540   42.7130316
   1.1719622   42.7125714
   1.2307511   42.7299213
   1.2573077   42.7219739
   1.2608230   42.7215583
   1.3295486   42.7257046
   1.3578235   42.7215001
   1.3877139   42.6904378
   1.4134265   42.6578528
   1.4304402   42.6209618
   1.4441154   42.6034064
   1.4468310   42.5660240
   1.4402776   42.5587604
   1.4386801   42.5531125
   1.4399928   42.5483776
   1.4425861   42.5454042
   1.4527125   42.5411556
   1.4562831   42.5301367
   1.4705025   42.5095510
   1.4434563   42.4913401
   1.4394468   42.4858633
   1.4391020   42.4819470
   1.4484131   42.4601956
   1.4493682   42.4481067
   1.4514269   42.4427764
   1.4579433   42.4389919
   1.5105198   42.4315912
   1.5129575   42.4315482
   1.5426397   42.4346635
   1.5471561   42.4362972
   1.5508097   42.4407222
   1.5582723   42.4584131
   1.5632926   42.4616158
   1.5712170   42.4576358
   1.5791110   42.4586254
   1.5968218   42.4689437
   1.6484359   42.4696858
   1.6546261   42.4719464
   1.6580655   42.4775678
   1.6615300   42.4935629
   1.6680821   42.5070684
   1.6996510   42.4939236
   1.7034098   42.4931557
   1.7088958   42.4947392
   1.7259631   42.5054610
   1.7602571   42.4916565
   1.7640076   42.4909332
   1.8046665   42.4909996
   1.8243713   42.4875945
   1.8828554   42.4601017
   1.8893417   42.4530507
   1.8969529   42.4510792
   1.9476069   42.4587640
   1.9511425   42.4600113
   1.9553821   42.4649131
   1.9612410   42.4792093
   1.9780579   42.4985467
   1.9980675   42.4930200
   2.0190665   42.4470499
   1.9846051   42.4445687
   1.9653400   42.4499543
   1.9589431   42.4496434
   1.9490728   42.4453090
   1.9453340   42.4387039
   1.9458985   42.4339194
   1.9493941   42.4293463
   1.9587166   42.4261008
   1.9675978   42.3910660
   1.9703543   42.3863206
   1.9948584   42.3627205
   2.0020499   42.3599264
   2.0522303   42.3612044
   2.0556845   42.3619143
   2.1045236   42.3812374
   2.1099002   42.3861691
   2.1237994   42.4141685
   2.1636434   42.4274121
   2.2533012   42.4410292
   2.3154232   42.4301012
   2.3461964   42.4169484
   2.4347937   42.3949951
   2.4818268   42.3474728
   2.4860684   42.3449178
   2.5007965   42.3445384
   2.5329477   42.3364659
   2.5395751   42.3370860
   2.5438736   42.3408821
   2.5539254   42.3566916
   2.5756867   42.3611282
   2.6500692   42.3457563
   2.6563101   42.3459138
   2.6620959   42.3510368
   2.6630778   42.3558459
   2.6621222   42.3596695
   2.6496602   42.3859179
   2.6525798   42.3903253
   2.6629659   42.3895949
   2.6671063   42.3921513
   2.6697751   42.3973159
   2.6714505   42.4053016
   2.7242901   42.4248660
   2.7542237   42.4268637
   2.7702865   42.4173536
   2.7769648   42.4160348
   2.7864133   42.4203523
   2.8377444   42.4601108
   2.8513184   42.4579352
   2.8580216   42.4591159
   2.8643963   42.4668612
   2.8700655   42.4687493
   2.9020346   42.4606426
   2.9131942   42.4594907
   2.9189588   42.4607012
   2.9225499   42.4640806
   2.9299812   42.4755110
   2.9453309   42.4831537
   2.9688040   42.4722539
   2.9751303   42.4715500
   2.9905161   42.4748790
   3.0010808   42.4741389
   3.0107961   42.4706049
   3.0163095   42.4711298
   3.0301247   42.4765759
   3.0404552   42.4756192
   3.0540475   42.4548889
   3.0560684   42.4526402
   3.0806201   42.4325023
   3.0852574   42.4303805
   3.0967304   42.4291352
   3.1010061   42.4312154
   3.1086678   42.4374238
   3.1233146   42.4396345
   3.1574788   42.4352535
   3.1636192   42.4365075
   3.1772654   42.4357818
   3.3973437   42.4724002
   3.3979455   42.4724264
   3.5840285   42.4579302
   3.5844477   42.4577044
   4.1746396   41.6977288
   4.1745756   41.6974049
   1.6362906   40.2435349
   1.6327823   40.2401599
   1.6313446   40.2335655
   1.6331296   40.2290365
   1.6386800   40.2251963
   1.6861622   40.2125125
   1.6862360   40.2122685
   0.8502762   39.2638898
   0.8480390   39.2595473
   0.8493084   39.2519606
   0.8528375   39.2485829
   0.8595105   39.2474285
   0.8639691   39.2494243
   1.8455049   40.0232578
   1.8459347   40.0234766
   4.2844284   40.7097343
   4.2847957   40.7095975
   4.9382115   39.7200782
   4.9381253   39.7197596
   3.2850664   38.9039387
   3.2847424   38.9037929
   1.2087260   38.0568459
   1.2083612   38.0569681
   0.6695229   38.9621163
   0.6660840   38.9655707
   0.6614207   38.9669891
   0.6557735   38.9655689
   0.6523358   38.9621134
   0.6510319   38.9584233
   0.5877999   38.5183470
   0.5875484   38.5179439
   -0.3401423   37.8866295
   -0.3433386   37.8830705
   -0.3443438   37.8765127
   -0.2472385   37.3605663
   -0.2474288   37.3602780
   -1.3399119   37.1183261
   -1.3445605   37.1158847
   -2.8452786   35.7199324
   -2.8457169   35.7197497
   -3.1748037   35.7063902
   -3.1753013   35.7064199
   -5.1617385   36.0265937
   -5.1653990   36.0265046
   -5.6467190   35.9247039
   -5.6472346   35.9246500
   -5.8175365   35.9246561
   -6.1961563   35.9433984
   -6.1965683   35.9435616
   -7.3990370   36.9658242
   -7.3992441   36.9662457
   -7.4094631   37.1826564
   -7.4177536   37.2125563
   -7.4192887   37.2325116
   -7.4228549   37.2372053
   -7.4377081   37.2478671
   -7.4378822   37.2497971
   -7.4304497   37.2690581
   -7.4305125   37.2764170
   -7.4448551   37.3117761
   -7.4472695   37.3452537
   -7.4421566   37.3549029
   -7.4409457   37.3600919
   -7.4420164   37.3865743
   -7.4434841   37.3913989
   -7.4462571   37.3943510
   -7.4636348   37.4065679
   -7.4643403   37.4142027
   -7.4609324   37.4166706
   -7.4584502   37.4220676
   -7.4587357   37.4260513
   -7.4706111   37.4685312
   -7.4723866   37.4811559
   -7.4720957   37.4847724
   -7.4747163   37.4907993
   -7.4850938   37.4958785
   -7.4925436   37.5051895
   -7.4926025   37.5122396
   -7.4945530   37.5167812
   -7.4984405   37.5198339
   -7.5116087   37.5220323
   -7.5245619   37.5530948
   -7.5176268   37.5690761
   -7.5149539   37.5739584
   -7.5068989   37.5790161
   -7.5044946   37.5833607
   -7.5018518   37.5929903
   -7.5021061   37.5967664
   -7.5056890   37.6039218
   -7.4955055   37.6057042
   -7.4896714   37.6090065
   -7.4856703   37.6156182
   -7.4843831   37.6204221
   -7.4847671   37.6253700
   -7.4768301   37.6274609
   -7.4739489   37.6301990
   -7.4691540   37.6395477
   -7.4679143   37.6442366
   -7.4693154   37.6498438
   -7.4614844   37.6542685
   -7.4583636   37.6613788
   -7.4500038   37.6981750
   -7.4225670   37.7597633
   -7.4222552   37.7601210
   -7.3308027   37.8169575
   -7.3281447   37.8193671
   -7.2996689   37.8565147
   -7.2981706   37.8592842
   -7.2843716   37.8985665
   -7.2640367   37.9242308
   -7.2575574   37.9371048
   -7.2566260   37.9403549
   -7.2544802   37.9599220
   -7.2562553   37.9667851
   -7.2655271   37.9803362
   -7.2458522   37.9929239
   -7.2292036   37.9931731
   -7.2249112   37.9941768
   -7.2034820   38.0045798
   -7.1854612   38.0037522
   -7.1699875   37.9985109
   -7.1634057   37.9985429
   -7.1466967   38.0044574
   -7.1366372   38.0057588
   -7.1325760   38.0097615
   -7.1314808   38.0162892
   -7.1334753   38.0224850
   -7.1302514   38.0302095
   -7.1190242   38.0353818
   -7.0993475   38.0467672
   -7.0793633   38.0366805
   -7.0669862   38.0347803
   -7.0604666   38.0255317
   -7.0546690   38.0215796
   -7.0506035   38.0214371
   -7.0239410   38.0260082
   -7.0130039   38.0258741
   -7.0078815   38.0302570
   -7.0053625   38.0440459
   -7.0001074   38.0529991
   -6.9916336   38.1035457
   -6.9660066   38.1334251
   -6.9630118   38.1385109
   -6.9617290   38.1486828
   -6.9629077   38.1523317
   -6.9723182   38.1601839
   -6.9701414   38.1698422
   -6.9550818   38.1870042
   -6.9527192   38.1951501
   -6.9566538   38.2016412
   -6.9611041   38.2034876
   -6.9693541   38.2012202
   -7.0009068   38.1999570
   -7.0075971   38.1970168
   -7.0220912   38.1826570
   -7.0485682   38.1781923
   -7.0631990   38.1768679
   -7.0673313   38.1755544
   -7.0846604   38.1657536
   -7.1108787   38.1864819
   -7.1448118   38.2390352
   -7.1487032   38.2595007
   -7.1533870   38.2662493
   -7.1722763   38.2776822
   -7.2333348   38.3537169
   -7.2637258   38.3817557
   -7.2749525   38.3966845
   -7.2827454   38.4140104
   -7.2876733   38.4189873
   -7.3015198   38.4251793
   -7.3386252   38.4343006
   -7.3317950   38.4454526
   -7.3192490   38.4577930
   -7.3163176   38.4638636
   -7.3166700   38.4677516
   -7.3206452   38.4731962
   -7.3249492   38.4752371
   -7.3152196   38.5181669
   -7.3052163   38.5436411
   -7.2878382   38.5742477
   -7.2716859   38.5865377
   -7.2681959   38.5914201
   -7.2625032   38.6088411
   -7.2633813   38.6170037
   -7.2760130   38.6388284
   -7.2691970   38.6986994
   -7.2616924   38.7246411
   -7.2395132   38.7388182
   -7.2226574   38.7434783
   -7.2181928   38.7460751
   -7.1941433   38.7702509
   -7.1650258   38.7836555
   -7.1605689   38.7876741
   -7.1553407   38.7986578
   -7.1307680   38.8173832
   -7.0993268   38.8205496
   -7.0922220   38.8246444
   -7.0701875   38.8551541
   -7.0521134   38.8622110
   -7.0481539   38.8649740
   -7.0415627   38.8728394
   -7.0403281   38.8767031
   -7.0415340   38.8826128
   -7.0551610   38.9071108
   -7.0325606   38.9220076
   -7.0288402   38.9263648
   -7.0223322   38.9409077
   -6.9869407   38.9817278
   -6.9618617   39.0170830
   -6.9600405   39.0234232
   -6.9614300   39.0279715
   -6.9705116   39.0386434
   -6.9742621   39.0707033
   -6.9785832   39.0778187
   -7.0298683   39.1125850
   -7.0380675   39.1139670
   -7.1109980   39.0944272
   -7.1444439   39.1069163
   -7.1525297   39.1125661
   -7.1523613   39.1221861
   -7.1407639   39.1571411
   -7.1402791   39.1609808
   -7.1436409   39.1677902
   -7.1479182   39.1700132
   -7.2076081   39.1843596
   -7.2431106   39.2028399
   -7.2499751   39.2566204
   -7.2420510   39.2690778
   -7.2405981   39.2727060
   -7.2416731   39.2793685
   -7.2441934   39.2823556
   -7.3089321   39.3339910
   -7.3249727   39.3813548
   -7.3073034   39.4138324
   -7.3065306   39.4216791
   -7.3109380   39.4361466
   -7.3047064   39.4501907
   -7.3038771   39.4550227
   -7.3049492   39.4588106
   -7.3108501   39.4637870
   -7.3635091   39.4803280
   -7.3897372   39.4922245
   -7.3933622   39.5193235
   -7.3971489   39.5259730
   -7.4015949   39.5279325
   -7.4388294   39.5344957
   -7.4618094   39.5679198
   -7.4662436   39.5715017
   -7.4975243   39.5845366
   -7.5246802   39.6273655
   -7.5435900   39.6689595
   -7.5434480   39.6691710
   -7.4858325   39.6670156
   -7.4256416   39.6611642
   -7.4203438   39.6551576
   -7.4137654   39.6528546
   -7.3710287   39.6536755
   -7.3370550   39.6447035
   -7.3302555   39.6453054
   -7.2998866   39.6594762
   -7.2685937   39.6688210
   -7.1487070   39.6590118
   -7.1446162   39.6595301
   -7.1259282   39.6660084
   -7.1141278   39.6660603
   -7.0659186   39.6617198
   -7.0626330   39.6619690
   -7.0250712   39.6712095
   -7.0215109   39.6728821
   -7.0184070   39.6766724
   -6.9964640   39.7234406
   -6.9955428   39.7269703
   -6.9896567   39.8087506
   -6.9816656   39.8236415
   -6.9551069   39.8294567
   -6.9495634   39.8328237
   -6.9359121   39.8492062
   -6.9300780   39.8574490
   -6.9120851   39.8680885
   -6.9092222   39.8706337
   -6.9072464   39.8778891
   -6.9120232   39.9186630
   -6.8775329   40.0043236
   -6.8776081   40.0119752
   -6.8836638   40.0192022
   -6.8863894   40.0363117
   -6.8905173   40.0429218
   -6.9204831   40.0640633
   -6.9452903   40.1001279
   -6.9522556   40.1043792
   -6.9946316   40.1098209
   -7.0185702   40.1257150
   -7.0339396   40.1872999
   -7.0179475   40.2235444
   -6.9902416   40.2432364
   -6.9725162   40.2427492
   -6.9686285   40.2433882
   -6.9646041   40.2461953
   -6.9534276   40.2588560
   -6.9209085   40.2625078
   -6.8814118   40.2647912
   -6.8769469   40.2661387
   -6.8708536   40.2745351
   -6.8701166   40.2706155
   -6.8667018   40.2673865
   -6.8622448   40.2716688
   -6.8509873   40.2602101
   -6.8464509   40.2614913
   -6.8395317   40.2544479
   -6.8293119   40.2555118
   -6.8252061   40.2500353
   -6.8123583   40.2489535
   -6.8106888   40.2461547
   -6.7966683   40.2421818
   -6.7917887   40.2468985
   -6.7771003   40.2462685
   -6.7751135   40.2482209
   -6.7586296   40.2502692
   -6.7575144   40.2497409
   -6.7424453   40.2534653
   -6.7378935   40.2521044
   -6.7261198   40.2561232
   -6.7007570   40.2548029
   -6.6985474   40.2535182
   -6.6847976   40.2547098
   -6.6819639   40.2533133
   -6.6652010   40.2573035
   -6.6631256   40.2562585
   -6.6480865   40.2611408
   -6.6442809   40.2591744
   -6.6309766   40.2650107
   -6.6254247   40.2620471
   -6.6138711   40.2689278
   -6.6065517   40.2648554
   -6.5967754   40.2729228
   -6.5876517   40.2675601
   -6.5771135   40.2801329
   -6.5773403   40.2825276
   -6.5661882   40.2931298
   -6.5653483   40.2983573
   -6.5601243   40.3028176
   -6.5575673   40.3162497
   -6.5529820   40.3196503
   -6.5512415   40.3273625
   -6.5421731   40.3351072
   -6.5426771   40.3389034
   -6.5327893   40.3509289
   -6.5260276   40.3468055
   -6.5148623   40.3561820
   -6.5101201   40.3535271
   -6.4970080   40.3616066
   -6.4941770   40.3601276
   -6.4791997   40.3671386
   -6.4782099   40.3666504
   -6.4620472   40.3725164
   -6.4616536   40.3732847
   -6.4457147   40.3778147
   -6.4443400   40.3799777
   -6.4310697   40.3829395
   -6.4275404   40.3878753
   -6.4157410   40.3893850
   -6.4106767   40.3956219
   -6.4004828   40.3959841
   -6.3937434   40.4032068
   -6.3853001   40.4027487
   -6.3767354   40.4106170
   -6.3702010   40.4096934
   -6.3622217   40.4158541
   -6.3610303   40.4228013
   -6.3528797   40.4267788
   -6.3510226   40.4364245
   -6.3436720   40.4377843
   -6.3416167   40.4466066
   -6.3353934   40.4487844
   -6.3297958   40.4442939
   -6.3204645   40.4540086
   -6.3153230   40.4511466
   -6.3006057   40.4569554
   -6.3002456   40.4577552
   -6.2869322   40.4593271
   -6.2829482   40.4667514
   -6.2718153   40.4657357
   -6.2652382   40.4751977
   -6.2569816   40.4726909
   -6.2476772   40.4831081
   -6.2425677   40.4804559
   -6.2315839   40.4885016
   -6.2294581   40.4883407
   -6.2240935   40.4787321
   -6.2118212   40.4811722
   -6.2056530   40.4745138
   -6.1977739   40.4745572
   -6.1892841   40.4666189
   -6.1825942   40.4667011
   -6.1729080   40.4587350
   -6.1674194   40.4588341
   -6.1565269   40.4508603
   -6.1522481   40.4509589
   -6.1401416   40.4429931
   -6.1370798   40.4430770
   -6.1261226   40.4365453
   -6.1251813   40.4325943
   -6.1226047   40.4305965
   -6.1150122   40.4136912
   -6.1053417   40.4183001
   -6.1035899   40.4175452
   -6.0985311   40.4059946
   -6.0868003   40.4094160
   -6.0814743   40.3970443
   -6.0758257   40.3930814
   -6.0810240   40.3787910
   -6.0857658   40.3762830
   -6.0901500   40.3617482
   -6.0858622   40.3580356
   -6.0813065   40.3479585
   -6.0674313   40.3468580
   -6.0628960   40.3414854
   -6.0525416   40.3418344
   -6.0441788   40.3356405
   -6.0377516   40.3362961
   -6.0274528   40.3312178
   -6.0264225   40.3278344
   -6.0193371   40.3232683
   -6.0146017   40.3079276
   -6.0036900   40.3128705
   -6.0026001   40.3123251
   -5.9971498   40.2995018
   -5.9876895   40.3048636
   -5.9795081   40.2914623
   -5.9721952   40.2963603
   -5.9633672   40.2858703
   -5.9601587   40.2850567
   -5.9573062   40.2884858
   -5.9429279   40.2846357
   -5.9417678   40.2805683
   -5.9278654   40.2842856
   -5.9222671   40.2754478
   -5.9102312   40.2828763
   -5.9115035   40.2883813
   -5.9008743   40.2998003
   -5.8937705   40.3141993
   -5.8890781   40.3150276
   -5.8861383   40.3270296
   -5.8708866   40.3230194
   -5.8689955   40.3317918
   -5.8530453   40.3299250
   -5.8518064   40.3364177
   -5.8352478   40.3369654
   -5.8345763   40.3409222
   -5.8174887   40.3441261
   -5.8173085   40.3453155
   -5.8005241   40.3511336
   -5.7973645   40.3481127
   -5.7976420   40.3415579
   -5.7894743   40.3336368
   -5.7907149   40.3281680
   -5.7816292   40.3191439
   -5.7869086   40.3081957
   -5.7946440   40.2985958
   -5.7914630   40.2908481
   -5.7886320   40.2888225
   -5.7862882   40.2826234
   -5.7720676   40.2840150
   -5.7701353   40.2791888
   -5.7571944   40.2823035
   -5.7565487   40.2859738
   -5.7446856   40.2876643
   -5.7435535   40.2924809
   -5.7301533   40.2932660
   -5.7295226   40.2921799
   -5.7142753   40.2919519
   -5.6991951   40.2905596
   -5.6983592   40.2916195
   -5.6853564   40.2895346
   -5.6842192   40.2845112
   -5.6727337   40.2820702
   -5.6718995   40.2777346
   -5.6601318   40.2745682
   -5.6585807   40.2649027
   -5.6568412   40.2637395
   -5.6555926   40.2528187
   -5.6423561   40.2491401
   -5.6401852   40.2449005
   -5.6290658   40.2423259
   -5.6255918   40.2359954
   -5.6160436   40.2277832
   -5.6155315   40.2216055
   -5.6011488   40.2148208
   -5.5843520   40.2117587
   -5.5826601   40.2076655
   -5.5680391   40.2082614
   -5.5640989   40.2007582
   -5.5519417   40.2040983
   -5.5453241   40.1945889
   -5.5360949   40.1991617
   -5.5289315   40.1919144
   -5.5254158   40.1926369
   -5.5196626   40.2015946
   -5.5100890   40.1966329
   -5.5045403   40.2053066
   -5.4931179   40.2030614
   -5.4891797   40.2090007
   -5.4761261   40.2093898
   -5.4738441   40.2127536
   -5.4643469   40.2146316
   -5.4596743   40.2243419
   -5.4525555   40.2252780
   -5.4471243   40.2355562
   -5.4408092   40.2359725
   -5.4345290   40.2467181
   -5.4291156   40.2467231
   -5.4221188   40.2574535
   -5.4118575   40.2500610
   -5.4025826   40.2570343
   -5.3961395   40.2516281
   -5.3831827   40.2559148
   -5.3804043   40.2534542
   -5.3637574   40.2545821
   -5.3589832   40.2502061
   -5.3560782   40.2440102
   -5.3616184   40.2263339
   -5.3602502   40.2247731
   -5.3668877   40.2075798
   -5.3618587   40.2043695
   -5.3662126   40.1883906
   -5.3625536   40.1855298
   -5.3658228   40.1692223
   -5.3630806   40.1666999
   -5.3646189   40.1564892
   -5.3550587   40.1497194
   -5.3558645   40.1440613
   -5.3461936   40.1384197
   -5.3470944   40.1316456
   -5.3373457   40.1271078
   -5.3383054   40.1192450
   -5.3239341   40.1141572
   -5.3230688   40.1147051
   -5.3097902   40.1101752
   -5.3053223   40.1136034
   -5.2906280   40.1095176
   -5.2875922   40.1123228
   -5.2714641   40.1090492
   -5.2698832   40.1108040
   -5.2522970   40.1088282
   -5.2343607   40.1089447
   -5.2331489   40.1068284
   -5.2164973   40.1091715
   -5.2118502   40.1005698
   -5.2117853   40.0984364
   -5.2047604   40.0920045
   -5.1937227   40.0862129
   -5.1810671   40.0931310
   -5.1785619   40.0919578
   -5.1632419   40.0956424
   -5.1612516   40.0977017
   -5.1478889   40.0989065
   -5.1417674   40.1029877
   -5.1392208   40.1029899
   -5.1239676   40.1118874
   -5.1076678   40.1198165
   -5.1065789   40.1216713
   -5.0915728   40.1276960
   -5.0892123   40.1315040
   -5.0755167   40.1356407
   -5.0718083   40.1412541
   -5.0595097   40.1436672
   -5.0564285   40.1479929
   -5.0421709   40.1494632
   -5.0391223   40.1557538
   -5.0166248   40.1537410
   -5.0096985   40.1409402
   -5.0108427   40.1358359
   -5.0053398   40.1267741
   -5.0054160   40.1243941
   -4.9921026   40.1165346
   -4.9818891   40.1247776
   -4.9755744   40.1207106
   -4.9625861   40.1274678
   -4.9590721   40.1250604
   -4.9455797   40.1292717
   -4.9440770   40.1334052
   -4.9291183   40.1337806
   -4.9263159   40.1458272
   -4.9249756   40.1466040
   -4.9229885   40.1619071
   -4.9200444   40.1640034
   -4.9195605   40.1745369
   -4.9039706   40.1767754
   -4.9030962   40.1839493
   -4.8882768   40.1845684
   -4.8865039   40.1931314
   -4.8726954   40.1925835
   -4.8698053   40.2021213
   -4.8572077   40.2007826
   -4.8530176   40.2109499
   -4.8417978   40.2091348
   -4.8361539   40.2196410
   -4.8264542   40.2176162
   -4.8198524   40.2272944
   -4.8198883   40.2330950
   -4.8146186   40.2367384
   -4.8122421   40.2416962
   -4.8139232   40.2508397
   -4.8103012   40.2539847
   -4.8083866   40.2687512
   -4.8034286   40.2715592
   -4.7885469   40.2713339
   -4.7871020   40.2661737
   -4.7850964   40.2655003
   -4.7743152   40.2686725
   -4.7706424   40.2606474
   -4.7692453   40.2601783
   -4.7571016   40.2665869
   -4.7546833   40.2644874
   -4.7385792   40.2697471
   -4.7222890   40.2717146
   -4.7205989   40.2750506
   -4.7030138   40.2744975
   -4.7013269   40.2636509
   -4.6994278   40.2621017
   -4.6962465   40.2477157
   -4.6915982   40.2448173
   -4.6877216   40.2331369
   -4.6844284   40.2309262
   -4.6792744   40.2185273
   -4.6767257   40.2174206
   -4.6659379   40.2086779
   -4.6624886   40.2086474
   -4.6540611   40.1991068
   -4.6484814   40.2010896
   -4.6399299   40.1955740
   -4.6385640   40.1957574
   -4.6348711   40.2052270
   -4.6218746   40.2010546
   -4.6197108   40.2078410
   -4.6050031   40.2077974
   -4.6044084   40.2099907
   -4.5898297   40.2145005
   -4.5876518   40.2126285
   -4.5715739   40.2225316
   -4.5669425   40.2289157
   -4.5657988   40.2380421
   -4.5606093   40.2447253
   -4.5602315   40.2513111
   -4.5540012   40.2603996
   -4.5458783   40.2740881
   -4.5445265   40.2746673
   -4.5368785   40.2882655
   -4.5349856   40.2889020
   -4.5252335   40.3077126
   -4.5252696   40.3128914
   -4.5200937   40.3241657
   -4.5071819   40.3313168
   -4.5056723   40.3329417
   -4.4883467   40.3404258
   -4.4816469   40.3403846
   -4.4696079   40.3448681
   -4.4574199   40.3539268
   -4.4550002   40.3583979
   -4.4516415   40.3606858
   -4.4425658   40.3773546
   -4.4441328   40.3816494
   -4.4326095   40.3928276
   -4.4339377   40.3975124
   -4.4202574   40.3996239
   -4.4217086   40.4098020
   -4.4203487   40.4107255
   -4.4070622   40.4066716
   -4.4035419   40.4118317
   -4.3902185   40.4078187
   -4.3864484   40.4128548
   -4.3733742   40.4089634
   -4.3693561   40.4138814
   -4.3565305   40.4101030
   -4.3522632   40.4149119
   -4.3396866   40.4112399
   -4.3312867   40.4199903
   -4.3353021   40.4308530
   -4.3323968   40.4381225
   -4.3301690   40.4398037
   -4.3275678   40.4533540
   -4.3213517   40.4581147
   -4.3232652   40.4731639
   -4.3218433   40.4746030
   -4.3227371   40.4911479
   -4.3219850   40.5079604
   -4.3235729   40.5091992
   -4.3211403   40.5246860
   -4.3246513   40.5272618
   -4.3206108   40.5399927
   -4.3233746   40.5452097
   -4.3185988   40.5506720
   -4.3183263   40.5571690
   -4.3053620   40.5571333
   -4.3044810   40.5621659
   -4.2992687   40.5640212
   -4.2932222   40.5615250
   -4.2885808   40.5708818
   -4.2902741   40.5728996
   -4.2836999   40.5833777
   -4.2860415   40.5865253
   -4.2789593   40.5959247
   -4.2841464   40.6038929
   -4.2813762   40.6135986
   -4.2787634   40.6162801
   -4.2671425   40.6099413
   -4.2659375   40.6102366
   -4.2517447   40.6020269
   -4.2482304   40.6084901
   -4.2435851   40.6084452
   -4.2373920   40.6016699
   -4.2359498   40.6017884
   -4.2317271   40.6083305
   -4.2259057   40.6082742
   -4.2227814   40.6028707
   -4.2193323   40.6031541
   -4.2131807   40.6104410
   -4.2071866   40.6057408
   -4.2020294   40.6073618
   -4.1999983   40.6144414
   -4.1869023   40.6121166
   -4.1696081   40.6249956
   -4.1716697   40.6290972
   -4.1702298   40.6347239
   -4.1734298   40.6444096
   -4.1687651   40.6520477
   -4.1723615   40.6596233
   -4.1680702   40.6702360
   -4.1708351   40.6748212
   -4.1684271   40.6856769
   -4.1589517   40.6873558
   -4.1525535   40.6970830
   -4.1500812   40.6968386
   -4.1391926   40.7035629
   -4.1400269   40.7134636
   -4.1287356   40.7174024
   -4.1291820   40.7302415
   -4.1189910   40.7314058
   -4.1131845   40.7429997
   -4.1098506   40.7431489
   -4.0991864   40.7528473
   -4.0983614   40.7566749
   -4.0926303   40.7599066
   -4.0866842   40.7728031
   -4.0772873   40.7819277
   -4.0764831   40.7900830
   -4.0664131   40.7944459
   -4.0574720   40.7890367
   -4.0488400   40.7936113
   -4.0386241   40.7880077
   -4.0312738   40.7926780
   -4.0197730   40.7870835
   -4.0137161   40.7916308
   -4.0009182   40.7862808
   -3.9961689   40.7904477
   -3.9820596   40.7856194
   -3.9755589   40.7922327
   -3.9764140   40.8009488
   -3.9691447   40.8091855
   -3.9695623   40.8175999
   -3.9626734   40.8261094
   -3.9627606   40.8342667
   -3.9591300   40.8390805
   -3.9581492   40.8516058
   -3.9559578   40.8538917
   -3.9532137   40.8688440
   -3.9485957   40.8833211
   -3.9497522   40.8865360
   -3.9426380   40.9011270
   -3.9431075   40.9032510
   -3.9359096   40.9162780
   -3.9363034   40.9199163
   -3.9304863   40.9295678
   -3.9274565   40.9304882
   -3.9171859   40.9443411
   -3.9115255   40.9444790
   -3.9012384   40.9558010
   -3.8977582   40.9557506
   -3.8852144   40.9671663
   -3.8840545   40.9671102
   -3.8729400   40.9755500
   -3.8672356   40.9741935
   -3.8558513   40.9840121
   -3.8496964   40.9803852
   -3.8375170   40.9869770
   -3.8349100   40.9850344
   -3.8199774   40.9889983
   -3.8192799   40.9903709
   -3.8045762   40.9907565
   -3.8014336   40.9954894
   -3.7881401   40.9930515
   -3.7854763   41.0070893
   -3.7744244   41.0074161
   -3.7709428   41.0193841
   -3.7604233   41.0214060
   -3.7566543   41.0318960
   -3.7462872   41.0352181
   -3.7424890   41.0445159
   -3.7320765   41.0489332
   -3.7283939   41.0571978
   -3.7178210   41.0625885
   -3.7155842   41.0673007
   -3.7020506   41.0742559
   -3.6999530   41.0788401
   -3.6862808   41.0859257
   -3.6843209   41.0903769
   -3.6705123   41.0975957
   -3.6686873   41.1019133
   -3.6547449   41.1092684
   -3.6530526   41.1134480
   -3.6389784   41.1209424
   -3.6374159   41.1249810
   -3.6232139   41.1326177
   -3.6217786   41.1365119
   -3.6074511   41.1442955
   -3.6061403   41.1480401
   -3.5953540   41.1539624
   -3.5890339   41.1524903
   -3.5793026   41.1621224
   -3.5690394   41.1567681
   -3.5626060   41.1632887
   -3.5517980   41.1583391
   -3.5459083   41.1644386
   -3.5345576   41.1599244
   -3.5288529   41.1659517
   -3.5174595   41.1635930
   -3.5128065   41.1680588
   -3.5038526   41.1673605
   -3.4979380   41.1744810
   -3.4880041   41.1730032
   -3.4831500   41.1811990
   -3.4719382   41.1782394
   -3.4686646   41.1884273
   -3.4596390   41.1897430
   -3.4594930   41.1992851
   -3.4480003   41.2039002
   -3.4490471   41.2089871
   -3.4402273   41.2169886
   -3.4380648   41.2169611
   -3.4338941   41.2114712
   -3.4223367   41.2167605
   -3.4199892   41.2137780
   -3.4060740   41.2147274
   -3.4008849   41.2329288
   -3.4043008   41.2379612
   -3.4011578   41.2479005
   -3.4040169   41.2560058
   -3.4019086   41.2621481
   -3.3920892   41.2665255
   -3.3813924   41.2620024
   -3.3721859   41.2657884
   -3.3635819   41.2607685
   -3.3523001   41.2649091
   -3.3457733   41.2597122
   -3.3324395   41.2638219
   -3.3279682   41.2589397
   -3.3126193   41.2624089
   -3.3101694   41.2586595
   -3.2923974   41.2604978
   -3.2905226   41.2638844
   -3.2746655   41.2656299
   -3.2711684   41.2691230
   -3.2569330   41.2707242
   -3.2523953   41.2753512
   -3.2402798   41.2822992
   -3.2370822   41.2874563
   -3.2269789   41.2917096
   -3.2216458   41.2993527
   -3.2138732   41.3013315
   -3.2117392   41.3039461
   -3.1931689   41.3051947
   -3.1909745   41.3007183
   -3.1755212   41.3016435
   -3.1733389   41.2972776
   -3.1578726   41.2980948
   -3.1557029   41.2938360
   -3.1402242   41.2945471
   -3.1380680   41.2903919
   -3.1225749   41.2910017
   -3.1204326   41.2869471
   -3.1049260   41.2874572
   -3.1027986   41.2835007
   -3.0872764   41.2839142
   -3.0851642   41.2800518
   -3.0696264   41.2803727
   -3.0675301   41.2766032
   -3.0511393   41.2768452
   -3.0488942   41.2808957
   -3.0326978   41.2814406
   -3.0299757   41.2852522
   -3.0142478   41.2859801
   -3.0110685   41.2896425
   -2.9957932   41.2904877
   -2.9921673   41.2940546
   -2.9773361   41.2949755
   -2.9732718   41.2984798
   -2.9588764   41.2994500
   -2.9543795   41.3029147
   -2.9495765   41.3032588
   -2.9387082   41.3084125
   -2.9366013   41.3107168
   -2.9174123   41.3142567
   -2.9105814   41.3115544
   -2.9042949   41.3120166
   -2.8925926   41.3079159
   -2.8868847   41.3081409
   -2.8799752   41.3059358
   -2.8746829   41.3004750
   -2.8629749   41.2866126
   -2.8621074   41.2863010
   -2.8499381   41.2720536
   -2.8356949   41.2721092
   -2.8318111   41.2687180
   -2.7774608   41.2649040
   -2.7638611   41.2690266
   -2.7612083   41.2715310
   -2.7425875   41.2726772
   -2.7393035   41.2699815
   -2.7239645   41.2691748
   -2.7224533   41.2680126
   -2.7116423   41.2666007
   -2.7067213   41.2623933
   -2.6948144   41.2605004
   -2.6909737   41.2568283
   -2.6780094   41.2543466
   -2.6752050   41.2513266
   -2.6612303   41.2481267
   -2.6594132   41.2459035
   -2.6444845   41.2418293
   -2.6372695   41.2316878
   -2.6304322   41.2290218
   -2.6213638   41.2187633
   -2.6162812   41.2164577
   -2.6056262   41.2057398
   -2.5986486   41.2007802
   -2.5930278   41.1907967
   -2.5872604   41.1853396
   -2.5814451   41.1752391
   -2.5742194   41.1697986
   -2.5626381   41.1640012
   -2.5553328   41.1626074
   -2.5469708   41.1571427
   -2.5326053   41.1542249
   -2.5217914   41.1422679
   -2.5177398   41.1410608
   -2.5091262   41.1301423
   -2.5030102   41.1277359
   -2.4963178   41.1181566
   -2.4883929   41.1142755
   -2.4833906   41.1062850
   -2.4816616   41.1052705
   -2.4741466   41.0908242
   -2.4699161   41.0885984
   -2.4658459   41.0773945
   -2.4467647   41.0745821
   -2.4459795   41.0736070
   -2.4291457   41.0730409
   -2.4258533   41.0705343
   -2.4107631   41.0704451
   -2.3940309   41.0715804
   -2.3917337   41.0705517
   -2.3765766   41.0722270
   -2.3726994   41.0707578
   -2.3591168   41.0727770
   -2.3510127   41.0715327
   -2.3348025   41.0659266
   -2.3316108   41.0668587
   -2.3175393   41.0612729
   -2.3061451   41.0681056
   -2.2987491   41.0663031
   -2.2892776   41.0725915
   -2.2799871   41.0714951
   -2.2723626   41.0769456
   -2.2612468   41.0768004
   -2.2554159   41.0812090
   -2.2425218   41.0821868
   -2.2384458   41.0854081
   -2.2055688   41.0916679
   -2.1880790   41.0955082
   -2.1857116   41.0949092
   -2.1724213   41.0987429
   -2.1707611   41.1001466
   -2.1577757   41.1026648
   -2.1536651   41.1058311
   -2.1431944   41.1067492
   -2.1365255   41.1113080
   -2.1274374   41.1110115
   -2.1173323   41.1018902
   -2.1111853   41.1019660
   -2.0996619   41.0925904
   -2.0949701   41.0928518
   -2.0819545   41.0833601
   -2.0659984   41.0849157
   -2.0617415   41.0888367
   -2.0612545   41.0979818
   -2.0573503   41.1059884
   -2.0575453   41.1134944
   -2.0530024   41.1231410
   -2.0537820   41.1289850
   -2.0473883   41.1432995
   -2.0443956   41.1454137
   -2.0289580   41.1523460
   -2.0201493   41.1499498
   -2.0120012   41.1536518
   -2.0010731   41.1521838
   -1.9950428   41.1549443
   -1.9819971   41.1544278
   -1.9780813   41.1562297
   -1.9623498   41.1569418
   -1.9444084   41.1509027
   -1.9265472   41.1454358
   -1.9231817   41.1410093
   -1.9099691   41.1365166
   -1.9077474   41.1329948
   -1.8915878   41.1267897
   -1.8756657   41.1197840
   -1.8744095   41.1200474
   -1.8577925   41.1118905
   -1.8569754   41.1104218
   -1.8414919   41.1029282
   -1.8403500   41.1012112
   -1.8251973   41.0939526
   -1.8237189   41.0920087
   -1.8131188   41.0869709
   -1.8085958   41.0807468
   -1.7973923   41.0751629
   -1.7934640   41.0695009
   -1.7816763   41.0633405
   -1.7783206   41.0582700
   -1.7659725   41.0515044
   -1.7631662   41.0470541
   -1.7502794   41.0396519
   -1.7480000   41.0358543
   -1.7345991   41.0277849
   -1.7328220   41.0246705
   -1.7189302   41.0159006
   -1.7176312   41.0135028
   -1.7032739   41.0040006
   -1.7024277   41.0023530
   -1.6876310   40.9920831
   -1.6872118   40.9912209
   -1.6720010   40.9801476
   -1.6420141   40.9572096
   -1.6402615   40.9569089
   -1.6270239   40.9457706
   -1.6243997   40.9452803
   -1.6125286   40.9347891
   -1.6137553   40.9208166
   -1.6183973   40.9147172
   -1.6195816   40.9040444
   -1.6238535   40.8989327
   -1.6250084   40.8904875
   -1.6144281   40.8742017
   -1.6136803   40.8738820
   -1.6028347   40.8583595
   -1.5921397   40.8445825
   -1.5915106   40.8423980
   -1.5813819   40.8299171
   -1.5801143   40.8264689
   -1.5706730   40.8151983
   -1.5686719   40.8105600
   -1.5641077   40.8052394
   -1.5506089   40.7352179
   -1.5539139   40.7248333
   -1.5523995   40.7163963
   -1.5555676   40.7060957
   -1.5541831   40.6975726
   -1.5572270   40.6873587
   -1.5559606   40.6787496
   -1.5588921   40.6686231
   -1.5577332   40.6599282
   -1.5605623   40.6498884
   -1.5595014   40.6411043
   -1.5622361   40.6311539
   -1.5612657   40.6222822
   -1.5639138   40.6124196
   -1.5635591   40.6088353
   -1.5704183   40.5974879
   -1.5739951   40.5949694
   -1.5810244   40.5809870
   -1.5969463   40.5737809
   -1.6042163   40.5751337
   -1.6209390   40.5767714
   -1.6233444   40.5785180
   -1.6376321   40.5785988
   -1.6425294   40.5816844
   -1.6542911   40.5806488
   -1.6617429   40.5846162
   -1.6709104   40.5829364
   -1.6809892   40.5873004
   -1.6852642   40.5861035
   -1.6958925   40.5695303
   -1.6951051   40.5643384
   -1.7016992   40.5498119
   -1.7014784   40.5475131
   -1.7078439   40.5303151
   -1.7128801   40.5137506
   -1.7146242   40.5112323
   -1.7167958   40.5030847
   -1.7256382   40.4949110
   -1.7370201   40.4827139
   -1.7403651   40.4810133
   -1.7493337   40.4700383
   -1.7550964   40.4671162
   -1.7616424   40.4573610
   -1.7698338   40.4532239
   -1.7764212   40.4395344
   -1.7809456   40.4369673
   -1.7860016   40.4244453
   -1.7919604   40.4206462
   -1.7978549   40.4028580
   -1.7967175   40.4015844
   -1.7898161   40.3864434
   -1.7827070   40.3822369
   -1.7768331   40.3715649
   -1.7712070   40.3683216
   -1.7638262   40.3567031
   -1.7597234   40.3543881
   -1.7508015   40.3418550
   -1.7482528   40.3404422
   -1.7249081   40.3120464
   -1.7132876   40.2991727
   -1.7089733   40.2934087
   -1.6951850   40.2864277
   -1.6931155   40.2840465
   -1.6782283   40.2760419
   -1.6772251   40.2747539
   -1.6613178   40.2655909
   -1.6456267   40.2557810
   -1.6440484   40.2556186
   -1.6299755   40.2459774
   -1.6267573   40.2456772
   -1.6143332   40.2361544
   -1.6094474   40.2357576
   -1.5987037   40.2263041
   -1.5921135   40.2258711
   -1.5830945   40.2164126
   -1.5747414   40.2160369
   -1.5675178   40.2064504
   -1.5573042   40.2062882
   -1.5520002   40.1963610
   -1.5369373   40.1967809
   -1.5360431   40.1957403
   -1.5186993   40.1946501
   -1.5181586   40.1950911
   -1.5014497   40.1927429
   -1.4993551   40.1941842
   -1.4841767   40.1910309
   -1.4805569   40.1931164
   -1.4668872   40.1894729
   -1.4617624   40.1919180
   -1.4485045   40.1876969
   -1.4452744   40.1789858
   -1.4443557   40.1636873
   -1.4467713   40.1606047
   -1.4465136   40.1489355
   -1.4392132   40.1469193
   -1.4316713   40.1377380
   -1.4217036   40.1443392
   -1.4129209   40.1358536
   -1.4045397   40.1419826
   -1.3941484   40.1341305
   -1.3873896   40.1394784
   -1.3753577   40.1325435
   -1.3692153   40.1377273
   -1.3561708   40.1338694
   -1.3518943   40.1369462
   -1.3370371   40.1348044
   -1.3346039   40.1363767
   -1.3179292   40.1355554
   -1.2972409   40.1479258
   -1.2939683   40.1515778
   -1.2824154   40.1455324
   -1.2790458   40.1419648
   -1.2612448   40.1330832
   -1.2590968   40.1330640
   -1.2488808   40.1257444
   -1.2440214   40.1149802
   -1.2267614   40.1131563
   -1.2256667   40.1114741
   -1.2085739   40.1094098
   -1.2073281   40.1079193
   -1.1903826   40.1057126
   -1.1889978   40.1043390
   -1.1721893   40.1020407
   -1.1706728   40.1007434
   -1.1539948   40.0983844
   -1.1523505   40.0971382
   -1.1437031   40.0958839
   -1.1355144   40.0889589
   -1.1259258   40.0877632
   -1.1186958   40.0807288
   -1.1081095   40.0797001
   -1.1019047   40.0724134
   -1.0902305   40.0717382
   -1.0811469   40.0577415
   -1.0774843   40.0557277
   -1.0675219   40.0353535
   -1.0652217   40.0106821
   -1.0554781   40.0078919
   -1.0406748   40.0054578
   -1.0368308   40.0037261
   -1.0206176   40.0009102
   -1.0181897   39.9996148
   -1.0005926   39.9963104
   -0.9995636   39.9956185
   -0.9806349   39.9916065
   -0.9741546   39.9854398
   -0.9636685   39.9822114
   -0.9603742   39.9781726
   -0.9469630   39.9724082
   -0.9463510   39.9714173
   -0.9328873   39.9634747
   -0.9297126   39.9634599
   -0.9041125   39.9427325
   -0.9001448   39.9413488
   -0.8815377   39.9270721
   -0.8746717   39.9230072
   -0.8618872   39.9476944
   -0.8452490   39.9642147
   -0.8324246   39.9676612
   -0.8231480   39.9777574
   -0.8189720   39.9788133
   -0.8091612   39.9891103
   -0.8055253   39.9899731
   -0.7951679   40.0004552
   -0.7920846   40.0011398
   -0.7811677   40.0117930
   -0.7786507   40.0123145
   -0.7735071   40.0171538
   -0.7698000   40.0263339
   -0.7666382   40.0278887
   -0.7582501   40.0406543
   -0.7464262   40.0410218
   -0.7440332   40.0435885
   -0.7276151   40.0454625
   -0.7265091   40.0466377
   -0.7087833   40.0497456
   -0.6917710   40.0538764
   -0.6898413   40.0532385
   -0.6576891   40.0636280
   -0.6409759   40.0695367
   -0.6400185   40.0692636
   -0.6227963   40.0760199
   -0.6180895   40.0838868
   -0.6182060   40.0893924
   -0.6154579   40.0996773
   -0.6125146   40.1022705
   -0.6041709   40.1168835
   -0.6023326   40.1180329
   -0.5933826   40.1331285
   -0.5921796   40.1338112
   -0.5840248   40.1469969
   -0.5840721   40.1504784
   -0.5749717   40.1640410
   -0.5754224   40.1683223
   -0.5657468   40.1810315
   -0.5673540   40.1875623
   -0.5600212   40.1991207
   -0.5615168   40.2035002
   -0.5545259   40.2172836
   -0.5554292   40.2193497
   -0.5494042   40.2352215
   -0.5402807   40.2396502
   -0.5333414   40.2389647
   -0.5169754   40.2347467
   -0.4986390   40.2315815
   -0.4951702   40.2358840
   -0.4804279   40.2350248
   -0.4777015   40.2379700
   -0.4622070   40.2382798
   -0.4602623   40.2401728
   -0.4487945   40.2410542
   -0.4437260   40.2460201
   -0.4332083   40.2459337
   -0.4271916   40.2518781
   -0.4176177   40.2508023
   -0.4106611   40.2577512
   -0.4020190   40.2556536
   -0.3923530   40.2654571
   -0.3874765   40.2682472
   -0.3876291   40.2829811
   -0.3897591   40.2859310
   -0.3910916   40.2943509
   -0.3787052   40.3053952
   -0.3771764   40.3054839
   -0.3633883   40.3167952
   -0.3486651   40.3277219
   -0.3483763   40.3285734
   -0.3341789   40.3385290
   -0.3334430   40.3404493
   -0.3197241   40.3493803
   -0.3184793   40.3522862
   -0.3052976   40.3602699
   -0.2985196   40.3745545
   -0.2999768   40.3811949
   -0.3038966   40.3847619
   -0.3102122   40.3964340
   -0.3134327   40.3987938
   -0.3201452   40.4110930
   -0.3229585   40.4128325
   -0.3300899   40.4257423
   -0.3324612   40.4268806
   -0.3406881   40.4415005
   -0.3398511   40.4465740
   -0.3348982   40.4506296
   -0.3318749   40.4566579
   -0.3163886   40.4605135
   -0.3151074   40.4634889
   -0.2985254   40.4694344
   -0.2982615   40.4701481
   -0.2807401   40.4785261
   -0.2802220   40.4801629
   -0.2862793   40.4948757
   -0.2857038   40.4970745
   -0.2916724   40.5116984
   -0.2911806   40.5139859
   -0.2958412   40.5254883
   -0.2940027   40.5315597
   -0.2988462   40.5443911
   -0.2959655   40.5514010
   -0.2999108   40.5634373
   -0.2972702   40.5693918
   -0.3009364   40.5824875
   -0.2986130   40.5873801
   -0.3021351   40.6024388
   -0.3735213   40.6162341
   -0.3758191   40.6216766
   -0.3788677   40.6378077
   -0.3767734   40.6407078
   -0.3766759   40.6549498
   -0.3745569   40.6667904
   -0.3628201   40.6720412
   -0.3532888   40.6698542
   -0.3452430   40.6732263
   -0.3353375   40.6709776
   -0.3205525   40.6696716
   -0.3174587   40.6672493
   -0.3042275   40.6678581
   -0.2998249   40.6724731
   -0.2885630   40.6734071
   -0.2852803   40.6774701
   -0.2729346   40.6790433
   -0.2707043   40.6823592
   -0.2573506   40.6847913
   -0.2560850   40.6871051
   -0.2418259   40.6906839
   -0.2375686   40.7005835
   -0.2379152   40.7019376
   -0.2321130   40.7169137
   -0.2280079   40.7292649
   -0.2242139   40.7319625
   -0.2185011   40.7454893
   -0.2161594   40.7469307
   -0.2088744   40.7616391
   -0.1997042   40.7766858
   -0.1968158   40.7824886
   -0.1801367   40.7873037
   -0.1756410   40.7834384
   -0.1633846   40.7858654
   -0.1595646   40.7828332
   -0.1466330   40.7845048
   -0.1421331   40.7811592
   -0.1413440   40.7741425
   -0.1321740   40.7653860
   -0.1325948   40.7625521
   -0.1244768   40.7506476
   -0.1166029   40.7538362
   -0.1070185   40.7443081
   -0.1030475   40.7468496
   -0.0896484   40.7395085
   -0.0894860   40.7381721
   -0.0744343   40.7362748
   -0.0724861   40.7288805
   -0.0575666   40.7329614
   -0.0541881   40.7265372
   -0.0395902   40.7282833
   -0.0355123   40.7235220
   -0.0215908   40.7242562
   -0.0169332   40.7202442
   -0.0035848   40.7204483
   0.0016037   40.7168500
   0.0144259   40.7167392
   0.0192659   40.7110686
   0.0313461   40.7053510
   0.0345453   40.6987836
   0.0483444   40.6951391
   0.0554187   40.7029420
   0.0657854   40.7024828
   0.0710218   40.7084232
   0.0832089   40.7098909
   0.0866455   40.7138630
   0.1006226   40.7173354
   0.1022825   40.7192801
   0.1111654   40.7223966
   0.1191638   40.7204757
   0.1279882   40.7247397
   0.1380246   40.7223887
   0.1448096   40.7270539
   0.1568762   40.7243378
   0.1689666   40.7369748
   0.1701422   40.7416897
   0.1850037   40.7488050
   0.1991934   40.7578715
   0.2029104   40.7577761
   0.2133802   40.7666827
   0.2206950   40.7669336
   0.2277023   40.7752053
   0.2355390   40.7761077
   0.2415982   40.7868976
   0.2492532   40.7885384
   0.2522938   40.7977849
   0.2625308   40.8013883
   0.2634444   40.8081740
   0.2752742   40.8147512
   0.2750006   40.8239139
   0.2698435   40.8272245
   0.2658246   40.8408587
   0.2579965   40.8524639
   0.2588940   40.8588842
   0.2530432   40.8637277
   0.2560362   40.8777482
   0.2544741   40.8792995
   0.2451877   40.8808266
   0.2422680   40.8902854
   0.2543879   40.8968405
   0.2516142   40.9072217
   0.2633782   40.9135245
   0.2609650   40.9241551
   0.2723647   40.9302111
   0.2703191   40.9410867
   0.2813477   40.9468994
   0.2799440   40.9562384
   0.2807954   40.9586026
   0.2903271   40.9635895
   0.2888331   40.9767374
   0.2849629   40.9793372
   0.2816188   40.9929633
   0.2795153   40.9945165
   0.2745395   41.0092241
   0.2711159   41.0167215
   0.2577106   41.0239375
   0.2558794   41.0282035
   0.2431699   41.0340333
   0.2406174   41.0396483
   0.2286579   41.0441674
   0.2240995   41.0535836
   0.2251918   41.0639454
   0.2227490   41.0690072
   0.2223425   41.0824626
   0.2206884   41.0905842
   0.2227509   41.1004748
   0.2219502   41.1050446
   0.2233879   41.1162300
   0.2260372   41.1180407
   0.2350194   41.1316478
   0.2503893   41.1375712
   0.2519974   41.1402361
   0.2665154   41.1444569
   0.2689185   41.1490015
   0.2827544   41.1511635
   0.2857230   41.1581301
   0.2992535   41.1574562
   0.3026605   41.1698075
   0.3047366   41.1706285
   0.3078412   41.1859606
   0.3112170   41.1872057
   0.3129675   41.2021351
   0.3177702   41.2037602
   0.3180202   41.2183394
   0.3287263   41.2215859
   0.3296699   41.2233461
   0.3444001   41.2262394
   0.3466377   41.2297230
   0.3600036   41.2311115
   0.3636765   41.2359047
   0.3755461   41.2361772
   0.3787141   41.2396476
   0.3779601   41.2528302
   0.3809838   41.2551765
   0.3816346   41.2703031
   0.3825306   41.2707632
   0.3858900   41.2867951
   0.3793662   41.2898873
   0.3766524   41.3039479
   0.3744056   41.3053817
   0.3644016   41.3304652
   0.3685385   41.3398638
   0.3673227   41.3442291
   0.3740527   41.3580407
   0.3618859   41.3649337
   0.3620899   41.3710373
   0.3519932   41.3782600
   0.3507070   41.3843146
   0.3418434   41.3912526
   0.3399736   41.3963519
   0.3411167   41.3984600
   0.3437214   41.4199053
   0.3446477   41.4202022
   0.3506682   41.4329954
   0.3469963   41.4390851
   0.3515044   41.4474395
   0.3501719   41.4537356
   0.3470372   41.4569559
   0.3478804   41.4660760
   0.3422399   41.4742017
   0.3444641   41.4788221
   0.3540568   41.4801658
   0.3576617   41.4900411
   0.3651911   41.4824604
   0.3709194   41.4827658
   0.3732473   41.4887139
   0.3875185   41.4845711
   0.3887784   41.4876776
   0.4025312   41.4899477
   0.4043548   41.4918189
   0.4021835   41.4987913
   0.4161701   41.5070787
   0.4153193   41.5096488
   0.4260647   41.5224863
   0.4293597   41.5220390
   0.4359902   41.5360019
   0.4433384   41.5362296
   0.4465989   41.5481202
   0.4386083   41.5541316
   0.4399415   41.5636609
   0.4330107   41.5688233
   0.4332719   41.5791975
   0.4274234   41.5835199
   0.4265928   41.5947310
   0.4217668   41.5982759
   0.4098538   41.5947867
   0.4039793   41.5996250
   0.3920254   41.5955745
   0.3861927   41.6010564
   0.3741854   41.5962692
   0.3694020   41.6015196
   0.3661156   41.6015132
   0.3563286   41.5968175
   0.3498291   41.6054232
   0.3525789   41.6125329
   0.3489479   41.6223496
   0.3504198   41.6260085
   0.3488441   41.6351997
   0.3447836   41.6383014
   0.3418569   41.6519725
   0.3388059   41.6537151
   0.3346793   41.6686465
   0.3331620   41.6692270
   0.3288637   41.6806593
   0.3392938   41.6909627
   0.3401986   41.6907416
   0.3537987   41.7043666
   0.3549086   41.7041836
   0.3683180   41.7177572
   0.3696108   41.7176353
   0.3828456   41.7311388
   0.3843080   41.7310931
   0.3973786   41.7445150
   0.4015052   41.7446198
   0.4103417   41.7522985
   0.4186511   41.7521322
   0.4284522   41.7601726
   0.4357782   41.7596850
   0.4465813   41.7680040
   0.4528838   41.7672836
   0.4647289   41.7757879
   0.4683301   41.7751998
   0.4989476   41.7983781
   0.5000445   41.7982928
   0.5141327   41.8099469
   0.5158725   41.8098812
   0.5293389   41.8214901
   0.5316847   41.8214918
   0.5413118   41.8301055
   0.5420731   41.8361518
   0.5532941   41.8428941
   0.5532320   41.8528024
   0.5714159   41.8555558
   0.5730166   41.8585669
   0.5836891   41.8615889
   0.5881772   41.8701677
   0.5991060   41.8735471
   0.6019464   41.8790603
   0.5998248   41.8929696
   0.6006713   41.8942505
   0.6005796   41.9094724
   0.5991854   41.9114707
   0.6023047   41.9335566
   0.5985835   41.9435436
   0.6029159   41.9499630
   0.6060626   41.9521053
   0.6146680   41.9645304
   0.6171430   41.9660558
   0.6264422   41.9790755
   0.6281894   41.9800280
   0.6382467   41.9935918
   0.6391866   41.9940301
   0.6500898   42.0080654
   0.6598489   42.0198815
   0.6604080   42.0271729
   0.6674454   42.0353143
   0.6678116   42.0427999
   0.6750633   42.0507382
   0.6751904   42.0584406
   0.6827106   42.0661497
   0.6825370   42.0740999
   0.6903975   42.0815458
   0.6898374   42.0897843
   0.6981412   42.0969189
   0.6966860   42.1086071
   0.7013216   42.1140836
   0.6994763   42.1255073
   0.7041309   42.1330747
   0.7023903   42.1424013
   0.7068521   42.1520898
   0.7058415   42.1570252
   0.7119801   42.1704382
   0.7109668   42.1752859
   0.7171083   42.1887876
   0.7160935   42.1935452
   0.7222366   42.2071367
   0.7212204   42.2118062
   0.7273325   42.2256286
   0.7356839   42.2429513
   0.7353021   42.2440250
   0.7441836   42.2603664
   0.7417063   42.2646908
   0.7467524   42.2794242
   0.7457843   42.2811422
   0.7491880   42.2976682
   0.7499180   42.2983164
   0.7516295   42.3142977
   0.7539776   42.3169614
   0.7544838   42.3326471
   0.7515355   42.3391446
   0.7517319   42.3479266
   0.7457199   42.3547001
   0.7431960   42.3623578
   0.7372850   42.3688358
   0.7353774   42.3746143
   0.7359325   42.3776151
   0.7310647   42.3941016
   0.7276642   42.4121839
   0.7211844   42.4142022
   0.7206064   42.4275740
   0.7114843   42.4295294
   0.7144347   42.4451490
   0.7087582   42.4477908
   0.7078572   42.4639033
   0.7051280   42.4656719
   0.7018892   42.4837183
   0.7079302   42.4886658
   0.7151717   42.4992731
   0.7255571   42.5097491
   0.7267237   42.5133372
   0.7315589   42.5172190
   0.7350563   42.5300680
   0.7407083   42.5335180
   0.7431163   42.5470256
   0.7506637   42.5495925
   0.7501878   42.5634814
   0.7565688   42.5667926
   0.7531966   42.5777751
   0.7612708   42.5843270
   0.7573563   42.5917822
   0.7648992   42.6021594
   0.7586615   42.6110254
   0.7516483   42.6107631
   0.7410963   42.6203731
   0.7379137   42.6202056
   0.7237050   42.6299460
   0.7098465   42.6368779
   0.7085711   42.6424466
   0.7024372   42.6472440
   0.6973049   42.6599596
   0.6891186   42.6607451
   0.6828619   42.6733554
   0.6771409   42.6725792
   0.6679285   42.6861156
   0.6664233   42.6855418
   0.6543839   42.6953370
   0.6623830   42.6939976
   0.6693955   42.6969240
   0.6718844   42.7010558
END
END
