europe-great-britain-north
1
   -2.6436421   51.6028221
   -2.6489817   51.6002145
   -2.6579769   51.5908917
   -2.6623213   51.5887686
   -2.6723127   51.5789599
   -2.6756619   51.5773220
   -2.6866485   51.5670280
   -2.6890020   51.5658764
   -2.7009856   51.5550940
   -2.7155997   51.5479400
   -2.7232717   51.5435827
   -2.7340041   51.5397798
   -2.7547404   51.5363040
   -2.7660437   51.5324736
   -2.7714735   51.5317597
   -2.7822519   51.5280132
   -2.7882106   51.5272130
   -2.7984642   51.5235542
   -2.8049447   51.5226647
   -2.8211940   51.5167077
   -2.8305040   51.5108128
   -2.8367137   51.5086075
   -2.8474911   51.5021249
   -2.8985057   51.4847185
   -2.9031172   51.4825451
   -2.9152238   51.4789697
   -2.9217108   51.4760935
   -2.9319365   51.4731882
   -2.9396270   51.4699583
   -2.9697050   51.4719635
   -2.9980467   51.4586069
   -3.0153039   51.4498206
   -3.0322022   51.4400867
   -3.0482236   51.4280837
   -3.0627243   51.4144207
   -3.0670165   51.4063306
   -3.0706808   51.4030295
   -3.0815869   51.3880390
   -3.1160141   51.3309645
   -3.1256375   51.3115904
   -3.1378064   51.3079392
   -3.1553035   51.3043054
   -3.1870543   51.3006369
   -3.2133070   51.3003724
   -3.2771896   51.2870880
   -3.2829682   51.2865341
   -3.3020269   51.2865698
   -3.3238801   51.2871154
   -3.3592228   51.2873924
   -3.3664014   51.2881999
   -3.4004078   51.2971975
   -3.4195000   51.3003090
   -3.4299869   51.3009016
   -3.4386677   51.3022636
   -3.4479766   51.3027251
   -3.4578312   51.3042104
   -3.4659667   51.3045564
   -3.4769906   51.3061487
   -3.4839603   51.3063951
   -3.5379134   51.3119606
   -3.5692255   51.3156616
   -3.6015347   51.3214406
   -3.6177331   51.3260026
   -3.6328701   51.3314943
   -3.6703299   51.3489749
   -3.6852691   51.3535224
   -3.7040079   51.3549926
   -3.7225074   51.3579507
   -3.7407618   51.3623964
   -3.7522779   51.3661904
   -3.7674934   51.3701332
   -3.7831422   51.3731477
   -3.8040680   51.3758614
   -3.8234866   51.3797545
   -3.8431933   51.3850607
   -3.8562621   51.3890300
   -3.8680060   51.3938995
   -3.8860820   51.4026159
   -3.8953448   51.4077083
   -3.9041585   51.4055829
   -3.9547119   51.3961649
   -3.9721872   51.3939287
   -3.9904669   51.3896138
   -4.0067514   51.3877166
   -4.0250257   51.3865956
   -4.0433682   51.3864757
   -4.0543060   51.3869998
   -4.0800328   51.3858892
   -4.0962870   51.3863184
   -4.1165006   51.3819477
   -4.1346940   51.3791448
   -4.1529290   51.3773556
   -4.1653227   51.3768284
   -4.2026392   51.3713283
   -4.2224581   51.3695864
   -4.2789354   51.3679414
   -4.2976925   51.3665910
   -4.3166264   51.3643000
   -4.4489875   51.3419186
   -4.5337775   51.4315988
   -4.5385897   51.4364068
   -4.7109532   51.4208397
   -4.7659479   51.4100865
   -4.7944096   51.4029894
   -4.8068006   51.3953217
   -4.9912744   51.2713359
   -5.0078747   51.2607011
   -5.0565883   51.2309255
   -5.0798673   51.2159273
   -5.1034098   51.1999991
   -5.1272408   51.1831239
   -5.1513340   51.1653199
   -5.1756986   51.1465808
   -5.2640763   51.0760023
   -5.3806401   51.0727745
   -5.6513324   51.0334520
   -5.6684685   51.0330644
   -5.6958908   51.0310949
   -5.7972571   51.0485986
   -5.8115502   51.0512206
   -5.7515314   51.1127946
   -5.9442172   51.0802907
   -5.9850797   51.0909895
   -6.1478437   51.1360383
   -5.2929184   53.4563073
   -5.2925899   53.4566484
   -4.5404049   53.7662217
   -4.5399144   53.7662612
   -3.6977345   53.5694700
   -4.1167448   54.5259503
   -4.1166359   54.5262943
   -3.8292766   54.7004477
   -4.5299059   54.5400597
   -4.5303404   54.5400587
   -5.4105419   54.7372584
   -5.4109536   54.7374605
   -6.1539021   55.3530684
   -6.1578902   55.3550780
   -14.8613145   57.4993420
   -14.8613169   57.4994672
   -6.1717451   60.0060046
   -6.1715680   60.0060522
   -1.6377317   61.1355860
   -1.6372917   61.1356347
   -0.2786621   61.1032756
   -0.2782336   61.1031411
   0.2158512   60.7762946
   0.2160335   60.7759169
   0.0979379   59.4233764
   0.0980827   59.4206039
   0.1606022   59.0980335
   0.1605519   59.0975619
   -1.2029141   55.9063398
   -1.2032454   55.9060924
   -1.2685038   55.8985148
   1.0607481   53.9389650
   0.9936593   53.8526907
   0.9415907   53.7604203
   0.9238466   53.7280644
   0.9008895   53.6845485
   0.8869330   53.6626458
   0.8656942   53.6282743
   0.8455675   53.5946145
   0.7992262   53.5142917
   0.7841263   53.4929175
   0.6808456   53.3454229
   0.6679812   53.3262997
   0.6558130   53.3074171
   0.6207838   53.2504876
   0.6128377   53.2381116
   0.5926157   53.2079557
   0.5837782   53.1979015
   0.5564395   53.1690336
   0.5435727   53.1546550
   0.5170594   53.1226507
   0.5034753   53.1079098
   0.4895541   53.0944155
   0.4802141   53.0863904
   0.4656303   53.0720123
   0.4525064   53.0570388
   0.4409440   53.0429445
   0.4312775   53.0327249
   0.3875329   52.9917288
   0.3738631   52.9806973
   0.3511006   52.9638630
   0.3397091   52.9544353
   0.3278516   52.9410251
   0.2847384   52.9290565
   0.2729274   52.8963238
   0.2664002   52.8819221
   0.2529512   52.8410592
   0.2519678   52.8313993
   0.2644605   52.8036810
   0.2644246   52.8036649
   0.2617679   52.7956169
   0.2574192   52.7895034
   0.2572734   52.7855996
   0.2612944   52.7790768
   0.2725000   52.7737329
   0.2722811   52.7717559
   0.2328889   52.7589464
   0.1866626   52.7344705
   0.1705527   52.7381376
   0.1528625   52.7371474
   0.1434615   52.7386549
   0.1286813   52.7368127
   0.1137741   52.7289830
   0.1025414   52.7293134
   0.0967366   52.7276700
   0.0887975   52.7226451
   0.0674537   52.7255849
   0.0633769   52.7253036
   0.0513862   52.7192922
   0.0468507   52.7144422
   0.0460325   52.7097248
   0.0468881   52.6959891
   0.0501268   52.6896402
   0.0494688   52.6810838
   0.0209239   52.6637549
   -0.0308831   52.6605348
   -0.0371285   52.6658379
   -0.0566404   52.6721747
   -0.0615084   52.6725042
   -0.0654556   52.6709542
   -0.0874920   52.6658226
   -0.0919424   52.6660523
   -0.0992323   52.6690767
   -0.1073534   52.6688735
   -0.1359967   52.6552735
   -0.1407954   52.6505627
   -0.1748748   52.6583327
   -0.1813811   52.6576213
   -0.1895777   52.6518340
   -0.1932681   52.6515319
   -0.2035610   52.6628000
   -0.2074811   52.6654406
   -0.2121761   52.6659858
   -0.2252678   52.6640657
   -0.2604734   52.6504740
   -0.2746711   52.6592387
   -0.2798541   52.6644085
   -0.2914659   52.6685178
   -0.2949574   52.6683906
   -0.3163709   52.6733726
   -0.3272174   52.6728109
   -0.3320770   52.6709563
   -0.3359555   52.6676197
   -0.3496734   52.6607568
   -0.3569343   52.6584889
   -0.3687283   52.6580806
   -0.3773879   52.6546447
   -0.3908888   52.6531315
   -0.3998624   52.6485791
   -0.4056406   52.6470390
   -0.4178459   52.6457769
   -0.4267238   52.6475927
   -0.4322104   52.6472808
   -0.4406561   52.6507760
   -0.4453057   52.6516913
   -0.4527674   52.6483223
   -0.4669559   52.6481891
   -0.4734647   52.6457074
   -0.4771231   52.6400981
   -0.4762718   52.6326701
   -0.4700562   52.6239676
   -0.4701010   52.6175157
   -0.4792427   52.6075577
   -0.4803706   52.6020638
   -0.4859853   52.5949452
   -0.4880932   52.5896496
   -0.4877002   52.5858404
   -0.4829688   52.5799991
   -0.4745919   52.5763104
   -0.4705336   52.5761243
   -0.4255637   52.5833227
   -0.4195193   52.5820706
   -0.4143568   52.5788586
   -0.4062808   52.5655294
   -0.4083433   52.5576146
   -0.4061049   52.5524202
   -0.4009721   52.5481139
   -0.4003793   52.5393463
   -0.4021682   52.5287229
   -0.4000010   52.5243449
   -0.3960184   52.5215160
   -0.3901225   52.5202249
   -0.3603346   52.5078772
   -0.3539444   52.5073770
   -0.3513334   52.5037710
   -0.3552067   52.4973946
   -0.3537903   52.4900811
   -0.3416604   52.4699034
   -0.3406931   52.4666056
   -0.3517860   52.4600905
   -0.3619067   52.4464743
   -0.3640799   52.4402296
   -0.3619108   52.4327659
   -0.4004451   52.4145956
   -0.4077249   52.4127434
   -0.4120003   52.4104795
   -0.4155211   52.4028376
   -0.4361568   52.3875771
   -0.4435389   52.3829130
   -0.4853047   52.3740764
   -0.4920872   52.3689445
   -0.4930366   52.3623115
   -0.4879662   52.3554830
   -0.4769112   52.3495332
   -0.4762752   52.3463212
   -0.4719769   52.3412034
   -0.4659260   52.3395691
   -0.4638514   52.3305035
   -0.4645709   52.3227663
   -0.4764959   52.3170710
   -0.5059594   52.3172049
   -0.5131810   52.3141695
   -0.5307492   52.2960673
   -0.5328298   52.2928861
   -0.5334012   52.2872566
   -0.5302407   52.2703661
   -0.5342232   52.2673827
   -0.5396094   52.2562960
   -0.5432374   52.2550085
   -0.5522421   52.2564572
   -0.5573604   52.2559404
   -0.5663727   52.2527835
   -0.5760323   52.2618556
   -0.5815670   52.2644803
   -0.5883025   52.2695970
   -0.5912952   52.2731873
   -0.6007905   52.2769634
   -0.6054666   52.2774068
   -0.6217544   52.2750692
   -0.6252724   52.2738661
   -0.6309770   52.2692554
   -0.6382615   52.2709227
   -0.6439322   52.2695912
   -0.6484187   52.2657890
   -0.6498494   52.2621038
   -0.6486047   52.2539296
   -0.6422847   52.2391716
   -0.6364894   52.2274213
   -0.6489247   52.2191991
   -0.6602362   52.2079257
   -0.6667701   52.1985145
   -0.6676968   52.1941708
   -0.6987587   52.1925061
   -0.7034915   52.1910224
   -0.7187559   52.1815750
   -0.7386585   52.1702831
   -0.7617068   52.1625049
   -0.7644233   52.1658500
   -0.7688633   52.1679794
   -0.7737812   52.1677315
   -0.7802286   52.1619054
   -0.7901381   52.1511611
   -0.7924673   52.1503944
   -0.8016386   52.1526968
   -0.8080202   52.1489205
   -0.8137065   52.1415621
   -0.8195136   52.1411414
   -0.8236304   52.1384265
   -0.8262346   52.1313802
   -0.8515526   52.1284991
   -0.8581577   52.1301179
   -0.8690802   52.1284489
   -0.8736927   52.1234704
   -0.8743015   52.1176538
   -0.8715531   52.1124914
   -0.8583885   52.0993423
   -0.8458335   52.0920089
   -0.8344679   52.0803355
   -0.8337982   52.0764719
   -0.8304770   52.0720472
   -0.8325880   52.0681675
   -0.8388732   52.0630848
   -0.8469909   52.0609455
   -0.8515075   52.0550140
   -0.8516280   52.0501843
   -0.8591479   52.0436025
   -0.8769472   52.0291640
   -0.8830891   52.0272436
   -0.8872396   52.0289034
   -0.8928157   52.0286326
   -0.8978510   52.0263615
   -0.9057243   52.0202941
   -0.9091740   52.0216463
   -0.9162688   52.0297792
   -0.9247120   52.0351227
   -0.9310531   52.0426314
   -0.9424784   52.0636946
   -0.9476422   52.0750644
   -0.9515946   52.0778674
   -0.9583102   52.0780661
   -0.9624214   52.0755016
   -0.9678196   52.0699340
   -0.9760614   52.0709288
   -0.9848305   52.0687575
   -1.0192068   52.0708323
   -1.0226174   52.0690988
   -1.0271676   52.0630057
   -1.0314944   52.0620244
   -1.0369566   52.0640169
   -1.0410257   52.0639188
   -1.0525950   52.0587875
   -1.0588758   52.0604319
   -1.0660747   52.0597983
   -1.0830135   52.0514627
   -1.0991877   52.0475563
   -1.1167375   52.0452030
   -1.1233516   52.0413668
   -1.1302148   52.0316581
   -1.1298482   52.0238783
   -1.1266715   52.0200845
   -1.1195120   52.0179483
   -1.1171005   52.0153398
   -1.1334175   51.9968342
   -1.1451422   51.9954971
   -1.1562105   51.9913650
   -1.1635560   51.9910662
   -1.1660949   51.9896906
   -1.1752541   51.9814236
   -1.1876482   51.9805601
   -1.1961256   51.9765266
   -1.2294565   51.9803354
   -1.2396692   51.9842844
   -1.2439744   51.9849546
   -1.2505873   51.9840221
   -1.2605077   51.9800287
   -1.2700044   51.9816976
   -1.2763379   51.9815627
   -1.2840221   51.9787598
   -1.2898495   51.9897459
   -1.2856436   51.9949198
   -1.2834553   52.0029156
   -1.2854937   52.0110693
   -1.2843147   52.0171285
   -1.2860440   52.0220443
   -1.2904848   52.0261992
   -1.2951978   52.0275678
   -1.2940744   52.0336435
   -1.2963270   52.0393357
   -1.3013103   52.0440441
   -1.3080671   52.0464818
   -1.3138602   52.0510720
   -1.3088703   52.0597589
   -1.3077742   52.0701946
   -1.3106919   52.0761442
   -1.3213751   52.0812759
   -1.3218507   52.0876066
   -1.3167685   52.0908181
   -1.3077491   52.0933055
   -1.2806276   52.0975440
   -1.2770268   52.0988491
   -1.2731772   52.1030537
   -1.2721760   52.1077184
   -1.2745481   52.1138957
   -1.3089687   52.1426733
   -1.3225987   52.1570044
   -1.3278715   52.1594037
   -1.3359641   52.1574980
   -1.3388542   52.1547702
   -1.3406811   52.1491481
   -1.3400668   52.1447370
   -1.3447925   52.1419410
   -1.3479471   52.1345510
   -1.3624793   52.1338322
   -1.3671232   52.1324279
   -1.3710233   52.1281403
   -1.3719827   52.1233845
   -1.3693980   52.1162101
   -1.3582757   52.1057047
   -1.3571472   52.1005796
   -1.3705833   52.0989462
   -1.3774053   52.0951010
   -1.3857235   52.0932134
   -1.3903039   52.0977127
   -1.4026062   52.1048176
   -1.4054676   52.1091147
   -1.4170306   52.1153757
   -1.4241548   52.1170566
   -1.4387690   52.1149689
   -1.4439266   52.1124349
   -1.4470225   52.1065271
   -1.4469552   52.0967617
   -1.4674001   52.0960778
   -1.4713440   52.0968282
   -1.4767475   52.0952949
   -1.4831117   52.0901457
   -1.4880043   52.0842957
   -1.4898340   52.0766341
   -1.4966709   52.0692903
   -1.4973612   52.0653131
   -1.4965338   52.0583450
   -1.5058943   52.0369451
   -1.5101406   52.0209570
   -1.5190655   52.0073310
   -1.5217917   51.9969678
   -1.5240501   51.9927755
   -1.5282321   51.9908380
   -1.5379370   51.9939652
   -1.5445449   51.9925504
   -1.5474016   51.9898755
   -1.5491874   51.9853402
   -1.5494022   51.9799598
   -1.5797724   51.9721837
   -1.5853726   51.9725155
   -1.5900067   51.9705596
   -1.5962421   51.9638019
   -1.6131122   51.9548275
   -1.6180027   51.9568605
   -1.6285922   51.9678356
   -1.6395536   51.9746425
   -1.6696572   51.9883237
   -1.6707185   51.9930169
   -1.6657074   51.9985248
   -1.6488609   52.0073249
   -1.6442558   52.0123528
   -1.6407803   52.0212692
   -1.6411989   52.0261525
   -1.6438877   52.0302504
   -1.6511465   52.0328704
   -1.6562011   52.0312111
   -1.6641361   52.0303323
   -1.6695739   52.0348404
   -1.6873961   52.0365001
   -1.6940776   52.0385152
   -1.6974453   52.0510179
   -1.7060942   52.0593769
   -1.7078487   52.0624349
   -1.7125504   52.0655652
   -1.7292144   52.0707396
   -1.7316489   52.0734527
   -1.7299265   52.0813231
   -1.7310434   52.0851368
   -1.7370717   52.0900699
   -1.7473577   52.0923778
   -1.7541724   52.0969305
   -1.7607095   52.1055163
   -1.7678409   52.1092382
   -1.7717008   52.1095909
   -1.7824969   52.1064623
   -1.7868645   52.1037268
   -1.7907694   52.0986629
   -1.7957607   52.0984665
   -1.8004214   52.0964204
   -1.8063067   52.0900580
   -1.8121732   52.0776831
   -1.8169980   52.0789777
   -1.8243338   52.0774400
   -1.8314160   52.0716925
   -1.8440976   52.0755403
   -1.8488923   52.0741341
   -1.8556793   52.0701795
   -1.8591889   52.0669433
   -1.8607982   52.0624487
   -1.8590646   52.0555358
   -1.8555255   52.0522300
   -1.8462192   52.0475027
   -1.8339828   52.0446519
   -1.8286425   52.0395446
   -1.8263713   52.0338307
   -1.8240058   52.0315854
   -1.8253508   52.0282669
   -1.8321531   52.0220385
   -1.8332195   52.0191636
   -1.8343131   52.0086511
   -1.8390632   52.0055815
   -1.8483764   52.0064939
   -1.8620427   52.0115922
   -1.8751238   52.0233058
   -1.9063927   52.0391697
   -1.9147861   52.0394730
   -1.9208716   52.0350251
   -1.9288797   52.0317142
   -1.9315104   52.0287540
   -1.9380963   52.0304710
   -1.9474771   52.0305880
   -1.9531322   52.0346277
   -1.9580838   52.0356984
   -1.9794274   52.0347773
   -1.9851267   52.0326871
   -1.9942628   52.0256135
   -2.0026450   52.0254213
   -2.0157941   52.0193509
   -2.0228665   52.0142189
   -2.0263126   52.0095813
   -2.0323878   52.0082114
   -2.0389294   52.0032063
   -2.0498958   52.0026219
   -2.0522090   52.0055059
   -2.0635185   52.0108481
   -2.0686030   52.0114631
   -2.0852092   52.0092161
   -2.1115957   52.0132156
   -2.1192968   52.0115301
   -2.1301671   52.0041026
   -2.1344142   51.9988122
   -2.1406846   51.9982170
   -2.1462560   52.0034220
   -2.1509524   52.0054119
   -2.1557870   52.0053546
   -2.1607146   52.0023403
   -2.1643634   51.9948488
   -2.1699004   51.9934225
   -2.1792580   51.9930830
   -2.1851565   51.9893389
   -2.1978363   51.9933992
   -2.2091282   51.9948159
   -2.2201017   51.9931721
   -2.2229819   51.9917883
   -2.2344988   51.9831801
   -2.2426006   51.9725398
   -2.2512555   51.9654320
   -2.2816389   51.9692384
   -2.2908156   51.9686674
   -2.2998690   51.9656823
   -2.3100081   51.9695387
   -2.3141553   51.9736842
   -2.3190957   51.9748837
   -2.3272498   51.9747424
   -2.3280546   51.9767383
   -2.3240138   51.9834079
   -2.3231431   51.9909673
   -2.3259669   51.9996092
   -2.3296866   52.0043130
   -2.3344146   52.0060035
   -2.3410246   52.0055968
   -2.3534283   52.0128908
   -2.3605155   52.0183135
   -2.3644258   52.0183523
   -2.3862442   52.0142265
   -2.3928436   52.0097366
   -2.3947952   52.0041670
   -2.3993137   51.9964763
   -2.4369318   51.9974711
   -2.4358546   52.0040191
   -2.4368112   52.0088402
   -2.4399493   52.0126233
   -2.4455000   52.0145372
   -2.4643430   52.0151919
   -2.4692682   52.0196100
   -2.4740643   52.0203303
   -2.4794239   52.0181286
   -2.4851570   52.0102761
   -2.4851321   52.0044038
   -2.4818151   51.9995579
   -2.4713267   51.9947556
   -2.4892234   51.9840345
   -2.4921101   51.9814216
   -2.4940736   51.9749904
   -2.4930501   51.9676262
   -2.4892728   51.9611569
   -2.4849297   51.9592255
   -2.4690711   51.9563646
   -2.4638470   51.9441500
   -2.4634509   51.9394524
   -2.4651264   51.9327781
   -2.4615296   51.9260988
   -2.4488676   51.9189404
   -2.4375401   51.8988831
   -2.4657536   51.8921367
   -2.4690882   51.8906548
   -2.4748047   51.8854102
   -2.4811336   51.8849128
   -2.4884899   51.8807607
   -2.4939810   51.8803314
   -2.4983491   51.8820946
   -2.5043988   51.8823095
   -2.5098151   51.8804188
   -2.5138086   51.8739937
   -2.5127958   51.8676511
   -2.5170496   51.8620549
   -2.5340569   51.8584029
   -2.5396904   51.8605840
   -2.5668494   51.8623398
   -2.5713896   51.8618325
   -2.5779201   51.8565108
   -2.5789189   51.8517758
   -2.5825399   51.8496137
   -2.5963028   51.8543944
   -2.6000756   51.8549360
   -2.6054302   51.8530612
   -2.6241475   51.8395739
   -2.6346007   51.8406867
   -2.6394570   51.8395474
   -2.6465407   51.8328197
   -2.6480355   51.8290641
   -2.6480543   51.8219898
   -2.6545891   51.8184602
   -2.6567058   51.8142321
   -2.6575160   51.8084789
   -2.6649009   51.8045705
   -2.6671926   51.8002770
   -2.6668694   51.7939962
   -2.6733021   51.7727646
   -2.6734398   51.7689250
   -2.6702825   51.7630867
   -2.6598268   51.7532913
   -2.6699564   51.7344008
   -2.6762550   51.7295675
   -2.6775659   51.7247603
   -2.6768396   51.7181168
   -2.6749632   51.7145877
   -2.6657820   51.7069084
   -2.6686950   51.6980953
   -2.6650161   51.6846135
   -2.6616691   51.6808869
   -2.6577411   51.6792603
   -2.6540502   51.6750864
   -2.6626390   51.6673518
   -2.6641763   51.6592647
   -2.6665695   51.6557153
   -2.6672163   51.6508877
   -2.6630019   51.6416891
   -2.6635619   51.6355075
   -2.6606497   51.6304180
   -2.6548931   51.6250173
   -2.6474568   51.6305354
   -2.6341317   51.6133307
   -2.6436421   51.6028221
END
!2
   0.2578072   52.8006902
   0.2546238   52.8018430
   0.2543270   52.7991258
   0.2578072   52.8006902
END
!3
   -3.3152087   54.9653816
   -3.2973101   54.9662431
   -3.3064541   54.9693362
   -3.3152087   54.9653816
END
END
