europe-norway-south
1
   8.8032771   63.4029892
   8.8048469   63.4020356
   8.8674843   63.3714743
   8.9146162   63.3569110
   8.9050444   63.3484490
   8.8730527   63.3305528
   8.8697456   63.3254777
   8.8660336   63.3101284
   8.8666162   63.2949341
   8.8342833   63.2716606
   8.8311889   63.2680323
   8.8301884   63.2624229
   8.8337753   63.2558194
   8.8634033   63.2314651
   8.8622797   63.2194097
   8.8465482   63.2100082
   8.8562061   63.2102095
   8.8562441   63.2084237
   8.8445548   63.2029377
   8.8407995   63.2025899
   8.8368568   63.2069042
   8.8231989   63.2001894
   8.8173535   63.2052667
   8.8046863   63.1988340
   8.7978512   63.2035892
   8.7861691   63.1975133
   8.7783496   63.2018847
   8.7676497   63.1962166
   8.7588491   63.2001615
   8.7502978   63.1955650
   8.7393183   63.1995769
   8.7324583   63.1952763
   8.7197914   63.1988457
   8.7146158   63.1951341
   8.7002675   63.1979669
   8.6967697   63.1951400
   8.6807480   63.1969405
   8.6789199   63.1952953
   8.6612325   63.1957647
   8.6589187   63.1934681
   8.6417393   63.1937416
   8.6392952   63.1916084
   8.6222456   63.1917391
   8.6196749   63.1897335
   8.5997280   63.1897547
   8.5944063   63.1930364
   8.5870551   63.1881739
   8.5813932   63.1804129
   8.5768579   63.1796914
   8.5650068   63.1695620
   8.5577187   63.1695620
   8.5450968   63.1541736
   8.5414231   63.1545385
   8.5349450   63.1524207
   8.5234084   63.1540501
   8.5156473   63.1515957
   8.5053983   63.1535415
   8.4963508   63.1507935
   8.4873907   63.1530067
   8.4770549   63.1500208
   8.4693857   63.1524376
   8.4577630   63.1492877
   8.4513880   63.1518227
   8.4384726   63.1486060
   8.4333975   63.1511428
   8.4191851   63.1479967
   8.4141644   63.1511579
   8.4000101   63.1497709
   8.3977049   63.1514849
   8.3808367   63.1515818
   8.3617018   63.1542066
   8.3462606   63.1585937
   8.3389484   63.1592700
   8.3232480   63.1555441
   8.3167924   63.1583754
   8.3039647   63.1550131
   8.2974064   63.1581681
   8.2846794   63.1544488
   8.2780158   63.1580011
   8.2653919   63.1538400
   8.2586209   63.1578907
   8.2461015   63.1531671
   8.2392192   63.1578624
   8.2210241   63.1498529
   8.2101376   63.1462039
   8.2012481   63.1479459
   8.1945463   63.1437850
   8.1805982   63.1437850
   8.1744733   63.1392355
   8.1624833   63.1365768
   8.1608383   63.1351745
   8.1444227   63.1289017
   8.1356455   63.1207391
   8.1442470   63.1027448
   8.1586045   63.0898045
   8.1672427   63.0759714
   8.1703831   63.0670814
   8.1754390   63.0633215
   8.1815305   63.0608650
   8.1924462   63.0533028
   8.1991860   63.0456491
   8.2065596   63.0311123
   8.2225414   63.0214012
   8.2298810   63.0235430
   8.2395765   63.0166131
   8.2480786   63.0190838
   8.2495189   63.0236841
   8.2588443   63.0221779
   8.2624974   63.0244485
   8.2750286   63.0273217
   8.3011238   63.0431900
   8.4832632   63.0841356
   8.5013443   63.0630789
   8.5043929   63.0606486
   8.5100978   63.0595957
   8.6559882   63.0759711
   8.6583919   63.0765484
   8.7504802   63.1111712
   8.8020775   63.1273760
   8.8344817   63.1264657
   8.9701324   63.1342664
   8.9812104   63.1251323
   8.9885070   63.1133416
   9.0003171   63.1019161
   8.9789367   63.0960256
   8.9740938   63.0930003
   8.9716040   63.0868576
   8.9747163   63.0789149
   8.9795393   63.0759035
   8.9833478   63.0756070
   9.0221212   63.0800655
   9.0248783   63.0807916
   9.0505970   63.0915633
   9.0844024   63.0905009
   9.1207897   63.0284192
   9.1276628   63.0236309
   9.1586599   63.0179497
   9.1822597   62.9932592
   9.1823065   62.9928656
   9.1552684   62.9463173
   9.1539334   62.9406978
   9.1565532   62.9345273
   9.1624816   62.9313979
   9.2038956   62.9255185
   9.2668461   62.9262074
   9.3086418   62.9053336
   9.3745270   62.7936669
   9.3744078   62.7934023
   9.1284601   62.7459576
   8.9888156   62.7415031
   8.9850104   62.7406191
   8.9398863   62.7202051
   8.9346745   62.7146837
   8.9342425   62.7089416
   8.9394107   62.7022135
   9.0127388   62.6642526
   9.0811641   62.6255572
   9.1107100   62.6066552
   9.1136865   62.6053736
   9.2660415   62.5674693
   9.2661334   62.5672127
   9.1911662   62.4662825
   9.1893071   62.4618194
   9.1911184   62.4544220
   9.1994915   62.4472469
   9.1756645   62.4038161
   9.1123486   62.3828851
   9.1089655   62.3809711
   9.1058592   62.3760921
   9.1063202   62.3693951
   9.1092713   62.3655572
   9.1136792   62.3635553
   9.3608240   62.3181192
   9.4893228   62.2917855
   9.5167119   62.2780716
   9.5995486   62.2568132
   9.6043384   62.2567684
   9.7156089   62.2831143
   9.7844799   62.2882358
   9.8084604   62.2935015
   9.8115362   62.2947566
   9.8265831   62.3040708
   9.8303499   62.3074064
   9.8328069   62.3137826
   9.8328225   62.3233775
   9.8311390   62.3335292
   9.8271917   62.3399540
   9.8205744   62.3427749
   9.8389239   62.3629575
   9.8972898   62.3457397
   9.9031657   62.3458065
   9.9303431   62.3544994
   9.9353621   62.3581124
   9.9502720   62.3784548
   9.9521720   62.3851955
   9.9513860   62.3975296
   10.0807360   62.4247242
   10.0864069   62.4281641
   10.0885139   62.4363174
   10.0865501   62.4406778
   10.0378116   62.5028821
   10.0201203   62.5299245
   10.0049549   62.5579874
   10.0201445   62.5633867
   10.0257925   62.5682165
   10.0268957   62.5737408
   10.0260435   62.5858752
   10.0460037   62.5966447
   10.0563194   62.6004717
   10.0678840   62.6016673
   10.0724704   62.6033394
   10.0757188   62.6069836
   10.0855941   62.6257814
   10.1079932   62.6535954
   10.1188385   62.6646345
   10.1435965   62.6877960
   10.1761351   62.6972745
   10.1867392   62.6954090
   10.2070807   62.6927868
   10.2387472   62.6954805
   10.3255430   62.6956728
   10.4602906   62.6817172
   10.5923882   62.6642980
   10.5984255   62.6644739
   10.6490134   62.6769193
   10.6734024   62.6754127
   10.7121877   62.6663443
   10.7168675   62.6553746
   10.7204950   62.6508856
   10.7240624   62.6493636
   10.7389240   62.6466615
   10.7435007   62.6482253
   10.7915397   62.6792542
   10.8245982   62.6885922
   10.8515311   62.6932742
   10.9287973   62.6966195
   11.0431993   62.6674596
   11.0450276   62.6671704
   11.1247458   62.6620451
   11.1280978   62.6570416
   11.1369516   62.6524692
   11.1612664   62.6477177
   11.1660430   62.6235676
   11.1704686   62.6170007
   11.1875063   62.6060636
   11.1971746   62.5942694
   11.2021977   62.5789559
   11.2056512   62.5740722
   11.2112743   62.5720333
   11.2330676   62.5710707
   11.2446997   62.5669246
   11.2525653   62.5521717
   11.2494881   62.5467385
   11.2499887   62.5408556
   11.2560978   62.5338747
   11.2614994   62.5321577
   11.2860507   62.5316044
   11.3394010   62.5168179
   11.3699949   62.4951883
   11.3734483   62.4936188
   11.4292307   62.4802203
   11.4469823   62.4707234
   11.4600878   62.4595432
   11.4966715   62.4374136
   11.5532258   62.3756547
   11.5556280   62.3737323
   11.5615725   62.3724555
   11.6724098   62.3832765
   11.7054542   62.3570532
   11.7117203   62.3548615
   11.7163655   62.3560157
   11.7633065   62.3807649
   11.7726733   62.3848849
   11.7890550   62.3796494
   11.9819988   62.3608406
   12.0153299   62.3539725
   12.0505029   62.3489127
   12.0655314   62.3442783
   12.0767600   62.3349961
   12.0803064   62.3331109
   12.1383448   62.3160184
   12.1435288   62.3158932
   12.1914640   62.3275288
   12.2083391   62.3314563
   12.2184753   62.3309692
   12.2421708   62.3309003
   12.2641240   62.3312582
   12.3092373   62.2666046
   12.3093090   62.2661609
   12.1518485   61.7358561
   12.1518418   61.7301859
   12.1564835   61.7243215
   12.4194690   61.5744511
   12.4247183   61.5731437
   12.5719561   61.5775330
   12.5723797   61.5774030
   12.8805059   61.3549473
   12.8806206   61.3545647
   12.8418656   61.2525888
   12.7971034   61.1897320
   12.7187806   61.1387322
   12.7147746   61.1335859
   12.6865476   61.0509871
   12.6862341   61.0507157
   12.6099410   61.0364379
   12.4496538   61.0411727
   12.4478169   61.0410575
   12.2590774   61.0116090
   12.2525836   61.0076810
   12.2509259   61.0041866
   12.2515411   60.9975345
   12.2531321   60.9950994
   12.3410966   60.8957533
   12.3442354   60.8568274
   12.3453094   60.8530289
   12.4020330   60.7425217
   12.4047786   60.7392037
   12.5184393   60.6505366
   12.5267531   60.6094749
   12.5304320   60.6035196
   12.5890090   60.5580715
   12.6160881   60.5162370
   12.6151919   60.4022574
   12.6149964   60.4018559
   12.5150868   60.3223048
   12.5114915   60.3163486
   12.5118226   60.3113384
   12.5515622   60.1913251
   12.5515273   60.1908695
   12.4879157   60.0664059
   12.4875713   60.0659914
   12.3464625   59.9572437
   12.3459967   59.9569919
   12.2366136   59.9189378
   12.2344544   59.9178807
   12.1762603   59.8801036
   12.1758432   59.8799729
   12.0519952   59.8760989
   11.9859318   59.8892170
   11.9799026   59.8885437
   11.8861627   59.8467492
   11.8829533   59.8444700
   11.8803639   59.8392174
   11.8821640   59.8317115
   11.8850679   59.8290541
   11.9345170   59.7992125
   11.9347611   59.7988565
   11.9532971   59.6935934
   11.9530961   59.6933098
   11.8972683   59.6841029
   11.8909638   59.6803262
   11.8594525   59.6392856
   11.8590793   59.6390610
   11.7286615   59.6170120
   11.7228161   59.6137523
   11.7066873   59.5953950
   11.7045004   59.5912285
   11.7054926   59.5838766
   11.7624974   59.4829525
   11.7885660   59.3932896
   11.7904500   59.3897187
   11.8260598   59.3462682
   11.8396574   59.2406631
   11.8394913   59.2402499
   11.7957517   59.2050001
   11.7922115   59.1991278
   11.7773571   59.1229513
   11.7786560   59.1157957
   11.7905864   59.0959619
   11.7208514   59.0284206
   11.7181872   59.0239630
   11.6978308   58.9521045
   11.6593269   58.8994604
   11.6589388   58.8992003
   11.5731739   58.8779728
   11.5608930   58.8843165
   11.5529953   58.8849660
   11.5495025   58.8829240
   11.5326918   58.8680638
   11.4494412   58.8827375
   11.4491939   58.8830249
   11.4465763   58.9883269
   11.4437995   58.9949973
   11.3427961   59.1003990
   11.3395267   59.1026667
   11.3336412   59.1032913
   11.1634933   59.0697381
   11.1567274   59.0648563
   11.1248105   59.0087346
   11.0701315   58.9681842
   11.0696396   58.9679660
   10.6516933   58.8845248
   10.6480156   58.8829790
   10.6443266   58.8783312
   10.5952714   58.7517260
   10.5949570   58.7513703
   10.4190476   58.6569322
   10.4185625   58.6567895
   9.8367258   58.6104650
   9.8329096   58.6093706
   9.8292219   58.6060778
   9.8277333   58.5984396
   9.8293048   58.5947939
   9.8339547   58.5911535
   10.1041080   58.4880785
   10.1041212   58.4878725
   9.0745548   57.9351708
   9.0741598   57.9350200
   7.6227722   57.5845160
   7.6222193   57.5844781
   6.0328898   57.7443250
   6.0262830   57.7426560
   6.0235153   57.7398415
   5.9527491   57.6314346
   5.9523529   57.6312283
   4.9679373   57.6630823
   4.9675179   57.6632424
   4.1941660   58.3107925
   4.1938510   58.3111942
   2.3291891   62.1088079
   2.3292627   62.1091970
   5.6266442   65.1234520
   5.6270398   65.1234890
   6.8050478   64.3947258
   7.3856879   64.7008924
   7.4337499   64.6142282
   7.4675408   64.5541782
   7.5007369   64.4960795
   7.5333450   64.4399176
   7.7612803   64.0538976
   8.0104326   63.7396880
   8.0272006   63.7198435
   8.0439591   63.7013127
   8.0607083   63.6840954
   8.1247078   63.6232936
   8.1377780   63.6120533
   8.1863653   63.5744610
   8.1880810   63.5523447
   8.1886779   63.5097546
   8.1893658   63.5020847
   8.1962684   63.4864812
   8.2287941   63.4295723
   8.2306691   63.4272096
   8.2659749   63.3627042
   8.2704665   63.3624349
   8.3127074   63.3571184
   8.3272800   63.3554813
   8.3415999   63.3582681
   8.3593758   63.3553484
   8.3723419   63.3567956
   8.4365103   63.3577221
   8.4582493   63.3625248
   8.4886357   63.3671755
   8.4961337   63.3689421
   8.5178511   63.3708151
   8.5685451   63.3823298
   8.5701753   63.3853303
   8.5833711   63.4033542
   8.5875855   63.4074816
   8.6211259   63.4312359
   8.6384696   63.4375344
   8.6412054   63.4376463
   8.6559695   63.4423369
   8.6782888   63.4471168
   8.6875868   63.4456088
   8.6984035   63.4469074
   8.7041798   63.4458095
   8.7179490   63.4465420
   8.7275515   63.4492025
   8.7344289   63.4492618
   8.7450632   63.4523286
   8.7532973   63.4524518
   8.7625715   63.4554398
   8.7696929   63.4556001
   8.7769851   63.4274019
   8.7720610   63.4261273
   8.8032771   63.4029892
END
2
   2.3462827   72.2076549
   2.3952027   72.3069235
   3.2525013   72.1537593
   3.6657025   71.4086843
   1.7185804   71.2461263
   1.7790047   71.3385465
   2.3462827   72.2076549
END
END
