europe-italy-north
1
   6.6029367   45.1295047
   6.9585212   45.2102746
   6.9590924   45.2104222
   7.1127532   45.2550005
   7.1136755   45.2553176
   7.1145626   45.2557231
   7.1154060   45.2562130
   7.1161976   45.2567828
   7.1169299   45.2574270
   7.1175960   45.2581394
   7.1181895   45.2589133
   7.1187048   45.2597414
   7.1191370   45.2606158
   7.1194820   45.2615281
   7.1197364   45.2624696
   7.1198980   45.2634315
   7.1199650   45.2644045
   7.1199369   45.2653794
   7.1198140   45.2663470
   7.1195974   45.2672980
   7.1023927   45.3288144
   7.1023381   45.3290566
   7.1024973   45.3292471
   7.1454276   45.3755930
   7.1460512   45.3763354
   7.1466000   45.3771346
   7.1470688   45.3779832
   7.1474532   45.3788733
   7.1477496   45.3797963
   7.1479552   45.3807438
   7.1480681   45.3817067
   7.1480873   45.3826760
   7.1480125   45.3836426
   7.1478444   45.3845974
   7.1475847   45.3855315
   7.1472357   45.3864360
   7.1468008   45.3873025
   7.1462841   45.3881228
   7.1456903   45.3888891
   7.1450251   45.3895944
   7.1442947   45.3902320
   7.1435060   45.3907958
   6.9963186   45.4855905
   6.9961132   45.4857383
   6.9960314   45.4859777
   6.9566950   45.6240469
   6.9563743   45.6249912
   6.9559611   45.6258988
   6.9554596   45.6267607
   6.9548747   45.6275684
   6.9542123   45.6283139
   6.9534790   45.6289896
   6.9526820   45.6295890
   6.9518292   45.6301060
   6.9509292   45.6305355
   6.8386334   45.6774026
   6.8384305   45.6774983
   6.8382901   45.6776732
   6.8037724   45.7249210
   6.8036385   45.7251246
   6.8035931   45.7253641
   6.7892399   45.8285636
   6.7892191   45.8287929
   6.7894293   45.8288869
   7.0409650   45.9271858
   7.0412054   45.9272657
   7.0414384   45.9271662
   7.0687765   45.9137768
   7.0690068   45.9136484
   7.0692049   45.9134743
   7.1080472   45.8755022
   7.1087731   45.8748583
   7.1095579   45.8742879
   7.1103944   45.8737962
   7.1112746   45.8733879
   7.1121902   45.8730668
   7.1131326   45.8728360
   7.1140929   45.8726976
   7.1150621   45.8726529
   7.1160311   45.8727023
   7.1169908   45.8728454
   7.1179321   45.8730809
   7.2931101   45.9260513
   7.2933009   45.9261049
   7.5540476   45.9937940
   7.5543026   45.9938460
   7.5545612   45.9938165
   7.8404501   45.9458067
   7.8414073   45.9456930
   7.8423709   45.9456721
   7.8433321   45.9457440
   7.8442819   45.9459081
   7.8452115   45.9461629
   7.8461122   45.9465061
   7.8469758   45.9469343
   7.8477940   45.9474437
   7.8485595   45.9480295
   7.8492650   45.9486863
   7.9003795   46.0010923
   7.9005478   46.0012494
   7.9007769   46.0012714
   7.9822289   46.0052316
   7.9831911   46.0053252
   7.9841398   46.0055113
   7.9850661   46.0057880
   7.9859614   46.0061530
   7.9868172   46.0066027
   7.9876256   46.0071329
   7.9883790   46.0077387
   7.9890704   46.0084145
   7.9896933   46.0091538
   7.9902419   46.0099499
   7.9907111   46.0107952
   7.9910965   46.0116818
   8.0247404   46.1006237
   8.0248353   46.1008421
   8.0250345   46.1009727
   8.1474228   46.1729802
   8.1482439   46.1735193
   8.1490081   46.1741364
   8.1497082   46.1748254
   8.1503372   46.1755798
   8.1508893   46.1763923
   8.1513589   46.1772550
   8.1517417   46.1781596
   8.1520338   46.1790974
   8.1522325   46.1800594
   8.1523359   46.1810362
   8.1523430   46.1820184
   8.1522537   46.1829966
   8.1520688   46.1839613
   8.1517902   46.1849032
   8.1514205   46.1858133
   8.1509633   46.1866826
   8.1504230   46.1875030
   8.1498049   46.1882663
   8.1491148   46.1889654
   8.0689568   46.2625594
   8.0687904   46.2627284
   8.0689816   46.2628688
   8.1354875   46.3067074
   8.1359659   46.3069860
   8.2864462   46.3837918
   8.2873166   46.3842927
   8.2881324   46.3848783
   8.2888853   46.3855428
   8.2895678   46.3862795
   8.2901729   46.3870809
   8.2906947   46.3879389
   8.2911277   46.3888450
   8.2914677   46.3897899
   8.2917112   46.3907641
   8.2918558   46.3917579
   8.2918999   46.3927611
   8.2918432   46.3937637
   8.2916863   46.3947556
   8.2914307   46.3957267
   8.2910789   46.3966673
   8.2906346   46.3975679
   8.2901022   46.3984194
   8.2894871   46.3992131
   8.2769809   46.4137785
   8.2768422   46.4139565
   8.2770392   46.4140667
   8.3644655   46.4576057
   8.3647195   46.4577150
   8.3649915   46.4577655
   8.4492722   46.4685787
   8.4495126   46.4685976
   8.4497104   46.4684596
   8.4743862   46.4493592
   8.4745676   46.4492041
   8.4745874   46.4489663
   8.4776598   46.3599576
   8.4776567   46.3597207
   8.4776311   46.3594851
   8.4621292   46.2606975
   8.4620245   46.2597157
   8.4620171   46.2587284
   8.4621071   46.2577451
   8.4622937   46.2567755
   8.4625749   46.2558291
   8.4629481   46.2549150
   8.4634097   46.2540421
   8.4639550   46.2532190
   8.4645789   46.2524537
   8.4652752   46.2517537
   8.4660372   46.2511257
   8.4668573   46.2505760
   8.4677277   46.2501098
   8.4686398   46.2497317
   8.5395929   46.2243477
   8.5398044   46.2242608
   8.5399699   46.2241038
   8.6056336   46.1558598
   8.6062935   46.1552336
   8.6070076   46.1546700
   8.6077699   46.1541737
   8.6900973   46.1057524
   8.6909645   46.1052980
   8.6918720   46.1049305
   8.6928111   46.1046535
   8.6937728   46.1044697
   8.6947478   46.1043808
   8.6957269   46.1043877
   8.6967006   46.1044904
   8.6976596   46.1046877
   8.6985947   46.1049779
   8.6994969   46.1053581
   8.7426614   46.1260926
   8.7428812   46.1261851
   8.7430311   46.1259995
   8.7565322   46.1074733
   8.7571230   46.1067380
   8.7577805   46.1060618
   8.7584987   46.1054504
   8.7592714   46.1049095
   8.7600916   46.1044438
   8.7609520   46.1040574
   8.7618450   46.1037538
   8.7627626   46.1035356
   8.7636967   46.1034049
   8.7646390   46.1033628
   8.8070062   46.1034694
   8.8072548   46.1034575
   8.8074789   46.1033490
   8.8659503   46.0713254
   8.8661445   46.0712066
   8.8660138   46.0710202
   8.8335371   46.0291500
   8.8333379   46.0289230
   8.8331126   46.0287218
   8.8091075   46.0097734
   8.8083731   46.0091332
   8.8077045   46.0084246
   8.8071080   46.0076544
   8.8065893   46.0068297
   8.8061533   46.0059585
   8.8058041   46.0050490
   8.8055451   46.0041098
   8.8053787   46.0031499
   8.8053066   46.0021783
   8.8053293   46.0012044
   8.8054466   46.0002372
   8.8056575   45.9992861
   8.8059600   45.9983600
   8.8063512   45.9974677
   8.8068273   45.9966178
   8.8073838   45.9958182
   8.8080156   45.9950765
   8.8087165   45.9943999
   8.8094799   45.9937946
   8.8102986   45.9932665
   8.8111648   45.9928206
   8.8120702   45.9924611
   8.8130064   45.9921914
   8.8139644   45.9920141
   8.8152894   45.9918351
   8.8321613   45.9894251
   8.8324022   45.9893784
   8.8326064   45.9892420
   8.8586794   45.9698941
   8.8595082   45.9693409
   8.8603879   45.9688729
   8.8613099   45.9684948
   8.8622649   45.9682104
   8.8944984   45.9603341
   8.8947155   45.9602705
   8.8948951   45.9601338
   8.9021651   45.9540619
   8.9023452   45.9538954
   8.9022998   45.9536544
   8.8986701   45.9385884
   8.8984828   45.9375915
   8.8983975   45.9365808
   8.8984150   45.9355666
   8.8985352   45.9345594
   8.8987568   45.9335695
   8.8990775   45.9326072
   8.8994941   45.9316823
   8.9000022   45.9308044
   8.9005966   45.9299825
   8.9012713   45.9292251
   8.9020192   45.9285398
   8.9028327   45.9279339
   8.9146751   45.9200137
   8.9148803   45.9198605
   8.9150290   45.9196520
   8.9480616   45.8678644
   8.9481771   45.8676624
   8.9480042   45.8675067
   8.9406787   45.8615300
   8.9399529   45.8608762
   8.9392943   45.8601548
   8.9387093   45.8593725
   8.9382033   45.8585368
   8.9377814   45.8576558
   8.9374473   45.8567378
   8.9372045   45.8557916
   8.9370551   45.8548262
   8.9370007   45.8538509
   8.9370417   45.8528749
   8.9371777   45.8519075
   8.9374074   45.8509580
   8.9377287   45.8500355
   8.9381384   45.8491487
   8.9386327   45.8483062
   8.9392069   45.8475159
   8.9398555   45.8467854
   8.9405722   45.8461216
   8.9413503   45.8455309
   8.9421823   45.8450190
   8.9430602   45.8445907
   8.9439758   45.8442501
   8.9449202   45.8440005
   8.9458845   45.8438442
   8.9468594   45.8437827
   8.9478357   45.8438167
   8.9561372   45.8445125
   8.9563460   45.8445212
   8.9565526   45.8444950
   8.9932145   45.8382857
   8.9934227   45.8382412
   8.9936196   45.8381622
   9.0180197   45.8271507
   9.0189296   45.8267926
   9.0198700   45.8265250
   9.0208321   45.8263505
   9.0218066   45.8262709
   9.0227842   45.8262868
   9.0237557   45.8263981
   9.0247116   45.8266037
   9.0256428   45.8269017
   9.0265405   45.8272892
   9.0273961   45.8277625
   9.0282013   45.8283172
   9.0289486   45.8289478
   9.0296307   45.8296484
   9.0302410   45.8304122
   9.0307739   45.8312320
   9.0312242   45.8320999
   9.0315876   45.8330077
   9.0335966   45.8388381
   9.0336919   45.8390745
   9.0338108   45.8392999
   9.0670735   45.8952313
   9.0675449   45.8961237
   9.0679240   45.8970591
   9.0682069   45.8980280
   9.0683907   45.8990204
   9.0684735   45.9000263
   9.0684545   45.9010354
   9.0683339   45.9020375
   9.0681128   45.9030223
   9.0677937   45.9039798
   9.0673796   45.9049003
   9.0668748   45.9057743
   9.0662846   45.9065930
   9.0656148   45.9073480
   9.0648723   45.9080317
   9.0640647   45.9086370
   9.0632001   45.9091579
   9.0622875   45.9095889
   9.0169263   45.9282756
   9.0162958   45.9285890
   8.9542382   45.9651069
   8.9540442   45.9652341
   8.9541483   45.9654413
   8.9654980   45.9855410
   8.9656236   45.9857405
   8.9658461   45.9858184
   9.0087571   45.9985652
   9.0096885   45.9988927
   9.0105830   45.9993104
   9.0114319   45.9998143
   9.0122271   46.0003995
   9.0129606   46.0010602
   9.0136255   46.0017900
   9.0142151   46.0025818
   9.0147238   46.0034280
   9.0151466   46.0043201
   9.0154793   46.0052496
   9.0157188   46.0062073
   9.0158627   46.0071841
   9.0159095   46.0081702
   9.0158589   46.0091561
   9.0157114   46.0101323
   9.0154682   46.0110891
   9.0151320   46.0120174
   9.0147058   46.0129079
   9.0141939   46.0137521
   9.0008569   46.0334789
   9.0007351   46.0336795
   9.0008712   46.0338706
   9.0680465   46.1191255
   9.0681912   46.1192932
   9.0683626   46.1194321
   9.2361109   46.2435126
   9.2368701   46.2441341
   9.2375648   46.2448270
   9.2381883   46.2455846
   9.2387345   46.2463998
   9.2391982   46.2472645
   9.2395749   46.2481705
   9.2398610   46.2491090
   9.2731325   46.3811643
   9.2733294   46.3821545
   9.2734255   46.3831595
   9.2734197   46.3841691
   9.2733122   46.3851729
   9.2731041   46.3861608
   9.2727973   46.3871227
   9.2723952   46.3880487
   9.2719017   46.3889295
   9.2368858   46.4446319
   9.2367691   46.4448396
   9.2368974   46.4450403
   9.2772923   46.5018438
   9.2774461   46.5020384
   9.2776895   46.5020861
   9.3633842   46.5144271
   9.3636135   46.5144493
   9.3638439   46.5144503
   9.4662788   46.5101603
   9.4665131   46.5101389
   9.4665379   46.5099050
   9.4736241   46.3851394
   9.4737240   46.3841879
   9.4739144   46.3832503
   9.4741934   46.3823352
   9.4745587   46.3814510
   9.4750068   46.3806057
   9.4755336   46.3798070
   9.4761343   46.3790624
   9.4768034   46.3783786
   9.4775348   46.3777619
   9.4783218   46.3772179
   9.4791572   46.3767516
   9.4800333   46.3763672
   9.5053485   46.3666775
   9.5055677   46.3665810
   9.5056550   46.3663581
   9.5151741   46.3380627
   9.5155274   46.3371600
   9.5159664   46.3362958
   9.5164870   46.3354781
   9.5170844   46.3347146
   9.5177528   46.3340126
   9.5184861   46.3333786
   9.5192774   46.3328186
   9.5201191   46.3323378
   9.5817456   46.3009972
   9.5827272   46.3005626
   9.5837496   46.3002358
   9.5848012   46.3000205
   9.5858699   46.2999191
   9.5869432   46.2999328
   9.6949163   46.3071239
   9.6958946   46.3072377
   9.6968569   46.3074471
   9.6977940   46.3077502
   9.6986968   46.3081440
   9.6995564   46.3086247
   9.7003645   46.3091877
   9.7011134   46.3098274
   9.7017957   46.3105376
   9.7024048   46.3113115
   9.7029349   46.3121416
   9.7033807   46.3130199
   9.7037380   46.3139377
   9.7156137   46.3495414
   9.7156986   46.3497601
   9.7159267   46.3498152
   9.9053163   46.3859758
   9.9055490   46.3860089
   9.9057839   46.3860200
   9.9595440   46.3860200
   9.9597886   46.3860078
   9.9599839   46.3858601
   9.9998010   46.3525148
   9.9999558   46.3523737
   10.0000843   46.3522093
   10.0831442   46.2362813
   10.0837334   46.2355364
   10.0843907   46.2348507
   10.0851100   46.2342304
   10.0858849   46.2336813
   10.0867085   46.2332081
   10.0875732   46.2328151
   10.0884713   46.2325060
   10.0893947   46.2322835
   10.0903350   46.2321496
   10.0912838   46.2321055
   10.1376226   46.2321550
   10.1385878   46.2322028
   10.1395439   46.2323434
   10.1404820   46.2325757
   10.1413932   46.2328975
   10.1422691   46.2333057
   10.1431016   46.2337966
   10.1438828   46.2343655
   10.1446054   46.2350071
   10.1452627   46.2357156
   10.1602670   46.2535422
   10.1608738   46.2543413
   10.1613974   46.2551971
   10.1618327   46.2561011
   10.1621751   46.2570442
   10.1624214   46.2580169
   10.1625689   46.2590093
   10.1626162   46.2600115
   10.1625629   46.2610135
   10.1624094   46.2620050
   10.1621574   46.2629762
   10.1618093   46.2639172
   10.1613687   46.2648186
   10.1608399   46.2656713
   10.1602284   46.2664667
   10.1595402   46.2671969
   10.0993510   46.3249559
   10.0991926   46.3251230
   10.0992570   46.3253441
   10.1181588   46.3803339
   10.1182504   46.3805624
   10.1184401   46.3807192
   10.1384885   46.3956669
   10.1392517   46.3962970
   10.1399489   46.3969996
   10.1405733   46.3977676
   10.1411186   46.3985935
   10.1415797   46.3994693
   10.1419519   46.4003864
   10.1422316   46.4013359
   10.1424161   46.4023083
   10.1425036   46.4032942
   10.1424932   46.4042839
   10.1423850   46.4052677
   10.1421800   46.4062360
   10.1418804   46.4071793
   10.1414889   46.4080884
   10.1410096   46.4089543
   10.1404469   46.4097686
   10.1398065   46.4105233
   10.1390947   46.4112110
   10.1383184   46.4118249
   10.1374851   46.4123591
   10.1366032   46.4128083
   10.1356811   46.4131681
   10.1347280   46.4134350
   10.1337532   46.4136064
   10.0376161   46.4256404
   10.0373907   46.4256796
   10.0373756   46.4259080
   10.0351543   46.5454088
   10.0351606   46.5456361
   10.0353027   46.5458137
   10.0971299   46.6161279
   10.0972960   46.6162993
   10.0975290   46.6163512
   10.2414195   46.6411486
   10.2416552   46.6411774
   10.2418112   46.6409985
   10.2648537   46.6117981
   10.2649951   46.6115991
   10.2648797   46.6113839
   10.2559051   46.5965072
   10.2554449   46.5956532
   10.2550696   46.5947586
   10.2547827   46.5938319
   10.2545870   46.5928818
   10.2544842   46.5919172
   10.2544755   46.5909471
   10.2545607   46.5899808
   10.2547392   46.5890272
   10.2550092   46.5880955
   10.2553683   46.5871943
   10.2558129   46.5863321
   10.2563391   46.5855171
   10.2569417   46.5847569
   10.2576151   46.5840586
   10.2583531   46.5834289
   10.2591486   46.5828737
   10.2599941   46.5823981
   10.2608817   46.5820068
   10.2618031   46.5817032
   10.2627496   46.5814904
   10.4323489   46.5519114
   10.4530279   46.5483073
   10.4539718   46.5481887
   10.4549227   46.5481603
   10.4558720   46.5482225
   10.4568111   46.5483745
   10.4577315   46.5486151
   10.4586248   46.5489421
   10.4594831   46.5493525
   10.4602984   46.5498426
   10.4610635   46.5504079
   10.4617714   46.5510434
   10.4624158   46.5517433
   10.4629907   46.5525012
   10.4634910   46.5533104
   10.4639121   46.5541634
   10.4642503   46.5550525
   10.4798910   46.6029149
   10.4801449   46.6038397
   10.4803090   46.6047846
   10.4803818   46.6057408
   10.4803627   46.6066996
   10.4802518   46.6076522
   10.4800502   46.6085898
   10.4797597   46.6095038
   10.4793829   46.6103857
   10.4789235   46.6112275
   10.4783855   46.6120214
   10.4777739   46.6127601
   10.4770944   46.6134369
   10.4763532   46.6140454
   10.4755571   46.6145801
   10.4747134   46.6150361
   10.4738299   46.6154092
   10.4729148   46.6156960
   10.3963897   46.6357000
   10.3961683   46.6357692
   10.3960751   46.6359817
   10.3775333   46.6844162
   10.3774543   46.6846600
   10.3775333   46.6849039
   10.3968262   46.7353538
   10.4178670   46.7891224
   10.4179716   46.7893540
   10.4180992   46.7895739
   10.4634882   46.8592876
   10.4636259   46.8594782
   10.4638610   46.8594734
   10.5520659   46.8533855
   10.5531736   46.8533706
   10.5542762   46.8534783
   10.5553601   46.8537072
   10.6652658   46.8833695
   10.6654888   46.8834187
   10.6656960   46.8833229
   10.7682757   46.8300114
   10.7684832   46.8298905
   10.7686635   46.8297321
   10.8133380   46.7864993
   10.8140515   46.7858717
   10.8148212   46.7853147
   10.8156404   46.7848332
   10.8165015   46.7844317
   10.8173969   46.7841137
   10.8183184   46.7838821
   10.8192577   46.7837390
   10.8202064   46.7836857
   11.0151959   46.7820128
   11.0161977   46.7820545
   11.0171903   46.7821963
   11.0181637   46.7824367
   11.0191081   46.7827734
   11.0200140   46.7832031
   11.0208724   46.7837212
   11.0216746   46.7843228
   11.0224125   46.7850016
   11.0230787   46.7857509
   11.0236665   46.7865631
   11.0241701   46.7874302
   11.1010608   46.9365782
   11.1011784   46.9367819
   11.1013764   46.9369090
   11.1564296   46.9686602
   11.1566233   46.9687608
   11.1568365   46.9688075
   11.3187076   46.9968571
   11.3189734   46.9968958
   11.4787490   47.0158103
   11.4792527   47.0158442
   11.6254613   47.0182948
   11.6260770   47.0182671
   11.8166664   46.9978546
   11.8176737   46.9977979
   11.8186816   46.9978429
   11.8196798   46.9979894
   11.8206582   46.9982356
   11.8216067   46.9985792
   11.9220303   47.0407961
   11.9222329   47.0408711
   11.9224411   47.0409283
   12.1808716   47.1000001
   12.1810902   47.1000398
   12.1813085   47.1000004
   12.2447176   47.0856028
   12.2449406   47.0855408
   12.2449982   47.0853166
   12.2483304   47.0691902
   12.2483674   47.0689531
   12.2482260   47.0687591
   12.2124869   47.0244645
   12.2123233   47.0242812
   12.2120847   47.0242222
   12.1457842   47.0113045
   12.1448173   47.0110656
   12.1438791   47.0107317
   12.1429786   47.0103062
   12.1421250   47.0097932
   12.1413266   47.0091978
   12.1405915   47.0085259
   12.1399267   47.0077843
   12.1393391   47.0069802
   12.1388344   47.0061217
   12.1384175   47.0052172
   12.1380927   47.0042757
   12.1378631   47.0033066
   12.1377311   47.0023195
   12.1376979   47.0013241
   12.1377639   47.0003303
   12.1379285   46.9993481
   12.1381899   46.9983871
   12.1385456   46.9974569
   12.1389920   46.9965666
   12.1395248   46.9957252
   12.1744352   46.9462311
   12.1747135   46.9458554
   12.2124026   46.8973994
   12.2130654   46.8966311
   12.2138026   46.8959340
   12.2146067   46.8953151
   12.2154694   46.8947809
   12.2163818   46.8943368
   12.2173345   46.8939876
   12.2183176   46.8937366
   12.2193212   46.8935866
   12.2203347   46.8935390
   12.2745658   46.8937490
   12.2748138   46.8937374
   12.2749758   46.8935491
   12.3138057   46.8434890
   12.3139461   46.8432878
   12.3138743   46.8430532
   12.2993414   46.8029036
   12.2990469   46.8019411
   12.2988506   46.8009538
   12.2987546   46.7999518
   12.2987598   46.7989452
   12.2988662   46.7979442
   12.2990726   46.7969590
   12.2993771   46.7959996
   12.2997765   46.7950756
   12.3002667   46.7941964
   12.3008429   46.7933710
   12.3014991   46.7926077
   12.3022287   46.7919142
   12.3030243   46.7912976
   12.3038779   46.7907641
   12.3047808   46.7903191
   12.3057239   46.7899671
   12.3066976   46.7897118
   12.3604196   46.7784782
   12.3606424   46.7784205
   12.3607467   46.7782154
   12.3845052   46.7254762
   12.3849411   46.7246207
   12.3854571   46.7238110
   12.3860483   46.7230545
   12.3867094   46.7223581
   12.3874342   46.7217284
   12.3882161   46.7211711
   12.3890478   46.7206914
   12.3899217   46.7202936
   12.3908297   46.7199815
   12.5594769   46.6709259
   12.5604694   46.6706914
   12.5614806   46.6705592
   12.7834585   46.6529828
   12.7837803   46.6529468
   13.0928092   46.6082018
   13.0931092   46.6081490
   13.1699774   46.5921862
   13.1701970   46.5921301
   13.1704106   46.5920543
   13.2387528   46.5642313
   13.2396314   46.5639205
   13.2405351   46.5636929
   13.2414560   46.5635503
   13.2423863   46.5634941
   13.2867029   46.5628861
   13.2878729   46.5629387
   13.2890287   46.5631277
   13.3712996   46.5815816
   13.3715609   46.5816257
   13.3718255   46.5816135
   13.5096899   46.5678530
   13.5101470   46.5677859
   13.6281500   46.5448527
   13.6283672   46.5448003
   13.6285707   46.5447104
   13.6462983   46.5359094
   13.6472127   46.5355110
   13.6481623   46.5352056
   13.6491376   46.5349964
   13.6501288   46.5348854
   13.7282083   46.5300649
   13.7284349   46.5300399
   13.7283713   46.5298210
   13.6961885   46.4361983
   13.6961020   46.4359814
   13.6958686   46.4359737
   13.6117706   46.4372597
   13.6108131   46.4372284
   13.6098631   46.4371057
   13.6089292   46.4368926
   13.6080199   46.4365912
   13.6071437   46.4362042
   13.6063085   46.4357351
   13.6055220   46.4351882
   13.6047915   46.4345686
   13.6041236   46.4338819
   13.5812919   46.4080399
   13.5808392   46.4075891
   13.5672810   46.3957172
   13.5670825   46.3955605
   13.5668692   46.3954247
   13.4559223   46.3324640
   13.4551217   46.3319581
   13.4020794   46.2948146
   13.4012865   46.2941977
   13.4005594   46.2935044
   13.3999056   46.2927416
   13.3993316   46.2919171
   13.3988433   46.2910391
   13.3984455   46.2901165
   13.3981423   46.2891587
   13.3979367   46.2881754
   13.3978308   46.2871763
   13.3978257   46.2861717
   13.3979214   46.2851716
   13.3981170   46.2841862
   13.3984105   46.2832253
   13.3987989   46.2822988
   13.3992783   46.2814159
   13.4292669   46.2322517
   13.4298094   46.2314520
   13.4304266   46.2307084
   13.4311126   46.2300278
   13.4318612   46.2294166
   13.4326652   46.2288805
   13.4335173   46.2284245
   13.4344094   46.2280530
   13.4353331   46.2277692
   13.4362800   46.2275759
   13.4372411   46.2274750
   13.4382074   46.2274673
   13.4734880   46.2288914
   13.4736996   46.2288910
   13.4739104   46.2288726
   13.5454628   46.2195639
   13.5461281   46.2194308
   13.6834085   46.1821256
   13.6836311   46.1820530
   13.6835095   46.1818529
   13.6534069   46.1374766
   13.6532504   46.1372700
   13.6530377   46.1371218
   13.5240567   46.0569516
   13.5232902   46.0564242
   13.5225760   46.0558278
   13.5219204   46.0551676
   13.5213289   46.0544494
   13.5208067   46.0536793
   13.5203584   46.0528640
   13.5199878   46.0520105
   13.5196982   46.0511263
   13.5142761   46.0315388
   13.5141991   46.0313062
   13.5140384   46.0311214
   13.4950883   46.0113988
   13.4944377   46.0106508
   13.4938644   46.0098421
   13.4933740   46.0089806
   13.4929713   46.0080748
   13.4926603   46.0071335
   13.4924440   46.0061661
   13.4923245   46.0051821
   13.4923030   46.0041910
   13.4923798   46.0032027
   13.4925541   46.0022268
   13.4928241   46.0012730
   13.4931872   46.0003506
   13.4936398   45.9994687
   13.4941776   45.9986359
   13.4947951   45.9978605
   13.4954864   45.9971500
   13.4962447   45.9965115
   13.4970624   45.9959511
   13.5345408   45.9729132
   13.5354313   45.9724263
   13.5363665   45.9720321
   13.5373369   45.9717348
   13.5383324   45.9715373
   13.5393428   45.9714418
   13.5403576   45.9714492
   13.5413665   45.9715594
   13.5423590   45.9717713
   13.5433250   45.9720827
   13.5442544   45.9724904
   13.5850599   45.9929198
   13.5852827   45.9930179
   13.5855261   45.9930231
   13.6363751   45.9915966
   13.6366054   45.9915793
   13.6367771   45.9914248
   13.6453511   45.9829469
   13.6455160   45.9827666
   13.6454518   45.9825308
   13.6356238   45.9524672
   13.6353647   45.9515189
   13.6351999   45.9505498
   13.6351310   45.9495692
   13.6351588   45.9485866
   13.6352829   45.9476115
   13.6355021   45.9466532
   13.6358144   45.9457211
   13.6396945   45.9357889
   13.6397678   45.9355718
   13.6396357   45.9353846
   13.6104265   45.8978481
   13.6096534   45.8966982
   13.5968756   45.8745159
   13.5967739   45.8743541
   13.5966602   45.8742006
   13.5842598   45.8587322
   13.5836688   45.8579136
   13.5831635   45.8570396
   13.5827488   45.8561190
   13.5824291   45.8551614
   13.5822075   45.8541764
   13.5820864   45.8531740
   13.5820670   45.8521646
   13.5821495   45.8511583
   13.5823330   45.8501655
   13.5826157   45.8491963
   13.5829947   45.8482605
   13.5834661   45.8473677
   13.5840252   45.8465270
   13.6101746   45.8112077
   13.6108171   45.8104259
   13.6115354   45.8097131
   13.6123220   45.8090765
   13.6131690   45.8085226
   13.6140675   45.8080572
   13.6150086   45.8076850
   13.6159824   45.8074097
   13.6169790   45.8072344
   13.6179883   45.8071606
   13.6665717   45.8060755
   13.6668173   45.8060578
   13.6670468   45.8059688
   13.7981131   45.7474879
   13.7983048   45.7473922
   13.7984656   45.7472507
   13.8357226   45.7115098
   13.8358992   45.7113218
   13.8360333   45.7111014
   13.8567573   45.6726722
   13.8572732   45.6718202
   13.8578712   45.6710238
   13.8585454   45.6702908
   13.8592893   45.6696284
   13.8600953   45.6690434
   13.8609555   45.6685414
   13.9285617   45.6334832
   13.9287564   45.6333697
   13.9285642   45.6332522
   13.8740242   45.6034784
   13.8732744   45.6030254
   13.8725672   45.6025086
   13.8719079   45.6019318
   13.8713017   45.6012995
   13.8551120   45.5828630
   13.8549548   45.5826999
   13.8547312   45.5826639
   13.8361984   45.5805537
   13.8357804   45.5805238
   13.8099150   45.5797605
   13.8092071   45.5797899
   13.7784799   45.5832618
   13.7782333   45.5833023
   13.7779998   45.5833912
   13.7500190   45.5956925
   13.7490145   45.5960712
   13.7479751   45.5963401
   13.7469128   45.5964959
   13.7458400   45.5965370
   13.7447690   45.5964628
   13.7190527   45.5932875
   13.7188308   45.5932702
   13.7186174   45.5933318
   13.7106046   45.5960391
   13.7095668   45.5963284
   13.7085039   45.5965045
   13.7074283   45.5965651
   13.7063523   45.5965097
   13.4508207   45.5694920
   13.4498656   45.5693440
   13.4489293   45.5691046
   13.4480204   45.5687759
   13.4471475   45.5683609
   13.4463188   45.5678636
   13.4455419   45.5672887
   13.4448241   45.5666414
   13.4441722   45.5659279
   13.4435922   45.5651548
   13.4430896   45.5643293
   13.0136611   44.7756199
   13.0132384   44.7747448
   13.0129027   44.7738328
   13.0126570   44.7728926
   13.0125038   44.7719329
   13.0124445   44.7709629
   13.0124796   44.7699918
   13.0126087   44.7690286
   13.0128308   44.7680825
   13.0131437   44.7671624
   13.0135444   44.7662771
   13.0140291   44.7654348
   13.0145933   44.7646435
   13.0152316   44.7639108
   13.0159381   44.7632435
   13.2644388   44.5503738
   13.2646135   44.5502082
   13.2644781   44.5500092
   12.9099020   44.0813409
   12.9097411   44.0811491
   12.9095451   44.0809935
   12.7610025   43.9747457
   12.7602335   43.9741365
   12.7595279   43.9734549
   12.7588925   43.9727074
   12.7583334   43.9719013
   12.7578560   43.9710442
   12.7574648   43.9701445
   12.7571637   43.9692108
   12.7569556   43.9682521
   12.7568423   43.9672777
   12.7568251   43.9662968
   12.7569041   43.9653189
   12.7570786   43.9643535
   12.7578115   43.9611925
   12.7578560   43.9609419
   12.7577462   43.9607122
   12.7488534   43.9443503
   12.7487422   43.9441652
   12.7486153   43.9439904
   12.7341002   43.9257098
   12.7335607   43.9249621
   12.7330925   43.9241678
   12.7326993   43.9233338
   12.7323847   43.9224672
   12.7321512   43.9215752
   12.7320008   43.9206655
   12.7319349   43.9197458
   12.7317074   43.9108070
   12.7317243   43.9099193
   12.7318198   43.9090365
   12.7319933   43.9081657
   12.7322433   43.9073137
   12.7325679   43.9064872
   12.7371693   43.8961464
   12.7372559   43.8959225
   12.7370975   43.8957422
   12.7320082   43.8904971
   12.7313775   43.8897819
   12.7308179   43.8890098
   12.7303343   43.8881879
   12.7299312   43.8873237
   12.7296122   43.8864250
   12.7293803   43.8855001
   12.7292376   43.8845572
   12.7291853   43.8836051
   12.7292239   43.8826523
   12.7293532   43.8817075
   12.7295718   43.8807793
   12.7298778   43.8798762
   12.7302685   43.8790063
   12.7307403   43.8781776
   12.7312888   43.8773975
   12.7319092   43.8766733
   12.7350831   43.8733070
   12.7352387   43.8731250
   12.7352682   43.8728874
   12.7355907   43.8685869
   12.7355966   43.8683355
   12.7354161   43.8681604
   12.7251222   43.8591593
   12.7249350   43.8590110
   12.7247003   43.8589668
   12.7079561   43.8566452
   12.7069092   43.8564427
   12.7058899   43.8561298
   12.7049097   43.8557102
   12.7039797   43.8551887
   12.7031106   43.8545711
   12.6983201   43.8507669
   12.6981042   43.8506135
   12.6978441   43.8505640
   12.6917614   43.8497403
   12.6907596   43.8495523
   12.6897821   43.8492632
   12.6888392   43.8488761
   12.6879405   43.8483950
   12.6870955   43.8478250
   12.6863129   43.8471719
   12.6856009   43.8464425
   12.6849668   43.8456444
   12.6844172   43.8447859
   12.6839579   43.8438760
   12.6831574   43.8420662
   12.6828214   43.8411999
   12.6825673   43.8403061
   12.6823972   43.8393926
   12.6823127   43.8384673
   12.6823144   43.8375381
   12.6824023   43.8366131
   12.6825758   43.8357002
   12.6828332   43.8348074
   12.6852498   43.8276862
   12.6853155   43.8274557
   12.6851112   43.8273301
   12.6749042   43.8217374
   12.6746875   43.8216320
   12.6744466   43.8216407
   12.6479940   43.8238894
   12.6469449   43.8239233
   12.6458981   43.8238471
   12.6448649   43.8236615
   12.6438570   43.8233687
   12.6308678   43.8188433
   12.6305973   43.8187660
   12.6303164   43.8187514
   12.6228062   43.8187888
   12.6225738   43.8188010
   12.6223843   43.8189360
   12.6089638   43.8294877
   12.6087813   43.8296463
   12.6087415   43.8298848
   12.6078791   43.8372892
   12.6077294   43.8382037
   12.6074956   43.8391004
   12.6071799   43.8399716
   12.6067848   43.8408099
   12.6063139   43.8416080
   12.6057711   43.8423590
   12.6051611   43.8430566
   12.5988461   43.8496366
   12.5986829   43.8498248
   12.5986823   43.8500740
   12.5987732   43.8519435
   12.5987713   43.8529537
   12.5986674   43.8539584
   12.5984627   43.8549476
   12.5981593   43.8559110
   12.5977602   43.8568390
   12.5972695   43.8577219
   12.5966923   43.8585508
   12.5960344   43.8593173
   12.5953025   43.8600135
   12.5945042   43.8606323
   12.5936474   43.8611674
   12.5927411   43.8616134
   12.5874987   43.8638715
   12.5872839   43.8639770
   12.5873269   43.8642125
   12.5883349   43.8685118
   12.5885107   43.8694691
   12.5885926   43.8704389
   12.5885799   43.8714121
   12.5884726   43.8723794
   12.5882717   43.8733318
   12.5879793   43.8742601
   12.5875980   43.8751555
   12.5871314   43.8760097
   12.5865840   43.8768144
   12.5859610   43.8775622
   12.5852682   43.8782458
   12.5845123   43.8788588
   12.5837004   43.8793955
   12.5828401   43.8798507
   12.5819396   43.8802201
   12.5810075   43.8805002
   12.5800526   43.8806884
   12.5790840   43.8807828
   12.5763217   43.8809169
   12.5753682   43.8809177
   12.5744191   43.8808277
   12.5734828   43.8806477
   12.5725679   43.8803794
   12.5716827   43.8800251
   12.5708353   43.8795882
   12.5700333   43.8790725
   12.5692841   43.8784828
   12.5685945   43.8778244
   12.5679707   43.8771034
   12.5674184   43.8763262
   12.5669426   43.8755000
   12.5665477   43.8746321
   12.5638465   43.8678569
   12.5637521   43.8676489
   12.5635342   43.8675805
   12.5412961   43.8617196
   12.5410719   43.8616716
   12.5408749   43.8617889
   12.5329999   43.8669913
   12.5327996   43.8671387
   12.5326729   43.8673527
   12.5278702   43.8764913
   12.5277636   43.8767224
   12.5277851   43.8769760
   12.5287558   43.8840603
   12.5288372   43.8844918
   12.5289743   43.8854932
   12.5290095   43.8865033
   12.5289427   43.8875118
   12.5287743   43.8885084
   12.5285063   43.8894829
   12.5281412   43.8904253
   12.5276828   43.8913261
   12.5271359   43.8921761
   12.5265060   43.8929665
   12.5257995   43.8936892
   12.5250237   43.8943370
   12.5241864   43.8949031
   12.5232963   43.8953819
   12.5223624   43.8957683
   12.5213942   43.8960585
   12.5204017   43.8962495
   12.5195887   43.8963637
   12.5193354   43.8964128
   12.5191239   43.8965606
   12.5020336   43.9098795
   12.5013316   43.9103795
   12.5005892   43.9108172
   12.4998119   43.9111893
   12.4990054   43.9114931
   12.4910502   43.9141044
   12.4908322   43.9141879
   12.4908449   43.9144210
   12.4914655   43.9204231
   12.4915005   43.9206538
   12.4916851   43.9207965
   12.5001787   43.9267395
   12.5010655   43.9274377
   12.5018679   43.9282314
   12.5025758   43.9291105
   12.5086928   43.9376519
   12.5092141   43.9384589
   12.5096554   43.9393123
   12.5100129   43.9402041
   12.5102831   43.9411261
   12.5104636   43.9420698
   12.5105527   43.9430264
   12.5105496   43.9439872
   12.5104543   43.9449432
   12.5102676   43.9458857
   12.5099914   43.9468059
   12.5096282   43.9476954
   12.5091813   43.9485459
   12.5041570   43.9570841
   12.5040423   43.9573036
   12.5040222   43.9575503
   12.5035800   43.9717800
   12.5035686   43.9717796
   12.5035542   43.9722706
   12.5034279   43.9732511
   12.5032055   43.9742144
   12.5028889   43.9751510
   12.5024815   43.9760517
   12.5019871   43.9769078
   12.5014106   43.9777109
   12.5007576   43.9784532
   12.5000345   43.9791273
   12.4992484   43.9797268
   12.4984069   43.9802457
   12.4975183   43.9806790
   12.4965913   43.9810224
   12.4956349   43.9812727
   12.4946584   43.9814272
   12.4936715   43.9814846
   12.4926837   43.9814443
   12.4917048   43.9813066
   12.4907442   43.9810729
   12.4718219   43.9754661
   12.4709077   43.9751463
   12.4700288   43.9747396
   12.4491634   43.9638281
   12.4482606   43.9632939
   12.4474188   43.9626681
   12.4375912   43.9545283
   12.4373957   43.9543821
   12.4371518   43.9543708
   12.4241307   43.9544122
   12.4231745   43.9543695
   12.4222267   43.9542355
   12.4212961   43.9540115
   12.4203911   43.9536995
   12.4195201   43.9533025
   12.4183549   43.9527023
   12.4175040   43.9522097
   12.4167057   43.9516360
   12.4159675   43.9509866
   12.4152967   43.9502679
   12.4146997   43.9494869
   12.4141823   43.9486509
   12.4137494   43.9477682
   12.4134053   43.9468473
   12.4131533   43.9458970
   12.4129959   43.9449266
   12.4129345   43.9439454
   12.4129697   43.9429629
   12.4131013   43.9419886
   12.4133278   43.9410319
   12.4136473   43.9401022
   12.4140564   43.9392082
   12.4142531   43.9388289
   12.4176911   43.9311995
   12.4177773   43.9309807
   12.4176664   43.9307734
   12.4138073   43.9243264
   12.4133307   43.9234297
   12.4129474   43.9224893
   12.4126615   43.9215149
   12.4124759   43.9205165
   12.4123926   43.9195044
   12.4124122   43.9184891
   12.4125348   43.9174810
   12.4142474   43.9076100
   12.4144691   43.9066283
   12.4147884   43.9056739
   12.4152019   43.9047564
   12.4157057   43.9038851
   12.4162944   43.9030688
   12.4169622   43.9023159
   12.4198074   43.8994161
   12.4199784   43.8992226
   12.4200816   43.8989859
   12.4246165   43.8868984
   12.4250170   43.8859748
   12.4255085   43.8850963
   12.4260857   43.8842716
   12.4267429   43.8835091
   12.4274735   43.8828166
   12.4339743   43.8772477
   12.4341566   43.8770744
   12.4341532   43.8768228
   12.4337655   43.8708776
   12.4337397   43.8706501
   12.4335127   43.8706215
   12.4209746   43.8696467
   12.4207609   43.8696393
   12.4205523   43.8696868
   12.4109084   43.8723225
   12.4099871   43.8725281
   12.4090504   43.8726459
   12.4081069   43.8726749
   12.4071648   43.8726147
   12.4062325   43.8724660
   12.4053185   43.8722301
   12.3999300   43.8705642
   12.3996936   43.8705039
   12.3995159   43.8706711
   12.3940782   43.8763294
   12.3933504   43.8770146
   12.3925579   43.8776238
   12.3917085   43.8781507
   12.3908108   43.8785902
   12.3898736   43.8789379
   12.3889064   43.8791904
   12.3879189   43.8793449
   12.3869209   43.8794002
   12.3859223   43.8793555
   12.3849332   43.8792114
   12.3839634   43.8789692
   12.3590517   43.8714072
   12.3581043   43.8710667
   12.3571959   43.8706326
   12.3563357   43.8701094
   12.3555326   43.8695023
   12.3547945   43.8688176
   12.3525923   43.8665578
   12.3519444   43.8658242
   12.3513712   43.8650308
   12.3508784   43.8641852
   12.3504706   43.8632955
   12.3501517   43.8623701
   12.3499248   43.8614181
   12.3497920   43.8604484
   12.3497547   43.8594703
   12.3498673   43.8490649
   12.3498581   43.8488235
   12.3497364   43.8486147
   12.3411556   43.8354285
   12.3407147   43.8346821
   12.3403401   43.8339002
   12.3400346   43.8330888
   12.3398006   43.8322540
   12.3376375   43.8230156
   12.3375691   43.8227780
   12.3373628   43.8226417
   12.3237482   43.8145970
   12.3229269   43.8140556
   12.3221629   43.8134361
   12.3214633   43.8127445
   12.3208352   43.8119875
   12.3202844   43.8111725
   12.3198164   43.8103073
   12.3161236   43.8025971
   12.3160000   43.8023706
   12.3157666   43.8022605
   12.2974722   43.7947809
   12.2965699   43.7943584
   12.2957141   43.7938481
   12.2949134   43.7932553
   12.2941756   43.7925858
   12.2935081   43.7918461
   12.2929175   43.7910437
   12.2924097   43.7901865
   12.2919897   43.7892830
   12.2916617   43.7883422
   12.2914290   43.7873735
   12.2912938   43.7863864
   12.2898623   43.7698373
   12.2898272   43.7695846
   12.2896936   43.7693672
   12.2854890   43.7632565
   12.2853318   43.7630520
   12.2850843   43.7629795
   12.2640425   43.7579984
   12.2631268   43.7577349
   12.2622403   43.7573856
   12.2613912   43.7569534
   12.2605869   43.7564424
   12.2598350   43.7558572
   12.2591422   43.7552030
   12.2585148   43.7544859
   12.2559922   43.7513091
   12.2558439   43.7511390
   12.2556290   43.7510713
   12.2470215   43.7487868
   12.2467686   43.7487335
   12.2465101   43.7487337
   12.2409435   43.7490277
   12.2407137   43.7490506
   12.2405189   43.7491747
   12.2338455   43.7538773
   12.2330083   43.7544072
   12.2321227   43.7548517
   12.2311975   43.7552064
   12.2302418   43.7554677
   12.2292649   43.7556332
   12.2282764   43.7557012
   12.2272860   43.7556711
   12.2198219   43.7550726
   12.2188964   43.7549548
   12.2179858   43.7547511
   12.2170982   43.7544635
   12.2162413   43.7540944
   12.2154225   43.7536471
   12.2146489   43.7531254
   12.2139274   43.7525339
   12.2132641   43.7518777
   12.2126649   43.7511625
   12.2121349   43.7503946
   12.2106718   43.7480474
   12.2105200   43.7478308
   12.2102920   43.7476968
   12.2079303   43.7464746
   12.2070316   43.7459484
   12.2061924   43.7453316
   12.2054220   43.7446309
   12.2047286   43.7438538
   12.2041198   43.7430089
   12.2036022   43.7421052
   12.2031813   43.7411526
   12.2011201   43.7357404
   12.2010316   43.7355362
   12.2008631   43.7353908
   12.1939129   43.7299218
   12.1937196   43.7297845
   12.1935187   43.7299105
   12.1714754   43.7453035
   12.1712878   43.7454483
   12.1711310   43.7456261
   12.1658226   43.7522551
   12.1651508   43.7530121
   12.1644060   43.7536973
   12.1635956   43.7543037
   12.1627282   43.7548251
   12.1618124   43.7552561
   12.1608578   43.7555924
   12.1598741   43.7558305
   12.1588714   43.7559679
   12.1578599   43.7560032
   12.1568500   43.7559361
   12.1558521   43.7557673
   12.1548764   43.7554985
   12.1539328   43.7551324
   12.1433606   43.7504021
   12.1431054   43.7503044
   12.1428409   43.7502352
   12.1262292   43.7468488
   12.1259899   43.7468120
   12.1257502   43.7468460
   12.1097870   43.7499068
   12.1088284   43.7500429
   12.1078611   43.7500857
   12.1068942   43.7500347
   12.1059368   43.7498904
   12.1049978   43.7496542
   12.1040860   43.7493283
   12.0769352   43.7381130
   12.0767088   43.7380322
   12.0764708   43.7380667
   12.0637937   43.7405443
   12.0635671   43.7405999
   12.0634415   43.7407965
   12.0592351   43.7481303
   12.0587428   43.7489041
   12.0581816   43.7496295
   12.0575564   43.7503005
   12.0568723   43.7509114
   12.0561351   43.7514570
   12.0553510   43.7519328
   12.0548228   43.7522211
   12.0539334   43.7526509
   12.0530058   43.7529909
   12.0520493   43.7532377
   12.0510730   43.7533889
   12.0500867   43.7534430
   12.0490997   43.7533995
   12.0481219   43.7532589
   12.0471627   43.7530225
   12.0420105   43.7514790
   12.0417811   43.7514222
   12.0415665   43.7515208
   12.0308422   43.7570855
   12.0300255   43.7574637
   12.0291781   43.7577668
   12.0283070   43.7579926
   12.0274190   43.7581392
   12.0265215   43.7582053
   12.0189002   43.7584226
   12.0186425   43.7584434
   12.0183947   43.7585170
   12.0076889   43.7623135
   12.0067498   43.7625955
   12.0057875   43.7627842
   12.0048114   43.7628778
   12.0038308   43.7628752
   12.0028552   43.7627767
   11.9846097   43.7600246
   11.9843814   43.7600010
   11.9841668   43.7600821
   11.9523892   43.7738053
   11.9521786   43.7739085
   11.9520772   43.7741200
   11.9485662   43.7824450
   11.9481597   43.7832948
   11.9476750   43.7841026
   11.9471164   43.7848611
   11.9464889   43.7855638
   11.9457981   43.7862043
   11.9450501   43.7867769
   11.9442516   43.7872766
   11.9434095   43.7876990
   11.9425314   43.7880402
   11.9416252   43.7882973
   11.9406987   43.7884680
   11.9174375   43.7916291
   11.9172147   43.7916699
   11.9170464   43.7918211
   11.9107597   43.7980130
   11.9105916   43.7981962
   11.9105305   43.7984478
   11.9102450   43.7994100
   11.9098645   43.8003386
   11.9093928   43.8012245
   11.9088347   43.8020586
   11.9081958   43.8028326
   11.9074826   43.8035386
   11.9067022   43.8041696
   11.9058624   43.8047192
   11.9049718   43.8051819
   11.9040393   43.8055530
   11.9030743   43.8058287
   11.9020866   43.8060063
   11.9010860   43.8060840
   11.9000826   43.8060610
   11.8990867   43.8059376
   11.8981081   43.8057149
   11.8968071   43.8053494
   11.8965584   43.8052931
   11.8963035   43.8052887
   11.8855969   43.8056526
   11.8853820   43.8056693
   11.8851786   43.8057407
   11.8679740   43.8126347
   11.8670428   43.8129556
   11.8660846   43.8131833
   11.8651085   43.8133157
   11.8641242   43.8133514
   11.8631412   43.8132901
   11.8595535   43.8128882
   11.8585630   43.8127265
   11.8575937   43.8124664
   11.8566553   43.8121105
   11.8557573   43.8116622
   11.8549088   43.8111262
   11.8541183   43.8105079
   11.8533938   43.8098135
   11.8502153   43.8064452
   11.8500449   43.8062812
   11.8498094   43.8062595
   11.8400396   43.8058314
   11.8397822   43.8058335
   11.8395379   43.8059144
   11.8164093   43.8149345
   11.8161974   43.8150288
   11.8160690   43.8152220
   11.8128669   43.8205657
   11.8123046   43.8214048
   11.8116605   43.8221829
   11.8109412   43.8228921
   11.8101541   43.8235250
   11.8093071   43.8240754
   11.7914255   43.8344492
   11.7912092   43.8345902
   11.7910468   43.8347909
   11.7856858   43.8421731
   11.7851102   43.8428934
   11.7844706   43.8435576
   11.7837726   43.8441601
   11.7830221   43.8446958
   11.7822254   43.8451600
   11.7813894   43.8455489
   11.7805210   43.8458591
   11.7313827   43.8608988
   11.7311562   43.8609803
   11.7309776   43.8611418
   11.7218182   43.8702682
   11.7210801   43.8709340
   11.7202795   43.8715231
   11.7194244   43.8720299
   11.7185232   43.8724493
   11.7175849   43.8727771
   11.7091963   43.8752475
   11.7089606   43.8753303
   11.7088846   43.8755683
   11.7057420   43.8874945
   11.7056923   43.8877290
   11.7057802   43.8879519
   11.7108967   43.8992864
   11.7112760   43.9002592
   11.7115519   43.9012662
   11.7117212   43.9022965
   11.7117821   43.9033389
   11.7117341   43.9043819
   11.7115775   43.9054142
   11.7102787   43.9117333
   11.7102418   43.9119701
   11.7102703   43.9121794
   11.7103748   43.9127447
   11.7104574   43.9137320
   11.7104419   43.9147227
   11.7103285   43.9157069
   11.7101183   43.9166751
   11.7098133   43.9176177
   11.7094165   43.9185256
   11.7089318   43.9193897
   11.7083640   43.9202016
   11.7077186   43.9209533
   11.7070021   43.9216375
   11.7062213   43.9222474
   11.7053840   43.9227770
   11.7044984   43.9232213
   11.6837853   43.9323562
   11.6835590   43.9324702
   11.6834181   43.9326807
   11.6800534   43.9383134
   11.6799431   43.9385201
   11.6800496   43.9387288
   11.6839457   43.9455304
   11.6844012   43.9464275
   11.6847643   43.9473658
   11.6850313   43.9483358
   11.6851994   43.9493278
   11.6852671   43.9503317
   11.6852335   43.9513372
   11.6850990   43.9523343
   11.6848650   43.9533128
   11.6845339   43.9542629
   11.6841089   43.9551749
   11.6835945   43.9560396
   11.6829958   43.9568482
   11.6823189   43.9575925
   11.6815706   43.9582651
   11.6807585   43.9588591
   11.6798909   43.9593684
   11.6704221   43.9643042
   11.6702074   43.9644302
   11.6700221   43.9645964
   11.6654190   43.9691596
   11.6646908   43.9698140
   11.6639020   43.9703941
   11.6630604   43.9708943
   11.6621738   43.9713098
   11.6612508   43.9716365
   11.6603004   43.9718715
   11.6525305   43.9733929
   11.6522977   43.9734505
   11.6521735   43.9736556
   11.6432433   43.9901804
   11.6431428   43.9903896
   11.6432551   43.9905928
   11.6460763   43.9951647
   11.6465390   43.9960016
   11.6469197   43.9968788
   11.6472148   43.9977884
   11.6474216   43.9987221
   11.6475384   43.9996712
   11.6475640   44.0006271
   11.6474981   44.0015811
   11.6473414   44.0025245
   11.6465903   44.0060066
   11.6465527   44.0062330
   11.6467642   44.0063221
   11.6482854   44.0068792
   11.6491866   44.0072603
   11.6500463   44.0077276
   11.6508562   44.0082767
   11.6516085   44.0089023
   11.6522962   44.0095984
   11.6529124   44.0103584
   11.6534515   44.0111750
   11.6539082   44.0120404
   11.6542781   44.0129463
   11.6545577   44.0138839
   11.6547443   44.0148445
   11.6548362   44.0158186
   11.6548324   44.0167971
   11.6547330   44.0177705
   11.6545964   44.0186700
   11.6545725   44.0189035
   11.6547776   44.0190176
   11.6624028   44.0227878
   11.6626544   44.0228954
   11.6629235   44.0229453
   11.6768064   44.0247377
   11.6777612   44.0249084
   11.6786948   44.0251707
   11.6795987   44.0255223
   11.6804643   44.0259598
   11.6812834   44.0264790
   11.6820484   44.0270752
   11.6827520   44.0277427
   11.6887637   44.0340268
   11.6893566   44.0347054
   11.6898861   44.0354345
   11.6903477   44.0362084
   11.6907379   44.0370207
   11.6910533   44.0378649
   11.6912914   44.0387339
   11.6945552   44.0531675
   11.6946212   44.0534043
   11.6947739   44.0535970
   11.7081294   44.0688382
   11.7082872   44.0690024
   11.7084593   44.0691516
   11.7304432   44.0865155
   11.7312139   44.0871911
   11.7319113   44.0879420
   11.7325283   44.0887604
   11.7330582   44.0896377
   11.7334955   44.0905645
   11.7372029   44.0995936
   11.7373107   44.0998220
   11.7375003   44.0999887
   11.7425724   44.1040082
   11.7433031   44.1046473
   11.7439684   44.1053543
   11.7445620   44.1061225
   11.7450783   44.1069446
   11.7455124   44.1078129
   11.7458603   44.1087191
   11.7461187   44.1096549
   11.7462852   44.1106113
   11.7463251   44.1109325
   11.7463981   44.1119017
   11.7463766   44.1128734
   11.7462609   44.1138384
   11.7460521   44.1147876
   11.7457521   44.1157120
   11.7453638   44.1166030
   11.7448908   44.1174520
   11.7443376   44.1182512
   11.7437095   44.1189928
   11.7430123   44.1196700
   11.7422527   44.1202763
   11.7414379   44.1208060
   11.7405754   44.1212541
   11.7396736   44.1216164
   11.7387408   44.1218894
   11.7377859   44.1220705
   11.7368180   44.1221582
   11.7358461   44.1221514
   11.7348795   44.1220503
   11.7037888   44.1172622
   11.7035794   44.1172389
   11.7033698   44.1172512
   11.6883829   44.1187649
   11.6874260   44.1188154
   11.6864686   44.1187741
   11.6855195   44.1186413
   11.6845876   44.1184183
   11.6836812   44.1181071
   11.6828088   44.1177106
   11.6819784   44.1172324
   11.6811975   44.1166769
   11.6804734   44.1160492
   11.6798127   44.1153551
   11.6792215   44.1146010
   11.6772342   44.1117992
   11.6770926   44.1116180
   11.6768954   44.1115008
   11.6492809   44.0967679
   11.6490624   44.0966650
   11.6488877   44.0968316
   11.6389775   44.1072766
   11.6382458   44.1079736
   11.6374476   44.1085931
   11.6365909   44.1091290
   11.6356845   44.1095756
   11.6347377   44.1099285
   11.6152997   44.1160742
   11.6144034   44.1163124
   11.6134890   44.1164666
   11.6125641   44.1165355
   11.6116369   44.1165183
   11.6024325   44.1159205
   11.6015142   44.1158180
   11.6006093   44.1156313
   11.5997254   44.1153618
   11.5843474   44.1098846
   11.5841167   44.1098153
   11.5840116   44.1100321
   11.5814433   44.1160899
   11.5813623   44.1163096
   11.5814560   44.1165242
   11.5853454   44.1243882
   11.5854692   44.1246090
   11.5857082   44.1246925
   11.5926606   44.1267227
   11.5936364   44.1270633
   11.5945719   44.1275028
   11.5954570   44.1280364
   11.5962822   44.1286586
   11.5970389   44.1293627
   11.5977188   44.1301411
   11.5983147   44.1309855
   11.5988204   44.1318869
   11.5992302   44.1328357
   11.6019566   44.1401657
   11.6020501   44.1403845
   11.6021403   44.1405176
   11.6025567   44.1410762
   11.6030738   44.1419385
   11.6035016   44.1428484
   11.6038359   44.1437967
   11.6040733   44.1447737
   11.6042114   44.1457697
   11.6042488   44.1467744
   11.6041851   44.1477779
   11.6040209   44.1487699
   11.6037580   44.1497403
   11.6033989   44.1506795
   11.6029473   44.1515779
   11.6024078   44.1524263
   11.6017858   44.1532163
   11.6010877   44.1539399
   11.6003204   44.1545897
   11.5994917   44.1551591
   11.5986100   44.1556425
   11.5976843   44.1560349
   11.5917703   44.1581977
   11.5908074   44.1584958
   11.5898193   44.1586954
   11.5888161   44.1587945
   11.5878081   44.1587921
   11.5741916   44.1580728
   11.5739541   44.1580717
   11.5737683   44.1582197
   11.5701572   44.1613946
   11.5693965   44.1620005
   11.5685806   44.1625296
   11.5677171   44.1629769
   11.5668143   44.1633382
   11.5658806   44.1636102
   11.5649250   44.1637902
   11.5639564   44.1638765
   11.5629839   44.1638683
   11.5620169   44.1637657
   11.5610644   44.1635696
   11.5601355   44.1632820
   11.5592388   44.1629055
   11.5583830   44.1624436
   11.5575761   44.1619009
   11.5568258   44.1612823
   11.5561390   44.1605938
   11.5555224   44.1598418
   11.5549818   44.1590335
   11.5535399   44.1566329
   11.5533891   44.1564103
   11.5531751   44.1562477
   11.5443078   44.1502408
   11.5440980   44.1501135
   11.5438608   44.1501761
   11.5312261   44.1541943
   11.5301971   44.1544623
   11.5291453   44.1546195
   11.5280829   44.1546640
   11.5270217   44.1545956
   11.5259738   44.1544148
   11.5209785   44.1532766
   11.5207311   44.1532334
   11.5204941   44.1533163
   11.5142850   44.1558500
   11.5140487   44.1559614
   11.5138790   44.1561600
   11.5137463   44.1563330
   11.5130988   44.1570950
   11.5123784   44.1577886
   11.5115924   44.1584068
   11.5107486   44.1589434
   11.5098554   44.1593930
   11.5089217   44.1597512
   11.5079569   44.1600143
   11.5069707   44.1601798
   11.5059729   44.1602459
   11.5049735   44.1602121
   11.5028167   44.1600307
   11.5025733   44.1600224
   11.5023669   44.1601517
   11.4819310   44.1744128
   11.4817297   44.1745692
   11.4815855   44.1747793
   11.4799855   44.1773892
   11.4794444   44.1781835
   11.4788295   44.1789222
   11.4781465   44.1795985
   11.4774017   44.1802061
   11.4766021   44.1807393
   11.4757549   44.1811934
   11.4748681   44.1815640
   11.4739498   44.1818477
   11.4568778   44.1862363
   11.4566372   44.1863115
   11.4564641   44.1864949
   11.4439807   44.2011612
   11.4438343   44.2013516
   11.4439355   44.2015694
   11.4476061   44.2085404
   11.4480140   44.2094151
   11.4483357   44.2103250
   11.4485682   44.2112618
   11.4487093   44.2122165
   11.4487577   44.2131805
   11.4487130   44.2141446
   11.4485755   44.2150999
   11.4483466   44.2160375
   11.4480284   44.2169486
   11.4476238   44.2178249
   11.4471366   44.2186580
   11.4465713   44.2194403
   11.4459333   44.2201645
   11.4452285   44.2208238
   11.4444633   44.2214121
   11.4436450   44.2219238
   11.4272244   44.2311225
   11.4263726   44.2315477
   11.4254842   44.2318900
   11.4245673   44.2321463
   11.4236301   44.2323142
   11.4226813   44.2323922
   11.4217293   44.2323796
   11.4207828   44.2322766
   11.4198504   44.2320840
   11.4183668   44.2317031
   11.4175420   44.2314530
   11.4167419   44.2311328
   11.4159723   44.2307449
   11.4152389   44.2302922
   11.3999968   44.2199506
   11.3993047   44.2194361
   11.3986595   44.2188639
   11.3980660   44.2182382
   11.3927742   44.2121539
   11.3921551   44.2113656
   11.3916180   44.2105192
   11.3911684   44.2096233
   11.3908107   44.2086869
   11.3891503   44.2035865
   11.3890587   44.2033481
   11.3888611   44.2031864
   11.3815201   44.1977897
   11.3813270   44.1976614
   11.3810958   44.1976784
   11.3467914   44.2018452
   11.3458403   44.2019149
   11.3448869   44.2018937
   11.3439398   44.2017818
   11.3430077   44.2015801
   11.3420990   44.2012906
   11.3412221   44.2009159
   11.3338536   44.1973425
   11.3330243   44.1968908
   11.3322414   44.1963629
   11.3315117   44.1957634
   11.3297238   44.1941475
   11.3290005   44.1934231
   11.3283551   44.1926286
   11.3277942   44.1917722
   11.3273239   44.1908630
   11.3269489   44.1899105
   11.3266733   44.1889246
   11.3245336   44.1794180
   11.3244698   44.1791879
   11.3242627   44.1790692
   11.2920896   44.1626680
   11.2911986   44.1621544
   11.2903651   44.1615520
   11.2895978   44.1608672
   11.2889049   44.1601072
   11.2819583   44.1516526
   11.2817965   44.1514746
   11.2815717   44.1515601
   11.2726304   44.1554784
   11.2716642   44.1558436
   11.2706654   44.1561072
   11.2696449   44.1562663
   11.2686133   44.1563193
   11.2420839   44.1563105
   11.2409998   44.1562513
   11.2399286   44.1560748
   11.2388828   44.1557832
   11.2226519   44.1502927
   11.2217463   44.1499364
   11.2208797   44.1494937
   11.2200602   44.1489690
   11.2192956   44.1483670
   11.2185931   44.1476936
   11.2179594   44.1469551
   11.2174004   44.1461585
   11.2169216   44.1453113
   11.2165274   44.1444216
   11.2162215   44.1434978
   11.2160068   44.1425487
   11.2158854   44.1415831
   11.2158584   44.1406104
   11.2159262   44.1396396
   11.2160879   44.1386800
   11.2163422   44.1377407
   11.2166865   44.1368305
   11.2171177   44.1359582
   11.2176316   44.1351318
   11.2182234   44.1343593
   11.2188876   44.1336480
   11.2196176   44.1330046
   11.2204068   44.1324353
   11.2212476   44.1319453
   11.2221320   44.1315394
   11.2230517   44.1312213
   11.2239979   44.1309942
   11.2249618   44.1308601
   11.2286187   44.1305317
   11.2288567   44.1304986
   11.2290752   44.1303987
   11.2501796   44.1194887
   11.2510289   44.1190988
   11.2519107   44.1187899
   11.2528176   44.1185647
   11.2537415   44.1184251
   11.2616537   44.1176055
   11.2618908   44.1175690
   11.2619682   44.1173419
   11.2659220   44.1035471
   11.2659754   44.1033192
   11.2657471   44.1032675
   11.2578933   44.1018934
   11.2570037   44.1016956
   11.2561358   44.1014177
   11.2552968   44.1010619
   11.2544936   44.1006311
   11.2537331   44.1001291
   11.2530213   44.0995598
   11.2480645   44.0952106
   11.2478663   44.0950541
   11.2476170   44.0950942
   11.2297807   44.0989130
   11.2289025   44.0990605
   11.2280147   44.0991293
   11.2271243   44.0991188
   11.2262384   44.0990291
   11.2090087   44.0965064
   11.2087607   44.0964828
   11.2085168   44.0965338
   11.1609923   44.1090124
   11.1600591   44.1092103
   11.1591114   44.1093185
   11.1581576   44.1093359
   11.1572065   44.1092623
   11.1562668   44.1090984
   11.1395344   44.1053503
   11.1393086   44.1053105
   11.1390804   44.1053128
   11.1297493   44.1058311
   11.1286945   44.1058340
   11.1276452   44.1057258
   11.1266131   44.1055076
   11.1256098   44.1051819
   11.1046582   44.0971363
   11.1036295   44.0966732
   11.1026596   44.0960971
   11.0901398   44.0876712
   11.0899268   44.0875430
   11.0896788   44.0875591
   11.0741104   44.0893655
   11.0732090   44.0894290
   11.0723055   44.0894109
   11.0492813   44.0879058
   11.0490433   44.0879017
   11.0488420   44.0880288
   11.0431969   44.0919882
   11.0422964   44.0925508
   11.0413414   44.0930149
   11.0403426   44.0933750
   11.0393112   44.0936273
   11.0382588   44.0937687
   11.0227474   44.0950200
   11.0225060   44.0950516
   11.0223408   44.0952304
   11.0206163   44.0972931
   11.0199785   44.0979867
   11.0192783   44.0986172
   11.0185219   44.0991789
   11.0177160   44.0996670
   11.0168678   44.1000771
   11.0159846   44.1004055
   11.0150745   44.1006494
   11.0117841   44.1013668
   11.0115451   44.1014315
   11.0113359   44.1015640
   11.0006182   44.1091231
   11.0004237   44.1092757
   11.0004517   44.1095214
   11.0007599   44.1113790
   11.0008736   44.1123649
   11.0008890   44.1133572
   11.0008059   44.1143461
   11.0006253   44.1153220
   11.0003488   44.1162751
   10.9999792   44.1171962
   10.9995201   44.1180760
   10.9989760   44.1189060
   10.9983524   44.1196780
   10.9976553   44.1203844
   10.9968916   44.1210183
   10.9960689   44.1215733
   10.9951952   44.1220440
   10.9942792   44.1224258
   10.9933298   44.1227149
   10.9923564   44.1229085
   10.9913687   44.1230046
   10.9903762   44.1230024
   10.9893889   44.1229018
   10.9884164   44.1227039
   10.9874684   44.1224105
   10.9865540   44.1220246
   10.9856825   44.1215500
   10.9780814   44.1169075
   10.9772306   44.1163256
   10.9764442   44.1156592
   10.9757306   44.1149154
   10.9750973   44.1141020
   10.9745511   44.1132278
   10.9740978   44.1123020
   10.9737423   44.1113345
   10.9720532   44.1058861
   10.9719692   44.1056559
   10.9718215   44.1054603
   10.9567733   44.0874496
   10.9566338   44.0872961
   10.9564714   44.0871683
   10.9448131   44.0787521
   10.9446248   44.0786288
   10.9444183   44.0785417
   10.9322500   44.0740391
   10.9313184   44.0736396
   10.9304320   44.0731479
   10.9295999   44.0725689
   10.9288308   44.0719087
   10.9281324   44.0711740
   10.9192517   44.0608284
   10.9190841   44.0606517
   10.9188423   44.0606233
   10.9098234   44.0600170
   10.9095718   44.0600129
   10.9093305   44.0600845
   10.8974391   44.0642792
   10.8972233   44.0643673
   10.8972643   44.0645968
   10.8996735   44.0750993
   10.8998484   44.0760869
   10.8999236   44.0770870
   10.8998982   44.0780896
   10.8997724   44.0790847
   10.8995477   44.0800621
   10.8992261   44.0810121
   10.8988110   44.0819251
   10.8983066   44.0827920
   10.8977179   44.0836039
   10.8970507   44.0843528
   10.8963120   44.0850311
   10.8901957   44.0901058
   10.8894639   44.0906583
   10.8886845   44.0911416
   10.8878641   44.0915514
   10.8771561   44.0962996
   10.8762537   44.0966485
   10.8753219   44.0969086
   10.8743693   44.0970775
   10.8734048   44.0971535
   10.8724375   44.0971359
   10.8488721   44.0955655
   10.8486440   44.0955609
   10.8484731   44.0957121
   10.8435833   44.1004619
   10.8434119   44.1006464
   10.8433526   44.1008912
   10.8432022   44.1016877
   10.8429686   44.1026569
   10.8426397   44.1035980
   10.8422187   44.1045017
   10.8417098   44.1053590
   10.8411180   44.1061614
   10.8404494   44.1069008
   10.8397104   44.1075700
   10.8389085   44.1081623
   10.8362232   44.1099458
   10.8353260   44.1104765
   10.8343784   44.1109109
   10.8333907   44.1112443
   10.8323737   44.1114731
   10.8313385   44.1115947
   10.8302961   44.1116080
   10.8292581   44.1115126
   10.8180797   44.1098947
   10.8178418   44.1098720
   10.8176206   44.1099626
   10.8027444   44.1169210
   10.8024990   44.1170530
   10.8022893   44.1172364
   10.7963047   44.1230908
   10.7956345   44.1236899
   10.7949132   44.1242265
   10.7941466   44.1246960
   10.7933409   44.1250949
   10.7925027   44.1254197
   10.7730769   44.1319602
   10.7728469   44.1320507
   10.7726703   44.1322235
   10.7581119   44.1479688
   10.7574411   44.1486290
   10.7567112   44.1492233
   10.7559287   44.1497462
   10.7551005   44.1501934
   10.7542339   44.1505606
   10.7533366   44.1508448
   10.7524165   44.1510433
   10.7355121   44.1538660
   10.7343467   44.1539909
   10.7331747   44.1539787
   10.7088808   44.1522974
   10.7086304   44.1522926
   10.7083808   44.1523131
   10.6923134   44.1544459
   10.6914369   44.1545232
   10.6905569   44.1545232
   10.6896804   44.1544458
   10.6888141   44.1542916
   10.6659290   44.1491712
   10.6657012   44.1491314
   10.6654874   44.1492192
   10.6583492   44.1525509
   10.6575075   44.1528980
   10.6566376   44.1531672
   10.6557469   44.1533561
   10.6548427   44.1534632
   10.6470881   44.1540252
   10.6461042   44.1540480
   10.6451229   44.1539739
   10.6441537   44.1538038
   10.6432058   44.1535392
   10.6422885   44.1531827
   10.6414108   44.1527378
   10.6405810   44.1522088
   10.6398072   44.1516008
   10.6390969   44.1509196
   10.6384570   44.1501720
   10.6378937   44.1493651
   10.6374125   44.1485067
   10.6352202   44.1441015
   10.6351005   44.1438881
   10.6349079   44.1437374
   10.6307571   44.1408092
   10.6299503   44.1401756
   10.6292126   44.1394627
   10.6285519   44.1386780
   10.6279750   44.1378298
   10.6274881   44.1369268
   10.6270962   44.1359788
   10.6268035   44.1349956
   10.6266131   44.1339876
   10.6265270   44.1329654
   10.6260579   44.1186502
   10.6260392   44.1184201
   10.6258107   44.1183869
   10.6178289   44.1176179
   10.6167538   44.1174549
   10.6157028   44.1171762
   10.6146882   44.1167850
   10.6038371   44.1119076
   10.6036179   44.1118213
   10.6033824   44.1118227
   10.5941172   44.1123184
   10.5939022   44.1123393
   10.5936998   44.1124150
   10.5834635   44.1167594
   10.5832573   44.1168584
   10.5831347   44.1170512
   10.5778042   44.1263555
   10.5773151   44.1271255
   10.5767578   44.1278477
   10.5761371   44.1285161
   10.5754581   44.1291253
   10.5747263   44.1296699
   10.5670507   44.1348568
   10.5663639   44.1352815
   10.5656452   44.1356494
   10.5236670   44.1550405
   10.5234396   44.1551604
   10.5233022   44.1553777
   10.5172851   44.1660950
   10.5171821   44.1663005
   10.5172677   44.1665138
   10.5176477   44.1673452
   10.5180078   44.1682460
   10.5182788   44.1691776
   10.5184583   44.1701310
   10.5185446   44.1710973
   10.5185369   44.1720675
   10.5184351   44.1730323
   10.5182404   44.1739827
   10.5179544   44.1749098
   10.5175800   44.1758048
   10.5171206   44.1766593
   10.5165806   44.1774653
   10.5159650   44.1782151
   10.5152796   44.1789018
   10.5145309   44.1795188
   10.5137260   44.1800604
   10.4875921   44.1958579
   10.4873984   44.1959878
   10.4872851   44.1961915
   10.4830671   44.2046940
   10.4829725   44.2049103
   10.4830555   44.2051314
   10.4839975   44.2073151
   10.4843488   44.2082571
   10.4846038   44.2092296
   10.4847598   44.2102229
   10.4848152   44.2112267
   10.4847696   44.2122311
   10.4846234   44.2132258
   10.4843781   44.2142008
   10.4840360   44.2151463
   10.4836008   44.2160526
   10.4830768   44.2169106
   10.4824692   44.2177117
   10.4817843   44.2184477
   10.4810289   44.2191112
   10.4802108   44.2196956
   10.4793381   44.2201948
   10.4784196   44.2206038
   10.4774648   44.2209186
   10.4764831   44.2211359
   10.4733109   44.2216725
   10.4730354   44.2217354
   10.4727813   44.2218589
   10.4655112   44.2259188
   10.4646826   44.2263324
   10.4638192   44.2266676
   10.4629285   44.2269215
   10.4620181   44.2270919
   10.4610959   44.2271773
   10.4601697   44.2271771
   10.4478296   44.2266016
   10.4469664   44.2265237
   10.4461132   44.2263714
   10.4452764   44.2261458
   10.4444623   44.2258486
   10.4381781   44.2232405
   10.4379587   44.2231614
   10.4377273   44.2231907
   10.4299240   44.2245573
   10.4296839   44.2246117
   10.4294592   44.2247123
   10.4125145   44.2333309
   10.4123082   44.2334486
   10.4121798   44.2336485
   10.4062780   44.2438899
   10.4057670   44.2446869
   10.4051830   44.2454319
   10.4045311   44.2461184
   10.4038172   44.2467402
   10.4030477   44.2472916
   10.4022295   44.2477679
   10.3819168   44.2583372
   10.3817070   44.2584597
   10.3815251   44.2586206
   10.3756994   44.2643028
   10.3749815   44.2649388
   10.3742060   44.2655031
   10.3733799   44.2659904
   10.3725110   44.2663965
   10.3716072   44.2667174
   10.3706768   44.2669502
   10.3614980   44.2687846
   10.3604129   44.2689402
   10.3593172   44.2689761
   10.3582242   44.2688918
   10.3438748   44.2669898
   10.3436505   44.2669704
   10.3434293   44.2670119
   10.3171444   44.2731925
   10.3169053   44.2732616
   10.3166975   44.2733984
   10.3069636   44.2805340
   10.3060871   44.2811084
   10.3051554   44.2815879
   10.3041786   44.2819673
   10.3031675   44.2822424
   10.3021331   44.2824102
   10.3001400   44.2826271
   10.2991189   44.2826856
   10.2980972   44.2826395
   10.2970855   44.2824893
   10.2960945   44.2822365
   10.2951344   44.2818838
   10.2711027   44.2716322
   10.2709072   44.2715583
   10.2707063   44.2715011
   10.2539104   44.2674677
   10.2536727   44.2674229
   10.2534738   44.2675604
   10.2366621   44.2804503
   10.2364879   44.2805971
   10.2363601   44.2807857
   10.2275774   44.2951262
   10.2270117   44.2959537
   10.2263661   44.2967204
   10.2256469   44.2974186
   10.2248614   44.2980412
   10.2240176   44.2985822
   10.2220901   44.2996855
   10.2212543   44.3001132
   10.2203822   44.3004606
   10.2194813   44.3007246
   10.2185596   44.3009030
   10.2176252   44.3009942
   10.2166864   44.3009974
   10.2157514   44.3009125
   10.2101255   44.3001340
   10.2098840   44.3001127
   10.2096994   44.3002698
   10.1992325   44.3101130
   10.1984647   44.3107653
   10.1976351   44.3113371
   10.1967523   44.3118225
   10.1958251   44.3122167
   10.1948629   44.3125155
   10.1938756   44.3127160
   10.1883367   44.3135527
   10.1880949   44.3136017
   10.1878912   44.3137407
   10.1620690   44.3333215
   10.1618723   44.3334876
   10.1618110   44.3337377
   10.1609912   44.3380528
   10.1607724   44.3389675
   10.1604686   44.3398576
   10.1600825   44.3407152
   10.1596176   44.3415328
   10.1590779   44.3423031
   10.1584683   44.3430192
   10.1577940   44.3436749
   10.1570612   44.3442644
   10.1562762   44.3447824
   10.1495520   44.3487790
   10.1486382   44.3492601
   10.1476796   44.3496443
   10.1466866   44.3499277
   10.1456696   44.3501072
   10.1311661   44.3519000
   10.1301980   44.3519722
   10.1292274   44.3519502
   10.1282636   44.3518341
   10.1095843   44.3486592
   10.1085823   44.3484354
   10.1076084   44.3481100
   10.1066731   44.3476865
   10.1057861   44.3471693
   10.0997912   44.3432481
   10.0995804   44.3431250
   10.0993764   44.3432590
   10.0909274   44.3494401
   10.0900524   44.3500125
   10.0891223   44.3504904
   10.0646589   44.3614851
   10.0644742   44.3615775
   10.0643078   44.3616987
   10.0570981   44.3674202
   10.0562939   44.3679959
   10.0554368   44.3684894
   10.0545351   44.3688958
   10.0535977   44.3692112
   10.0526337   44.3694324
   10.0429363   44.3711579
   10.0427042   44.3712109
   10.0424966   44.3713275
   10.0335784   44.3769203
   10.0326449   44.3774385
   10.0316615   44.3778541
   10.0078598   44.3864479
   10.0076638   44.3865282
   10.0074848   44.3866402
   9.9944556   44.3955803
   9.9942603   44.3957290
   9.9940980   44.3959131
   9.9877291   44.4039005
   9.9875839   44.4041030
   9.9876319   44.4043475
   9.9892024   44.4106256
   9.9892715   44.4108544
   9.9894219   44.4110403
   9.9971801   44.4197388
   9.9978142   44.4205265
   9.9983655   44.4213742
   9.9988283   44.4222733
   10.0006533   44.4263074
   10.0010216   44.4272446
   10.0012938   44.4282141
   10.0014672   44.4292060
   10.0015399   44.4302104
   10.0015112   44.4312170
   10.0013814   44.4322156
   10.0011518   44.4331961
   10.0006071   44.4350878
   10.0002967   44.4359986
   9.9999002   44.4368753
   9.9994213   44.4377098
   9.9988644   44.4384944
   9.9982346   44.4392219
   9.9975378   44.4398855
   9.9967805   44.4404791
   9.9959697   44.4409971
   9.9951128   44.4414348
   9.9942178   44.4417881
   9.9932930   44.4420538
   9.9923470   44.4422294
   9.9763573   44.4444070
   9.9761201   44.4444512
   9.9759315   44.4446017
   9.9698825   44.4499310
   9.9697117   44.4500967
   9.9696156   44.4503145
   9.9669040   44.4573555
   9.9664710   44.4583234
   9.9659379   44.4592401
   9.9653108   44.4600951
   9.9645967   44.4608790
   9.9638035   44.4615828
   9.9629403   44.4621986
   9.9611826   44.4633171
   9.9602777   44.4638288
   9.9593247   44.4642437
   9.9583337   44.4645576
   9.9573155   44.4647668
   9.9261236   44.4695029
   9.9250881   44.4696053
   9.9240477   44.4695997
   9.9230134   44.4694859
   9.9219966   44.4692653
   9.9097103   44.4659218
   9.9094832   44.4658714
   9.9092580   44.4659295
   9.9007504   44.4685561
   9.8997564   44.4688080
   9.8987418   44.4689567
   9.8977174   44.4690008
   9.8966938   44.4689397
   9.8770446   44.4667519
   9.8767581   44.4667366
   9.8764717   44.4667544
   9.8624243   44.4684445
   9.8612976   44.4685159
   9.8601700   44.4684598
   9.8274833   44.4649761
   9.8264825   44.4648179
   9.8255028   44.4645591
   9.8245544   44.4642026
   9.8236469   44.4637519
   9.8227897   44.4632117
   9.8219916   44.4625875
   9.8212607   44.4618857
   9.8206046   44.4611136
   9.8200299   44.4602791
   9.8195427   44.4593907
   9.8191479   44.4584576
   9.8188495   44.4574893
   9.8186507   44.4564957
   9.8177139   44.4501627
   9.8176673   44.4499279
   9.8174563   44.4498149
   9.8022322   44.4425967
   9.8014305   44.4421710
   9.8006707   44.4416744
   9.7999591   44.4411109
   9.7993015   44.4404852
   9.7750629   44.4152302
   9.7748819   44.4150595
   9.7746848   44.4149077
   9.7632702   44.4069940
   9.7624895   44.4063937
   9.7617717   44.4057196
   9.7611236   44.4049782
   9.7605517   44.4041767
   9.7600613   44.4033227
   9.7596573   44.4024247
   9.7593435   44.4014913
   9.7591231   44.4005315
   9.7589982   44.3995548
   9.7589699   44.3985704
   9.7590386   44.3975881
   9.7592035   44.3966173
   9.7594632   44.3956674
   9.7598150   44.3947477
   9.7602556   44.3938670
   9.7607806   44.3930339
   9.7613850   44.3922565
   9.7620993   44.3914258
   9.7622465   44.3912365
   9.7622171   44.3909986
   9.7617248   44.3881607
   9.7616731   44.3879303
   9.7614407   44.3878886
   9.7536676   44.3868819
   9.7527232   44.3867132
   9.7517993   44.3864548
   9.7509045   44.3861091
   9.7500469   44.3856791
   9.7492344   44.3851690
   9.7484746   44.3845834
   9.7477744   44.3839277
   9.7471402   44.3832079
   9.7465779   44.3824306
   9.7438304   44.3782214
   9.7436932   44.3780317
   9.7434590   44.3780357
   9.7259333   44.3791834
   9.7249634   44.3791998
   9.7239966   44.3791221
   9.7230418   44.3789512
   9.7221080   44.3786885
   9.7212041   44.3783366
   9.7203386   44.3778987
   9.7195195   44.3773791
   9.7187546   44.3767826
   9.7180512   44.3761147
   9.7174157   44.3753819
   9.7168542   44.3745909
   9.7163720   44.3737492
   9.7159737   44.3728648
   9.7156628   44.3719460
   9.7154425   44.3710014
   9.7153147   44.3700398
   9.7152807   44.3690704
   9.7153408   44.3681023
   9.7154943   44.3671445
   9.7157400   44.3662062
   9.7160754   44.3652960
   9.7164974   44.3644226
   9.7170020   44.3635943
   9.7175845   44.3628187
   9.7182395   44.3621031
   9.7210236   44.3593431
   9.7211702   44.3591845
   9.7212710   44.3589935
   9.7310643   44.3382963
   9.7315455   44.3374003
   9.7321152   44.3365579
   9.7327675   44.3357776
   9.7334957   44.3350676
   9.7342923   44.3344353
   9.7351489   44.3338871
   9.7360568   44.3334288
   9.7370066   44.3330651
   9.7559356   44.3268998
   9.7561442   44.3268213
   9.7562978   44.3266598
   9.7703175   44.3105122
   9.7710544   44.3097493
   9.7718680   44.3090687
   9.7727490   44.3084781
   9.8023288   44.2908491
   9.8031492   44.2904105
   9.8040068   44.2900501
   9.8048942   44.2897709
   9.8058037   44.2895754
   9.8067274   44.2894652
   9.8076574   44.2894414
   9.8085855   44.2895041
   9.8169704   44.2904638
   9.8171972   44.2904793
   9.8174074   44.2903924
   9.8581735   44.2712896
   9.8583776   44.2711820
   9.8584734   44.2709723
   9.8657864   44.2527630
   9.8658703   44.2525176
   9.8658743   44.2522583
   9.8655569   44.2436817
   9.8655673   44.2427249
   9.8656691   44.2417736
   9.8658613   44.2408363
   9.8661422   44.2399218
   9.8665093   44.2390382
   9.8669591   44.2381938
   9.8674875   44.2373962
   9.8680898   44.2366527
   9.8687603   44.2359702
   9.8798120   44.2257492
   9.8799808   44.2255767
   9.8798515   44.2251887
   9.8798043   44.2250679
   9.8795389   44.2241262
   9.8793669   44.2231631
   9.8792898   44.2221877
   9.8793084   44.2212095
   9.8794225   44.2202379
   9.8796310   44.2192820
   9.8799319   44.2183510
   9.8803223   44.2174539
   9.8807985   44.2165993
   9.8813560   44.2157953
   9.8819893   44.2150496
   9.8826925   44.2143694
   9.8834588   44.2137611
   9.8842809   44.2132306
   9.8851509   44.2127830
   9.8860604   44.2124226
   9.8870009   44.2121528
   9.8879632   44.2119761
   9.8889381   44.2118944
   9.8899164   44.2119083
   9.8908886   44.2120177
   9.8910693   44.2120471
   9.9103218   44.2142332
   9.9105522   44.2142483
   9.9106808   44.2140565
   9.9132536   44.2097940
   9.9137816   44.2090063
   9.9143818   44.2082722
   9.9150488   44.2075982
   9.9157766   44.2069904
   9.9165588   44.2064543
   9.9173882   44.2059947
   9.9182574   44.2056157
   9.9191586   44.2053208
   9.9200836   44.2051125
   9.9299068   44.2033857
   9.9301609   44.2033271
   9.9303687   44.2031693
   9.9377914   44.1968880
   9.9379582   44.1967322
   9.9377615   44.1966163
   9.9256409   44.1902511
   9.9248074   44.1897606
   9.9240252   44.1891918
   9.9233015   44.1885501
   9.9226433   44.1878415
   9.9224259   44.1875835
   9.9218258   44.1867952
   9.9213067   44.1859514
   9.9208736   44.1850604
   9.9205308   44.1841308
   9.9202817   44.1831720
   9.9201286   44.1821931
   9.9200732   44.1812040
   9.9201159   44.1802142
   9.9202564   44.1792335
   9.9204932   44.1782715
   9.9208240   44.1773377
   9.9212456   44.1764411
   9.9217538   44.1755907
   9.9223437   44.1747948
   9.9230095   44.1740611
   9.9237446   44.1733969
   9.9245418   44.1728087
   9.9253933   44.1723023
   9.9262907   44.1718826
   9.9272253   44.1715538
   9.9280642   44.1713046
   9.9289479   44.1710853
   9.9298479   44.1709473
   9.9307567   44.1708917
   9.9316668   44.1709191
   9.9690800   44.1737515
   9.9693213   44.1737580
   9.9695373   44.1736502
   9.9757754   44.1701487
   9.9759625   44.1700324
   9.9760972   44.1698587
   9.9822130   44.1612066
   9.9823410   44.1610057
   9.9823841   44.1607713
   9.9860989   44.1331727
   9.9862709   44.1322355
   9.9865312   44.1313189
   9.9868777   44.1304312
   9.9873070   44.1295805
   9.9878154   44.1287746
   9.9883982   44.1280207
   9.9890501   44.1273257
   9.9897651   44.1266959
   9.9905369   44.1261371
   9.9978153   44.1213779
   9.9980038   44.1212417
   9.9980103   44.1212348
   9.9987270   44.1205492
   9.9995080   44.1199380
   10.0003458   44.1194072
   10.0012320   44.1189619
   10.0021580   44.1186066
   10.0031146   44.1183448
   10.0040924   44.1181791
   10.0050818   44.1181110
   10.0060731   44.1181412
   10.0070566   44.1182695
   10.0080225   44.1184946
   10.0089613   44.1188143
   10.0098639   44.1192253
   10.0163017   44.1225524
   10.0165127   44.1226491
   10.0167444   44.1226619
   10.0296210   44.1227679
   10.0298787   44.1227566
   10.0301339   44.1227188
   10.0482791   44.1190606
   10.0485248   44.1189978
   10.0487400   44.1188637
   10.0717352   44.1028496
   10.0719387   44.1026914
   10.0720359   44.1024528
   10.0752777   44.0931268
   10.0753465   44.0928916
   10.0752252   44.0926787
   10.0671400   44.0799982
   10.0670128   44.0798170
   10.0668305   44.0796920
   10.0359746   44.0604838
   10.0351878   44.0599401
   10.0344565   44.0593237
   10.0337874   44.0586403
   10.0331867   44.0578961
   10.0239158   44.0452150
   10.0233638   44.0443743
   10.0228991   44.0434824
   9.9499013   43.8843386
   9.9497932   43.8841301
   9.9495644   43.8840772
   7.7299270   43.4823482
   7.7297151   43.4823192
   7.7295016   43.4823084
   7.5556169   43.4809919
   7.5553814   43.4810017
   7.5553457   43.4812346
   7.5242415   43.7815273
   7.5240943   43.7824891
   7.5238543   43.7834320
   7.5235238   43.7843472
   7.4860978   43.8740579
   7.4860155   43.8742869
   7.4861835   43.8744631
   7.6951903   44.0727444
   7.6958805   44.0734680
   7.6964949   44.0742570
   7.6970274   44.0751034
   7.6974728   44.0759987
   7.6978265   44.0769340
   7.6980851   44.0779000
   7.6982458   44.0788870
   7.6983072   44.0798851
   7.6982686   44.0808844
   7.6981304   44.0818748
   7.6978939   44.0828464
   7.6975616   44.0837896
   7.6971368   44.0846949
   7.6966236   44.0855532
   7.6960274   44.0863559
   7.6452653   44.1479999
   7.6446282   44.1487028
   7.6439273   44.1493422
   7.6431690   44.1499123
   7.6423601   44.1504079
   7.6415079   44.1508247
   7.6406200   44.1511588
   7.6397045   44.1514073
   7.6387695   44.1515680
   7.6378235   44.1516393
   7.6368750   44.1516206
   7.6359326   44.1515121
   7.5230243   44.1330564
   7.5216238   44.1327225
   7.4266640   44.1027090
   7.4264127   44.1026439
   7.4261534   44.1026597
   7.3552360   44.1107335
   7.3550058   44.1107707
   7.3547865   44.1108502
   7.1537294   44.1946169
   7.1527710   44.1949601
   7.1517826   44.1952041
   7.0145740   44.2217428
   7.0143360   44.2218012
   7.0141546   44.2219660
   6.8828436   44.3537777
   6.8826752   44.3539651
   6.8826723   44.3542172
   6.8865704   44.4518291
   6.8865622   44.4527966
   6.8864605   44.4537589
   6.8862663   44.4547068
   6.8859814   44.4556314
   6.8856085   44.4565243
   6.8851510   44.4573769
   6.8846133   44.4581813
   6.8360479   44.5237290
   6.8359153   44.5239282
   6.8360891   44.5240926
   6.9506437   44.6220846
   6.9513614   44.6227627
   6.9520088   44.6235083
   6.9525794   44.6243140
   6.9530678   44.6251722
   6.9534693   44.6260743
   6.9537797   44.6270116
   6.9539963   44.6279749
   6.9541168   44.6289549
   6.9541400   44.6299420
   6.9540658   44.6309266
   6.9538949   44.6318991
   6.9536289   44.6328499
   6.9532704   44.6337700
   6.9528229   44.6346501
   6.9522908   44.6354819
   6.9370505   44.6568970
   6.9369221   44.6570979
   6.9370974   44.6572595
   7.0139933   44.7213519
   7.0147167   44.7220178
   7.0153712   44.7227514
   7.0159504   44.7235458
   7.0164489   44.7243932
   7.0168618   44.7252855
   7.0171850   44.7262139
   7.0174155   44.7271697
   7.0175511   44.7281435
   7.0175903   44.7291258
   7.0175329   44.7301073
   7.0173794   44.7310784
   7.0171313   44.7320297
   6.9998212   44.7871495
   6.9997627   44.7873713
   6.9997671   44.7876006
   7.0019905   44.8215465
   7.0020072   44.8225057
   7.0019319   44.8234621
   7.0017653   44.8244068
   7.0015090   44.8253313
   7.0011653   44.8262269
   7.0007373   44.8270855
   7.0002290   44.8278991
   6.9996451   44.8286603
   6.9989909   44.8293620
   6.9982725   44.8299978
   6.9974965   44.8305618
   6.9966700   44.8310489
   6.9958007   44.8314546
   6.9948964   44.8317750
   6.9939657   44.8320074
   6.9930169   44.8321495
   6.9920589   44.8322000
   6.8753662   44.8327489
   6.8751260   44.8327617
   6.8749086   44.8328646
   6.7390217   44.9055068
   6.7388211   44.9056268
   6.7388043   44.9058600
   6.7366348   44.9969021
   6.7365610   44.9978996
   6.7363879   44.9988847
   6.7361173   44.9998476
   6.7357519   45.0007786
   6.7352952   45.0016685
   6.7347520   45.0025083
   6.7341276   45.0032897
   6.7334282   45.0040047
   6.7326609   45.0046463
   6.7318334   45.0052081
   6.7309539   45.0056844
   6.7300312   45.0060705
   6.7290745   45.0063624
   6.7280935   45.0065573
   6.6695385   45.0151737
   6.6692995   45.0152212
   6.6691665   45.0154253
   6.6028203   45.1292368
   6.6027137   45.1294423
   6.6029367   45.1295047
END
END
