north-america-canada-ontario
1
   -95.1526608   49.3800117
   -95.1488893   49.3875381
   -95.1563254   49.3926072
   -95.1488894   49.4074442
   -95.1563179   49.4125278
   -95.1488906   49.4273502
   -95.1563114   49.4324478
   -95.1488909   49.4472567
   -95.1563051   49.4523683
   -95.1488917   49.4671632
   -95.1562984   49.4722889
   -95.1488931   49.4870692
   -95.1562919   49.4922088
   -95.1488936   49.5069752
   -95.1562861   49.5121293
   -95.1488936   49.5268813
   -95.1562794   49.5320499
   -95.1488950   49.5467873
   -95.1562721   49.5519698
   -95.1488951   49.5666938
   -95.1562659   49.5718904
   -95.1488968   49.5866003
   -95.1562591   49.5918108
   -95.1488973   49.6065063
   -95.1562526   49.6117308
   -95.1488978   49.6264123
   -95.1562469   49.6316514
   -95.1488987   49.6463183
   -95.1562401   49.6515719
   -95.1488992   49.6662244
   -95.1562328   49.6714919
   -95.1488996   49.6861304
   -95.1562270   49.6914125
   -95.1489003   49.7060369
   -95.1562199   49.7113329
   -95.1489015   49.7259434
   -95.1562134   49.7312530
   -95.1489029   49.7458494
   -95.1562076   49.7511734
   -95.1489029   49.7657554
   -95.1562009   49.7710939
   -95.1489034   49.7856615
   -95.1561936   49.7910140
   -95.1489046   49.8055675
   -95.1561878   49.8109344
   -95.1489047   49.8254735
   -95.1561810   49.8308550
   -95.1489050   49.8453800
   -95.1561742   49.8507751
   -95.1489070   49.8652865
   -95.1561684   49.8706955
   -95.1489071   49.8851925
   -95.1561617   49.8906161
   -95.1489084   49.9050986
   -95.1561544   49.9105360
   -95.1489088   49.9250046
   -95.1561485   49.9304565
   -95.1489089   49.9449106
   -95.1561419   49.9503771
   -95.1489100   49.9648171
   -95.1561350   49.9702970
   -95.1489112   49.9847236
   -95.1561291   49.9902175
   -95.1489113   50.0046296
   -95.1561225   50.0101381
   -95.1489126   50.0245357
   -95.1561152   50.0300581
   -95.1489130   50.0444416
   -95.1561094   50.0499787
   -95.1489139   50.0643477
   -95.1561027   50.0698991
   -95.1489144   50.0842537
   -95.1560962   50.0898191
   -95.1489147   50.1041602
   -95.1560900   50.1097397
   -95.1489163   50.1240667
   -95.1560833   50.1296601
   -95.1489167   50.1439728
   -95.1560760   50.1495801
   -95.1489171   50.1638787
   -95.1560702   50.1695007
   -95.1489180   50.1837848
   -95.1560635   50.1894211
   -95.1489186   50.2036908
   -95.1560571   50.2093412
   -95.1489196   50.2235973
   -95.1560509   50.2292617
   -95.1489204   50.2435038
   -95.1560441   50.2491822
   -95.1489208   50.2634099
   -95.1560369   50.2691023
   -95.1489220   50.2833158
   -95.1560311   50.2890227
   -95.1489222   50.3032218
   -95.1560243   50.3089432
   -95.1489227   50.3231279
   -95.1560179   50.3288633
   -95.1489240   50.3430339
   -95.1560121   50.3487837
   -95.1489239   50.3629404
   -95.1560051   50.3687043
   -95.1489258   50.3828470
   -95.1559978   50.3886242
   -95.1489261   50.4027529
   -95.1559919   50.4085447
   -95.1489263   50.4226589
   -95.1559853   50.4284654
   -95.1489276   50.4425650
   -95.1559788   50.4483853
   -95.1489281   50.4624710
   -95.1559729   50.4683058
   -95.1489282   50.4823770
   -95.1559663   50.4882264
   -95.1489292   50.5022836
   -95.1559586   50.5081463
   -95.1489302   50.5221900
   -95.1559529   50.5280669
   -95.1489312   50.5420960
   -95.1559462   50.5479873
   -95.1489317   50.5620020
   -95.1559396   50.5679073
   -95.1489322   50.5819081
   -95.1559339   50.5878280
   -95.1489331   50.6018141
   -95.1559272   50.6077483
   -95.1489333   50.6217207
   -95.1559195   50.6276684
   -95.1489343   50.6416271
   -95.1559137   50.6475890
   -95.1489352   50.6615331
   -95.1559070   50.6675094
   -95.1489357   50.6814391
   -95.1559006   50.6874295
   -95.1489370   50.7013452
   -95.1558948   50.7073499
   -95.1489372   50.7212512
   -95.1558880   50.7272704
   -95.1489376   50.7411573
   -95.1558809   50.7471905
   -95.1489385   50.7610637
   -95.1558741   50.7671104
   -95.1489396   50.7809702
   -95.1558681   50.7870309
   -95.1489398   50.8008762
   -95.1558615   50.8069516
   -95.1489411   50.8207822
   -95.1558551   50.8268715
   -95.1489416   50.8406883
   -95.1558493   50.8467921
   -95.1489425   50.8605944
   -95.1558418   50.8667125
   -95.1489426   50.8805008
   -95.1558350   50.8866325
   -95.1489436   50.9004073
   -95.1558292   50.9065531
   -95.1489446   50.9203133
   -95.1558225   50.9264735
   -95.1489451   50.9402193
   -95.1558160   50.9463935
   -95.1489456   50.9601254
   -95.1558102   50.9663142
   -95.1489465   50.9800315
   -95.1558027   50.9862345
   -95.1489469   50.9999374
   -95.1557963   51.0061547
   -95.1489479   51.0198439
   -95.1557901   51.0260751
   -95.1489486   51.0397504
   -95.1557834   51.0459956
   -95.1489491   51.0596564
   -95.1557770   51.0659157
   -95.1489504   51.0795624
   -95.1557711   51.0858361
   -95.1489505   51.0994686
   -95.1557638   51.1057567
   -95.1489516   51.1193745
   -95.1557573   51.1256766
   -95.1489521   51.1392805
   -95.1557513   51.1455971
   -95.1489521   51.1591870
   -95.1557445   51.1655178
   -95.1489539   51.1790935
   -95.1557380   51.1854376
   -95.1489544   51.1989995
   -95.1557320   51.2053581
   -95.1489545   51.2189057
   -95.1557247   51.2252788
   -95.1489556   51.2388116
   -95.1557182   51.2451987
   -95.1489561   51.2587176
   -95.1557124   51.2651193
   -95.1489569   51.2786241
   -95.1557055   51.2850397
   -95.1489579   51.2985306
   -95.1556990   51.3049597
   -95.1489584   51.3184366
   -95.1556931   51.3248804
   -95.1489593   51.3383428
   -95.1556857   51.3448007
   -95.1489596   51.3582487
   -95.1556792   51.3647207
   -95.1489601   51.3781547
   -95.1556733   51.3846414
   -95.1489611   51.3980607
   -95.1556667   51.4045617
   -95.1489614   51.4179672
   -95.1556601   51.4244819
   -95.1489631   51.4378737
   -95.1556541   51.4444023
   -95.1489633   51.4577799
   -95.1556466   51.4643228
   -95.1489636   51.4776857
   -95.1556403   51.4842429
   -95.1489649   51.4975918
   -95.1556344   51.5041633
   -95.1489651   51.5174978
   -95.1556276   51.5240838
   -95.1489653   51.5374043
   -95.1556210   51.5440040
   -95.1489671   51.5573108
   -95.1556151   51.5639243
   -95.1489673   51.5772170
   -95.1556078   51.5838450
   -95.1489683   51.5971228
   -95.1556013   51.6037648
   -95.1489688   51.6170289
   -95.1555953   51.6236853
   -95.1489691   51.6369349
   -95.1555887   51.6436060
   -95.1489703   51.6568409
   -95.1555823   51.6635259
   -95.1489706   51.6767474
   -95.1555761   51.6834464
   -95.1489712   51.6966541
   -95.1555687   51.7033671
   -95.1489723   51.7165599
   -95.1555623   51.7232869
   -95.1489728   51.7364659
   -95.1555565   51.7432076
   -95.1489738   51.7563720
   -95.1555498   51.7631279
   -95.1489743   51.7762780
   -95.1555433   51.7830479
   -95.1489748   51.7961840
   -95.1555374   51.8029686
   -95.1489754   51.8160907
   -95.1555298   51.8228889
   -95.1489762   51.8359970
   -95.1555233   51.8428090
   -95.1489767   51.8559030
   -95.1555174   51.8627296
   -95.1489777   51.8758091
   -95.1555108   51.8826500
   -95.1489782   51.8957151
   -95.1555044   51.9025702
   -95.1489794   51.9156211
   -95.1554985   51.9224905
   -95.1489795   51.9355276
   -95.1554915   51.9424110
   -95.1489803   51.9554343
   -95.1554844   51.9623312
   -95.1489814   51.9753401
   -95.1554785   51.9822515
   -95.1489817   51.9952461
   -95.1554717   52.0021720
   -95.1489822   52.0151522
   -95.1554654   52.0220922
   -95.1489834   52.0350582
   -95.1554595   52.0420126
   -95.1489837   52.0549642
   -95.1554529   52.0619333
   -95.1489845   52.0748709
   -95.1554455   52.0818531
   -95.1489853   52.0947772
   -95.1554395   52.1017736
   -95.1489856   52.1146832
   -95.1554329   52.1216943
   -95.1489868   52.1345893
   -95.1554265   52.1416141
   -95.1489873   52.1544953
   -95.1554205   52.1615346
   -95.1489876   52.1744013
   -95.1554139   52.1814553
   -95.1489885   52.1943080
   -95.1554065   52.2013751
   -95.1489892   52.2142143
   -95.1554007   52.2212958
   -95.1489902   52.2341203
   -95.1553940   52.2412162
   -95.1489907   52.2540263
   -95.1553875   52.2611362
   -95.1489912   52.2739324
   -95.1553816   52.2810569
   -95.1489922   52.2938384
   -95.1553750   52.3009772
   -95.1489926   52.3137446
   -95.1553678   52.3208972
   -95.1489927   52.3336509
   -95.1553617   52.3408179
   -95.1489942   52.3535574
   -95.1553550   52.3607382
   -95.1489946   52.3734634
   -95.1553487   52.3806584
   -95.1489958   52.3933694
   -95.1553428   52.4005787
   -95.1489961   52.4132755
   -95.1553360   52.4204992
   -95.1489965   52.4331817
   -95.1553290   52.4404195
   -95.1489973   52.4530880
   -95.1553228   52.4603398
   -95.1489981   52.4729945
   -95.1553161   52.4802603
   -95.1489985   52.4929005
   -95.1553097   52.5001805
   -95.1489997   52.5128065
   -95.1553038   52.5201008
   -95.1490001   52.5327126
   -95.1552972   52.5400215
   -95.1490012   52.5526188
   -95.1552901   52.5599413
   -95.1490015   52.5725246
   -95.1552840   52.5798618
   -95.1490015   52.5924311
   -95.1552773   52.5997825
   -95.1490031   52.6123376
   -95.1552709   52.6197023
   -95.1490036   52.6322436
   -95.1552648   52.6396228
   -95.1490039   52.6521496
   -95.1552582   52.6595436
   -95.1490050   52.6720559
   -95.1552511   52.6794634
   -95.1490053   52.6919617
   -95.1552452   52.6993841
   -95.1490064   52.7118677
   -95.1552386   52.7193044
   -95.1490066   52.7317742
   -95.1552319   52.7392244
   -95.1490075   52.7516807
   -95.1552260   52.7591451
   -95.1490085   52.7715867
   -95.1552194   52.7790654
   -95.1490089   52.7914930
   -95.1552122   52.7989854
   -95.1490092   52.8113988
   -95.1552063   52.8189062
   -95.1490103   52.8313048
   -95.1551996   52.8388264
   -95.1492606   52.8507108
   -95.1378433   52.8494749
   -95.1322626   52.8608467
   -95.1206961   52.8597093
   -95.1152631   52.8709801
   -95.1035497   52.8699451
   -95.0982621   52.8811118
   -95.0864051   52.8801837
   -95.0812603   52.8912416
   -95.0692614   52.8904232
   -95.0642575   52.9013695
   -95.0521188   52.9006646
   -95.0472536   52.9114956
   -95.0349773   52.9109077
   -95.0302487   52.9216199
   -95.0178361   52.9211526
   -95.0132426   52.9317432
   -95.0006967   52.9314006
   -94.9962355   52.9418640
   -94.9835583   52.9416490
   -94.9792274   52.9519831
   -94.9664209   52.9518991
   -94.9622183   52.9621005
   -94.9492846   52.9621509
   -94.9452082   52.9722162
   -94.9321486   52.9724044
   -94.9281967   52.9823304
   -94.9150144   52.9826605
   -94.9111845   52.9924428
   -94.8978809   52.9929173
   -94.8941718   53.0025541
   -94.8807483   53.0031762
   -94.8771577   53.0126632
   -94.8636169   53.0134363
   -94.8601427   53.0227707
   -94.8464857   53.0236980
   -94.8431266   53.0328763
   -94.8293560   53.0339616
   -94.8261095   53.0429812
   -94.8122277   53.0442268
   -94.8090917   53.0530841
   -94.7950999   53.0544931
   -94.7920729   53.0631854
   -94.7779731   53.0647610
   -94.7750536   53.0732856
   -94.7608464   53.0750310
   -94.7580328   53.0833835
   -94.7437212   53.0853023
   -94.7410112   53.0934809
   -94.7265973   53.0955750
   -94.7239889   53.1035762
   -94.7094741   53.1058488
   -94.7069657   53.1136701
   -94.6923517   53.1161241
   -94.6899417   53.1237626
   -94.6752296   53.1264009
   -94.6729165   53.1338531
   -94.6581087   53.1366795
   -94.6558910   53.1439431
   -94.6409887   53.1469596
   -94.6388643   53.1540319
   -94.6238699   53.1572409
   -94.6218369   53.1641188
   -94.6067511   53.1675234
   -94.6048084   53.1742037
   -94.5896336   53.1778075
   -94.5877794   53.1842878
   -94.5725170   53.1880925
   -94.5707496   53.1943705
   -94.5554012   53.1983789
   -94.5537188   53.2044527
   -94.5382864   53.2086670
   -94.5366876   53.2145331
   -94.5211714   53.2189569
   -94.5196551   53.2246113
   -94.5040579   53.2292476
   -94.5026221   53.2346889
   -94.4869452   53.2395392
   -94.4855884   53.2447651
   -94.4698333   53.2498321
   -94.4685537   53.2548408
   -94.4527223   53.2601266
   -94.4515185   53.2649145
   -94.4356113   53.2704222
   -94.4344822   53.2749864
   -94.4185016   53.2807192
   -94.4174455   53.2850577
   -94.4013927   53.2910171
   -94.4004083   53.2951280
   -94.3842843   53.3013170
   -94.3833700   53.3051971
   -94.3671764   53.3116167
   -94.3663304   53.3152658
   -94.3500692   53.3219187
   -94.3492905   53.3253316
   -94.3329630   53.3322218
   -94.3322503   53.3353969
   -94.3158576   53.3425256
   -94.3152093   53.3454610
   -94.2987529   53.3528306
   -94.2981677   53.3555240
   -94.2816490   53.3631368
   -94.2811253   53.3655869
   -94.2645450   53.3734454
   -94.2640820   53.3756469
   -94.2474423   53.3837542
   -94.2470383   53.3857065
   -94.2303403   53.3940637
   -94.2299939   53.3957650
   -94.2132389   53.4043744
   -94.2129489   53.4058224
   -94.1961382   53.4146862
   -94.1959031   53.4158796
   -94.1790377   53.4249995
   -94.1788566   53.4259341
   -94.1619383   53.4353137
   -94.1618097   53.4359884
   -94.1105978   53.4661856
   -94.0768202   53.4866700
   -94.0761984   53.4864778
   -94.0598728   53.4968904
   -94.0590009   53.4966267
   -94.0429241   53.5071088
   -94.0418047   53.5067778
   -94.0259746   53.5173257
   -94.0246090   53.5169311
   -94.0090230   53.5275404
   -94.0074146   53.5270864
   -93.9920710   53.5377530
   -93.9902216   53.5372435
   -93.9751175   53.5479634
   -93.9730300   53.5474024
   -93.9581629   53.5581718
   -93.9558396   53.5575632
   -93.9412071   53.5683783
   -93.9386494   53.5677258
   -93.9242498   53.5785834
   -93.9214615   53.5778912
   -93.9072922   53.5887867
   -93.9042740   53.5880582
   -93.8903330   53.5989875
   -93.8870881   53.5982266
   -93.8733727   53.6091864
   -93.8699032   53.6083969
   -93.8564113   53.6193835
   -93.8527187   53.6185689
   -93.8394488   53.6295788
   -93.8355358   53.6287430
   -93.8224848   53.6397726
   -93.8183546   53.6389193
   -93.8055202   53.6499642
   -93.8011742   53.6490969
   -93.7885548   53.6601546
   -93.7839943   53.6592767
   -93.7715880   53.6703427
   -93.7668151   53.6694576
   -93.7546201   53.6805290
   -93.7496376   53.6796406
   -93.7376508   53.6907139
   -93.7324616   53.6898258
   -93.7206809   53.7008968
   -93.7152863   53.7000121
   -93.7037099   53.7110779
   -93.6981120   53.7102001
   -93.6867380   53.7212573
   -93.6809380   53.7203897
   -93.6697653   53.7314356
   -93.6637651   53.7305817
   -93.6523407   53.7420645
   -93.6481494   53.7416830
   -93.6363142   53.7536043
   -93.6321076   53.7532134
   -93.6202885   53.7651442
   -93.6160642   53.7647435
   -93.6042624   53.7766846
   -93.6000210   53.7762742
   -93.5882360   53.7882245
   -93.5839783   53.7878043
   -93.5722104   53.7997645
   -93.5679355   53.7993344
   -93.5561846   53.8113050
   -93.5518924   53.8108648
   -93.5401596   53.8228447
   -93.5358491   53.8223942
   -93.5241337   53.8343854
   -93.5198057   53.8339246
   -93.5081075   53.8459256
   -93.5037635   53.8454545
   -93.4920822   53.8574660
   -93.4877198   53.8569840
   -93.4760565   53.8690069
   -93.4716763   53.8685142
   -93.4600304   53.8805473
   -93.4556331   53.8800439
   -93.4440052   53.8920879
   -93.4395900   53.8915734
   -93.4279796   53.9036290
   -93.4235464   53.9031032
   -93.4119537   53.9151696
   -93.4075031   53.9146327
   -93.3959288   53.9267103
   -93.3914590   53.9261620
   -93.3799038   53.9382511
   -93.3754164   53.9376914
   -93.3638785   53.9497925
   -93.3593727   53.9492209
   -93.3478536   53.9613336
   -93.3433284   53.9607499
   -93.3318279   53.9728745
   -93.3272848   53.9722790
   -93.3158027   53.9844161
   -93.3112416   53.9838086
   -93.2997780   53.9959574
   -93.2951973   53.9953373
   -93.2837525   54.0074986
   -93.2791536   54.0068661
   -93.2677278   54.0190400
   -93.2631090   54.0183948
   -93.2517029   54.0305819
   -93.2470656   54.0299240
   -93.2356777   54.0421232
   -93.2310218   54.0414525
   -93.2196541   54.0536649
   -93.2149770   54.0529809
   -93.2036289   54.0652065
   -93.1989330   54.0645094
   -93.1876041   54.0767487
   -93.1828893   54.0760383
   -93.1715798   54.0882907
   -93.1668445   54.0875663
   -93.1555548   54.0998325
   -93.1508003   54.0990945
   -93.1395303   54.1113750
   -93.1347556   54.1106230
   -93.1235061   54.1229172
   -93.1187113   54.1221510
   -93.1074814   54.1344593
   -93.1026671   54.1336788
   -93.0914571   54.1460019
   -93.0866222   54.1452071
   -93.0754336   54.1575439
   -93.0705773   54.1567343
   -93.0594094   54.1690869
   -93.0545331   54.1682625
   -93.0433853   54.1806299
   -93.0384882   54.1797903
   -93.0273612   54.1921721
   -93.0224430   54.1913172
   -93.0113372   54.2037153
   -93.0063977   54.2028449
   -92.9953132   54.2152587
   -92.9903533   54.2143728
   -92.9792893   54.2268012
   -92.9743080   54.2258991
   -92.9632656   54.2383447
   -92.9582626   54.2374266
   -92.9472418   54.2498874
   -92.9422170   54.2489530
   -92.9312184   54.2614310
   -92.9261723   54.2604804
   -92.9151956   54.2729751
   -92.9101268   54.2720074
   -92.8991721   54.2845180
   -92.8940810   54.2835334
   -92.8831487   54.2960621
   -92.8780351   54.2950603
   -92.8671254   54.3076064
   -92.8619901   54.3065873
   -92.8511021   54.3191497
   -92.8459441   54.3181128
   -92.8350790   54.3306942
   -92.8298980   54.3296393
   -92.8190560   54.3422387
   -92.8138519   54.3411658
   -92.8030329   54.3537824
   -92.7978064   54.3526913
   -92.7870101   54.3653273
   -92.7817603   54.3642173
   -92.7709870   54.3768714
   -92.7657142   54.3757430
   -92.7549654   54.3884163
   -92.7496672   54.3872683
   -92.7389429   54.3999615
   -92.7336214   54.3987943
   -92.7229200   54.4115062
   -92.7175752   54.4103194
   -92.7068825   54.4230696
   -92.7014797   54.4217776
   -92.6906290   54.4345838
   -92.6853865   54.4332389
   -92.6743728   54.4460940
   -92.6692958   54.4447019
   -92.6581159   54.4576028
   -92.6532068   54.4561685
   -92.6418563   54.4691081
   -92.6371199   54.4676378
   -92.6255952   54.4806108
   -92.6210355   54.4791104
   -92.6093309   54.4921100
   -92.6049536   54.4905868
   -92.5930644   54.5036051
   -92.5888744   54.5020667
   -92.5767957   54.5150970
   -92.5725074   54.5134384
   -92.5604008   54.5264091
   -92.5561552   54.5247952
   -92.5440078   54.5377223
   -92.5398013   54.5361505
   -92.5276147   54.5490360
   -92.5234484   54.5475062
   -92.5112215   54.5603502
   -92.5070944   54.5588608
   -92.4948289   54.5716650
   -92.4907391   54.5702146
   -92.4784370   54.5829803
   -92.4743852   54.5815686
   -92.4620454   54.5942957
   -92.4580296   54.5929209
   -92.4456544   54.6056129
   -92.4416746   54.6042743
   -92.4292624   54.6169292
   -92.4253188   54.6156263
   -92.4128724   54.6282468
   -92.4089619   54.6269778
   -92.3964821   54.6395645
   -92.3926063   54.6383294
   -92.3800917   54.6508827
   -92.3762497   54.6496802
   -92.3637018   54.6622013
   -92.3598927   54.6610307
   -92.3473123   54.6735201
   -92.3435356   54.6723806
   -92.3309231   54.6848393
   -92.3271784   54.6837300
   -92.3145337   54.6961593
   -92.3108204   54.6950795
   -92.2981449   54.7074794
   -92.2944623   54.7064285
   -92.2817568   54.7187995
   -92.2781043   54.7177767
   -92.2653688   54.7301210
   -92.2617456   54.7291253
   -92.2489799   54.7414419
   -92.2453877   54.7404735
   -92.2325928   54.7527635
   -92.2290281   54.7518208
   -92.2162052   54.7640853
   -92.2126689   54.7631681
   -92.1998181   54.7754071
   -92.1963099   54.7745148
   -92.1834304   54.7867298
   -92.1799501   54.7858618
   -92.1670434   54.7980525
   -92.1635911   54.7972085
   -92.1506570   54.8093750
   -92.1472309   54.8085540
   -92.1342707   54.8206989
   -92.1308703   54.8199004
   -92.1178834   54.8320222
   -92.1145109   54.8312462
   -92.1014975   54.8433454
   -92.0981501   54.8425909
   -92.0851117   54.8546702
   -92.0817899   54.8539368
   -92.0687253   54.8659937
   -92.0654288   54.8652810
   -92.0523400   54.8773188
   -92.0490674   54.8766261
   -92.0359544   54.8886434
   -92.0327071   54.8879708
   -92.0195692   54.8999680
   -92.0163456   54.8993144
   -92.0031835   54.9112935
   -91.9999846   54.9106590
   -91.9867983   54.9226188
   -91.9836231   54.9220028
   -91.9704138   54.9339439
   -91.9672619   54.9333460
   -91.9540291   54.9452703
   -91.9508998   54.9446898
   -91.9376440   54.9565956
   -91.9345374   54.9560325
   -91.9212594   54.9679217
   -91.9181762   54.9673758
   -91.9048753   54.9792485
   -91.9018136   54.9787190
   -91.8884913   54.9905747
   -91.8854517   54.9900613
   -91.8721061   55.0019012
   -91.8690895   55.0014037
   -91.8557225   55.0132286
   -91.8527264   55.0127466
   -91.8393388   55.0245552
   -91.8363643   55.0240884
   -91.8229544   55.0358828
   -91.8200011   55.0354308
   -91.8065711   55.0472096
   -91.8036386   55.0467722
   -91.7901874   55.0585371
   -91.7872758   55.0581139
   -91.7738041   55.0698653
   -91.7709122   55.0694560
   -91.7574203   55.0811925
   -91.7545495   55.0807970
   -91.7410369   55.0925204
   -91.7381864   55.0921382
   -91.7246540   55.1038490
   -91.7218233   55.1034800
   -91.7082713   55.1151768
   -91.7054595   55.1148204
   -91.6918872   55.1265050
   -91.6890961   55.1261613
   -91.6755052   55.1378336
   -91.6727324   55.1375021
   -91.6591222   55.1491621
   -91.6563688   55.1488427
   -91.6427397   55.1604915
   -91.6400053   55.1601838
   -91.6263566   55.1718197
   -91.6236411   55.1715235
   -91.6099739   55.1831487
   -91.6072772   55.1828638
   -91.5935917   55.1944783
   -91.5909134   55.1942046
   -91.5772089   55.2058070
   -91.5745490   55.2055440
   -91.5608264   55.2171362
   -91.5581857   55.2168841
   -91.5444450   55.2284657
   -91.5418206   55.2282237
   -91.5280625   55.2397953
   -91.5254571   55.2395636
   -91.5116795   55.2511248
   -91.5090928   55.2509031
   -91.4952983   55.2624546
   -91.4927274   55.2622426
   -91.4789162   55.2737844
   -91.4763638   55.2735821
   -91.4625345   55.2851149
   -91.4599987   55.2849218
   -91.4461523   55.2964444
   -91.4434264   55.2962454
   -91.4295957   55.3075242
   -91.4270975   55.3073634
   -91.4130416   55.3186061
   -91.4107670   55.3184784
   -91.3964885   55.3296913
   -91.3944345   55.3295921
   -91.3799360   55.3407781
   -91.3781014   55.3407034
   -91.3633864   55.3518664
   -91.3617669   55.3518123
   -91.3468375   55.3629575
   -91.3454307   55.3629204
   -91.3302895   55.3740494
   -91.3290937   55.3740259
   -91.3137425   55.3851433
   -91.3127564   55.3851304
   -91.2971973   55.3962392
   -91.2964162   55.3962339
   -91.2310333   55.4406460
   -91.1982441   55.4626371
   -91.1980701   55.4630206
   -91.1652065   55.4841529
   -91.0983246   55.5263656
   -91.0979025   55.5272832
   -91.0816195   55.5369066
   -91.0810828   55.5380784
   -91.0649132   55.5474494
   -91.0642644   55.5488719
   -91.0482075   55.5579901
   -91.0474463   55.5596666
   -91.0315018   55.5685301
   -91.0306286   55.5704621
   -91.0147947   55.5790701
   -91.0138101   55.5812591
   -90.9980881   55.5896094
   -90.9969934   55.5920554
   -90.9813810   55.6001479
   -90.9801767   55.6028525
   -90.9646734   55.6106851
   -90.9633596   55.6136516
   -90.9479652   55.6212234
   -90.9465440   55.6244499
   -90.9312568   55.6317598
   -90.9297287   55.6352490
   -90.9145481   55.6422955
   -90.9129136   55.6460501
   -90.8978382   55.6528310
   -90.8960988   55.6568511
   -90.8811282   55.6633651
   -90.8792850   55.6676527
   -90.8644178   55.6738983
   -90.8624720   55.6784556
   -90.8477064   55.6844313
   -90.8456590   55.6892601
   -90.8309938   55.6949628
   -90.8288463   55.7000644
   -90.8142813   55.7054932
   -90.8120351   55.7108702
   -90.7975682   55.7160223
   -90.7952244   55.7216783
   -90.7808538   55.7265508
   -90.7784142   55.7324867
   -90.7641390   55.7370775
   -90.7616053   55.7432963
   -90.7474233   55.7476027
   -90.7447973   55.7541083
   -90.7307066   55.7581276
   -90.7279903   55.7649211
   -90.7139887   55.7686494
   -90.7111837   55.7757355
   -90.6972699   55.7791700
   -90.6943791   55.7865519
   -90.6805497   55.7896894
   -90.6775751   55.7973709
   -90.6638284   55.8002061
   -90.6607722   55.8081910
   -90.6471057   55.8107208
   -90.6439713   55.8190134
   -90.6303816   55.8212332
   -90.6271719   55.8298392
   -90.6136559   55.8317441
   -90.6103740   55.8406669
   -90.5969275   55.8422510
   -90.5935771   55.8514969
   -90.5801978   55.8527556
   -90.5767832   55.8623314
   -90.5634664   55.8632576
   -90.5599913   55.8731684
   -90.5467325   55.8737551
   -90.5432016   55.8840095
   -90.5299957   55.8842483
   -90.5264144   55.8948549
   -90.5132563   55.8947381
   -90.5096301   55.9057049
   -90.4965144   55.9052232
   -90.4928489   55.9165600
   -90.4797684   55.9157021
   -90.4760709   55.9274202
   -90.4630186   55.9261755
   -90.4592976   55.9382878
   -90.4462650   55.9366434
   -90.4425283   55.9491614
   -90.4295064   55.9471029
   -90.4257640   55.9600435
   -90.4127417   55.9575536
   -90.4090051   55.9709350
   -90.3959717   55.9679964
   -90.3922525   55.9818358
   -90.3791519   55.9784162
   -90.3752416   55.9923203
   -90.3623262   55.9888658
   -90.3582283   56.0028011
   -90.3455019   55.9993177
   -90.3412146   56.0132808
   -90.3286794   56.0097729
   -90.3241992   56.0237578
   -90.3118578   56.0202296
   -90.3071826   56.0342332
   -90.2950373   56.0306883
   -90.2901640   56.0447060
   -90.2782195   56.0411504
   -90.2731447   56.0551767
   -90.2614025   56.0516133
   -90.2561238   56.0656443
   -90.2445864   56.0620784
   -90.2391017   56.0761114
   -90.2277718   56.0725464
   -90.2220776   56.0865752
   -90.2109581   56.0830160
   -90.2050532   56.0970373
   -90.1941457   56.0934877
   -90.1880274   56.1074978
   -90.1773348   56.1039613
   -90.1709992   56.1179551
   -90.1605255   56.1144374
   -90.1539708   56.1284111
   -90.1437175   56.1249153
   -90.1369416   56.1388654
   -90.1269102   56.1353945
   -90.1199107   56.1493183
   -90.1101042   56.1458766
   -90.1028780   56.1597681
   -90.0932994   56.1563602
   -90.0858446   56.1702157
   -90.0764956   56.1668451
   -90.0688104   56.1806626
   -90.0596927   56.1773322
   -90.0517743   56.1911073
   -90.0428914   56.1878219
   -90.0347377   56.2015501
   -90.0260916   56.1983130
   -90.0177003   56.2119912
   -90.0092923   56.2088052
   -90.0006614   56.2224312
   -89.9924946   56.2193003
   -89.9836203   56.2328675
   -89.9756974   56.2297960
   -89.9665796   56.2433033
   -89.9589012   56.2402938
   -89.9495377   56.2537377
   -89.9421064   56.2507940
   -89.9324944   56.2641703
   -89.9253122   56.2612951
   -89.9154499   56.2746008
   -89.9085192   56.2717980
   -89.8984046   56.2850291
   -89.8917280   56.2823024
   -89.8813582   56.2954571
   -89.8749376   56.2928090
   -89.8643104   56.3058826
   -89.8581474   56.3033166
   -89.8472625   56.3163068
   -89.8413582   56.3138258
   -89.8302135   56.3267298
   -89.8245705   56.3243374
   -89.8131628   56.3371504
   -89.8077836   56.3348495
   -89.7961113   56.3475697
   -89.7909972   56.3453633
   -89.7790594   56.3579881
   -89.7742122   56.3558794
   -89.7620064   56.3684049
   -89.7574286   56.3663967
   -89.7449520   56.3788195
   -89.7406453   56.3769148
   -89.7278971   56.3892324
   -89.7238629   56.3874342
   -89.7108415   56.3996449
   -89.7070815   56.3979561
   -89.6937849   56.4100558
   -89.6903006   56.4084789
   -89.6767270   56.4204648
   -89.6735205   56.4190029
   -89.6596687   56.4308731
   -89.6567417   56.4295290
   -89.6426098   56.4412796
   -89.6399643   56.4400561
   -89.6255494   56.4516841
   -89.6231874   56.4505840
   -89.6084876   56.4620878
   -89.6064111   56.4611141
   -89.5914262   56.4724903
   -89.5896352   56.4716449
   -89.5743639   56.4828917
   -89.5728602   56.4821772
   -89.5573000   56.4932912
   -89.5560859   56.4927106
   -89.5402354   56.5036894
   -89.5393132   56.5032456
   -89.5231709   56.5140867
   -89.5225405   56.5137815
   -89.4890377   56.5348773
   -89.4551856   56.5554950
   -89.4551751   56.5561021
   -89.4382716   56.5658018
   -89.4382501   56.5667265
   -89.4213598   56.5761124
   -89.4213239   56.5773469
   -89.4044497   56.5864258
   -89.4043960   56.5879644
   -89.3875419   56.5967418
   -89.3874667   56.5985804
   -89.3706349   56.6070595
   -89.3705347   56.6091934
   -89.3537301   56.6173805
   -89.3536016   56.6198027
   -89.3368269   56.6277051
   -89.3366668   56.6304092
   -89.3199254   56.6380323
   -89.3197303   56.6410144
   -89.3030252   56.6483616
   -89.3027917   56.6516158
   -89.2861270   56.6586942
   -89.2858518   56.6622142
   -89.2692305   56.6690286
   -89.2689104   56.6728115
   -89.2523357   56.6793656
   -89.2519673   56.6834058
   -89.2354423   56.6897055
   -89.2350228   56.6939966
   -89.2185505   56.7000484
   -89.2180768   56.7045850
   -89.2016602   56.7103938
   -89.2011289   56.7151719
   -89.1847713   56.7207405
   -89.1841792   56.7257554
   -89.1678840   56.7310909
   -89.1672285   56.7363364
   -89.1509983   56.7414438
   -89.1502763   56.7469161
   -89.1341138   56.7517986
   -89.1333220   56.7574924
   -89.1172317   56.7621561
   -89.1163671   56.7680665
   -89.1003506   56.7725149
   -89.0994105   56.7786387
   -89.0834709   56.7828775
   -89.0824524   56.7892082
   -89.0665921   56.7932416
   -89.0654924   56.7997752
   -89.0497151   56.8036085
   -89.0485316   56.8103397
   -89.0328394   56.8139777
   -88.3973913   60.2783839
   -88.3934045   60.2797213
   -88.3681891   60.2726276
   -88.3134252   60.2575396
   -88.2584325   60.2428650
   -87.6316160   60.0792155
   -87.5878064   60.0675775
   -87.3217461   59.9956871
   -87.2635679   59.9803101
   -87.2110994   59.9668869
   -87.1529287   59.9374280
   -87.1178289   59.9199759
   -87.0823405   59.9025726
   -87.0470525   59.8855069
   -87.0113028   59.8684593
   -86.9758994   59.8518144
   -86.9400317   59.8351905
   -86.9043676   59.8188980
   -86.8683102   59.8026638
   -86.8324582   59.7867578
   -86.7962109   59.7709133
   -86.7601710   59.7553938
   -86.7237348   59.7399392
   -86.6875070   59.7248063
   -86.6508801   59.7097412
   -86.6144644   59.6949949
   -86.5776476   59.6803195
   -86.5410441   59.6659597
   -86.5040374   59.6516739
   -86.4672461   59.6377008
   -86.2831675   59.5686454
   -85.9491710   59.3173909
   -85.8963509   59.2919831
   -85.8595817   59.2746028
   -85.8228824   59.2575039
   -85.7858447   59.2404972
   -85.7304308   59.2155191
   -85.6934599   59.1991639
   -85.6378083   59.1750096
   -85.5820748   59.1513755
   -85.5448908   59.1359152
   -85.5076155   59.1206630
   -85.4704483   59.1056994
   -85.4328665   59.0908159
   -85.3954694   59.0762506
   -85.3579811   59.0618943
   -85.3018095   59.0408397
   -85.2451958   59.0201699
   -85.2074944   59.0067097
   -85.1508420   58.9869392
   -85.0940699   58.9676733
   -85.0561554   58.9551091
   -84.9991834   58.9366826
   -84.9422534   58.9188105
   -84.2163202   58.6955097
   -84.1781725   58.6921753
   -84.1388541   58.6889612
   -84.0991775   58.6859448
   -84.0354495   58.6815811
   -84.0013309   58.6504758
   -83.9628688   58.6157991
   -83.9053027   58.5646498
   -83.8473881   58.5140980
   -83.7897603   58.4646983
   -83.7510615   58.4320292
   -83.7125162   58.3998916
   -83.6741089   58.3682683
   -83.6353762   58.3367800
   -83.5967871   58.3058099
   -83.5583373   58.2753506
   -83.5195707   58.2450427
   -83.4809433   58.2152448
   -83.4321045   58.1781427
   -83.3930470   58.1489317
   -83.3345793   58.1059670
   -82.9773892   57.8472201
   -82.9235033   57.8087857
   -82.8692642   57.7710027
   -82.8149761   57.7340869
   -82.7787431   57.7099465
   -82.7242367   57.6743785
   -82.6878383   57.6511233
   -82.6331514   57.6169268
   -82.5965890   57.5945583
   -82.5416832   57.5617084
   -82.5049753   57.5402387
   -82.4498319   57.5087247
   -82.4129974   57.4881644
   -82.3576354   57.4579976
   -82.3206552   57.4383353
   -82.2837270   57.4190896
   -82.2562508   57.4050329
   -82.2316258   57.3680871
   -82.1993066   57.3204061
   -82.1829634   57.2966257
   -82.1503933   57.2498901
   -82.1177692   57.2039469
   -82.0848644   57.1584802
   -82.0190806   57.0687507
   -81.9992258   57.0420847
   -81.7089041   56.5191125
   -81.6924730   56.4890815
   -81.2826803   55.7289667
   -81.2370435   55.6119232
   -81.3695840   55.3548777
   -81.6352246   54.8328700
   -81.6442528   54.8144916
   -81.6614044   54.7776061
   -81.6773787   54.7404955
   -81.6849491   54.7217967
   -81.6991908   54.6842694
   -81.7122686   54.6464854
   -81.7241824   54.6084447
   -81.7349323   54.5701473
   -81.7445182   54.5315931
   -81.7572870   54.4734068
   -81.7648962   54.4344166
   -81.7713416   54.3951698
   -81.7762036   54.3589925
   -81.7688003   54.3299110
   -81.7579738   54.2917074
   -81.7521657   54.2728230
   -81.7397595   54.2354890
   -81.7331559   54.2170238
   -81.7191754   54.1805739
   -81.7041252   54.1446630
   -81.6880448   54.1093841
   -81.6073088   53.9426207
   -81.5742481   53.8720803
   -81.5784924   53.8661722
   -81.6030610   53.8384544
   -81.6214454   53.8184887
   -81.6398193   53.7991499
   -81.6581854   53.7804331
   -81.6766308   53.7622506
   -81.7204572   53.7205067
   -81.7381870   53.7029607
   -81.7552737   53.6853715
   -81.7717939   53.6676601
   -81.8164131   53.6183128
   -81.8419680   53.5974695
   -81.8619470   53.5802684
   -81.8811075   53.5629196
   -81.8993754   53.5454902
   -81.9168262   53.5279083
   -81.9498389   53.4925327
   -81.9657810   53.4747804
   -81.9808426   53.4568804
   -81.9949787   53.4388861
   -82.0082343   53.4207400
   -82.0569855   53.3476424
   -82.0689392   53.3293489
   -82.0798694   53.3108909
   -82.0897490   53.2923143
   -82.1201851   53.2280380
   -82.1322310   53.2030323
   -82.1564163   53.1618630
   -82.1659339   53.1432171
   -82.1740517   53.1243991
   -82.1807839   53.1053763
   -82.1887298   53.0797760
   -82.1874899   53.0573280
   -82.1849272   53.0382410
   -82.1813298   53.0211407
   -82.1765268   53.0039946
   -82.1696982   52.9857019
   -82.1656434   52.9789394
   -82.1524908   52.9634035
   -82.1381858   52.9493719
   -82.1227191   52.9368354
   -82.1061005   52.9258022
   -82.0883194   52.9162650
   -82.0830587   52.9140324
   -82.0595465   52.9023348
   -82.0025145   52.8645876
   -81.9848850   52.8548655
   -81.5250632   52.6363843
   -81.5064997   52.6278782
   -81.4824378   52.6180560
   -81.4647754   52.6100580
   -81.4471817   52.6012997
   -81.4296618   52.5917838
   -81.4122106   52.5815073
   -81.3462618   52.5403833
   -81.2759136   52.4860624
   -81.2665112   52.4784258
   -81.2467582   52.4600785
   -81.2247419   52.4430851
   -81.2092059   52.4302226
   -81.1849471   52.4095358
   -81.1555882   52.3969085
   -81.1373781   52.3897010
   -81.1189738   52.3829596
   -81.1003395   52.3766712
   -81.0815116   52.3708480
   -80.9365847   52.3297324
   -80.9106798   52.3222618
   -80.8923532   52.3142479
   -80.8742700   52.3068550
   -80.8559407   52.2998613
   -80.8374707   52.2933071
   -80.8000593   52.2810393
   -80.7812563   52.2751645
   -80.7622404   52.2697003
   -80.7430617   52.2646609
   -80.7236424   52.2600263
   -80.7040896   52.2558217
   -80.6842845   52.2520217
   -80.6643484   52.2486494
   -80.6441573   52.2456841
   -80.6238379   52.2431441
   -80.6032838   52.2410158
   -80.5617641   52.2376969
   -80.5408180   52.2364119
   -80.5197087   52.2355389
   -80.4983829   52.2350758
   -80.2522939   52.2344788
   -80.2111386   52.0356356
   -80.2019227   51.9963194
   -80.1914223   51.9577407
   -80.1796385   51.9198990
   -80.1665627   51.8827670
   -80.1521949   51.8463472
   -80.1365440   51.8106631
   -80.1196114   51.7757146
   -80.1056586   51.7493238
   -80.0903118   51.7370682
   -80.0737621   51.7243774
   -80.0569975   51.7099299
   -80.0403963   51.6962122
   -80.0236615   51.6829585
   -80.0068126   51.6701833
   -79.9897917   51.6578437
   -79.9726566   51.6459820
   -79.9553879   51.6345842
   -79.9379858   51.6236505
   -79.9101024   51.6073216
   -79.8847275   51.6082496
   -79.8591148   51.6097809
   -79.8341300   51.6118822
   -79.8096976   51.6145597
   -79.7646592   51.6206996
   -79.5362697   51.3983047
   -79.5265902   51.3783615
   -79.5276069   51.3605942
   -79.5265551   51.3584325
   -79.5275829   51.3406839
   -79.5265201   51.3385047
   -79.5275598   51.3207731
   -79.5264852   51.3185752
   -79.5275357   51.3008623
   -79.5264505   51.2986480
   -79.5275124   51.2809511
   -79.5264158   51.2787190
   -79.5274890   51.2610412
   -79.5263812   51.2587918
   -79.5274655   51.2411303
   -79.5263457   51.2388623
   -79.5274420   51.2212200
   -79.5263108   51.2189345
   -79.5274188   51.2013092
   -79.5262757   51.1990055
   -79.5273949   51.1813975
   -79.5262412   51.1790783
   -79.5273722   51.1614881
   -79.5262056   51.1591488
   -79.5273488   51.1415773
   -79.5261708   51.1392211
   -79.5273255   51.1216664
   -79.5261354   51.1192921
   -79.5273020   51.1017561
   -79.5260998   51.0993640
   -79.5272785   51.0818445
   -79.5260652   51.0794362
   -79.5272560   51.0619345
   -79.5260297   51.0595068
   -79.5272325   51.0420242
   -79.5259945   51.0395795
   -79.5272096   51.0221134
   -79.5259591   51.0196505
   -79.5271860   51.0022025
   -79.5259235   50.9997227
   -79.5273410   50.9797957
   -79.5287433   50.9776464
   -79.5251938   50.9598649
   -79.5277886   50.9531128
   -79.5254575   50.9414129
   -79.5279142   50.9332218
   -79.5249753   50.9229434
   -79.5278900   50.9133307
   -79.5249419   50.9029790
   -79.5278652   50.8934412
   -79.5249079   50.8830161
   -79.5278406   50.8735509
   -79.5248742   50.8630517
   -79.5278156   50.8536598
   -79.5248409   50.8430889
   -79.5277909   50.8337702
   -79.5248077   50.8231253
   -79.5277660   50.8138799
   -79.5247742   50.8031609
   -79.5277405   50.7939889
   -79.5247416   50.7831981
   -79.5277155   50.7740993
   -79.5247083   50.7632337
   -79.5276895   50.7542090
   -79.5246754   50.7432708
   -79.5276638   50.7343192
   -79.5246424   50.7233065
   -79.5276380   50.7144287
   -79.5246104   50.7033436
   -79.5276124   50.6945391
   -79.5245776   50.6833793
   -79.5275859   50.6746488
   -79.5245453   50.6634164
   -79.5275601   50.6547578
   -79.5245134   50.6434520
   -79.5275335   50.6348682
   -79.5244814   50.6234892
   -79.5275071   50.6149779
   -79.5244492   50.6035248
   -79.5274803   50.5950869
   -79.5244180   50.5835619
   -79.5274538   50.5751973
   -79.5243862   50.5635976
   -79.5274264   50.5553070
   -79.5243546   50.5436342
   -79.5273994   50.5354167
   -79.5243236   50.5236706
   -79.5273725   50.5155257
   -79.5242928   50.5037063
   -79.5273448   50.4956361
   -79.5242618   50.4837434
   -79.5273174   50.4757458
   -79.5242307   50.4637791
   -79.5272895   50.4558548
   -79.5242006   50.4438162
   -79.5272619   50.4359652
   -79.5241699   50.4238519
   -79.5272334   50.4160749
   -79.5241396   50.4038889
   -79.5272053   50.3961846
   -79.5241092   50.3839247
   -79.5271767   50.3762936
   -79.5240797   50.3639617
   -79.5271484   50.3564040
   -79.5240497   50.3439974
   -79.5271192   50.3365137
   -79.5240200   50.3240345
   -79.5270907   50.3166228
   -79.5239909   50.3040702
   -79.5270613   50.2967332
   -79.5239616   50.2841073
   -79.5270322   50.2768429
   -79.5239324   50.2641437
   -79.5270031   50.2569519
   -79.5239041   50.2441794
   -79.5269732   50.2370623
   -79.5238750   50.2242165
   -79.5269435   50.2171720
   -79.5238466   50.2042522
   -79.5269131   50.1972817
   -79.5238179   50.1842893
   -79.5268832   50.1773908
   -79.5237904   50.1643250
   -79.5268526   50.1575012
   -79.5237620   50.1443621
   -79.5268220   50.1376109
   -79.5237344   50.1243978
   -79.5267912   50.1177199
   -79.5237070   50.1044349
   -79.5267604   50.0978303
   -79.5236798   50.0844706
   -79.5267288   50.0779400
   -79.5236522   50.0645076
   -79.5266974   50.0580498
   -79.5236254   50.0445434
   -79.5266655   50.0381593
   -79.5235990   50.0245804
   -79.5266339   50.0182702
   -79.5235726   50.0046162
   -79.5266015   49.9983799
   -79.5235459   49.9846532
   -79.5265696   49.9784890
   -79.5235205   49.9646891
   -79.5265373   49.9585994
   -79.5234948   49.9447249
   -79.5265042   49.9387091
   -79.5234687   49.9247619
   -79.5264716   49.9188182
   -79.5234440   49.9047977
   -79.5264382   49.8989286
   -79.5234184   49.8848347
   -79.5264048   49.8790383
   -79.5233937   49.8648705
   -79.5263708   49.8591480
   -79.5233685   49.8449075
   -79.5263373   49.8392571
   -79.5233448   49.8249433
   -79.5263029   49.8193675
   -79.5233202   49.8049803
   -79.5262685   49.7994772
   -79.5232964   49.7850161
   -79.5262339   49.7795864
   -79.5232728   49.7650531
   -79.5261991   49.7596967
   -79.5232495   49.7450890
   -79.5261636   49.7398064
   -79.5232259   49.7251259
   -79.5261282   49.7199162
   -79.5232032   49.7051624
   -79.5260931   49.7000253
   -79.5231809   49.6851982
   -79.5260567   49.6801357
   -79.5231584   49.6652352
   -79.5260207   49.6602454
   -79.5231361   49.6452710
   -79.5259840   49.6403546
   -79.5231148   49.6253080
   -79.5259476   49.6204649
   -79.5230930   49.6053438
   -79.5259100   49.6005746
   -79.5230717   49.5853808
   -79.5258732   49.5806838
   -79.5230510   49.5654166
   -79.5258351   49.5607941
   -79.5230303   49.5454536
   -79.5257974   49.5409039
   -79.5230097   49.5254894
   -79.5257586   49.5210136
   -79.5229895   49.5055264
   -79.5257206   49.5011228
   -79.5229701   49.4855623
   -79.5256812   49.4812332
   -79.5229506   49.4655992
   -79.5256423   49.4613429
   -79.5229313   49.4456356
   -79.5256031   49.4414521
   -79.5229133   49.4256715
   -79.5255631   49.4215624
   -79.5228943   49.4057085
   -79.5255229   49.4016722
   -79.5228763   49.3857438
   -79.5254822   49.3817814
   -79.5228589   49.3657808
   -79.5254417   49.3618917
   -79.5228413   49.3458167
   -79.5253999   49.3420015
   -79.5228241   49.3258536
   -79.5253582   49.3221118
   -79.5228074   49.3058895
   -79.5253162   49.3022215
   -79.5227914   49.2859265
   -79.5252742   49.2823318
   -79.5227752   49.2659623
   -79.5252310   49.2624416
   -79.5227595   49.2459993
   -79.5251886   49.2425508
   -79.5227445   49.2260352
   -79.5251447   49.2226611
   -79.5227296   49.2060721
   -79.5251012   49.2027709
   -79.5227148   49.1861080
   -79.5250564   49.1828807
   -79.5227007   49.1661450
   -79.5250124   49.1629899
   -79.5226874   49.1461814
   -79.5249674   49.1431002
   -79.5226743   49.1262173
   -79.5249217   49.1232100
   -79.5226609   49.1062542
   -79.5248762   49.1033193
   -79.5226492   49.0862901
   -79.5248297   49.0834296
   -79.5226367   49.0663271
   -79.5247830   49.0635394
   -79.5226253   49.0463630
   -79.5247359   49.0436487
   -79.5226142   49.0263999
   -79.5246883   49.0237590
   -79.5226038   49.0064358
   -79.5246400   49.0038688
   -79.5225930   48.9864728
   -79.5245914   48.9839786
   -79.5225835   48.9665087
   -79.5245425   48.9640879
   -79.5225742   48.9465456
   -79.5244930   48.9441982
   -79.5225657   48.9265816
   -79.5244427   48.9243080
   -79.5225569   48.9066185
   -79.5243926   48.9044173
   -79.5225499   48.8866549
   -79.5243419   48.8845276
   -79.5225424   48.8666908
   -79.5242898   48.8646374
   -79.5225356   48.8467278
   -79.5242380   48.8447473
   -79.5225292   48.8267637
   -79.5241852   48.8248566
   -79.5225239   48.8068001
   -79.5241320   48.8049669
   -79.5225190   48.7868361
   -79.5240781   48.7850767
   -79.5225139   48.7668730
   -79.5240241   48.7651861
   -79.5225107   48.7469090
   -79.5239691   48.7452964
   -79.5225067   48.7269459
   -79.5239135   48.7254062
   -79.5225042   48.7069818
   -79.5238577   48.7055156
   -79.5225019   48.6870187
   -79.5238009   48.6856259
   -79.5225006   48.6670547
   -79.5237434   48.6657357
   -79.5224990   48.6470916
   -79.5236854   48.6458456
   -79.5224990   48.6271276
   -79.5236265   48.6259555
   -79.5224997   48.6071645
   -79.5235672   48.6060663
   -79.5225010   48.5872010
   -79.5235076   48.5861761
   -79.5225025   48.5672369
   -79.5234468   48.5662855
   -79.5225052   48.5472739
   -79.5233858   48.5463958
   -79.5225081   48.5273098
   -79.5233231   48.5265057
   -79.5225118   48.5073467
   -79.5232607   48.5066156
   -79.5225161   48.4873828
   -79.5231969   48.4867250
   -79.5225218   48.4674197
   -79.5231330   48.4668353
   -79.5225276   48.4474557
   -79.5230673   48.4469452
   -79.5225343   48.4274926
   -79.5230022   48.4270546
   -79.5225177   48.2877476
   -79.5226596   48.2082620
   -79.5222283   48.2078924
   -79.5226736   48.1883715
   -79.5221545   48.1879283
   -79.5226881   48.1684806
   -79.5220820   48.1679650
   -79.5227033   48.1485905
   -79.5220075   48.1480010
   -79.5227184   48.1287000
   -79.5219337   48.1280377
   -79.5227338   48.1088095
   -79.5218584   48.1080736
   -79.5227496   48.0889186
   -79.5217844   48.0881103
   -79.5227663   48.0690285
   -79.5217085   48.0681463
   -79.5227828   48.0491380
   -79.5216331   48.0481829
   -79.5227998   48.0292472
   -79.5215574   48.0282193
   -79.5228181   48.0093570
   -79.5214808   48.0082552
   -79.5228354   47.9894665
   -79.5214036   47.9882919
   -79.5228541   47.9695760
   -79.5213263   47.9683278
   -79.5228722   47.9496851
   -79.5212487   47.9483645
   -79.5228922   47.9297955
   -79.5211699   47.9284005
   -79.5229117   47.9099055
   -79.5210909   47.9084371
   -79.5229323   47.8900146
   -79.5210123   47.8884731
   -79.5229526   47.8701244
   -79.5209323   47.8685097
   -79.5229741   47.8502339
   -79.5208522   47.8485457
   -79.5229950   47.8303431
   -79.5207718   47.8285823
   -79.5230179   47.8104528
   -79.5206906   47.8086183
   -79.5230398   47.7905623
   -79.5206085   47.7886550
   -79.5230634   47.7706718
   -79.5205266   47.7686913
   -79.5230871   47.7507810
   -79.5204437   47.7487273
   -79.5231116   47.7308907
   -79.5203606   47.7287639
   -79.5231363   47.7110002
   -79.5202759   47.7087999
   -79.5231617   47.6911094
   -79.5201922   47.6888365
   -79.5231880   47.6712191
   -79.5201062   47.6688725
   -79.5232146   47.6513285
   -79.5200199   47.6489085
   -79.5232424   47.6314380
   -79.5199334   47.6289446
   -79.5232698   47.6115472
   -79.5198463   47.6089811
   -79.5232994   47.5916569
   -79.5197583   47.5890172
   -79.5238880   47.5690609
   -79.5294005   47.5497148
   -79.5270745   47.5431105
   -79.5299893   47.5373621
   -79.5383097   47.5327513
   -79.5420096   47.5256153
   -79.5533147   47.5191230
   -79.5554451   47.5060405
   -79.5605646   47.5012525
   -79.5610932   47.4916529
   -79.5672862   47.4830942
   -79.5671976   47.4773781
   -79.5736745   47.4647534
   -79.5760131   47.4565978
   -79.5840156   47.4485737
   -79.5848552   47.4445646
   -79.5943674   47.4324004
   -79.5944195   47.4311635
   -79.5844409   47.4154065
   -79.5833612   47.4150282
   -79.5742422   47.3998188
   -79.5725049   47.3992804
   -79.5640720   47.3842084
   -79.5616073   47.3835583
   -79.5539428   47.3685666
   -79.5492301   47.3675735
   -79.5393340   47.3563502
   -79.5286242   47.3482690
   -79.5260456   47.3431242
   -79.5223742   47.3409848
   -79.5147342   47.3283874
   -79.5134187   47.3277550
   -79.5039913   47.3148527
   -79.5037973   47.3133631
   -79.4940663   47.3022982
   -79.4932452   47.2980451
   -79.4814162   47.2868965
   -79.4806484   47.2842891
   -79.4694935   47.2745828
   -79.4679579   47.2706058
   -79.4576431   47.2621839
   -79.4551985   47.2569752
   -79.4458456   47.2497255
   -79.4420566   47.2427762
   -79.4423041   47.2394713
   -79.4474706   47.2276901
   -79.4472755   47.2256761
   -79.4523164   47.2086876
   -79.4488094   47.1981764
   -79.4505774   47.1892097
   -79.4475385   47.1801431
   -79.4483500   47.1736207
   -79.4503630   47.1698424
   -79.4504706   47.1585778
   -79.4538808   47.1507426
   -79.4530166   47.1436498
   -79.4568934   47.1316077
   -79.4540771   47.1213137
   -79.4558647   47.1121807
   -79.4519390   47.1051552
   -79.4456889   47.0896946
   -79.4377831   47.0729794
   -79.4297140   47.0703150
   -79.4244840   47.0597949
   -79.4161748   47.0562003
   -79.4112197   47.0465823
   -79.4026127   47.0421120
   -79.3979783   47.0333525
   -79.3890357   47.0280416
   -79.3847517   47.0201101
   -79.3754490   47.0139846
   -79.3715358   47.0068588
   -79.3618537   46.9999359
   -79.3589453   46.9931092
   -79.3513213   46.9815985
   -79.3503230   46.9761900
   -79.3434191   46.9677947
   -79.3415954   46.9593546
   -79.3356765   46.9539386
   -79.3326900   46.9426622
   -79.3237930   46.9372661
   -79.3205665   46.9285389
   -79.3131570   46.9246538
   -79.3090641   46.9161082
   -79.3010990   46.9133443
   -79.2947260   46.9026323
   -79.2894001   46.9017040
   -79.2800400   46.8895804
   -79.2754941   46.8895527
   -79.2636515   46.8785972
   -79.2530347   46.8719044
   -79.2508175   46.8632926
   -79.2423718   46.8607550
   -79.2377483   46.8482744
   -79.2331056   46.8487031
   -79.2232307   46.8350175
   -79.2184066   46.8374140
   -79.2076959   46.8229964
   -79.2014999   46.8257457
   -79.1853478   46.8176857
   -79.1800929   46.8141282
   -79.1715970   46.8027782
   -79.1713973   46.8006846
   -79.1606994   46.7868928
   -79.1604848   46.7842600
   -79.1497928   46.7710113
   -79.1495823   46.7678296
   -79.1388756   46.7551378
   -79.1386916   46.7513893
   -79.1279454   46.7392727
   -79.1278155   46.7349378
   -79.1169989   46.7234157
   -79.1169575   46.7184740
   -79.1060323   46.7075721
   -79.1061223   46.7019930
   -79.0950393   46.6917435
   -79.0953163   46.6854896
   -79.0822042   46.6744060
   -79.0816006   46.6711588
   -79.0696668   46.6628104
   -79.0674878   46.6571237
   -79.0573779   46.6508659
   -79.0531577   46.6432503
   -79.0452184   46.6387417
   -79.0386979   46.6294767
   -79.0331321   46.6265127
   -79.0241498   46.6157655
   -79.0198515   46.6129133
   -79.0138494   46.5988860
   -79.0118113   46.5970636
   -79.0043478   46.5814087
   -78.9954231   46.5654653
   -78.9954518   46.5634790
   -78.9763882   46.5348117
   -78.9694966   46.5341744
   -78.9628775   46.5231944
   -78.9551924   46.5221848
   -78.9493392   46.5116091
   -78.9409133   46.5101636
   -78.9357736   46.5000549
   -78.9266613   46.4981117
   -78.9221837   46.4885307
   -78.9124326   46.4860311
   -78.9085685   46.4770353
   -78.8982285   46.4739219
   -78.8949302   46.4655664
   -78.8840472   46.4617856
   -78.8818228   46.4556516
   -78.8667621   46.4517979
   -78.8649634   46.4469781
   -78.8502522   46.4439191
   -78.8480976   46.4383171
   -78.8337494   46.4360274
   -78.8312254   46.4296696
   -78.8172538   46.4281212
   -78.8143462   46.4210372
   -78.8007656   46.4202007
   -78.7974586   46.4124214
   -78.7842854   46.4122632
   -78.7805629   46.4038238
   -78.7678149   46.4043073
   -78.7636579   46.3952445
   -78.7513543   46.3963325
   -78.7467424   46.3866868
   -78.7349050   46.3883356
   -78.7299323   46.3783839
   -78.7279434   46.3771451
   -78.7265326   46.3609091
   -78.7267636   46.3513123
   -78.7208733   46.3450631
   -78.7205303   46.3427327
   -78.7120372   46.3319651
   -78.7108504   46.3316559
   -78.7046226   46.3197525
   -78.7009689   46.3192485
   -78.6937529   46.3255694
   -78.6899730   46.3255125
   -78.6837922   46.3168794
   -78.6837460   46.3168730
   -78.6724795   46.3249966
   -78.6643125   46.3160658
   -78.6534950   46.3227346
   -78.6448838   46.3150406
   -78.6345048   46.3206602
   -78.6254747   46.3138730
   -78.6155119   46.3187021
   -78.6060797   46.3126104
   -78.5975471   46.3163692
   -78.5868461   46.3101695
   -78.5792983   46.3137998
   -78.5676061   46.3077765
   -78.5610548   46.3111841
   -78.5483603   46.3054293
   -78.5428177   46.3085224
   -78.5291088   46.3031266
   -78.5245857   46.3058175
   -78.5098501   46.3008680
   -78.5063597   46.3030694
   -78.4923722   46.2991524
   -78.4879232   46.3019601
   -78.4751595   46.2972696
   -78.4694870   46.3008517
   -78.4579462   46.2953850
   -78.4510505   46.2997436
   -78.4407331   46.2935002
   -78.4326140   46.2986379
   -78.4235195   46.2916137
   -78.4141769   46.2975338
   -78.4063063   46.2897249
   -78.3949849   46.2969115
   -78.3875558   46.2871800
   -78.3756791   46.2900262
   -78.3687213   46.2833938
   -78.3563054   46.2841242
   -78.3501018   46.2791501
   -78.3369072   46.2785597
   -78.3315657   46.2747247
   -78.3174988   46.2731505
   -78.3130737   46.2702090
   -78.3069149   46.2692300
   -78.2978231   46.2715952
   -78.2889007   46.2696296
   -78.2779955   46.2721881
   -78.2708968   46.2701039
   -78.2581761   46.2726965
   -78.2529059   46.2706795
   -78.2383628   46.2730926
   -78.2349311   46.2713992
   -78.2185620   46.2733320
   -78.2169840   46.2723306
   -78.1987587   46.2735868
   -78.1809509   46.2730790
   -78.1788709   46.2750729
   -78.1598100   46.2722300
   -78.1592521   46.2726795
   -78.1407520   46.2694603
   -78.1396387   46.2702227
   -78.0840616   46.2587219
   -78.0830302   46.2593056
   -78.0652493   46.2547173
   -78.0637167   46.2555680
   -78.0464361   46.2507178
   -78.0444043   46.2518231
   -78.0276214   46.2467253
   -78.0250925   46.2480727
   -78.0088055   46.2427393
   -78.0057834   46.2443147
   -77.9899877   46.2387601
   -77.9864748   46.2405503
   -77.9711690   46.2347876
   -77.9671670   46.2367791
   -77.9523490   46.2308223
   -77.9478621   46.2330002
   -77.9335274   46.2268642
   -77.9285577   46.2292146
   -77.9147045   46.2229135
   -77.9092559   46.2254210
   -77.8958799   46.2189703
   -77.8899549   46.2216200
   -77.8770541   46.2150343
   -77.8706556   46.2178108
   -77.8582264   46.2111073
   -77.8513583   46.2139942
   -77.8393974   46.2071873
   -77.8320623   46.2101688
   -77.8205659   46.2032765
   -77.8127686   46.2063356
   -77.8019894   46.1995352
   -77.7932917   46.2033817
   -77.7825169   46.1961073
   -77.7738058   46.2004732
   -77.7630513   46.1926273
   -77.7543070   46.1976289
   -77.7435940   46.1890742
   -77.7347901   46.1948707
   -77.7241494   46.1854184
   -77.7152462   46.1922427
   -77.7047230   46.1816098
   -77.6966248   46.1889402
   -77.6841453   46.1873835
   -77.6817367   46.1895321
   -77.6742002   46.1909976
   -77.6646351   46.1842688
   -77.6551036   46.1870624
   -77.6453540   46.1792543
   -77.6359195   46.1833759
   -77.6253272   46.1731178
   -77.6181246   46.1756795
   -77.6071461   46.1660864
   -77.6003000   46.1680700
   -77.5889993   46.1589814
   -77.5824549   46.1605198
   -77.5708768   46.1518249
   -77.5645950   46.1530123
   -77.5527720   46.1446310
   -77.5485867   46.1452576
   -77.5352521   46.1362021
   -77.5316675   46.1368346
   -77.5177245   46.1277895
   -77.5147572   46.1283935
   -77.5001881   46.1193954
   -77.4978563   46.1199343
   -77.4826427   46.1110204
   -77.4809654   46.1114549
   -77.4650876   46.1026659
   -77.4640856   46.1029538
   -77.4475223   46.0943327
   -77.4131242   46.0780865
   -77.4127209   46.0769716
   -77.3960279   46.0700126
   -77.3953658   46.0681946
   -77.3789331   46.0619373
   -77.3780096   46.0594200
   -77.3618395   46.0538597
   -77.3606522   46.0506480
   -77.3447472   46.0457795
   -77.3432937   46.0418784
   -77.3276560   46.0376958
   -77.3259335   46.0331122
   -77.3105666   46.0296098
   -77.3085720   46.0243496
   -77.2934791   46.0215201
   -77.2887463   46.0091566
   -77.2829739   46.0053201
   -77.2835772   45.9928272
   -77.2819640   45.9899972
   -77.2832020   45.9754110
   -77.2809060   45.9722274
   -77.2830165   45.9579530
   -77.2738797   45.9489171
   -77.2728677   45.9488732
   -77.2608305   45.9365552
   -77.2593522   45.9364322
   -77.2477644   45.9242080
   -77.2458481   45.9239757
   -77.2358013   45.9130844
   -77.2356133   45.9109458
   -77.2246380   45.9006524
   -77.2243894   45.8967526
   -77.2134208   45.8882603
   -77.2132348   45.8824899
   -77.2021146   45.8759300
   -77.2021964   45.8681109
   -77.1875157   45.8625247
   -77.1863242   45.8634232
   -77.1693715   45.8576095
   -77.1687705   45.8580767
   -77.1512221   45.8527120
   -77.1334999   45.8479485
   -77.1332402   45.8472275
   -77.1157804   45.8431736
   -77.1152541   45.8417539
   -77.0980650   45.8383868
   -77.0972655   45.8362928
   -77.0805766   45.8336239
   -77.0795952   45.8290774
   -77.0638302   45.8234351
   -77.0636440   45.8223735
   -77.0486735   45.8138707
   -77.0463056   45.8148295
   -77.0338971   45.8050120
   -77.0286197   45.8065518
   -77.0189013   45.7965546
   -77.0111122   45.7979126
   -77.0037218   45.7884363
   -76.9937587   45.7889588
   -76.9911662   45.7849314
   -76.9740888   45.7857698
   -76.9734295   45.7875139
   -76.9574371   45.7901571
   -76.9415813   45.7940536
   -76.9406534   45.7934439
   -76.9257712   45.7977024
   -76.9238698   45.7967377
   -76.9091460   45.8014715
   -76.9081484   45.8147476
   -76.9103656   45.8187130
   -76.9106275   45.8302358
   -76.9118614   45.8324689
   -76.9130925   45.8457254
   -76.9157205   45.8543881
   -76.9163786   45.8659442
   -76.9193369   45.8710887
   -76.9182266   45.8846212
   -76.9105282   45.8872016
   -76.9045128   45.8948643
   -76.8910395   45.8889535
   -76.8876983   45.8924842
   -76.8724852   45.8889746
   -76.8708922   45.8904514
   -76.8540920   45.8886979
   -76.8400164   45.8883179
   -76.8362374   45.8836068
   -76.8224498   45.8843099
   -76.8185119   45.8784187
   -76.8048004   45.8805332
   -76.8008508   45.8728226
   -76.7869729   45.8772571
   -76.7842843   45.8690450
   -76.7780188   45.8655579
   -76.7754927   45.8521546
   -76.7715245   45.8453525
   -76.7748767   45.8341178
   -76.7718176   45.8264286
   -76.7752567   45.8161020
   -76.7721427   45.8075063
   -76.7756051   45.7980862
   -76.7724990   45.7885834
   -76.7748528   45.7827272
   -76.7705358   45.7696222
   -76.7732145   45.7646293
   -76.7685619   45.7506598
   -76.7715928   45.7465273
   -76.7664546   45.7313640
   -76.7556371   45.7297063
   -76.7484662   45.7207149
   -76.7401830   45.7182250
   -76.7312139   45.7095600
   -76.7246375   45.7071286
   -76.7164674   45.7002070
   -76.7108280   45.6890508
   -76.7113592   45.6812087
   -76.7136909   45.6755589
   -76.7109772   45.6538125
   -76.7019416   45.6481146
   -76.6994745   45.6390059
   -76.6917652   45.6339092
   -76.6880328   45.6241648
   -76.6815513   45.6197402
   -76.6786777   45.6136499
   -76.6788157   45.6080969
   -76.6730320   45.5990842
   -76.6729294   45.5901913
   -76.6676109   45.5844808
   -76.6667659   45.5724385
   -76.6626920   45.5697866
   -76.6607348   45.5589392
   -76.6483106   45.5575829
   -76.6474046   45.5515391
   -76.6346139   45.5488937
   -76.6340369   45.5442019
   -76.6209536   45.5401418
   -76.6206346   45.5369215
   -76.6056979   45.5306486
   -76.6032362   45.5333088
   -76.5861054   45.5268000
   -76.5839520   45.5289570
   -76.5665252   45.5229022
   -76.5646604   45.5246428
   -76.5469524   45.5189696
   -76.5453642   45.5203568
   -76.5273875   45.5150081
   -76.5260622   45.5160957
   -76.5078276   45.5110238
   -76.5067579   45.5118512
   -76.4882721   45.5070216
   -76.4874504   45.5076227
   -76.4687197   45.5030054
   -76.4681415   45.5034064
   -76.4488835   45.4989083
   -76.4349920   45.4941749
   -76.4322421   45.4895910
   -76.4193871   45.4867418
   -76.4159692   45.4807930
   -76.4037541   45.4793561
   -76.3997244   45.4719254
   -76.3880757   45.4720456
   -76.3835263   45.4629464
   -76.3723165   45.4648684
   -76.3674121   45.4537654
   -76.3538651   45.4589219
   -76.3504670   45.4555000
   -76.3347212   45.4607273
   -76.3320876   45.4578488
   -76.3155715   45.4624677
   -76.3137168   45.4602702
   -76.2964143   45.4641342
   -76.2953557   45.4627763
   -76.2772487   45.4657141
   -76.2585566   45.4671506
   -76.2581615   45.4681071
   -76.2400577   45.4685398
   -76.2329203   45.4891135
   -76.2315282   45.4902223
   -76.2287742   45.5019499
   -76.2260522   45.5050053
   -76.2128236   45.5158853
   -76.2052343   45.5098726
   -76.1961176   45.5180551
   -76.1862185   45.5105241
   -76.1770228   45.5183493
   -76.1672026   45.5111591
   -76.1579285   45.5186574
   -76.1481865   45.5117811
   -76.1388347   45.5189791
   -76.1291703   45.5123903
   -76.1197413   45.5193115
   -76.1101539   45.5129895
   -76.1006488   45.5196542
   -76.0899929   45.5128475
   -76.0845610   45.5148114
   -76.0734799   45.5063650
   -76.0665216   45.5086295
   -76.0569400   45.4999597
   -76.0485143   45.5023653
   -76.0403704   45.4936408
   -76.0305414   45.4960105
   -76.0237675   45.4874180
   -76.0126071   45.4895542
   -76.0071262   45.4813037
   -75.9947167   45.4829847
   -75.9904424   45.4753113
   -75.9768744   45.4762889
   -75.9737105   45.4694581
   -75.9612691   45.4694499
   -75.9595394   45.4563920
   -75.9593058   45.4561628
   -75.9491925   45.4571440
   -75.9450836   45.4431616
   -75.9374314   45.4445100
   -75.9303480   45.4305014
   -75.9259753   45.4315590
   -75.9153081   45.4181541
   -75.9014536   45.4073297
   -75.9021957   45.4038235
   -75.8877267   45.3961568
   -75.8872535   45.3913761
   -75.8594968   45.3816985
   -75.8453482   45.3755934
   -75.8428375   45.3787235
   -75.8301022   45.3735603
   -75.8273098   45.3763079
   -75.8164138   45.3720684
   -75.8131250   45.3772526
   -75.8085823   45.3775613
   -75.8045015   45.3736456
   -75.7992735   45.3750210
   -75.7983945   45.3803958
   -75.7930356   45.3839616
   -75.7877243   45.3816567
   -75.7847595   45.3894684
   -75.7771019   45.3945637
   -75.7765783   45.3942532
   -75.7714838   45.3999146
   -75.7609240   45.4108864
   -75.7492939   45.4138628
   -75.7480260   45.4114675
   -75.7445305   45.4120519
   -75.7383288   45.4177795
   -75.7325571   45.4188757
   -75.7303843   45.4144169
   -75.7291503   45.4146232
   -75.7287365   45.4147715
   -75.7241126   45.4174371
   -75.7228466   45.4209839
   -75.7198705   45.4216714
   -75.7151747   45.4225967
   -75.7146626   45.4214155
   -75.7060097   45.4236737
   -75.7059000   45.4281775
   -75.7057422   45.4284605
   -75.7050325   45.4303722
   -75.7048691   45.4311689
   -75.7014775   45.4305137
   -75.7000164   45.4366254
   -75.6982688   45.4403290
   -75.6982463   45.4403588
   -75.7004784   45.4447033
   -75.6999080   45.4457863
   -75.6949162   45.4447658
   -75.6891340   45.4524180
   -75.6889312   45.4526622
   -75.6915215   45.4553492
   -75.6914675   45.4553908
   -75.6865488   45.4587166
   -75.6798831   45.4571686
   -75.6758449   45.4583380
   -75.6745039   45.4599172
   -75.6567494   45.4616622
   -75.6558754   45.4603977
   -75.6394604   45.4661565
   -75.6369979   45.4621778
   -75.6356545   45.4623045
   -75.6220285   45.4698053
   -75.6176572   45.4640015
   -75.6169060   45.4640724
   -75.6045030   45.4729026
   -75.5981915   45.4660884
   -75.5869140   45.4756247
   -75.5801695   45.4697990
   -75.5697505   45.4817770
   -75.5696432   45.4818183
   -75.5637799   45.4766989
   -75.5519357   45.4876201
   -75.5473978   45.4836196
   -75.5341805   45.4933669
   -75.5310218   45.4905579
   -75.5164179   45.4990953
   -75.5146521   45.4975128
   -75.4986503   45.5048086
   -75.4815045   45.5102912
   -75.4813037   45.5116181
   -75.4648604   45.5157531
   -75.4643823   45.5151597
   -75.4479211   45.5204130
   -75.4466629   45.5180459
   -75.4305101   45.5214528
   -75.4299511   45.5204751
   -75.4131409   45.5228167
   -75.3964048   45.5238402
   -75.3958894   45.5250835
   -75.3795417   45.5252014
   -75.3781052   45.5299477
   -75.3624581   45.5312274
   -75.3608245   45.5350320
   -75.3453253   45.5370442
   -75.3435904   45.5402323
   -75.3281669   45.5427489
   -75.3263835   45.5454985
   -75.3159680   45.5474548
   -75.3111867   45.5557276
   -75.3012920   45.5553727
   -75.2962166   45.5665169
   -75.2852239   45.5620617
   -75.2790269   45.5718255
   -75.2693026   45.5682164
   -75.2618764   45.5772323
   -75.2533580   45.5742910
   -75.2447518   45.5827022
   -75.2373977   45.5803127
   -75.2284145   45.5875943
   -75.2202231   45.5822215
   -75.2096574   45.5912261
   -75.2087572   45.5912512
   -75.2018588   45.5823419
   -75.1895934   45.5887586
   -75.1829299   45.5820873
   -75.1701024   45.5865006
   -75.1640671   45.5814394
   -75.1506206   45.5845505
   -75.1452378   45.5805950
   -75.1311432   45.5827645
   -75.1289401   45.5813043
   -75.1117408   45.5836517
   -75.1100349   45.5824378
   -75.0923388   45.5845178
   -75.0911310   45.5835945
   -75.0722794   45.5854223
   -75.0709458   45.5868732
   -75.0581062   45.5876891
   -75.0520531   45.5934303
   -75.0423819   45.5921991
   -75.0330446   45.5994737
   -75.0269049   45.5973245
   -75.0138634   45.6047476
   -75.0118543   45.6035150
   -74.9962175   45.6082432
   -74.9950551   45.6116779
   -74.9801473   45.6109581
   -74.9785904   45.6189185
   -74.9665456   45.6195990
   -74.9654791   45.6262368
   -74.9529935   45.6283249
   -74.9523202   45.6334766
   -74.9394864   45.6371285
   -74.9391181   45.6406460
   -74.9253298   45.6462846
   -74.9213603   45.6396213
   -74.9062547   45.6455187
   -74.9023851   45.6390934
   -74.8877438   45.6445451
   -74.8870193   45.6444918
   -74.8834099   45.6385615
   -74.8691660   45.6432158
   -74.8676383   45.6432361
   -74.8644345   45.6380265
   -74.8490297   45.6432365
   -74.8454591   45.6374892
   -74.8299550   45.6424823
   -74.8264837   45.6369491
   -74.8108795   45.6417287
   -74.8075086   45.6364076
   -74.7918042   45.6409784
   -74.7885335   45.6358633
   -74.7727285   45.6402301
   -74.7695589   45.6353184
   -74.7536531   45.6394834
   -74.7505843   45.6347696
   -74.7345773   45.6387383
   -74.7316096   45.6342200
   -74.7155018   45.6379961
   -74.7126348   45.6336680
   -74.6964258   45.6372554
   -74.6936598   45.6331146
   -74.6773501   45.6365160
   -74.6746853   45.6325598
   -74.6582744   45.6357789
   -74.6557107   45.6320028
   -74.6391983   45.6350431
   -74.6360107   45.6303849
   -74.6268491   45.6305155
   -74.6197643   45.6222348
   -74.6146332   45.6242072
   -74.6030050   45.6156746
   -74.5976740   45.6202581
   -74.5855823   45.6111733
   -74.5794125   45.6153064
   -74.5681483   45.6067072
   -74.5611561   45.6103314
   -74.5507080   45.6022607
   -74.5429022   45.6053402
   -74.5332636   45.5978278
   -74.5246507   45.6003381
   -74.5158167   45.5934036
   -74.5064004   45.5953284
   -74.4989468   45.5894445
   -74.4879057   45.5915025
   -74.4808669   45.5857409
   -74.4709396   45.5874104
   -74.4629869   45.5810656
   -74.4539918   45.5833002
   -74.4451000   45.5764215
   -74.4370554   45.5791544
   -74.4272045   45.5718177
   -74.4201328   45.5749608
   -74.4092983   45.5672682
   -74.4032296   45.5707021
   -74.3900392   45.5619002
   -74.3900007   45.5550168
   -74.3963736   45.5493697
   -74.3960193   45.5368537
   -74.4026703   45.5308867
   -74.4020423   45.5186924
   -74.4089627   45.5124026
   -74.4080698   45.5005330
   -74.4152508   45.4939174
   -74.4141017   45.4823745
   -74.4215337   45.4754299
   -74.4201388   45.4642179
   -74.4278110   45.4569406
   -74.4261807   45.4460641
   -74.4340833   45.4384497
   -74.4322286   45.4279111
   -74.4403499   45.4199564
   -74.4382835   45.4097609
   -74.4466101   45.4014617
   -74.4443440   45.3916130
   -74.4528632   45.3829649
   -74.4504115   45.3734669
   -74.4591094   45.3644661
   -74.4564866   45.3553237
   -74.4653479   45.3459642
   -74.4625695   45.3371835
   -74.4715782   45.3274596
   -74.4686610   45.3190464
   -74.4777995   45.3089521
   -74.4736318   45.2998671
   -74.4588620   45.2883313
   -74.4579028   45.2887366
   -74.4433657   45.2765870
   -74.4417458   45.2772549
   -74.4278624   45.2648530
   -74.4255957   45.2657639
   -74.4123510   45.2531294
   -74.4094537   45.2542626
   -74.3968329   45.2414155
   -74.3933182   45.2427517
   -74.3813079   45.2297117
   -74.3771890   45.2312311
   -74.3657760   45.2180169
   -74.3610687   45.2196991
   -74.3410052   45.1949465
   -74.3561972   45.1858209
   -74.3592472   45.1854109
   -74.3727481   45.1768724
   -74.3768815   45.1762049
   -74.3893136   45.1679500
   -74.3945025   45.1669722
   -74.4058909   45.1590538
   -74.4161656   45.1568429
   -74.4290559   45.1500383
   -74.4406701   45.1398903
   -74.4439573   45.1349688
   -74.4477379   45.1322424
   -74.4594970   45.1200078
   -74.4724942   45.1098040
   -74.4778313   45.1067821
   -74.4829642   45.1000228
   -74.4911367   45.0909627
   -74.5081058   45.0799623
   -74.5146525   45.0788584
   -74.5261388   45.0723945
   -74.5292412   45.0721714
   -74.5442017   45.0649138
   -74.5588813   45.0596129
   -74.5619859   45.0565448
   -74.5768376   45.0529646
   -74.5803122   45.0499154
   -74.5928269   45.0480012
   -74.5987004   45.0434903
   -74.6087434   45.0428319
   -74.6171578   45.0372826
   -74.6245801   45.0374398
   -74.6356870   45.0313091
   -74.6403304   45.0318069
   -74.6527131   45.0262902
   -74.6539052   45.0243348
   -74.6697078   45.0182614
   -74.6730665   45.0113920
   -74.6831479   45.0053176
   -74.6860644   44.9983030
   -74.7030120   44.9987266
   -74.7064007   44.9982243
   -74.7361076   44.9884035
   -74.7588632   44.9917129
   -74.7808613   45.0018223
   -74.8131162   45.0077381
   -74.8295791   45.0119651
   -74.8359788   45.0114868
   -74.9047015   44.9823297
   -74.9776813   44.9775320
   -74.9842878   44.9744404
   -75.0052112   44.9525504
   -75.1271865   44.8976411
   -75.1690864   44.8851920
   -75.2249730   44.8598992
   -75.2512331   44.8577449
   -75.2542714   44.8570144
   -75.2941961   44.8404704
   -75.2986408   44.8368500
   -75.3001505   44.8333062
   -75.3000519   44.8241316
   -75.3342000   44.8043631
   -75.3436997   44.8031000
   -75.3472055   44.8011739
   -75.3691122   44.7826943
   -75.4000431   44.7721580
   -75.4031304   44.7704485
   -75.4198307   44.7568913
   -75.5115634   44.6964890
   -75.6841980   44.5706060
   -75.7648881   44.5131016
   -75.7662472   44.5119363
   -75.8052890   44.4718628
   -75.8075972   44.4680943
   -75.8200343   44.4318494
   -75.8652274   44.3985382
   -75.9115304   44.3675834
   -75.9215055   44.3667158
   -75.9294126   44.3588415
   -75.9397690   44.3545317
   -75.9495484   44.3484934
   -75.9695976   44.3420879
   -75.9829595   44.3466484
   -75.9982774   44.3472238
   -76.0078520   44.3437686
   -76.0439459   44.3315925
   -76.0460389   44.3306037
   -76.0959714   44.2994825
   -76.1096355   44.2976313
   -76.1189179   44.2939653
   -76.1361634   44.2913414
   -76.1391814   44.2903743
   -76.1545122   44.2826012
   -76.1586884   44.2786156
   -76.1599862   44.2739613
   -76.1611773   44.2385909
   -76.1927382   44.2158879
   -76.2159742   44.2024024
   -76.3009697   44.1935177
   -76.3081542   44.1892609
   -76.3483915   44.1312402
   -76.4153009   44.0858943
   -76.4176390   44.0836846
   -76.7763141   43.6138942
   -76.7767269   43.6136915
   -78.6866121   43.6250096
   -78.6900078   43.6244368
   -79.1750072   43.4527821
   -79.1807568   43.4475317
   -79.1816660   43.4436650
   -79.1800961   43.4379687
   -79.0696172   43.2651588
   -79.0655362   43.2615382
   -79.0550809   43.2564821
   -79.0544917   43.2376037
   -79.0506804   43.2231308
   -79.0532794   43.2153584
   -79.0526601   43.2075399
   -79.0476090   43.1994920
   -79.0505968   43.1739082
   -79.0490932   43.1673674
   -79.0460736   43.1624894
   -79.0418312   43.1438309
   -79.0435531   43.1380289
   -79.0511029   43.1322135
   -79.0598606   43.1228146
   -79.0605713   43.1169382
   -79.0576022   43.1073283
   -79.0588581   43.1034818
   -79.0676468   43.0869529
   -79.0659482   43.0803989
   -79.0595036   43.0762026
   -79.0135717   43.0677264
   -79.0090999   43.0663482
   -78.9992608   43.0584733
   -79.0010547   43.0502384
   -79.0214566   43.0203444
   -79.0231665   43.0142446
   -79.0218370   43.0000120
   -79.0162642   42.9875799
   -79.0104908   42.9836108
   -78.9997261   42.9808812
   -78.9755004   42.9696880
   -78.9632861   42.9602823
   -78.9578514   42.9581737
   -78.9330441   42.9569806
   -78.9205063   42.9521346
   -78.9031425   42.9232900
   -78.9053106   42.8925600
   -78.9203165   42.8260669
   -78.9205958   42.8257405
   -80.0666153   42.3713149
   -80.0671615   42.3711675
   -81.2242240   42.1965422
   -81.2269211   42.1957343
   -82.3876434   41.6601853
   -82.3880774   41.6600951
   -82.6748256   41.6665849
   -82.6846715   41.6677523
   -83.0948528   41.8490052
   -83.0951728   41.8493558
   -83.1625828   42.0494010
   -83.1625552   42.0498478
   -83.1293992   42.1187899
   -83.1285735   42.1249186
   -83.1376281   42.1749829
   -83.1304352   42.2320310
   -83.1282874   42.2410234
   -83.1143891   42.2618035
   -83.0986385   42.2910784
   -83.0870814   42.3030765
   -83.0746613   42.3132131
   -83.0708744   42.3155535
   -83.0464221   42.3238379
   -82.9481176   42.3489078
   -82.8370986   42.3756476
   -82.8324089   42.3782590
   -82.6517520   42.5568999
   -82.6230989   42.5600044
   -82.6011888   42.5533848
   -82.5945996   42.5536374
   -82.5907148   42.5563775
   -82.5683507   42.5819647
   -82.5267169   42.6093793
   -82.5230265   42.6137885
   -82.5131079   42.6369071
   -82.5123018   42.6411304
   -82.5128920   42.6658603
   -82.4918028   42.7111373
   -82.4878706   42.7229220
   -82.4857325   42.7371608
   -82.4739368   42.7548210
   -82.4701543   42.7613413
   -82.4697555   42.7677763
   -82.4746688   42.7853692
   -82.4852835   42.8098909
   -82.4728309   42.8458398
   -82.4722800   42.8491129
   -82.4722800   42.8874504
   -82.4646361   42.9058496
   -82.4574691   42.9254635
   -82.4489386   42.9372485
   -82.4312999   42.9514969
   -82.4199350   42.9641847
   -82.4164062   42.9740688
   -82.4176184   42.9788702
   -82.4237031   42.9856004
   -82.4261088   42.9935061
   -82.4250443   42.9988148
   -82.4140416   43.0097568
   -82.4117532   43.0132743
   -82.3912357   43.0668543
   -82.1451851   43.5739489
   -82.1441834   43.5784858
   -82.1458164   43.5837932
   -83.6087411   45.8175079
   -83.6087095   45.8179075
   -83.4547276   45.9872294
   -83.4524460   45.9914473
   -83.4523904   45.9962424
   -83.4559765   46.0018433
   -83.5787953   46.0976156
   -83.5834018   46.0996100
   -83.6732563   46.1136408
   -83.6766930   46.1135796
   -83.7695043   46.0956774
   -83.8153251   46.1102176
   -83.8210203   46.1103370
   -83.8244490   46.1086364
   -83.8861973   46.0614051
   -83.8866527   46.0612137
   -83.9553441   46.0513539
   -83.9557442   46.0514926
   -84.1000668   46.2031980
   -84.1003041   46.2036229
   -84.1593789   46.4274586
   -84.1593236   46.4278991
   -84.1189485   46.5004749
   -84.1181346   46.5082940
   -84.1200660   46.5118107
   -84.1308382   46.5244912
   -84.1340582   46.5269963
   -84.1400580   46.5278883
   -84.1600707   46.5246800
   -84.1800207   46.5246800
   -84.1924589   46.5349025
   -84.2009748   46.5370195
   -84.2217470   46.5325802
   -84.2272724   46.5292823
   -84.2572636   46.4940437
   -84.2905345   46.4908389
   -84.3477922   46.5051996
   -84.3680391   46.5052296
   -84.4348119   46.4893772
   -84.4395876   46.4867041
   -84.4762545   46.4498862
   -84.4766542   46.4497333
   -84.5587912   46.4543959
   -84.5592377   46.4545618
   -84.8477595   46.6760537
   -84.8480718   46.6764070
   -84.9548995   46.8579699
   -84.9596991   46.8621407
   -88.3651588   48.2694569
   -88.3720064   48.2697454
   -88.3999537   48.2608651
   -88.4114844   48.2653846
   -88.4183820   48.2656194
   -89.3119148   47.9712083
   -89.3355226   47.9638204
   -89.3663764   47.9674425
   -89.4888581   48.0084362
   -89.4936375   48.0088235
   -89.5840098   47.9941906
   -89.7050786   48.0028022
   -89.7875657   48.0101626
   -89.7920661   48.0095272
   -89.8588692   47.9836539
   -89.8951961   47.9791913
   -89.9999365   48.0255866
   -90.0139078   48.0378866
   -90.0464897   48.0760080
   -90.0511817   48.0790782
   -90.0609257   48.0795872
   -90.0664860   48.0842726
   -90.0731696   48.0867745
   -90.4722858   48.0841103
   -90.7571203   48.0872472
   -90.7575422   48.0874308
   -90.8457543   48.1800745
   -90.8633708   48.2192393
   -90.8664844   48.2231458
   -90.8721045   48.2251495
   -90.8802550   48.2229136
   -90.8832074   48.2273743
   -90.8873672   48.2298200
   -90.8940492   48.2294633
   -91.2407322   48.0851382
   -91.3192886   48.0551814
   -91.5757515   48.0351510
   -91.5813619   48.0380306
   -91.5816302   48.0737806
   -91.5844963   48.0807135
   -91.5894718   48.0834699
   -91.7204920   48.1124274
   -91.7207745   48.1127196
   -91.7337118   48.1823764
   -91.7369496   48.1880682
   -91.7430150   48.1905363
   -91.8646894   48.1969773
   -91.8651570   48.1970708
   -91.9937992   48.2428601
   -92.0117934   48.2519142
   -92.0596909   48.3464692
   -92.0628427   48.3501185
   -92.0692799   48.3519280
   -92.2721551   48.3383419
   -92.2758929   48.3373414
   -92.2805636   48.3325612
   -92.2811802   48.3259065
   -92.2604996   48.2443450
   -92.2606738   48.2440458
   -92.3734906   48.2130757
   -92.3738797   48.2132080
   -92.4796776   48.3530918
   -92.5107243   48.4343016
   -92.5161876   48.4399543
   -92.5211306   48.4406811
   -92.6289708   48.4291534
   -92.6485002   48.4305184
   -92.6852830   48.4376736
   -92.6954475   48.4405806
   -92.7176528   48.4649647
   -92.7054975   48.4970813
   -92.6464224   48.5075819
   -92.6411992   48.5102600
   -92.6389696   48.5135152
   -92.6385989   48.5203165
   -92.6419857   48.5315400
   -92.6450847   48.5362721
   -92.6521627   48.5386329
   -92.7305470   48.5338947
   -92.7364419   48.5379700
   -92.8128091   48.5623806
   -92.8950984   48.5909727
   -92.9236330   48.5977985
   -92.9569741   48.6084546
   -92.9604507   48.6167421
   -92.9664404   48.6217712
   -92.9694104   48.6222079
   -93.1806425   48.6212212
   -93.1855341   48.6269099
   -93.1897657   48.6299484
   -93.2137551   48.6389569
   -93.2185433   48.6395139
   -93.2862426   48.6308274
   -93.3400483   48.6251848
   -93.3453804   48.6229439
   -93.3478365   48.6199313
   -93.3530662   48.6101130
   -93.3589367   48.6110445
   -93.3644821   48.6093351
   -93.3710902   48.6050359
   -93.3845137   48.6048079
   -93.3957385   48.6024359
   -93.4033112   48.6057513
   -93.4100850   48.6066449
   -93.4239655   48.6015456
   -93.4378632   48.5936285
   -93.4566818   48.5912908
   -93.4605047   48.5882520
   -93.4622285   48.5847300
   -93.4622830   48.5798468
   -93.4556566   48.5677183
   -93.4557051   48.5594700
   -93.4587770   48.5522521
   -93.4652329   48.5455383
   -93.4862116   48.5412445
   -93.5163839   48.5343497
   -93.5428269   48.5278150
   -93.5659869   48.5270976
   -93.6439527   48.5159553
   -93.6952049   48.5137823
   -93.7948829   48.5153665
   -93.8255791   48.5272157
   -93.8133812   48.5743911
   -93.8141619   48.5814522
   -93.8328210   48.6178919
   -93.8353596   48.6210492
   -93.8409459   48.6233040
   -93.9369206   48.6307740
   -94.2405650   48.6507020
   -94.2551596   48.6569171
   -94.2643931   48.6883932
   -94.2693887   48.6944575
   -94.2742553   48.6955748
   -94.4510707   48.6908593
   -94.5349404   48.7003328
   -94.5911846   48.7180498
   -94.6126684   48.7306450
   -94.6461913   48.7409398
   -94.6501810   48.7496226
   -94.6543173   48.7542646
   -94.6952920   48.7780990
   -94.6986527   48.7957767
   -94.6982692   48.8079004
   -94.6994722   48.8130310
   -94.7060544   48.8251669
   -94.7028041   48.8339213
   -94.6967375   48.8373046
   -94.6933839   48.8409559
   -94.6926700   48.8487261
   -94.8397432   49.3091805
   -94.8456164   49.3154469
   -94.9629649   49.3614931
   -94.9681499   49.3620660
   -95.0455709   49.3500617
   -95.0583487   49.3508694
   -95.1161438   49.3627193
   -95.1475578   49.3775840
   -95.1526608   49.3800117
END
END
