north-america-canada-atlantic
1
   -69.0569902   47.2986462
   -69.0480117   47.2979282
   -69.0472670   47.3027479
   -69.0295624   47.3019042
   -69.0288968   47.3061613
   -69.0111119   47.3058771
   -69.0105269   47.3095763
   -68.9926612   47.3098483
   -68.9921578   47.3129951
   -68.9742101   47.3138147
   -68.9737892   47.3164185
   -68.9557577   47.3177776
   -68.9554204   47.3198424
   -68.9373053   47.3217409
   -68.9370531   47.3232696
   -68.9188526   47.3257000
   -68.9186862   47.3266991
   -68.9003989   47.3296568
   -68.9003194   47.3301293
   -68.8819364   47.3335671
   -68.8636938   47.3375201
   -68.8633891   47.3370478
   -68.8454226   47.3414202
   -68.8448433   47.3405385
   -68.8271494   47.3453104
   -68.8262999   47.3440410
   -68.8088738   47.3491889
   -68.8077582   47.3475523
   -68.7901737   47.3531930
   -68.7894808   47.3523995
   -68.7722311   47.3584754
   -68.7548027   47.3636487
   -68.7545963   47.3646604
   -68.7372922   47.3692949
   -68.7369573   47.3708318
   -68.7197862   47.3749551
   -68.7193138   47.3769899
   -68.7022846   47.3806282
   -68.7016658   47.3831363
   -68.6847869   47.3863133
   -68.6840134   47.3892697
   -68.6672935   47.3920111
   -68.6663573   47.3953923
   -68.6498037   47.3977199
   -68.6486974   47.4015023
   -68.6323182   47.4034412
   -68.6310343   47.4076029
   -68.6148361   47.4091719
   -68.6133672   47.4136933
   -68.5973570   47.4149129
   -68.5956965   47.4197729
   -68.5798814   47.4206644
   -68.5780227   47.4258437
   -68.5629361   47.4264052
   -68.5616192   47.4358417
   -68.5474407   47.4371501
   -68.5462159   47.4458065
   -68.5319436   47.4478922
   -68.5308143   47.4557737
   -68.5164450   47.4586318
   -68.5154142   47.4657431
   -68.5009443   47.4693695
   -68.5000150   47.4757143
   -68.4854426   47.4801049
   -68.4846167   47.4856873
   -68.4699403   47.4908380
   -68.4692202   47.4956619
   -68.4544363   47.5015706
   -68.4538243   47.5056373
   -68.4389319   47.5123019
   -68.4384295   47.5156148
   -68.4234264   47.5230311
   -68.4230350   47.5255934
   -68.4079206   47.5337597
   -68.4076418   47.5355727
   -68.3924134   47.5444876
   -68.3922487   47.5455522
   -68.3807674   47.5527823
   -68.3884060   47.5668273
   -68.3805474   47.5719347
   -68.3881298   47.5858564
   -68.3803293   47.5910866
   -68.3878529   47.6048853
   -68.3801096   47.6102386
   -68.3875761   47.6239144
   -68.3798920   47.6293905
   -68.3872986   47.6429433
   -68.3796729   47.6485425
   -68.3870213   47.6619723
   -68.3794558   47.6676945
   -68.3867434   47.6810013
   -68.3792371   47.6868464
   -68.3864656   47.7000303
   -68.3790198   47.7059989
   -68.3861877   47.7190593
   -68.3788032   47.7251509
   -68.3859096   47.7380887
   -68.3785855   47.7443029
   -68.3856306   47.7571183
   -68.3783693   47.7634549
   -68.3853518   47.7761472
   -68.3781516   47.7826068
   -68.3850731   47.7951763
   -68.3779351   47.8017593
   -68.3847942   47.8142051
   -68.3777184   47.8209114
   -68.3845142   47.8332342
   -68.3775019   47.8400633
   -68.3842350   47.8522631
   -68.3772856   47.8592153
   -68.3839555   47.8712922
   -68.3770695   47.8783673
   -68.3836761   47.8903210
   -68.3768530   47.8975198
   -68.3833965   47.9093501
   -68.3767697   47.9165289
   -68.3679845   47.9117757
   -68.3613087   47.9123268
   -68.3574077   47.9168870
   -68.3487280   47.9124549
   -68.3417639   47.9125259
   -68.3380456   47.9172136
   -68.3285241   47.9126607
   -68.3221991   47.9127252
   -68.3186823   47.9175049
   -68.3082230   47.9128675
   -68.3026179   47.9129246
   -68.2993193   47.9177562
   -68.2877899   47.9130756
   -68.2830222   47.9131242
   -68.2799557   47.9179657
   -68.2671644   47.9132857
   -68.2634125   47.9133239
   -68.2605912   47.9181256
   -68.2462454   47.9134988
   -68.2437903   47.9135238
   -68.2412264   47.9182301
   -68.2248433   47.9137168
   -68.2218609   47.9182743
   -68.2043225   47.9143373
   -68.2024949   47.9182482
   -68.1844026   47.9151925
   -68.1831277   47.9181427
   -68.1644848   47.9161283
   -68.1637593   47.9179463
   -68.1445697   47.9171555
   -68.1443899   47.9176442
   -68.1246583   47.9182898
   -68.1196133   47.9238644
   -68.1229645   47.9392019
   -68.1195860   47.9420344
   -68.1231173   47.9572928
   -68.1195532   47.9602043
   -68.1232741   47.9753844
   -68.1195146   47.9783738
   -68.1234372   47.9934763
   -68.1186632   47.9971679
   -68.1173151   48.0011512
   -68.0989389   47.9976771
   -68.0974662   48.0019168
   -68.0796497   47.9969476
   -68.0773389   48.0025386
   -68.0615390   47.9966939
   -68.0580583   48.0025303
   -68.0560561   48.0025294
   -68.0434266   47.9967019
   -68.0406597   47.9967031
   -68.0384612   48.0025219
   -68.0353306   48.0025206
   -68.0248392   47.9967100
   -68.0211216   47.9967117
   -68.0188623   48.0025135
   -68.0149295   48.0025118
   -68.0059788   47.9967184
   -68.0015852   47.9967203
   -67.9992608   48.0025051
   -67.9947341   48.0025031
   -67.9869421   47.9967267
   -67.9820512   47.9967289
   -67.9796561   48.0024967
   -67.9746774   48.0024945
   -67.9677899   47.9967352
   -67.9625206   47.9967375
   -67.9600497   48.0024882
   -67.9547160   48.0024860
   -67.9485555   47.9967436
   -67.9429926   47.9967461
   -67.9404394   48.0024798
   -67.9348255   48.0024774
   -67.9292610   47.9967521
   -67.9234680   47.9967547
   -67.9208257   48.0024714
   -67.9149881   48.0024689
   -67.9099204   47.9967606
   -67.9039480   47.9967633
   -67.9012076   48.0024630
   -67.8951927   48.0024604
   -67.8905468   47.9967692
   -67.8844319   47.9967719
   -67.8815851   48.0024546
   -67.8754287   48.0024519
   -67.8711440   47.9967777
   -67.8649211   47.9967805
   -67.8619565   48.0024461
   -67.8556913   48.0024435
   -67.8517201   47.9967863
   -67.8454168   47.9967890
   -67.8423233   48.0024377
   -67.8359738   48.0024350
   -67.8322780   47.9967948
   -67.8259190   47.9967976
   -67.8226813   48.0024293
   -67.8162748   48.0024265
   -67.8128214   47.9968034
   -67.8064292   47.9968062
   -67.8030315   48.0024209
   -67.7965896   48.0024181
   -67.7933515   47.9968120
   -67.7869501   47.9968148
   -67.7833713   48.0024124
   -67.7769176   48.0024097
   -67.7738728   47.9968205
   -67.7674816   47.9968234
   -67.7636994   48.0024040
   -67.7572550   48.0024012
   -67.7543837   47.9968291
   -67.7480275   47.9968319
   -67.7440130   48.0023955
   -67.7376015   48.0023928
   -67.7348878   47.9968377
   -67.7285909   47.9968405
   -67.7243091   48.0023871
   -67.7179560   48.0023843
   -67.7153852   47.9968463
   -67.7091755   47.9968490
   -67.7045820   48.0023786
   -67.6983174   48.0023759
   -67.6958771   47.9968549
   -67.6897875   47.9968576
   -67.6848279   48.0023701
   -67.6786850   48.0023675
   -67.6763645   47.9968635
   -67.6704333   47.9968661
   -67.6650376   48.0023616
   -67.6590569   48.0023591
   -67.6553423   47.9931394
   -67.6409566   47.9900670
   -67.6371378   47.9853485
   -67.6211121   47.9785495
   -67.6128326   47.9735627
   -67.6093871   47.9635248
   -67.6062962   47.9594347
   -67.6020704   47.9478881
   -67.5992601   47.9437739
   -67.5841664   47.9295680
   -67.5725110   47.9283872
   -67.5663128   47.9227921
   -67.5553173   47.9219691
   -67.5484535   47.9160346
   -67.5381306   47.9155327
   -67.5305872   47.9092957
   -67.5209515   47.9090787
   -67.5127140   47.9025758
   -67.5037793   47.9026055
   -67.4948333   47.8958742
   -67.4866148   47.8961128
   -67.4769453   47.8891922
   -67.4694565   47.8896006
   -67.4590505   47.8825306
   -67.4523076   47.8830686
   -67.4411489   47.8758887
   -67.4351649   47.8765167
   -67.4232380   47.8692672
   -67.4180304   47.8699434
   -67.4053202   47.8626668
   -67.4009045   47.8633496
   -67.3873941   47.8560874
   -67.3837867   47.8567337
   -67.3694615   47.8495298
   -67.3634683   47.8507498
   -67.3530949   47.8625270
   -67.3493053   47.8643689
   -67.3435315   47.8729560
   -67.3361741   47.8784146
   -67.3253680   47.8835786
   -67.3162249   47.8841718
   -67.3098220   47.8887656
   -67.2941024   47.8904320
   -67.2896531   47.8883350
   -67.2838581   47.8895794
   -67.2707476   47.8848504
   -67.2689306   47.8856578
   -67.2536799   47.8826198
   -67.2518993   47.8802267
   -67.2327660   47.8813518
   -67.2318368   47.8825501
   -67.2135661   47.8838313
   -67.2124357   47.8848867
   -67.1943669   47.8862613
   -67.1930406   47.8872442
   -67.1817174   47.8881474
   -67.1748078   47.8934188
   -67.1633218   47.8942888
   -67.1565756   47.8995951
   -67.1449275   47.9004273
   -67.1383437   47.9057752
   -67.1265310   47.9065642
   -67.1201138   47.9119571
   -67.1081328   47.9126980
   -67.1018841   47.9181417
   -67.0897345   47.9188281
   -67.0836556   47.9243302
   -67.0713349   47.9249552
   -67.0654283   47.9305229
   -67.0455848   47.9314047
   -67.0437374   47.9304089
   -67.0253506   47.9310072
   -67.0232579   47.9301866
   -67.0051347   47.9306624
   -67.0027859   47.9299399
   -66.9849244   47.9303392
   -66.9823190   47.9296808
   -66.9697244   47.9299292
   -66.9662491   47.9350594
   -66.9564848   47.9434886
   -66.9511895   47.9516603
   -66.9425467   47.9577973
   -66.9362238   47.9685706
   -66.9278235   47.9719201
   -66.9218637   47.9874725
   -66.9103623   47.9808437
   -66.9081238   47.9815276
   -66.9034268   47.9929770
   -66.8922911   47.9863653
   -66.8899859   47.9870697
   -66.8849859   47.9984677
   -66.8742100   47.9918900
   -66.8718530   47.9926102
   -66.8669062   48.0031685
   -66.8657546   48.0034539
   -66.8542945   47.9962743
   -66.8480860   48.0024128
   -66.8353081   47.9963650
   -66.8302826   48.0013002
   -66.8163222   47.9964454
   -66.8124798   48.0001974
   -66.7973370   47.9965160
   -66.7946762   47.9991016
   -66.7783518   47.9965796
   -66.7751888   47.9996403
   -66.7592309   47.9988705
   -66.7570349   48.0006443
   -66.7401246   48.0009185
   -66.7295711   48.0023339
   -66.7218893   48.0077521
   -66.7135270   48.0076431
   -66.7048679   48.0137204
   -66.6974855   48.0129595
   -66.6878446   48.0196791
   -66.6771610   48.0173508
   -66.6699508   48.0218265
   -66.6591788   48.0200261
   -66.6476930   48.0265073
   -66.6413977   48.0272664
   -66.6371075   48.0301621
   -66.6233604   48.0287031
   -66.6116560   48.0290574
   -66.6098671   48.0300246
   -66.5948155   48.0309920
   -66.5849011   48.0386508
   -66.5806663   48.0400002
   -66.5772206   48.0435067
   -66.5648603   48.0449151
   -66.5505477   48.0476212
   -66.5480517   48.0466707
   -66.5297320   48.0526266
   -66.5255865   48.0598905
   -66.5130415   48.0663326
   -66.5086847   48.0720657
   -66.4962252   48.0794845
   -66.4947016   48.0812435
   -66.4858660   48.0844197
   -66.4777116   48.0853458
   -66.4717230   48.0880074
   -66.4654196   48.0892151
   -66.4585387   48.0883781
   -66.4458107   48.0909261
   -66.4390289   48.0899488
   -66.4262007   48.0926512
   -66.4195127   48.0915036
   -66.4065898   48.0943939
   -66.3999936   48.0930359
   -66.3869772   48.0961633
   -66.3737822   48.0931516
   -66.3595510   48.0884649
   -66.3558121   48.0888001
   -66.3505848   48.0865832
   -66.3411100   48.0772639
   -66.3329024   48.0565492
   -66.3270670   48.0491387
   -66.3203389   48.0478341
   -66.3138325   48.0431017
   -66.3068293   48.0393525
   -66.2879604   48.0359891
   -66.2685080   48.0390493
   -66.2671158   48.0397081
   -66.2257804   48.0475603
   -66.2166668   48.0542690
   -66.2083153   48.0543887
   -66.1909970   48.0521872
   -66.1179966   48.0345079
   -66.1131234   48.0327589
   -66.0938554   48.0289077
   -66.0617120   48.0273489
   -66.0538320   48.0264363
   -66.0333933   48.0266970
   -66.0122434   48.0295011
   -65.9985138   48.0328582
   -65.9906008   48.0340141
   -65.9781602   48.0370867
   -65.9689672   48.0385316
   -65.9578115   48.0413096
   -65.9478544   48.0429670
   -65.9314273   48.0479745
   -65.8910947   48.0357495
   -65.8824185   48.0335671
   -65.8723564   48.0301106
   -65.8629351   48.0277223
   -65.8536166   48.0244734
   -65.8434526   48.0218756
   -65.8348777   48.0188388
   -65.8160535   48.0139855
   -65.7918431   48.0100294
   -65.7727590   48.0050567
   -65.7253660   47.9884860
   -65.7162552   47.9857531
   -65.6980908   47.9785939
   -65.6817658   47.9688989
   -65.6725995   47.9624544
   -65.6324115   47.9359092
   -65.5933375   47.9061702
   -65.5880222   47.9016274
   -65.5764454   47.8859374
   -65.5636273   47.8705071
   -65.5515266   47.8574846
   -65.5371448   47.8552176
   -65.5297071   47.8563323
   -65.4915842   47.8608783
   -65.4696875   47.8638733
   -65.4487242   47.8682172
   -65.4149884   47.8778048
   -65.3968230   47.8815688
   -65.3694308   47.8855401
   -65.3260145   47.8925151
   -65.2804355   47.9046203
   -65.2640000   47.9096262
   -65.2481677   47.9158796
   -65.2307833   47.9210419
   -65.1441786   47.9402934
   -65.0360446   47.9719530
   -65.0169550   47.9759469
   -64.9636714   47.9825893
   -64.9378525   47.9855723
   -64.8919087   47.9872049
   -64.8807011   47.9871055
   -64.8471660   47.9977784
   -64.8364527   48.0017367
   -64.8245221   48.0032086
   -64.8057219   48.0045723
   -64.7879416   48.0128700
   -64.7523926   48.0275042
   -64.7165628   48.0406647
   -64.7077119   48.0470083
   -64.6916433   48.0600129
   -64.6802442   48.0741077
   -64.6392945   48.1307430
   -64.6151935   48.1597984
   -64.6015599   48.1746662
   -64.5721038   48.1954443
   -64.5494692   48.2028348
   -64.5317546   48.2073719
   -64.5137178   48.2110021
   -64.5025286   48.2126611
   -64.4891467   48.2132123
   -64.4690217   48.2129359
   -64.4487494   48.2115617
   -64.4282965   48.2090874
   -64.3871509   48.2023979
   -64.3664791   48.1983141
   -64.3456305   48.1931782
   -64.3246461   48.1870003
   -64.3034840   48.1797678
   -64.0925771   48.0978451
   -64.0503419   48.0813643
   -64.0160334   48.0688420
   -63.9820743   48.0572351
   -63.6170602   47.8845750
   -63.5761010   47.8647446
   -63.5590874   47.8671203
   -63.0824832   47.9297540
   -63.0694951   47.8501003
   -63.0413498   47.5373457
   -63.0390195   47.5139151
   -62.9727562   47.3971905
   -62.9316190   47.3548042
   -62.8406289   47.2694155
   -62.7792825   47.2161100
   -62.5747501   47.0645386
   -62.5640984   47.0564912
   -62.5129909   47.0171208
   -62.4826791   46.9982458
   -62.4632034   46.9867708
   -62.4438029   46.9758197
   -62.4243930   46.9653440
   -62.4049795   46.9553483
   -62.3856367   46.9458700
   -62.3219047   46.9162287
   -62.2874176   46.9014862
   -62.2612247   46.8945610
   -62.1618477   46.8710431
   -62.1447500   46.8673990
   -62.1105251   46.8608794
   -62.0934019   46.8579008
   -62.0040935   46.8444751
   -61.9861718   46.8422201
   -61.9142217   46.8346526
   -61.8961245   46.8333137
   -61.8650876   46.8317391
   -61.8528557   46.8298693
   -61.7918219   46.8194434
   -61.7766074   46.8165610
   -61.5723675   46.7740780
   -61.5558833   46.7704324
   -61.4772780   46.8609113
   -61.4681374   46.8717392
   -61.3225248   47.0493091
   -61.3043624   47.0836709
   -61.2539020   47.1196071
   -61.2304190   47.1371124
   -61.1639794   47.1889430
   -61.0686825   47.2509379
   -61.0272277   47.3022550
   -61.0185043   47.3127497
   -60.9101633   47.4394369
   -60.8847462   47.4709046
   -60.4516765   48.0383376
   -60.4335931   48.0675552
   -60.4473166   48.1712304
   -60.4885306   48.4790160
   -60.5274907   48.5788783
   -60.4168355   48.9700576
   -60.3171694   49.0327501
   -60.2716528   49.0555669
   -59.8259181   49.2975723
   -59.7702513   49.3240644
   -59.6628369   49.3705011
   -59.6298866   49.3853148
   -59.6134807   49.3929786
   -59.5810124   49.4087248
   -59.4939634   49.4525183
   -59.4591633   49.4707248
   -59.4251509   49.4894426
   -59.3997131   49.5017078
   -59.3763775   49.5146477
   -59.3429842   49.5339775
   -59.3099184   49.5540460
   -59.2773243   49.5747648
   -59.2260571   49.6084833
   -59.2162524   49.6115338
   -59.1972638   49.6220855
   -59.0370740   49.7273078
   -59.0031817   49.7502471
   -58.9766209   49.7771097
   -58.9420817   49.8108033
   -58.8378765   49.9088100
   -58.8174024   49.9285815
   -58.7472698   49.9981314
   -58.6771867   50.0335271
   -58.6480959   50.0487960
   -58.6337218   50.0566322
   -58.5859574   50.0833306
   -58.5465706   50.1171085
   -58.5178792   50.1426782
   -58.5038145   50.1557067
   -58.4616039   50.1958340
   -58.4519694   50.2047654
   -58.4048269   50.2537612
   -58.3283367   50.3426267
   -58.2678914   50.4285382
   -58.2473951   50.4589531
   -58.2289423   50.4878457
   -58.1862765   50.5307510
   -58.1645922   50.5518580
   -58.1496086   50.5659695
   -58.0736647   50.6571079
   -58.0434780   50.6872606
   -58.0268186   50.7036353
   -57.9686908   50.7456890
   -57.9667447   50.7480559
   -57.9280345   50.7884625
   -57.9039842   50.8140301
   -57.8775736   50.8408185
   -57.8642016   50.8537419
   -57.7271365   50.9819072
   -57.6306070   51.0334786
   -57.6029231   51.0413712
   -57.5249480   51.0836259
   -57.4970315   51.0975237
   -57.4229398   51.1203906
   -57.3936665   51.1303298
   -57.3477946   51.1689849
   -57.3376274   51.1722587
   -57.3132496   51.1792285
   -57.2893359   51.1851681
   -57.1427707   51.2158448
   -57.1228320   51.2208064
   -57.1254588   51.2682938
   -57.1090776   51.4298303
   -57.1104998   51.4323044
   -57.1089802   51.4495393
   -57.1102082   51.4516309
   -57.1088886   51.4692491
   -57.1099122   51.4709568
   -57.1088014   51.4889597
   -57.1096106   51.4902826
   -57.1087189   51.5086689
   -57.1093051   51.5096084
   -57.1085683   51.5480891
   -57.1083612   51.6062438
   -57.1077353   51.6072119
   -57.1082827   51.6255716
   -57.1074307   51.6269187
   -57.1081992   51.6448994
   -57.1071312   51.6466258
   -57.1081105   51.6642272
   -57.1068363   51.6663341
   -57.1080164   51.6835549
   -57.1065472   51.6860411
   -57.1079174   51.7028831
   -57.1062635   51.7057483
   -57.1078129   51.7222112
   -57.1059840   51.7254568
   -57.1077033   51.7415395
   -57.1057108   51.7451639
   -57.1075893   51.7608663
   -57.1054422   51.7648713
   -57.1074697   51.7801938
   -57.1051780   51.7845800
   -57.1073448   51.7995213
   -57.1049196   51.8042873
   -57.1072151   51.8188487
   -57.1046661   51.8239948
   -57.1070805   51.8381765
   -57.1044173   51.8437036
   -57.1069401   51.8575043
   -57.1041739   51.8634111
   -57.1067954   51.8768316
   -57.1039355   51.8831188
   -57.1066457   51.8961588
   -57.1037016   51.9028278
   -57.1064906   51.9154860
   -57.1034731   51.9225354
   -57.1063311   51.9348138
   -57.1032501   51.9422433
   -57.1061668   51.9541402
   -57.1030310   51.9619524
   -57.1059970   51.9734677
   -57.1028174   51.9816602
   -57.1061977   51.9941859
   -57.1129458   51.9966884
   -57.1190482   52.0029364
   -57.1373900   52.0012769
   -57.1390202   52.0029454
   -57.1573416   52.0012651
   -57.1589937   52.0029553
   -57.1772936   52.0012542
   -57.1789663   52.0029648
   -57.1972455   52.0012428
   -57.1989392   52.0029740
   -57.2171966   52.0012315
   -57.2189117   52.0029839
   -57.2371490   52.0012206
   -57.2388843   52.0029928
   -57.2571006   52.0012088
   -57.2588577   52.0030026
   -57.2770521   52.0011980
   -57.2788302   52.0030124
   -57.2970040   52.0011871
   -57.2988023   52.0030213
   -57.3169556   52.0011753
   -57.3187757   52.0030311
   -57.3369076   52.0011645
   -57.3387483   52.0030405
   -57.3568595   52.0011532
   -57.3587212   52.0030497
   -57.3768106   52.0011419
   -57.3786937   52.0030595
   -57.3967630   52.0011311
   -57.3986663   52.0030683
   -57.4167146   52.0011194
   -57.4186397   52.0030781
   -57.4366661   52.0011087
   -57.4386122   52.0030878
   -57.4566180   52.0010979
   -57.4585844   52.0030966
   -57.4765696   52.0010862
   -57.4785578   52.0031063
   -57.4965216   52.0010754
   -57.4985304   52.0031156
   -57.5164735   52.0010642
   -57.5185038   52.0031252
   -57.5364247   52.0010526
   -57.5384763   52.0031344
   -57.5563771   52.0010423
   -57.5584484   52.0031432
   -57.5763287   52.0010307
   -57.5784218   52.0031529
   -57.5962802   52.0010200
   -57.5983948   52.0031630
   -57.6162321   52.0010088
   -57.6183669   52.0031712
   -57.6361837   52.0009977
   -57.6383398   52.0031809
   -57.6561357   52.0009870
   -57.6583124   52.0031901
   -57.6760876   52.0009758
   -57.6782858   52.0031996
   -57.6960387   52.0009643
   -57.6982583   52.0032087
   -57.7159911   52.0009541
   -57.7182304   52.0032175
   -57.7359427   52.0009426
   -57.7382038   52.0032270
   -57.7558942   52.0009320
   -57.7581768   52.0032371
   -57.7758461   52.0009209
   -57.7781490   52.0032452
   -57.7957977   52.0009098
   -57.7981218   52.0032548
   -57.8157501   52.0008992
   -57.8180945   52.0032634
   -57.8357012   52.0008878
   -57.8380679   52.0032734
   -57.8556527   52.0008767
   -57.8580404   52.0032824
   -57.8756051   52.0008666
   -57.8780125   52.0032911
   -57.8955567   52.0008551
   -57.8979859   52.0033006
   -57.9155083   52.0008447
   -57.9179589   52.0033105
   -57.9354601   52.0008336
   -57.9379315   52.0033191
   -57.9554118   52.0008222
   -57.9579044   52.0033280
   -57.9753641   52.0008121
   -57.9778765   52.0033366
   -57.9953153   52.0008007
   -57.9978499   52.0033465
   -58.0152668   52.0007898
   -58.0178229   52.0033559
   -58.0352192   52.0007793
   -58.0377951   52.0033639
   -58.0551708   52.0007683
   -58.0577679   52.0033734
   -58.0751228   52.0007579
   -58.0777409   52.0033828
   -58.0950747   52.0007475
   -58.0977136   52.0033917
   -58.1150258   52.0007356
   -58.1176864   52.0034006
   -58.1349782   52.0007256
   -58.1376586   52.0034091
   -58.1549298   52.0007143
   -58.1576320   52.0034185
   -58.1748813   52.0007040
   -58.1776050   52.0034283
   -58.1948332   52.0006931
   -58.1975771   52.0034362
   -58.2147848   52.0006822
   -58.2175500   52.0034456
   -58.2347368   52.0006719
   -58.2375230   52.0034549
   -58.2546887   52.0006616
   -58.2574956   52.0034637
   -58.2746398   52.0006498
   -58.2774685   52.0034725
   -58.2945922   52.0006398
   -58.2974406   52.0034810
   -58.3145439   52.0006286
   -58.3174140   52.0034902
   -58.3344954   52.0006184
   -58.3373870   52.0034999
   -58.3544472   52.0006076
   -58.3573597   52.0035083
   -58.3743989   52.0005964
   -58.3773325   52.0035170
   -58.3943512   52.0005865
   -58.3973050   52.0035257
   -58.4143024   52.0005760
   -58.4172777   52.0035351
   -58.4342539   52.0005646
   -58.4372510   52.0035442
   -58.4542062   52.0005544
   -58.4572232   52.0035520
   -58.4741579   52.0005436
   -58.4771960   52.0035613
   -58.4941094   52.0005335
   -58.4971691   52.0035709
   -58.5140612   52.0005228
   -58.5171417   52.0035791
   -58.5340129   52.0005117
   -58.5371146   52.0035878
   -58.5539653   52.0005018
   -58.5570871   52.0035964
   -58.5739164   52.0004914
   -58.5770597   52.0036057
   -58.5938679   52.0004802
   -58.5970331   52.0036147
   -58.6138203   52.0004700
   -58.6170056   52.0036228
   -58.6337719   52.0004599
   -58.6369777   52.0036317
   -58.6537234   52.0004493
   -58.6569511   52.0036411
   -58.6736753   52.0004387
   -58.6769238   52.0036493
   -58.6936269   52.0004276
   -58.6968966   52.0036578
   -58.7135793   52.0004179
   -58.7168691   52.0036664
   -58.7335305   52.0004076
   -58.7368418   52.0036755
   -58.7534820   52.0003965
   -58.7568151   52.0036845
   -58.7734343   52.0003864
   -58.7767881   52.0036930
   -58.7933860   52.0003760
   -58.7967603   52.0037012
   -58.8133375   52.0003659
   -58.8167331   52.0037107
   -58.8332893   52.0003553
   -58.8367058   52.0037187
   -58.8532410   52.0003444
   -58.8566792   52.0037277
   -58.8731933   52.0003343
   -58.8766517   52.0037356
   -58.8931445   52.0003245
   -58.8966238   52.0037447
   -58.9130960   52.0003135
   -58.9165972   52.0037536
   -58.9330483   52.0003034
   -58.9365702   52.0037620
   -58.9530000   52.0002932
   -58.9565423   52.0037701
   -58.9729518   52.0002831
   -58.9765152   52.0037788
   -58.9929030   52.0002723
   -58.9964879   52.0037874
   -59.0128550   52.0002618
   -59.0164612   52.0037963
   -59.0328074   52.0002519
   -59.0364337   52.0038041
   -59.0527585   52.0002422
   -59.0564059   52.0038131
   -59.0727100   52.0002312
   -59.0763792   52.0038219
   -59.0926624   52.0002213
   -59.0963522   52.0038302
   -59.1126140   52.0002111
   -59.1163244   52.0038382
   -59.1325664   52.0002010
   -59.1362972   52.0038465
   -59.1525176   52.0001909
   -59.1562699   52.0038554
   -59.1724691   52.0001800
   -59.1762432   52.0038641
   -59.1924214   52.0001702
   -59.1962162   52.0038723
   -59.2123731   52.0001601
   -59.2161884   52.0038803
   -59.2323246   52.0001502
   -59.2361613   52.0038895
   -59.2522764   52.0001399
   -59.2561343   52.0038976
   -59.2722281   52.0001298
   -59.2761070   52.0039061
   -59.2921804   52.0001194
   -59.2960798   52.0039136
   -59.3121316   52.0001098
   -59.3160520   52.0039225
   -59.3320831   52.0000990
   -59.3360253   52.0039312
   -59.3520354   52.0000893
   -59.3559983   52.0039393
   -59.3719871   52.0000793
   -59.3759705   52.0039472
   -59.3919386   52.0000695
   -59.3959433   52.0039563
   -59.4118904   52.0000592
   -59.4159163   52.0039643
   -59.4318421   52.0000493
   -59.4358890   52.0039727
   -59.4517944   52.0000389
   -59.4558618   52.0039801
   -59.4717456   52.0000295
   -59.4758340   52.0039889
   -59.4916971   52.0000188
   -59.4958073   52.0039975
   -59.5116494   52.0000091
   -59.5157803   52.0040055
   -59.5316011   51.9999992
   -59.5357525   52.0040133
   -59.5515530   51.9999894
   -59.5557253   52.0040216
   -59.5715042   51.9999791
   -59.5756984   52.0040302
   -59.5914562   51.9999695
   -59.5956711   52.0040384
   -59.6114085   51.9999593
   -59.6156439   52.0040458
   -59.6313597   51.9999500
   -59.6356161   52.0040545
   -59.6513112   51.9999394
   -59.6555894   52.0040630
   -59.6712635   51.9999298
   -59.6755624   52.0040708
   -59.6912152   51.9999200
   -59.6955351   52.0040790
   -59.7111670   51.9999099
   -59.7155079   52.0040867
   -59.7311182   51.9999001
   -59.7354804   52.0040953
   -59.7510702   51.9998906
   -59.7554531   52.0041034
   -59.7710225   51.9998805
   -59.7754264   52.0041112
   -59.7909737   51.9998709
   -59.7953986   52.0041192
   -59.8109252   51.9998607
   -59.8153714   52.0041276
   -59.8308775   51.9998512
   -59.8353444   52.0041354
   -59.8508292   51.9998416
   -59.8553171   52.0041435
   -59.8707810   51.9998316
   -59.8752899   52.0041510
   -59.8907322   51.9998219
   -59.8952624   52.0041595
   -59.9106842   51.9998125
   -59.9152351   52.0041676
   -59.9306365   51.9998025
   -59.9352084   52.0041752
   -59.9505877   51.9997930
   -59.9551807   52.0041831
   -59.9705392   51.9997829
   -59.9751535   52.0041915
   -59.9904915   51.9997736
   -59.9951265   52.0041991
   -60.0104433   51.9997640
   -60.0150992   52.0042071
   -60.0303950   51.9997542
   -60.0350720   52.0042145
   -60.0503463   51.9997445
   -60.0550445   52.0042229
   -60.0702983   51.9997352
   -60.0750172   52.0042309
   -60.0902506   51.9997253
   -60.0949905   52.0042384
   -60.1102023   51.9997158
   -60.1149632   52.0042464
   -60.1301541   51.9997060
   -60.1349360   52.0042537
   -60.1501053   51.9996964
   -60.1549085   52.0042620
   -60.1700573   51.9996873
   -60.1748812   52.0042699
   -60.1900096   51.9996774
   -60.1948545   52.0042774
   -60.2099608   51.9996681
   -60.2148270   52.0042854
   -60.2299123   51.9996588
   -60.2347992   52.0042934
   -60.2498646   51.9996490
   -60.2547725   52.0043008
   -60.2698163   51.9996396
   -60.2747453   52.0043086
   -60.2897681   51.9996300
   -60.2947180   52.0043158
   -60.3097193   51.9996205
   -60.3146906   52.0043240
   -60.3296713   51.9996114
   -60.3346633   52.0043318
   -60.3496236   51.9996016
   -60.3546366   52.0043392
   -60.3695748   51.9995925
   -60.3746091   52.0043470
   -60.3895263   51.9995833
   -60.3945813   52.0043550
   -60.4094786   51.9995736
   -60.4145546   52.0043622
   -60.4294304   51.9995643
   -60.4345273   52.0043700
   -60.4493821   51.9995547
   -60.4545001   52.0043771
   -60.4693334   51.9995454
   -60.4744726   52.0043852
   -60.4892854   51.9995364
   -60.4944453   52.0043929
   -60.5092376   51.9995267
   -60.5144186   52.0044001
   -60.5291889   51.9995177
   -60.5343916   52.0044083
   -60.5491404   51.9995083
   -60.5543638   52.0044155
   -60.5690927   51.9994990
   -60.5743366   52.0044228
   -60.5890444   51.9994899
   -60.5943094   52.0044304
   -60.6089962   51.9994804
   -60.6142826   52.0044379
   -60.6289474   51.9994709
   -60.6342551   52.0044453
   -60.6488994   51.9994623
   -60.6542274   52.0044530
   -60.6688517   51.9994528
   -60.6742006   52.0044601
   -60.6888029   51.9994439
   -60.6941736   52.0044682
   -60.7087547   51.9994345
   -60.7141459   52.0044746
   -60.7287064   51.9994251
   -60.7341187   52.0044825
   -60.7486584   51.9994164
   -60.7540914   52.0044900
   -60.7686102   51.9994070
   -60.7740647   52.0044973
   -60.7885614   51.9993976
   -60.7940372   52.0045046
   -60.8085134   51.9993892
   -60.8140094   52.0045122
   -60.8284657   51.9993797
   -60.8339827   52.0045192
   -60.8484169   51.9993709
   -60.8539557   52.0045272
   -60.8683687   51.9993617
   -60.8739279   52.0045335
   -60.8883205   51.9993524
   -60.8939007   52.0045412
   -60.9082725   51.9993438
   -60.9138735   52.0045486
   -60.9282242   51.9993346
   -60.9338467   52.0045558
   -60.9481755   51.9993253
   -60.9538197   52.0045634
   -60.9681275   51.9993167
   -60.9737920   52.0045703
   -60.9880797   51.9993076
   -60.9937647   52.0045773
   -61.0080310   51.9992990
   -61.0137377   52.0045852
   -61.0279827   51.9992898
   -61.0337105   52.0045918
   -61.0479345   51.9992804
   -61.0536832   52.0045988
   -61.0678865   51.9992721
   -61.0736555   52.0046063
   -61.0878382   51.9992631
   -61.0936288   52.0046133
   -61.1077895   51.9992539
   -61.1136018   52.0046208
   -61.1277415   51.9992454
   -61.1335740   52.0046276
   -61.1476938   51.9992364
   -61.1535468   52.0046345
   -61.1676455   51.9992277
   -61.1735198   52.0046420
   -61.1875973   51.9992194
   -61.1934925   52.0046488
   -61.2075485   51.9992096
   -61.2134653   52.0046556
   -61.2275005   51.9992015
   -61.2334375   52.0046630
   -61.2474528   51.9991923
   -61.2534108   52.0046696
   -61.2674040   51.9991839
   -61.2733838   52.0046773
   -61.2873558   51.9991750
   -61.2933561   52.0046833
   -61.3073075   51.9991660
   -61.3133288   52.0046907
   -61.3272595   51.9991577
   -61.3333018   52.0046981
   -61.3472113   51.9991495
   -61.3532746   52.0047047
   -61.3671626   51.9991398
   -61.3732478   52.0047119
   -61.3871146   51.9991315
   -61.3932201   52.0047185
   -61.4070668   51.9991228
   -61.4131928   52.0047252
   -61.4270181   51.9991145
   -61.4331658   52.0047327
   -61.4469698   51.9991057
   -61.4531386   52.0047391
   -61.4669216   51.9990966
   -61.4731113   52.0047457
   -61.4868736   51.9990886
   -61.4930839   52.0047531
   -61.5068253   51.9990806
   -61.5130566   52.0047597
   -61.5267766   51.9990710
   -61.5330299   52.0047667
   -61.5467286   51.9990629
   -61.5530021   52.0047732
   -61.5666808   51.9990542
   -61.5729749   52.0047798
   -61.5866321   51.9990461
   -61.5929479   52.0047872
   -61.6065838   51.9990374
   -61.6129207   52.0047934
   -61.6265356   51.9990284
   -61.6328934   52.0047999
   -61.6464876   51.9990206
   -61.6528659   52.0048072
   -61.6664394   51.9990127
   -61.6728387   52.0048136
   -61.6863906   51.9990033
   -61.6928119   52.0048205
   -61.7063426   51.9989953
   -61.7127842   52.0048269
   -61.7262949   51.9989867
   -61.7327569   52.0048333
   -61.7462461   51.9989787
   -61.7527299   52.0048406
   -61.7661979   51.9989702
   -61.7727027   52.0048466
   -61.7861496   51.9989613
   -61.7926759   52.0048535
   -61.8061017   51.9989534
   -61.8126484   52.0048600
   -61.8260534   51.9989458
   -61.8326207   52.0048665
   -61.8460047   51.9989366
   -61.8525939   52.0048733
   -61.8659569   51.9989286
   -61.8725667   52.0048793
   -61.8859087   51.9989198
   -61.8925395   52.0048856
   -61.9058602   51.9989124
   -61.9125120   52.0048929
   -61.9258119   51.9989040
   -61.9324847   52.0048988
   -61.9457637   51.9988953
   -61.9524580   52.0049056
   -61.9657157   51.9988875
   -61.9724305   52.0049119
   -61.9856674   51.9988801
   -61.9924028   52.0049183
   -62.0056187   51.9988709
   -62.0123760   52.0049249
   -62.0255709   51.9988631
   -62.0323488   52.0049308
   -62.0455227   51.9988544
   -62.0523215   52.0049370
   -62.0654742   51.9988472
   -62.0722940   52.0049442
   -62.0854259   51.9988389
   -62.0922668   52.0049500
   -62.1053777   51.9988303
   -62.1122400   52.0049566
   -62.1253297   51.9988227
   -62.1322125   52.0049628
   -62.1452819   51.9988151
   -62.1521848   52.0049688
   -62.1652332   51.9988068
   -62.1721580   52.0049755
   -62.1851849   51.9987987
   -62.1921308   52.0049812
   -62.2051367   51.9987902
   -62.2121040   52.0049877
   -62.2250887   51.9987826
   -62.2320765   52.0049939
   -62.2450405   51.9987754
   -62.2520488   52.0050000
   -62.2649917   51.9987665
   -62.2720220   52.0050064
   -62.2849437   51.9987590
   -62.2919950   52.0050130
   -62.3048960   51.9987514
   -62.3119673   52.0050181
   -62.3248473   51.9987434
   -62.3319401   52.0050250
   -62.3447990   51.9987354
   -62.3519129   52.0050305
   -62.3647508   51.9987270
   -62.3718861   52.0050369
   -62.3847028   51.9987196
   -62.3918586   52.0050429
   -62.4046545   51.9987125
   -62.4118309   52.0050489
   -62.4246058   51.9987038
   -62.4318041   52.0050552
   -62.4445580   51.9986963
   -62.4517771   52.0050608
   -62.4645098   51.9986887
   -62.4717494   52.0050666
   -62.4844613   51.9986811
   -62.4917221   52.0050733
   -62.5044130   51.9986732
   -62.5116949   52.0050787
   -62.5243648   51.9986650
   -62.5316681   52.0050849
   -62.5443168   51.9986577
   -62.5516406   52.0050908
   -62.5642685   51.9986508
   -62.5716129   52.0050966
   -62.5842198   51.9986422
   -62.5915861   52.0051027
   -62.6041720   51.9986349
   -62.6115591   52.0051083
   -62.6241238   51.9986275
   -62.6315319   52.0051143
   -62.6440753   51.9986198
   -62.6515046   52.0051201
   -62.6640270   51.9986123
   -62.6714769   52.0051257
   -62.6839788   51.9986042
   -62.6914501   52.0051317
   -62.7039308   51.9985971
   -62.7114231   52.0051379
   -62.7238825   51.9985901
   -62.7313955   52.0051429
   -62.7438338   51.9985818
   -62.7513682   52.0051491
   -62.7637860   51.9985746
   -62.7713412   52.0051545
   -62.7837378   51.9985674
   -62.7913140   52.0051604
   -62.8036894   51.9985599
   -62.8112867   52.0051661
   -62.8236410   51.9985525
   -62.8312590   52.0051715
   -62.8435929   51.9985446
   -62.8512322   52.0051774
   -62.8635449   51.9985376
   -62.8712052   52.0051834
   -62.8834966   51.9985308
   -62.8911775   52.0051882
   -62.9034479   51.9985227
   -62.9111502   52.0051943
   -62.9234001   51.9985156
   -62.9311232   52.0051995
   -62.9433519   51.9985086
   -62.9510960   52.0052053
   -62.9633034   51.9985012
   -62.9710687   52.0052108
   -62.9832551   51.9984939
   -62.9910410   52.0052160
   -63.0032069   51.9984862
   -63.0110142   52.0052218
   -63.0231591   51.9984793
   -63.0309872   52.0052269
   -63.0431104   51.9984726
   -63.0509595   52.0052323
   -63.0630619   51.9984647
   -63.0709322   52.0052383
   -63.0830141   51.9984579
   -63.0909052   52.0052433
   -63.1029659   51.9984509
   -63.1108781   52.0052489
   -63.1229174   51.9984437
   -63.1308512   52.0052547
   -63.1428691   51.9984365
   -63.1508236   52.0052591
   -63.1628209   51.9984290
   -63.1707962   52.0052650
   -63.1827731   51.9984223
   -63.1907693   52.0052699
   -63.2027249   51.9984155
   -63.2107421   52.0052754
   -63.2226764   51.9984084
   -63.2307148   52.0052807
   -63.2426281   51.9984013
   -63.2506873   52.0052858
   -63.2625799   51.9983946
   -63.2706601   52.0052913
   -63.2825319   51.9983873
   -63.2906333   52.0052967
   -63.3024836   51.9983809
   -63.3106056   52.0053011
   -63.3224350   51.9983732
   -63.3305783   52.0053068
   -63.3423871   51.9983666
   -63.3505513   52.0053116
   -63.3623390   51.9983599
   -63.3705241   52.0053170
   -63.3822905   51.9983530
   -63.3904968   52.0053220
   -63.4022421   51.9983461
   -63.4104693   52.0053270
   -63.4221940   51.9983396
   -63.4304421   52.0053323
   -63.4421460   51.9983324
   -63.4504153   52.0053376
   -63.4620976   51.9983262
   -63.4703876   52.0053418
   -63.4820490   51.9983186
   -63.4903603   52.0053474
   -63.5020012   51.9983122
   -63.5103333   52.0053520
   -63.5219530   51.9983057
   -63.5303062   52.0053572
   -63.5419045   51.9982989
   -63.5502793   52.0053625
   -63.5618562   51.9982921
   -63.5702518   52.0053666
   -63.5818080   51.9982858
   -63.5902242   52.0053720
   -63.6017602   51.9982787
   -63.6101973   52.0053764
   -63.6217115   51.9982727
   -63.6301702   52.0053816
   -63.6416630   51.9982653
   -63.6501429   52.0053863
   -63.6616152   51.9982591
   -63.6707579   52.0059301
   -63.6815643   52.0072300
   -63.7015096   52.0279197
   -63.7093866   52.0433177
   -63.7214544   52.0610646
   -63.7394833   52.0986470
   -63.7426428   52.1005724
   -63.7446721   52.1127396
   -63.7465643   52.1198442
   -63.7486415   52.1324445
   -63.7505688   52.1396092
   -63.7526084   52.1521414
   -63.7545765   52.1593791
   -63.7565774   52.1718513
   -63.7585830   52.1791401
   -63.7605429   52.1915560
   -63.7625929   52.1989100
   -63.7645066   52.2112553
   -63.7666034   52.2186710
   -63.7684703   52.2309666
   -63.7706161   52.2384363
   -63.7724302   52.2506717
   -63.7746326   52.2582052
   -63.7763881   52.2703779
   -63.7786509   52.2779672
   -63.7803433   52.2900890
   -63.7836429   52.3009132
   -63.7909991   52.3113247
   -63.8055668   52.3256602
   -63.8222226   52.3366651
   -63.8321559   52.3407311
   -63.8400193   52.3458402
   -63.8495340   52.3497166
   -63.8578216   52.3550162
   -63.8669072   52.3587014
   -63.8756178   52.3641880
   -63.8842807   52.3676870
   -63.8934192   52.3733609
   -63.9016537   52.3766737
   -63.9112207   52.3825331
   -63.9190279   52.3856621
   -63.9290211   52.3917034
   -63.9363996   52.3946502
   -63.9468211   52.4008727
   -63.9537717   52.4036391
   -63.9646245   52.4100427
   -63.9711408   52.4126279
   -63.9824276   52.4192126
   -63.9885167   52.4216209
   -63.9991436   52.4277537
   -64.0088833   52.4355303
   -64.0151773   52.4421114
   -64.0237092   52.4486159
   -64.0372191   52.4627636
   -64.0429697   52.4711480
   -64.0464528   52.4836840
   -64.0462077   52.4903268
   -64.0425590   52.5088651
   -64.0360191   52.5254091
   -64.0265881   52.5399589
   -64.0199202   52.5476438
   -64.0078969   52.5545971
   -63.9889194   52.5600948
   -63.9839266   52.5602810
   -63.9696352   52.5644410
   -63.9644459   52.5646652
   -63.9503529   52.5687861
   -63.9449653   52.5690495
   -63.9310675   52.5731312
   -63.9254841   52.5734349
   -63.9117850   52.5774750
   -63.9060056   52.5778201
   -63.8924983   52.5818197
   -63.8865233   52.5822071
   -63.8732166   52.5861626
   -63.8670431   52.5865933
   -63.8539296   52.5905058
   -63.8475622   52.5909806
   -63.8346444   52.5948485
   -63.8242888   52.5965079
   -63.8082553   52.5978622
   -63.8050333   52.5988668
   -63.7884284   52.6003616
   -63.7857774   52.6012199
   -63.7686034   52.6028666
   -63.7665189   52.6035678
   -63.6893066   52.6129084
   -63.6317477   52.6203275
   -63.6297681   52.6200808
   -63.6124992   52.6227925
   -63.6099222   52.6224716
   -63.5932489   52.6252576
   -63.5900773   52.6248632
   -63.5740021   52.6277231
   -63.5702296   52.6272545
   -63.5547532   52.6301878
   -63.5503839   52.6296458
   -63.5355040   52.6326522
   -63.5305373   52.6320370
   -63.5162555   52.6351166
   -63.5106914   52.6344285
   -63.4970055   52.6375811
   -63.4908458   52.6368206
   -63.4777583   52.6400453
   -63.4710001   52.6392124
   -63.4585097   52.6425092
   -63.4511538   52.6416044
   -63.4318715   52.6470657
   -63.4133273   52.6565674
   -63.3954142   52.6741026
   -63.3981945   52.6803566
   -63.4087617   52.6943938
   -63.4102209   52.6973194
   -63.4236448   52.7125039
   -63.4406490   52.7231409
   -63.4427172   52.7237529
   -63.4580808   52.7332435
   -63.4598836   52.7338036
   -63.4755047   52.7433488
   -63.6130788   52.8232666
   -63.6318291   52.8247671
   -63.6355637   52.8244821
   -63.6527298   52.8261413
   -63.6727582   52.8242166
   -63.6823463   52.8212430
   -63.6922480   52.8202598
   -63.7012999   52.8173718
   -63.7117384   52.8163003
   -63.7202546   52.8135033
   -63.7312279   52.8123382
   -63.7392076   52.8096385
   -63.7507169   52.8083736
   -63.7581654   52.8057757
   -63.7702038   52.8044056
   -63.7771215   52.8019164
   -63.7896909   52.8004340
   -63.7960780   52.7980610
   -63.8091770   52.7964587
   -63.8150344   52.7942096
   -63.8286610   52.7924796
   -63.8339922   52.7903622
   -63.8481449   52.7884961
   -63.8581221   52.7843929
   -63.8672702   52.7831563
   -63.8770764   52.7791065
   -63.8863953   52.7778161
   -63.8960326   52.7738197
   -63.9055193   52.7724753
   -63.9149853   52.7685341
   -63.9246443   52.7671345
   -63.9339418   52.7632480
   -63.9437690   52.7617928
   -63.9528947   52.7579632
   -63.9628938   52.7564513
   -63.9718495   52.7526785
   -63.9820175   52.7511096
   -63.9908062   52.7473932
   -64.0011420   52.7457669
   -64.0097594   52.7421095
   -64.0202665   52.7404244
   -64.0287164   52.7368249
   -64.0393909   52.7350811
   -64.0476697   52.7315417
   -64.0585124   52.7297385
   -64.0666248   52.7262580
   -64.0776387   52.7243942
   -64.0855821   52.7209743
   -64.0967628   52.7190501
   -64.1045356   52.7156921
   -64.1158859   52.7137063
   -64.1234930   52.7104088
   -64.1350099   52.7083615
   -64.1424467   52.7051271
   -64.1541339   52.7030170
   -64.1593306   52.7007494
   -64.1635438   52.6961868
   -64.1733267   52.6783804
   -64.1778566   52.6590504
   -64.1776181   52.6521741
   -64.1804765   52.6391653
   -64.1802922   52.6328461
   -64.1831024   52.6192831
   -64.1829617   52.6135136
   -64.1857323   52.5994021
   -64.1856268   52.5941831
   -64.1883657   52.5795208
   -64.1882886   52.5748533
   -64.1910021   52.5596416
   -64.1909477   52.5555261
   -64.1936421   52.5397608
   -64.1936054   52.5361936
   -64.1962832   52.5198842
   -64.1962601   52.5168638
   -64.2042172   52.4602542
   -64.2041951   52.4396024
   -64.1988023   52.4016647
   -64.1979887   52.3937319
   -64.2491394   52.1686822
   -64.2512149   52.1608006
   -64.2886364   52.0305654
   -64.3629274   51.7702671
   -64.3652012   51.7638090
   -64.3692522   51.7577665
   -64.3781226   51.7468582
   -64.3817583   51.7413358
   -64.3910086   51.7299499
   -64.3942682   51.7249016
   -64.4038922   51.7130428
   -64.4067745   51.7084744
   -64.4167748   51.6961360
   -64.4192860   51.6920422
   -64.4296565   51.6792267
   -64.4317965   51.6756145
   -64.4446335   51.6597201
   -64.4592128   51.6466585
   -64.4702458   51.6397440
   -64.4751706   51.6358330
   -64.4921186   51.6266223
   -64.5108191   51.6202672
   -64.5145155   51.6203458
   -64.5335683   51.6259739
   -64.5419701   51.6300353
   -64.5521738   51.6330753
   -64.5605000   51.6370886
   -64.5707805   51.6401767
   -64.5790299   51.6441420
   -64.5893819   51.6472757
   -64.5975596   51.6511960
   -64.6079864   51.6543758
   -64.6160891   51.6582503
   -64.6265952   51.6614771
   -64.6346178   51.6653038
   -64.6451963   51.6685748
   -64.6531489   51.6723591
   -64.6638010   51.6756742
   -64.6716750   51.6794126
   -64.6824090   51.6827740
   -64.6902072   51.6864682
   -64.7010120   51.6898719
   -64.7087363   51.6935234
   -64.7196163   51.6969705
   -64.7272653   51.7005789
   -64.7382245   51.7040702
   -64.7457943   51.7076342
   -64.7568260   51.7111670
   -64.7643231   51.7146900
   -64.7754326   51.7182658
   -64.7828519   51.7217458
   -64.7940370   51.7253637
   -64.8013806   51.7288019
   -64.8126457   51.7324629
   -64.8207127   51.7361200
   -64.8316407   51.7382762
   -64.8397694   51.7409504
   -64.8509263   51.7431614
   -64.8588225   51.7457797
   -64.8702131   51.7480472
   -64.8778743   51.7506080
   -64.8894932   51.7529315
   -64.8969235   51.7554354
   -64.9087771   51.7578169
   -64.9159805   51.7602646
   -64.9280656   51.7627042
   -64.9350325   51.7650917
   -64.9473450   51.7675893
   -64.9540857   51.7699193
   -64.9666283   51.7724762
   -64.9731356   51.7747453
   -64.9859150   51.7773638
   -64.9921913   51.7795722
   -65.0051962   51.7822506
   -65.0112448   51.7843984
   -65.0244787   51.7871385
   -65.0302983   51.7892243
   -65.0437647   51.7920277
   -65.0493489   51.7940482
   -65.0630443   51.7969152
   -65.0684047   51.7988736
   -65.0823283   51.8018049
   -65.0874585   51.8036980
   -65.1016103   51.8066947
   -65.1065126   51.8085220
   -65.1208955   51.8115860
   -65.1255656   51.8133448
   -65.1401759   51.8164761
   -65.1446167   51.8181662
   -65.1594576   51.8213671
   -65.1636741   51.8229892
   -65.1787421   51.8262600
   -65.1827275   51.8278102
   -65.1980208   51.8311516
   -65.2017820   51.8326312
   -65.2173035   51.8360454
   -65.2208339   51.8374502
   -65.2365871   51.8409396
   -65.2398906   51.8422697
   -65.2558652   51.8458333
   -65.2589455   51.8470885
   -65.2751459   51.8507288
   -65.2935976   51.8583410
   -65.3110480   51.8691915
   -65.3164544   51.8738211
   -65.3281272   51.8812635
   -65.3328497   51.8852879
   -65.3452107   51.8933341
   -65.3492453   51.8967583
   -65.3601205   51.9039616
   -65.3648870   51.9146299
   -65.3935390   51.9823177
   -65.4034211   51.9986638
   -65.4153190   52.0134998
   -65.4285005   52.0273742
   -65.4439840   52.0395240
   -65.4617696   52.0499493
   -65.4699540   52.0538653
   -65.4860401   52.0544927
   -65.4997226   52.0555652
   -65.5047562   52.0553495
   -65.5985770   52.0597494
   -65.6544573   52.0620328
   -65.6641075   52.0626471
   -65.6776086   52.0646235
   -65.6840479   52.0647459
   -65.6973434   52.0667209
   -65.7039885   52.0668452
   -65.7170745   52.0688183
   -65.7239339   52.0689444
   -65.7368054   52.0709153
   -65.7438707   52.0710428
   -65.7565333   52.0730124
   -65.7638114   52.0731413
   -65.7762680   52.0751102
   -65.7837532   52.0752401
   -65.7959989   52.0772080
   -65.8036937   52.0773387
   -65.8157300   52.0793060
   -65.8236345   52.0794373
   -65.8354576   52.0814037
   -65.8435764   52.0815352
   -65.8551924   52.0835020
   -65.8635202   52.0836334
   -65.8749235   52.0856000
   -65.8834578   52.0857309
   -65.8946544   52.0876987
   -65.9033997   52.0878287
   -65.9143828   52.0897970
   -65.9233406   52.0899259
   -65.9430099   52.0935220
   -66.2614129   52.2067227
   -66.3142856   52.2253600
   -66.3673698   52.2670023
   -66.3814840   52.2806275
   -66.3943392   52.2954251
   -66.4059269   52.3113849
   -66.4166893   52.3281143
   -66.4184351   52.3323760
   -66.4181102   52.3519874
   -66.4161788   52.3711707
   -66.3902559   52.5021486
   -66.3884601   52.5089330
   -66.3865182   52.5208506
   -66.3845666   52.5283048
   -66.3827790   52.5395522
   -66.3806742   52.5476832
   -66.3790375   52.5582532
   -66.3767830   52.5670654
   -66.3752927   52.5769582
   -66.3728964   52.5864397
   -66.3715480   52.5956531
   -66.3690100   52.6058224
   -66.3677992   52.6143522
   -66.3651278   52.6251974
   -66.3640483   52.6330506
   -66.3612466   52.6445808
   -66.3586494   52.6641307
   -66.3581364   52.6839724
   -66.3597079   52.7040893
   -66.3621903   52.7243389
   -66.3666715   52.7448513
   -66.3731838   52.7656499
   -66.3817204   52.7867133
   -66.3922909   52.8080650
   -66.4048823   52.8296789
   -66.4176690   52.8488250
   -66.4324649   52.8562515
   -66.4494534   52.8636623
   -66.4658113   52.8586500
   -66.6935883   52.7819082
   -66.7031980   52.7782338
   -66.7125731   52.7755154
   -66.7221451   52.7718338
   -66.7315557   52.7691249
   -66.7411026   52.7654291
   -66.7505373   52.7627350
   -66.7600500   52.7590264
   -66.7695298   52.7563436
   -66.7790069   52.7526197
   -66.7885090   52.7499576
   -66.7979592   52.7462121
   -66.8075022   52.7435686
   -66.8169063   52.7398052
   -66.8264845   52.7371859
   -66.8358621   52.7333923
   -66.8454765   52.7308018
   -66.8548101   52.7269796
   -66.8660288   52.7240081
   -66.8789414   52.7241096
   -66.8990384   52.7272372
   -66.9178102   52.7333244
   -67.0215620   52.7896736
   -67.2419182   52.9103038
   -67.2740660   52.9278159
   -67.2820791   52.9369192
   -67.2880714   52.9451466
   -67.2949009   52.9525654
   -67.3008298   52.9607848
   -67.3077313   52.9682164
   -67.3135895   52.9764305
   -67.3205636   52.9838637
   -67.3319710   53.0000749
   -67.3406099   53.0173891
   -67.3466568   53.0357309
   -67.3513562   53.0546151
   -67.3533263   53.0745819
   -67.3526855   53.0923637
   -67.3385525   53.1020200
   -67.3209421   53.1109123
   -67.3030193   53.1185323
   -67.2844334   53.1235065
   -67.1727052   53.1383428
   -67.1501986   53.1417522
   -67.1345833   53.1435246
   -66.9999743   53.1619154
   -66.9835479   53.1794633
   -66.9716343   53.1958609
   -66.9620100   53.2130941
   -66.9543721   53.2310526
   -66.9475065   53.2492961
   -66.9429517   53.2683782
   -66.9407056   53.2883049
   -66.9407687   53.3090745
   -66.9431409   53.3306872
   -66.9448360   53.3388183
   -66.9493392   53.3459796
   -66.9573769   53.3564498
   -66.9613027   53.3626068
   -66.9688417   53.3723765
   -66.9732707   53.3792350
   -66.9803069   53.3883093
   -67.0133229   53.4343742
   -67.2207591   53.5170152
   -67.2238206   53.5177339
   -67.2394838   53.5245027
   -67.2427833   53.5252110
   -67.2582077   53.5320041
   -67.2617596   53.5326728
   -67.2800312   53.5409288
   -67.2946407   53.5533116
   -67.3022996   53.5648619
   -67.3105373   53.5720536
   -67.3158124   53.5796959
   -67.3239039   53.5869456
   -67.3293102   53.5945379
   -67.3372773   53.6018245
   -67.3427974   53.6093860
   -67.3506567   53.6166956
   -67.3562750   53.6242368
   -67.3640431   53.6315627
   -67.3697483   53.6390918
   -67.3774297   53.6464212
   -67.3832155   53.6539478
   -67.3908215   53.6612782
   -67.3966832   53.6688105
   -67.4042120   53.6761295
   -67.4101422   53.6836693
   -67.4176069   53.6909808
   -67.4236001   53.6985298
   -67.4310041   53.7058304
   -67.4370611   53.7133972
   -67.4444010   53.7206773
   -67.4505140   53.7282585
   -67.4577943   53.7355176
   -67.4639660   53.7431218
   -67.4711976   53.7503665
   -67.4774207   53.7579889
   -67.4845972   53.7652093
   -67.4908758   53.7728587
   -67.4979948   53.7800490
   -67.5043212   53.7877195
   -67.5113975   53.7948921
   -67.5177733   53.8025883
   -67.5247954   53.8097290
   -67.5312227   53.8174561
   -67.5381978   53.8245702
   -67.5446729   53.8323256
   -67.5650011   53.8542477
   -67.5769619   53.8695394
   -67.7025525   54.0575713
   -67.7049087   54.0714003
   -67.7070331   54.0914709
   -67.7078186   54.1112708
   -67.7072668   54.1308269
   -67.7053773   54.1501324
   -67.7021506   54.1691828
   -67.6979460   54.1880513
   -67.6927624   54.2067324
   -67.6862419   54.2251692
   -67.6783917   54.2433423
   -67.6692055   54.2612678
   -67.6023896   54.3862817
   -67.5965194   54.3956486
   -67.4492390   54.6048288
   -67.3858138   54.6953162
   -67.4127057   54.8704321
   -67.4149211   54.8823746
   -67.4177424   54.9055913
   -67.4189406   54.9280706
   -67.4185146   54.9498038
   -67.4164640   54.9707934
   -67.4127902   54.9910307
   -67.4110176   54.9975524
   -67.3937942   55.0211650
   -67.3797007   55.0376537
   -67.3646089   55.0518879
   -67.3485046   55.0638803
   -67.3313989   55.0736217
   -67.3132887   55.0811144
   -67.2941741   55.0863583
   -67.2744503   55.0902383
   -67.2539149   55.0923013
   -67.2324037   55.0921796
   -67.2144387   55.0903369
   -66.9269967   55.0660314
   -66.9118265   55.0950320
   -66.8995985   55.1156937
   -66.8868419   55.1351718
   -66.8735566   55.1534662
   -66.8597425   55.1705771
   -66.8456048   55.1869428
   -66.8310159   55.2023380
   -66.8158882   55.2165079
   -66.8065179   55.2242509
   -66.7905280   55.2277615
   -66.7660424   55.2313985
   -66.7424117   55.2334783
   -66.7257246   55.2345225
   -66.7187801   55.2355597
   -66.7038502   55.2363370
   -66.6951514   55.2376413
   -66.6819875   55.2381481
   -66.6715159   55.2397263
   -66.6601231   55.2399573
   -66.6478769   55.2418158
   -66.6254537   55.2416935
   -66.6051292   55.2377262
   -66.5869083   55.2299146
   -66.5784961   55.2238314
   -66.5697757   55.2201080
   -66.5611664   55.2139257
   -66.5526440   55.2103011
   -66.5438385   55.2040215
   -66.5355123   55.2004942
   -66.5265102   55.1941178
   -66.5183822   55.1906876
   -66.5091805   55.1842134
   -66.5012503   55.1808795
   -66.4918499   55.1743091
   -66.4841194   55.1710712
   -66.4745231   55.1644075
   -66.4669883   55.1612632
   -66.4571911   55.1545036
   -66.4498590   55.1514551
   -66.4398600   55.1446002
   -66.4327280   55.1416455
   -66.4225327   55.1346995
   -66.4155974   55.1318365
   -66.4051994   55.1247962
   -66.3984674   55.1220267
   -66.3878699   55.1148949
   -66.3813355   55.1122160
   -66.3705377   55.1049931
   -66.3642093   55.1024075
   -66.3532099   55.0950936
   -66.3470787   55.0925969
   -66.3358759   55.0851913
   -66.3299493   55.0827859
   -66.3185457   55.0752911
   -66.3128199   55.0729748
   -66.3012158   55.0653919
   -66.2956919   55.0631645
   -66.2838813   55.0554902
   -66.2785622   55.0533522
   -66.2665507   55.0455908
   -66.2614333   55.0435403
   -66.2492176   55.0356906
   -66.2443045   55.0337280
   -66.2318888   55.0257930
   -66.2271756   55.0239161
   -66.2145535   55.0158925
   -66.2100487   55.0141039
   -66.1972224   55.0059939
   -66.1929195   55.0042906
   -66.1798909   54.9960959
   -66.1757911   54.9944778
   -66.1657450   54.9881917
   -66.1583270   54.9852788
   -66.1481758   54.9789369
   -66.1408643   54.9760808
   -66.1306045   54.9696813
   -66.1233974   54.9668808
   -66.1130307   54.9604250
   -66.1059357   54.9576829
   -66.0954612   54.9511706
   -66.0884717   54.9484838
   -66.0778890   54.9419152
   -66.0710078   54.9392845
   -66.0603168   54.9326595
   -66.0535457   54.9300854
   -66.0427472   54.9234053
   -66.0240638   54.9163431
   -66.0185436   54.9153590
   -66.0048827   54.9102563
   -65.9994740   54.9092557
   -65.9857070   54.9041682
   -65.9804031   54.9031548
   -65.9665327   54.8980782
   -65.9613328   54.8970564
   -65.9473575   54.8919861
   -65.9422590   54.8909591
   -65.9281796   54.8858918
   -65.9231906   54.8848644
   -65.9090087   54.8797975
   -65.9041197   54.8787706
   -65.8898343   54.8737010
   -65.8850476   54.8726774
   -65.8706601   54.8676031
   -65.8659764   54.8665853
   -65.8498725   54.8611489
   -65.8354231   54.8492857
   -65.8236577   54.8403110
   -65.8196778   54.8364208
   -65.8088847   54.8283679
   -65.8039351   54.8235658
   -65.7941170   54.8164208
   -65.7881858   54.8107145
   -65.7793513   54.8044648
   -65.7724324   54.7978713
   -65.7645939   54.7925033
   -65.7566767   54.7850404
   -65.7498487   54.7805372
   -65.7409131   54.7722197
   -65.7351157   54.7685614
   -65.7251403   54.7594116
   -65.7080616   54.7491874
   -65.6891003   54.7426767
   -65.6739201   54.7406397
   -65.6596449   54.7433354
   -65.6431701   54.7470632
   -65.6400432   54.7472359
   -65.6237177   54.7509334
   -65.6204414   54.7511361
   -65.6042599   54.7548042
   -65.6008396   54.7550369
   -65.5848061   54.7586742
   -65.5812378   54.7589373
   -65.5653475   54.7625450
   -65.5616361   54.7628384
   -65.5458954   54.7664146
   -65.5420344   54.7667391
   -65.5264407   54.7702842
   -65.5224334   54.7706397
   -65.5069800   54.7741549
   -65.5028319   54.7745410
   -65.4875281   54.7780241
   -65.4832301   54.7784420
   -65.4680696   54.7818944
   -65.4636284   54.7823434
   -65.4486161   54.7857637
   -65.4440267   54.7862444
   -65.4291606   54.7896331
   -65.4244208   54.7901460
   -65.4097008   54.7935029
   -65.4048233   54.7940468
   -65.3902503   54.7973715
   -65.3852216   54.7979479
   -65.3707884   54.8012420
   -65.3656200   54.8018497
   -65.3422527   54.8069833
   -65.3329985   54.8123962
   -65.3245856   54.8161855
   -65.3152919   54.8216404
   -65.3069164   54.8253890
   -65.2975949   54.8308805
   -65.2892437   54.8345927
   -65.2798914   54.8401244
   -65.2715725   54.8437948
   -65.2621930   54.8493665
   -65.2539045   54.8529940
   -65.2444931   54.8586108
   -65.2362303   54.8621953
   -65.2267902   54.8678579
   -65.2185598   54.8713939
   -65.2090947   54.8771028
   -65.2008840   54.8805928
   -65.1913915   54.8863530
   -65.1832115   54.8897891
   -65.1736962   54.8956015
   -65.1655362   54.8989844
   -65.1559964   54.9048545
   -65.1478576   54.9081790
   -65.1383007   54.9141075
   -65.1301805   54.9173697
   -65.1206048   54.9233640
   -65.1124985   54.9265595
   -65.1029076   54.9326247
   -65.0948159   54.9357460
   -65.0852161   54.9418868
   -65.0667603   54.9488282
   -65.0550865   54.9505509
   -65.0441230   54.9477700
   -65.0267197   54.9392091
   -65.0213447   54.9350244
   -65.0098570   54.9293942
   -65.0040555   54.9249796
   -64.9929925   54.9195756
   -64.9867687   54.9149383
   -64.9761307   54.9097578
   -64.9694777   54.9048955
   -64.9592671   54.8999370
   -64.9521897   54.8948560
   -64.9424062   54.8901172
   -64.9348974   54.8848147
   -64.9255432   54.8802946
   -64.9176072   54.8747759
   -64.9086833   54.8704731
   -64.9003159   54.8647368
   -64.8918207   54.8606490
   -64.8830263   54.8547001
   -64.8749613   54.8508266
   -64.8657319   54.8446608
   -64.8580991   54.8410014
   -64.8484419   54.8346251
   -64.8412402   54.8311781
   -64.8311466   54.8245866
   -64.8243764   54.8213511
   -64.8138561   54.8145518
   -64.8075208   54.8115286
   -64.7965603   54.8045137
   -64.7906561   54.8017001
   -64.7792695   54.7944796
   -64.7738011   54.7918770
   -64.7619731   54.7844421
   -64.6400404   54.7590894
   -64.6201847   54.7550952
   -64.6003217   54.7546535
   -64.5040393   54.7531139
   -64.5010187   54.7525907
   -64.4848017   54.7527969
   -64.4811605   54.7521840
   -64.4655619   54.7524773
   -64.4612971   54.7517805
   -64.4463277   54.7521544
   -64.4414394   54.7513802
   -64.4270909   54.7518283
   -64.4215791   54.7509833
   -64.4078515   54.7514989
   -64.4017156   54.7505898
   -64.3886176   54.7511660
   -64.3818574   54.7501996
   -64.3693811   54.7508297
   -64.3619945   54.7498127
   -64.3501448   54.7504892
   -64.3421367   54.7494296
   -64.3309060   54.7501459
   -64.3136301   54.7479537
   -64.2127361   54.6933712
   -64.2101300   54.6924633
   -64.1955623   54.6841036
   -64.1926114   54.6830620
   -64.1783925   54.6748404
   -64.1750997   54.6736630
   -64.1612156   54.6655747
   -64.1575840   54.6642597
   -64.1440438   54.6563134
   -64.1400714   54.6548571
   -64.1268679   54.6470515
   -64.1225576   54.6454518
   -64.1096930   54.6377920
   -64.1050463   54.6360467
   -64.0972127   54.6313491
   -64.0833010   54.6280374
   -64.0638417   54.6241934
   -64.0445202   54.6243891
   -64.0253461   54.6286245
   -64.0063096   54.6369019
   -63.9976833   54.6425259
   -63.9873495   54.6471782
   -63.9787471   54.6526540
   -63.9683860   54.6574387
   -63.9598200   54.6627921
   -63.9494176   54.6676896
   -63.9409051   54.6729328
   -63.9304584   54.6779267
   -63.9219911   54.6830809
   -63.9114889   54.6881636
   -63.9030826   54.6932309
   -63.8925296   54.6983904
   -63.8841843   54.7033799
   -63.8735585   54.7086195
   -63.8652790   54.7135352
   -63.8546000   54.7188393
   -63.8463836   54.7236882
   -63.8013620   54.7476504
   -63.7642727   54.8068963
   -63.7501422   54.8288367
   -63.6967565   54.8682583
   -63.6912951   54.8727587
   -63.6792867   54.8811669
   -63.6740178   54.8855517
   -63.6618195   54.8940718
   -63.6567362   54.8983509
   -63.6443473   54.9069787
   -63.6394645   54.9111449
   -63.6268774   54.9198803
   -63.6132012   54.9301570
   -63.5972063   54.9442220
   -63.5837538   54.9595421
   -63.5719901   54.9756942
   -63.5623529   54.9928951
   -63.5553308   55.0113811
   -63.5509221   55.0311568
   -63.5491274   55.0522203
   -63.5495074   55.0625858
   -63.5486274   55.0739217
   -63.5489496   55.0840288
   -63.5481210   55.0956218
   -63.5483964   55.1054740
   -63.5476103   55.1173149
   -63.5478471   55.1269174
   -63.5470963   55.1390094
   -63.5473009   55.1483595
   -63.5465797   55.1607026
   -63.5467570   55.1698007
   -63.5460608   55.1823976
   -63.5440305   55.2743531
   -63.6024780   55.3153337
   -63.6082743   55.3198550
   -63.6211643   55.3284434
   -63.6385750   55.3421122
   -63.6541040   55.3565955
   -63.6677514   55.3718933
   -63.6795171   55.3880057
   -63.6894004   55.4049315
   -63.6974056   55.4226793
   -63.7199875   55.4931530
   -63.7227915   55.5083958
   -63.7239092   55.5178136
   -63.7260945   55.5277725
   -63.7271542   55.5368608
   -63.7293957   55.5471408
   -63.7303996   55.5559102
   -63.7326977   55.5665176
   -63.7336458   55.5749587
   -63.7359987   55.5858909
   -63.7368926   55.5940072
   -63.7392980   55.6052583
   -63.7401399   55.6130603
   -63.7425979   55.6246365
   -63.7433869   55.6321037
   -63.7458960   55.6440041
   -63.7466347   55.6511504
   -63.7491952   55.6633823
   -63.7498840   55.6701989
   -63.7524923   55.6827513
   -63.7531333   55.6892468
   -63.7557900   55.7021284
   -63.7563837   55.7082945
   -63.7590858   55.7214978
   -63.7596343   55.7273421
   -63.7623822   55.7408750
   -63.7628859   55.7463881
   -63.7656776   55.7602490
   -63.7661389   55.7654402
   -63.7821408   55.8571137
   -63.7836246   55.8767276
   -63.7828670   55.8966267
   -63.7798676   55.9168268
   -63.7755708   55.9371932
   -63.7695278   55.9577808
   -63.7613306   55.9786624
   -63.7520341   55.9976755
   -63.7716352   56.0202603
   -63.7875398   56.0354302
   -63.8456167   56.0815230
   -63.8583634   56.0905122
   -63.8740071   56.1039422
   -63.8889217   56.1192531
   -63.9031239   56.1364624
   -63.9080380   56.1434240
   -63.9170514   56.1543567
   -63.9223716   56.1618017
   -63.9309889   56.1722628
   -63.9367050   56.1801795
   -63.9502460   56.1974712
   -63.9532328   56.2057249
   -64.0111969   56.3816900
   -64.0125505   56.4621027
   -64.0156266   56.6561600
   -64.0157576   56.6782841
   -64.0097715   56.7185107
   -64.0055054   56.7381019
   -64.0001183   56.7572174
   -63.9420603   56.9254278
   -63.7169677   57.5787536
   -63.7145907   57.5844071
   -63.7105337   57.5974280
   -63.7080894   57.6032412
   -63.7021982   57.6222295
   -63.6981835   57.6417341
   -63.6960464   57.6617540
   -63.6961054   57.6864260
   -63.6994003   57.6892488
   -63.7174615   57.7020997
   -63.7358801   57.7126364
   -63.7546687   57.7208667
   -63.7738255   57.7267889
   -63.7796278   57.7278626
   -63.7930810   57.7320413
   -63.7989621   57.7331192
   -63.8123444   57.7372967
   -63.8183038   57.7383778
   -63.8315988   57.7425498
   -63.8376386   57.7436336
   -63.8508580   57.7478048
   -63.8569773   57.7488901
   -63.8701208   57.7530615
   -63.8763193   57.7541471
   -63.8893753   57.7583163
   -63.8956568   57.7594018
   -63.9086343   57.7635728
   -63.9149984   57.7646568
   -63.9278965   57.7688308
   -63.9343346   57.7699104
   -63.9471520   57.7740883
   -63.9536746   57.7751638
   -63.9664127   57.7793481
   -63.9730174   57.7804173
   -63.9856682   57.7846070
   -63.9923551   57.7856680
   -64.0049264   57.7898678
   -64.0116987   57.7909190
   -64.0305953   57.7972912
   -64.0482216   57.8069068
   -64.0563714   57.8133154
   -64.0651804   57.8182079
   -64.0731798   57.8244521
   -64.0814888   57.8291393
   -64.0888251   57.8367122
   -64.0951775   57.8416198
   -64.1033959   57.8500336
   -64.1094041   57.8546581
   -64.1179619   57.8633498
   -64.1236325   57.8676986
   -64.1325306   57.8766664
   -64.1378588   57.8807383
   -64.1471000   57.8899822
   -64.1520816   57.8937763
   -64.1616720   57.9032998
   -64.1663081   57.9068192
   -64.1762385   57.9166110
   -64.1805331   57.9198607
   -64.1908139   57.9299287
   -64.1947539   57.9329007
   -64.2053834   57.9432410
   -64.2089770   57.9459435
   -64.3654309   58.0894136
   -64.3759405   58.1013106
   -64.3807292   58.1155909
   -64.3848541   58.1340802
   -64.3870435   58.1529890
   -64.3872964   58.1723155
   -64.3857725   58.1901783
   -64.3746634   58.2068379
   -64.3622753   58.2223497
   -64.3483583   58.2365829
   -63.9413959   58.5937585
   -63.9295326   58.6053220
   -63.9194791   58.6174297
   -63.9075820   58.6333485
   -63.8963541   58.6500534
   -63.8915242   58.6580548
   -63.9028540   58.6691833
   -63.9296267   58.6928469
   -63.9554777   58.7129679
   -63.9809215   58.7315811
   -64.0053750   58.7464524
   -64.0287539   58.7572719
   -64.0510665   58.7640425
   -64.0723033   58.7667611
   -64.0872784   58.7657717
   -64.0927653   58.7665522
   -64.1076729   58.7654663
   -64.1132283   58.7663543
   -64.1280692   58.7651471
   -64.1475441   58.7686953
   -64.1657725   58.7774763
   -64.1801739   58.7893605
   -64.1829046   58.7908767
   -64.1954946   58.8015847
   -64.2000194   58.8043456
   -64.2108788   58.8137832
   -64.2171223   58.8178589
   -64.2262932   58.8259592
   -64.2318863   58.8298006
   -64.2415796   58.8322404
   -64.2538874   58.8341391
   -64.2605754   58.8360927
   -64.2732702   58.8380799
   -64.2795776   58.8399453
   -64.2926510   58.8420217
   -64.2985736   58.8437953
   -64.3120299   58.8459641
   -64.3175773   58.8476462
   -64.3314136   58.8499094
   -64.3365727   58.8514937
   -64.3507954   58.8538547
   -64.3555768   58.8553418
   -64.3701750   58.8578014
   -64.3745727   58.8591867
   -64.3895528   58.8617485
   -64.3935770   58.8630327
   -64.4089353   58.8656989
   -64.4125770   58.8668761
   -64.6221113   58.9091588
   -64.6414645   58.9132041
   -64.6600993   58.9203010
   -64.6780039   58.9304454
   -64.6951842   58.9436401
   -64.7116335   58.9598792
   -64.7274657   58.9787593
   -64.7429016   58.9992740
   -64.7576711   59.0226006
   -64.7689690   59.0435409
   -64.7664370   59.0595160
   -64.7619471   59.0798404
   -64.7561669   59.1003028
   -64.7490962   59.1209035
   -64.7407310   59.1416527
   -64.7310847   59.1625184
   -64.7201497   59.1835343
   -64.7085986   59.2046145
   -64.6949207   59.2271598
   -64.6949820   59.2304358
   -64.7096308   59.2441916
   -64.7272442   59.2621501
   -64.7435095   59.2802629
   -64.7584036   59.2985035
   -64.7719481   59.3168975
   -64.7841363   59.3354366
   -64.7949683   59.3541210
   -64.8044441   59.3729505
   -64.8125636   59.3919251
   -64.8674986   59.5447962
   -64.8804329   59.5811617
   -64.8831926   59.5989333
   -64.8843443   59.6185144
   -64.8835729   59.6378703
   -64.8808789   59.6570051
   -64.8762621   59.6759212
   -64.7807171   59.9520180
   -64.7691835   59.9855491
   -64.7626509   60.0313166
   -64.7596544   60.0448166
   -64.7716758   60.0640481
   -64.7792052   60.0750151
   -64.7932558   60.0987947
   -64.8045728   60.1219069
   -64.8131562   60.1443516
   -64.8190060   60.1661288
   -64.8248639   60.1931453
   -64.8252646   60.2138595
   -64.8244465   60.2260050
   -64.8213562   60.2309729
   -64.8063846   60.2481469
   -64.7898221   60.2609846
   -64.7726502   60.2721660
   -64.7537699   60.2786881
   -64.7300752   60.2813438
   -64.6936673   60.2927658
   -64.6761875   60.3025337
   -64.6697757   60.3078044
   -64.6576013   60.3077062
   -64.6382064   60.3095121
   -64.6042174   60.3192751
   -64.6009976   60.3197003
   -64.5874352   60.3240845
   -64.5699496   60.3267266
   -64.5645625   60.3268007
   -64.5533540   60.3321200
   -64.5366238   60.3370840
   -64.5310987   60.3378337
   -64.5195968   60.3411536
   -64.5147930   60.3417865
   -64.4985868   60.3463396
   -64.4828705   60.3532138
   -64.4624874   60.3680579
   -64.4532839   60.3758305
   -64.4188567   60.4090700
   -64.1198222   60.6599151
   -64.0710390   60.6827594
   -64.0235089   60.7039748
   -63.9111138   60.7519206
   -63.2969354   61.0545265
   -63.0103650   61.2363850
   -62.4762698   61.3951318
   -62.2703367   61.4099529
   -62.1917679   61.4161233
   -62.1269668   61.4238321
   -61.1751650   61.7109979
   -61.0023600   61.7399476
   -60.0033266   61.9600657
   -59.9476673   61.9522214
   -59.6952904   61.9140447
   -59.3108480   61.8901612
   -57.5091828   61.9913904
   -57.2561320   61.9844936
   -55.8467996   61.9529785
   -55.4922322   61.9375459
   -53.6145339   62.4721853
   -53.6118376   62.4730811
   -53.2695906   62.0839027
   -53.2696704   62.0836832
   -63.8209150   60.4670212
   -49.2083259   56.9807763
   -49.2079610   56.9805147
   -44.1769698   48.9707267
   -44.1769799   48.9703200
   -44.9876000   47.8118300
   -45.7425416   46.7329321
   -45.7429418   46.7326596
   -55.2241781   44.4579280
   -55.2244969   44.4581066
   -55.9225280   46.6069445
   -55.9245051   46.6104310
   -56.1743152   46.8966226
   -56.1745058   46.8970327
   -56.2238279   47.2175923
   -56.2262226   47.2226985
   -56.2309994   47.2256968
   -56.2347746   47.2260149
   -56.9584233   47.1486510
   -56.9588176   47.1486402
   -58.9448659   47.2514684
   -58.9514167   47.2494564
   -58.9544997   47.2455910
   -58.9550046   47.2387569
   -58.2259978   44.6645693
   -58.2260937   44.6641428
   -59.2511108   43.4919435
   -59.2515300   43.4916900
   -65.0231413   42.1069697
   -65.0236277   42.1070044
   -67.1921674   42.9684016
   -67.1924232   42.9687272
   -67.2472482   43.3608124
   -67.2471689   43.3612412
   -66.7762049   44.2144185
   -66.7750021   44.2201718
   -66.7772393   44.2256071
   -66.7803037   44.2281012
   -66.7860800   44.2291883
   -67.1152780   44.1920728
   -67.1156831   44.1920602
   -67.3650036   44.2046276
   -67.3652842   44.2048844
   -67.4010957   44.4609845
   -67.4009282   44.4613739
   -66.9557282   44.7787994
   -66.9525758   44.7824968
   -66.9515567   44.7862627
   -66.9528605   44.7919193
   -67.1254959   45.0927246
   -67.1287617   45.0961589
   -67.2630223   45.1824636
   -67.2720247   45.1879913
   -67.2775978   45.1894626
   -67.2822372   45.1881393
   -67.2861955   45.1839492
   -67.2890154   45.1700805
   -67.2912579   45.1500174
   -67.3151922   45.1228444
   -67.3682657   45.1238056
   -67.3686965   45.1239678
   -67.4108609   45.1596998
   -67.4981415   45.2823055
   -67.4981598   45.2827064
   -67.4508323   45.3639763
   -67.4498048   45.3715603
   -67.4515172   45.3750661
   -67.5418628   45.4937367
   -67.5417764   45.4939967
   -67.4505175   45.5200472
   -67.4470677   45.5218129
   -67.4437629   45.5265393
   -67.4434063   45.5313531
   -67.4513899   45.5779133
   -67.4538974   45.5830054
   -67.4578559   45.5856311
   -67.4625793   45.5861340
   -67.5491991   45.5744811
   -67.5496503   45.5745260
   -67.8273048   45.6703223
   -67.8275300   45.6706382
   -67.8275300   45.8486787
   -67.7947827   45.9375177
   -67.7941630   45.9410554
   -67.8021355   47.0576213
   -67.8029752   47.0615617
   -67.8078031   47.0665628
   -67.8859699   47.1041342
   -67.9356457   47.1592760
   -67.9617481   47.1951987
   -67.9661128   47.1986041
   -68.0002006   47.2123411
   -68.0908404   47.2681104
   -68.2379174   47.3478945
   -68.2421524   47.3490903
   -68.2963351   47.3519837
   -68.3295518   47.3578339
   -68.3338678   47.3576513
   -68.3631017   47.3498748
   -68.3691949   47.3452045
   -68.3705263   47.3405148
   -68.3722826   47.2827449
   -68.3725344   47.2824827
   -68.4386770   47.2777915
   -68.4601311   47.2814467
   -68.4710264   47.2900515
   -68.4773819   47.2922583
   -68.5102295   47.2919669
   -68.5139097   47.2912299
   -68.5417762   47.2798910
   -68.5591291   47.2798000
   -68.5685970   47.2830193
   -68.5745949   47.2832131
   -68.5781824   47.2813654
   -68.5889959   47.2726429
   -68.5926697   47.2658365
   -68.5944745   47.2496624
   -68.6219094   47.2402170
   -68.6601783   47.2318870
   -68.6832559   47.2394233
   -68.6884842   47.2397183
   -68.7244382   47.2320907
   -68.7872371   47.2147884
   -68.8966010   47.1747775
   -68.8970781   47.1747801
   -69.0595246   47.2362647
   -69.0597393   47.2365908
   -69.0571332   47.2954173
   -69.0569902   47.2986462
END
END
