south-america-brazil-sudeste-sp-rj
1
   -47.8603999   -25.4992927
   -47.8608183   -25.4991676
   -48.1157894   -25.3199680
   -48.1160606   -25.3195698
   -48.1308885   -25.2583521
   -48.1349471   -25.2524623
   -48.2084922   -25.2019658
   -48.2085814   -25.2016161
   -48.1838254   -25.1528795
   -48.1827412   -25.1483198
   -48.1843265   -25.1429476
   -48.2487183   -25.0426658
   -48.2506536   -25.0404519
   -48.2569704   -25.0380702
   -48.2633613   -25.0402454
   -48.3002666   -25.0694728
   -48.5291074   -25.1091862
   -48.5295643   -25.1090752
   -48.6088120   -25.0490499
   -48.6089925   -25.0486523
   -48.5939157   -24.8355726
   -48.5560425   -24.7522730
   -48.5552585   -24.7466055
   -48.5591346   -24.7401320
   -48.6041766   -24.7062837
   -48.6085291   -24.7044159
   -48.6132529   -24.7047605
   -48.6724415   -24.7237314
   -48.9685810   -24.6913450
   -49.0125538   -24.6686872
   -49.0161777   -24.6676161
   -49.0233045   -24.6696878
   -49.0576506   -24.6963459
   -49.2109619   -24.7174872
   -49.2114263   -24.7174390
   -49.3208372   -24.6782997
   -49.3210817   -24.6779844
   -49.3333958   -24.5442623
   -49.3333090   -24.5437611
   -49.2479003   -24.3599366
   -49.2470740   -24.3542792
   -49.2501569   -24.3484023
   -49.3751369   -24.2321011
   -49.3752586   -24.2317092
   -49.3578388   -24.1534061
   -49.3596781   -24.1451320
   -49.3634483   -24.1421372
   -49.4194272   -24.1164620
   -49.5010723   -24.0205957
   -49.6154921   -23.8634194
   -49.6155590   -23.8630067
   -49.5685545   -23.7151861
   -49.5685248   -23.7092204
   -49.5704474   -23.7056999
   -49.6326305   -23.6321405
   -49.6328188   -23.6316781
   -49.6417029   -23.5081980
   -49.6416259   -23.5077407
   -49.6096899   -23.4333289
   -49.6092324   -23.4267512
   -49.6109214   -23.4233293
   -49.6376867   -23.3880081
   -49.6540012   -23.3387082
   -49.6411664   -23.2939920
   -49.6411792   -23.2883718
   -49.6634942   -23.2127999
   -49.6668174   -23.2078396
   -49.7410886   -23.1481020
   -49.7459527   -23.1207785
   -49.7508090   -23.1138099
   -49.7564210   -23.1124892
   -49.7991916   -23.1149997
   -49.9271395   -23.0570943
   -49.9273024   -23.0567462
   -49.9133595   -23.0070458
   -49.9143054   -23.0013858
   -49.9199635   -22.9963611
   -49.9638612   -22.9809240
   -49.9785558   -22.9608098
   -49.9738757   -22.9426116
   -49.9737976   -22.9377445
   -49.9754145   -22.9341863
   -49.9800348   -22.9306550
   -49.9848721   -22.9301124
   -49.9985113   -22.9338849
   -50.0654101   -22.9325152
   -50.0696431   -22.9333604
   -50.1260807   -22.9580750
   -50.3382711   -22.9541343
   -50.3929390   -22.9193961
   -50.3965595   -22.9179821
   -50.4031804   -22.9190882
   -50.4072051   -22.9232421
   -50.4187385   -22.9451204
   -50.5169530   -22.9452696
   -50.5174051   -22.9451324
   -50.5691805   -22.9103870
   -50.5728062   -22.9088819
   -50.5776890   -22.9091314
   -50.5811425   -22.9109982
   -50.6053058   -22.9307813
   -50.6550294   -22.9057455
   -50.6606868   -22.9047448
   -50.6673178   -22.9084085
   -50.7048505   -22.9550567
   -50.7282463   -22.9662629
   -50.7960673   -22.9560580
   -50.8103591   -22.9353733
   -50.8061033   -22.9000507
   -50.8083246   -22.8924825
   -50.8688575   -22.8192682
   -50.8756555   -22.8156816
   -50.9405987   -22.8097539
   -50.9855803   -22.8008486
   -51.0309798   -22.7900758
   -51.1065356   -22.7748450
   -51.2118767   -22.7344679
   -51.2668787   -22.6868799
   -51.2719378   -22.6845474
   -51.3762463   -22.6688123
   -51.3802133   -22.6690116
   -51.5119239   -22.7026622
   -51.5123816   -22.7026913
   -51.7164289   -22.6774222
   -51.7171021   -22.6772914
   -51.8975516   -22.6291254
   -52.0946234   -22.5366420
   -52.1002962   -22.5357967
   -52.1068190   -22.5396251
   -52.1085241   -22.5430812
   -52.1362435   -22.6454543
   -52.1365210   -22.6458424
   -52.2205686   -22.7025840
   -52.2209278   -22.7025352
   -52.2711361   -22.6437291
   -52.2752414   -22.6408548
   -52.2792178   -22.6402337
   -52.3542239   -22.6437302
   -52.4408981   -22.6199131
   -52.4468931   -22.6201319
   -52.5061687   -22.6411743
   -52.5066374   -22.6411421
   -52.5910198   -22.5974005
   -52.5956645   -22.5962787
   -52.6002995   -22.5974400
   -52.6984495   -22.6493833
   -52.6989074   -22.6494236
   -52.8167907   -22.6114961
   -52.8209591   -22.6110769
   -52.8755788   -22.6171532
   -52.8760245   -22.6170493
   -52.9333519   -22.5804089
   -52.9369284   -22.5789999
   -52.9434879   -22.5800354
   -53.0186809   -22.6206296
   -53.0199207   -22.6214219
   -53.0843691   -22.6696372
   -53.0846931   -22.6695823
   -53.1125791   -22.6281593
   -53.1187473   -22.5954227
   -53.0620550   -22.5184569
   -53.0617009   -22.5181333
   -52.4661909   -22.1572625
   -52.4633531   -22.1546830
   -52.0842270   -21.6455796
   -52.0823658   -21.6411412
   -52.0831544   -21.6354453
   -52.1080434   -21.5810628
   -52.1086760   -21.5455240
   -52.0643725   -21.4979745
   -52.0639717   -21.4978089
   -52.0021732   -21.5001271
   -51.9983438   -21.4995185
   -51.9931967   -21.4952343
   -51.9269636   -21.3835310
   -51.8677910   -21.2971660
   -51.8660939   -21.2925504
   -51.8664677   -21.2886194
   -51.8924694   -21.2026065
   -51.8898094   -21.1346930
   -51.8896349   -21.1342953
   -51.7710595   -21.0159793
   -51.7087173   -20.9520122
   -51.6467822   -20.9279402
   -51.6412435   -20.9226577
   -51.6403920   -20.9188498
   -51.6371374   -20.7812459
   -51.6425175   -20.7359770
   -51.5980745   -20.6240280
   -51.5977985   -20.6236093
   -51.4146165   -20.4412207
   -51.4125091   -20.4381389
   -51.3838392   -20.3725370
   -51.3835448   -20.3721574
   -51.3262594   -20.3273881
   -51.3258336   -20.3271963
   -51.1946841   -20.3029812
   -51.1924750   -20.3023017
   -51.0979077   -20.2607235
   -51.0930472   -20.2561574
   -51.0143431   -20.1036591
   -50.9974760   -20.1104260
   -50.9939620   -20.1016670
   -50.9522850   -20.0541760
   -50.8940200   -20.0077710
   -50.8713600   -19.9944380
   -50.6985790   -19.9368710
   -50.6733360   -19.9258640
   -50.6556360   -19.9153730
   -50.5777600   -19.8464890
   -50.5575030   -19.8079380
   -50.5248690   -19.7927970
   -50.4896000   -19.7823060
   -50.4566050   -19.7807560
   -50.4254700   -19.7919180
   -50.4017760   -19.8119690
   -50.3643100   -19.8585290
   -50.3384210   -19.8692780
   -50.0157530   -19.9125310
   -49.8822210   -19.9311350
   -49.5467380   -19.9298940
   -49.4986530   -19.9391440
   -49.4069270   -19.9663780
   -49.3847840   -19.9800200
   -49.3173200   -19.9673600
   -49.2949700   -19.9657060
   -49.2729820   -19.9683930
   -49.2530350   -19.9763000
   -49.2428290   -19.9893220
   -49.2499860   -20.0073060
   -49.2841440   -20.0188810
   -49.2945050   -20.0258060
   -49.2969850   -20.0369680
   -49.2983030   -20.0495250
   -49.3065460   -20.0751050
   -49.3057960   -20.1000130
   -49.2983810   -20.1438860
   -49.2916370   -20.1646600
   -49.2674010   -20.2130810
   -49.2411230   -20.2450170
   -49.2278940   -20.2788140
   -49.2164480   -20.2940580
   -49.1818500   -20.3079070
   -49.1492680   -20.2952470
   -49.1211050   -20.2683750
   -49.0997620   -20.2394360
   -49.0682660   -20.1700350
   -49.0416520   -20.1434210
   -49.0029470   -20.1513280
   -48.9789430   -20.1847620
   -48.9709330   -20.2305480
   -48.9762560   -20.3213950
   -48.9694340   -20.4005120
   -48.9603130   -20.4118290
   -48.9164400   -20.4293990
   -48.9011440   -20.4387000
   -48.8715850   -20.4162210
   -48.8670120   -20.4073330
   -48.8690790   -20.3930700
   -48.8779930   -20.3659920
   -48.8800340   -20.3527110
   -48.8800340   -20.2974690
   -48.8832640   -20.2809840
   -48.8883020   -20.2710100
   -48.8885090   -20.2607780
   -48.8769340   -20.2431570
   -48.8632130   -20.2163370
   -48.8554880   -20.1877600
   -48.8438860   -20.1640400
   -48.8185910   -20.1513280
   -48.7701700   -20.1513280
   -48.7304830   -20.1437310
   -48.7155480   -20.1438860
   -48.6593500   -20.1556690
   -48.6367420   -20.1575290
   -48.6203340   -20.1530330
   -48.5854780   -20.1311220
   -48.5653510   -20.1233710
   -48.4881980   -20.1306570
   -48.4759760   -20.1270920
   -48.4662870   -20.1216660
   -48.4438080   -20.1159290
   -48.4008640   -20.1097280
   -48.3152110   -20.1097280
   -48.2922150   -20.1154640
   -48.2617510   -20.1373750
   -48.2426050   -20.1376850
   -48.2198940   -20.1136040
   -48.2433810   -20.0427040
   -48.2227360   -20.0135070
   -48.2000500   -20.0317490
   -48.1883970   -20.0544860
   -48.1802840   -20.0790840
   -48.1681140   -20.1029070
   -48.1523780   -20.1161880
   -48.1127940   -20.1311220
   -48.0834420   -20.1483820
   -48.0715560   -20.1509140
   -48.0597220   -20.1483820
   -48.0477080   -20.1407860
   -48.0422300   -20.1356700
   -48.0348660   -20.1269370
   -48.0309390   -20.1233710
   -48.0245820   -20.1202190
   -48.0115860   -20.1168600
   -48.0064180   -20.1134490
   -47.9949460   -20.0952070
   -47.9900630   -20.0746400
   -47.9893650   -20.0278210
   -47.9758260   -20.0321620
   -47.9646380   -20.0395000
   -47.9556460   -20.0495250
   -47.9483860   -20.0619280
   -47.9457240   -20.0732450
   -47.9456730   -20.0846650
   -47.9444320   -20.0957760
   -47.9381540   -20.1063180
   -47.9267850   -20.1140170
   -47.9171470   -20.1143790
   -47.9075870   -20.1115890
   -47.8965540   -20.1097280
   -47.8816970   -20.0998060
   -47.8724730   -20.0769650
   -47.8677450   -20.0516440
   -47.8664530   -20.0340220
   -47.8751080   -20.0170720
   -47.8770980   -20.0052390
   -47.8695530   -19.9998640
   -47.8610270   -19.9896320
   -47.8527580   -19.9825530
   -47.8416220   -19.9794000
   -47.7151960   -19.9751110
   -47.6977550   -19.9797620
   -47.6777820   -19.9964540
   -47.6525900   -20.0292160
   -47.6358210   -20.0385180
   -47.6119720   -20.0340220
   -47.5977090   -20.0208960
   -47.5902160   -20.0050840
   -47.5791320   -19.9918030
   -47.5539390   -19.9862220
   -47.5317960   -19.9842060
   -47.5089030   -19.9784700
   -47.4872250   -19.9698400
   -47.4685960   -19.9588850
   -47.4589320   -19.9674630
   -47.4401740   -19.9802270
   -47.4344630   -19.9862220
   -47.4306650   -19.9967120
   -47.4314660   -20.0046700
   -47.4337920   -20.0121120
   -47.4357300   -20.0277180
   -47.4386750   -20.0315940
   -47.4386490   -20.0360380
   -47.4139740   -20.0619280
   -47.3987290   -20.0724700
   -47.3901510   -20.0747950
   -47.3761210   -20.0755700
   -47.3041100   -20.1202700
   -47.2946530   -20.1355150
   -47.2550170   -20.1662110
   -47.2488680   -20.1854340
   -47.2346310   -20.2059500
   -47.2389460   -20.2226410
   -47.2389460   -20.2364910
   -47.2417360   -20.2525100
   -47.2446040   -20.2612440
   -47.2482470   -20.2672900
   -47.2518130   -20.2709590
   -47.2678840   -20.2836710
   -47.2736210   -20.2923530
   -47.2754030   -20.2979340
   -47.2781940   -20.3175190
   -47.2809840   -20.3777220
   -47.2856610   -20.4026300
   -47.2890720   -20.4140510
   -47.2932580   -20.4243340
   -47.2937230   -20.4307940
   -47.2920950   -20.4375120
   -47.2869530   -20.4456770
   -47.2594610   -20.4725490
   -47.2510380   -20.4786460
   -47.1533700   -20.5249480
   -47.1453600   -20.5315110
   -47.1394690   -20.5396250
   -47.1349470   -20.5490300
   -47.1101160   -20.6321770
   -47.1089020   -20.6407550
   -47.1090310   -20.6562580
   -47.1110720   -20.6652500
   -47.1148710   -20.6739320
   -47.1238880   -20.6851970
   -47.1300630   -20.6908300
   -47.1362900   -20.6943440
   -47.1486670   -20.6959970
   -47.1545320   -20.6988400
   -47.1584340   -20.7046790
   -47.1607080   -20.7274170
   -47.1631360   -20.7384240
   -47.1679420   -20.7505680
   -47.1775800   -20.7668970
   -47.1835490   -20.7750110
   -47.1890780   -20.7800750
   -47.2027210   -20.7879810
   -47.2104720   -20.8077740
   -47.2195410   -20.8801720
   -47.2248640   -20.9006360
   -47.2239600   -20.9076120
   -47.2209360   -20.9144340
   -47.2125390   -20.9230120
   -47.2059760   -20.9270430
   -47.1926180   -20.9289550
   -47.1850990   -20.9328300
   -47.1778120   -20.9408920
   -47.1655910   -20.9591340
   -47.1580720   -20.9675050
   -47.1474780   -20.9763940
   -47.1451010   -20.9804240
   -47.1465480   -20.9869360
   -47.1526720   -20.9998030
   -47.1530080   -21.0045570
   -47.1517420   -21.0165460
   -47.1325700   -21.0787650
   -47.1313040   -21.0870850
   -47.1321820   -21.1150930
   -47.1298570   -21.1226900
   -47.1249220   -21.1307510
   -47.0776380   -21.1842360
   -47.0688010   -21.1900240
   -47.0554940   -21.1968450
   -47.0517990   -21.2034600
   -47.0454170   -21.2311590
   -47.0280280   -21.2738430
   -47.0234810   -21.2834550
   -47.0174350   -21.3043320
   -47.0135590   -21.3142030
   -46.9947490   -21.3446920
   -46.9916220   -21.3551300
   -46.9915190   -21.3672230
   -46.9998910   -21.3914590
   -47.0005620   -21.4006060
   -46.9969450   -21.4054110
   -46.9901750   -21.4091320
   -46.9758610   -21.4114580
   -46.8935400   -21.4058250
   -46.8829730   -21.4021040
   -46.8711130   -21.3924410
   -46.8618630   -21.3879450
   -46.8496670   -21.3878930
   -46.8391770   -21.3846380
   -46.8322260   -21.3771960
   -46.8236220   -21.3638120
   -46.8196430   -21.3606600
   -46.8138550   -21.3597300
   -46.7868540   -21.3610210
   -46.7742710   -21.3597810
   -46.7628770   -21.3607110
   -46.7418960   -21.3676880
   -46.7149210   -21.3815370
   -46.6973770   -21.3934740
   -46.6873770   -21.3971430
   -46.6821840   -21.3962130
   -46.6778430   -21.3934740
   -46.6679730   -21.3818470
   -46.6560870   -21.3720800
   -46.6514360   -21.3698060
   -46.6471210   -21.3699100
   -46.6433230   -21.3735270
   -46.6411790   -21.3913040
   -46.6385430   -21.3983830
   -46.6314120   -21.4038610
   -46.6172520   -21.4080470
   -46.6116970   -21.4105270
   -46.6083640   -21.4152820
   -46.6033260   -21.4291830
   -46.5953160   -21.4332130
   -46.5893470   -21.4332650
   -46.5717000   -21.4284590
   -46.5585220   -21.4285630
   -46.5453700   -21.4307330
   -46.5335620   -21.4342990
   -46.5225040   -21.4400860
   -46.5166640   -21.4448920
   -46.5095070   -21.4539360
   -46.5076210   -21.4589480
   -46.5018850   -21.5032350
   -46.4992750   -21.5121750
   -46.4930220   -21.5210120
   -46.4924020   -21.5248360
   -46.4962780   -21.5290210
   -46.5062260   -21.5363600
   -46.5129950   -21.5437490
   -46.5184730   -21.5528440
   -46.5222710   -21.5657120
   -46.5217280   -21.5928940
   -46.5176200   -21.5989400
   -46.5187570   -21.6026600
   -46.5234340   -21.6073110
   -46.5324510   -21.6143390
   -46.5390400   -21.6224520
   -46.5415720   -21.6271550
   -46.5603820   -21.6739220
   -46.5645680   -21.6801750
   -46.5699430   -21.6834820
   -46.5758600   -21.6837920
   -46.6002770   -21.6794000
   -46.6056510   -21.6805370
   -46.6107670   -21.6911820
   -46.6291640   -21.7705570
   -46.6336600   -21.7822360
   -46.6373290   -21.7859050
   -46.6546920   -21.7973770
   -46.6626240   -21.8038370
   -46.6685410   -21.8125180
   -46.6697810   -21.8196500
   -46.6693680   -21.8281250
   -46.6649240   -21.8418190
   -46.6605310   -21.8479170
   -46.6496020   -21.8559780
   -46.6465010   -21.8595960
   -46.6447960   -21.8648150
   -46.6454420   -21.8710160
   -46.6504540   -21.8793360
   -46.6609190   -21.8872940
   -46.6629340   -21.8928240
   -46.6605830   -21.9034690
   -46.6357530   -21.9594860
   -46.6182860   -21.9846010
   -46.6173300   -21.9900270
   -46.6188800   -21.9960730
   -46.6267090   -22.0042900
   -46.6339180   -22.0066150
   -46.6468110   -22.0060980
   -46.6523920   -22.0069250
   -46.6571210   -22.0090960
   -46.6682310   -22.0198440
   -46.6707120   -22.0247020
   -46.6716420   -22.0300760
   -46.6683860   -22.0381380
   -46.6608930   -22.0469740
   -46.6607640   -22.0512640
   -46.6658020   -22.0552940
   -46.6717450   -22.0573100
   -46.6909950   -22.0599970
   -46.6961110   -22.0621160
   -46.6987200   -22.0663530
   -46.6980480   -22.0726580
   -46.6915630   -22.0819080
   -46.6854390   -22.0864550
   -46.6794710   -22.0894010
   -46.6731920   -22.0906410
   -46.6396540   -22.0927600
   -46.6338410   -22.0940520
   -46.6253400   -22.1001490
   -46.6006900   -22.1325510
   -46.6016980   -22.1388550
   -46.6066070   -22.1469680
   -46.6324450   -22.1668640
   -46.6455190   -22.1788530
   -46.6643810   -22.2051560
   -46.7003740   -22.2821540
   -46.7051800   -22.3065970
   -46.7026990   -22.3153300
   -46.6979970   -22.3225130
   -46.6629340   -22.3584280
   -46.6591880   -22.3657660
   -46.6577930   -22.3726910
   -46.6596790   -22.3916050
   -46.6590590   -22.3975990
   -46.6527280   -22.4041620
   -46.6413590   -22.4108800
   -46.5914140   -22.4289150
   -46.5577470   -22.4343930
   -46.5519850   -22.4373380
   -46.5476440   -22.4418860
   -46.5453700   -22.4511360
   -46.5453190   -22.4652430
   -46.5445440   -22.4709800
   -46.5413660   -22.4759400
   -46.5353970   -22.4796090
   -46.5148560   -22.4836920
   -46.4955030   -22.4915470
   -46.4532570   -22.5170750
   -46.4446790   -22.5207960
   -46.4209590   -22.5269970
   -46.4068780   -22.5284950
   -46.3927960   -22.5284950
   -46.3880420   -22.5292710
   -46.3857160   -22.5315960
   -46.3903930   -22.5393990
   -46.3996170   -22.5481840
   -46.4089190   -22.5534030
   -46.4129500   -22.5566590
   -46.4157140   -22.5622400
   -46.4170840   -22.5695260
   -46.4152230   -22.5820840
   -46.4126400   -22.5893190
   -46.4094610   -22.5950550
   -46.3950700   -22.6161390
   -46.3940620   -22.6212030
   -46.3955090   -22.6266810
   -46.4025110   -22.6328300
   -46.4083760   -22.6360860
   -46.4579600   -22.6529840
   -46.4672620   -22.6580480
   -46.4742380   -22.6655930
   -46.4759690   -22.6706060
   -46.4703360   -22.6828010
   -46.4435420   -22.7032650
   -46.4256100   -22.7162360
   -46.3666480   -22.7477580
   -46.3566220   -22.7570600
   -46.3530310   -22.7641920
   -46.3607050   -22.7785580
   -46.3638830   -22.7901850
   -46.3654850   -22.8094080
   -46.3647100   -22.8217590
   -46.3627200   -22.8333350
   -46.3598780   -22.8441870
   -46.3532120   -22.8575190
   -46.3454600   -22.8658390
   -46.3384060   -22.8678550
   -46.3282000   -22.8696120
   -46.3087700   -22.8696120
   -46.2986410   -22.8740560
   -46.2872730   -22.8813940
   -46.2805550   -22.8817040
   -46.2708140   -22.8783960
   -46.2601940   -22.8706970
   -46.2555430   -22.8685260
   -46.2497550   -22.8684750
   -46.2362160   -22.8740560
   -46.2286970   -22.8750380
   -46.2168630   -22.8717820
   -46.2103780   -22.8680100
   -46.1976140   -22.8571570
   -46.1870200   -22.8531780
   -46.1561950   -22.8480620
   -46.1495550   -22.8486830
   -46.1436640   -22.8510080
   -46.1391680   -22.8578290
   -46.1394260   -22.8631000
   -46.1472810   -22.8765360
   -46.1483920   -22.8814970
   -46.1446970   -22.8906440
   -46.1223730   -22.8929180
   -46.0432560   -22.8782410
   -46.0187880   -22.8752960
   -46.0104420   -22.8724020
   -46.0023800   -22.8683200
   -45.9898750   -22.8598450
   -45.9831050   -22.8544190
   -45.9785060   -22.8489930
   -45.9730020   -22.8398460
   -45.9689460   -22.8359700
   -45.9631060   -22.8338000
   -45.9532620   -22.8347300
   -45.9406530   -22.8381920
   -45.9353040   -22.8374170
   -45.9301110   -22.8327150
   -45.9232640   -22.8229990
   -45.9193620   -22.8197440
   -45.9147890   -22.8182450
   -45.9085360   -22.8204160
   -45.9054610   -22.8247560
   -45.9010430   -22.8348850
   -45.8941440   -22.8420680
   -45.8850750   -22.8469770
   -45.8764190   -22.8530230
   -45.8689000   -22.8600000
   -45.8640680   -22.8615500
   -45.8576860   -22.8604130
   -45.8491340   -22.8525580
   -45.8442500   -22.8465640
   -45.8342770   -22.8324040
   -45.8292130   -22.8291490
   -45.8231150   -22.8268230
   -45.8132960   -22.8266680
   -45.8084130   -22.8298210
   -45.8054930   -22.8347300
   -45.8020050   -22.8449620
   -45.7982840   -22.8483720
   -45.7929620   -22.8502330
   -45.7865800   -22.8493030
   -45.7804040   -22.8460470
   -45.7735830   -22.8386570
   -45.7700430   -22.8325600
   -45.7682860   -22.8261000
   -45.7685960   -22.8204160
   -45.7743060   -22.8054810
   -45.7747460   -22.7997970
   -45.7735830   -22.7942160
   -45.7705600   -22.7900810
   -45.7659610   -22.7880660
   -45.7591910   -22.7897200
   -45.7492950   -22.7950420
   -45.7447730   -22.7965930
   -45.7365310   -22.7923550
   -45.7312600   -22.7841390
   -45.7286500   -22.7771620
   -45.7263250   -22.7633130
   -45.7253950   -22.7505490
   -45.7272550   -22.7391290
   -45.7317510   -22.7304990
   -45.7347480   -22.7276560
   -45.7418790   -22.7245560
   -45.7475120   -22.7236770
   -45.7599920   -22.7239360
   -45.7855980   -22.7265710
   -45.7921860   -22.7261580
   -45.7979480   -22.7245560
   -45.8025480   -22.7216620
   -45.8082060   -22.7134450
   -45.8085160   -22.7082260
   -45.8072500   -22.7037300
   -45.8040200   -22.7001130
   -45.7179530   -22.6524670
   -45.7116230   -22.6448710
   -45.7090130   -22.6381010
   -45.7103310   -22.6325200
   -45.7150340   -22.6232180
   -45.7293480   -22.6086460
   -45.7324230   -22.6046150
   -45.7350580   -22.5944350
   -45.7260920   -22.5886980
   -45.7097110   -22.5847190
   -45.6692480   -22.5811540
   -45.6549080   -22.5837370
   -45.6485000   -22.5879230
   -45.6567680   -22.6021860
   -45.6639510   -22.6103510
   -45.6742610   -22.6191880
   -45.6805140   -22.6293160
   -45.6817020   -22.6346390
   -45.6812890   -22.6400650
   -45.6789630   -22.6444060
   -45.6748810   -22.6477130
   -45.6695320   -22.6499870
   -45.6562520   -22.6516920
   -45.6472600   -22.6501420
   -45.6371830   -22.6468860
   -45.6123010   -22.6340190
   -45.5934910   -22.6204790
   -45.5886850   -22.6179470
   -45.5831290   -22.6167590
   -45.5762050   -22.6186190
   -45.5725870   -22.6226500
   -45.5711410   -22.6281790
   -45.5704430   -22.6391860
   -45.5677300   -22.6431650
   -45.5628460   -22.6456460
   -45.5292570   -22.6509170
   -45.5193090   -22.6492630
   -45.5078110   -22.6451810
   -45.4875800   -22.6342250
   -45.4782260   -22.6276110
   -45.4721800   -22.6216680
   -45.4574780   -22.5998610
   -45.4529820   -22.5970700
   -45.4474010   -22.5957260
   -45.4395210   -22.5972770
   -45.4287720   -22.6029610
   -45.4205040   -22.6094720
   -45.4171710   -22.6132960
   -45.4140440   -22.6238380
   -45.4139670   -22.6368090
   -45.4131910   -22.6428550
   -45.4110210   -22.6476610
   -45.4070680   -22.6509170
   -45.3990580   -22.6509690
   -45.3879990   -22.6475060
   -45.3467360   -22.6258540
   -45.2701250   -22.6043050
   -45.2633560   -22.6012560
   -45.2558880   -22.5960360
   -45.2505660   -22.5870450
   -45.2496360   -22.5805340
   -45.2514180   -22.5691130
   -45.2502560   -22.5648760
   -45.2457860   -22.5622920
   -45.2364320   -22.5633250
   -45.2282670   -22.5628600
   -45.2200770   -22.5601210
   -45.2040830   -22.5479770
   -45.1884250   -22.5325780
   -45.1802340   -22.5262220
   -45.1266720   -22.4983680
   -45.1145530   -22.4904100
   -45.0574770   -22.4658640
   -45.0464440   -22.4637960
   -45.0281250   -22.4672590
   -45.0189780   -22.4665870
   -45.0092630   -22.4633830
   -44.9932170   -22.4554770
   -44.9822360   -22.4512910
   -44.9708670   -22.4485520
   -44.9449510   -22.4490170
   -44.9300430   -22.4508260
   -44.9228340   -22.4506710
   -44.8964270   -22.4415240
   -44.8313410   -22.4060740
   -44.7928930   -22.3811660
   -44.7749620   -22.3725360
   -44.7315020   -22.3584280
   -44.7215020   -22.3568780
   -44.7072140   -22.3586350
   -44.6864400   -22.3635440
   -44.6630050   -22.3682470
   -44.6519980   -22.3645260
   -44.6448400   -22.3568780
   -44.6296480   -22.3333650
   -44.6172190   -22.3214280
   -44.6088740   -22.3162090
   -44.6006310   -22.3140900
   -44.5701420   -22.3130050
   -44.5446920   -22.3081990
   -44.5327030   -22.3044780
   -44.5243830   -22.3007570
   -44.5201970   -22.2977600
   -44.4433280   -22.2552300
   -44.4309520   -22.2517160
   -44.4225800   -22.2517160
   -44.4139500   -22.2535770
   -44.4020900   -22.2543000
   -44.3499750   -22.2470140
   -44.3356350   -22.2472210
   -44.2920970   -22.2403990
   -44.2795400   -22.2422600
   -44.2697730   -22.2474790
   -44.2624350   -22.2538870
   -44.2575770   -22.2566770
   -44.2403170   -22.2581760
   -44.2172700   -22.2498040
   -44.1244330   -22.2033990
   -44.1154670   -22.1958030
   -44.0935300   -22.1721860
   -44.0860120   -22.1685690
   -44.0711030   -22.1663990
   -44.0644370   -22.1645900
   -43.9455030   -22.1190630
   -43.9104930   -22.1110530
   -43.8943950   -22.1049550
   -43.8833110   -22.0959120
   -43.8678590   -22.0857830
   -43.8137540   -22.0641310
   -43.7847380   -22.0559140
   -43.7783820   -22.0558110
   -43.7724650   -22.0570000
   -43.7679690   -22.0597900
   -43.7584350   -22.0716760
   -43.7525690   -22.0743110
   -43.7448440   -22.0757580
   -43.7309170   -22.0744660
   -43.7191610   -22.0710560
   -43.7017200   -22.0638210
   -43.6917720   -22.0618570
   -43.6850020   -22.0630460
   -43.6760620   -22.0697120
   -43.6696550   -22.0717270
   -43.6649780   -22.0703320
   -43.6556240   -22.0613920
   -43.6477440   -22.0552940
   -43.6406900   -22.0532790
   -43.6341010   -22.0533310
   -43.6217250   -22.0578260
   -43.6132760   -22.0597900
   -43.6074100   -22.0573100
   -43.5937940   -22.0478530
   -43.5877730   -22.0461990
   -43.5832520   -22.0478530
   -43.5737690   -22.0594800
   -43.5645700   -22.0655780
   -43.5565860   -22.0668180
   -43.5446750   -22.0665080
   -43.5291200   -22.0611850
   -43.5111630   -22.0570510
   -43.5052720   -22.0568960
   -43.4854800   -22.0583950
   -43.4698480   -22.0579300
   -43.4623290   -22.0561210
   -43.4474720   -22.0483180
   -43.3685880   -22.0095090
   -43.3430590   -22.0014990
   -43.3277120   -22.0018090
   -43.3185130   -22.0041350
   -43.3137070   -22.0064080
   -43.3070670   -22.0076490
   -43.2963180   -22.0081140
   -43.2624960   -22.0062530
   -43.2529100   -22.0066150
   -43.2474580   -22.0084750
   -43.2344100   -22.0173640
   -43.2279760   -22.0203610
   -43.2197080   -22.0228410
   -43.2029390   -22.0243920
   -43.1890900   -22.0239270
   -43.1666880   -22.0209810
   -43.1382920   -22.0226860
   -43.1340540   -22.0244950
   -43.1313410   -22.0277510
   -43.1303330   -22.0386030
   -43.1327360   -22.0504880
   -43.1354750   -22.0551390
   -43.1425030   -22.0630460
   -43.1468440   -22.0722960
   -43.1456810   -22.0804090
   -43.1424770   -22.0885740
   -43.1380590   -22.0965320
   -43.1265610   -22.0930700
   -43.1140040   -22.0763270
   -43.1032810   -22.0692470
   -43.0911370   -22.0688340
   -43.0669780   -22.0752410
   -43.0592270   -22.0729680
   -43.0486330   -22.0537440
   -43.0451450   -22.0381890
   -43.0374970   -22.0254770
   -43.0145270   -22.0146250
   -42.9515330   -22.0059430
   -42.9353840   -21.9975720
   -42.9037060   -21.9700800
   -42.8870920   -21.9598480
   -42.7536900   -21.9101350
   -42.6796630   -21.8710680
   -42.5552260   -21.8296750
   -42.4581260   -21.7764480
   -42.4034270   -21.7636330
   -42.3871750   -21.7520050
   -42.3736350   -21.7399130
   -42.3634290   -21.7334530
   -42.3527320   -21.7338670
   -42.3339740   -21.7410500
   -42.3224760   -21.7408950
   -42.3118300   -21.7354170
   -42.2927100   -21.7184160
   -42.2802560   -21.7136100
   -42.2648310   -21.6873580
   -42.2631000   -21.6723200
   -42.2648310   -21.6671010
   -42.2701280   -21.6563520
   -42.2745200   -21.6506160
   -42.2836670   -21.6435360
   -42.2943900   -21.6393510
   -42.3068440   -21.6389370
   -42.3177730   -21.6421930
   -42.3241810   -21.6429680
   -42.3311570   -21.6424510
   -42.3421640   -21.6373870
   -42.3493480   -21.6352170
   -42.3621120   -21.6354750
   -42.3692430   -21.6337700
   -42.3707930   -21.6290150
   -42.3707930   -21.6226590
   -42.3665820   -21.5937200
   -42.3468930   -21.5556870
   -42.3009780   -21.4865950
   -42.2991180   -21.4825640
   -42.2971800   -21.4730560
   -42.2952680   -21.4555380
   -42.2974900   -21.4206040
   -42.2970510   -21.4117680
   -42.2953970   -21.4061350
   -42.2833570   -21.3824670
   -42.2768710   -21.3744060
   -42.2207510   -21.3371470
   -42.2134640   -21.2846440
   -42.2070820   -21.2633010
   -42.1815280   -21.2145700
   -42.1786860   -21.2034600
   -42.1784540   -21.1949850
   -42.1814250   -21.1788620
   -42.1811150   -21.1631010
   -42.1788410   -21.1547290
   -42.1759730   -21.1483730
   -42.1691260   -21.1411380
   -42.1594110   -21.1258940
   -42.1504970   -21.1064630
   -42.1448640   -21.0972650
   -42.1316090   -21.0815550
   -42.1217390   -21.0658970
   -42.1032900   -21.0275020
   -42.0970890   -21.0109140
   -42.0953320   -21.0011980
   -42.1039880   -20.9984080
   -42.1172430   -20.9971680
   -42.1285080   -20.9934470
   -42.1328490   -20.9905010
   -42.1365180   -20.9849720
   -42.1389470   -20.9773240
   -42.1400320   -20.9632680
   -42.1376550   -20.9563430
   -42.1337790   -20.9516410
   -42.1237540   -20.9471970
   -42.1144520   -20.9419770
   -42.1038330   -20.9317450
   -42.0961330   -20.9225470
   -42.0898540   -20.9194460
   -42.0845570   -20.9197560
   -42.0753070   -20.9248720
   -42.0700880   -20.9267330
   -42.0575820   -20.9274040
   -42.0466010   -20.9253890
   -42.0294190   -20.9200660
   -42.0239150   -20.9205830
   -42.0121850   -20.9300400
   -42.0068360   -20.9319000
   -42.0004020   -20.9322100
   -41.9887750   -20.9296780
   -41.9753130   -20.9230120
   -41.9661150   -20.9147440
   -41.9616970   -20.9084910
   -41.9446950   -20.8713360
   -41.9287270   -20.8453940
   -41.9260660   -20.8390380
   -41.9271510   -20.8271520
   -41.9203040   -20.8045180
   -41.9076170   -20.8011070
   -41.8984960   -20.8006940
   -41.8852670   -20.7976970
   -41.8776190   -20.7934070
   -41.8729680   -20.7896350
   -41.8643900   -20.7768710
   -41.8109050   -20.7975420
   -41.7568260   -20.8113390
   -41.7489190   -20.8147500
   -41.7417100   -20.8218300
   -41.7395660   -20.8317510
   -41.7417100   -20.8500450
   -41.7404440   -20.8565040
   -41.7359740   -20.8631190
   -41.7300830   -20.8668910
   -41.7208330   -20.8699400
   -41.7189730   -20.8739710
   -41.7197740   -20.8780530
   -41.7239330   -20.8890610
   -41.7236230   -20.9055970
   -41.7245020   -20.9122120
   -41.7288940   -20.9219780
   -41.7291270   -20.9295230
   -41.7271120   -20.9396520
   -41.7188430   -20.9575840
   -41.7128750   -20.9761350
   -41.7144250   -20.9879180
   -41.7182490   -21.0004230
   -41.7186110   -21.0105000
   -41.7211430   -21.0224370
   -41.7217630   -21.0301370
   -41.7237010   -21.0356670
   -41.7268790   -21.0393870
   -41.7286100   -21.0443480
   -41.7252000   -21.0601100
   -41.7258970   -21.0747340
   -41.7254320   -21.0841910
   -41.7214790   -21.0890480
   -41.7150450   -21.0924590
   -41.7127460   -21.0966960
   -41.7143470   -21.1086340
   -41.7114020   -21.1112180
   -41.7074490   -21.1107520
   -41.6970880   -21.1070830
   -41.6910670   -21.1067730
   -41.6852800   -21.1078590
   -41.6730580   -21.1129750
   -41.6519740   -21.1289940
   -41.6455140   -21.1324050
   -41.6203740   -21.1388130
   -41.6097290   -21.1428440
   -41.5922100   -21.1513180
   -41.5757770   -21.1617050
   -41.5663460   -21.1659950
   -41.5516440   -21.1686300
   -41.5376400   -21.1730740
   -41.5199920   -21.1757100
   -41.5142050   -21.1751410
   -41.5061690   -21.1706450
   -41.4987280   -21.1705420
   -41.4833020   -21.1768470
   -41.4613660   -21.1913680
   -41.4550610   -21.1946230
   -41.4382140   -21.2012900
   -41.4282930   -21.2034600
   -41.4204120   -21.2022200
   -41.4055550   -21.1907480
   -41.3993540   -21.1889390
   -41.3894580   -21.1875440
   -41.3619400   -21.1911090
   -41.3203150   -21.2004630
   -41.3112970   -21.2036150
   -41.3059740   -21.2081110
   -41.3009620   -21.2163270
   -41.2977580   -21.2186530
   -41.2646850   -21.2319340
   -41.2548670   -21.2338970
   -41.2468050   -21.2339490
   -41.2225950   -21.2299180
   -41.1748200   -21.2296080
   -41.1027310   -21.2147250
   -41.0679270   -21.2141050
   -41.0613900   -21.2167920
   -41.0484970   -21.2256290
   -41.0410550   -21.2295570
   -40.9947270   -21.2440260
   -40.9873890   -21.2503300
   -40.9790690   -21.2645420
   -40.9651190   -21.2740290
   -40.9627729   -21.2807651
   -40.9447087   -21.2739298
   -40.8913292   -21.2801593
   -40.8082624   -21.3015832
   -40.8004152   -21.3041317
   -40.7226561   -21.3243069
   -40.7035738   -21.3298832
   -40.6515893   -21.3493816
   -40.5435870   -21.3894500
   -40.4875667   -21.4114569
   -40.4282652   -21.4360124
   -39.9570212   -21.6401360
   -39.9221136   -21.6627632
   -39.8296104   -21.6916458
   -39.1213184   -21.9289799
   -38.0992314   -22.3501466
   -38.0249214   -22.3804705
   -36.0280389   -23.1876023
   -34.8674123   -23.6746808
   -34.6979205   -25.0806071
   -47.8603999   -25.4992927
END
END
