south-america-brazil-sudeste-minas
1
   -29.0656074   -20.4344762
   -29.0573235   -20.4172383
   -29.0572106   -20.4170296
   -29.0524600   -20.4087275
   -29.0517742   -20.4075927
   -29.0465577   -20.3994164
   -29.0464268   -20.3992218
   -29.0348363   -20.3836754
   -29.0217947   -20.3693244
   -29.0074245   -20.3563040
   -28.9918610   -20.3447364
   -28.9752503   -20.3347304
   -28.9577488   -20.3263800
   -28.9395208   -20.3197639
   -28.9207377   -20.3149441
   -28.9015762   -20.3119660
   -28.8822163   -20.3108575
   -28.8628401   -20.3116292
   -28.8436297   -20.3142737
   -28.8433992   -20.3143169
   -28.8339127   -20.3163344
   -28.8309632   -20.3170368
   -28.8217177   -20.3194736
   -28.8214988   -20.3195369
   -28.8034097   -20.3257211
   -28.7859937   -20.3336041
   -28.7694098   -20.3431139
   -28.7538097   -20.3541637
   -28.7393359   -20.3666524
   -28.7261205   -20.3804659
   -28.7142843   -20.3954781
   -28.7039355   -20.4115518
   -28.6951687   -20.4285401
   -28.6880639   -20.4462878
   -28.6826860   -20.4646328
   -28.6790841   -20.4834074
   -28.6772913   -20.5024402
   -28.6773238   -20.5215572
   -28.6791814   -20.5405837
   -28.6828470   -20.5593460
   -28.6829014   -20.5595673
   -28.6854024   -20.5687956
   -28.6860387   -20.5709390
   -28.6890079   -20.5801229
   -28.6890868   -20.5803483
   -28.6963361   -20.5982331
   -28.7052753   -20.6153361
   -28.7158213   -20.6314978
   -28.7278759   -20.6465679
   -28.7280339   -20.6467470
   -28.7345923   -20.6538284
   -28.7356853   -20.6549528
   -28.7423499   -20.6614964
   -28.7425194   -20.6616553
   -28.7567282   -20.6737741
   -28.7626214   -20.6779173
   -28.7705610   -20.6839153
   -28.7870387   -20.6940245
   -28.8044155   -20.7024956
   -28.8225289   -20.7092494
   -28.8412098   -20.7142230
   -28.8602835   -20.7173698
   -28.8795720   -20.7186604
   -28.8988950   -20.7180828
   -28.9180719   -20.7156423
   -28.9369237   -20.7113618
   -28.9552741   -20.7052812
   -28.9729517   -20.6974574
   -28.9897914   -20.6879635
   -29.0056359   -20.6768881
   -29.0203371   -20.6643348
   -29.0337576   -20.6504208
   -29.0457721   -20.6352761
   -29.0562684   -20.6190421
   -29.0651483   -20.6018707
   -29.0723289   -20.5839222
   -29.0777431   -20.5653642
   -29.0813403   -20.5463703
   -29.0830870   -20.5271177
   -29.0829668   -20.5077865
   -29.0809808   -20.4885572
   -29.0771476   -20.4696094
   -29.0743614   -20.4604831
   -29.0740962   -20.4595505
   -29.0740782   -20.4595556
   -29.0740776   -20.4595536
   -29.0722071   -20.4524264
   -29.0656074   -20.4344762
END
2
   -29.5477183   -20.5757768
   -29.5481825   -20.5563547
   -29.5467601   -20.5369791
   -29.5434645   -20.5178329
   -29.5383268   -20.4990969
   -29.5382527   -20.4988702
   -29.5350075   -20.4897113
   -29.5312361   -20.4798362
   -29.5274487   -20.4706153
   -29.5273522   -20.4703960
   -29.5184235   -20.4525771
   -29.5077657   -20.4357353
   -29.4954846   -20.4200378
   -29.4817020   -20.4056407
   -29.4665550   -20.3926869
   -29.4501939   -20.3813049
   -29.4327811   -20.3716079
   -29.4144897   -20.3636921
   -29.3955013   -20.3576362
   -29.3760043   -20.3535003
   -29.3561926   -20.3513254
   -29.3362628   -20.3511332
   -29.3164127   -20.3529256
   -29.3161755   -20.3529590
   -29.3063421   -20.3545946
   -29.2945471   -20.3568599
   -29.2846763   -20.3590156
   -29.2844344   -20.3590748
   -29.2650820   -20.3648665
   -29.2464125   -20.3725808
   -29.2286164   -20.3821391
   -29.2118753   -20.3934437
   -29.1963599   -20.4063793
   -29.1961769   -20.4065483
   -29.1889289   -20.4135872
   -29.1741421   -20.4286914
   -29.1673845   -20.4359454
   -29.1672314   -20.4361180
   -29.1548353   -20.4515851
   -29.1440310   -20.4682032
   -29.1349247   -20.4858092
   -29.1276060   -20.5042301
   -29.1221466   -20.5232850
   -29.1186001   -20.5427868
   -29.1170015   -20.5625438
   -29.1173664   -20.5823620
   -29.1196913   -20.6020468
   -29.1239532   -20.6214047
   -29.1301104   -20.6402458
   -29.1381023   -20.6583848
   -29.1478505   -20.6756436
   -29.1592592   -20.6918527
   -29.1722164   -20.7068530
   -29.1865947   -20.7204969
   -29.2022530   -20.7326507
   -29.2094461   -20.7371694
   -29.2100190   -20.7376468
   -29.2176601   -20.7437051
   -29.2178431   -20.7438432
   -29.2339651   -20.7548074
   -29.2510780   -20.7641498
   -29.2690193   -20.7717815
   -29.2876185   -20.7776301
   -29.3066987   -20.7816398
   -29.3260787   -20.7837727
   -29.3455743   -20.7840084
   -29.3650002   -20.7823448
   -29.3841718   -20.7787975
   -29.4029069   -20.7734004
   -29.4210275   -20.7662048
   -29.4383613   -20.7572789
   -29.4547437   -20.7467076
   -29.4700189   -20.7345915
   -29.4840418   -20.7210456
   -29.4966791   -20.7061986
   -29.5078107   -20.6901917
   -29.5173309   -20.6731770
   -29.5174329   -20.6729718
   -29.5215598   -20.6641367
   -29.5313746   -20.6417147
   -29.5350536   -20.6327213
   -29.5351385   -20.6324984
   -29.5411654   -20.6140292
   -29.5453719   -20.5950624
   -29.5477183   -20.5757768
END
3
   -39.4726420   -18.3260131
   -39.4738864   -18.3456740
   -39.4770590   -18.3651170
   -39.4771089   -18.3653497
   -39.4794094   -18.3749304
   -39.5277209   -18.5563258
   -39.5445683   -18.6917631
   -39.5412792   -18.8884225
   -39.5208609   -19.0648648
   -39.5000731   -19.2116799
   -39.4990849   -19.2198738
   -39.4990645   -19.2200787
   -39.4981058   -19.2365622
   -39.4981023   -19.2367682
   -39.4981340   -19.2450256
   -39.5014594   -19.3808213
   -39.5018901   -19.3899259
   -39.5019060   -19.3901526
   -39.5040088   -19.4082559
   -39.5040453   -19.4084802
   -39.5057130   -19.4174411
   -39.5140022   -19.4569518
   -39.5160883   -19.4658734
   -39.5161454   -19.4660946
   -39.5215317   -19.4836045
   -39.5216088   -19.4838195
   -39.5248976   -19.4923711
   -39.6011522   -19.6778503
   -39.6042673   -19.6850252
   -39.6043485   -19.6852027
   -39.6114081   -19.6991598
   -39.6115029   -19.6993304
   -39.6154366   -19.7060913
   -39.6360039   -19.7399019
   -39.6411138   -19.7478709
   -39.6412452   -19.7480656
   -39.6525667   -19.7632341
   -39.6652714   -19.7772644
   -39.6792455   -19.7900309
   -39.6794262   -19.7901809
   -39.6868506   -19.7960541
   -39.7143658   -19.8167805
   -39.7212218   -19.8217214
   -39.7213953   -19.8218410
   -39.7357289   -19.8308474
   -39.7507728   -19.8386095
   -39.7509633   -19.8386978
   -39.7586480   -19.8420655
   -39.8533020   -19.8812002
   -39.8622717   -19.8876217
   -39.8930015   -19.9585031
   -39.8937391   -19.9615341
   -39.8958265   -19.9694103
   -39.8958931   -19.9696425
   -39.9021519   -19.9880331
   -39.9101653   -20.0057298
   -39.9102755   -20.0059447
   -39.9149172   -20.0144803
   -39.9239443   -20.0301602
   -39.9293207   -20.0389656
   -39.9294583   -20.0391784
   -39.9415364   -20.0558997
   -39.9508794   -20.0663664
   -39.9539681   -20.0772809
   -39.9567050   -20.0861597
   -39.9567774   -20.0863764
   -39.9634726   -20.1037051
   -39.9641013   -20.1049689
   -39.9661988   -20.1263366
   -39.9662390   -20.1265998
   -39.9681495   -20.1371862
   -39.9700871   -20.1464851
   -39.9719545   -20.1545973
   -39.9720052   -20.1547986
   -39.9767534   -20.1707824
   -39.9828165   -20.1863152
   -39.9828997   -20.1865046
   -39.9861089   -20.1934195
   -39.9965091   -20.2365390
   -39.9989343   -20.2456467
   -39.9990001   -20.2458723
   -40.0051233   -20.2636948
   -40.0052100   -20.2639131
   -40.0088945   -20.2725882
   -40.0126109   -20.2807955
   -40.0164867   -20.2888689
   -40.0165879   -20.2890679
   -40.0254228   -20.3046846
   -40.0296171   -20.3107555
   -40.0416456   -20.3363787
   -40.0443253   -20.3418674
   -40.0444098   -20.3420341
   -40.0516792   -20.3551256
   -40.0517760   -20.3552854
   -40.0557731   -20.3616180
   -40.0655409   -20.3764692
   -40.0689864   -20.3814312
   -40.0720245   -20.3910416
   -40.0797491   -20.4090910
   -40.0892062   -20.4262960
   -40.1003046   -20.4424909
   -40.1129374   -20.4575196
   -40.1178529   -20.4623204
   -40.1199770   -20.4708223
   -40.1200528   -20.4710934
   -40.1273891   -20.4925574
   -40.1371087   -20.5130526
   -40.1372436   -20.5132996
   -40.1429592   -20.5231010
   -40.1510750   -20.5361529
   -40.1562851   -20.5544887
   -40.1591115   -20.5636025
   -40.1592008   -20.5638680
   -40.1675937   -20.5848190
   -40.1782937   -20.6046910
   -40.1784402   -20.6049297
   -40.1846139   -20.6143814
   -40.2223714   -20.6687697
   -40.2373910   -20.7005534
   -40.2416476   -20.7090342
   -40.2417644   -20.7092538
   -40.2520629   -20.7264702
   -40.2640343   -20.7425683
   -40.2775582   -20.7573862
   -40.2777348   -20.7575612
   -40.2850371   -20.7644429
   -40.2995556   -20.7774534
   -40.3072220   -20.7839830
   -40.3074107   -20.7841357
   -40.3236801   -20.7959968
   -40.3410595   -20.8061621
   -40.3470795   -20.8089124
   -40.3533360   -20.8192324
   -40.3583604   -20.8270998
   -40.3584931   -20.8272973
   -40.3698800   -20.8426102
   -40.3700309   -20.8427940
   -40.3762592   -20.8500257
   -40.3858808   -20.8606727
   -40.3918745   -20.8670209
   -40.3920274   -20.8671759
   -40.3954827   -20.8703860
   -40.3959365   -20.8716032
   -40.3997103   -20.8809923
   -40.3998080   -20.8812186
   -40.4087548   -20.8993646
   -40.4194892   -20.9165139
   -40.4319012   -20.9324910
   -40.4458639   -20.9471323
   -40.4612343   -20.9602881
   -40.4699658   -20.9663481
   -40.4792417   -20.9763954
   -40.4934148   -20.9890832
   -40.5087293   -21.0003670
   -40.5089243   -21.0004968
   -40.5169666   -21.0055799
   -40.5254214   -21.0106462
   -40.5341106   -21.0155626
   -40.5343204   -21.0156745
   -40.5523803   -21.0241769
   -40.5711977   -21.0308368
   -40.5905853   -21.0355877
   -40.6103498   -21.0383823
   -40.6114952   -21.0384289
   -40.6147704   -21.0555202
   -40.6177959   -21.0721521
   -40.6199092   -21.0822756
   -40.6199676   -21.0825229
   -40.6257519   -21.1023843
   -40.6335569   -21.1215419
   -40.6432990   -21.1397909
   -40.6548739   -21.1569359
   -40.6577738   -21.1603976
   -40.6589665   -21.1638473
   -40.6590438   -21.1640556
   -40.6660129   -21.1805389
   -40.6744275   -21.1963333
   -40.6842203   -21.2113122
   -40.6843501   -21.2114926
   -40.6897392   -21.2186386
   -40.7580037   -21.3050638
   -40.7709895   -21.3260071
   -40.7778414   -21.3442192
   -40.7812234   -21.3526255
   -40.7813168   -21.3528433
   -40.7901764   -21.3709283
   -40.8008099   -21.3880306
   -40.8131092   -21.4039769
   -40.8269499   -21.4186054
   -40.8421916   -21.4317680
   -40.8586796   -21.4433310
   -40.8762469   -21.4531773
   -40.8947154   -21.4612070
   -40.9138977   -21.4673387
   -40.9335994   -21.4715103
   -40.9536207   -21.4736794
   -40.9737587   -21.4738241
   -40.9938092   -21.4719429
   -41.0135688   -21.4680549
   -41.0328372   -21.4621994
   -41.0386696   -21.4597626
   -41.0181640   -21.4417240
   -40.9832520   -21.3913070
   -40.9635030   -21.3645030
   -40.9651990   -21.3356260
   -40.9612930   -21.3202450
   -40.9592180   -21.3033990
   -40.9600720   -21.2873670
   -40.9651990   -21.2748350
   -40.9651190   -21.2740290
   -40.9790690   -21.2645420
   -40.9873890   -21.2503300
   -40.9909030   -21.2466610
   -40.9947270   -21.2440260
   -41.0410550   -21.2295570
   -41.0484970   -21.2256290
   -41.0613900   -21.2167920
   -41.0679270   -21.2141050
   -41.1027310   -21.2147250
   -41.1748200   -21.2296080
   -41.2225950   -21.2299180
   -41.2468050   -21.2339490
   -41.2548670   -21.2338970
   -41.2646850   -21.2319340
   -41.2977580   -21.2186530
   -41.3009620   -21.2163270
   -41.3038300   -21.2124520
   -41.3059740   -21.2081110
   -41.3112970   -21.2036150
   -41.3203150   -21.2004630
   -41.3619400   -21.1911090
   -41.3894580   -21.1875440
   -41.3993540   -21.1889390
   -41.4055550   -21.1907480
   -41.4204120   -21.2022200
   -41.4282930   -21.2034600
   -41.4327880   -21.2028400
   -41.4382140   -21.2012900
   -41.4550610   -21.1946230
   -41.4613660   -21.1913680
   -41.4833020   -21.1768470
   -41.4987280   -21.1705420
   -41.5020350   -21.1703350
   -41.5061690   -21.1706450
   -41.5097090   -21.1731260
   -41.5142050   -21.1751410
   -41.5199920   -21.1757100
   -41.5376400   -21.1730740
   -41.5442290   -21.1713170
   -41.5516440   -21.1686300
   -41.5583110   -21.1678550
   -41.5663460   -21.1659950
   -41.5757770   -21.1617050
   -41.5922100   -21.1513180
   -41.6097290   -21.1428440
   -41.6203740   -21.1388130
   -41.6455140   -21.1324050
   -41.6519740   -21.1289940
   -41.6730580   -21.1129750
   -41.6758230   -21.1114240
   -41.6852800   -21.1078590
   -41.6910670   -21.1067730
   -41.6970880   -21.1070830
   -41.7023840   -21.1087370
   -41.7074490   -21.1107520
   -41.7114020   -21.1112180
   -41.7143470   -21.1086340
   -41.7130560   -21.1016570
   -41.7127460   -21.0966960
   -41.7150450   -21.0924590
   -41.7214790   -21.0890480
   -41.7254320   -21.0841910
   -41.7258970   -21.0747340
   -41.7250450   -21.0679130
   -41.7252000   -21.0601100
   -41.7286100   -21.0443480
   -41.7268790   -21.0393870
   -41.7237010   -21.0356670
   -41.7217630   -21.0301370
   -41.7211430   -21.0224370
   -41.7194630   -21.0165460
   -41.7186110   -21.0105000
   -41.7182490   -21.0004230
   -41.7144250   -20.9879180
   -41.7131850   -20.9822850
   -41.7128750   -20.9761350
   -41.7188430   -20.9575840
   -41.7271120   -20.9396520
   -41.7291270   -20.9295230
   -41.7288940   -20.9219780
   -41.7245020   -20.9122120
   -41.7236230   -20.9055970
   -41.7239330   -20.8890610
   -41.7221760   -20.8831180
   -41.7197740   -20.8780530
   -41.7189730   -20.8739710
   -41.7208330   -20.8699400
   -41.7300830   -20.8668910
   -41.7359740   -20.8631190
   -41.7404440   -20.8565040
   -41.7417100   -20.8500450
   -41.7395660   -20.8317510
   -41.7399010   -20.8264800
   -41.7417100   -20.8218300
   -41.7449140   -20.8181090
   -41.7489190   -20.8147500
   -41.7568260   -20.8113390
   -41.8109050   -20.7975420
   -41.8643900   -20.7768710
   -41.8729680   -20.7896350
   -41.8776190   -20.7934070
   -41.8852670   -20.7976970
   -41.8984960   -20.8006940
   -41.9076170   -20.8011070
   -41.9203040   -20.8045180
   -41.9271510   -20.8271520
   -41.9260660   -20.8390380
   -41.9287270   -20.8453940
   -41.9446950   -20.8713360
   -41.9616970   -20.9084910
   -41.9661150   -20.9147440
   -41.9753130   -20.9230120
   -41.9822380   -20.9268880
   -41.9887750   -20.9296780
   -41.9944340   -20.9312290
   -42.0004020   -20.9322100
   -42.0068360   -20.9319000
   -42.0121850   -20.9300400
   -42.0164220   -20.9268880
   -42.0198840   -20.9231670
   -42.0239150   -20.9205830
   -42.0294190   -20.9200660
   -42.0466010   -20.9253890
   -42.0575820   -20.9274040
   -42.0638610   -20.9275600
   -42.0700880   -20.9267330
   -42.0753070   -20.9248720
   -42.0845570   -20.9197560
   -42.0898540   -20.9194460
   -42.0961330   -20.9225470
   -42.1038330   -20.9317450
   -42.1144520   -20.9419770
   -42.1237540   -20.9471970
   -42.1337790   -20.9516410
   -42.1376550   -20.9563430
   -42.1400320   -20.9632680
   -42.1389470   -20.9773240
   -42.1365180   -20.9849720
   -42.1328490   -20.9905010
   -42.1285080   -20.9934470
   -42.1232890   -20.9956170
   -42.1172430   -20.9971680
   -42.1039880   -20.9984080
   -42.0971410   -20.9997000
   -42.0960300   -21.0002680
   -42.0953320   -21.0011980
   -42.0970890   -21.0109140
   -42.1032900   -21.0275020
   -42.1217390   -21.0658970
   -42.1316090   -21.0815550
   -42.1448640   -21.0972650
   -42.1504970   -21.1064630
   -42.1594110   -21.1258940
   -42.1645010   -21.1345750
   -42.1691260   -21.1411380
   -42.1759730   -21.1483730
   -42.1788410   -21.1547290
   -42.1811150   -21.1631010
   -42.1814250   -21.1788620
   -42.1802360   -21.1876990
   -42.1784540   -21.1949850
   -42.1786860   -21.2034600
   -42.1815280   -21.2145700
   -42.2070820   -21.2633010
   -42.2134640   -21.2846440
   -42.2207510   -21.3371470
   -42.2768710   -21.3744060
   -42.2833570   -21.3824670
   -42.2953970   -21.4061350
   -42.2970510   -21.4117680
   -42.2974900   -21.4206040
   -42.2952680   -21.4555380
   -42.2971800   -21.4730560
   -42.2991180   -21.4825640
   -42.3009780   -21.4865950
   -42.3468930   -21.5556870
   -42.3665820   -21.5937200
   -42.3707930   -21.6226590
   -42.3707930   -21.6290150
   -42.3692430   -21.6337700
   -42.3621120   -21.6354750
   -42.3564010   -21.6349070
   -42.3493480   -21.6352170
   -42.3421640   -21.6373870
   -42.3311570   -21.6424510
   -42.3241810   -21.6429680
   -42.3177730   -21.6421930
   -42.3125020   -21.6403330
   -42.3068440   -21.6389370
   -42.3005910   -21.6385760
   -42.2943900   -21.6393510
   -42.2889380   -21.6412110
   -42.2836670   -21.6435360
   -42.2790420   -21.6466370
   -42.2745200   -21.6506160
   -42.2701280   -21.6563520
   -42.2648310   -21.6671010
   -42.2631000   -21.6723200
   -42.2648310   -21.6873580
   -42.2802560   -21.7136100
   -42.2927100   -21.7184160
   -42.3118300   -21.7354170
   -42.3224760   -21.7408950
   -42.3339740   -21.7410500
   -42.3527320   -21.7338670
   -42.3634290   -21.7334530
   -42.3736350   -21.7399130
   -42.3871750   -21.7520050
   -42.4034270   -21.7636330
   -42.4581260   -21.7764480
   -42.5552260   -21.8296750
   -42.6796630   -21.8710680
   -42.7536900   -21.9101350
   -42.8870920   -21.9598480
   -42.9037060   -21.9700800
   -42.9353840   -21.9975720
   -42.9515330   -22.0059430
   -43.0145270   -22.0146250
   -43.0374970   -22.0254770
   -43.0451450   -22.0381890
   -43.0486330   -22.0537440
   -43.0592270   -22.0729680
   -43.0669780   -22.0752410
   -43.0911370   -22.0688340
   -43.1032810   -22.0692470
   -43.1140040   -22.0763270
   -43.1265610   -22.0930700
   -43.1380590   -22.0965320
   -43.1399970   -22.0932760
   -43.1424770   -22.0885740
   -43.1456810   -22.0804090
   -43.1465860   -22.0769470
   -43.1468440   -22.0722960
   -43.1453450   -22.0674380
   -43.1425030   -22.0630460
   -43.1387570   -22.0592220
   -43.1354750   -22.0551390
   -43.1327360   -22.0504880
   -43.1312890   -22.0449070
   -43.1303330   -22.0386030
   -43.1305660   -22.0328670
   -43.1313410   -22.0277510
   -43.1340540   -22.0244950
   -43.1382920   -22.0226860
   -43.1666880   -22.0209810
   -43.1890900   -22.0239270
   -43.2029390   -22.0243920
   -43.2197080   -22.0228410
   -43.2279760   -22.0203610
   -43.2344100   -22.0173640
   -43.2427560   -22.0112140
   -43.2474580   -22.0084750
   -43.2529100   -22.0066150
   -43.2624960   -22.0062530
   -43.2963180   -22.0081140
   -43.3070670   -22.0076490
   -43.3137070   -22.0064080
   -43.3185130   -22.0041350
   -43.3223110   -22.0028940
   -43.3277120   -22.0018090
   -43.3430590   -22.0014990
   -43.3685880   -22.0095090
   -43.4474720   -22.0483180
   -43.4623290   -22.0561210
   -43.4698480   -22.0579300
   -43.4854800   -22.0583950
   -43.5052720   -22.0568960
   -43.5111630   -22.0570510
   -43.5291200   -22.0611850
   -43.5446750   -22.0665080
   -43.5565860   -22.0668180
   -43.5645700   -22.0655780
   -43.5697380   -22.0627360
   -43.5737690   -22.0594800
   -43.5832520   -22.0478530
   -43.5877730   -22.0461990
   -43.5937940   -22.0478530
   -43.6013640   -22.0535890
   -43.6074100   -22.0573100
   -43.6132760   -22.0597900
   -43.6217250   -22.0578260
   -43.6341010   -22.0533310
   -43.6406900   -22.0532790
   -43.6477440   -22.0552940
   -43.6556240   -22.0613920
   -43.6649780   -22.0703320
   -43.6696550   -22.0717270
   -43.6760620   -22.0697120
   -43.6850020   -22.0630460
   -43.6917720   -22.0618570
   -43.7017200   -22.0638210
   -43.7191610   -22.0710560
   -43.7309170   -22.0744660
   -43.7448440   -22.0757580
   -43.7525690   -22.0743110
   -43.7584350   -22.0716760
   -43.7617940   -22.0678520
   -43.7646360   -22.0635630
   -43.7679690   -22.0597900
   -43.7724650   -22.0570000
   -43.7783820   -22.0558110
   -43.7847380   -22.0559140
   -43.8137540   -22.0641310
   -43.8678590   -22.0857830
   -43.8833110   -22.0959120
   -43.8943950   -22.1049550
   -43.9104930   -22.1110530
   -43.9455030   -22.1190630
   -44.0644370   -22.1645900
   -44.0711030   -22.1663990
   -44.0783630   -22.1670190
   -44.0860120   -22.1685690
   -44.0935300   -22.1721860
   -44.1154670   -22.1958030
   -44.1244330   -22.2033990
   -44.2172700   -22.2498040
   -44.2403170   -22.2581760
   -44.2575770   -22.2566770
   -44.2624350   -22.2538870
   -44.2697730   -22.2474790
   -44.2742690   -22.2445330
   -44.2795400   -22.2422600
   -44.2854830   -22.2408130
   -44.2920970   -22.2403990
   -44.3356350   -22.2472210
   -44.3499750   -22.2470140
   -44.4020900   -22.2543000
   -44.4139500   -22.2535770
   -44.4225800   -22.2517160
   -44.4309520   -22.2517160
   -44.4433280   -22.2552300
   -44.5201970   -22.2977600
   -44.5243830   -22.3007570
   -44.5327030   -22.3044780
   -44.5446920   -22.3081990
   -44.5701420   -22.3130050
   -44.6006310   -22.3140900
   -44.6088740   -22.3162090
   -44.6172190   -22.3214280
   -44.6296480   -22.3333650
   -44.6448400   -22.3568780
   -44.6482250   -22.3609600
   -44.6519980   -22.3645260
   -44.6630050   -22.3682470
   -44.6864400   -22.3635440
   -44.7072140   -22.3586350
   -44.7215020   -22.3568780
   -44.7315020   -22.3584280
   -44.7749620   -22.3725360
   -44.7928930   -22.3811660
   -44.8313410   -22.4060740
   -44.8964270   -22.4415240
   -44.9228340   -22.4506710
   -44.9300430   -22.4508260
   -44.9449510   -22.4490170
   -44.9708670   -22.4485520
   -44.9822360   -22.4512910
   -44.9932170   -22.4554770
   -45.0092630   -22.4633830
   -45.0189780   -22.4665870
   -45.0281250   -22.4672590
   -45.0464440   -22.4637960
   -45.0574770   -22.4658640
   -45.1145530   -22.4904100
   -45.1266720   -22.4983680
   -45.1802340   -22.5262220
   -45.1884250   -22.5325780
   -45.2040830   -22.5479770
   -45.2200770   -22.5601210
   -45.2282670   -22.5628600
   -45.2364320   -22.5633250
   -45.2457860   -22.5622920
   -45.2502560   -22.5648760
   -45.2514180   -22.5691130
   -45.2496360   -22.5805340
   -45.2505660   -22.5870450
   -45.2558880   -22.5960360
   -45.2633560   -22.6012560
   -45.2701250   -22.6043050
   -45.3467360   -22.6258540
   -45.3879990   -22.6475060
   -45.3990580   -22.6509690
   -45.4070680   -22.6509170
   -45.4110210   -22.6476610
   -45.4131910   -22.6428550
   -45.4139670   -22.6368090
   -45.4140440   -22.6238380
   -45.4150520   -22.6181540
   -45.4171710   -22.6132960
   -45.4205040   -22.6094720
   -45.4287720   -22.6029610
   -45.4337850   -22.5999120
   -45.4395210   -22.5972770
   -45.4474010   -22.5957260
   -45.4529820   -22.5970700
   -45.4574780   -22.5998610
   -45.4721800   -22.6216680
   -45.4782260   -22.6276110
   -45.4875800   -22.6342250
   -45.5078110   -22.6451810
   -45.5193090   -22.6492630
   -45.5292570   -22.6509170
   -45.5628460   -22.6456460
   -45.5677300   -22.6431650
   -45.5704430   -22.6391860
   -45.5711410   -22.6340190
   -45.5711410   -22.6281790
   -45.5725870   -22.6226500
   -45.5762050   -22.6186190
   -45.5831290   -22.6167590
   -45.5886850   -22.6179470
   -45.5934910   -22.6204790
   -45.6123010   -22.6340190
   -45.6371830   -22.6468860
   -45.6472600   -22.6501420
   -45.6562520   -22.6516920
   -45.6631760   -22.6512270
   -45.6695320   -22.6499870
   -45.6748810   -22.6477130
   -45.6789630   -22.6444060
   -45.6812890   -22.6400650
   -45.6817020   -22.6346390
   -45.6805140   -22.6293160
   -45.6778010   -22.6240450
   -45.6742610   -22.6191880
   -45.6639510   -22.6103510
   -45.6567680   -22.6021860
   -45.6508260   -22.5928840
   -45.6485000   -22.5879230
   -45.6549080   -22.5837370
   -45.6692480   -22.5811540
   -45.7097110   -22.5847190
   -45.7260920   -22.5886980
   -45.7350580   -22.5944350
   -45.7343610   -22.5996020
   -45.7324230   -22.6046150
   -45.7293480   -22.6086460
   -45.7150340   -22.6232180
   -45.7123720   -22.6275590
   -45.7103310   -22.6325200
   -45.7090130   -22.6381010
   -45.7116230   -22.6448710
   -45.7179530   -22.6524670
   -45.8040200   -22.7001130
   -45.8072500   -22.7037300
   -45.8085160   -22.7082260
   -45.8082060   -22.7134450
   -45.8059580   -22.7178890
   -45.8025480   -22.7216620
   -45.7979480   -22.7245560
   -45.7921860   -22.7261580
   -45.7855980   -22.7265710
   -45.7599920   -22.7239360
   -45.7475120   -22.7236770
   -45.7418790   -22.7245560
   -45.7373320   -22.7261580
   -45.7347480   -22.7276560
   -45.7317510   -22.7304990
   -45.7293220   -22.7343230
   -45.7272550   -22.7391290
   -45.7260920   -22.7447100
   -45.7253950   -22.7505490
   -45.7263250   -22.7633130
   -45.7286500   -22.7771620
   -45.7312600   -22.7841390
   -45.7365310   -22.7923550
   -45.7413370   -22.7956110
   -45.7447730   -22.7965930
   -45.7492950   -22.7950420
   -45.7591910   -22.7897200
   -45.7659610   -22.7880660
   -45.7705600   -22.7900810
   -45.7735830   -22.7942160
   -45.7747460   -22.7997970
   -45.7743060   -22.8054810
   -45.7726790   -22.8106490
   -45.7702500   -22.8153000
   -45.7685960   -22.8204160
   -45.7682860   -22.8261000
   -45.7700430   -22.8325600
   -45.7735830   -22.8386570
   -45.7804040   -22.8460470
   -45.7865800   -22.8493030
   -45.7929620   -22.8502330
   -45.7982840   -22.8483720
   -45.8020050   -22.8449620
   -45.8042530   -22.8402080
   -45.8054930   -22.8347300
   -45.8084130   -22.8298210
   -45.8132960   -22.8266680
   -45.8231150   -22.8268230
   -45.8292130   -22.8291490
   -45.8342770   -22.8324040
   -45.8375070   -22.8364350
   -45.8442500   -22.8465640
   -45.8491340   -22.8525580
   -45.8576860   -22.8604130
   -45.8640680   -22.8615500
   -45.8689000   -22.8600000
   -45.8764190   -22.8530230
   -45.8850750   -22.8469770
   -45.8941440   -22.8420680
   -45.8981490   -22.8389670
   -45.9010430   -22.8348850
   -45.9054610   -22.8247560
   -45.9085360   -22.8204160
   -45.9147890   -22.8182450
   -45.9193620   -22.8197440
   -45.9232640   -22.8229990
   -45.9301110   -22.8327150
   -45.9353040   -22.8374170
   -45.9406530   -22.8381920
   -45.9532620   -22.8347300
   -45.9631060   -22.8338000
   -45.9689460   -22.8359700
   -45.9730020   -22.8398460
   -45.9785060   -22.8489930
   -45.9831050   -22.8544190
   -45.9898750   -22.8598450
   -46.0023800   -22.8683200
   -46.0104420   -22.8724020
   -46.0187880   -22.8752960
   -46.0432560   -22.8782410
   -46.1223730   -22.8929180
   -46.1446970   -22.8906440
   -46.1472290   -22.8863030
   -46.1483920   -22.8814970
   -46.1472810   -22.8765360
   -46.1449300   -22.8719370
   -46.1419070   -22.8676990
   -46.1394260   -22.8631000
   -46.1391680   -22.8578290
   -46.1436640   -22.8510080
   -46.1495550   -22.8486830
   -46.1561950   -22.8480620
   -46.1870200   -22.8531780
   -46.1924980   -22.8549870
   -46.1976140   -22.8571570
   -46.2017740   -22.8601550
   -46.2053650   -22.8638750
   -46.2103780   -22.8680100
   -46.2168630   -22.8717820
   -46.2286970   -22.8750380
   -46.2362160   -22.8740560
   -46.2430120   -22.8717300
   -46.2497550   -22.8684750
   -46.2555430   -22.8685260
   -46.2601940   -22.8706970
   -46.2650000   -22.8745720
   -46.2708140   -22.8783960
   -46.2805550   -22.8817040
   -46.2872730   -22.8813940
   -46.2986410   -22.8740560
   -46.3087700   -22.8696120
   -46.3282000   -22.8696120
   -46.3384060   -22.8678550
   -46.3454600   -22.8658390
   -46.3487930   -22.8629450
   -46.3532120   -22.8575190
   -46.3598780   -22.8441870
   -46.3627200   -22.8333350
   -46.3647100   -22.8217590
   -46.3654850   -22.8094080
   -46.3638830   -22.7901850
   -46.3625390   -22.7840350
   -46.3607050   -22.7785580
   -46.3530310   -22.7641920
   -46.3566220   -22.7570600
   -46.3666480   -22.7477580
   -46.4256100   -22.7162360
   -46.4435420   -22.7032650
   -46.4703360   -22.6828010
   -46.4734110   -22.6775300
   -46.4759690   -22.6706060
   -46.4742380   -22.6655930
   -46.4711370   -22.6614590
   -46.4672620   -22.6580480
   -46.4579600   -22.6529840
   -46.4083760   -22.6360860
   -46.4025110   -22.6328300
   -46.3955090   -22.6266810
   -46.3940620   -22.6212030
   -46.3950700   -22.6161390
   -46.4094610   -22.5950550
   -46.4126400   -22.5893190
   -46.4152230   -22.5820840
   -46.4170840   -22.5695260
   -46.4157140   -22.5622400
   -46.4129500   -22.5566590
   -46.4089190   -22.5534030
   -46.3996170   -22.5481840
   -46.3947340   -22.5441530
   -46.3903930   -22.5393990
   -46.3857160   -22.5315960
   -46.3880420   -22.5292710
   -46.3927960   -22.5284950
   -46.4068780   -22.5284950
   -46.4209590   -22.5269970
   -46.4446790   -22.5207960
   -46.4532570   -22.5170750
   -46.4955030   -22.4915470
   -46.5148560   -22.4836920
   -46.5353970   -22.4796090
   -46.5413660   -22.4759400
   -46.5445440   -22.4709800
   -46.5453190   -22.4652430
   -46.5453700   -22.4511360
   -46.5476440   -22.4418860
   -46.5519850   -22.4373380
   -46.5577470   -22.4343930
   -46.5914140   -22.4289150
   -46.6413590   -22.4108800
   -46.6527280   -22.4041620
   -46.6590590   -22.3975990
   -46.6596790   -22.3916050
   -46.6577930   -22.3726910
   -46.6591880   -22.3657660
   -46.6629340   -22.3584280
   -46.6979970   -22.3225130
   -46.7012780   -22.3179660
   -46.7026990   -22.3153300
   -46.7051800   -22.3065970
   -46.7003740   -22.2821540
   -46.6643810   -22.2051560
   -46.6455190   -22.1788530
   -46.6324450   -22.1668640
   -46.6066070   -22.1469680
   -46.6016980   -22.1388550
   -46.6006900   -22.1325510
   -46.6253400   -22.1001490
   -46.6291640   -22.0967900
   -46.6338410   -22.0940520
   -46.6396540   -22.0927600
   -46.6731920   -22.0906410
   -46.6794710   -22.0894010
   -46.6854390   -22.0864550
   -46.6915630   -22.0819080
   -46.6980480   -22.0726580
   -46.6987200   -22.0663530
   -46.6961110   -22.0621160
   -46.6909950   -22.0599970
   -46.6717450   -22.0573100
   -46.6658020   -22.0552940
   -46.6607640   -22.0512640
   -46.6608930   -22.0469740
   -46.6639940   -22.0425820
   -46.6683860   -22.0381380
   -46.6716420   -22.0300760
   -46.6707120   -22.0247020
   -46.6682310   -22.0198440
   -46.6610740   -22.0124030
   -46.6571210   -22.0090960
   -46.6523920   -22.0069250
   -46.6468110   -22.0060980
   -46.6408680   -22.0069250
   -46.6339180   -22.0066150
   -46.6267090   -22.0042900
   -46.6188800   -21.9960730
   -46.6173300   -21.9900270
   -46.6182860   -21.9846010
   -46.6357530   -21.9594860
   -46.6605830   -21.9034690
   -46.6629340   -21.8928240
   -46.6609190   -21.8872940
   -46.6504540   -21.8793360
   -46.6454420   -21.8710160
   -46.6447960   -21.8648150
   -46.6465010   -21.8595960
   -46.6496020   -21.8559780
   -46.6531930   -21.8532390
   -46.6562940   -21.8516890
   -46.6605310   -21.8479170
   -46.6649240   -21.8418190
   -46.6693680   -21.8281250
   -46.6697810   -21.8196500
   -46.6685410   -21.8125180
   -46.6659060   -21.8078680
   -46.6626240   -21.8038370
   -46.6546920   -21.7973770
   -46.6373290   -21.7859050
   -46.6336600   -21.7822360
   -46.6291640   -21.7705570
   -46.6107670   -21.6911820
   -46.6056510   -21.6805370
   -46.6002770   -21.6794000
   -46.5758600   -21.6837920
   -46.5699430   -21.6834820
   -46.5645680   -21.6801750
   -46.5603820   -21.6739220
   -46.5415720   -21.6271550
   -46.5390400   -21.6224520
   -46.5359400   -21.6181630
   -46.5324510   -21.6143390
   -46.5234340   -21.6073110
   -46.5187570   -21.6026600
   -46.5176200   -21.5989400
   -46.5217280   -21.5928940
   -46.5222710   -21.5657120
   -46.5184730   -21.5528440
   -46.5129950   -21.5437490
   -46.5097910   -21.5397190
   -46.5062260   -21.5363600
   -46.4962780   -21.5290210
   -46.4924020   -21.5248360
   -46.4930220   -21.5210120
   -46.4955800   -21.5180140
   -46.4992750   -21.5121750
   -46.5018850   -21.5032350
   -46.5076210   -21.4589480
   -46.5095070   -21.4539360
   -46.5125820   -21.4493360
   -46.5166640   -21.4448920
   -46.5225040   -21.4400860
   -46.5280330   -21.4368310
   -46.5335620   -21.4342990
   -46.5453700   -21.4307330
   -46.5585220   -21.4285630
   -46.5654210   -21.4281490
   -46.5717000   -21.4284590
   -46.5768160   -21.4295440
   -46.5841020   -21.4321280
   -46.5893470   -21.4332650
   -46.5953160   -21.4332130
   -46.6033260   -21.4291830
   -46.6060640   -21.4230850
   -46.6083640   -21.4152820
   -46.6116970   -21.4105270
   -46.6172520   -21.4080470
   -46.6314120   -21.4038610
   -46.6385430   -21.3983830
   -46.6411790   -21.3913040
   -46.6433230   -21.3735270
   -46.6471210   -21.3699100
   -46.6514360   -21.3698060
   -46.6560870   -21.3720800
   -46.6642520   -21.3783330
   -46.6679730   -21.3818470
   -46.6778430   -21.3934740
   -46.6821840   -21.3962130
   -46.6873770   -21.3971430
   -46.6927000   -21.3959030
   -46.6973770   -21.3934740
   -46.7149210   -21.3815370
   -46.7418960   -21.3676880
   -46.7628770   -21.3607110
   -46.7681730   -21.3597810
   -46.7742710   -21.3597810
   -46.7868540   -21.3610210
   -46.8138550   -21.3597300
   -46.8196430   -21.3606600
   -46.8236220   -21.3638120
   -46.8267230   -21.3679980
   -46.8322260   -21.3771960
   -46.8354560   -21.3811240
   -46.8391770   -21.3846380
   -46.8439570   -21.3868600
   -46.8496670   -21.3878930
   -46.8618630   -21.3879450
   -46.8668750   -21.3897540
   -46.8711130   -21.3924410
   -46.8787870   -21.3992100
   -46.8829730   -21.4021040
   -46.8880890   -21.4041710
   -46.8935400   -21.4058250
   -46.9758610   -21.4114580
   -46.9901750   -21.4091320
   -46.9969450   -21.4054110
   -47.0005620   -21.4006060
   -47.0006660   -21.3953860
   -46.9998910   -21.3914590
   -46.9915190   -21.3672230
   -46.9911310   -21.3610210
   -46.9916220   -21.3551300
   -46.9929660   -21.3496530
   -46.9947490   -21.3446920
   -47.0135590   -21.3142030
   -47.0174350   -21.3043320
   -47.0234810   -21.2834550
   -47.0280280   -21.2738430
   -47.0454170   -21.2311590
   -47.0517990   -21.2034600
   -47.0554940   -21.1968450
   -47.0611270   -21.1933830
   -47.0688010   -21.1900240
   -47.0776380   -21.1842360
   -47.1249220   -21.1307510
   -47.1298570   -21.1226900
   -47.1321820   -21.1150930
   -47.1313040   -21.0870850
   -47.1325700   -21.0787650
   -47.1517420   -21.0165460
   -47.1530080   -21.0045570
   -47.1527750   -21.0003200
   -47.1526720   -20.9998030
   -47.1512250   -20.9960820
   -47.1465480   -20.9869360
   -47.1451010   -20.9804240
   -47.1474780   -20.9763940
   -47.1580720   -20.9675050
   -47.1655910   -20.9591340
   -47.1778120   -20.9408920
   -47.1850990   -20.9328300
   -47.1926180   -20.9289550
   -47.1987410   -20.9285930
   -47.2059760   -20.9270430
   -47.2125390   -20.9230120
   -47.2209360   -20.9144340
   -47.2239600   -20.9076120
   -47.2248640   -20.9006360
   -47.2195410   -20.8801720
   -47.2104720   -20.8077740
   -47.2027210   -20.7879810
   -47.1890780   -20.7800750
   -47.1835490   -20.7750110
   -47.1775800   -20.7668970
   -47.1679420   -20.7505680
   -47.1631360   -20.7384240
   -47.1607080   -20.7274170
   -47.1584340   -20.7046790
   -47.1545320   -20.6988400
   -47.1486670   -20.6959970
   -47.1362900   -20.6943440
   -47.1300630   -20.6908300
   -47.1238880   -20.6851970
   -47.1148710   -20.6739320
   -47.1110720   -20.6652500
   -47.1090310   -20.6562580
   -47.1089020   -20.6407550
   -47.1101160   -20.6321770
   -47.1349470   -20.5490300
   -47.1394690   -20.5396250
   -47.1422070   -20.5354390
   -47.1453600   -20.5315110
   -47.1489770   -20.5279970
   -47.1533700   -20.5249480
   -47.2510380   -20.4786460
   -47.2594610   -20.4725490
   -47.2869530   -20.4456770
   -47.2920950   -20.4375120
   -47.2937230   -20.4307940
   -47.2932580   -20.4243340
   -47.2890720   -20.4140510
   -47.2856610   -20.4026300
   -47.2809840   -20.3777220
   -47.2781940   -20.3175190
   -47.2754030   -20.2979340
   -47.2736210   -20.2923530
   -47.2709850   -20.2876500
   -47.2678840   -20.2836710
   -47.2518130   -20.2709590
   -47.2482470   -20.2672900
   -47.2446040   -20.2612440
   -47.2417360   -20.2525100
   -47.2389460   -20.2364910
   -47.2386360   -20.2278090
   -47.2389460   -20.2226410
   -47.2346310   -20.2059500
   -47.2488680   -20.1854340
   -47.2550170   -20.1662110
   -47.2946530   -20.1355150
   -47.3041100   -20.1202700
   -47.3761210   -20.0755700
   -47.3901510   -20.0747950
   -47.3987290   -20.0724700
   -47.4139740   -20.0619280
   -47.4386490   -20.0360380
   -47.4386750   -20.0315940
   -47.4357300   -20.0277180
   -47.4344630   -20.0209480
   -47.4337920   -20.0121120
   -47.4314660   -20.0046700
   -47.4306650   -19.9967120
   -47.4344630   -19.9862220
   -47.4401740   -19.9802270
   -47.4589320   -19.9674630
   -47.4685960   -19.9588850
   -47.4872250   -19.9698400
   -47.5089030   -19.9784700
   -47.5317960   -19.9842060
   -47.5539390   -19.9862220
   -47.5791320   -19.9918030
   -47.5902160   -20.0050840
   -47.5977090   -20.0208960
   -47.6119720   -20.0340220
   -47.6358210   -20.0385180
   -47.6525900   -20.0292160
   -47.6777820   -19.9964540
   -47.6977550   -19.9797620
   -47.7151960   -19.9751110
   -47.8416220   -19.9794000
   -47.8527580   -19.9825530
   -47.8610270   -19.9896320
   -47.8695530   -19.9998640
   -47.8770980   -20.0052390
   -47.8751080   -20.0170720
   -47.8664530   -20.0340220
   -47.8677450   -20.0516440
   -47.8724730   -20.0769650
   -47.8816970   -20.0998060
   -47.8965540   -20.1097280
   -47.9075870   -20.1115890
   -47.9171470   -20.1143790
   -47.9267850   -20.1140170
   -47.9381540   -20.1063180
   -47.9444320   -20.0957760
   -47.9456730   -20.0846650
   -47.9457240   -20.0732450
   -47.9483860   -20.0619280
   -47.9556460   -20.0495250
   -47.9646380   -20.0395000
   -47.9758260   -20.0321620
   -47.9893650   -20.0278210
   -47.9900630   -20.0746400
   -47.9949460   -20.0952070
   -48.0064180   -20.1134490
   -48.0115860   -20.1168600
   -48.0245820   -20.1202190
   -48.0309390   -20.1233710
   -48.0348660   -20.1269370
   -48.0422300   -20.1356700
   -48.0477080   -20.1407860
   -48.0597220   -20.1483820
   -48.0715560   -20.1509140
   -48.0834420   -20.1483820
   -48.1127940   -20.1311220
   -48.1523780   -20.1161880
   -48.1681140   -20.1029070
   -48.1802840   -20.0790840
   -48.1883970   -20.0544860
   -48.2000500   -20.0317490
   -48.2227360   -20.0135070
   -48.2433810   -20.0427040
   -48.2198940   -20.1136040
   -48.2426050   -20.1376850
   -48.2617510   -20.1373750
   -48.2922150   -20.1154640
   -48.3152110   -20.1097280
   -48.4008640   -20.1097280
   -48.4438080   -20.1159290
   -48.4662870   -20.1216660
   -48.4759760   -20.1270920
   -48.4881980   -20.1306570
   -48.5653510   -20.1233710
   -48.5854780   -20.1311220
   -48.6203340   -20.1530330
   -48.6367420   -20.1575290
   -48.6593500   -20.1556690
   -48.7155480   -20.1438860
   -48.7304830   -20.1437310
   -48.7701700   -20.1513280
   -48.8185910   -20.1513280
   -48.8438860   -20.1640400
   -48.8554880   -20.1877600
   -48.8632130   -20.2163370
   -48.8769340   -20.2431570
   -48.8885090   -20.2607780
   -48.8883020   -20.2710100
   -48.8832640   -20.2809840
   -48.8800340   -20.2974690
   -48.8800340   -20.3527110
   -48.8779930   -20.3659920
   -48.8690790   -20.3930700
   -48.8670120   -20.4073330
   -48.8715850   -20.4162210
   -48.9011440   -20.4387000
   -48.9164400   -20.4293990
   -48.9603130   -20.4118290
   -48.9694340   -20.4005120
   -48.9762560   -20.3213950
   -48.9709330   -20.2305480
   -48.9789430   -20.1847620
   -49.0029470   -20.1513280
   -49.0416520   -20.1434210
   -49.0682660   -20.1700350
   -49.0997620   -20.2394360
   -49.1211050   -20.2683750
   -49.1492680   -20.2952470
   -49.1818500   -20.3079070
   -49.2164480   -20.2940580
   -49.2278940   -20.2788140
   -49.2411230   -20.2450170
   -49.2674010   -20.2130810
   -49.2916370   -20.1646600
   -49.2983810   -20.1438860
   -49.3057960   -20.1000130
   -49.3065460   -20.0751050
   -49.2983030   -20.0495250
   -49.2969850   -20.0369680
   -49.2945050   -20.0258060
   -49.2878390   -20.0209480
   -49.2841440   -20.0188810
   -49.2499860   -20.0073060
   -49.2428290   -19.9893220
   -49.2530350   -19.9763000
   -49.2729820   -19.9683930
   -49.2949700   -19.9657060
   -49.3173200   -19.9673600
   -49.3847840   -19.9800200
   -49.4069270   -19.9663780
   -49.4986530   -19.9391440
   -49.5467380   -19.9298940
   -49.8822210   -19.9311350
   -50.0157530   -19.9125310
   -50.3384210   -19.8692780
   -50.3643100   -19.8585290
   -50.4017760   -19.8119690
   -50.4254700   -19.7919180
   -50.4566050   -19.7807560
   -50.4896000   -19.7823060
   -50.5248690   -19.7927970
   -50.5575030   -19.8079380
   -50.5777600   -19.8464890
   -50.6556360   -19.9153730
   -50.6733360   -19.9258640
   -50.6985790   -19.9368710
   -50.8713600   -19.9944380
   -50.8940200   -20.0077710
   -50.9522850   -20.0541760
   -50.9939620   -20.1016670
   -51.0047360   -20.0279760
   -51.0070620   -19.9046760
   -51.0276030   -19.7540910
   -51.0263110   -19.7246870
   -51.0205750   -19.6976090
   -50.9973210   -19.6675850
   -50.9912750   -19.6457770
   -50.9905770   -19.5914650
   -50.9885880   -19.5828350
   -50.9841950   -19.5759620
   -50.9766250   -19.5721380
   -50.9585640   -19.5718800
   -50.9500370   -19.5684690
   -50.9370920   -19.5493490
   -50.9434480   -19.5322440
   -50.9565220   -19.5153460
   -50.9637050   -19.4964840
   -50.9611730   -19.4735400
   -50.9605691   -19.4724845
   -50.9501656   -19.4582795
   -50.9380480   -19.4542130
   -50.9152850   -19.4586050
   -50.9057760   -19.4643930
   -50.8939160   -19.4772600
   -50.8816430   -19.4806710
   -50.8796020   -19.4828410
   -50.8765270   -19.4850120
   -50.8708950   -19.4859420
   -50.8649780   -19.4837720
   -50.8560380   -19.4744700
   -50.8504310   -19.4722990
   -50.8393200   -19.4630490
   -50.8514640   -19.4425860
   -50.8811520   -19.4108560
   -50.8799380   -19.3939060
   -50.8591380   -19.3598000
   -50.8538410   -19.3388190
   -50.8524646   -19.3248782
   -50.8241300   -19.2861900
   -50.7933773   -19.2481592
   -50.7794790   -19.2397040
   -50.7600230   -19.2243040
   -50.7514190   -19.2084910
   -50.7484539   -19.1926041
   -50.7365800   -19.1779200
   -50.7165878   -19.1620922
   -50.7162270   -19.1619310
   -50.6961770   -19.1501490
   -50.6875331   -19.1390895
   -50.6751300   -19.1292700
   -50.5917000   -19.1309000
   -50.5839740   -19.1230688
   -50.5617660   -19.1169210
   -50.5453590   -19.1091690
   -50.5338610   -19.0949580
   -50.5108390   -19.0557870
   -50.5012790   -19.0477260
   -50.4961110   -19.0453490
   -50.4930620   -19.0388890
   -50.4916150   -19.0294320
   -50.4896000   -19.0204410
   -50.4868090   -19.0145500
   -50.4870160   -19.0037490
   -50.4909180   -18.9853520
   -50.4961110   -18.9703150
   -50.5031910   -18.9559490
   -50.5044570   -18.9515040
   -50.5050000   -18.9468540
   -50.5050770   -18.9412720
   -50.5040690   -18.9363120
   -50.5020540   -18.9305750
   -50.4989530   -18.9273720
   -50.4768100   -18.9094910
   -50.4686288   -18.9010371
   -50.4578000   -18.8939400
   -50.4552452   -18.8872072
   -50.4512560   -18.8830850
   -50.3234860   -18.7145680
   -50.2977250   -18.7001500
   -50.2636710   -18.6890400
   -50.1120000   -18.6631500
   -50.0867310   -18.6548300
   -50.0579980   -18.6387590
   -50.0392920   -18.6256850
   -50.0170710   -18.6169000
   -49.9916200   -18.6137990
   -49.8984470   -18.6185010
   -49.8357380   -18.6275450
   -49.7978080   -18.6227910
   -49.5927810   -18.5432090
   -49.5710260   -18.5369040
   -49.5693885   -18.5361786
   -49.5651600   -18.5356100
   -49.5642708   -18.5339116
   -49.5549280   -18.5297730
   -49.5389340   -18.5181460
   -49.5258860   -18.5024360
   -49.5245940   -18.5003690
   -49.5234320   -18.4992840
   -49.5135360   -18.4960280
   -49.5034590   -18.4958730
   -49.4972320   -18.4965450
   -49.4914180   -18.4982500
   -49.4887830   -18.4996460
   -49.4867670   -18.5011960
   -49.4838990   -18.5039870
   -49.4805140   -18.5099810
   -49.4801481   -18.5110428
   -49.4793300   -18.5356100
   -49.4570200   -18.5740100
   -49.4353900   -18.5997200
   -49.3983100   -18.6342100
   -49.3942222   -18.6292103
   -49.3905460   -18.6315760
   -49.3768770   -18.6314210
   -49.3614520   -18.6244440
   -49.1966810   -18.4697770
   -49.1708430   -18.4330860
   -49.1559350   -18.4215110
   -49.1318790   -18.4071970
   -49.0180620   -18.3659590
   -48.9523290   -18.3263230
   -48.9150450   -18.3293720
   -48.8534720   -18.3465800
   -48.8180480   -18.3519540
   -48.6142360   -18.3407920
   -48.4200257   -18.3496639
   -48.4122800   -18.3512700
   -48.4078351   -18.3502207
   -48.3665000   -18.3521090
   -48.2972270   -18.3463730
   -48.2595040   -18.3490610
   -48.2162250   -18.3597580
   -48.1697420   -18.3798080
   -48.1444980   -18.3950010
   -48.1327410   -18.4036310
   -48.1286590   -18.4080230
   -48.1213720   -18.4106590
   -48.1105460   -18.4121570
   -48.1038080   -18.4121710
   -48.0851000   -18.4177300
   -48.0638100   -18.4060000
   -48.0530903   -18.4105265
   -48.0515830   -18.4127780
   -48.0492840   -18.4170150
   -48.0463120   -18.4205290
   -48.0407570   -18.4243530
   -48.0334190   -18.4279700
   -48.0193370   -18.4328800
   -48.0076580   -18.4354120
   -47.9917721   -18.4364188
   -47.9388400   -18.4587700
   -47.9305221   -18.4526370
   -47.9274820   -18.4530340
   -47.9151830   -18.4528270
   -47.8991120   -18.4490540
   -47.6502380   -18.3210520
   -47.6353300   -18.3093210
   -47.6202400   -18.2892710
   -47.6041690   -18.2544930
   -47.5943760   -18.2402300
   -47.5762890   -18.2239000
   -47.5520790   -18.2077770
   -47.4326810   -18.1658160
   -47.4262730   -18.1623020
   -47.4208470   -18.1500550
   -47.4178490   -18.1452490
   -47.4129660   -18.1426130
   -47.4054730   -18.1427680
   -47.3988840   -18.1417350
   -47.3938460   -18.1386340
   -47.3907450   -18.1318130
   -47.3859390   -18.1258700
   -47.3789110   -18.1204960
   -47.3642350   -18.1149150
   -47.3559410   -18.1107810
   -47.3496620   -18.1065430
   -47.3433320   -18.0921250
   -47.3365370   -18.0845810
   -47.3214210   -18.0744000
   -47.3081400   -18.0701630
   -47.3001560   -18.0642720
   -47.2951440   -18.0621530
   -47.2777030   -18.0599310
   -47.3006470   -18.0086160
   -47.3074940   -17.9883590
   -47.3061250   -17.9702720
   -47.3068230   -17.9634510
   -47.3092770   -17.9582830
   -47.3227390   -17.9453130
   -47.3255040   -17.9404030
   -47.3301800   -17.9237640
   -47.3323510   -17.9100180
   -47.3359170   -17.9004570
   -47.3434350   -17.8888820
   -47.3473370   -17.8805100
   -47.3513160   -17.8564810
   -47.3559410   -17.8430450
   -47.3558640   -17.8307980
   -47.3541320   -17.8235630
   -47.3481380   -17.8142610
   -47.3458900   -17.8093000
   -47.3447020   -17.8035640
   -47.3439520   -17.7914720
   -47.3427640   -17.7857870
   -47.3404900   -17.7809300
   -47.3316530   -17.7681660
   -47.3293790   -17.7632050
   -47.3265370   -17.7438780
   -47.3248320   -17.7384000
   -47.3225840   -17.7332840
   -47.3172610   -17.7241370
   -47.3051170   -17.7076010
   -47.2947300   -17.6892560
   -47.2911910   -17.6856900
   -47.2833360   -17.6794370
   -47.2744730   -17.6739080
   -47.2703130   -17.6704970
   -47.2678840   -17.6651230
   -47.2663600   -17.6592320
   -47.2644740   -17.6193890
   -47.2669540   -17.5951010
   -47.2713730   -17.5810450
   -47.2825860   -17.5563960
   -47.2882450   -17.5481280
   -47.2951180   -17.5423400
   -47.3052470   -17.5353630
   -47.3390430   -17.5172770
   -47.3486810   -17.5140210
   -47.3550880   -17.5132980
   -47.3678530   -17.5134530
   -47.3741050   -17.5127810
   -47.3795570   -17.5110760
   -47.3975920   -17.5002750
   -47.3986780   -17.4999130
   -47.4044390   -17.4987250
   -47.4096850   -17.4984660
   -47.4164540   -17.4996550
   -47.4311300   -17.5050290
   -47.4357300   -17.5075100
   -47.4397340   -17.5103520
   -47.4435330   -17.5137630
   -47.4536610   -17.5248730
   -47.4578210   -17.5278190
   -47.4628080   -17.5293170
   -47.4683630   -17.5293170
   -47.4734020   -17.5275090
   -47.4778980   -17.5248730
   -47.4875610   -17.5163980
   -47.5228040   -17.4772270
   -47.5266280   -17.4685980
   -47.5305040   -17.4549030
   -47.5301680   -17.4281870
   -47.5285660   -17.4160430
   -47.5232690   -17.4061720
   -47.5247160   -17.4006430
   -47.5255950   -17.3896360
   -47.5191090   -17.3789910
   -47.5122360   -17.3612660
   -47.5117460   -17.3521710
   -47.5000930   -17.3297950
   -47.4937620   -17.3269520
   -47.4885690   -17.3272620
   -47.4771740   -17.3370290
   -47.4728590   -17.3396130
   -47.4678210   -17.3405950
   -47.4581570   -17.3446260
   -47.4534550   -17.3458140
   -47.4488040   -17.3452460
   -47.4450830   -17.3430750
   -47.4412850   -17.3416290
   -47.4379000   -17.3397680
   -47.4376420   -17.3360990
   -47.4397090   -17.3304150
   -47.4407940   -17.3252990
   -47.4363240   -17.3188910
   -47.4314400   -17.3153770
   -47.4254460   -17.3122250
   -47.4204590   -17.3079350
   -47.4173590   -17.2982200
   -47.4162220   -17.2908820
   -47.4187020   -17.2817360
   -47.4212600   -17.2766200
   -47.4216990   -17.2715550
   -47.4166090   -17.2644760
   -47.4092450   -17.2509880
   -47.4056800   -17.2475770
   -47.4018040   -17.2451490
   -47.3967910   -17.2381720
   -47.3931740   -17.2368800
   -47.3888070   -17.2379660
   -47.3844670   -17.2396710
   -47.3798670   -17.2396710
   -47.3757330   -17.2361050
   -47.3672070   -17.2193620
   -47.3521430   -17.2089230
   -47.3478020   -17.2016370
   -47.3441590   -17.1969350
   -47.3431250   -17.1912500
   -47.3474150   -17.1810180
   -47.3464840   -17.1782280
   -47.3365370   -17.1771940
   -47.3339010   -17.1745070
   -47.3359170   -17.1675310
   -47.3367430   -17.1627760
   -47.3335910   -17.1577120
   -47.3234620   -17.1532160
   -47.3196380   -17.1503740
   -47.3164090   -17.1465500
   -47.3127400   -17.1431390
   -47.3084250   -17.1409170
   -47.3035410   -17.1406590
   -47.2990710   -17.1424680
   -47.2949110   -17.1449480
   -47.2905700   -17.1454650
   -47.2866430   -17.1436040
   -47.2827160   -17.1411240
   -47.2746280   -17.1349230
   -47.2719150   -17.1307370
   -47.2654040   -17.1098600
   -47.2625360   -17.1043300
   -47.2591510   -17.0999900
   -47.2428990   -17.0883110
   -47.2394370   -17.0846420
   -47.2302900   -17.0793190
   -47.2196700   -17.0768900
   -47.2141150   -17.0765800
   -47.2104720   -17.0757020
   -47.2091540   -17.0725490
   -47.2124360   -17.0653150
   -47.2282750   -17.0429900
   -47.2304710   -17.0386500
   -47.2320470   -17.0336890
   -47.2318920   -17.0276940
   -47.2289200   -17.0207180
   -47.2259490   -17.0158090
   -47.2231070   -17.0120360
   -47.2150190   -17.0046460
   -47.2109370   -16.9997890
   -47.2007310   -16.9901250
   -47.1961060   -16.9876450
   -47.1913000   -16.9860430
   -47.1854860   -16.9861980
   -47.1804740   -16.9880580
   -47.1757970   -16.9904350
   -47.1708360   -16.9916240
   -47.1654620   -16.9911590
   -47.1609660   -16.9890400
   -47.1570900   -16.9860950
   -47.1537570   -16.9822190
   -47.1512250   -16.9775160
   -47.1508370   -16.9668710
   -47.1528270   -16.9518330
   -47.1612240   -16.9198450
   -47.1715600   -16.8969010
   -47.1772960   -16.8886850
   -47.1809910   -16.8787110
   -47.1895690   -16.8423310
   -47.1926180   -16.8342180
   -47.1957700   -16.8277580
   -47.2078360   -16.8121520
   -47.2133660   -16.8005250
   -47.2304190   -16.7335000
   -47.2463870   -16.7020810
   -47.2520200   -16.6935540
   -47.2665150   -16.6618250
   -47.2731040   -16.6557270
   -47.2794340   -16.6521100
   -47.2844730   -16.6499910
   -47.2879090   -16.6465800
   -47.2952210   -16.6330930
   -47.2982960   -16.6293720
   -47.3021720   -16.6262720
   -47.3067190   -16.6233780
   -47.3233850   -16.6179520
   -47.3277770   -16.6152650
   -47.3312400   -16.6118540
   -47.3364590   -16.6030690
   -47.3395340   -16.5990380
   -47.3475180   -16.5930440
   -47.3582410   -16.5891160
   -47.3762240   -16.5846720
   -47.3961970   -16.5754740
   -47.4040520   -16.5690140
   -47.4366340   -16.5316000
   -47.4421370   -16.5233320
   -47.4522660   -16.5006460
   -47.4525240   -16.5002850
   -47.4528860   -16.4998190
   -47.4534030   -16.4994060
   -47.4530930   -16.4925850
   -47.4364790   -16.4170850
   -47.4332230   -16.4103680
   -47.3974370   -16.3799300
   -47.3910810   -16.3720750
   -47.3795570   -16.3484590
   -47.3766890   -16.3437050
   -47.3729690   -16.3393640
   -47.3696350   -16.3363150
   -47.3659150   -16.3316640
   -47.3488100   -16.3014340
   -47.3265370   -16.2476380
   -47.3242120   -16.2381820
   -47.3232820   -16.2284150
   -47.3376990   -16.1469210
   -47.3359940   -16.1369990
   -47.3316530   -16.1238730
   -47.3060220   -16.0726100
   -47.3024820   -16.0400540
   -47.2702100   -16.0271350
   -47.2650160   -16.0268250
   -47.2419430   -16.0320440
   -47.2357680   -16.0328710
   -47.2296700   -16.0327160
   -47.2241150   -16.0315790
   -47.2193090   -16.0294610
   -47.2152000   -16.0265150
   -47.2077070   -16.0200040
   -47.2011700   -16.0123560
   -47.1925140   -16.0000050
   -47.1885870   -15.9960260
   -47.1850470   -15.9933390
   -47.1715600   -15.9851220
   -47.1679160   -15.9817630
   -47.1649710   -15.9775770
   -47.1428530   -15.9353580
   -47.1370400   -15.9269860
   -47.1333190   -15.9236270
   -47.1292880   -15.9213020
   -47.1245080   -15.9209920
   -47.1208650   -15.9230070
   -47.1182810   -15.9262110
   -47.1166790   -15.9288470
   -47.1148190   -15.9308100
   -47.1111500   -15.9328260
   -47.1014610   -15.9369080
   -47.0957500   -15.9384070
   -47.0897040   -15.9390270
   -47.0838130   -15.9386130
   -47.0780770   -15.9376320
   -47.0627290   -15.9322050
   -47.0534010   -15.9278130
   -47.0447970   -15.9225420
   -47.0409730   -15.9192860
   -47.0366840   -15.9167540
   -47.0317750   -15.9147390
   -47.0261940   -15.9134990
   -47.0201990   -15.9126200
   -46.9730190   -15.9146360
   -46.9669730   -15.9138090
   -46.9615470   -15.9123100
   -46.9476970   -15.9054890
   -46.9425300   -15.9037830
   -46.9367420   -15.9026980
   -46.9178800   -15.9009410
   -46.9124280   -15.8994430
   -46.9024550   -15.8955670
   -46.8846520   -15.8858000
   -46.8795620   -15.8840950
   -46.8629480   -15.8812010
   -46.8400290   -15.8686950
   -46.8358180   -15.8643540
   -46.8328980   -15.8547430
   -46.8319160   -15.8438900
   -46.8381430   -15.8008960
   -46.8364380   -15.7778480
   -46.8369030   -15.7680290
   -46.8400290   -15.7570740
   -46.8504680   -15.7298410
   -46.8531040   -15.7198150
   -46.8678570   -15.5907280
   -46.8705700   -15.5829760
   -46.8745230   -15.5808060
   -46.8792520   -15.5788420
   -46.9028680   -15.5737260
   -46.9078810   -15.5715560
   -46.9198700   -15.5624610
   -46.9232540   -15.5589980
   -46.9261220   -15.5550190
   -46.9285250   -15.5505230
   -46.9304630   -15.5457170
   -46.9365870   -15.4317710
   -46.9357080   -15.4245360
   -46.9304630   -15.4138390
   -46.9261480   -15.4079480
   -46.9215750   -15.4034520
   -46.9019900   -15.3882080
   -46.8951680   -15.3811800
   -46.8891480   -15.3732730
   -46.8764610   -15.3510520
   -46.8665140   -15.3399940
   -46.8548090   -15.3237670
   -46.8538790   -15.3168430
   -46.8549380   -15.3078510
   -46.8610100   -15.2921930
   -46.8743680   -15.2674400
   -46.8809310   -15.2484230
   -46.8847300   -15.2422220
   -46.8890190   -15.2380360
   -46.8945220   -15.2369510
   -46.9061750   -15.2378810
   -46.9228150   -15.2414980
   -46.9286030   -15.2410330
   -46.9299210   -15.2286310
   -46.8951940   -15.0663150
   -46.8943160   -15.0587190
   -46.8909050   -15.0494690
   -46.8882950   -15.0449730
   -46.8854270   -15.0409420
   -46.8789160   -15.0337590
   -46.8715780   -15.0271960
   -46.8627930   -15.0219250
   -46.8437500   -15.0152070
   -46.8334670   -15.0129330
   -46.7929780   -15.0089030
   -46.7687680   -15.0094710
   -46.7453320   -15.0149490
   -46.7351260   -15.0188250
   -46.6367090   -15.0689510
   -46.6156500   -15.0766500
   -46.6098880   -15.0777360
   -46.6013360   -15.0762370
   -46.5915690   -15.0723610
   -46.5668160   -15.0565480
   -46.5477220   -15.0391850
   -46.5459390   -15.0337590
   -46.5462230   -15.0284360
   -46.5535610   -15.0090060
   -46.5574370   -14.9793440
   -46.5557830   -14.9543840
   -46.5563520   -14.9488030
   -46.5580830   -14.9441000
   -46.5609250   -14.9400700
   -46.5708210   -14.9292180
   -46.5763500   -14.9211040
   -46.5778750   -14.9161950
   -46.5777200   -14.9105110
   -46.5767380   -14.9049300
   -46.5749290   -14.8996590
   -46.5606930   -14.8788850
   -46.5582120   -14.8743890
   -46.5570230   -14.8693250
   -46.5572820   -14.8638990
   -46.5587800   -14.8588340
   -46.5607960   -14.8541830
   -46.5754720   -14.8344950
   -46.5778230   -14.8298960
   -46.5793740   -14.8246250
   -46.5821380   -14.8075200
   -46.5819830   -14.8012670
   -46.5810010   -14.7956340
   -46.5789860   -14.7905700
   -46.5686770   -14.7727930
   -46.5168190   -14.7133130
   -46.5109800   -14.7116080
   -46.5034350   -14.7121250
   -46.4892240   -14.7187910
   -46.4672620   -14.7330020
   -46.3870860   -14.7729480
   -46.3705230   -14.7846270
   -46.3523590   -14.8011120
   -46.3244800   -14.8354250
   -46.3217920   -14.8395590
   -46.3170640   -14.8484470
   -46.2989000   -14.9047750
   -46.2964970   -14.9093740
   -46.2882030   -14.9124740
   -46.2752320   -14.9143860
   -46.2459570   -14.9137660
   -46.2212300   -14.9154720
   -46.2163470   -14.9177450
   -46.2120060   -14.9203810
   -46.1964250   -14.9327830
   -46.1919810   -14.9354190
   -46.1823690   -14.9357290
   -46.1392450   -14.9266850
   -46.1253440   -14.9251350
   -46.1163530   -14.9252900
   -46.1012120   -14.9318010
   -46.0953200   -14.9324730
   -46.0877500   -14.9298380
   -46.0773630   -14.9225000
   -46.0683710   -14.9092190
   -46.0612660   -14.8935610
   -46.0517570   -14.8834320
   -46.0229990   -14.8688080
   -46.0217590   -14.8791950
   -46.0187880   -14.8888580
   -46.0078580   -14.9120610
   -46.0070310   -14.9179000
   -46.0063340   -14.9372790
   -46.0047830   -14.9424980
   -46.0024840   -14.9469940
   -45.9772660   -14.9837880
   -45.9755340   -14.9886460
   -45.9745530   -14.9935550
   -45.9747850   -14.9982060
   -45.9755340   -15.0009960
   -45.9776530   -15.0048200
   -45.9901070   -15.0195480
   -45.9955590   -15.0280750
   -46.0126120   -15.0677100
   -46.0198990   -15.1025400
   -46.0380890   -15.1473440
   -46.0581650   -15.1833110
   -46.0706450   -15.1987620
   -46.0732800   -15.2032060
   -46.0821430   -15.2221710
   -46.0835640   -15.2273910
   -46.0840290   -15.2330750
   -46.0826080   -15.2383980
   -46.0793270   -15.2430490
   -46.0733580   -15.2471830
   -46.0660460   -15.2463040
   -46.0574160   -15.2416530
   -46.0448580   -15.2269770
   -46.0379080   -15.2206210
   -46.0313970   -15.2159700
   -45.9810380   -15.1955580
   -45.9742940   -15.1919920
   -45.9691010   -15.1884270
   -45.9658450   -15.1846540
   -45.9545800   -15.1678080
   -45.9511170   -15.1642940
   -45.9451490   -15.1563870
   -45.9355630   -15.1379900
   -45.9295680   -15.1301870
   -45.9258990   -15.1269830
   -45.9173470   -15.1249680
   -45.9049190   -15.1247610
   -45.8503480   -15.1317380
   -45.8378170   -15.1353550
   -45.7645400   -15.1461040
   -45.7530160   -15.1453800
   -45.7470730   -15.1442430
   -45.7146460   -15.1246580
   -45.6791440   -15.0938070
   -45.6686280   -15.0799060
   -45.6630990   -15.0574790
   -45.6591450   -15.0474530
   -45.6557870   -15.0424920
   -45.6387330   -15.0304000
   -45.6250650   -15.0235790
   -45.6059190   -15.0065260
   -45.6027150   -15.0019260
   -45.6019140   -15.0005310
   -45.5976760   -14.9905060
   -45.5944210   -14.9854930
   -45.5832590   -14.9739690
   -45.5754810   -14.9639960
   -45.5653790   -14.9533510
   -45.5628210   -14.9488550
   -45.5611410   -14.9435840
   -45.5582730   -14.9387780
   -45.5533120   -14.9356770
   -45.5297220   -14.9341270
   -45.5235470   -14.9349540
   -45.5178620   -14.9361940
   -45.5124620   -14.9380030
   -45.5000080   -14.9437390
   -45.4965970   -14.9445140
   -45.4911970   -14.9445140
   -45.4618970   -14.9399150
   -45.4428540   -14.9324220
   -45.4061380   -14.9114410
   -45.3787490   -14.8891680
   -45.3625740   -14.8728900
   -45.3577940   -14.8694280
   -45.3516190   -14.8662240
   -45.3331960   -14.8619350
   -45.3261680   -14.8594540
   -45.3204580   -14.8558370
   -45.3109760   -14.8411610
   -45.3060400   -14.8354250
   -45.2988320   -14.8292750
   -45.2903570   -14.8201290
   -45.2877210   -14.8159430
   -45.2815200   -14.8018350
   -45.2777220   -14.7974940
   -45.2412640   -14.7661270
   -45.2380340   -14.7625090
   -45.2355020   -14.7579100
   -45.2312390   -14.7481430
   -45.2283450   -14.7440090
   -45.2243400   -14.7404440
   -45.2185260   -14.7368260
   -45.2099740   -14.7330020
   -45.1979330   -14.7309870
   -45.1766940   -14.7317100
   -45.1714230   -14.7306250
   -45.1560750   -14.7255090
   -45.1448100   -14.7236490
   -45.1389960   -14.7243210
   -45.1335960   -14.7255090
   -45.1276280   -14.7261290
   -45.1215040   -14.7250960
   -45.1020990   -14.7190500
   -44.8817250   -14.5983330
   -44.8592460   -14.5785930
   -44.8574370   -14.5731670
   -44.8571790   -14.5638140
   -44.8552670   -14.5594730
   -44.8400220   -14.5373550
   -44.8380330   -14.5272780
   -44.8382400   -14.5233510
   -44.8363020   -14.5190100
   -44.8307460   -14.5151340
   -44.8186020   -14.5109490
   -44.8065360   -14.5053160
   -44.7057670   -14.4431490
   -44.6890750   -14.4262510
   -44.6711950   -14.4131770
   -44.6671130   -14.4079060
   -44.6615840   -14.4027900
   -44.6540130   -14.3979320
   -44.6387170   -14.3923510
   -44.6138860   -14.3742640
   -44.5846890   -14.3585030
   -44.5757230   -14.3521990
   -44.5627780   -14.3454810
   -44.4674870   -14.3149920
   -44.4056820   -14.2827970
   -44.3721440   -14.2746320
   -44.3605680   -14.2732370
   -44.3522740   -14.2682760
   -44.3335670   -14.2525150
   -44.3252730   -14.2471920
   -44.3208030   -14.2456930
   -44.3144470   -14.2467270
   -44.2961800   -14.2522050
   -44.2891520   -14.2519980
   -44.2783770   -14.2491040
   -44.2726150   -14.2492070
   -44.2658710   -14.2504990
   -44.2495420   -14.2568040
   -44.2430300   -14.2576310
   -44.2379140   -14.2561840
   -44.2348140   -14.2523600
   -44.2327980   -14.2478120
   -44.2297750   -14.2442980
   -44.2257700   -14.2426450
   -44.2218950   -14.2402670
   -44.2179670   -14.2389240
   -44.2130060   -14.2403190
   -44.2047900   -14.2484320
   -44.1953850   -14.2555640
   -44.1776340   -14.2657960
   -44.1677640   -14.2695680
   -44.1597800   -14.2710670
   -44.1485660   -14.2692060
   -44.1427520   -14.2698260
   -44.1366540   -14.2718930
   -44.1315900   -14.2769580
   -44.1242000   -14.2783530
   -44.1192910   -14.2772160
   -44.1109710   -14.2711180
   -44.1054680   -14.2698260
   -44.0984400   -14.2698260
   -44.0902490   -14.2709120
   -44.0796290   -14.2741670
   -44.0706380   -14.2754070
   -44.0604830   -14.2778360
   -44.0446700   -14.2841920
   -44.0355240   -14.2866730
   -44.0283410   -14.2866730
   -44.0236900   -14.2845540
   -44.0109770   -14.2764930
   -44.0068170   -14.2743220
   -44.0021410   -14.2734440
   -43.9972060   -14.2745810
   -43.9897900   -14.2774230
   -43.9767930   -14.2851740
   -43.9542110   -14.3022790
   -43.9475700   -14.3044500
   -43.9240830   -14.3055350
   -43.9172880   -14.3050700
   -43.9058420   -14.3029510
   -43.8997180   -14.3024340
   -43.8934130   -14.3026410
   -43.8876000   -14.3038290
   -43.8809850   -14.3063100
   -43.8629240   -14.3156120
   -43.8553020   -14.3176270
   -43.8488940   -14.3176270
   -43.8434680   -14.3163870
   -43.8377060   -14.3158180
   -43.8304970   -14.3179890
   -43.8224360   -14.3225880
   -43.8097490   -14.3327680
   -43.7941170   -14.3410360
   -43.7916370   -14.3443950
   -43.8057190   -14.3659450
   -43.8237540   -14.3944180
   -43.8379900   -14.4256310
   -43.8481450   -14.4682640
   -43.8673170   -14.4997860
   -43.8717090   -14.5148240
   -43.8728980   -14.5277430
   -43.8827680   -14.5616950
   -43.8796930   -14.5737350
   -43.8770580   -14.5790580
   -43.8687640   -14.5925970
   -43.8665930   -14.5984880
   -43.8653790   -14.6039660
   -43.8640610   -14.6158000
   -43.8643710   -14.6218460
   -43.8656890   -14.6272720
   -43.8676790   -14.6322330
   -43.8692290   -14.6375040
   -43.8697710   -14.6431890
   -43.8691510   -14.6487700
   -43.8665160   -14.6596220
   -43.8638290   -14.6650480
   -43.8599790   -14.6705770
   -43.8487130   -14.6820490
   -43.8439330   -14.6855120
   -43.8350190   -14.6906280
   -43.8255110   -14.6935730
   -43.7375570   -14.7106780
   -43.7295730   -14.7143990
   -43.7177650   -14.7224600
   -43.7104010   -14.7341910
   -43.7063710   -14.7364130
   -43.4924300   -14.7885540
   -43.4479630   -14.7784770
   -43.4425370   -14.7749630
   -43.4397460   -14.7719660
   -43.4318650   -14.7597190
   -43.4288420   -14.7557400
   -43.4219690   -14.7487640
   -43.4099800   -14.7398240
   -43.4064150   -14.7364130
   -43.4034690   -14.7323300
   -43.4014020   -14.7273690
   -43.3989220   -14.7161040
   -43.3965960   -14.7114530
   -43.3937280   -14.7074220
   -43.3900070   -14.7041670
   -43.3858480   -14.7012210
   -43.2815390   -14.6529550
   -43.2481820   -14.6450490
   -43.2282860   -14.6372460
   -43.2225760   -14.6359540
   -43.2104060   -14.6343000
   -43.1774360   -14.6330080
   -43.1596080   -14.6349200
   -43.1328140   -14.6434990
   -43.1089140   -14.6537820
   -43.0644720   -14.6619990
   -43.0584520   -14.6624120
   -43.0466430   -14.6611720
   -43.0440349   -14.6613713
   -43.0247263   -14.6659124
   -42.9912460   -14.6790000
   -42.9829260   -14.6801890
   -42.9709696   -14.6785552
   -42.9510500   -14.6832400
   -42.9304240   -14.6955447
   -42.9236540   -14.7016860
   -42.9169360   -14.7089730
   -42.9122850   -14.7151740
   -42.9007870   -14.7381180
   -42.8978150   -14.7423040
   -42.8908910   -14.7494870
   -42.8127300   -14.8043670
   -42.7950310   -14.8216270
   -42.7489610   -14.8558370
   -42.7373600   -14.8678780
   -42.6885260   -14.8980570
   -42.6815240   -14.9039480
   -42.6724030   -14.9154720
   -42.6674160   -14.9200190
   -42.6486320   -14.9323180
   -42.6397430   -14.9364520
   -42.6307520   -14.9390880
   -42.6172900   -14.9385190
   -42.5804450   -14.9311810
   -42.5747340   -14.9316460
   -42.5692310   -14.9339720
   -42.5559500   -14.9477180
   -42.5214820   -14.9601720
   -42.4941190   -14.9787240
   -42.4870650   -14.9857000
   -42.4750760   -15.0001180
   -42.4619760   -15.0071460
   -42.4295750   -15.0325190
   -42.3064040   -15.0863140
   -42.2855790   -15.0989230
   -42.2600760   -15.1078110
   -42.2094590   -15.1187150
   -42.1980910   -15.1189220
   -42.1932850   -15.1169060
   -42.1769550   -15.1058990
   -42.1714000   -15.1058990
   -42.1655860   -15.1083800
   -42.1589970   -15.1150460
   -42.1522280   -15.1257430
   -42.1474740   -15.1304970
   -42.1404970   -15.1353550
   -42.1195680   -15.1464140
   -42.1142710   -15.1506510
   -42.1008100   -15.1651720
   -42.0981740   -15.1694100
   -42.0959520   -15.1740090
   -42.0926190   -15.1786080
   -42.0872960   -15.1817600
   -42.0770900   -15.1824840
   -42.0703980   -15.1810890
   -42.0496760   -15.1729240
   -42.0432420   -15.1716320
   -42.0353100   -15.1709600
   -42.0231400   -15.1716830
   -41.9965270   -15.1666190
   -41.9855200   -15.1666190
   -41.9528340   -15.1731820
   -41.9446950   -15.1727690
   -41.9383390   -15.1709600
   -41.9338430   -15.1685830
   -41.9240250   -15.1645520
   -41.9195550   -15.1619170
   -41.8861200   -15.1467750
   -41.8693510   -15.1358200
   -41.8622200   -15.1289990
   -41.8591970   -15.1252780
   -41.8552690   -15.1223320
   -41.8507730   -15.1207300
   -41.8257880   -15.1195420
   -41.8201290   -15.1184570
   -41.8151940   -15.1165450
   -41.8014220   -15.1096200
   -41.4999420   -15.3687770
   -41.3605960   -15.4952300
   -41.3309860   -15.7168180
   -41.3224590   -15.7420360
   -41.2943730   -15.7374370
   -41.2480450   -15.7501490
   -41.2009940   -15.7571260
   -41.1924160   -15.7595550
   -41.1875060   -15.7618280
   -41.1575600   -15.7810520
   -41.1400160   -15.7785710
   -41.0941270   -15.7532500
   -41.0546200   -15.7444130
   -41.0298670   -15.7344910
   -40.9959680   -15.7050360
   -40.9874670   -15.6932020
   -40.9838750   -15.6898950
   -40.9794830   -15.6874660
   -40.9684760   -15.6846750
   -40.9633860   -15.6828150
   -40.9550920   -15.6769240
   -40.9502860   -15.6748050
   -40.9449110   -15.6735130
   -40.9370050   -15.6742880
   -40.9273930   -15.6775440
   -40.9010380   -15.6925820
   -40.8920980   -15.6964580
   -40.8804970   -15.6966130
   -40.8727190   -15.6958370
   -40.8608080   -15.6924270
   -40.8413520   -15.6840550
   -40.8360810   -15.6829180
   -40.8307580   -15.6823500
   -40.8226960   -15.6840040
   -40.8131110   -15.6871560
   -40.7982020   -15.6958370
   -40.7906310   -15.7012640
   -40.7851790   -15.7060180
   -40.7618220   -15.7380050
   -40.7568610   -15.7410030
   -40.7500650   -15.7425010
   -40.7387480   -15.7417260
   -40.7254670   -15.7375920
   -40.7072000   -15.7276700
   -40.6972780   -15.7235360
   -40.6693730   -15.7165600
   -40.6632750   -15.7159400
   -40.6509500   -15.7187300
   -40.6342330   -15.7250350
   -40.5835640   -15.7510280
   -40.5742880   -15.7580560
   -40.5542890   -15.7929380
   -40.5501550   -15.7965030
   -40.5448060   -15.7985700
   -40.5355050   -15.7977430
   -40.5301560   -15.7948500
   -40.5254790   -15.7915420
   -40.5211130   -15.7889070
   -40.5159970   -15.7870980
   -40.5002870   -15.7851340
   -40.4966960   -15.7841530
   -40.4790480   -15.7758330
   -40.4747590   -15.7742310
   -40.4637780   -15.7770210
   -40.3847390   -15.8111280
   -40.3540950   -15.8203780
   -40.3308400   -15.8245120
   -40.3108410   -15.8242530
   -40.2942530   -15.8200160
   -40.2880780   -15.8192410
   -40.2368670   -15.8181560
   -40.2247230   -15.8200680
   -40.2185470   -15.8231170
   -40.2130440   -15.8276120
   -40.2078240   -15.8375860
   -40.2075920   -15.8438900
   -40.2083670   -15.8497820
   -40.2094010   -15.8542770
   -40.2081350   -15.8586180
   -40.2041810   -15.8622870
   -40.1982380   -15.8650780
   -40.1815210   -15.8690050
   -40.1761980   -15.8720540
   -40.1741060   -15.8781000
   -40.1750360   -15.8892110
   -40.1741830   -15.8938620
   -40.1701520   -15.8966520
   -40.1624780   -15.8966520
   -40.1560190   -15.8956190
   -40.1447020   -15.8925180
   -40.1381390   -15.8920530
   -40.1310330   -15.8924660
   -40.1178560   -15.8982540
   -40.1027150   -15.9068840
   -40.0731300   -15.9278130
   -40.0610120   -15.9380970
   -40.0538550   -15.9464680
   -40.0487640   -15.9616610
   -40.0436740   -15.9702910
   -40.0389980   -15.9745280
   -40.0327710   -15.9788690
   -40.0047100   -15.9938040
   -39.9977600   -15.9963360
   -39.9921530   -15.9970590
   -39.9852540   -15.9971110
   -39.9747380   -15.9948890
   -39.9578400   -15.9943210
   -39.9350500   -16.0010900
   -39.9280740   -16.0105990
   -39.9267560   -16.0159210
   -39.9214850   -16.0279100
   -39.9131400   -16.0403640
   -39.9064990   -16.0476510
   -39.8904540   -16.0598980
   -39.8873530   -16.0637740
   -39.8846400   -16.0685800
   -39.8823920   -16.0744190
   -39.8785420   -16.0885780
   -39.8760100   -16.0936940
   -39.8655710   -16.1109540
   -39.8618250   -16.1211860
   -39.8607400   -16.1280080
   -39.8612820   -16.1356040
   -39.8646150   -16.1466110
   -39.8721090   -16.1515200
   -39.8836320   -16.1548790
   -39.8889030   -16.1609250
   -39.8944840   -16.1704340
   -39.9091610   -16.2011810
   -39.9141990   -16.2173040
   -39.9159040   -16.2434530
   -39.9168600   -16.2594210
   -39.9193920   -16.2713060
   -39.9296240   -16.2960590
   -39.9405800   -16.3132160
   -39.9461610   -16.3193140
   -39.9701390   -16.3412760
   -39.9857190   -16.3531100
   -40.0571880   -16.3949680
   -40.1332810   -16.5021970
   -40.1394570   -16.5171310
   -40.1361750   -16.5275180
   -40.1351160   -16.5329960
   -40.1352450   -16.5389900
   -40.1374410   -16.5442610
   -40.1416010   -16.5482920
   -40.1490430   -16.5507720
   -40.1555540   -16.5508760
   -40.1617290   -16.5496870
   -40.1723490   -16.5460700
   -40.1838470   -16.5435380
   -40.1960680   -16.5445710
   -40.2526280   -16.5654490
   -40.2569170   -16.5680840
   -40.2613870   -16.5733550
   -40.2657280   -16.5809000
   -40.2708440   -16.5956790
   -40.2726270   -16.6053430
   -40.2730140   -16.6135590
   -40.2696810   -16.6443580
   -40.2716970   -16.6838910
   -40.2827290   -16.7430600
   -40.2830650   -16.7491070
   -40.2825740   -16.7550490
   -40.2809470   -16.7603200
   -40.2782590   -16.7646610
   -40.2607670   -16.7822310
   -40.2552120   -16.7906540
   -40.2468660   -16.8100850
   -40.2441270   -16.8210920
   -40.2434550   -16.8271380
   -40.2433920   -16.8308389
   -40.2437567   -16.8339339
   -40.2468660   -16.8396950
   -40.2535580   -16.8460000
   -40.2692940   -16.8540610
   -40.2770970   -16.8591770
   -40.2827290   -16.8639830
   -40.2853650   -16.8683240
   -40.2914890   -16.8760760
   -40.2954160   -16.8791760
   -40.3093690   -16.8817600
   -40.3314090   -16.8839300
   -40.4080710   -16.8845500
   -40.4424350   -16.8786590
   -40.4708320   -16.8690990
   -40.4756380   -16.8687890
   -40.4797200   -16.8708050
   -40.4828980   -16.8743190
   -40.4904690   -16.8879610
   -40.4933370   -16.8920950
   -40.5146270   -16.9128690
   -40.5178830   -16.9167450
   -40.5207510   -16.9209310
   -40.5251690   -16.9305420
   -40.5511370   -17.0597340
   -40.5678020   -17.0993180
   -40.5738230   -17.1215900
   -40.5741070   -17.1344580
   -40.5620410   -17.1775040
   -40.5607490   -17.1890800
   -40.5608000   -17.1980200
   -40.5622990   -17.2036520
   -40.5643140   -17.2154350
   -40.5642110   -17.2235480
   -40.5615750   -17.2463890
   -40.5619890   -17.2548640
   -40.5632290   -17.2617880
   -40.5655290   -17.2664910
   -40.5685000   -17.2705220
   -40.5723240   -17.2737260
   -40.5871040   -17.2803400
   -40.5910570   -17.2834410
   -40.5941060   -17.2874720
   -40.6010300   -17.3016830
   -40.6033820   -17.3133620
   -40.6055260   -17.3606970
   -40.6091950   -17.3852950
   -40.6095570   -17.3916510
   -40.6073350   -17.3984730
   -40.6023480   -17.4044670
   -40.5899980   -17.4102550
   -40.5826080   -17.4107200
   -40.5766910   -17.4089630
   -40.5735640   -17.4050870
   -40.5709550   -17.4006430
   -40.5631260   -17.3803340
   -40.5605940   -17.3758380
   -40.5572350   -17.3721690
   -40.5526350   -17.3697920
   -40.5463182   -17.3688899
   -40.5477900   -17.3781600
   -40.5276651   -17.3980605
   -40.5325070   -17.4043640
   -40.5351950   -17.4086530
   -40.5372880   -17.4134590
   -40.5384500   -17.4188330
   -40.5374680   -17.4245690
   -40.5340320   -17.4286520
   -40.5272110   -17.4311320
   -40.5217330   -17.4305120
   -40.5167200   -17.4284450
   -40.5087620   -17.4222950
   -40.5051885   -17.4202863
   -40.4816949   -17.4435180
   -40.4795650   -17.4518030
   -40.4786350   -17.4597090
   -40.4794360   -17.4654970
   -40.4938790   -17.5003790
   -40.4953520   -17.5072000
   -40.4962050   -17.5194470
   -40.4958430   -17.5256480
   -40.4912700   -17.5486960
   -40.4878590   -17.5540700
   -40.4823810   -17.5583080
   -40.4704180   -17.5612530
   -40.4627180   -17.5610470
   -40.4559230   -17.5598060
   -40.4505490   -17.5581010
   -40.4381200   -17.5562920
   -40.4244260   -17.5563960
   -40.4123600   -17.5586180
   -40.4066750   -17.5624940
   -40.4015080   -17.5686430
   -40.3946090   -17.5816660
   -40.3857980   -17.6146350
   -40.3816380   -17.6244020
   -40.3759020   -17.6303960
   -40.3673750   -17.6373730
   -40.3263190   -17.6617120
   -40.3208930   -17.6661050
   -40.3149500   -17.6720480
   -40.3066300   -17.6838300
   -40.3027280   -17.6916850
   -40.2986970   -17.7040870
   -40.2931940   -17.7102880
   -40.2837370   -17.7165930
   -40.2433520   -17.7347310
   -40.2308200   -17.7427930
   -40.2070490   -17.7658400
   -40.1937680   -17.7910070
   -40.1871800   -17.8100750
   -40.1853450   -17.8179300
   -40.1854740   -17.8261980
   -40.1869730   -17.8374120
   -40.1929930   -17.8577730
   -40.1971530   -17.8677980
   -40.2009770   -17.8750840
   -40.2171520   -17.8942560
   -40.2229400   -17.9025760
   -40.2275910   -17.9120330
   -40.2293480   -17.9173560
   -40.2266350   -17.9355460
   -40.2068430   -17.9785410
   -40.1844930   -18.0093400
   -39.6726090   -18.3232200
   -39.6594130   -18.2736140
   -39.6406430   -18.2294628
   -39.4734333   -18.3056165
   -39.4733379   -18.3063253
   -39.4726420   -18.3260131
END
END
